<svg width="186" height="223" viewBox="0 0 186 223" fill="none" xmlns="http://www.w3.org/2000/svg">
<g clip-path="url(#clip0_951_8685)">
<path d="M105.444 171.825C149.934 171.825 185.999 133.361 185.999 85.9126C185.999 38.4644 149.934 0 105.444 0C60.9545 0 24.8887 38.4644 24.8887 85.9126C24.8887 133.361 60.9545 171.825 105.444 171.825Z" fill="#DEE2E6"/>
<path d="M158.086 38.4204H10.5198C10.2034 38.4131 9.95235 38.1337 9.95912 37.7962C9.96568 37.4689 10.2129 37.2052 10.5198 37.1982H158.086C158.403 37.2055 158.654 37.4849 158.647 37.8224C158.64 38.1497 158.393 38.4134 158.086 38.4204Z" fill="#A9944E"/>
<path d="M107.796 59.0137H67.003C63.939 59.0137 61.4551 61.6627 61.4551 64.9305V64.9306C61.4551 68.1983 63.939 70.8474 67.003 70.8474H107.796C110.86 70.8474 113.344 68.1983 113.344 64.9305C113.344 61.6627 110.86 59.0137 107.796 59.0137Z" fill="white"/>
<path d="M40.6505 82.6807H134.149C137.213 82.6807 139.697 85.3297 139.697 88.5975C139.697 91.8653 137.213 94.5144 134.149 94.5144H40.6505C37.5864 94.5144 35.1025 91.8653 35.1025 88.5975C35.1025 85.3297 37.5864 82.6807 40.6505 82.6807Z" fill="white"/>
<path d="M40.6505 106.349H134.149C137.213 106.349 139.697 108.998 139.697 112.266C139.697 115.533 137.213 118.182 134.149 118.182H40.6505C37.5864 118.182 35.1025 115.533 35.1025 112.266C35.1025 108.998 37.5864 106.349 40.6505 106.349Z" fill="white"/>
<path d="M29.0638 222.479L28.8438 222.456C21.3779 221.635 14.6288 217.353 10.3895 210.747C9.22829 208.907 8.28902 206.917 7.59383 204.827L7.52702 204.627L7.72484 204.61C10.0866 204.407 12.5129 203.98 13.5907 203.777L6.64055 201.265L6.59757 201.045C6.18552 198.98 6.99278 196.856 8.63635 195.68C10.2844 194.447 12.4698 194.408 14.156 195.58C14.9127 196.096 15.7042 196.606 16.4696 197.1C19.0997 198.797 21.8194 200.552 23.8585 202.952C26.9506 206.665 28.3059 211.669 27.547 216.568L29.0638 222.479Z" fill="#3E9D41"/>
<path d="M54.3271 218.793L57.7523 218.793L59.3821 204.701L54.3262 204.702L54.3271 218.793Z" fill="#A0616A"/>
<path d="M54.2062 222.604L64.7401 222.604V222.462C64.7399 220.047 62.9043 218.089 60.64 218.089H60.6397L58.7156 216.532L55.1256 218.089L54.2061 218.089L54.2062 222.604Z" fill="#032C17"/>
<path d="M26.875 208.674L29.6148 210.867L38.8479 200.638L34.8037 197.402L26.875 208.674Z" fill="#A0616A"/>
<path d="M24.6338 211.646L33.0601 218.388L33.14 218.274C34.4988 216.342 34.1321 213.601 32.3209 212.152L32.3207 212.152L31.6576 209.675L27.9098 208.623L27.1742 208.034L24.6338 211.646H24.6338Z" fill="#032C17"/>
<path d="M38.2616 152.665C38.2616 152.665 38.4507 158.166 38.6893 162.578C38.7284 163.302 37.139 164.088 37.1801 164.875C37.2074 165.397 37.5062 165.905 37.5339 166.449C37.5632 167.024 37.1508 167.532 37.1801 168.127C37.2088 168.707 37.6794 169.373 37.7078 169.968C38.0132 176.363 39.1205 184.02 38.0117 186.161C37.4653 187.215 30.5 201.829 30.5 201.829C30.5 201.829 34.3808 208.038 35.4896 205.968C36.9541 203.235 48.2409 190.447 48.2409 188.005C48.2409 185.566 50.8521 167.287 50.8521 167.287L52.6729 178.104L53.5077 180.248L53.2454 181.506L53.7849 183.204L53.8141 184.885L54.3393 188.005C54.3393 188.005 52.7593 212.318 53.6491 212.995C54.5417 213.675 58.8633 214.896 59.3733 213.675C59.8806 212.454 63.1825 188.301 63.1825 188.301C63.1825 188.301 63.7147 177.232 64.2913 166.944C64.3245 166.347 64.7182 165.626 64.7487 165.037C64.7847 164.354 64.5353 163.467 64.5685 162.805C64.6045 162.045 64.9205 161.51 64.951 160.783C65.1866 155.163 63.864 148.319 63.4426 147.645C62.1702 145.611 61.0254 143.985 61.0254 143.985C61.0254 143.985 43.8882 137.98 39.3088 144.082L38.2617 152.665L38.2616 152.665Z" fill="#343A40"/>
<path d="M55.3537 96.0946L48.5602 94.6455L45.3898 99.2342C39.4742 105.438 39.3851 110.913 40.4411 119.689V132.006L39.6768 140.263C39.6768 140.263 36.971 146.299 39.7618 147.704C42.5525 149.11 60.8833 148.99 62.6335 148.429C64.3836 147.868 62.8666 147.179 62.407 144.565C61.5437 139.654 62.1212 142.023 62.1806 140.459C63.0324 118.029 61.0483 108.821 60.8468 106.4L57.3918 99.7173L55.3537 96.0946Z" fill="#362406"/>
<path d="M91.1602 114.179C90.4522 115.61 88.7907 116.158 87.4491 115.403C87.3061 115.322 87.17 115.229 87.0425 115.122L72.3711 125.058L72.4134 119.648L86.6655 110.828C87.6806 109.614 89.4263 109.507 90.5645 110.59C91.5169 111.496 91.7632 112.98 91.1602 114.179Z" fill="#A0616A"/>
<path d="M49.9899 102.359L48.3196 102.171C46.7763 102 45.262 102.705 44.3301 104.028C43.9731 104.53 43.7167 105.104 43.5769 105.716L43.5759 105.721C43.1569 107.563 43.814 109.493 45.2434 110.619L51.0124 115.155C55.061 120.99 62.6697 124.86 71.5947 128.005L85.4676 118.816L80.5608 112.478L71.0453 117.917L56.9011 106.24L56.8929 106.233L51.5096 102.534L49.9899 102.359L49.9899 102.359Z" fill="#343A40"/>
<path d="M53.059 92.5369C57.4343 92.5369 60.9813 88.7541 60.9813 84.0878C60.9813 79.4215 57.4343 75.6387 53.059 75.6387C48.6836 75.6387 45.1367 79.4215 45.1367 84.0878C45.1367 88.7541 48.6836 92.5369 53.059 92.5369Z" fill="#A0616A"/>
<path d="M53.2418 92.5391C53.1779 92.5413 53.1139 92.5428 53.0499 92.5447C53.0226 92.6204 52.9931 92.6955 52.959 92.7691L53.2418 92.5391V92.5391Z" fill="#2F2E41"/>
<path d="M55.416 84.3223C55.4284 84.4055 55.4475 84.4875 55.4728 84.5673C55.4624 84.4837 55.4433 84.4015 55.416 84.3223Z" fill="#2F2E41"/>
<path d="M61.0815 75.9998C60.7555 77.0797 60.4644 75.7099 59.3917 75.9563C58.1013 76.2527 56.5996 76.1509 55.5429 75.3073C53.9683 74.0752 51.9278 73.7435 50.0805 74.4194C48.2723 75.1016 45.2429 75.5827 44.7718 77.5656C44.608 78.2549 44.543 79.0029 44.146 79.5741C43.7989 80.0736 43.2511 80.3584 42.793 80.7428C41.2462 82.0407 42.4284 85.7283 43.1605 87.6768C43.8926 89.6253 45.572 91.0447 47.4183 91.7718C49.2047 92.4752 51.1436 92.5993 53.0493 92.544C53.3808 91.6272 53.2376 90.5683 52.9641 89.6178C52.668 88.5889 52.2296 87.5959 52.1059 86.5277C51.9822 85.4595 52.2539 84.2462 53.0937 83.6493C53.8656 83.1007 55.1217 83.4349 55.4154 84.3219C55.244 83.213 56.2973 82.1399 57.3833 81.9512C58.5493 81.7486 59.7153 82.1976 60.8779 82.421C62.0406 82.6445 61.6279 77.4242 61.0815 75.9998Z" fill="#212529"/>
<path d="M105.389 98.0648C106.128 88.5479 99.4925 80.1944 90.5691 79.4068C81.6456 78.6191 73.8131 85.6956 73.0745 95.2125C72.336 104.729 78.9712 113.083 87.8946 113.87C96.8181 114.658 104.651 107.582 105.389 98.0648Z" fill="#032C17"/>
<path d="M93.49 89.4342L89.2313 93.9762L84.9725 89.4342C84.2831 88.699 83.1654 88.699 82.476 89.4342C81.7866 90.1695 81.7866 91.3615 82.476 92.0968L86.7348 96.6387L82.476 101.181C81.7873 101.917 81.7883 103.109 82.4784 103.843C83.1675 104.577 84.2834 104.577 84.9725 103.843L89.2313 99.3013L93.49 103.843C94.1801 104.578 95.2978 104.577 95.9865 103.841C96.6744 103.106 96.6744 101.916 95.9865 101.181L91.7278 96.6387L95.9865 92.0968C96.6759 91.3615 96.6759 90.1695 95.9865 89.4342C95.2971 88.699 94.1794 88.699 93.49 89.4342Z" fill="white"/>
<path d="M82.8427 82.1048C83.3206 83.6402 82.5409 85.2981 81.1012 85.8078C80.9477 85.8621 80.79 85.9019 80.63 85.9267L77.1951 104.096L73.5645 100.318L77.463 83.2434C77.3445 81.6218 78.4811 80.2047 80.0016 80.0783C81.2739 79.9726 82.4485 80.8103 82.8427 82.1048Z" fill="#A0616A"/>
<path d="M46.3433 105.607L45.0593 106.762C43.8753 107.831 43.3039 109.485 43.5539 111.118C43.6463 111.74 43.8577 112.335 44.1749 112.866L44.1775 112.871C45.1336 114.468 46.8945 115.299 48.646 114.978L55.7091 113.679C62.4595 114.602 70.3459 111.426 78.6525 106.735L82.0395 89.6965L74.3541 89.085L71.4464 100.173L53.7534 102.974L53.743 102.976L47.5133 104.558L46.3433 105.607Z" fill="#343A40"/>
<path d="M86.5611 222.896L0.376402 223C0.167849 223 -0.0006735 222.819 2.0238e-06 222.596C0.000671204 222.375 0.168797 222.195 0.376402 222.195L86.5611 222.091C86.7697 222.092 86.9382 222.272 86.9375 222.495C86.9369 222.716 86.7687 222.896 86.5611 222.896Z" fill="#212529"/>
<path d="M18.0062 30.6792C19.4874 30.6792 20.6882 29.3701 20.6882 27.7552C20.6882 26.1402 19.4874 24.8311 18.0062 24.8311C16.525 24.8311 15.3242 26.1402 15.3242 27.7552C15.3242 29.3701 16.525 30.6792 18.0062 30.6792Z" fill="#A9944E"/>
<path d="M27.2709 30.6792C28.7521 30.6792 29.9528 29.3701 29.9528 27.7552C29.9528 26.1402 28.7521 24.8311 27.2709 24.8311C25.7896 24.8311 24.5889 26.1402 24.5889 27.7552C24.5889 29.3701 25.7896 30.6792 27.2709 30.6792Z" fill="#A9944E"/>
<path d="M36.5365 30.6792C38.0177 30.6792 39.2185 29.3701 39.2185 27.7552C39.2185 26.1402 38.0177 24.8311 36.5365 24.8311C35.0553 24.8311 33.8545 26.1402 33.8545 27.7552C33.8545 29.3701 35.0553 30.6792 36.5365 30.6792Z" fill="#A9944E"/>
<path d="M47.1005 30.0664C47.0181 30.0664 46.9359 30.0324 46.8738 29.9646L45.0641 27.9917C44.9435 27.8602 44.9435 27.6502 45.0641 27.5187L46.8738 25.5459C46.9966 25.4125 47.1976 25.4103 47.3222 25.5406C47.4475 25.6713 47.4497 25.8855 47.3272 26.0189L45.7345 27.7552L47.3272 29.4916C47.4497 29.6251 47.4475 29.8393 47.3222 29.9699C47.2606 30.0343 47.1805 30.0664 47.1005 30.0664Z" fill="#A9944E"/>
<path d="M50.1424 30.0666C50.0623 30.0666 49.9822 30.0346 49.9206 29.9702C49.7953 29.8395 49.7932 29.6255 49.9157 29.4919L51.5082 27.7554L49.9157 26.0192C49.7932 25.8857 49.7953 25.6715 49.9206 25.5409C50.0456 25.4101 50.2466 25.4125 50.3691 25.5462L52.1786 27.5189C52.2992 27.6504 52.2992 27.8605 52.1786 27.9919L50.3691 29.9649C50.307 30.0326 50.2247 30.0666 50.1424 30.0666Z" fill="#A9944E"/>
<path d="M144.813 25.1699H141.448C141.065 25.1699 140.754 25.5014 140.754 25.9107V29.5028C140.754 29.912 141.065 30.2435 141.448 30.2435H144.813C145.197 30.2435 145.511 29.912 145.511 29.5028V25.9107C145.511 25.5014 145.197 25.1699 144.813 25.1699Z" fill="#A9944E"/>
<path d="M136.567 25.1699H133.202C132.819 25.1699 132.508 25.5014 132.508 25.9107V29.5028C132.508 29.912 132.819 30.2435 133.202 30.2435H136.567C136.951 30.2435 137.265 29.912 137.265 29.5028V25.9107C137.265 25.5014 136.951 25.1699 136.567 25.1699Z" fill="#A9944E"/>
<path d="M152.584 25.3389H149.219C148.835 25.3389 148.524 25.6703 148.524 26.0796V29.6717C148.524 30.081 148.835 30.4124 149.219 30.4124H152.584C152.968 30.4124 153.282 30.081 153.282 29.6717V26.0796C153.282 25.6703 152.968 25.3389 152.584 25.3389Z" fill="#A9944E"/>
<path d="M101.865 26.7051H74.9679C74.4985 26.7051 74.1211 27.111 74.1211 27.6082C74.1211 28.1054 74.4985 28.5113 74.9679 28.5113H101.865C102.331 28.5113 102.712 28.1054 102.712 27.6082C102.712 27.111 102.331 26.7051 101.865 26.7051Z" fill="#A9944E"/>
</g>
<defs>
<clipPath id="clip0_951_8685">
<rect width="186" height="223" fill="white"/>
</clipPath>
</defs>
</svg>
