<svg width="452" height="278" viewBox="0 0 452 278" fill="none" xmlns="http://www.w3.org/2000/svg">
<g clip-path="url(#clip0_744_8488)">
<path d="M447.132 182.48H132.51C131.219 182.478 129.982 181.966 129.069 181.055C128.157 180.145 127.644 178.91 127.642 177.622V4.85802C127.644 3.57004 128.157 2.33523 129.069 1.42449C129.982 0.513747 131.219 0.00145567 132.51 0H447.132C448.423 0.00145826 449.66 0.513756 450.573 1.42449C451.485 2.33523 451.998 3.57004 452 4.85802V177.622C451.998 178.91 451.485 180.145 450.573 181.055C449.66 181.966 448.423 182.478 447.132 182.48Z" fill="#ADB5BD"/>
<path d="M440.495 175.856H139.147C137.857 175.854 136.62 175.342 135.707 174.431C134.795 173.521 134.281 172.286 134.28 170.998V11.483C134.281 10.195 134.795 8.96023 135.707 8.04949C136.62 7.13875 137.857 6.62645 139.147 6.625H440.495C441.785 6.62646 443.022 7.13875 443.935 8.04949C444.848 8.96024 445.361 10.195 445.362 11.483V170.998C445.361 172.286 444.847 173.521 443.935 174.431C443.022 175.342 441.785 175.854 440.495 175.856Z" fill="#F8F9FA"/>
<path d="M223.471 105.048H166.778C166.151 105.047 165.551 104.798 165.108 104.356C164.665 103.915 164.416 103.315 164.416 102.69V43.7619C164.416 43.1368 164.665 42.5376 165.108 42.0956C165.551 41.6537 166.151 41.405 166.778 41.4043H223.471C224.098 41.405 224.698 41.6537 225.141 42.0956C225.584 42.5376 225.833 43.1368 225.834 43.7619V102.69C225.833 103.315 225.584 103.915 225.141 104.356C224.698 104.798 224.098 105.047 223.471 105.048ZM166.778 42.3473C166.402 42.3477 166.042 42.4969 165.776 42.7621C165.51 43.0273 165.361 43.3869 165.36 43.7619V102.69C165.361 103.065 165.51 103.425 165.776 103.69C166.042 103.955 166.402 104.104 166.778 104.105H223.471C223.847 104.104 224.208 103.955 224.473 103.69C224.739 103.425 224.888 103.065 224.889 102.69V43.7619C224.888 43.3869 224.739 43.0273 224.473 42.7621C224.208 42.4969 223.847 42.3477 223.471 42.3473H166.778Z" fill="#343A40"/>
<path d="M318.168 105.048H261.475C260.848 105.047 260.248 104.798 259.805 104.356C259.362 103.915 259.113 103.315 259.112 102.69V43.7619C259.113 43.1368 259.362 42.5376 259.805 42.0956C260.248 41.6537 260.848 41.405 261.475 41.4043H318.168C318.795 41.405 319.395 41.6537 319.838 42.0956C320.281 42.5376 320.53 43.1368 320.53 43.7619V102.69C320.53 103.315 320.281 103.915 319.838 104.356C319.395 104.798 318.795 105.047 318.168 105.048ZM261.475 42.3473C261.099 42.3478 260.739 42.4969 260.473 42.7621C260.207 43.0273 260.058 43.3869 260.057 43.7619V102.69C260.058 103.065 260.207 103.425 260.473 103.69C260.738 103.955 261.099 104.104 261.475 104.105H318.168C318.544 104.104 318.904 103.955 319.17 103.69C319.436 103.425 319.585 103.065 319.586 102.69V43.7619C319.585 43.3869 319.436 43.0273 319.17 42.7621C318.904 42.4969 318.544 42.3478 318.168 42.3473H261.475Z" fill="#343A40"/>
<path d="M412.865 105.048H356.171C355.545 105.047 354.944 104.798 354.501 104.356C354.058 103.915 353.809 103.315 353.809 102.69V43.7619C353.809 43.1368 354.058 42.5376 354.501 42.0956C354.944 41.6537 355.545 41.405 356.171 41.4043H412.865C413.491 41.405 414.091 41.6537 414.534 42.0956C414.977 42.5376 415.226 43.1368 415.227 43.7619V102.69C415.226 103.315 414.977 103.915 414.534 104.356C414.091 104.798 413.491 105.047 412.865 105.048ZM356.171 42.3473C355.795 42.3477 355.435 42.4969 355.169 42.7621C354.903 43.0273 354.754 43.3869 354.753 43.7619V102.69C354.754 103.065 354.903 103.425 355.169 103.69C355.435 103.955 355.795 104.104 356.171 104.105H412.865C413.24 104.104 413.601 103.955 413.866 103.69C414.132 103.425 414.281 103.065 414.282 102.69V43.7619C414.281 43.3869 414.132 43.0273 413.866 42.7621C413.601 42.4969 413.24 42.3477 412.865 42.3473H356.171Z" fill="#343A40"/>
<path d="M184.177 141.076C184.388 141.076 184.596 141.035 184.791 140.955C184.986 140.874 185.162 140.756 185.311 140.608C185.46 140.459 185.579 140.283 185.659 140.089C185.74 139.895 185.782 139.686 185.782 139.476C185.782 139.266 185.74 139.058 185.66 138.864C185.579 138.669 185.461 138.493 185.312 138.344C185.163 138.196 184.987 138.078 184.792 137.997C184.598 137.917 184.389 137.875 184.179 137.875H169.787C169.362 137.875 168.954 138.044 168.653 138.344C168.352 138.644 168.183 139.051 168.183 139.476C168.183 139.9 168.352 140.307 168.653 140.607C168.954 140.908 169.362 141.076 169.787 141.076H184.177Z" fill="#ADB5BD"/>
<path d="M220.462 131.645C220.888 131.645 221.296 131.477 221.597 131.178C221.899 130.878 222.068 130.471 222.069 130.047C222.07 129.622 221.902 129.215 221.601 128.914C221.301 128.614 220.894 128.444 220.468 128.443H169.786C169.362 128.444 168.954 128.613 168.654 128.913C168.354 129.213 168.186 129.62 168.186 130.044C168.186 130.468 168.354 130.875 168.654 131.175C168.954 131.475 169.362 131.644 169.786 131.645H220.462Z" fill="#ADB5BD"/>
<path d="M278.873 141.076C279.299 141.076 279.707 140.908 280.008 140.607C280.308 140.307 280.477 139.9 280.477 139.476C280.477 139.051 280.308 138.644 280.008 138.344C279.707 138.044 279.299 137.875 278.873 137.875H264.483C264.058 137.875 263.65 138.044 263.349 138.344C263.048 138.644 262.879 139.051 262.879 139.476C262.879 139.9 263.048 140.307 263.349 140.607C263.65 140.908 264.058 141.076 264.483 141.076H278.873Z" fill="#ADB5BD"/>
<path d="M315.159 131.645C315.584 131.644 315.991 131.475 316.291 131.175C316.592 130.875 316.76 130.468 316.76 130.044C316.76 129.62 316.592 129.213 316.291 128.913C315.991 128.613 315.584 128.444 315.159 128.443H264.483C264.058 128.444 263.651 128.613 263.351 128.913C263.051 129.213 262.882 129.62 262.882 130.044C262.882 130.468 263.051 130.875 263.351 131.175C263.651 131.475 264.058 131.644 264.483 131.645H315.159Z" fill="#ADB5BD"/>
<path d="M373.57 141.076C373.995 141.076 374.403 140.908 374.704 140.607C375.005 140.307 375.174 139.9 375.174 139.476C375.174 139.051 375.005 138.644 374.704 138.344C374.403 138.044 373.995 137.875 373.57 137.875H359.18C358.969 137.875 358.76 137.916 358.566 137.997C358.371 138.077 358.194 138.195 358.045 138.343C357.896 138.492 357.778 138.668 357.698 138.862C357.617 139.057 357.575 139.265 357.575 139.475C357.575 139.685 357.617 139.893 357.697 140.088C357.778 140.282 357.896 140.458 358.044 140.607C358.193 140.756 358.37 140.874 358.565 140.954C358.759 141.035 358.968 141.076 359.178 141.076H373.57Z" fill="#ADB5BD"/>
<path d="M409.856 131.645C410.281 131.644 410.688 131.475 410.988 131.175C411.288 130.875 411.457 130.468 411.457 130.044C411.457 129.62 411.288 129.213 410.988 128.913C410.688 128.613 410.281 128.444 409.856 128.443H359.18C358.969 128.443 358.761 128.484 358.566 128.564C358.371 128.644 358.194 128.762 358.045 128.91C357.896 129.058 357.777 129.235 357.696 129.429C357.615 129.623 357.574 129.831 357.573 130.041C357.573 130.251 357.614 130.459 357.694 130.654C357.774 130.848 357.892 131.025 358.041 131.174C358.19 131.323 358.366 131.441 358.561 131.522C358.755 131.602 358.963 131.644 359.174 131.645H409.856Z" fill="#ADB5BD"/>
<path d="M220.463 122.371C220.888 122.371 221.296 122.203 221.597 121.903C221.898 121.603 222.067 121.196 222.067 120.771C222.067 120.347 221.899 119.94 221.598 119.639C221.297 119.339 220.889 119.17 220.464 119.17H169.787C169.362 119.17 168.954 119.339 168.653 119.639C168.352 119.939 168.183 120.346 168.183 120.771C168.183 121.195 168.352 121.602 168.653 121.902C168.954 122.202 169.362 122.371 169.787 122.371H220.463Z" fill="#032C17"/>
<path d="M315.159 122.371C315.584 122.371 315.992 122.202 316.293 121.902C316.594 121.602 316.763 121.195 316.763 120.771C316.763 120.346 316.594 119.939 316.293 119.639C315.992 119.339 315.584 119.17 315.159 119.17H264.483C264.058 119.17 263.65 119.339 263.349 119.639C263.048 119.939 262.879 120.346 262.879 120.771C262.879 121.195 263.048 121.602 263.349 121.902C263.65 122.202 264.058 122.371 264.483 122.371H315.159Z" fill="#032C17"/>
<path d="M409.856 122.371C410.281 122.371 410.689 122.202 410.99 121.902C411.29 121.602 411.459 121.195 411.459 120.771C411.459 120.346 411.29 119.939 410.99 119.639C410.689 119.339 410.281 119.17 409.856 119.17H359.18C358.754 119.17 358.346 119.338 358.045 119.638C357.745 119.938 357.575 120.345 357.575 120.77C357.575 121.194 357.744 121.602 358.044 121.902C358.345 122.202 358.753 122.371 359.178 122.371H409.856Z" fill="#032C17"/>
<path d="M211.391 93.627C211.816 93.6262 212.223 93.4573 212.523 93.1572C212.824 92.8571 212.992 92.4504 212.992 92.0264C212.992 91.6024 212.824 91.1957 212.523 90.8956C212.223 90.5955 211.816 90.4265 211.391 90.4258H178.858C178.648 90.4254 178.439 90.4664 178.244 90.5465C178.049 90.6266 177.872 90.7442 177.723 90.8925C177.574 91.0409 177.456 91.2171 177.375 91.4111C177.294 91.6052 177.252 91.8132 177.251 92.0234C177.251 92.2336 177.292 92.4419 177.372 92.6362C177.453 92.8305 177.57 93.0072 177.719 93.1561C177.868 93.305 178.044 93.4232 178.239 93.504C178.433 93.5848 178.642 93.6266 178.852 93.627H211.391Z" fill="#ADB5BD"/>
<path d="M211.391 84.1973C211.816 84.1965 212.223 84.0276 212.523 83.7275C212.824 83.4274 212.992 83.0207 212.992 82.5967C212.992 82.1727 212.824 81.766 212.523 81.4659C212.223 81.1658 211.816 80.9968 211.391 80.9961H178.858C178.648 80.9957 178.439 81.0367 178.244 81.1168C178.049 81.1969 177.872 81.3145 177.723 81.4628C177.574 81.6112 177.456 81.7874 177.375 81.9815C177.294 82.1755 177.252 82.3836 177.251 82.5938C177.251 82.804 177.292 83.0122 177.372 83.2065C177.453 83.4008 177.57 83.5775 177.719 83.7264C177.868 83.8753 178.044 83.9935 178.239 84.0743C178.433 84.1551 178.642 84.1969 178.852 84.1973H211.391Z" fill="#ADB5BD"/>
<path d="M195.124 73.1396C200.745 73.1396 205.302 68.5919 205.302 62.9819C205.302 57.372 200.745 52.8242 195.124 52.8242C189.503 52.8242 184.947 57.372 184.947 62.9819C184.947 68.5919 189.503 73.1396 195.124 73.1396Z" fill="#032C17"/>
<path d="M306.088 93.627C306.513 93.6262 306.92 93.4573 307.22 93.1572C307.52 92.8571 307.689 92.4504 307.689 92.0264C307.689 91.6023 307.52 91.1957 307.22 90.8956C306.92 90.5955 306.513 90.4265 306.088 90.4258H273.555C273.13 90.4265 272.722 90.5955 272.422 90.8956C272.122 91.1957 271.954 91.6023 271.954 92.0264C271.954 92.4504 272.122 92.8571 272.422 93.1572C272.722 93.4573 273.13 93.6262 273.555 93.627H306.088Z" fill="#ADB5BD"/>
<path d="M306.088 84.1973C306.513 84.1965 306.92 84.0276 307.22 83.7275C307.52 83.4274 307.689 83.0207 307.689 82.5967C307.689 82.1727 307.52 81.766 307.22 81.4659C306.92 81.1658 306.513 80.9968 306.088 80.9961H273.555C273.13 80.9968 272.722 81.1658 272.422 81.4659C272.122 81.766 271.954 82.1727 271.954 82.5967C271.954 83.0207 272.122 83.4274 272.422 83.7275C272.722 84.0276 273.13 84.1965 273.555 84.1973H306.088Z" fill="#ADB5BD"/>
<path d="M289.821 73.1396C295.442 73.1396 299.999 68.5919 299.999 62.9819C299.999 57.372 295.442 52.8242 289.821 52.8242C284.2 52.8242 279.644 57.372 279.644 62.9819C279.644 68.5919 284.2 73.1396 289.821 73.1396Z" fill="#032C17"/>
<path d="M400.784 93.627C400.995 93.6274 401.204 93.5863 401.398 93.5062C401.593 93.4262 401.77 93.3086 401.919 93.1602C402.068 93.0119 402.187 92.8357 402.268 92.6416C402.349 92.4476 402.391 92.2395 402.391 92.0293C402.392 91.8191 402.35 91.6109 402.27 91.4166C402.19 91.2222 402.072 91.0456 401.923 90.8967C401.775 90.7477 401.598 90.6295 401.404 90.5487C401.209 90.468 401.001 90.4262 400.79 90.4258H368.251C367.826 90.4265 367.419 90.5955 367.119 90.8956C366.819 91.1957 366.65 91.6023 366.65 92.0264C366.65 92.4504 366.819 92.8571 367.119 93.1572C367.419 93.4573 367.826 93.6262 368.251 93.627H400.784Z" fill="#ADB5BD"/>
<path d="M400.784 84.1973C400.995 84.1977 401.204 84.1566 401.398 84.0766C401.593 83.9965 401.77 83.8789 401.919 83.7306C402.068 83.5822 402.187 83.406 402.268 83.2119C402.349 83.0179 402.391 82.8098 402.391 82.5996C402.392 82.3894 402.35 82.1812 402.27 81.9869C402.19 81.7925 402.072 81.6159 401.923 81.467C401.775 81.3181 401.598 81.1999 401.404 81.1191C401.209 81.0383 401.001 80.9965 400.79 80.9961H368.251C367.826 80.9968 367.419 81.1658 367.119 81.4659C366.819 81.766 366.65 82.1727 366.65 82.5967C366.65 83.0207 366.819 83.4274 367.119 83.7275C367.419 84.0276 367.826 84.1965 368.251 84.1973H400.784Z" fill="#ADB5BD"/>
<path d="M384.518 73.1396C390.138 73.1396 394.695 68.5919 394.695 62.9819C394.695 57.372 390.138 52.8242 384.518 52.8242C378.897 52.8242 374.34 57.372 374.34 62.9819C374.34 68.5919 378.897 73.1396 384.518 73.1396Z" fill="#032C17"/>
<path d="M34.0855 271.707H40.1069L42.9713 248.527L34.0845 248.528L34.0855 271.707Z" fill="#FFB6B6"/>
<path d="M32.5493 269.747L44.4075 269.746H44.408C46.4122 269.746 48.3343 270.541 49.7515 271.955C51.1687 273.37 51.9649 275.288 51.9651 277.288V277.533L32.5497 277.534L32.5493 269.747Z" fill="#212529"/>
<path d="M54.7139 271.707H60.7353L63.5997 248.527L54.7129 248.528L54.7139 271.707Z" fill="#FFB6B6"/>
<path d="M53.1777 269.747L65.036 269.746H65.0365C67.0407 269.746 68.9627 270.541 70.3799 271.955C71.7971 273.37 72.5934 275.288 72.5935 277.288V277.533L53.1781 277.534L53.1777 269.747Z" fill="#212529"/>
<path d="M77.5947 170.729L62.8854 261.405L53.0625 260.915L53.3061 177.655L77.5947 170.729Z" fill="#212529"/>
<path d="M37.9398 143.025L73.6292 143.52L77.5947 170.729L53.3061 182.108L42.7484 258.955L33.4166 258.465L30.0088 163.309L37.9398 143.025Z" fill="#212529"/>
<path d="M59.2542 72.7752C65.2769 72.7752 70.1593 67.9024 70.1593 61.8915C70.1593 55.8806 65.2769 51.0078 59.2542 51.0078C53.2315 51.0078 48.3491 55.8806 48.3491 61.8915C48.3491 67.9024 53.2315 72.7752 59.2542 72.7752Z" fill="#FFB9B9"/>
<path d="M64.3589 79.0584L70.6554 87.1234L67.681 148.962L44.384 148.468L40.4185 94.5443L45.3751 80.6922L47.1688 77.5879L64.3589 79.0584Z" fill="#513C10"/>
<path d="M75.1162 110.373L80.5688 131.151L75.1162 151.929L84.0386 163.803L91.9695 126.204C91.9695 126.204 86.0213 95.5321 85.5256 92.069C85.0299 88.606 84.0386 88.1113 84.0386 88.1113L80.073 88.606L75.1162 110.373Z" fill="#362406"/>
<path d="M35.4616 118.289L31.9917 124.721L31 135.604L32.9828 147.972L26.0434 159.35L19.104 128.183L26.539 88.1113H29.5133L35.4616 118.289Z" fill="#362406"/>
<path d="M49.8236 64.712L49.5653 69.1117C49.5653 69.1117 46.3667 61.8929 45.871 54.4722C45.3753 47.0515 53.802 45.5674 58.7589 45.0727C63.7157 44.5779 72.1424 48.0409 72.1424 51.9986C72.1424 55.9563 63.22 54.9669 59.7502 53.9775C56.2805 52.9881 54.7934 61.3982 54.7934 61.3982L52.8106 61.8929L49.8236 64.712Z" fill="#212529"/>
<path d="M76.6032 117.299L74.6205 136.098L78.5859 147.477L81.0644 158.36C81.0644 158.36 81.0644 168.749 71.1507 169.244C61.237 169.739 32.4872 168.749 32.4872 168.749C32.4872 168.749 28.5217 168.255 25.0519 160.339C21.5821 152.424 31.9915 145.003 31.9915 145.003L34.9656 134.614L33.9742 121.751L27.0346 88.111L47.6055 77.4746L52.8102 128.183L63.9632 78.9588L67.6808 81.6797L83.5428 88.111L76.6032 117.299Z" fill="#362406"/>
<path d="M126.587 277.999H0V276.967H126.775L126.587 277.999Z" fill="#3F3D56"/>
</g>
<defs>
<clipPath id="clip0_744_8488">
<rect width="452" height="278" fill="white"/>
</clipPath>
</defs>
</svg>
