<svg width="110" height="128" viewBox="0 0 110 128" fill="none" xmlns="http://www.w3.org/2000/svg">
<g clip-path="url(#clip0_993_8896)">
<path d="M110 48.8551C110 49.2187 109.996 49.5818 109.987 49.9442C109.984 50.1811 109.976 50.4181 109.967 50.655C109.965 50.723 109.963 50.7891 109.96 50.857C109.954 50.9874 109.949 51.116 109.943 51.2427C109.903 52.0894 109.841 52.93 109.757 53.7645C109.753 53.8049 109.75 53.8453 109.746 53.8838C109.737 53.9665 109.73 54.0491 109.719 54.1318C109.693 54.3797 109.666 54.6277 109.635 54.872C109.615 55.0373 109.594 55.2007 109.572 55.366C109.562 55.445 109.551 55.524 109.541 55.6011C109.529 55.6874 109.518 55.7719 109.505 55.8564C109.499 55.8931 109.494 55.9299 109.488 55.9684C109.47 56.0933 109.452 56.2201 109.432 56.345C109.408 56.5084 109.382 56.67 109.355 56.8335C109.33 56.9951 109.302 57.1568 109.273 57.3184C109.245 57.48 109.216 57.6416 109.187 57.8033C109.158 57.9667 109.127 58.1283 109.096 58.29C108.939 59.0908 108.763 59.8848 108.57 60.6721C108.493 60.9788 108.414 61.285 108.334 61.5904C108.2 62.0863 108.06 62.5798 107.912 63.0708C107.87 63.2067 107.828 63.3426 107.786 63.4767C107.738 63.631 107.689 63.7852 107.64 63.9377C107.59 64.092 107.541 64.2444 107.49 64.3969C107.439 64.5493 107.387 64.7017 107.335 64.8542C107.283 65.0048 107.23 65.1572 107.176 65.3078C107.123 65.4603 107.068 65.6109 107.013 65.7615C106.956 65.9121 106.902 66.0627 106.845 66.2115C106.732 66.5127 106.615 66.8108 106.496 67.1059C106.438 67.2547 106.377 67.4035 106.315 67.5504C106.072 68.1418 105.818 68.7265 105.551 69.3044C105.493 69.433 105.435 69.5615 105.374 69.6883C105.334 69.7728 105.296 69.8554 105.255 69.9399C105.188 70.0795 105.122 70.2172 105.055 70.355C104.987 70.4945 104.918 70.636 104.846 70.7774C104.706 71.0566 104.562 71.3351 104.417 71.6131C104.273 71.8904 104.125 72.1677 103.973 72.4414C103.821 72.7151 103.668 72.9887 103.513 73.2587C103.434 73.3946 103.355 73.5305 103.277 73.6646C102.961 74.2028 102.634 74.7348 102.298 75.2607C101.963 75.7841 101.618 76.3014 101.262 76.8126C101.085 77.0679 100.904 77.3232 100.721 77.5749C100.648 77.6759 100.575 77.7751 100.502 77.8742C100.412 77.9991 100.319 78.1222 100.226 78.2452C96.2666 83.5396 91.277 87.9686 85.5609 91.2626C79.8447 94.5566 73.5216 96.6468 66.9764 97.4059C60.4311 98.165 53.8007 97.5771 47.4886 95.6781C41.1766 93.7791 35.3149 90.6086 30.2605 86.3596C29.727 85.9114 29.2033 85.4523 28.6893 84.9821C25.3912 81.9627 22.52 78.5033 20.1558 74.7005C19.8617 74.2248 19.573 73.7436 19.2953 73.2587C15.0324 65.8407 12.7944 57.4221 12.8079 48.8551C12.8079 21.8727 34.5647 8.96763e-06 61.404 8.96763e-06C69.4799 -0.0049118 77.4295 2.01535 84.533 5.87787C91.6365 9.74039 97.6695 15.3232 102.086 22.1207C102.166 22.2438 102.247 22.3686 102.327 22.4935C106.718 29.3635 109.315 37.2356 109.878 45.382C109.96 46.528 110.001 47.6857 110 48.8551Z" fill="#F8F9FA"/>
<path d="M102.327 22.4939H35.0142C34.9658 22.4928 34.9198 22.4726 34.886 22.4378C34.8522 22.4029 34.8333 22.3562 34.8333 22.3075C34.8333 22.2588 34.8522 22.2121 34.886 22.1773C34.9198 22.1424 34.9658 22.1223 35.0142 22.1211H102.086C102.166 22.2442 102.247 22.369 102.327 22.4939Z" fill="#343A40"/>
<path d="M39.098 19.8839C40.2004 19.8839 41.094 18.9655 41.094 17.8326C41.094 16.6997 40.2004 15.7812 39.098 15.7812C37.9957 15.7812 37.1021 16.6997 37.1021 17.8326C37.1021 18.9655 37.9957 19.8839 39.098 19.8839Z" fill="#212529"/>
<path d="M45.993 19.8839C47.0954 19.8839 47.989 18.9655 47.989 17.8326C47.989 16.6997 47.0954 15.7812 45.993 15.7812C44.8907 15.7812 43.9971 16.6997 43.9971 17.8326C43.9971 18.9655 44.8907 19.8839 45.993 19.8839Z" fill="#212529"/>
<path d="M52.8883 19.8839C53.9907 19.8839 54.8843 18.9655 54.8843 17.8326C54.8843 16.6997 53.9907 15.7812 52.8883 15.7812C51.786 15.7812 50.8923 16.6997 50.8923 17.8326C50.8923 18.9655 51.786 19.8839 52.8883 19.8839Z" fill="#212529"/>
<path d="M109.878 45.3828C108.122 46.1854 106.549 47.4821 105.175 49.2655C103.588 51.3281 101.887 52.7809 100.149 53.7653C100.067 53.8112 99.9867 53.8553 99.9045 53.8994C98.347 54.7432 96.639 55.2694 94.8786 55.4477C94.3469 55.5016 93.8127 55.5273 93.2783 55.5248C93.0554 55.523 92.8325 55.5175 92.6114 55.5065C92.0871 55.4808 91.5683 55.4293 91.0586 55.3559C88.1318 54.9371 85.4846 53.8057 83.5243 52.7423C80.8384 51.2531 77.923 50.2274 74.8995 49.7082C74.3587 49.6181 73.8191 49.5477 73.2808 49.4969C73.0579 49.4749 72.8369 49.4584 72.6158 49.4437C72.0732 49.4069 71.5312 49.3898 70.9899 49.3923C70.7122 49.3941 70.4363 49.3996 70.1586 49.4106C65.4926 49.5943 59.4072 50.9314 53.9502 55.602C53.8771 55.6644 53.8058 55.7269 53.7328 55.7893C53.6652 55.8481 53.5976 55.9087 53.53 55.9693C52.6663 56.7412 51.8522 57.5675 51.0929 58.4433C50.2223 59.4463 49.4168 60.5046 48.6813 61.6115C47.808 62.9075 46.7878 64.097 45.6414 65.1563C43.9457 66.7295 42.5877 68.6345 41.6509 70.7544C40.714 72.8743 40.2181 75.1643 40.1935 77.4839V77.5757C40.1917 77.6749 40.1917 77.7759 40.1917 77.8751H100.504C100.577 77.7759 100.65 77.6768 100.721 77.5757C100.904 77.3241 101.085 77.0688 101.262 76.8135C101.618 76.3029 101.963 75.7856 102.298 75.2616C102.636 74.7363 102.962 74.2043 103.277 73.6655C103.356 73.5314 103.434 73.3955 103.513 73.2596C103.668 72.9896 103.821 72.716 103.973 72.4423C104.125 72.1686 104.273 71.8913 104.417 71.614C104.563 71.3366 104.706 71.0581 104.846 70.7783C104.918 70.6369 104.987 70.4954 105.055 70.3558C105.122 70.2181 105.188 70.0803 105.256 69.9408C105.296 69.8563 105.334 69.7736 105.374 69.6891C105.435 69.5624 105.493 69.4338 105.551 69.3053C105.818 68.7267 106.073 68.1421 106.315 67.5513C106.377 67.4043 106.438 67.2556 106.496 67.1068C106.615 66.8111 106.731 66.5129 106.845 66.2123C106.902 66.0636 106.956 65.913 107.013 65.7624C107.068 65.6118 107.123 65.4612 107.176 65.3087C107.23 65.1581 107.283 65.0057 107.335 64.8551C107.388 64.7026 107.439 64.5502 107.49 64.3977C107.541 64.2453 107.59 64.0928 107.64 63.9386C107.689 63.7861 107.738 63.6318 107.786 63.4776C107.828 63.3435 107.87 63.2076 107.912 63.0717C108.06 62.5813 108.201 62.0878 108.334 61.5913C108.414 61.2864 108.493 60.9803 108.57 60.673C108.763 59.8869 108.939 59.0929 109.096 58.2908C109.127 58.1292 109.158 57.9676 109.187 57.8041C109.216 57.6425 109.246 57.4809 109.273 57.3193C109.302 57.1576 109.33 56.996 109.355 56.8344C109.383 56.6709 109.408 56.5093 109.432 56.3458C109.452 56.221 109.47 56.0942 109.489 55.9693C109.494 55.9308 109.499 55.894 109.505 55.8573C109.518 55.771 109.529 55.6865 109.54 55.602C109.551 55.523 109.562 55.444 109.573 55.3669C109.594 55.2016 109.615 55.0381 109.635 54.8728C109.666 54.6286 109.693 54.3806 109.719 54.1327H109.721C109.728 54.05 109.737 53.9674 109.746 53.8847C109.75 53.8461 109.753 53.8057 109.757 53.7653C109.841 52.9315 109.903 52.0909 109.943 51.2436C109.949 51.1169 109.954 50.9883 109.96 50.8579C109.964 50.79 109.965 50.7238 109.967 50.6559C109.976 50.419 109.984 50.182 109.987 49.9451C109.996 49.5833 110.001 49.2202 110 48.856C110 47.6878 109.959 46.5301 109.878 45.3828Z" fill="#70CE6A"/>
<path d="M53.3265 57.6992H52.6599V77.3402H53.3265V57.6992Z" fill="#212529"/>
<path d="M73.2815 48.5273H72.615V77.3414H73.2815V48.5273Z" fill="#212529"/>
<path d="M93.2779 54.5566H92.6113V77.3399H93.2779V54.5566Z" fill="#212529"/>
<path d="M72.9895 51.0374C74.1156 51.0374 75.0286 50.1196 75.0286 48.9874C75.0286 47.8553 74.1156 46.9375 72.9895 46.9375C71.8634 46.9375 70.9504 47.8553 70.9504 48.9874C70.9504 50.1196 71.8634 51.0374 72.9895 51.0374Z" fill="#212529"/>
<path d="M92.9858 56.7346C94.112 56.7346 95.0249 55.8168 95.0249 54.6847C95.0249 53.5525 94.112 52.6348 92.9858 52.6348C91.8597 52.6348 90.9468 53.5525 90.9468 54.6847C90.9468 55.8168 91.8597 56.7346 92.9858 56.7346Z" fill="#212529"/>
<path d="M52.6279 58.0959C53.7541 58.0959 54.667 57.1782 54.667 56.046C54.667 54.9139 53.7541 53.9961 52.6279 53.9961C51.5018 53.9961 50.5889 54.9139 50.5889 56.046C50.5889 57.1782 51.5018 58.0959 52.6279 58.0959Z" fill="#212529"/>
<path d="M100.721 77.5742C100.648 77.6752 100.575 77.7744 100.502 77.8736C100.412 77.9985 100.319 78.1215 100.226 78.2446H40.1257V77.5742H100.721Z" fill="#343A40"/>
<path d="M23.2228 125.835H25.154L26.0728 118.346L23.2224 118.346L23.2228 125.835Z" fill="#FFB8B8"/>
<path d="M28.2473 125.913C28.0231 125.686 27.756 125.505 27.4617 125.383C27.1671 125.261 26.8519 125.199 26.5336 125.199L25.3955 124.332L25.3352 124.356L23.2744 125.199H22.73V127.715H28.9579V127.636C28.9589 127.316 28.8965 126.999 28.7745 126.703C28.6525 126.407 28.4733 126.139 28.2473 125.913Z" fill="#212529"/>
<path d="M32.1954 125.835H34.1267L35.0454 118.346L32.1951 118.346L32.1954 125.835Z" fill="#FFB8B8"/>
<path d="M37.221 125.913C36.9965 125.685 36.7287 125.505 36.4336 125.383C36.1392 125.261 35.8239 125.199 35.5056 125.199L34.3692 124.332L34.3071 124.358L32.2463 125.199H31.7019L31.7037 127.715H37.9299V127.636C37.9307 127.316 37.8685 126.999 37.7469 126.703C37.6252 126.408 37.4465 126.139 37.221 125.913Z" fill="#212529"/>
<path d="M33.7391 84.8496L18.5649 85.2476L18.8288 92.6761C18.8288 92.6761 18.5649 94.6659 19.0927 95.1965C19.6205 95.7271 19.8844 95.7271 19.6205 96.6557C19.3566 97.5842 20.7509 99.1009 20.5816 99.2711C20.4122 99.4414 20.0164 100.37 20.0164 100.37L21.3359 107.931C21.3359 107.931 22.2595 121.064 22.5234 121.329C22.7873 121.594 23.0512 121.329 22.7873 121.992C22.5234 122.656 22.2595 122.39 22.5234 122.656C22.7572 122.909 22.9774 123.175 23.1832 123.451H26.3733C26.3733 123.451 26.6138 122.125 26.6138 121.992C26.6138 121.86 26.8777 121.064 26.8777 120.931C26.8777 120.798 26.6445 120.564 26.6445 120.564C26.5639 120.294 26.5094 120.017 26.4819 119.737C26.4819 119.472 25.6902 109.258 25.6902 109.258L27.2736 95.9924L31.1001 108.992C31.1001 108.992 31.1001 120.4 31.364 120.666C31.6279 120.931 31.6279 120.798 31.496 121.329C31.364 121.86 30.8362 121.727 31.232 122.125C31.6279 122.523 31.7599 121.86 31.6279 122.523L31.496 123.186L35.4544 123.243C35.4544 123.243 35.9822 122.125 35.7183 121.727C35.4544 121.329 35.4703 121.438 35.7922 120.786C36.1142 120.135 36.2461 120.002 36.1142 119.87C35.9822 119.737 35.9822 119.032 35.9822 119.032L35.3225 106.339C35.3225 106.339 35.1905 92.9414 35.1905 92.5434C35.1806 92.3387 35.2181 92.1344 35.3001 91.9467V91.4065L34.7947 89.4924L33.7391 84.8496Z" fill="#212529"/>
<path d="M50.9117 55.9185C50.8387 56.1223 50.7223 56.3075 50.5704 56.4612C50.4186 56.6148 50.2351 56.7331 50.0329 56.8077C49.8307 56.8823 49.6147 56.9114 49.4001 56.8931C49.1854 56.8747 48.9774 56.8092 48.7907 56.7012L42.2039 62.2489L41.8459 59.5372L48.2884 54.5791C48.4896 54.2758 48.7945 54.0572 49.1453 53.9647C49.4961 53.8722 49.8684 53.9124 50.1918 54.0775C50.5151 54.2426 50.767 54.5212 50.8997 54.8605C51.0324 55.1998 51.0366 55.5763 50.9117 55.9185H50.9117Z" fill="#FFB8B8"/>
<path d="M21.8675 58.2088C24.1266 58.2088 25.9579 56.3677 25.9579 54.0966C25.9579 51.8255 24.1266 49.9844 21.8675 49.9844C19.6084 49.9844 17.7771 51.8255 17.7771 54.0966C17.7771 56.3677 19.6084 58.2088 21.8675 58.2088Z" fill="#FFB8B8"/>
<path d="M25.1838 50.0038C24.803 49.0913 23.171 48.5495 20.5886 48.6311C18.0061 48.7127 17.5539 51.8087 17.5539 51.8087C16.1315 53.1416 18.4279 57.3029 18.8263 56.7292C19.2247 56.1554 19.8937 56.6978 19.8937 56.6978L19.2562 53.093C19.9294 53.3534 20.6534 53.5282 21.2866 53.2249L20.2375 52.6609L22.846 52.9872L21.7702 52.1552C21.7963 52.1465 21.8224 52.1376 21.8485 52.1287C22.2799 52.3157 22.7419 52.4212 23.2113 52.4398C23.7598 52.4357 24.3426 52.1773 24.5724 51.6767C24.6335 51.5392 24.6666 51.3908 24.6698 51.2403C25.426 51.4871 25.823 52.3777 25.823 52.3777C25.6795 51.5691 25.4656 50.7748 25.1838 50.0038Z" fill="#2F2E41"/>
<path d="M25.1417 58.3928C24.2282 58.3928 23.6399 58.5195 22.2186 58.7601C19.5951 59.2046 21.1663 61.7106 21.1663 61.7106C21.1663 61.7106 21.285 61.65 20.9635 61.7106C20.642 61.7712 19.5458 62.7244 19.5458 62.7244L17.5855 64.4748C14.6314 66.8055 15.2927 70.4421 15.2927 70.4421L19.6006 74.8005L17.7134 83.5448C17.7134 83.5448 18.5154 84.8433 18.1007 85.4255C17.686 86.0077 21.7545 85.8406 21.7545 85.8406C24.5625 87.0987 34.4553 86.0353 34.4553 86.0353C34.3183 85.6753 32.9937 82.8854 32.9937 82.8854C33.5692 81.8863 33.0212 80.4427 33.0212 80.4427C33.0212 80.4427 32.4493 73.614 32.0839 72.6699C31.7186 71.7259 33.0193 66.6108 33.8743 66.6659C34.7293 66.721 40.2521 63.8889 40.2521 63.8889C40.2521 63.8889 40.1133 63.6666 41.9365 62.9173C42.9838 62.5036 43.9439 61.8948 44.7664 61.1229L45.5155 59.6187C45.1556 59.7582 43.9407 57.4551 43.9407 57.4551L43.4108 57.6581L43.1039 57.5689C43.1039 57.5689 40.7088 58.254 40.2192 58.7536C39.7296 59.2532 39.5652 59.1136 39.1231 59.2256C38.6809 59.3376 38.6261 59.6499 38.4873 59.615C38.3484 59.5801 38.1018 60.0025 37.9082 59.9474C37.7145 59.8923 37.2998 60.1146 37.0239 60.1697C36.7481 60.2248 34.7878 61.0586 34.7878 61.0586C33.5747 60.4415 30.2862 60.6913 30.2862 60.6913C30.2862 60.6913 29.2102 60.0539 28.9051 60.6913C28.823 60.8723 28.6912 61.0261 28.5252 61.1344C28.3592 61.2428 28.1658 61.3012 27.9679 61.3029L26.6562 60.739C26.5799 61.0188 25.1492 58.1028 25.1417 58.3928Z" fill="#495057"/>
<path d="M10.4739 117.729L10.2916 113.608C8.39143 112.587 6.27202 112.048 4.11743 112.037C7.08279 114.474 6.7122 119.173 8.72265 122.45C9.35748 123.468 10.2119 124.329 11.2226 124.969C12.2334 125.609 13.3744 126.013 14.5613 126.149L17.0429 127.677C17.3834 125.768 17.3083 123.809 16.8228 121.932C16.3373 120.056 15.453 118.307 14.2307 116.808C13.5367 115.973 12.741 115.23 11.8622 114.595C11.2679 116.171 10.4739 117.729 10.4739 117.729Z" fill="#70CE6A"/>
<path d="M9.61813e-07 127.781C-8.41865e-05 127.81 0.00548505 127.838 0.0163812 127.865C0.0272774 127.891 0.0432865 127.915 0.0634926 127.936C0.0836987 127.956 0.107699 127.972 0.134115 127.983C0.160532 127.994 0.188841 128 0.217416 128H51.9722C52.0299 128 52.0852 127.977 52.1259 127.936C52.1667 127.895 52.1896 127.839 52.1896 127.781C52.1896 127.723 52.1667 127.667 52.1259 127.627C52.0852 127.586 52.0299 127.563 51.9722 127.563H0.217416C0.188841 127.562 0.160531 127.568 0.134115 127.579C0.107699 127.59 0.0836985 127.606 0.0634926 127.626C0.0432867 127.647 0.0272778 127.671 0.0163812 127.697C0.00548471 127.724 -8.32166e-05 127.752 9.61813e-07 127.781Z" fill="#362406"/>
<path d="M53.9843 55.6016H52.8882V55.9689H53.9843V55.6016Z" fill="#212529"/>
<path d="M56.1973 55.6016V55.9689H58.4115V55.6016H56.1973ZM60.6257 55.6016V55.9689H62.8381V55.6016H60.6257ZM65.0523 55.6016V55.9689H67.2666V55.6016H65.0523ZM69.479 55.6016V55.9689H71.6932V55.6016H69.479ZM73.9074 55.6016V55.9689H76.1198V55.6016H73.9074ZM78.334 55.6016V55.9689H80.5483V55.6016H78.334ZM82.7607 55.6016V55.9689H84.9749V55.6016H82.7607ZM87.1891 55.6016V55.9689H89.4015V55.6016H87.1891ZM91.6157 55.6016V55.9689H93.83V55.6016H91.6157ZM96.0424 55.6016V55.9689H98.2566V55.6016H96.0424ZM100.469 55.6016V55.9689H102.683V55.6016H100.469ZM104.897 55.6016V55.9689H107.11V55.6016H104.897ZM109.324 55.6016V55.9689H109.488C109.494 55.9303 109.499 55.8936 109.505 55.8569C109.518 55.7724 109.529 55.6879 109.541 55.6016H109.324Z" fill="#212529"/>
<path d="M72.9843 48.2539H71.8882V48.6212H72.9843V48.2539Z" fill="#212529"/>
<path d="M75.1973 48.2539V48.6212H77.4115V48.2539H75.1973ZM79.6257 48.2539V48.6212H81.8381V48.2539H79.6257ZM84.0523 48.2539V48.6212H86.2666V48.2539H84.0523ZM88.479 48.2539V48.6212H90.6932V48.2539H88.479ZM92.9074 48.2539V48.6212H95.1198V48.2539H92.9074ZM97.334 48.2539V48.6212H99.5483V48.2539H97.334ZM101.761 48.2539V48.6212H103.975V48.2539H101.761ZM106.189 48.2539V48.6212H108.402V48.2539H106.189Z" fill="#212529"/>
<path d="M93.2631 53.7637H92.167V54.131H93.2631V53.7637Z" fill="#212529"/>
<path d="M95.4761 53.7637V54.131H97.6903V53.7637H95.4761ZM99.9045 53.7637V54.131H102.117V53.7637H99.9045ZM104.331 53.7637V54.131H106.545V53.7637H104.331ZM108.758 53.7637V54.131H109.721C109.728 54.0484 109.737 53.9657 109.746 53.8831C109.75 53.8445 109.753 53.8041 109.757 53.7637H108.758Z" fill="#212529"/>
<path d="M27.9714 92.0727V80.2429C27.9717 80.0035 28.0664 79.774 28.2348 79.6047C28.4032 79.4354 28.6316 79.3401 28.8697 79.3398H37.7565C37.9947 79.3401 38.223 79.4354 38.3914 79.6047C38.5598 79.774 38.6545 80.0035 38.6548 80.2429V92.0727C38.6545 92.3122 38.5598 92.5417 38.3914 92.711C38.223 92.8803 37.9947 92.9756 37.7565 92.9759H28.8697C28.6316 92.9756 28.4032 92.8803 28.2348 92.711C28.0664 92.5417 27.9717 92.3122 27.9714 92.0727Z" fill="#362406"/>
<path d="M28.6531 88.4999V80.8946C28.6533 80.6704 28.742 80.4554 28.8998 80.2968C29.0575 80.1383 29.2713 80.0491 29.4944 80.0488H37.1318C37.3548 80.0491 37.5687 80.1383 37.7264 80.2968C37.8842 80.4554 37.9729 80.6704 37.9731 80.8946V91.4215C37.9729 91.6458 37.8842 91.8608 37.7264 92.0193C37.5687 92.1779 37.3548 92.2671 37.1318 92.2673H32.4006C31.407 92.2662 30.4545 91.8689 29.7519 91.1626C29.0494 90.4563 28.6542 89.4987 28.6531 88.4999Z" fill="#F8F9FA"/>
<path d="M29.8896 83.0159C29.8899 82.7968 29.9766 82.5867 30.1307 82.4318C30.2848 82.2768 30.4938 82.1897 30.7118 82.1895H36.0098C36.2279 82.1895 36.437 82.2765 36.5911 82.4315C36.7453 82.5865 36.8319 82.7967 36.8319 83.0159C36.8319 83.2351 36.7453 83.4454 36.5911 83.6004C36.437 83.7554 36.2279 83.8424 36.0098 83.8424H30.7118C30.4938 83.8422 30.2848 83.7551 30.1307 83.6001C29.9766 83.4452 29.8899 83.2351 29.8896 83.0159Z" fill="#362406"/>
<path d="M29.8896 85.5882C29.8899 85.3691 29.9766 85.159 30.1307 85.004C30.2848 84.8491 30.4938 84.762 30.7118 84.7617H36.0098C36.2279 84.7617 36.437 84.8488 36.5911 85.0038C36.7453 85.1588 36.8319 85.369 36.8319 85.5882C36.8319 85.8074 36.7453 86.0176 36.5911 86.1726C36.437 86.3276 36.2279 86.4147 36.0098 86.4147H30.7118C30.4938 86.4145 30.2848 86.3273 30.1307 86.1724C29.9766 86.0174 29.8899 85.8073 29.8896 85.5882Z" fill="#362406"/>
<path d="M29.8896 88.1605C29.8899 87.9414 29.9766 87.7313 30.1307 87.5763C30.2848 87.4214 30.4938 87.3342 30.7118 87.334H36.0098C36.2279 87.334 36.437 87.4211 36.5911 87.5761C36.7453 87.7311 36.8319 87.9413 36.8319 88.1605C36.8319 88.3797 36.7453 88.5899 36.5911 88.7449C36.437 88.8999 36.2279 88.987 36.0098 88.987H30.7118C30.4938 88.9867 30.2848 88.8996 30.1307 88.7446C29.9766 88.5897 29.8899 88.3796 29.8896 88.1605Z" fill="#362406"/>
<path d="M28.1813 87.941C27.9815 87.9447 27.7833 87.9044 27.6006 87.8227C27.418 87.7411 27.2554 87.6202 27.1243 87.4686C26.9931 87.317 26.8967 87.1383 26.8417 86.9451C26.7867 86.752 26.7745 86.549 26.8059 86.3506L19.2188 82.1742L21.4393 80.9668L28.4703 85.2121C28.7984 85.2873 29.0876 85.4809 29.2832 85.7561C29.4788 86.0314 29.5671 86.3692 29.5315 86.7056C29.4959 87.042 29.3387 87.3536 29.0899 87.5812C28.841 87.8089 28.5177 87.9369 28.1813 87.941Z" fill="#FFB8B8"/>
<path d="M23.7695 84.8535L21.079 84.373L20.1157 83.5678L19.4678 83.2361L17.2348 81.6604L17.2281 81.6405L13.68 71.0963C13.5171 70.2304 13.6896 69.3347 14.1621 68.5925C14.6347 67.8503 15.3717 67.3178 16.2221 67.104C16.6923 66.9864 17.182 66.9702 17.6589 67.0566C18.1358 67.143 18.5891 67.3299 18.989 67.6051C19.3888 67.8803 19.7262 68.2375 19.9788 68.6532C20.2315 69.0689 20.3937 69.5337 20.4547 70.017L21.5966 79.0538L23.4894 81.019L24.3176 81.1802L24.5082 82.0767L25.231 83.2005L23.7695 84.8535Z" fill="#495057"/>
</g>
<defs>
<clipPath id="clip0_993_8896">
<rect width="110" height="128" fill="white"/>
</clipPath>
</defs>
</svg>
