<svg width="304" height="361" viewBox="0 0 304 361" fill="none" xmlns="http://www.w3.org/2000/svg">
<path d="M108.21 88.272C108.178 88.2297 108.131 88.2007 108.078 88.1903C108.026 88.18 107.972 88.189 107.926 88.2157C107.865 88.2439 107.809 88.2841 107.745 88.3122H107.721H107.697L107.609 88.3403H107.553H107.288C107.224 88.3202 107.16 88.3122 107.096 88.2881H107.072H107.048C107.016 88.2744 106.985 88.2583 106.955 88.2399L106.879 88.1876L106.831 88.1434C106.808 88.1226 106.786 88.0997 106.767 88.0751V88.0751C106.755 88.0613 106.744 88.0465 106.735 88.0309C106.72 88.0045 106.7 87.9813 106.677 87.9625C106.653 87.9438 106.626 87.9299 106.597 87.9217C106.568 87.9135 106.537 87.9111 106.507 87.9147C106.477 87.9182 106.449 87.9277 106.422 87.9425C106.396 87.9572 106.373 87.9771 106.354 88.0008C106.335 88.0246 106.322 88.0518 106.313 88.0809C106.305 88.11 106.303 88.1404 106.306 88.1705C106.31 88.2005 106.319 88.2296 106.334 88.2559C106.426 88.4039 106.548 88.5306 106.693 88.6276C106.837 88.7246 107 88.7897 107.172 88.8186C107.349 88.8528 107.532 88.8528 107.709 88.8186C107.892 88.7881 108.061 88.6994 108.19 88.5654C108.228 88.527 108.251 88.4763 108.255 88.4224C108.258 88.3686 108.243 88.3152 108.21 88.272V88.272Z" fill="#212529"/>
<path d="M104.373 87.6773C104.336 87.6682 104.297 87.6666 104.259 87.6728C104.222 87.679 104.185 87.6929 104.153 87.7135L104.049 87.7738C103.99 87.8078 103.926 87.8335 103.86 87.8502C103.714 87.8918 103.562 87.9054 103.411 87.8904C103.273 87.8777 103.138 87.8438 103.01 87.7899C102.867 87.7275 102.739 87.6358 102.634 87.5206C102.591 87.4786 102.535 87.4551 102.475 87.4551C102.416 87.4551 102.359 87.4786 102.317 87.5206C102.276 87.5626 102.253 87.6188 102.253 87.6773C102.253 87.7359 102.276 87.7921 102.317 87.8341C102.595 88.1315 102.974 88.3147 103.379 88.3485C103.574 88.3666 103.771 88.3503 103.961 88.3003C104.133 88.2521 104.478 88.1476 104.514 87.9426C104.529 87.8888 104.523 87.8311 104.497 87.7817C104.471 87.7323 104.426 87.6949 104.373 87.6773V87.6773Z" fill="#212529"/>
<path d="M107.392 92.0497C107.343 92.0037 107.278 91.9781 107.21 91.9781C107.142 91.9781 107.077 92.0037 107.027 92.0497C106.841 92.1999 106.626 92.3084 106.394 92.3679C106.163 92.4274 105.922 92.4365 105.686 92.3946C105.451 92.3527 105.228 92.2608 105.031 92.125C104.834 91.9893 104.669 91.8129 104.546 91.6077C104.382 91.3344 103.953 91.5835 104.117 91.8568C104.272 92.1216 104.481 92.3507 104.731 92.5293C104.98 92.7079 105.264 92.8321 105.564 92.8937C105.885 92.9531 106.215 92.941 106.531 92.8584C106.847 92.7757 107.141 92.6245 107.392 92.4155C107.438 92.3657 107.464 92.3004 107.464 92.2326C107.464 92.1648 107.438 92.0995 107.392 92.0497Z" fill="#212529"/>
<path d="M104.766 89.7432C104.71 89.7506 104.659 89.7781 104.622 89.8206C104.585 89.8631 104.564 89.9177 104.564 89.9743C104.564 90.0308 104.585 90.0854 104.622 90.1279C104.659 90.1704 104.71 90.1979 104.766 90.2054C104.822 90.1979 104.874 90.1704 104.911 90.1279C104.948 90.0854 104.968 90.0308 104.968 89.9743C104.968 89.9177 104.948 89.8631 104.911 89.8206C104.874 89.7781 104.822 89.7506 104.766 89.7432V89.7432Z" fill="#212529"/>
<path d="M102.806 150.375C102.75 150.382 102.699 150.41 102.662 150.452C102.624 150.495 102.604 150.55 102.604 150.606C102.604 150.663 102.624 150.717 102.662 150.76C102.699 150.802 102.75 150.83 102.806 150.837C102.862 150.83 102.913 150.802 102.95 150.76C102.988 150.717 103.008 150.663 103.008 150.606C103.008 150.55 102.988 150.495 102.95 150.452C102.913 150.41 102.862 150.382 102.806 150.375Z" fill="#212529"/>
<path d="M90.7431 260.3C90.6872 260.307 90.6358 260.335 90.5987 260.377C90.5615 260.42 90.541 260.474 90.541 260.531C90.541 260.587 90.5615 260.642 90.5987 260.685C90.6358 260.727 90.6872 260.755 90.7431 260.762C90.799 260.755 90.8503 260.727 90.8875 260.685C90.9246 260.642 90.9451 260.587 90.9451 260.531C90.9451 260.474 90.9246 260.42 90.8875 260.377C90.8503 260.335 90.799 260.307 90.7431 260.3Z" fill="#212529"/>
<path d="M129.875 244.959C129.819 244.966 129.768 244.994 129.731 245.036C129.693 245.079 129.673 245.134 129.673 245.19C129.673 245.247 129.693 245.301 129.731 245.344C129.768 245.386 129.819 245.414 129.875 245.421C129.931 245.414 129.982 245.386 130.019 245.344C130.056 245.301 130.077 245.247 130.077 245.19C130.077 245.134 130.056 245.079 130.019 245.036C129.982 244.994 129.931 244.966 129.875 244.959V244.959Z" fill="#212529"/>
<path d="M145.63 334.182C145.616 334.104 145.592 334.028 145.558 333.957C145.37 333.642 145.121 333.368 144.824 333.153C144.371 332.795 143.938 332.43 143.505 332.048C142.772 331.401 142.05 330.713 141.284 330.102C140.409 329.409 139.61 328.625 138.899 327.763C138.41 327.157 137.845 326.409 137.131 326.071C136.59 325.793 136.119 325.396 135.752 324.91C135.386 324.386 135.167 323.772 135.119 323.133C134.953 322.147 134.851 321.151 134.814 320.151C134.774 319.211 134.678 318.315 134.589 317.382C134.393 315.373 134.188 313.335 133.972 311.313C133.892 310.542 133.816 309.774 133.735 309.007C133.735 308.902 133.715 308.802 133.703 308.701C133.639 308.034 133.571 307.363 133.499 306.692C133.079 302.622 132.653 298.552 132.22 294.482C131.787 290.412 131.353 286.343 130.917 282.276C130.481 278.206 130.042 274.137 129.598 270.07L129.49 269.093C129.484 269.035 129.464 268.979 129.432 268.93C129.4 268.881 129.357 268.84 129.306 268.812C130.292 261.578 130.953 254.271 131.31 246.968C131.321 246.905 131.321 246.839 131.31 246.776C132.903 246.572 134.449 246.091 135.876 245.353C137.253 244.633 138.497 243.681 139.552 242.539C140.126 241.925 140.567 241.507 140.671 240.646C140.883 238.838 140.471 237.102 140.15 235.349C139.721 232.97 139.484 230.567 139.172 228.175C138.49 222.943 137.688 217.726 136.766 212.525C134.943 202.119 132.681 191.803 129.979 181.579C128.91 177.503 127.771 173.447 126.563 169.409C125.54 165.977 124.471 162.558 123.356 159.152C122.79 157.424 122.214 155.701 121.628 153.984L120.738 151.408C120.538 150.845 120.357 150.017 119.908 149.583L119.84 149.507C119.597 149.257 119.293 149.076 118.958 148.98C118.933 148.976 118.907 148.976 118.882 148.98C118.982 148.667 119.203 148.727 119.716 148.759C120.518 148.811 121.288 148.988 122.045 148.695C123.448 148.148 123.737 146.906 123.581 145.544C123.476 144.631 123.364 143.719 123.216 142.815C123.067 141.911 122.775 140.998 122.639 140.09C123.641 140.492 124.543 141.091 125.589 141.436C130.749 143.14 135.896 140.938 138.719 136.376C143.473 128.704 140.346 120.413 135.018 114.119C135.086 114.104 135.149 114.074 135.203 114.03C136.147 113.303 136.846 112.303 137.205 111.164C137.565 110.026 137.567 108.805 137.211 107.665C136.856 106.526 136.16 105.523 135.218 104.792C134.276 104.062 133.133 103.639 131.943 103.581C132.02 102.465 131.855 101.345 131.458 100.3C131.062 99.2539 130.445 98.3065 129.649 97.5228C128.852 96.7391 127.896 96.1376 126.846 95.7597C125.796 95.3818 124.676 95.2365 123.565 95.3338C123.651 94.2432 123.328 93.1596 122.659 92.2954C121.833 91.174 120.654 90.4305 119.451 89.7272C118.249 89.0239 117.046 88.3085 116.244 87.1671C115.322 85.8609 115.595 84.3537 115.398 82.8586C115.232 81.5635 114.79 80.3192 114.103 79.2098C113.416 78.1004 112.499 77.1518 111.415 76.4279C110.331 75.7041 109.104 75.2219 107.818 75.0139C106.532 74.806 105.217 74.8771 103.961 75.2224C101.511 75.8816 98.9895 77.8911 98.9053 80.5879C98.1589 80.3474 97.3551 80.3552 96.6135 80.61C95.872 80.8649 95.2325 81.3532 94.7903 82.0021C94.3481 82.651 94.1269 83.4258 94.1597 84.211C94.1926 84.9962 94.4776 85.7497 94.9724 86.3592C93.6898 86.8422 92.5895 87.7144 91.8249 88.8541C91.0603 89.9938 90.6694 91.3443 90.7069 92.7174C90.8392 95.7115 93.0521 98.4124 96.0388 98.8866C97.621 99.1166 99.2341 98.796 100.609 97.9783C100.895 98.6397 101.43 99.1603 102.099 99.4256C102.767 99.6909 103.513 99.6792 104.173 99.393C104.833 99.1068 105.352 98.5696 105.617 97.8995C105.881 97.2295 105.87 96.4815 105.584 95.8201C105.745 95.8482 105.901 95.8804 106.065 95.8964H106.19C106.162 96.226 106.137 96.5515 106.113 96.8771L105.873 99.9356C105.837 100.43 105.793 100.924 105.761 101.419C105.761 101.712 105.713 102.009 105.684 102.307C92.5951 103.569 78.6799 111.08 72.2254 122.941C69.1785 128.535 70.0725 135.802 76.8077 137.904C80.8407 139.166 84.6493 137.944 88.0328 135.79C87.8885 135.882 87.8524 136.867 87.8244 137.056C87.7562 137.502 87.6921 137.952 87.6319 138.402C87.5117 139.302 87.4128 140.204 87.3353 141.107C87.2711 141.806 87.2471 142.505 87.203 143.205C87.1589 143.844 86.8702 144.463 87.2591 145.057C87.8565 145.974 88.9469 145.568 89.8409 145.548C89.8409 146.211 89.9131 146.894 89.869 147.557C89.869 147.32 87.8645 147.802 87.664 148.1C87.215 148.739 87.3393 149.772 87.199 150.511C86.9464 151.813 86.7099 153.12 86.4814 154.426C86.0243 157.038 85.6114 159.659 85.2426 162.287C84.5049 167.536 83.9437 172.808 83.5588 178.102C82.7838 188.683 82.7222 199.304 83.3744 209.893C83.623 213.912 83.9757 217.931 84.4328 221.95C84.9499 226.499 85.6355 231.129 86.4373 235.679C86.8382 238.006 87.2992 240.329 87.7362 242.652C88.101 244.589 88.3255 246.639 89.1834 248.439C89.7527 249.645 90.8672 249.504 91.9897 249.681C93.1123 249.858 94.2147 249.995 95.3292 250.115C97.6375 262.599 101.383 274.773 106.49 286.391C106.116 298.422 105.77 310.451 105.452 322.478C105.452 322.478 105.452 322.515 105.452 322.531C104.59 322.711 103.796 323.117 103.48 324.038C103.293 324.698 103.355 325.405 103.652 326.023C103.799 326.365 103.972 326.696 104.169 327.012C104.305 327.249 104.634 327.526 104.614 327.816C104.586 327.969 104.51 328.11 104.398 328.218C104.257 328.218 103.748 328.989 103.64 329.118C103.412 329.404 103.162 329.673 102.894 329.922C102.71 330.104 102.504 330.263 102.281 330.396C102.076 330.5 101.836 330.524 101.619 330.613C101.247 330.77 100.882 330.938 100.525 331.127C99.8466 331.482 99.2218 331.932 98.6687 332.462C97.7745 333.325 97.2075 334.473 97.0651 335.709C97.0651 335.834 96.7003 336.111 96.6121 336.203C96.4317 336.4 96.2513 336.605 96.0749 336.79C94.788 338.193 93.5492 339.64 92.2182 341.002C91.6715 341.587 91.0891 342.137 90.4743 342.65C90.1498 342.903 89.8112 343.138 89.4601 343.353C89.0993 343.582 88.7585 343.844 88.3897 344.065C87.9958 344.274 87.626 344.526 87.2872 344.816C86.8863 345.198 86.3771 345.765 86.6858 346.364C86.7912 346.747 87.0321 347.078 87.3634 347.296C88.1852 347.843 89.3157 347.67 90.2418 347.621C91.9445 347.5 93.6534 347.49 95.3573 347.593L96.127 347.654C96.4045 347.692 96.6849 347.707 96.9649 347.698C97.0498 347.688 97.1302 347.654 97.1974 347.601C97.3939 347.429 98.2077 347.489 98.5124 347.344C99.6189 346.81 100.557 345.777 100.657 344.507C100.798 342.783 101.166 340.817 102.353 339.495C103.933 337.735 106.418 336.887 108.675 336.42C108.888 336.376 109.309 336.135 109.525 336.252C109.742 336.368 109.677 336.959 109.673 337.2C109.673 338.731 109.601 340.279 109.501 341.81C109.449 342.59 109.385 343.373 109.313 344.153C109.261 344.688 108.567 347.224 108.996 347.517C109.361 347.766 111.91 347.859 111.975 347.388C112.251 345.399 112.873 343.47 113.386 341.533C113.936 339.453 114.471 337.369 114.989 335.279C115.142 334.877 115.29 334.443 115.438 334.025L115.539 333.973C115.879 333.669 116.173 333.317 116.413 332.928C117.146 331.722 116.946 330.516 116.276 329.311C116.244 329.258 116.216 329.206 116.188 329.154C116.074 328.896 115.94 328.647 115.787 328.41C115.044 327.337 114.627 326.071 114.584 324.765C114.584 323.471 115.186 322.281 115.739 321.148C116.02 320.569 116.264 319.983 116.541 319.392C116.817 318.801 117.194 318.114 117.439 317.459C118.241 315.268 119.014 313.062 119.728 310.839C121.765 314.054 123.913 317.27 126.447 320.083C126.848 320.553 127.249 321.056 127.618 321.558C127.987 322.06 128.42 322.506 128.82 322.993C129.36 323.639 129.839 324.333 130.252 325.067C130.477 325.428 130.637 325.827 130.725 326.244C130.765 326.646 130.552 327.048 130.552 327.422C130.558 327.655 130.615 327.884 130.72 328.093C130.825 328.301 130.974 328.484 131.158 328.628C131.418 328.841 131.819 328.893 132.032 329.158C132.292 329.488 132.34 330.163 132.433 330.565C132.728 331.754 132.944 332.963 133.078 334.182C132.931 334.536 132.858 334.916 132.865 335.299C132.872 335.683 132.958 336.06 133.118 336.408L133.194 336.549C133.154 339.045 132.577 341.424 131.114 343.293L131.081 343.357C131.005 343.418 130.929 343.478 130.853 343.546C130.805 343.595 130.77 343.654 130.749 343.719C130.417 344.026 130.059 344.303 129.678 344.547C129.061 344.949 128.279 345.351 127.858 345.986C127.762 346.162 127.717 346.361 127.727 346.561C127.738 346.761 127.804 346.955 127.918 347.119C128.291 347.638 129.185 347.409 129.71 347.34C130.023 347.3 130.328 347.216 130.64 347.171C131.474 347.056 132.299 346.885 133.11 346.661C134.015 346.414 134.898 346.09 135.748 345.692C136.874 345.158 138.33 344.507 139.007 343.401C139.685 342.296 139.757 340.958 139.809 339.728C139.828 338.712 139.935 337.699 140.13 336.702C140.24 336.203 140.4 335.717 140.607 335.251C140.703 335.002 140.827 334.765 140.976 334.544C141.152 334.318 141.244 334.483 141.429 334.652L142.066 335.223C142.391 335.548 142.768 335.818 143.108 336.123C143.449 336.428 143.586 336.73 144.051 336.465C144.49 336.145 144.855 335.734 145.121 335.259C145.346 334.994 145.682 334.531 145.63 334.182ZM137.211 327.374C137.42 327.587 137.612 327.804 137.817 328.033L136.951 328.057C137.055 327.832 137.139 327.603 137.211 327.374ZM102.445 93.2921C100.072 90.6556 100.525 86.516 103.067 84.1608C104.519 82.8484 106.411 82.1312 108.366 82.1513C107.617 83.6062 107.164 85.254 107.709 86.8656C108.186 88.2522 109.521 89.3253 110.972 89.2047C110.686 89.8679 110.532 90.5812 110.52 91.3039C110.509 92.0266 110.639 92.7445 110.904 93.4167L110.86 93.4408C110.288 93.9878 109.633 94.4408 108.92 94.7832C108.189 95.0942 107.401 95.2489 106.607 95.2373C105.818 95.2131 105.042 95.0281 104.326 94.6937C103.611 94.3593 102.971 93.8824 102.445 93.2921ZM111.036 102.013C110.838 102.127 110.611 102.182 110.383 102.174L109.85 102.23C109.809 101.945 109.785 101.658 109.778 101.37C109.75 101.037 109.701 100.691 109.701 100.362C109.701 101.149 110.551 101.551 111.036 102.013ZM109.293 103.404C109.293 103.581 109.06 103.685 108.916 103.742C108.348 103.966 107.728 104.016 107.132 103.886C106.978 103.851 106.827 103.805 106.679 103.75C106.571 103.72 106.466 103.68 106.366 103.629C106.162 103.492 106.194 103.107 106.206 102.898L106.639 95.9246C107.39 95.9237 108.136 95.7988 108.848 95.5548C108.88 96.4149 108.917 97.2736 108.96 98.131C109.008 99.1519 109.068 100.173 109.128 101.194C109.16 101.704 109.192 102.21 109.228 102.721C109.264 102.947 109.285 103.175 109.293 103.404ZM85.2626 135.705C81.871 137.216 77.7498 137.546 74.5987 135.279C70.9104 132.631 71.0427 127.816 72.8508 124.078C75.7453 118.086 81.426 113.05 87.0106 109.634C92.6493 106.172 98.9963 104.034 105.576 103.38C105.568 103.432 105.568 103.485 105.576 103.537C105.608 103.705 105.833 103.798 105.977 103.878C106.144 103.978 106.318 104.065 106.498 104.139C107.002 104.343 107.544 104.436 108.087 104.412C108.63 104.388 109.161 104.247 109.645 103.999C109.728 103.961 109.803 103.908 109.866 103.842C109.908 103.796 109.934 103.739 109.942 103.677C110.042 102.918 110.744 102.95 111.381 102.873C113.633 102.686 115.899 102.949 118.048 103.649C119.808 104.232 121.501 105 123.1 105.94L123.288 106.049C125.48 107.352 127.563 108.83 129.518 110.469C134.277 114.396 138.466 119.549 139.364 125.846C140.246 132.036 136.959 140.162 129.859 140.632C126.984 140.825 124.29 139.74 122.041 138.004C119.792 136.268 117.94 133.985 116.248 131.682C115.515 130.685 114.613 129.761 114.288 128.523C114.172 128.081 114.031 127.639 113.915 127.197C113.29 124.992 113.02 122.702 113.113 120.413C113.157 119.802 113.157 119.271 113.67 118.873C113.892 118.71 114.153 118.607 114.427 118.576C114.7 118.545 114.977 118.587 115.23 118.696C115.907 118.974 116.248 119.717 116.605 120.304C116.962 120.891 117.856 120.332 117.487 119.79C116.545 118.379 114.432 116.771 113.141 117.985C112.405 116.725 111.441 115.613 110.299 114.706C109.738 114.227 109.136 113.789 108.583 113.299C108.03 112.809 108.15 112.174 108.13 111.514C108.108 110.764 108.078 110.039 108.048 109.302C108.046 109.249 108.044 109.196 108.042 109.143C108.042 108.717 108.13 108.09 107.897 107.712C107.665 107.335 107.228 107.459 106.891 107.471C106.554 107.483 106.121 107.491 105.737 107.503C104.935 107.524 104.157 107.544 103.367 107.572C101.828 107.624 100.292 107.708 98.7529 107.801L97.3377 107.893C97.013 107.913 96.568 107.845 96.3114 108.098C96.0549 108.351 96.1431 108.657 96.1671 108.926C96.2473 109.818 96.3114 110.711 96.3756 111.607C96.4037 112.009 96.4036 112.411 96.4197 112.813C96.4357 113.215 96.544 113.681 96.572 114.111C94.6116 114.231 93.8659 116.747 93.3969 118.343C93.0749 119.376 92.8534 120.438 92.7354 121.514C90.8111 120.955 88.7264 121.18 87.2792 122.78C86.766 123.338 87.5879 124.17 88.113 123.616C89.7166 121.916 92.1461 122.285 94.0423 123.326C95.213 123.969 96.4878 124.902 96.103 126.51C95.8624 127.506 94.9724 128.258 94.2709 128.921C91.6009 131.545 88.7024 134.194 85.2626 135.705ZM107.192 115.103C107.164 114.669 107.152 114.231 107.14 113.797C107.14 113.524 106.943 112.993 107.348 113.247C107.72 113.522 108.057 113.842 108.35 114.199C108.643 114.48 108.96 114.734 109.297 114.959C109.603 115.197 109.884 115.466 110.134 115.763L111.65 117.342C112.267 117.985 112.712 118.825 112.452 119.754C112.139 120.778 112.227 122.052 112.335 123.109C112.438 124.417 112.658 125.712 112.993 126.98C113.121 127.414 113.261 127.848 113.394 128.278C113.482 128.551 113.831 129.218 113.71 129.484C113.293 129.179 112.916 128.822 112.588 128.423C111.728 127.608 110.938 126.722 110.227 125.774C109.149 124.325 108.287 122.726 107.669 121.028C107.453 120.424 107.273 119.808 107.132 119.183C107.046 118.889 107.008 118.584 107.019 118.279C107.052 117.949 107.14 117.627 107.18 117.298C107.258 116.569 107.262 115.833 107.192 115.103ZM97.0531 118.6C98.1075 119.344 99.8594 118.459 100.777 117.796C101.455 117.306 102.104 116.779 102.782 116.273C103.251 115.915 104.209 114.842 104.786 114.754C107.497 114.316 106.27 118.6 105.644 119.782C103.788 123.274 100.068 123.865 96.5119 123.937C96.2441 123.581 95.9284 123.263 95.5738 122.993C94.9741 122.525 94.3148 122.14 93.6134 121.847C93.6328 121.799 93.645 121.747 93.6495 121.695C93.7136 120.368 94.0063 117.836 94.9965 116.526C95.076 116.333 95.167 116.145 95.2691 115.964C95.4455 115.646 95.7141 115.232 96.111 115.188C96.58 115.136 96.7163 115.61 96.7083 115.992C96.7083 116.454 96.5921 116.9 96.6161 117.366C96.6331 117.812 96.7856 118.243 97.0531 118.6ZM101.214 110.815C101.158 110.011 102.157 109.71 102.73 110.212C102.814 110.276 102.884 110.357 102.933 110.45C102.983 110.543 103.011 110.646 103.017 110.752C103.022 110.857 103.004 110.963 102.964 111.06C102.924 111.158 102.863 111.246 102.786 111.318C102.666 111.439 102.515 111.525 102.349 111.566C102.183 111.606 102.009 111.601 101.847 111.549C101.684 111.497 101.539 111.401 101.428 111.271C101.316 111.142 101.242 110.984 101.214 110.815ZM88.0409 144.808C88.1652 144.808 88.1451 142.763 88.1571 142.546C88.2026 141.718 88.2627 140.887 88.3375 140.054C88.4097 139.226 88.5019 138.398 88.6021 137.57C88.6542 137.168 88.7064 136.766 88.7625 136.364C88.7906 136.179 88.8026 135.263 88.9429 135.159C91.1513 133.557 93.2073 131.754 95.0847 129.773C95.8299 129.05 96.4277 128.189 96.8446 127.237C96.8687 127.554 96.8967 127.872 96.9328 128.189C96.9407 128.266 96.9719 128.337 97.0221 128.395C97.0724 128.453 97.1393 128.493 97.2135 128.511C97.2733 128.544 97.3419 128.558 97.4099 128.551C100.898 128.306 104.442 128.202 107.909 127.747C107.947 127.74 107.985 127.731 108.022 127.719C108.189 127.694 108.353 127.656 108.515 127.607H108.551H108.579H108.599L108.659 127.55C108.666 127.538 108.676 127.527 108.687 127.518L108.747 127.362C108.747 126.558 108.683 125.754 108.615 124.95C109.847 127.125 111.569 128.981 113.642 130.372C113.658 130.476 113.698 130.575 113.759 130.661C115.976 133.836 118.377 137.136 121.536 139.387C121.732 139.527 121.793 140.681 121.841 140.95C121.945 141.553 122.041 142.156 122.129 142.759C122.344 143.918 122.423 145.098 122.366 146.275C122.334 146.645 122.338 147.208 122.069 147.481C121.72 147.728 121.291 147.836 120.867 147.782C119.961 147.742 119.076 147.495 118.281 147.059C117.728 146.753 117.21 146.384 116.645 146.098C115.716 145.628 114.701 145.355 113.662 145.295C111.129 145.134 108.687 146.098 106.21 146.456C104.595 146.74 102.933 146.585 101.399 146.006C100.14 145.524 98.9935 144.961 97.6384 144.748C94.4553 144.27 91.2401 144.688 88.0409 144.808ZM92.7314 150.033C92.067 149.886 91.4112 149.702 90.767 149.482C90.7731 149.455 90.7731 149.426 90.767 149.398V149.197L90.7309 148.433C90.7422 147.465 90.6927 146.498 90.5826 145.536C94.0544 145.455 97.47 145.455 100.757 146.818C103.672 148.023 106.334 147.533 109.329 146.89C111.117 146.508 113.065 146.062 114.873 146.577C116.104 146.93 117.122 147.722 118.233 148.317C117.967 149.202 117.759 150.102 117.607 151.014C115.603 151.621 113.366 151.697 111.273 151.817C108.792 151.97 106.305 151.97 103.824 151.817C101.266 151.657 98.7217 151.327 96.2072 150.829C95.0366 150.596 93.878 150.328 92.7314 150.025V150.033ZM96.3395 250.216H96.4638C99.4432 250.494 102.437 250.589 105.428 250.501C106.19 250.477 106.947 250.441 107.705 250.393C107.307 261.533 106.935 272.673 106.591 283.811C102.012 273.001 98.5804 261.738 96.3515 250.208L96.3395 250.216ZM106.679 324.038C107.557 323.957 108.639 324.118 109.289 324.11L113.823 324.05C113.751 324.491 113.725 324.938 113.747 325.384C113.771 325.907 113.874 326.423 114.051 326.915C111.782 327.538 109.505 328.121 107.236 328.788C106.734 328.149 106.275 327.478 105.861 326.779C106.282 325.913 106.563 324.985 106.691 324.03L106.679 324.038ZM105.749 324.287C105.692 324.821 105.591 325.349 105.448 325.866L105.4 325.746C105.139 324.958 105.348 324.52 105.761 324.295L105.749 324.287ZM103.684 329.857C104.19 329.37 104.644 328.831 105.039 328.25C105.304 328.611 105.556 328.945 105.757 329.246L104.903 329.5L103.68 329.873L103.684 329.857ZM89.9532 345.934H89.9211C89.7092 345.954 89.4964 345.962 89.2837 345.958H89.2436C89.0358 345.951 88.8282 345.973 88.6262 346.022L87.8003 346.09C87.7296 346.094 87.6586 346.094 87.5879 346.09C87.5879 346.09 87.4395 346.062 87.4716 346.09C87.4361 346.054 87.4115 346.008 87.4009 345.958C87.3903 345.909 87.3939 345.857 87.4115 345.809C87.4408 345.737 87.4844 345.671 87.5397 345.616C87.7526 345.401 88.0118 345.237 88.2974 345.138C88.6229 344.974 88.934 344.783 89.2275 344.567C89.6572 344.329 90.0604 344.046 90.4302 343.723C90.4514 343.704 90.4758 343.689 90.5024 343.679L90.5425 343.639H90.5746H90.5986C90.6394 343.648 90.676 343.671 90.7028 343.703C91.2674 344.018 91.7755 344.426 92.2062 344.909C92.4696 345.231 92.7031 345.577 92.9038 345.942L89.9532 345.934ZM100.02 341.513C99.8233 342.369 99.9356 343.285 99.7071 344.129C99.1739 346.098 97.4139 346.118 95.7702 346.054C95.205 346.034 94.6397 346.014 94.0704 346.002C93.7778 344.68 92.3746 343.506 91.2641 342.871C93.2045 340.765 95.1395 338.654 97.0691 336.537C97.1138 337.52 97.4203 338.472 97.9569 339.296C98.4935 340.119 99.2404 340.783 100.12 341.219C100.088 341.304 100.056 341.4 100.032 341.5L100.02 341.513ZM105.268 336.187C103.403 336.943 101.595 338.197 100.617 339.973C99.7887 339.535 99.1326 338.829 98.7556 337.969C98.3786 337.109 98.3027 336.147 98.5404 335.239C98.6042 335.029 98.6874 334.826 98.789 334.632L100.369 332.896C101.205 332.339 102.109 331.892 103.059 331.565C104.189 331.164 105.328 330.762 106.474 330.36C107.41 331.961 108.437 333.507 109.549 334.99C108.096 335.268 106.668 335.664 105.28 336.175L105.268 336.187ZM115.041 329.182C115.423 329.793 115.63 330.496 115.643 331.216C115.629 331.619 115.511 332.012 115.302 332.357C114.757 333.253 113.755 333.808 112.796 334.154C112.402 334.292 112.001 334.409 111.594 334.503C111.093 334.624 111.049 334.608 110.812 334.166C110.672 333.9 110.523 333.635 110.367 333.362C109.746 332.325 109.036 331.352 108.362 330.336C108.254 330.171 108.142 330.006 108.022 329.837C110.114 329.154 112.215 328.491 114.296 327.792C114.296 327.804 114.989 329.058 115.054 329.17L115.041 329.182ZM119.303 307.077L119.095 307.732C119.067 307.688 119.038 307.644 119.014 307.6C118.996 307.744 118.961 307.886 118.91 308.022C118.892 308.227 118.845 308.429 118.77 308.621C118.95 308.219 118.79 308.572 118.77 308.669C118.75 308.765 118.694 308.898 118.654 309.015L118.706 309.099C117.222 313.677 115.543 318.174 113.895 322.683C111.606 322.555 109.329 322.43 107.044 322.426C106.991 322.428 106.939 322.419 106.891 322.398C106.843 322.377 106.801 322.345 106.767 322.306C106.713 322.223 106.686 322.127 106.687 322.028C106.518 320.055 106.723 318.009 106.779 316.044C106.839 313.998 106.903 311.956 106.959 309.911C107.08 305.825 107.197 301.739 107.312 297.653C107.344 296.383 107.379 295.115 107.416 293.851C107.416 293.216 107.448 292.585 107.468 291.95C107.537 291.339 107.553 290.723 107.517 290.109C107.503 290.022 107.497 289.935 107.497 289.848C107.452 288.567 107.496 287.284 107.629 286.009C107.947 274.129 108.234 262.249 108.491 250.369C110.094 250.252 111.678 250.095 113.265 249.874C114.556 249.697 115.841 249.484 117.118 249.235C117.82 249.099 118.702 249.171 119.339 248.805C119.977 248.439 119.8 247.571 119.596 246.952C119.368 246.235 119.201 245.499 119.095 244.754C118.81 243.03 118.481 241.314 118.173 239.593C117.736 237.154 117.579 234.67 117.339 232.202C116.817 226.817 116.469 221.417 116.292 216.002C115.944 205.395 116.34 194.778 117.475 184.227C117.423 184.697 117.788 185.461 117.9 185.927C118.068 186.6 118.233 187.269 118.393 187.937C118.7 189.228 119.001 190.52 119.295 191.811C119.88 194.399 120.431 196.994 120.947 199.596C121.976 204.799 122.872 210.024 123.637 215.27C124.402 220.551 125.004 225.856 125.493 231.174C125.739 233.853 125.958 236.539 126.15 239.232C126.247 240.571 126.339 241.911 126.427 243.251C126.471 243.942 126.219 246.124 126.804 246.583C126.855 246.623 126.916 246.651 126.98 246.663C128.046 246.859 129.13 246.929 130.212 246.872C130.209 246.904 130.209 246.936 130.212 246.968C129.399 260.65 127.496 274.244 124.523 287.621C123.029 294.167 121.293 300.643 119.315 307.049L119.303 307.077ZM132.04 325.372C131.727 325.203 131.543 324.797 131.33 324.52C130.528 323.463 129.682 322.462 128.816 321.466C128.383 320.963 127.95 320.469 127.521 319.966C127.093 319.464 126.848 318.95 126.491 318.455C125.337 316.868 124.142 315.312 123.027 313.701C122.927 313.556 122.827 313.411 122.731 313.263C121.873 312.006 121.03 310.739 120.201 309.461C122.458 302.275 124.314 294.944 125.922 287.693C127.133 282.236 128.14 276.743 128.945 271.215C130.412 286.686 131.93 302.15 133.499 317.607C133.551 318.761 133.587 319.914 133.659 321.068C133.695 321.703 133.764 322.378 133.844 323.021C133.908 323.539 134.132 324.227 133.731 324.681C133.388 325.078 132.92 325.348 132.404 325.444C132.28 325.444 132.158 325.41 132.052 325.344L132.04 325.372ZM133.142 326.268C133.648 326.085 134.131 325.843 134.581 325.549C134.648 325.499 134.699 325.433 134.73 325.356C135.382 325.8 136.005 326.286 136.594 326.811C136.357 327.249 136.129 327.683 135.904 328.125C135.287 328.149 134.67 328.165 134.052 328.149C133.651 328.149 133.282 328.117 132.898 328.093C132.196 326.964 132.28 326.353 133.154 326.24L133.142 326.268ZM132.898 329.23C133.194 329.258 133.491 329.275 133.764 329.299C134.265 329.335 134.774 329.371 135.287 329.391C134.75 330.516 134.233 331.658 133.723 332.795C133.54 331.579 133.268 330.378 132.91 329.202L132.898 329.23ZM134.698 344.848L133.539 345.25L131.715 345.869C131.155 346.031 130.584 346.151 130.007 346.231C129.779 346.271 129.458 346.291 129.157 346.352C128.891 346.382 128.643 346.501 128.452 346.689C128.492 346.637 128.488 346.468 128.528 346.396C128.58 346.312 128.65 346.241 128.732 346.187C128.949 346.006 129.193 345.845 129.422 345.676C129.947 345.274 130.484 344.917 130.997 344.511C131.466 344.112 132.001 343.798 132.577 343.582C133.687 343.213 134.738 343.775 135.527 344.539C135.247 344.607 134.973 344.701 134.71 344.82L134.698 344.848ZM138.558 338.9C138.35 339.849 138.053 340.821 137.933 341.778C137.882 342.246 137.717 342.695 137.452 343.084C137.189 343.449 136.853 343.756 136.466 343.984C136.005 343.18 134.862 342.646 134.012 342.529C133.584 342.471 133.15 342.491 132.729 342.59C133.663 341.139 133.932 339.266 134.008 337.502C134.66 337.958 135.455 338.161 136.245 338.072C136.663 338.037 137.076 337.955 137.476 337.827C137.692 337.759 137.877 337.594 138.101 337.502C138.406 337.369 138.478 337.502 138.727 337.526C138.757 337.98 138.704 338.436 138.57 338.872L138.558 338.9ZM139.737 334.025C139.64 334.567 139.424 335.081 139.103 335.528C138.23 336.734 136.846 336.911 135.467 336.919C133.463 336.919 134.533 333.704 134.966 332.731C135.459 331.626 135.948 330.524 136.413 329.411C136.79 329.411 137.163 329.411 137.536 329.367C137.813 329.343 138.37 329.154 138.622 329.234C138.875 329.315 138.987 329.833 139.091 330.038C139.701 331.262 139.93 332.641 139.749 333.997L139.737 334.025Z" fill="#212529"/>
<path d="M85.2626 135.705C81.871 137.216 77.7498 137.546 74.5987 135.279C70.9104 132.631 71.0427 127.816 72.8508 124.078C75.7453 118.086 81.426 113.05 87.0106 109.634C92.6493 106.172 98.9963 104.034 105.576 103.38C105.568 103.432 105.568 103.485 105.576 103.537C105.608 103.705 105.833 103.798 105.977 103.878C106.144 103.978 106.318 104.065 106.498 104.139C107.002 104.343 107.544 104.436 108.087 104.412C108.63 104.388 109.161 104.247 109.645 103.999C109.728 103.961 109.803 103.908 109.866 103.842C109.908 103.796 109.934 103.739 109.942 103.677C110.042 102.918 110.744 102.95 111.381 102.873C113.633 102.686 115.899 102.949 118.048 103.649C119.808 104.232 121.501 105 123.1 105.94L123.288 106.049C125.48 107.352 127.563 108.83 129.518 110.469C134.277 114.396 138.466 119.549 139.364 125.846C140.246 132.036 136.959 140.162 129.859 140.632C126.984 140.825 124.29 139.74 122.041 138.004C119.792 136.268 117.94 133.985 116.248 131.682C115.515 130.685 114.613 129.761 114.288 128.523C114.172 128.081 114.031 127.639 113.915 127.197C113.29 124.992 113.02 122.702 113.113 120.413C113.157 119.802 113.157 119.271 113.67 118.873C113.892 118.71 114.153 118.607 114.427 118.576C114.7 118.545 114.977 118.587 115.23 118.696C115.907 118.974 116.248 119.717 116.605 120.304C116.962 120.891 117.856 120.332 117.487 119.79C116.545 118.379 114.432 116.771 113.141 117.985C112.405 116.725 111.441 115.613 110.299 114.706C109.738 114.227 109.136 113.789 108.583 113.299C108.03 112.809 108.15 112.174 108.13 111.514C108.108 110.764 108.078 110.039 108.048 109.302L108.042 109.143C108.042 108.717 108.13 108.09 107.897 107.712C107.665 107.335 107.228 107.459 106.891 107.471C106.554 107.483 106.121 107.491 105.737 107.503C104.935 107.524 104.157 107.544 103.367 107.572C101.828 107.624 100.292 107.708 98.7529 107.801L97.3377 107.893C97.013 107.913 96.568 107.845 96.3114 108.098C96.0549 108.351 96.1431 108.657 96.1671 108.926C96.2473 109.818 96.3114 110.711 96.3756 111.607C96.4037 112.009 96.4036 112.411 96.4197 112.813C96.4357 113.215 96.544 113.681 96.572 114.111C94.6116 114.231 93.8659 116.747 93.3969 118.343C93.0749 119.376 92.8534 120.438 92.7354 121.514C90.8111 120.955 88.7264 121.18 87.2792 122.78C86.766 123.338 87.5879 124.17 88.113 123.616C89.7166 121.916 92.1461 122.285 94.0423 123.326C95.213 123.969 96.4878 124.902 96.103 126.51C95.8624 127.506 94.9724 128.258 94.2709 128.921C91.6009 131.545 88.7024 134.194 85.2626 135.705Z" fill="#09421A"/>
<path d="M88.0409 144.808C88.1652 144.808 88.1451 142.763 88.1571 142.546C88.2026 141.718 88.2627 140.887 88.3375 140.054C88.4097 139.226 88.5019 138.398 88.6021 137.57C88.6542 137.168 88.7064 136.766 88.7625 136.364C88.7906 136.179 88.8026 135.263 88.9429 135.159C91.1513 133.557 93.2073 131.754 95.0847 129.773C95.8299 129.05 96.4277 128.189 96.8446 127.237C96.8687 127.554 96.8967 127.872 96.9328 128.189C96.9407 128.266 96.9719 128.337 97.0221 128.395C97.0724 128.453 97.1393 128.493 97.2135 128.511C97.2733 128.544 97.3419 128.558 97.4099 128.551C100.898 128.306 104.442 128.202 107.909 127.747C107.947 127.74 107.985 127.731 108.022 127.719C108.189 127.694 108.353 127.656 108.515 127.607H108.551H108.579H108.599L108.659 127.55C108.666 127.538 108.676 127.527 108.687 127.518L108.747 127.362C108.747 126.558 108.683 125.754 108.615 124.95C109.847 127.125 111.569 128.981 113.642 130.372C113.658 130.476 113.698 130.575 113.759 130.661C115.976 133.836 118.377 137.136 121.536 139.387C121.732 139.527 121.793 140.681 121.841 140.95C121.945 141.553 122.041 142.156 122.129 142.759C122.344 143.918 122.423 145.098 122.366 146.275C122.334 146.645 122.338 147.208 122.069 147.481C121.72 147.728 121.291 147.836 120.867 147.782C119.961 147.742 119.076 147.495 118.281 147.059C117.728 146.753 117.21 146.384 116.645 146.098C115.716 145.628 114.701 145.355 113.662 145.295C111.129 145.134 108.687 146.098 106.21 146.456C104.595 146.74 102.933 146.585 101.399 146.006C100.14 145.524 98.9935 144.961 97.6384 144.748C94.4553 144.27 91.2401 144.688 88.0409 144.808Z" fill="#09421A"/>
<path d="M42.2221 29.3216C41.1267 30.3585 40.2251 31.5835 39.5601 32.9388C39.5335 32.9844 39.516 33.0349 39.5089 33.0873C39.5017 33.1397 39.5049 33.193 39.5183 33.2441C39.5317 33.2953 39.555 33.3433 39.587 33.3854C39.6189 33.4274 39.6589 33.4628 39.7045 33.4894C39.75 33.5161 39.8003 33.5336 39.8526 33.5408C39.9048 33.548 39.958 33.5448 40.009 33.5313C40.0601 33.5179 40.1079 33.4945 40.1499 33.4625C40.1919 33.4304 40.2272 33.3904 40.2537 33.3447C40.8901 32.0509 41.7522 30.8817 42.7994 29.8923C43.1803 29.5387 42.599 28.9599 42.2221 29.3216Z" fill="#032C17"/>
<path d="M69.2107 28.1718C65.7915 24.9074 61.2716 23.0534 56.5505 22.9789C51.8294 22.9044 47.2535 24.6149 43.7335 27.7699C43.4569 28.015 43.8658 28.421 44.1344 28.1718C47.5503 25.1469 51.9737 23.5165 56.5306 23.6029C61.0874 23.6892 65.4462 25.4859 68.7457 28.638C69.0584 28.9234 69.5194 28.4612 69.2107 28.1718Z" fill="#032C17"/>
<path d="M72.4061 32.7178C72.1094 32.1832 71.3317 32.6535 71.6043 33.192C73.6917 37.4725 74.0828 42.3871 72.6987 46.9452C71.3082 51.1661 68.3759 54.7031 64.491 56.8458C60.6061 58.9884 56.0564 59.5779 51.7557 58.4959C47.4201 57.4019 43.6569 54.7059 41.2201 50.9482C39.8799 48.7887 38.9947 46.3772 38.619 43.862C38.2432 41.3468 38.3848 38.7811 39.0352 36.3229C39.0491 36.2395 39.0317 36.1539 38.9864 36.0827C38.9411 36.0114 38.871 35.9595 38.7898 35.937C38.7085 35.9145 38.6218 35.923 38.5464 35.9609C38.4711 35.9987 38.4124 36.0633 38.3817 36.142C37.3988 39.5029 37.3912 43.0749 38.3599 46.44C39.3285 49.805 41.2333 52.8239 43.8512 55.143C46.4691 57.4622 49.6919 58.9858 53.1422 59.5355C56.5925 60.0852 60.1276 59.6381 63.3337 58.2468C67.5764 56.3977 70.9855 53.0387 72.9032 48.8181C75.1603 43.7661 75.0921 37.6049 72.4061 32.7178Z" fill="#032C17"/>
<path d="M56.5343 27.6578V27.3684C56.5343 27.1554 56.5343 26.9665 56.5343 26.7375L56.4983 25.4835C56.4887 25.3916 56.4455 25.3064 56.377 25.2446C56.3085 25.1827 56.2196 25.1484 56.1274 25.1484C56.0352 25.1484 55.9463 25.1827 55.8778 25.2446C55.8093 25.3064 55.7661 25.3916 55.7566 25.4835V26.7616C55.7566 26.9706 55.7566 27.1635 55.7566 27.3926V27.8507C55.7605 27.9498 55.7851 28.047 55.8288 28.1361C55.8657 28.2002 55.921 28.2517 55.9875 28.2839C56.0539 28.3162 56.1285 28.3277 56.2016 28.3169C56.2731 28.3046 56.34 28.2731 56.3951 28.2257C56.4502 28.1783 56.4914 28.1167 56.5143 28.0477C56.5471 27.9204 56.5539 27.7878 56.5343 27.6578V27.6578Z" fill="#032C17"/>
<path d="M42.4227 41.085L40.4422 41.1653C40.3455 41.1653 40.2527 41.2039 40.1842 41.2725C40.1158 41.3411 40.0774 41.4341 40.0774 41.5311C40.0774 41.6281 40.1158 41.7211 40.1842 41.7897C40.2527 41.8583 40.3455 41.8968 40.4422 41.8968L42.4227 41.8124C42.5123 41.8029 42.5953 41.7605 42.6556 41.6934C42.7159 41.6262 42.7493 41.5391 42.7493 41.4487C42.7493 41.3583 42.7159 41.2711 42.6556 41.204C42.5953 41.1368 42.5123 41.0944 42.4227 41.085V41.085Z" fill="#032C17"/>
<path d="M71.7645 41.1172L69.9204 41.1493C69.8602 41.1295 69.7961 41.1243 69.7335 41.134C69.6709 41.1438 69.6114 41.1683 69.5601 41.2056C69.5088 41.2429 69.467 41.2918 69.4381 41.3484C69.4093 41.405 69.3943 41.4676 69.3943 41.5311C69.3943 41.5947 69.4093 41.6573 69.4381 41.7139C69.467 41.7705 69.5088 41.8194 69.5601 41.8567C69.6114 41.894 69.6709 41.9185 69.7335 41.9283C69.7961 41.938 69.8602 41.9328 69.9204 41.913L71.7645 41.8848C71.8462 41.8594 71.9177 41.8084 71.9684 41.7393C72.0191 41.6703 72.0465 41.5868 72.0465 41.501C72.0465 41.4152 72.0191 41.3317 71.9684 41.2627C71.9177 41.1936 71.8462 41.1426 71.7645 41.1172Z" fill="#032C17"/>
<path d="M56.3459 57.0003V56.3813L56.3178 55.1756C56.3075 55.0693 56.2581 54.9705 56.1791 54.8987C56.1002 54.8269 55.9974 54.7871 55.8908 54.7871C55.7842 54.7871 55.6815 54.8269 55.6025 54.8987C55.5236 54.9705 55.4742 55.0693 55.4639 55.1756C55.4879 55.5775 55.508 55.9794 55.528 56.3813C55.528 56.5823 55.5521 56.7832 55.5601 56.9762C55.5601 57.0726 55.5601 57.1731 55.5601 57.2736C55.5642 57.4142 55.6013 57.5519 55.6683 57.6755C55.6996 57.7262 55.7432 57.768 55.7952 57.797C55.8471 57.826 55.9055 57.8413 55.965 57.8413C56.0244 57.8413 56.0829 57.826 56.1348 57.797C56.1867 57.768 56.2304 57.7262 56.2617 57.6755C56.3237 57.5507 56.3553 57.413 56.3539 57.2736C56.3499 57.1811 56.3499 57.0887 56.3459 57.0003Z" fill="#032C17"/>
<path d="M60.8759 38.1835C60.8174 38.0834 60.7216 38.0106 60.6096 37.9812C60.4976 37.9518 60.3786 37.9682 60.2786 38.0267L57.3721 39.9398C57.132 39.7461 56.8527 39.6069 56.5537 39.532C56.2547 39.457 55.943 39.4481 55.6402 39.5057C54.678 36.5477 53.5515 33.6379 52.4049 30.7482C52.1764 30.1695 51.2463 30.3946 51.4508 31.0095C52.453 34.0037 53.4753 36.9979 54.658 39.9237C54.6698 39.9487 54.6832 39.9728 54.6981 39.9961C54.4836 40.1939 54.3147 40.4363 54.2032 40.7064C54.0917 40.9764 54.0404 41.2675 54.0526 41.5595C54.0821 41.971 54.2395 42.363 54.5027 42.6802C54.7659 42.9974 55.1216 43.2239 55.5199 43.3279C55.9144 43.4138 56.326 43.3699 56.6937 43.2026C57.0613 43.0354 57.3653 42.7537 57.5605 42.3995C57.6752 42.1652 57.7378 41.9087 57.744 41.6478C57.7502 41.387 57.6999 41.1278 57.5966 40.8883C57.6347 40.8773 57.6711 40.8611 57.7048 40.8401L60.7076 38.7863C60.809 38.7281 60.8834 38.6323 60.9149 38.5195C60.9464 38.4067 60.9324 38.286 60.8759 38.1835V38.1835Z" fill="#032C17"/>
<path d="M186.923 12.9479C186.923 12.8498 186.884 12.7558 186.815 12.6864C186.746 12.6171 186.652 12.5781 186.554 12.5781C186.456 12.5781 186.362 12.6171 186.293 12.6864C186.224 12.7558 186.185 12.8498 186.185 12.9479C186.141 15.4116 186.101 17.8712 186.081 20.3349C186.091 20.4423 186.141 20.542 186.221 20.6145C186.301 20.687 186.404 20.7272 186.512 20.7272C186.62 20.7272 186.723 20.687 186.803 20.6145C186.883 20.542 186.933 20.4423 186.943 20.3349C186.923 17.8712 186.923 15.4116 186.923 12.9479Z" fill="#032C17"/>
<path d="M186.999 26.1503C186.999 26.0501 186.959 25.954 186.889 25.8831C186.818 25.8123 186.722 25.7725 186.622 25.7725C186.522 25.7725 186.426 25.8123 186.356 25.8831C186.285 25.954 186.245 26.0501 186.245 26.1503C186.185 30.1171 186.169 34.0839 186.149 38.0547C186.149 38.1661 186.193 38.2729 186.272 38.3517C186.35 38.4304 186.457 38.4747 186.568 38.4747C186.679 38.4747 186.786 38.4304 186.864 38.3517C186.943 38.2729 186.987 38.1661 186.987 38.0547C187.003 34.0839 187.023 30.101 186.999 26.1503Z" fill="#032C17"/>
<path d="M201.977 59.9587C199.044 57.9444 195.72 56.5747 192.223 55.9396C190.373 55.5821 188.494 55.4031 186.61 55.4051C186.667 55.4055 186.724 55.3909 186.774 55.3627C186.824 55.3345 186.865 55.2937 186.895 55.2444C187.143 54.8425 187.035 54.328 187.031 53.8698L187.007 52.2622L186.959 49.047L186.863 42.6165C186.853 42.5266 186.811 42.4435 186.744 42.383C186.677 42.3225 186.59 42.2891 186.5 42.2891C186.41 42.2891 186.323 42.3225 186.256 42.383C186.189 42.4435 186.147 42.5266 186.137 42.6165V49.047C186.137 50.1201 186.137 51.1891 186.137 52.2622C186.137 52.7968 186.137 53.3313 186.137 53.8698C186.137 54.328 186.041 54.8465 186.293 55.2444C186.324 55.2932 186.367 55.3335 186.417 55.3616C186.468 55.3897 186.524 55.4047 186.582 55.4051C181.472 55.3848 176.449 56.729 172.029 59.2996C168.63 61.3091 165.399 64.5243 165.615 68.7765C165.617 68.8414 165.634 68.905 165.663 68.963C165.692 69.021 165.733 69.072 165.784 69.1124C165.835 69.1529 165.893 69.1819 165.956 69.1974C166.019 69.213 166.085 69.2147 166.148 69.2025C166.173 69.2602 166.215 69.309 166.268 69.3427C166.32 69.3764 166.382 69.3933 166.445 69.3914L197.687 69.3633H206.507C206.556 69.363 206.604 69.3516 206.647 69.3298C206.691 69.3081 206.729 69.2767 206.759 69.2379C206.789 69.1991 206.809 69.1541 206.819 69.1062C206.829 69.0582 206.828 69.0087 206.816 68.9614C206.845 68.9066 206.862 68.8464 206.868 68.7845C207.14 65.1312 204.799 61.9803 201.977 59.9587ZM175.249 68.7242H166.509C166.461 65.1513 169.011 62.3259 171.845 60.4973C174.621 58.7363 177.701 57.5096 180.925 56.8801C187.3 55.59 194.239 56.5586 199.896 59.8341C203.139 61.715 205.954 64.7534 206.046 68.6961L175.249 68.7242Z" fill="#032C17"/>
<path d="M198.95 63.7606C198.738 63.4431 198.505 63.1337 198.26 62.8363C197.8 62.2731 197.284 61.7575 196.721 61.297C195.569 60.3429 194.231 59.6419 192.792 59.2392C192.684 59.2159 192.571 59.2349 192.476 59.2925C192.382 59.3501 192.313 59.4418 192.283 59.5488C192.254 59.6558 192.267 59.77 192.319 59.8679C192.371 59.9658 192.459 60.04 192.564 60.0752C193.83 60.5517 195.004 61.2438 196.035 62.1209C196.553 62.5596 197.03 63.0453 197.459 63.5717C197.663 63.8209 197.86 64.0862 198.032 64.3555C198.188 64.6987 198.425 64.9992 198.721 65.2316C198.793 65.2719 198.873 65.293 198.955 65.2929C199.036 65.2928 199.117 65.2715 199.188 65.231C199.259 65.1905 199.318 65.1323 199.36 65.062C199.402 64.9916 199.425 64.9116 199.427 64.8297C199.384 64.432 199.217 64.0581 198.95 63.7606V63.7606Z" fill="#032C17"/>
<path d="M180.85 180.052L180.825 180.016C180.827 180.025 180.827 180.034 180.825 180.044L180.85 180.052Z" fill="#032C17"/>
<path d="M180.737 179.803C180.737 179.803 180.737 179.803 180.737 179.759C180.739 179.773 180.739 179.788 180.737 179.803V179.803Z" fill="#032C17"/>
<path d="M289.104 312.986C289.017 312.635 288.972 312.275 288.968 311.913V311.262C285.564 311.262 282.153 311.242 278.757 311.298L281.379 304.064C283.945 296.969 286.515 289.869 289.088 282.763V282.49L289.016 282.112C288.805 281.323 288.796 280.493 288.992 279.7C288.96 279.085 288.944 278.471 288.956 277.856C287.989 275.125 287.02 272.398 286.05 269.673C283.775 263.267 281.503 256.863 279.234 250.462C282.494 250.462 285.753 250.418 289.012 250.377C289.034 250.159 289.077 249.944 289.14 249.734C289.14 249.61 289.14 249.481 289.14 249.357C285.762 249.397 282.381 249.454 278.998 249.529C278.97 249.531 278.942 249.54 278.918 249.554C278.332 247.906 277.747 246.254 277.162 244.61C274.171 236.218 271.192 227.823 268.089 219.511L268.053 219.415H288.968C288.556 216.481 288.571 213.502 289.012 210.573H264.425C261.154 210.573 257.505 211.011 254.29 210.484C254.547 209.086 253.757 207.526 252.755 206.578C250.642 204.568 247.715 205.296 245.094 205.151C242.408 205.002 239.71 204.974 237.019 204.898C236.739 204.898 235.592 201.94 235.416 201.578L233.7 198.029C231.852 194.28 230.016 190.526 228.228 186.748C227.374 184.943 226.624 183.046 225.658 181.302C224.912 179.956 223.894 178.621 222.375 178.127C222.25 178.087 222.13 178.051 222.006 178.023C220.935 177.785 220.001 178.477 219.015 178.147C218.029 177.818 217.071 177.954 216.072 177.958H213.944L209.69 177.982L204.282 178.027C199.423 178.075 194.568 178.191 189.709 178.227C188.186 178.227 186.664 178.242 185.143 178.272L182.854 178.296C181.932 178.296 180.601 178.018 180.1 179.051C180 179.296 179.952 179.559 179.959 179.824C179.967 180.088 180.03 180.348 180.144 180.587C180.384 181.145 180.805 181.583 181.082 182.13C181.451 182.853 181.817 183.578 182.18 184.304C185.327 190.518 188.414 196.763 191.557 202.981C192.155 204.15 192.78 205.392 193.386 206.598C194.027 207.868 194.865 209.166 195.338 210.504C194.865 210.697 194.075 210.561 193.558 210.561H144.428C142.656 210.561 141.22 212.546 141.22 214.982C141.22 217.417 142.656 219.403 144.428 219.403H154.538C157.238 226.902 159.933 234.403 162.625 241.905L171.629 266.924C173.409 271.875 175.194 276.821 176.985 281.762C175.539 285.717 174.077 289.662 172.599 293.598C169.448 301.998 166.241 310.355 162.977 318.669C159.714 326.983 156.401 335.262 153.039 343.507C152.638 344.516 152.217 345.516 151.808 346.525C151.467 347.329 152.386 348.093 152.726 347.269C156.121 339.054 159.453 330.789 162.725 322.475C164.032 319.145 165.328 315.805 166.613 312.456C166.643 312.469 166.674 312.479 166.706 312.484L170.494 312.886C170.695 312.906 170.863 312.636 170.863 312.375C170.874 312.315 170.873 312.253 170.86 312.193C170.847 312.134 170.822 312.077 170.787 312.027C170.752 311.977 170.707 311.934 170.656 311.902C170.604 311.869 170.546 311.847 170.486 311.837L166.958 311.511C168.749 306.849 170.525 302.172 172.286 297.481C174.047 292.789 175.799 288.063 177.542 283.301C178.582 286.171 179.619 289.045 180.653 291.922C183.034 298.543 185.424 305.157 187.821 311.764C187.521 311.682 187.208 311.66 186.899 311.7H185.504H182.413C180.384 311.7 178.356 311.76 176.331 311.809C175.782 311.809 175.782 312.966 176.331 312.986C178.336 313.058 180.384 313.135 182.413 313.163L185.404 313.207L186.899 313.227C187.38 313.227 187.821 313.364 188.198 312.878C188.199 312.864 188.199 312.851 188.198 312.837L189.729 317.029C192.744 325.357 195.763 333.683 198.786 342.008L199.9 345.102C200.101 345.661 200.702 345.171 200.506 344.616C197.499 336.278 194.504 327.932 191.521 319.577C188.539 311.223 185.536 302.882 182.513 294.555C181.006 290.375 179.5 286.194 177.995 282.011C179.19 278.737 180.379 275.456 181.563 272.169C184.599 263.689 187.576 255.169 190.495 246.612C193.414 238.047 196.224 229.41 198.99 220.753C199.13 220.307 199.271 219.861 199.415 219.419H266.971C269.5 227.147 272.279 234.735 274.989 242.347C277.958 250.707 280.93 259.063 283.905 267.414L288.655 280.753C283.727 294.295 278.815 307.843 273.918 321.398C271.147 329.082 268.386 336.772 265.636 344.467C265.367 345.211 266.173 345.87 266.438 345.122C270.393 334.327 274.327 323.517 278.24 312.693C278.283 312.771 278.347 312.837 278.423 312.884C278.5 312.93 278.587 312.956 278.677 312.958C282.149 313.054 285.621 313.087 289.1 313.111L289.104 312.986ZM220.474 178.621C220.796 178.508 221.137 178.466 221.477 178.497C222.153 178.582 222.791 178.861 223.313 179.301C223.783 179.675 224.19 180.125 224.515 180.631C225.014 181.469 225.462 182.336 225.858 183.227C226.348 184.243 226.838 185.262 227.33 186.286C229.302 190.393 231.281 194.499 233.267 198.604L236.278 204.85L233.303 204.777C233.196 204.772 233.09 204.799 232.998 204.854C232.103 202.997 231.209 201.14 230.316 199.283C228.356 195.24 226.464 191.157 224.423 187.154C223.792 185.916 223.167 184.675 222.547 183.432C221.938 182.226 221.344 180.993 220.687 179.815L220.366 179.272C220.158 178.959 220.053 178.774 220.474 178.621ZM190.724 242.789C190.034 244.823 189.328 246.849 188.631 248.878C188.552 248.852 188.469 248.838 188.386 248.838L183.062 248.991C182.2 249.015 182.196 250.365 183.062 250.341L188.178 250.197C186.099 256.228 183.992 262.244 181.86 268.246C180.403 272.329 178.933 276.405 177.45 280.472C176.135 276.825 174.821 273.183 173.509 269.544C171.104 262.902 168.698 256.261 166.293 249.622L172.11 249.951L175.08 250.12L176.568 250.197C177.069 250.221 177.578 250.341 178.051 250.064C178.125 250.014 178.187 249.948 178.233 249.871C178.278 249.794 178.306 249.708 178.315 249.619C178.323 249.529 178.312 249.44 178.281 249.355C178.251 249.271 178.203 249.195 178.139 249.132C177.723 248.891 177.243 248.785 176.764 248.826L175.161 248.758L172.19 248.637L166.052 248.396C165.981 248.396 165.911 248.417 165.852 248.456L164.396 244.437L155.364 219.443H198.589C196.011 227.236 193.365 235.013 190.724 242.789ZM227.815 210.557H196.613L190.844 199.159C189.24 195.899 187.568 192.656 185.909 189.417C184.333 186.338 182.798 183.267 181.062 180.273C180.817 179.871 180.609 179.293 181.262 179.156C182.401 178.923 183.6 179.076 184.754 179.092C188.535 179.152 192.311 179.116 196.096 179.116C200.189 179.116 204.362 179.14 208.491 179.152C210.62 179.152 212.749 179.152 214.878 179.152C215.928 179.152 216.999 178.887 218.037 179.152C219.139 179.421 219.544 179.956 220.106 180.908C221.236 182.809 222.058 184.863 222.972 186.876C226.396 194.404 230.088 201.807 233.58 209.307C233.816 209.69 233.991 210.107 234.097 210.545C232.056 210.766 229.867 210.557 227.815 210.557ZM252.378 210.179C251.752 210.472 251.063 210.602 250.373 210.557H244.52C242.251 210.557 239.914 211.047 237.661 210.613C236.613 210.473 235.644 209.978 234.915 209.21C234.642 208.893 233.311 206.168 233.5 205.955C233.5 206.602 250.871 205.75 252.342 208.041C253.112 209.194 252.939 209.833 252.378 210.179Z" fill="#362406"/>
<path d="M210.356 198.467C209.899 198.644 209.221 199.206 208.997 199.271C208.381 199.444 207.725 199.407 207.132 199.166C205.902 198.68 205.068 197.518 204.651 196.297C204.198 194.997 204.05 193.611 204.218 192.245C204.338 191.442 204.871 190.3 205.741 190.059C206.074 189.971 206.403 190.292 206.712 190.22C207.193 190.111 207.06 189.673 206.659 189.48C205.457 188.897 204.254 190.714 203.949 191.586C203.517 192.77 203.411 194.049 203.641 195.288C204.048 197.024 205.125 198.528 206.635 199.472C207.321 199.939 208.156 200.132 208.977 200.01C209.454 199.922 209.901 199.713 210.276 199.403C210.444 199.259 210.861 198.78 210.773 198.531C210.721 198.382 210.576 198.387 210.356 198.467Z" fill="#032C17"/>
<path d="M211.554 194.407C211.204 193.252 210.595 192.193 209.774 191.309C209.574 191.112 208.263 190.171 208.636 190.975C208.716 191.118 208.825 191.243 208.957 191.341C210.063 192.344 210.739 193.739 210.841 195.231C210.865 195.633 210.997 196.437 211.406 195.915C211.54 195.69 211.623 195.438 211.649 195.178C211.674 194.917 211.642 194.654 211.554 194.407V194.407Z" fill="#032C17"/>
<path d="M273.562 210.179C273.477 210.223 273.517 210.203 273.562 210.179V210.179Z" fill="#032C17"/>
<path d="M278.248 200.344C277.978 199.853 277.641 199.402 277.246 199.005C276.982 198.744 276.686 198.518 276.364 198.334C276.191 198.242 274.455 197.663 274.455 197.776C274.455 196.57 275.093 194.874 273.545 194.428C273.185 194.323 272.202 194.179 271.862 194.327C271.629 194.428 271.413 194.898 271.862 194.882C272.253 194.863 272.645 194.885 273.032 194.946L273.253 194.99C270.476 195.272 267.678 195.272 264.902 194.99C265.68 194.902 266.457 194.842 267.235 194.81C267.788 194.785 268.342 194.777 268.891 194.781C269.44 194.785 270.094 194.854 270.683 194.81C270.956 194.789 271.056 194.363 270.751 194.303C270.182 194.213 269.607 194.176 269.031 194.191C268.411 194.191 267.79 194.199 267.167 194.215C266.409 194.247 263.371 194.09 263.354 195.043C263.354 196.144 263.302 197.245 263.302 198.346C263.273 198.865 263.292 199.386 263.358 199.902C263.431 200.279 263.759 200.657 263.948 200.022C263.985 199.819 263.975 199.61 263.92 199.411C263.856 199.009 263.984 195.513 263.852 195.497C267.178 195.918 270.544 195.932 273.874 195.537C273.874 195.967 274.103 197.394 273.838 197.711C273.714 197.864 272.904 197.92 272.691 197.985C272.291 198.097 271.93 198.226 271.557 198.387C271.212 198.501 270.899 198.699 270.647 198.961C270.559 199.074 270.493 199.203 270.455 199.341C270.417 199.479 270.407 199.623 270.424 199.765C270.442 199.907 270.488 200.044 270.559 200.169C270.631 200.293 270.726 200.401 270.839 200.488C271.34 200.89 272.11 200.838 272.683 200.625C273.136 200.46 273.565 200.223 273.99 200.079C273.71 200.171 273.95 202.124 273.962 202.357C273.986 202.791 273.886 203.225 273.962 203.66C274.051 204.27 274.564 204.632 274.876 203.852C275.117 203.258 274.656 201.927 274.568 201.292C274.508 200.854 274.496 200.308 274.876 200.087C274.996 200.026 275.13 199.999 275.263 200.009C275.396 200.019 275.525 200.065 275.634 200.143C275.851 200.301 276.027 200.509 276.147 200.75C276.671 201.695 276.855 202.791 276.668 203.856C276.481 204.921 275.935 205.888 275.121 206.597C275.181 206.541 274.72 204.7 274.131 205.617C274.03 205.77 273.854 206.778 274.131 206.823C273.803 206.789 273.494 206.656 273.245 206.441C272.587 205.87 271.573 205.235 270.931 206.256C270.45 207.003 271.26 208.052 271.846 208.523C272.307 208.891 272.863 209.122 273.449 209.19C273.754 209.222 274.251 209.069 274.163 209.567C274.026 210.275 272.768 210.194 272.559 210.838C272.531 210.925 272.53 211.019 272.555 211.108C272.58 211.196 272.63 211.276 272.699 211.336C272.838 211.418 272.999 211.456 273.16 211.445C273.321 211.435 273.475 211.375 273.602 211.276C274.692 210.633 274.608 209.31 275.923 209.089C279.872 208.406 279.932 203.37 278.248 200.344ZM278.392 204.652C278.284 206.971 276.528 208.671 274.167 208.49C273.341 208.426 272.186 208.137 271.693 207.401C271.513 207.132 271.433 206.561 271.842 206.425C272.25 206.288 272.599 206.827 272.84 207.035C273.11 207.272 273.434 207.44 273.782 207.526C274.131 207.611 274.495 207.611 274.844 207.526C276.564 207.124 277.198 205.331 277.37 203.768C277.542 202.205 277.25 200.251 275.642 199.484C274.744 199.054 273.914 199.323 273.072 199.741C272.671 199.942 271.689 200.275 271.268 200.066C270.37 199.62 272.198 198.885 272.515 198.78C273.124 198.579 273.769 198.506 274.408 198.566C275.047 198.626 275.666 198.818 276.227 199.13C277.598 199.934 278.188 201.485 278.336 202.992C278.393 203.544 278.412 204.098 278.392 204.652V204.652Z" fill="#032C17"/>
<path d="M266.329 211.063C266.053 211.167 265.751 211.185 265.465 211.113C265.178 211.041 264.921 210.883 264.726 210.661C263.784 209.688 264.064 208.076 264.052 206.847L263.992 202.116C263.992 201.815 263.868 201.409 263.591 201.449C263.315 201.489 263.283 201.831 263.295 202.092C263.363 203.358 263.411 204.62 263.411 205.89C263.411 206.73 263.411 207.566 263.435 208.402C263.424 209.129 263.573 209.849 263.872 210.512C264.365 211.465 265.632 212.172 266.63 211.545C266.687 211.502 266.726 211.439 266.739 211.369C266.753 211.299 266.739 211.226 266.701 211.165C266.663 211.104 266.604 211.06 266.535 211.041C266.466 211.022 266.393 211.03 266.329 211.063V211.063Z" fill="#032C17"/>
<path d="M191.493 69.3594C191.479 69.3111 191.453 69.2673 191.417 69.2322C191.381 69.1972 191.337 69.1722 191.288 69.1596C191.24 69.147 191.189 69.1473 191.14 69.1605C191.092 69.1737 191.048 69.1993 191.012 69.2348C190.699 69.5322 190.663 70.119 190.459 70.5089C190.226 70.9555 189.924 71.3624 189.565 71.7146C188.819 72.4593 187.842 72.9271 186.795 73.0409C185.737 73.1073 184.687 72.8153 183.815 72.2118C182.942 71.6083 182.297 70.7282 181.984 69.7131C181.973 69.6743 181.955 69.638 181.93 69.6063C181.905 69.5746 181.874 69.5481 181.839 69.5283C181.804 69.5086 181.766 69.4959 181.726 69.491C181.686 69.4862 181.646 69.4893 181.607 69.5001C181.568 69.5109 181.532 69.5293 181.501 69.5541C181.469 69.5789 181.442 69.6098 181.423 69.6449C181.403 69.6799 181.39 69.7186 181.386 69.7586C181.381 69.7985 181.384 69.8391 181.395 69.8779C181.625 70.7426 182.074 71.533 182.699 72.1724C183.323 72.8117 184.102 73.2784 184.96 73.5271C185.817 73.7758 186.724 73.7981 187.593 73.5918C188.462 73.3855 189.263 72.9575 189.918 72.3496C190.355 71.9568 190.727 71.4969 191.02 70.9871C191.249 70.5772 191.682 69.8296 191.493 69.3594Z" fill="#032C17"/>
<path d="M180.605 71.8755C180.574 71.7792 180.508 71.698 180.421 71.6481C180.333 71.5982 180.23 71.5833 180.132 71.6062L176.014 73.1897C175.922 73.2218 175.845 73.2865 175.797 73.3715C175.749 73.4566 175.734 73.5563 175.754 73.6519C175.78 73.7482 175.843 73.8302 175.93 73.8799C176.016 73.9296 176.119 73.943 176.215 73.9172L180.336 72.3457C180.431 72.315 180.512 72.2498 180.561 72.1628C180.611 72.0758 180.627 71.9733 180.605 71.8755Z" fill="#032C17"/>
<path d="M183.315 74.3106C183.268 74.2349 183.194 74.1801 183.108 74.1577C183.022 74.1352 182.931 74.1468 182.854 74.1901L180.817 75.641C180.743 75.6876 180.689 75.761 180.666 75.8461C180.644 75.9313 180.655 76.0218 180.697 76.0991C180.742 76.1744 180.815 76.2288 180.9 76.2507C180.984 76.2725 181.074 76.2599 181.15 76.2157L183.194 74.7769C183.27 74.7294 183.325 74.6546 183.347 74.5678C183.37 74.4811 183.358 74.389 183.315 74.3106V74.3106Z" fill="#032C17"/>
<path d="M187.981 77.8837L187.436 75.2753C187.356 74.9015 186.798 75.0623 186.867 75.432C187.031 76.2881 187.195 77.1482 187.356 78.0042C187.516 78.8603 187.624 79.7405 187.861 80.5724C187.957 80.91 188.546 80.8618 188.502 80.484C188.398 79.6118 188.158 78.7317 187.981 77.8837Z" fill="#032C17"/>
<path d="M192.135 75.392L191.112 73.9532C191.066 73.881 190.993 73.8296 190.91 73.8098C190.826 73.7899 190.738 73.8032 190.664 73.8467C190.59 73.8903 190.536 73.9608 190.513 74.0435C190.489 74.1263 190.499 74.2148 190.539 74.2908L191.561 75.7256C191.607 75.801 191.68 75.8557 191.766 75.8782C191.851 75.9007 191.941 75.8892 192.018 75.8462C192.093 75.801 192.148 75.728 192.17 75.643C192.191 75.558 192.179 75.4678 192.135 75.392V75.392Z" fill="#032C17"/>
<path d="M196.516 71.634C196.229 71.5347 195.93 71.4712 195.626 71.4451L194.736 71.2964L192.96 70.995C192.92 70.9827 192.877 70.9787 192.834 70.9832C192.792 70.9877 192.751 71.0007 192.714 71.0212C192.676 71.0418 192.644 71.0697 192.617 71.1031C192.591 71.1365 192.571 71.1749 192.56 71.2161C192.547 71.2567 192.542 71.2995 192.546 71.3419C192.55 71.3844 192.563 71.4256 192.583 71.4631C192.603 71.5006 192.63 71.5336 192.664 71.5602C192.697 71.5868 192.735 71.6065 192.776 71.618L194.548 71.9355L195.434 72.0962L195.835 72.1686C195.998 72.2152 196.167 72.2382 196.336 72.2369C196.403 72.2338 196.468 72.2102 196.522 72.1693C196.576 72.1284 196.616 72.0721 196.637 72.0078C196.661 71.941 196.662 71.868 196.64 71.8004C196.618 71.7328 196.575 71.6743 196.516 71.634V71.634Z" fill="#032C17"/>
<path d="M94.6318 225.592C94.2165 223.825 93.1787 222.268 91.7092 221.207C90.9608 220.703 90.0952 220.401 89.1961 220.33C88.2971 220.26 87.3952 220.424 86.5777 220.805C84.6574 221.633 83.13 223.217 81.7348 224.716C80.0043 226.6 78.4641 228.652 77.1365 230.841C77.1108 230.883 77.097 230.932 77.0964 230.981C76.5593 230.615 75.9737 230.325 75.3565 230.121C72.3458 229.113 68.7978 229.567 65.795 230.371C62.6448 231.213 59.6857 232.655 57.0795 234.619C54.4796 236.559 52.2841 238.99 50.617 241.777C49.7782 243.205 49.0954 244.719 48.5804 246.294C47.9871 248.107 47.5862 249.971 47.081 251.808C46.6377 253.628 45.9385 255.375 45.0044 256.997C44.8761 257.206 44.7438 257.399 44.6035 257.604C43.514 258.921 42.3194 260.146 41.0315 261.269L40.9793 261.317L40.6626 261.583C37.4902 254.332 34.3017 247.09 31.0971 239.856C30.3354 238.135 29.6138 236.395 28.796 234.707C28.2057 233.354 27.3758 232.119 26.3465 231.062C25.3613 230.1 24.0565 229.536 22.6823 229.478C21.2554 229.48 19.8684 229.95 18.7334 230.817C15.7347 233.035 15.0932 236.99 15.2135 240.491C15.2136 240.541 15.2257 240.59 15.2487 240.635C15.2717 240.68 15.305 240.718 15.3458 240.748C15.3548 240.818 15.3873 240.883 15.438 240.933L17.7231 243.224L18.8336 244.333L19.4029 244.907C19.5272 245.028 19.6474 245.157 19.7757 245.277C19.4831 245.342 19.1984 245.442 18.9178 245.526L17.8594 245.832L15.7387 246.447C15.6896 246.461 15.6446 246.487 15.6075 246.522C15.5704 246.557 15.5423 246.601 15.5254 246.649C15.5086 246.698 15.5035 246.749 15.5106 246.8C15.5177 246.851 15.5368 246.899 15.5663 246.941C15.543 246.97 15.526 247.004 15.5164 247.04C15.5067 247.076 15.5046 247.113 15.5102 247.15C16.2731 254.978 18.0535 262.673 20.806 270.039C22.1794 273.711 23.7863 277.291 25.6168 280.757C27.4049 284.153 29.3452 287.59 31.6825 290.628C32.9132 292.236 34.3805 293.751 36.2407 294.619C37.9846 295.423 39.9971 295.74 41.8533 295.077C42.8529 298.094 43.8324 301.115 44.7919 304.14C46.3955 309.192 47.967 314.256 49.4022 319.352H47.1291L41.2239 319.376H41.1718L41.0034 319.348C40.7491 319.33 40.4955 319.392 40.2778 319.525C40.1693 319.531 40.0673 319.579 39.9927 319.658C39.9181 319.737 39.8767 319.842 39.8769 319.951C39.8608 320.006 39.8608 320.065 39.8769 320.12C40.7588 327.121 41.6462 334.124 42.5388 341.128C42.7914 343.137 43.052 345.106 43.3086 347.096C43.3126 347.256 43.3775 347.408 43.4901 347.522C43.6026 347.635 43.7543 347.702 43.9139 347.707C43.9763 347.76 44.0563 347.789 44.1384 347.787C50.7453 347.699 57.3534 347.589 63.9629 347.458C63.9833 347.493 64.0061 347.526 64.0311 347.558C64.0876 347.613 64.1602 347.648 64.2383 347.658C64.3163 347.668 64.3955 347.653 64.4641 347.614C64.6039 347.52 64.7191 347.393 64.8 347.245C64.8809 347.097 64.9252 346.931 64.9291 346.762L65.1456 345.279C65.2739 344.391 65.4062 343.499 65.5465 342.611C65.8138 340.797 66.081 338.984 66.3483 337.173C66.8735 333.556 67.4387 329.967 67.8958 326.349L68.6655 320.22C68.6739 320.133 68.6494 320.046 68.5967 319.976C68.5439 319.906 68.4669 319.858 68.3809 319.843C68.4086 319.785 68.4214 319.722 68.4181 319.658C68.4147 319.594 68.3953 319.532 68.3617 319.478C68.3281 319.424 68.2813 319.379 68.2258 319.348C68.1702 319.317 68.1077 319.3 68.0441 319.3L56.6064 319.324C56.4741 308.352 58.5788 297.477 61.9745 287.075C62.1709 286.468 62.3754 285.87 62.5798 285.263C65.9113 286.444 69.4473 284.76 71.8005 282.381C73.0753 281.026 74.229 279.562 75.2483 278.004C76.3868 276.351 77.4987 274.682 78.5838 272.997C82.9548 266.2 86.8579 259.113 90.266 251.784C92.1262 247.765 93.7739 243.585 93.9783 239.124C93.9806 239.068 93.9663 239.013 93.9375 238.965C93.9086 238.917 93.8663 238.879 93.8159 238.855C93.7655 238.831 93.7092 238.822 93.654 238.83C93.5988 238.838 93.547 238.862 93.5053 238.899C93.3912 238.769 93.2635 238.652 93.1244 238.549L92.6914 238.188L91.7734 237.416L90.2419 236.13L90.3742 236.025L90.9275 235.587C91.3083 235.29 91.6892 234.992 92.066 234.691L94.3151 232.927C94.3581 232.891 94.39 232.843 94.4073 232.79C94.4665 232.772 94.52 232.739 94.5623 232.694C94.6045 232.649 94.634 232.593 94.6478 232.533C94.8923 231.385 95.0093 230.214 94.9966 229.04C95.032 227.88 94.9093 226.719 94.6318 225.592ZM17.2581 254.035C16.8171 251.752 16.459 249.457 16.1837 247.15C16.18 247.1 16.1649 247.052 16.1396 247.009L18.0599 246.471L19.1223 246.173C19.4936 246.086 19.858 245.972 20.2127 245.832C20.2736 245.797 20.3211 245.743 20.3473 245.678C20.3735 245.613 20.3769 245.541 20.357 245.474C20.3971 245.454 20.4325 245.425 20.461 245.39C20.4895 245.355 20.5105 245.315 20.5225 245.271C20.5346 245.228 20.5375 245.182 20.5311 245.138C20.5247 245.093 20.5091 245.05 20.4853 245.012C20.1494 244.588 19.772 244.199 19.3588 243.85L18.2242 242.709L15.9151 240.442H15.887C15.7948 237.392 16.2398 233.923 18.6412 231.777C19.6876 230.802 21.0463 230.232 22.4738 230.17C23.1598 230.169 23.8378 230.318 24.4608 230.606C25.0838 230.894 25.6369 231.314 26.0819 231.838C26.9832 232.928 27.7021 234.158 28.2107 235.479C28.9283 237.123 29.6379 238.766 30.3515 240.41L34.8736 250.811C36.5334 254.627 38.2024 258.44 39.8809 262.25C37.4193 264.324 34.8816 266.638 34.3725 269.942C34.3404 270.147 34.3164 270.344 34.3003 270.553C33.5867 268.64 32.8665 266.731 32.1395 264.826C30.1884 259.751 28.1639 254.706 26.0659 249.69C25.8413 249.148 24.9433 249.381 25.1718 249.935C26.3157 252.741 27.4409 255.554 28.5474 258.375L28.0022 258.166L26.5028 257.58L23.4239 256.374C21.4194 255.57 19.3788 254.814 17.3543 254.035H17.2581ZM18.2443 258.552C17.9516 257.346 17.671 256.109 17.4425 254.879C19.3227 255.683 21.2029 256.486 23.0912 257.242L26.0578 258.468L27.5412 259.079C27.9859 259.322 28.4731 259.478 28.9764 259.537H28.9964C29.531 260.863 30.0481 262.193 30.5479 263.528C26.5389 261.845 22.5099 260.187 18.4608 258.552C18.4293 258.538 18.3951 258.53 18.3606 258.53C18.326 258.53 18.2918 258.538 18.2603 258.552H18.2443ZM32.6526 290.371C31.5197 288.88 30.4743 287.325 29.5216 285.713C28.5354 284.105 27.6 282.476 26.7153 280.826C23.1548 274.166 20.4114 267.099 18.545 259.778C18.5009 259.609 18.4648 259.44 18.4207 259.276C22.4751 261.084 26.5403 262.863 30.6161 264.613C30.7248 264.664 30.8473 264.678 30.9649 264.653C32.0713 267.541 33.1591 270.438 34.2282 273.342C34.3189 274.1 34.5386 274.837 34.8776 275.521C34.9963 275.752 35.1303 275.975 35.2785 276.188C35.3667 276.433 35.4589 276.674 35.5471 276.919C37.6158 282.642 39.6056 288.392 41.5165 294.169C38.0528 295.411 34.7453 292.999 32.6687 290.371H32.6526ZM42.1299 287.875C42.0618 289.366 41.9375 290.905 41.9976 292.413L41.8172 291.862C40.2804 287.256 38.6915 282.67 37.0505 278.105C37.4514 278.438 37.8523 278.76 38.2532 279.073C39.5722 280.098 40.8911 281.167 41.5526 282.755C42.2141 284.342 42.2221 286.163 42.146 287.875H42.1299ZM43.8378 298.067C44.7406 299.231 45.9191 300.149 47.2662 300.74C48.6133 301.33 50.0862 301.573 51.5511 301.447C51.5711 306.672 51.6072 311.937 52.9662 317.017C53.1747 317.821 53.4233 318.569 53.6959 319.332H50.2802C48.2116 312.239 46.1028 305.125 43.8538 298.067H43.8378ZM62.0907 320.08H67.8196C67.8196 320.08 67.8196 320.104 67.8196 320.124C66.6169 327.358 65.5625 334.593 64.5082 341.827L64.0752 344.793L63.8467 346.376C63.8266 346.493 63.8106 346.609 63.7986 346.722C57.3628 346.827 50.9283 346.944 44.4952 347.076C43.5839 340.053 42.6591 333.034 41.721 326.02C41.4537 324.029 41.1865 322.038 40.9192 320.048V319.995C40.9518 320.036 40.9934 320.069 41.0407 320.09C41.0881 320.112 41.1398 320.122 41.1918 320.12C48.1648 320.109 55.1365 320.096 62.1068 320.08H62.0907ZM57.2479 301.009C56.0845 307.044 55.5324 313.182 55.6002 319.328H54.7142C52.6415 313.517 52.6455 307.355 52.6415 301.242C54.8644 300.674 56.7855 299.273 58.0096 297.328C57.753 298.574 57.4964 299.78 57.2639 301.009H57.2479ZM57.9575 294.358C57.6647 295.703 57.0163 296.944 56.0802 297.951C55.1442 298.958 53.955 299.693 52.6375 300.081C52.6375 299.386 52.6375 298.694 52.6375 298.003C52.5493 291.472 51.98 284.571 48.5844 278.828C47.0209 276.192 43.6533 273.125 44.84 269.725C45.6418 267.43 48.4481 266.683 50.4286 265.794C51.5607 265.341 52.6002 264.683 53.4954 263.853C54.4632 262.837 55.1007 261.551 55.3235 260.164C55.8728 257.222 55.2955 254.204 55.9249 251.266C56.5363 248.512 57.795 245.945 59.5962 243.778C61.3974 241.611 63.689 239.906 66.2801 238.807C66.9223 238.548 67.5797 238.329 68.2486 238.151C68.312 238.134 68.3713 238.104 68.4232 238.063C68.4751 238.022 68.5184 237.972 68.5508 237.914C68.5832 237.857 68.604 237.794 68.612 237.728C68.6199 237.663 68.615 237.596 68.5973 237.533C68.5797 237.469 68.5497 237.409 68.5092 237.357C68.4686 237.305 68.4182 237.262 68.3609 237.23C68.3036 237.197 68.2404 237.176 68.175 237.168C68.1097 237.16 68.0434 237.165 67.98 237.183C62.3914 238.618 57.8171 242.914 55.6924 248.247C55.1652 249.577 54.807 250.968 54.626 252.387C54.4817 253.903 54.4294 255.426 54.4696 256.949C54.4696 258.448 54.4015 260.019 53.8081 261.418C53.2605 262.614 52.325 263.588 51.1542 264.183C49.0775 265.34 46.4717 265.835 44.8119 267.651C44.3297 268.181 43.9655 268.808 43.7436 269.49C43.5217 270.172 43.4472 270.893 43.5251 271.606C43.6974 273.342 44.5153 274.865 45.4935 276.276C46.5262 277.667 47.4638 279.127 48.2998 280.645C49.0519 282.146 49.6496 283.72 50.0838 285.343C50.9272 288.647 51.3899 292.037 51.4629 295.447C51.527 297.055 51.543 298.662 51.5511 300.306C50.015 300.504 48.4562 300.201 47.1051 299.442C45.7509 298.696 44.6474 297.565 43.934 296.191C43.1562 294.663 43.04 292.911 43.068 291.227C43.1282 287.968 43.8698 284.346 42.0898 281.388C41.2849 280.042 40.0414 279.081 38.8229 278.14C38.7974 278.12 38.7718 278.1 38.7463 278.081C37.7433 277.382 36.8582 276.527 36.1244 275.549L35.7797 274.608C35.8201 274.566 35.8444 274.511 35.848 274.453C35.8517 274.395 35.8346 274.337 35.7997 274.291C35.6485 274.061 35.5145 273.821 35.3988 273.571C35.3347 273.403 35.2745 273.234 35.2144 273.065C34.8135 270.103 36.5414 267.137 38.5058 265.027C40.9753 262.37 44.0142 260.268 46.0587 257.226C47.0234 255.829 47.6506 254.226 47.8909 252.544C47.8999 252.489 47.8974 252.432 47.8836 252.378C47.8698 252.325 47.845 252.274 47.8107 252.23C48.3359 250.357 48.7488 248.444 49.3461 246.604C50.3487 243.558 51.989 240.763 54.1569 238.405C58.4305 233.718 64.5442 230.7 70.9145 230.576C73.5926 230.527 77.9183 231.086 78.0786 234.595C78.1668 236.459 77.0082 238.055 75.6973 239.257C74.2288 240.532 72.675 241.706 71.0468 242.769C68.0561 244.851 64.9532 247.138 63.3375 250.518C62.5497 252.207 62.1955 254.067 62.3072 255.928C62.3914 257.937 62.8003 259.911 62.7081 261.916C62.5798 265.131 60.7998 267.876 59.1481 270.505C57.4964 273.133 55.8046 275.882 55.54 279.057C55.2474 282.606 56.8029 285.95 57.6327 289.326C58.0577 290.938 58.3183 292.678 57.9735 294.358H57.9575ZM69.9163 245.149C69.8602 245.269 69.8 245.39 69.7399 245.506L68.8259 247.291C68.2325 248.448 67.6232 249.61 67.0459 250.771L63.7304 257.31C63.6523 256.567 63.6121 255.819 63.6101 255.072C63.6462 251.109 66.1919 248.083 69.1506 245.731C69.4192 245.522 69.6758 245.342 69.9323 245.149H69.9163ZM59.3045 292.171C59.2043 289.615 58.2782 287.079 57.5846 284.644C57.0955 282.908 56.6866 281.127 56.7828 279.311C56.9115 280.129 57.1672 280.922 57.5405 281.662C58.3843 283.268 59.7653 284.526 61.4413 285.215C60.6836 287.525 59.962 289.84 59.3205 292.18L59.3045 292.171ZM78.8564 270.44C77.8221 272.083 76.761 273.709 75.6732 275.32C74.6469 276.839 73.6286 278.378 72.4861 279.813C70.249 282.626 66.6891 285.387 62.9326 284.137C66.2922 274.584 70.678 265.409 75.3605 256.45C75.8857 255.449 76.4189 254.441 76.9641 253.46C79.0198 252.846 81.1202 252.395 83.2462 252.11C84.3153 251.97 85.3844 251.872 86.4534 251.816C87.0227 251.788 87.592 251.772 88.1653 251.768C88.49 251.768 88.8227 251.768 89.1555 251.768C87.7443 254.715 86.2557 257.614 84.6895 260.465C82.8507 263.86 80.9063 267.185 78.8564 270.44ZM89.9693 250.12C89.833 250.414 89.6887 250.703 89.5684 250.992C89.1133 250.96 88.6565 250.96 88.2014 250.992C87.6281 250.992 87.0588 251.02 86.4895 251.057C85.379 251.121 84.2685 251.233 83.1661 251.386C81.2238 251.663 79.3049 252.085 77.4252 252.648C78.1361 251.308 78.8524 249.985 79.574 248.677C79.6139 248.683 79.6544 248.683 79.6943 248.677C83.464 247.667 87.3543 247.18 91.2562 247.23C90.8433 248.211 90.4143 249.18 89.9693 250.136V250.12ZM94.1387 228.743C94.1066 229.949 93.854 231.13 93.842 232.324L91.5569 234.04L90.4304 234.884L89.8691 235.286C89.6432 235.419 89.4445 235.593 89.2838 235.8C89.2545 235.851 89.2366 235.908 89.2313 235.966C89.2261 236.024 89.2337 236.083 89.2536 236.138C89.2734 236.194 89.3051 236.244 89.3463 236.285C89.3876 236.327 89.4374 236.359 89.4923 236.379L91.2722 237.906L92.1542 238.662C92.3026 238.795 92.4549 238.923 92.6072 239.064C92.762 239.231 92.947 239.367 93.1525 239.466C93.2048 239.482 93.2605 239.482 93.3128 239.466C93.0181 241.881 92.4116 244.248 91.5088 246.507C91.4553 246.476 91.3944 246.459 91.3324 246.459C87.4968 246.445 83.6764 246.941 79.9709 247.934C81.4382 245.254 82.9162 242.575 84.4048 239.896C84.4338 239.829 84.4374 239.754 84.4147 239.685C84.3921 239.615 84.345 239.557 84.2822 239.52C84.2194 239.483 84.1453 239.471 84.0741 239.486C84.0028 239.5 83.9394 239.54 83.8957 239.598C78.239 249.377 72.6023 259.187 67.8276 269.436C65.5246 274.349 63.4799 279.38 61.7019 284.507C60.2237 283.879 59.0093 282.755 58.2661 281.328C57.8582 280.535 57.6103 279.669 57.5365 278.78C57.4919 277.848 57.5892 276.914 57.8252 276.011C57.8366 275.952 57.8331 275.89 57.8149 275.833C57.7967 275.775 57.7644 275.723 57.7209 275.681C57.8572 275.36 58.0056 275.038 58.1659 274.725C59.6292 271.835 61.7379 269.307 63.0128 266.317C63.7161 264.716 64.0767 262.986 64.0712 261.237C64.0712 260.252 63.9549 259.272 63.8507 258.291C63.8882 258.28 63.9229 258.26 63.9526 258.235C63.9823 258.209 64.0063 258.178 64.0231 258.142L67.6713 251C68.2646 249.843 68.8526 248.68 69.4352 247.512L70.3413 245.723C70.5738 245.261 70.8504 244.799 71.0549 244.317C72.1253 243.557 73.2077 242.818 74.2621 242.034C75.7614 240.913 77.2608 239.707 78.235 238.071C79.1691 236.5 79.5058 234.506 78.7161 232.802C78.4219 232.188 77.9913 231.649 77.4572 231.227C77.4924 231.22 77.5257 231.206 77.5548 231.185C77.5839 231.164 77.608 231.137 77.6256 231.106C78.7575 229.357 80.0072 227.688 81.366 226.11C82.6409 224.635 84.0039 223.116 85.6476 222.043C87.1831 221.042 89.0673 220.54 90.7791 221.412C91.5018 221.816 92.1365 222.361 92.646 223.015C93.1554 223.668 93.5294 224.418 93.7458 225.218C94.0652 226.37 94.1979 227.565 94.1387 228.759V228.743Z" fill="#032C17"/>
<path d="M62.1068 320.08H67.8196V320.124C66.6169 327.358 65.5625 334.593 64.5082 341.827L64.0752 344.793L63.8467 346.376C63.8266 346.493 63.8106 346.609 63.7986 346.722C57.3628 346.827 50.9283 346.944 44.4952 347.076C43.5839 340.053 42.6591 333.034 41.721 326.02L40.9192 320.048V319.995C40.9518 320.036 40.9934 320.069 41.0407 320.09C41.0881 320.112 41.1398 320.122 41.1918 320.12C48.1648 320.109 55.1365 320.096 62.1068 320.08Z" fill="#614C17"/>
<path d="M32.6526 290.371C31.5197 288.88 30.4743 287.325 29.5216 285.713C28.5354 284.105 27.6 282.476 26.7153 280.826C23.1548 274.166 20.4114 267.099 18.545 259.778C18.5009 259.609 18.4648 259.44 18.4207 259.276C22.4751 261.084 26.5403 262.863 30.6161 264.613C30.7248 264.664 30.8473 264.678 30.9649 264.653C32.0713 267.541 33.1591 270.438 34.2282 273.342C34.3189 274.1 34.5386 274.837 34.8776 275.521C34.9963 275.752 35.1303 275.975 35.2785 276.188C35.3667 276.433 35.4589 276.674 35.5471 276.919C37.6158 282.642 39.6056 288.392 41.5165 294.169C38.0528 295.411 34.7453 292.999 32.6687 290.371H32.6526Z" fill="#0D4F1B"/>
<path d="M18.2443 258.552C17.9516 257.346 17.671 256.109 17.4425 254.879C19.3227 255.683 21.2029 256.486 23.0912 257.242L26.0578 258.468L27.5412 259.079C27.9859 259.322 28.4731 259.478 28.9764 259.537H28.9964C29.531 260.863 30.0481 262.193 30.5479 263.528C26.5389 261.845 22.5099 260.187 18.4608 258.552C18.4293 258.538 18.3951 258.53 18.3606 258.53C18.326 258.53 18.2918 258.538 18.2603 258.552H18.2443Z" fill="#0D4F1B"/>
<path d="M17.2581 254.035C16.8171 251.752 16.459 249.457 16.1837 247.15C16.18 247.1 16.1649 247.052 16.1396 247.009L18.0599 246.471L19.1223 246.173C19.4936 246.086 19.858 245.972 20.2127 245.832C20.2736 245.797 20.3211 245.743 20.3473 245.678C20.3735 245.613 20.3769 245.541 20.357 245.474C20.3971 245.454 20.4325 245.425 20.461 245.39C20.4895 245.355 20.5105 245.315 20.5225 245.271C20.5346 245.228 20.5375 245.182 20.5311 245.138C20.5247 245.093 20.5091 245.05 20.4853 245.012C20.1494 244.588 19.772 244.199 19.3588 243.85L18.2242 242.709L15.9151 240.442H15.887C15.7948 237.392 16.2398 233.923 18.6412 231.777C19.6876 230.802 21.0463 230.232 22.4738 230.17C23.1598 230.169 23.8378 230.318 24.4608 230.606C25.0838 230.894 25.6369 231.314 26.0819 231.838C26.9832 232.928 27.7021 234.158 28.2107 235.479C28.9283 237.123 29.6379 238.766 30.3515 240.41L34.8736 250.811C36.5334 254.627 38.2024 258.44 39.8809 262.25C37.4193 264.324 34.8816 266.638 34.3725 269.942C34.3404 270.147 34.3164 270.344 34.3003 270.553C33.5867 268.64 32.8665 266.731 32.1395 264.826C30.1884 259.751 28.1639 254.706 26.0659 249.69C25.8413 249.148 24.9433 249.381 25.1718 249.935C26.3157 252.741 27.4409 255.554 28.5474 258.375L28.0022 258.166L26.5028 257.58L23.4239 256.374C21.4194 255.57 19.3788 254.814 17.3543 254.035H17.2581Z" fill="#0D4F1B"/>
<path d="M57.9575 294.358C57.6647 295.703 57.0163 296.944 56.0802 297.951C55.1442 298.958 53.955 299.693 52.6375 300.081V298.003C52.5493 291.472 51.98 284.571 48.5844 278.828C47.0209 276.192 43.6533 273.125 44.84 269.725C45.6418 267.43 48.4481 266.683 50.4286 265.794C51.5607 265.341 52.6002 264.683 53.4954 263.853C54.4632 262.837 55.1007 261.551 55.3235 260.164C55.8728 257.222 55.2955 254.204 55.9249 251.266C56.5363 248.512 57.795 245.945 59.5962 243.778C61.3974 241.611 63.689 239.906 66.2801 238.807C66.9223 238.548 67.5797 238.329 68.2486 238.151C68.312 238.134 68.3713 238.104 68.4232 238.063C68.4751 238.022 68.5184 237.972 68.5508 237.914C68.5832 237.857 68.604 237.794 68.612 237.728C68.6199 237.663 68.615 237.596 68.5973 237.533C68.5797 237.469 68.5497 237.409 68.5092 237.357C68.4686 237.305 68.4182 237.262 68.3609 237.23C68.3036 237.197 68.2404 237.176 68.175 237.168C68.1097 237.16 68.0434 237.165 67.98 237.183C62.3914 238.618 57.8171 242.914 55.6924 248.247C55.1652 249.577 54.807 250.968 54.626 252.387C54.4817 253.903 54.4294 255.426 54.4696 256.949C54.4696 258.448 54.4015 260.019 53.8081 261.418C53.2605 262.614 52.325 263.588 51.1542 264.183C49.0775 265.34 46.4717 265.835 44.8119 267.651C44.3297 268.181 43.9655 268.808 43.7436 269.49C43.5217 270.172 43.4472 270.893 43.5251 271.606C43.6974 273.342 44.5153 274.865 45.4935 276.276C46.5262 277.667 47.4638 279.127 48.2998 280.645C49.0519 282.146 49.6496 283.72 50.0838 285.343C50.9272 288.647 51.3899 292.037 51.4629 295.447C51.527 297.055 51.543 298.662 51.5511 300.306C50.015 300.504 48.4562 300.201 47.1051 299.442C45.7509 298.696 44.6474 297.565 43.934 296.191C43.1562 294.663 43.04 292.911 43.068 291.227C43.1282 287.968 43.8698 284.346 42.0898 281.388C41.2849 280.042 40.0414 279.081 38.8229 278.14L38.7463 278.081C37.7433 277.382 36.8582 276.527 36.1244 275.549L35.7797 274.608C35.8201 274.566 35.8444 274.511 35.848 274.453C35.8517 274.395 35.8346 274.337 35.7997 274.291C35.6485 274.061 35.5145 273.821 35.3988 273.571C35.3347 273.403 35.2745 273.234 35.2144 273.065C34.8135 270.103 36.5414 267.137 38.5058 265.027C40.9753 262.37 44.0142 260.268 46.0587 257.226C47.0234 255.829 47.6506 254.226 47.8909 252.544C47.8999 252.489 47.8974 252.432 47.8836 252.378C47.8698 252.325 47.845 252.274 47.8107 252.23C48.3359 250.357 48.7488 248.444 49.3461 246.604C50.3487 243.558 51.989 240.763 54.1569 238.405C58.4305 233.718 64.5442 230.7 70.9145 230.576C73.5926 230.527 77.9183 231.086 78.0786 234.595C78.1668 236.459 77.0082 238.055 75.6973 239.257C74.2288 240.532 72.675 241.706 71.0468 242.769C68.0561 244.851 64.9532 247.138 63.3375 250.518C62.5497 252.207 62.1955 254.067 62.3072 255.928C62.3914 257.937 62.8003 259.911 62.7081 261.916C62.5798 265.131 60.7998 267.876 59.1481 270.505C57.4964 273.133 55.8046 275.882 55.54 279.057C55.2474 282.606 56.8029 285.95 57.6327 289.326C58.0577 290.938 58.3183 292.678 57.9735 294.358H57.9575Z" fill="#0D4F1B"/>
<path d="M78.8564 270.44C77.8221 272.083 76.761 273.709 75.6732 275.32C74.6469 276.839 73.6286 278.378 72.4861 279.813C70.249 282.626 66.6891 285.387 62.9326 284.137C66.2922 274.584 70.678 265.409 75.3605 256.45C75.8857 255.449 76.4189 254.441 76.9641 253.46C79.0198 252.846 81.1202 252.395 83.2462 252.11C84.3153 251.97 85.3844 251.872 86.4534 251.816C87.0227 251.788 87.592 251.772 88.1653 251.768H89.1555C87.7443 254.715 86.2557 257.614 84.6895 260.465C82.8507 263.86 80.9063 267.185 78.8564 270.44Z" fill="#0D4F1B"/>
<path d="M89.9693 250.12C89.833 250.414 89.6887 250.703 89.5684 250.992C89.1133 250.96 88.6565 250.96 88.2014 250.992C87.6281 250.992 87.0588 251.02 86.4895 251.057C85.379 251.121 84.2685 251.233 83.1661 251.386C81.2238 251.663 79.3049 252.085 77.4252 252.648C78.1361 251.308 78.8524 249.985 79.574 248.677C79.6139 248.683 79.6544 248.683 79.6943 248.677C83.464 247.667 87.3543 247.18 91.2562 247.23C90.8433 248.211 90.4143 249.18 89.9693 250.136V250.12Z" fill="#0D4F1B"/>
<path d="M94.1387 228.743C94.1066 229.949 93.854 231.13 93.842 232.324L91.5569 234.04L90.4304 234.884L89.8691 235.286C89.6432 235.419 89.4445 235.593 89.2838 235.8C89.2545 235.851 89.2366 235.908 89.2313 235.966C89.2261 236.024 89.2337 236.083 89.2536 236.138C89.2734 236.194 89.3051 236.244 89.3463 236.285C89.3876 236.327 89.4374 236.359 89.4923 236.379L91.2722 237.906L92.1542 238.662C92.3026 238.795 92.4549 238.923 92.6072 239.064C92.762 239.231 92.947 239.367 93.1525 239.466C93.2048 239.482 93.2605 239.482 93.3128 239.466C93.0181 241.881 92.4116 244.248 91.5088 246.507C91.4553 246.476 91.3944 246.459 91.3324 246.459C87.4968 246.445 83.6764 246.941 79.9709 247.934C81.4382 245.254 82.9162 242.575 84.4048 239.896C84.4338 239.829 84.4374 239.754 84.4147 239.685C84.3921 239.615 84.345 239.557 84.2822 239.52C84.2194 239.483 84.1453 239.471 84.0741 239.486C84.0028 239.5 83.9394 239.54 83.8957 239.598C78.239 249.377 72.6023 259.187 67.8276 269.436C65.5246 274.349 63.4799 279.38 61.7019 284.507C60.2237 283.879 59.0093 282.755 58.2661 281.328C57.8582 280.535 57.6103 279.669 57.5365 278.78C57.4919 277.848 57.5892 276.914 57.8252 276.011C57.8366 275.952 57.8331 275.89 57.8149 275.833C57.7967 275.775 57.7644 275.723 57.7209 275.681C57.8572 275.36 58.0056 275.038 58.1659 274.725C59.6292 271.835 61.7379 269.307 63.0128 266.317C63.7161 264.716 64.0767 262.986 64.0712 261.237C64.0712 260.252 63.9549 259.272 63.8507 258.291C63.8882 258.28 63.9229 258.26 63.9526 258.235C63.9823 258.209 64.0063 258.178 64.0231 258.142L67.6713 251C68.2646 249.843 68.8526 248.68 69.4352 247.512L70.3413 245.723C70.5738 245.261 70.8504 244.799 71.0549 244.317C72.1253 243.557 73.2077 242.818 74.2621 242.034C75.7614 240.913 77.2608 239.707 78.235 238.071C79.1691 236.5 79.5058 234.506 78.7161 232.802C78.4219 232.188 77.9913 231.649 77.4572 231.227C77.4924 231.22 77.5257 231.206 77.5548 231.185C77.5839 231.164 77.608 231.137 77.6256 231.106C78.7575 229.357 80.0072 227.688 81.366 226.11C82.6409 224.635 84.0039 223.116 85.6476 222.043C87.1831 221.042 89.0673 220.54 90.7791 221.412C91.5018 221.816 92.1365 222.361 92.646 223.015C93.1554 223.668 93.5294 224.418 93.7458 225.218C94.0652 226.37 94.1979 227.565 94.1387 228.759V228.743Z" fill="#0D4F1B"/>
</svg>
