<svg width="98" height="128" viewBox="0 0 98 128" fill="none" xmlns="http://www.w3.org/2000/svg">
<g clip-path="url(#clip0_993_8868)">
<path d="M71.9909 125.516L68.7951 125.516L67.2749 113.266L71.9915 113.266L71.9909 125.516Z" fill="#A0616A"/>
<path d="M61.0419 125.445C60.9424 125.611 60.8899 126.149 60.8899 126.342C60.8899 126.938 61.3755 127.42 61.9745 127.42H71.8714C72.28 127.42 72.6113 127.091 72.6113 126.685V126.275C72.6113 126.275 73.1009 125.045 72.0929 123.528C72.0929 123.528 70.8402 124.716 68.9682 122.855L68.4162 121.861L64.4203 124.766L62.2054 125.037C61.7208 125.096 61.2912 125.027 61.0419 125.445H61.0419Z" fill="#212529"/>
<path d="M86.8119 125.516L83.6162 125.516L82.0959 113.266L86.8126 113.266L86.8119 125.516Z" fill="#A0616A"/>
<path d="M75.8629 125.445C75.7634 125.611 75.7109 126.149 75.7109 126.342C75.7109 126.938 76.1965 127.42 76.7956 127.42H86.6924C87.1011 127.42 87.4324 127.091 87.4324 126.685V126.275C87.4324 126.275 87.9219 125.045 86.914 123.528C86.914 123.528 85.6612 124.716 83.7892 122.855L83.2372 121.861L79.2413 124.766L77.0264 125.037C76.5419 125.096 76.1122 125.027 75.863 125.445H75.8629Z" fill="#212529"/>
<path d="M69.6958 21.4679C69.0087 20.9365 68.2956 20.373 67.9403 19.583C67.5851 18.7931 67.7269 17.7097 68.481 17.2773C69.4963 16.6951 70.8274 17.5897 71.9336 17.2044C72.6848 16.9427 73.1085 16.177 73.517 15.4981C73.9254 14.8192 74.4997 14.1026 75.2949 14.0677C76.3213 14.0228 77.0374 15.1239 78.0362 15.3633C79.156 15.6316 80.2756 14.7559 81.4206 14.8805C82.4715 14.9949 83.2901 16.0084 83.3422 17.0577C83.3943 18.1071 82.7829 19.1197 81.9219 19.7294C80.7464 20.5616 79.2276 20.6981 77.7886 20.8071L69.6887 21.4203" fill="#CED4DA"/>
<path d="M73.2953 16.5748C77.3305 16.5748 80.6017 13.3239 80.6017 9.31376C80.6017 5.30361 77.3305 2.05273 73.2953 2.05273C69.2602 2.05273 65.989 5.30361 65.989 9.31376C65.989 13.3239 69.2602 16.5748 73.2953 16.5748Z" fill="#A0616A"/>
<path d="M77.2008 11.179L79.4447 14.0321C79.4447 14.0321 82.7537 8.61473 80.223 5.01546C80.223 5.01546 79.0178 3.82 79.1123 2.87211C79.2068 1.92422 77.0714 0.397896 75.5935 0.731008C74.1155 1.06412 74.341 0.00948297 74.341 0.00948297L72.8277 0.698052L71.8137 0L71.0039 0.87747C71.0039 0.87747 66.1286 1.4744 67.133 4.68412C67.133 4.68412 62.7594 6.28762 64.2869 7.87375C65.8143 9.45989 67.7573 9.29221 68.2815 8.86521C68.8056 8.43821 73.2641 8.3985 73.2641 8.3985L73.5285 10.5782L75.5542 9.58111C75.5542 9.58111 77.6636 8.95122 77.2008 11.179V11.179Z" fill="#2F2E41"/>
<path d="M23.0736 46.3348C22.9357 46.3348 22.7978 46.2824 22.6926 46.1778C22.482 45.9687 22.482 45.6295 22.6926 45.4204L29.8525 38.3048C30.3905 37.7701 30.645 37.0331 30.5506 36.2828L30.1975 33.4753C30.1605 33.1817 30.37 32.914 30.6654 32.8774C30.9618 32.8398 31.23 33.049 31.2669 33.3424L31.6201 36.1499C31.7562 37.2307 31.3896 38.2922 30.6146 39.0623L23.4547 46.1778C23.3495 46.2824 23.2115 46.3348 23.0736 46.3348V46.3348Z" fill="#343A40"/>
<path d="M31.7449 30.6007L25.5488 31.2812L25.9793 35.1518L32.1753 34.4712L31.7449 30.6007Z" fill="#343A40"/>
<path d="M26.8139 32.5234H20.5801V34.4705H26.8139V32.5234Z" fill="#343A40"/>
<path d="M22.8728 34.0357L17.7491 35.8566C16.6949 36.2343 15.5296 35.6962 15.1352 34.6522L8.32612 36.6084C8.06079 36.6904 7.78828 36.7296 7.52654 36.7367C7.24329 36.751 6.98153 36.7866 6.73771 36.8329C5.55088 37.0503 5.53184 37.0282 5.31313 35.6171C5.30954 35.5886 4.24241 32.4319 4.23523 32.4034C4.08464 31.3736 4.09154 31.1137 4.88397 30.8002C5.24253 30.6612 5.66562 30.5293 6.10664 30.3476C6.14969 30.3262 6.19272 30.3084 6.23933 30.2906L13.0017 27.8212V26.8805H11.8221L11.1085 25.2271L17.4299 22.3942C18.0933 22.0949 18.8391 22.0307 19.5454 22.2053C20.0904 22.3407 20.5817 22.6115 20.9761 22.9821C21.3741 23.3527 21.6753 23.8195 21.8474 24.3505L22.0195 24.8921L23.7692 30.344L24.1386 31.495C24.4756 32.5426 23.9163 33.6651 22.8728 34.0357L22.8728 34.0357Z" fill="#212529"/>
<path d="M64.1052 64.6699L66.7535 118.102L72.9514 117.834L77.1424 76.5204L81.8441 118.102L87.2336 117.566L90.9638 67.2285L64.1052 64.6699Z" fill="#343A40"/>
<path d="M80.8688 17.3359C76.5573 17.7697 72.9258 18.8009 70.1639 18.8173L63.2532 22.1839L64.5709 45.8058L63.9029 65.0562C63.9029 65.0562 75.1776 67.8351 82.4948 69.0471C89.812 70.2591 91.4584 69.0471 91.4584 69.0471L87.6151 52.112L86.2792 19.2534L80.8688 17.3359Z" fill="#CED4DA"/>
<path d="M92.7905 50.2613L92.9603 37.12L87.8844 35.7324L88.0379 50.2633L86.8701 61.001L86.9004 61.0122C86.4109 61.5015 86.0136 62.2824 85.8445 63.2055C85.5359 64.89 86.1016 66.4032 87.108 66.5853C88.1144 66.7674 89.1804 65.5495 89.489 63.865C89.6157 63.1735 89.5931 62.5127 89.4551 61.9592L89.5003 61.976L92.7905 50.2613Z" fill="#A0616A"/>
<path d="M52.5204 50.9469L63.8871 44.2299L62.4279 39.2031L50.0374 46.9196L40.2125 51.5358L40.2187 51.5674C39.5433 51.4079 38.6656 51.4789 37.7851 51.8175C36.1784 52.4353 35.1751 53.7048 35.5442 54.6529C35.9134 55.601 37.5152 55.8687 39.1219 55.2508C39.7815 54.9972 40.3368 54.6331 40.7397 54.2271L40.749 54.2742L52.5204 50.9469Z" fill="#A0616A"/>
<path d="M83.5589 19.3696C83.5589 19.3696 85.8625 17.6189 87.4885 20.1776C89.1146 22.7362 93.5862 35.664 93.5862 35.664C93.5862 35.664 94.8794 41.5892 94.5716 42.4645C94.2638 43.3399 93.8572 51.0438 93.8572 51.0438L87.504 49.8987L87.6576 42.4645L81.6035 32.8609L83.5589 19.3696Z" fill="#CED4DA"/>
<path d="M65.0825 22.251C65.0825 22.251 60.6109 21.9499 60.0689 24.8611C59.5269 27.7723 56.1392 41.3734 56.1392 41.3734L49.093 45.8173L52.049 52.04C52.049 52.04 53.8357 50.7999 55.3262 50.7999C56.8168 50.7999 60.0689 48.5281 60.0689 48.5281C60.0689 48.5281 65.9068 43.4292 65.9068 42.4866C65.9068 41.5439 65.0825 22.251 65.0825 22.251H65.0825Z" fill="#CED4DA"/>
<path d="M27.6693 41.0677L25.7881 42.8145L46.0641 64.3819L47.9453 62.6351L27.6693 41.0677Z" fill="#343A40"/>
<path d="M13.5258 24.956C14.0954 24.7293 14.4461 24.2701 14.3092 23.9305C14.1723 23.5909 13.5996 23.4994 13.0301 23.7262C12.4605 23.9529 12.1098 24.412 12.2467 24.7517C12.3835 25.0913 12.9562 25.1828 13.5258 24.956Z" fill="#A9944E"/>
<path d="M70.4036 19.277C70.1769 19.3355 69.9929 19.5216 69.936 19.7474C69.9094 19.8532 69.9084 19.9558 69.9282 20.0507C70.0855 20.8085 70.2485 21.5651 70.2485 22.3389V35.5813C70.2485 35.7292 70.3692 35.8491 70.518 35.8491H70.647C70.7958 35.8491 70.9165 35.7292 70.9165 35.5813V22.7814C70.9165 21.8516 71.0967 20.9389 71.2424 20.0205C71.2477 19.9871 71.2504 19.9527 71.2504 19.9177C71.2504 19.4933 70.8496 19.1619 70.4036 19.277H70.4036Z" fill="#032C17"/>
<path d="M78.4191 18.2809C78.1924 18.3393 78.0083 18.5253 77.9515 18.7511C77.9248 18.857 77.9238 18.9596 77.9435 19.0546C78.1008 19.8127 78.2639 20.5697 78.2639 21.3439V34.2533C78.2639 34.4012 78.3845 34.5211 78.5334 34.5211H78.6624C78.8112 34.5211 78.9318 34.4012 78.9318 34.2533V21.7852C78.9318 20.8554 79.1121 19.9428 79.2578 19.0244C79.2631 18.991 79.2658 18.9566 79.2658 18.9216C79.2658 18.4972 78.865 18.1658 78.4191 18.2809V18.2809Z" fill="#032C17"/>
<path d="M23.848 122.919C23.2913 122.954 22.9836 122.267 23.4048 121.866L23.4467 121.701C23.4412 121.687 23.4357 121.674 23.4301 121.661C22.8658 120.324 21.8553 121.586 20.3992 121.676C18.2576 121.808 18.2896 123.418 19.1192 125.3C19.3444 125.811 17.4326 121.688 17.4326 118.92C17.4326 118.225 17.4709 117.53 17.5492 116.836C17.6137 116.269 17.7024 115.705 17.8173 115.146C18.4386 112.126 19.7841 109.25 21.7247 106.847C22.6576 106.34 23.4356 105.548 23.9056 104.598C24.0744 104.256 25.5249 103.967 25.5876 103.591C25.4814 103.605 23.869 101.919 23.9491 101.82C23.8011 101.597 23.5363 101.486 23.3747 101.269C22.5711 100.186 21.4638 100.375 20.8858 101.846C19.651 102.466 19.639 103.493 20.3967 104.481C20.8787 105.109 20.945 105.96 21.3679 106.633C21.3244 106.688 21.2791 106.742 21.2356 106.797C21.2189 106.818 21.2022 106.84 21.1856 106.861C20.5029 107.739 19.1398 107.514 18.7596 106.471C18.7319 106.395 18.4965 110.516 18.6736 106.25C18.8507 101.984 17.3068 104.156 16.5252 103.172C15.5917 101.997 13.6926 102.531 13.5281 104.02C13.5265 104.034 13.525 104.048 13.5235 104.062C13.639 104.127 13.7523 104.196 13.8629 104.269C14.4933 104.683 14.2752 105.654 13.5282 105.769L13.5113 105.771C13.5531 106.185 13.6244 106.595 13.7288 106.998C12.7315 110.83 14.8839 112.227 17.9578 112.29L18.1179 112.517C17.8269 113.349 17.5927 114.202 17.417 115.065C17.2516 115.866 17.1367 116.675 17.0724 117.488L17.0697 117.523C17.0164 118.215 16.1359 118.509 15.6933 117.972C15.5807 117.836 15.4654 117.716 15.3492 117.621C14.0165 116.533 12.1336 116.133 10.6959 115.258C10.0038 114.837 9.11691 115.381 9.2377 116.179L9.24358 116.217C9.45765 116.303 9.66651 116.404 9.86841 116.516C9.98409 116.581 10.0974 116.65 10.2081 116.723C10.8386 117.137 10.6203 118.109 9.87314 118.223L9.85621 118.225C9.84403 118.227 9.83359 118.229 9.82142 118.23L9.83248 118.256C10.3132 119.38 11.4621 120.108 12.689 120.041C14.1332 119.963 15.927 121.163 17.5092 123.285L17.511 123.285C17.8242 124.641 18.282 125.966 18.8703 127.228H23.7263C23.7437 127.175 23.7594 127.119 23.775 127.066C23.326 127.093 22.8734 127.067 22.4314 126.986C22.7916 126.547 23.1519 126.104 23.5122 125.665C23.5209 125.656 23.5279 125.647 23.5348 125.639C23.7176 125.414 23.9021 125.191 24.0848 124.966L24.0849 124.966C24.0964 124.275 24.0131 123.587 23.8481 122.92L23.848 122.919H23.848Z" fill="#09421A"/>
<path d="M0 127.682C0 127.859 0.14283 128.001 0.320691 128.001H97.6793C97.8572 128.001 98 127.859 98 127.682C98 127.505 97.8572 127.363 97.6793 127.363H0.320691C0.14283 127.363 0 127.505 0 127.682Z" fill="#362406"/>
<path d="M7.27891 34.72C7.27891 35.484 7.08339 36.2038 6.73678 36.8353C5.55027 37.0517 4.83038 37.458 4.61263 36.0448C4.60819 36.0183 3.72832 32.5383 3.72387 32.5118C3.57277 31.4828 4.09272 31.1163 4.8837 30.8027C6.30572 31.5358 7.27891 33.0153 7.27891 34.72Z" fill="#495057"/>
<path d="M23.7693 30.3445L22.5072 30.6296C21.8187 30.7828 21.1303 30.3552 20.9761 29.6675L20.2734 26.5923C20.1156 25.9046 20.5495 25.224 21.2415 25.0672L22.0195 24.8926L23.7693 30.3445H23.7693Z" fill="#09421A"/>
</g>
<defs>
<clipPath id="clip0_993_8868">
<rect width="98" height="128" fill="white"/>
</clipPath>
</defs>
</svg>
