<svg width="526" height="369" viewBox="0 0 526 369" fill="none" xmlns="http://www.w3.org/2000/svg">
<g clip-path="url(#clip0_859_9773)">
<path d="M274.062 206.402H237.802V207.572H243.457V218.681H244.627V207.572H266.653V218.681H267.822V207.572H274.062V206.402Z" fill="#362406"/>
<path d="M287.514 177.752H278.156V187.107H282.494V218.629H283.664V187.107H287.514V177.752Z" fill="#495057"/>
<path d="M274.134 202.904H237.873V204.074H274.134V202.904Z" fill="#362406"/>
<path d="M274.134 199.98H237.873V201.15H274.134V199.98Z" fill="#362406"/>
<path d="M274.134 197.057H237.873V198.226H274.134V197.057Z" fill="#362406"/>
<path d="M367.054 222.052H365.884C365.884 166.598 320.757 121.484 265.289 121.484C209.821 121.484 164.695 166.598 164.695 222.052H163.525C163.525 165.954 209.177 120.314 265.289 120.314C321.403 120.314 367.054 165.954 367.054 222.052Z" fill="#032C17"/>
<path d="M96.1232 191.196C148.934 191.196 191.746 148.395 191.746 95.5979C191.746 42.8007 148.934 0 96.1232 0C43.3119 0 0.5 42.8007 0.5 95.5979C0.5 148.395 43.3119 191.196 96.1232 191.196Z" fill="#125D1B"/>
<path opacity="0.2" d="M167.254 31.7461C176.173 52.6049 177.383 75.9548 170.667 97.6234C163.952 119.292 149.748 137.867 130.594 150.03C111.44 162.192 88.5845 167.15 66.1112 164.016C43.6378 160.883 23.0112 149.862 7.91724 132.924C13.3659 145.668 21.5209 157.075 31.8171 166.355C42.1133 175.636 54.3046 182.567 67.5463 186.669C80.788 190.771 94.7635 191.946 108.505 190.113C122.246 188.279 135.424 183.481 147.125 176.05C158.827 168.619 168.773 158.734 176.275 147.079C183.776 135.424 188.653 122.278 190.567 108.551C192.482 94.8249 191.389 80.8464 187.363 67.5844C183.337 54.3223 176.476 42.0938 167.254 31.7461Z" fill="#032C17"/>
<path d="M96.3857 95.5977H96.6483L101.377 366.634H91.3945L96.3857 95.5977Z" fill="#362406"/>
<path d="M113.797 243.23L111.594 239.047L95.7874 247.367L97.9903 251.55L113.797 243.23Z" fill="#362406"/>
<path d="M448.105 213.53C490.849 213.53 525.5 178.888 525.5 136.155C525.5 93.4229 490.849 58.7812 448.105 58.7812C405.361 58.7812 370.711 93.4229 370.711 136.155C370.711 178.888 405.361 213.53 448.105 213.53Z" fill="#125D1B"/>
<path opacity="0.2" d="M505.676 84.4766C512.896 101.359 513.875 120.258 508.439 137.796C503.004 155.334 491.508 170.368 476.005 180.212C460.503 190.056 442.004 194.068 423.815 191.532C405.625 188.996 388.931 180.076 376.714 166.367C381.124 176.682 387.725 185.914 396.058 193.425C404.391 200.937 414.259 206.547 424.976 209.867C435.694 213.187 447.005 214.138 458.127 212.654C469.248 211.17 479.914 207.286 489.385 201.272C498.856 195.258 506.907 187.257 512.978 177.824C519.049 168.39 522.996 157.75 524.546 146.64C526.095 135.531 525.21 124.217 521.952 113.483C518.694 102.749 513.141 92.8517 505.676 84.4766Z" fill="#032C17"/>
<path d="M448.318 136.156H448.531L452.358 355.525H444.278L448.318 136.156Z" fill="#362406"/>
<path d="M462.41 255.645L460.627 252.26L447.834 258.994L449.617 262.379L462.41 255.645Z" fill="#362406"/>
<path d="M219.721 202.785C226.45 202.785 231.905 197.331 231.905 190.604C231.905 183.877 226.45 178.424 219.721 178.424C212.992 178.424 207.537 183.877 207.537 190.604C207.537 197.331 212.992 202.785 219.721 202.785Z" fill="#125D1B"/>
<path opacity="0.2" d="M228.784 182.469C229.921 185.126 230.075 188.102 229.219 190.862C228.363 193.623 226.554 195.99 224.113 197.54C221.673 199.089 218.761 199.721 215.897 199.322C213.034 198.923 210.406 197.518 208.482 195.36C209.177 196.984 210.216 198.437 211.528 199.62C212.839 200.802 214.393 201.685 216.08 202.208C217.767 202.731 219.548 202.88 221.299 202.647C223.049 202.413 224.729 201.802 226.219 200.855C227.71 199.908 228.978 198.649 229.933 197.164C230.889 195.679 231.511 194.004 231.755 192.255C231.999 190.506 231.859 188.725 231.346 187.035C230.833 185.345 229.959 183.787 228.784 182.469Z" fill="#032C17"/>
<path d="M219.755 190.604H219.788L220.39 225.137H219.119L219.755 190.604Z" fill="#362406"/>
<path d="M221.973 209.414L221.692 208.881L219.678 209.941L219.959 210.474L221.973 209.414Z" fill="#362406"/>
<path d="M332.305 182.528C349.531 182.528 363.496 168.567 363.496 151.345C363.496 134.123 349.531 120.162 332.305 120.162C315.078 120.162 301.114 134.123 301.114 151.345C301.114 168.567 315.078 182.528 332.305 182.528Z" fill="#125D1B"/>
<path opacity="0.2" d="M355.507 130.518C358.417 137.322 358.811 144.938 356.621 152.006C354.43 159.074 349.797 165.133 343.549 169.101C337.301 173.068 329.846 174.685 322.515 173.663C315.185 172.641 308.456 169.046 303.533 163.521C305.31 167.678 307.97 171.399 311.329 174.426C314.687 177.453 318.664 179.714 322.983 181.052C327.303 182.39 331.861 182.773 336.344 182.175C340.826 181.577 345.124 180.012 348.941 177.588C352.759 175.164 356.003 171.94 358.45 168.138C360.896 164.336 362.487 160.048 363.112 155.571C363.736 151.093 363.38 146.534 362.067 142.208C360.753 137.882 358.515 133.893 355.507 130.518Z" fill="#032C17"/>
<path d="M332.391 151.346H332.476L334.019 239.755H330.762L332.391 151.346Z" fill="#362406"/>
<path d="M338.07 199.501L337.351 198.137L332.195 200.851L332.914 202.215L338.07 199.501Z" fill="#362406"/>
<path d="M117.56 353.141C117.56 353.141 117.963 344.68 126.243 345.664L117.56 353.141Z" fill="#3E9D41"/>
<path d="M115.22 345.09C117.509 345.09 119.364 343.235 119.364 340.947C119.364 338.659 117.509 336.805 115.22 336.805C112.932 336.805 111.076 338.659 111.076 340.947C111.076 343.235 112.932 345.09 115.22 345.09Z" fill="#125D1B"/>
<path d="M115.716 347.924H114.546V356.11H115.716V347.924Z" fill="#362406"/>
<path d="M146.802 333.846C146.802 333.846 147.206 325.385 155.486 326.369L146.802 333.846Z" fill="#3E9D41"/>
<path d="M144.463 325.795C146.751 325.795 148.606 323.94 148.606 321.653C148.606 319.365 146.751 317.51 144.463 317.51C142.174 317.51 140.319 319.365 140.319 321.653C140.319 323.94 142.174 325.795 144.463 325.795Z" fill="#125D1B"/>
<path d="M144.958 328.629H143.789V336.815H144.958V328.629Z" fill="#362406"/>
<path d="M234.95 268.387C234.95 268.387 235.271 261.667 241.847 262.448L234.95 268.387Z" fill="#3E9D41"/>
<path d="M233.092 261.991C234.91 261.991 236.384 260.518 236.384 258.701C236.384 256.883 234.91 255.41 233.092 255.41C231.275 255.41 229.801 256.883 229.801 258.701C229.801 260.518 231.275 261.991 233.092 261.991Z" fill="#125D1B"/>
<path d="M233.486 264.242H232.557V270.744H233.486V264.242Z" fill="#362406"/>
<path d="M363.618 247.338C363.618 247.338 363.938 240.618 370.514 241.399L363.618 247.338Z" fill="#3E9D41"/>
<path d="M361.76 240.942C363.577 240.942 365.051 239.469 365.051 237.652C365.051 235.834 363.577 234.361 361.76 234.361C359.942 234.361 358.469 235.834 358.469 237.652C358.469 239.469 359.942 240.942 361.76 240.942Z" fill="#125D1B"/>
<path d="M362.153 243.193H361.224V249.695H362.153V243.193Z" fill="#362406"/>
<path d="M240.799 285.928C240.799 285.928 241.12 279.208 247.696 279.989L240.799 285.928Z" fill="#3E9D41"/>
<path d="M238.941 279.532C240.759 279.532 242.232 278.059 242.232 276.242C242.232 274.424 240.759 272.951 238.941 272.951C237.123 272.951 235.65 274.424 235.65 276.242C235.65 278.059 237.123 279.532 238.941 279.532Z" fill="#125D1B"/>
<path d="M239.334 281.783H238.405V288.285H239.334V281.783Z" fill="#362406"/>
<path d="M226.763 298.791C226.763 298.791 227.083 292.071 233.659 292.852L226.763 298.791Z" fill="#3E9D41"/>
<path d="M224.904 292.395C226.722 292.395 228.196 290.922 228.196 289.105C228.196 287.288 226.722 285.814 224.904 285.814C223.087 285.814 221.613 287.288 221.613 289.105C221.613 290.922 223.087 292.395 224.904 292.395Z" fill="#125D1B"/>
<path d="M225.298 294.646H224.369V301.148H225.298V294.646Z" fill="#362406"/>
<path d="M383.503 258.447C383.503 258.447 383.823 251.727 390.399 252.508L383.503 258.447Z" fill="#3E9D41"/>
<path d="M381.645 252.051C383.462 252.051 384.936 250.578 384.936 248.761C384.936 246.944 383.462 245.471 381.645 245.471C379.827 245.471 378.353 246.944 378.353 248.761C378.353 250.578 379.827 252.051 381.645 252.051Z" fill="#125D1B"/>
<path d="M382.038 254.303H381.109V260.804H382.038V254.303Z" fill="#362406"/>
<path d="M194.011 273.064C194.011 273.064 194.332 266.345 200.908 267.126L194.011 273.064Z" fill="#3E9D41"/>
<path d="M192.153 266.669C193.97 266.669 195.444 265.195 195.444 263.378C195.444 261.561 193.97 260.088 192.153 260.088C190.335 260.088 188.862 261.561 188.862 263.378C188.862 265.195 190.335 266.669 192.153 266.669Z" fill="#125D1B"/>
<path d="M192.546 268.92H191.617V275.421H192.546V268.92Z" fill="#362406"/>
<path d="M346.072 239.736C346.072 239.736 346.393 233.016 352.969 233.798L346.072 239.736Z" fill="#3E9D41"/>
<path d="M344.214 233.342C346.032 233.342 347.505 231.869 347.505 230.052C347.505 228.235 346.032 226.762 344.214 226.762C342.396 226.762 340.923 228.235 340.923 230.052C340.923 231.869 342.396 233.342 344.214 233.342Z" fill="#125D1B"/>
<path d="M344.608 235.592H343.679V242.093H344.608V235.592Z" fill="#362406"/>
<path d="M66.6775 354.894C66.6775 354.894 67.0814 346.434 75.3608 347.417L66.6775 354.894Z" fill="#3E9D41"/>
<path d="M64.3382 346.844C66.6267 346.844 68.482 344.989 68.482 342.701C68.482 340.413 66.6267 338.559 64.3382 338.559C62.0496 338.559 60.1943 340.413 60.1943 342.701C60.1943 344.989 62.0496 346.844 64.3382 346.844Z" fill="#125D1B"/>
<path d="M64.8335 349.678H63.6638V357.864H64.8335V349.678Z" fill="#362406"/>
<path d="M469.64 352.557C469.64 352.557 470.044 344.096 478.323 345.08L469.64 352.557Z" fill="#3E9D41"/>
<path d="M467.301 344.506C469.589 344.506 471.444 342.651 471.444 340.363C471.444 338.075 469.589 336.221 467.301 336.221C465.012 336.221 463.157 338.075 463.157 340.363C463.157 342.651 465.012 344.506 467.301 344.506Z" fill="#125D1B"/>
<path d="M467.796 347.338H466.626V355.524H467.796V347.338Z" fill="#362406"/>
<path d="M435.719 332.678C435.719 332.678 436.123 324.217 444.402 325.201L435.719 332.678Z" fill="#3E9D41"/>
<path d="M433.379 324.625C435.668 324.625 437.523 322.771 437.523 320.483C437.523 318.195 435.668 316.34 433.379 316.34C431.091 316.34 429.235 318.195 429.235 320.483C429.235 322.771 431.091 324.625 433.379 324.625Z" fill="#125D1B"/>
<path d="M433.875 327.459H432.705V335.645H433.875V327.459Z" fill="#362406"/>
<path d="M431.04 362.496C431.04 362.496 431.444 354.036 439.723 355.019L431.04 362.496Z" fill="#3E9D41"/>
<path d="M428.7 354.446C430.989 354.446 432.844 352.591 432.844 350.303C432.844 348.015 430.989 346.16 428.7 346.16C426.412 346.16 424.557 348.015 424.557 350.303C424.557 352.591 426.412 354.446 428.7 354.446Z" fill="#125D1B"/>
<path d="M429.196 357.279H428.026V365.465H429.196V357.279Z" fill="#362406"/>
<path d="M73.4102 368.81C73.4102 368.81 257.638 320.28 255.884 270.581C252.667 256.84 230.443 253.332 230.443 253.332C230.443 253.332 177.806 246.316 206.464 229.36C235.121 212.403 313.492 216.496 313.492 216.496C313.492 216.496 232.782 229.36 268.458 236.376C297.116 238.13 333.961 245.731 333.961 245.731C333.961 245.731 408.822 261.518 419.35 300.108C429.877 338.698 421.104 368.518 421.104 368.518L73.4102 368.81Z" fill="#ADB5BD" fill-opacity="0.5"/>
<path d="M274.066 368.999L273.376 368.035C274.351 367.339 275.311 366.646 276.256 365.957L276.954 366.915C276.005 367.605 275.042 368.3 274.066 368.999Z" fill="white"/>
<path d="M282.665 362.677L281.95 361.732C283.865 360.282 285.751 358.824 287.556 357.397L288.291 358.326C286.48 359.758 284.587 361.222 282.665 362.677ZM293.821 353.849L293.064 352.937C294.917 351.398 296.73 349.85 298.451 348.339L299.234 349.229C297.504 350.748 295.683 352.302 293.821 353.849ZM304.507 344.447L303.696 343.582C305.465 341.924 307.171 340.263 308.766 338.646L309.609 339.478C308.004 341.105 306.287 342.778 304.507 344.447ZM314.498 334.291L313.616 333.5C315.241 331.69 316.778 329.877 318.185 328.113L319.112 328.851C317.691 330.633 316.139 332.464 314.498 334.291ZM323.36 323.113L322.381 322.445C323.759 320.426 325.002 318.411 326.075 316.456L327.115 317.026C326.023 319.015 324.759 321.063 323.36 323.113ZM330.175 310.544L329.072 310.111C329.932 307.943 330.605 305.705 331.084 303.422L332.245 303.661C331.752 306.01 331.06 308.313 330.175 310.544V310.544ZM331.757 296.505C331.722 294.201 331.402 291.911 330.804 289.687L331.949 289.378C332.572 291.697 332.906 294.084 332.943 296.485L331.757 296.505ZM328.212 283.291C327.086 281.258 325.765 279.341 324.267 277.565L325.175 276.805C326.723 278.64 328.088 280.621 329.251 282.721L328.212 283.291ZM319.369 272.564C317.608 271.013 315.763 269.56 313.842 268.211L314.526 267.243C316.483 268.617 318.362 270.097 320.155 271.678L319.369 272.564ZM307.903 264.397C305.964 263.258 303.872 262.121 301.688 261.018L302.221 259.96C304.429 261.074 306.543 262.223 308.503 263.375L307.903 264.397ZM295.281 257.99C293.218 257.073 291.021 256.151 288.75 255.248L289.188 254.147C291.473 255.056 293.685 255.984 295.763 256.907L295.281 257.99ZM282.104 252.729C279.992 251.964 277.734 251.178 275.394 250.394L275.771 249.27C278.12 250.058 280.387 250.846 282.508 251.615L282.104 252.729ZM268.632 248.199C266.567 247.547 264.343 246.862 261.834 246.102L262.178 244.968C264.691 245.729 266.919 246.416 268.989 247.068L268.632 248.199ZM255.014 244.055C252.616 243.338 250.33 242.653 248.19 241.994L248.539 240.862C250.676 241.521 252.959 242.204 255.354 242.92L255.014 244.055ZM241.393 239.797C239.113 239.045 236.883 238.147 234.717 237.11L235.25 236.052C237.369 237.065 239.55 237.942 241.781 238.677L241.393 239.797ZM232.442 232.029L231.597 231.198C232.678 230.101 234.815 229.027 238.131 227.915L238.508 229.039C235.417 230.075 233.376 231.082 232.442 232.029L232.442 232.029ZM245.289 227.108L245.002 225.958C247.052 225.448 249.388 224.914 251.943 224.371L252.189 225.53C249.647 226.07 247.325 226.601 245.289 227.108V227.108ZM259.139 224.135L258.916 222.971C261.1 222.554 263.452 222.121 265.908 221.686L266.115 222.853C263.664 223.287 261.318 223.718 259.139 224.135V224.135ZM273.107 221.649L272.911 220.481C275.144 220.106 277.482 219.723 279.923 219.332L280.11 220.502C277.671 220.893 275.337 221.276 273.107 221.649Z" fill="white"/>
<path d="M287.257 219.377L287.075 218.206C288.228 218.028 289.4 217.848 290.593 217.666L290.771 218.837C289.579 219.019 288.408 219.199 287.257 219.377Z" fill="white"/>
<path d="M313.489 99.0157L318.873 94.7107C314.691 94.2494 312.972 96.5298 312.269 98.3349C309.001 96.9784 305.444 98.7561 305.444 98.7561L316.216 102.666C315.673 101.215 314.727 99.9484 313.489 99.0157Z" fill="#715C20"/>
<path d="M213.48 132.342L218.864 128.037C214.681 127.576 212.963 129.856 212.259 131.661C208.992 130.305 205.435 132.082 205.435 132.082L216.207 135.992C215.663 134.541 214.717 133.275 213.48 132.342Z" fill="#715C20"/>
<path d="M239.798 63.3477L245.182 59.0427C240.999 58.5814 239.281 60.8619 238.577 62.6669C235.31 61.3104 231.753 63.0881 231.753 63.0881L242.525 66.9978C241.982 65.5467 241.036 64.2805 239.798 63.3477Z" fill="#715C20"/>
<path d="M298.327 255.029C298.327 255.029 293.663 255.029 293.145 257.878C292.627 260.727 291.85 291.808 292.368 295.693C292.886 299.578 292.886 298.801 292.886 298.801C292.886 298.801 291.853 306.184 294.183 306.507C296.513 306.83 296.513 298.024 296.513 298.024L298.327 266.425V255.029Z" fill="#FFB8B8"/>
<path d="M318.534 255.029C318.534 255.029 323.197 255.029 323.716 257.878C324.234 260.727 325.011 291.808 324.493 295.693C323.975 299.578 323.975 298.801 323.975 298.801C323.975 298.801 325.008 306.184 322.678 306.507C320.348 306.83 320.348 298.024 320.348 298.024L318.534 266.425V255.029Z" fill="#FFB8B8"/>
<path d="M297.549 363.293H295.477C294.864 363.293 294.258 363.414 293.692 363.648C293.126 363.882 292.612 364.226 292.179 364.659C291.746 365.091 291.403 365.605 291.168 366.171C290.934 366.737 290.813 367.343 290.813 367.955V367.955H303.508V361.998H297.549V363.293Z" fill="#212529"/>
<path d="M317.498 363.293H319.571C320.807 363.293 321.994 363.784 322.868 364.659C323.743 365.533 324.234 366.719 324.234 367.955V367.955H311.539V361.998H317.498V363.293Z" fill="#212529"/>
<path d="M306.358 249.072C310.078 249.072 313.094 246.057 313.094 242.338C313.094 238.618 310.078 235.604 306.358 235.604C302.638 235.604 299.622 238.618 299.622 242.338C299.622 246.057 302.638 249.072 306.358 249.072Z" fill="#FFB8B8"/>
<path d="M304.803 245.964C304.803 245.964 304.026 254.511 302.99 255.288C301.954 256.065 313.871 254.77 313.871 254.77C313.871 254.77 309.726 248.554 310.503 246.482C311.28 244.41 304.803 245.964 304.803 245.964Z" fill="#FFB8B8"/>
<path d="M320.089 255.028C320.089 255.028 305.84 249.071 296.513 255.028C296.513 255.028 294.181 260.986 295.995 264.353C297.808 267.72 300.658 275.749 297.808 281.188C294.959 286.627 298.067 284.296 298.067 284.296C298.067 284.296 294.44 298.8 293.922 310.196C293.404 321.593 295.477 362.515 297.031 362.774C298.586 363.033 303.508 363.551 304.026 362.774C304.544 361.997 308.171 307.865 308.171 307.865C308.171 307.865 309.726 363.292 311.28 363.292C312.835 363.292 316.98 363.293 317.757 361.997C318.534 360.702 325.011 310.714 322.679 300.354C320.348 289.994 318.793 284.814 318.793 284.814C318.793 284.814 321.643 283.001 320.866 281.965C320.089 280.929 316.203 269.792 318.016 267.979C319.83 266.166 320.089 255.028 320.089 255.028Z" fill="#362406"/>
<path d="M310.633 249.157C316.642 249.157 321.514 244.286 321.514 238.279C321.514 232.271 316.642 227.4 310.633 227.4C304.623 227.4 299.751 232.271 299.751 238.279C299.751 244.286 304.623 249.157 310.633 249.157Z" fill="#212529"/>
<path d="M317.427 232.834C315.593 232.403 313.996 231.283 312.966 229.706C311.937 228.129 311.554 226.217 311.897 224.365C311.865 224.477 311.835 224.589 311.808 224.703C311.365 226.594 311.691 228.585 312.715 230.236C313.739 231.887 315.377 233.064 317.268 233.509C319.16 233.953 321.151 233.628 322.803 232.606C324.455 231.583 325.634 229.946 326.08 228.055C326.106 227.941 326.13 227.828 326.151 227.714C325.633 229.524 324.438 231.066 322.814 232.019C321.19 232.973 319.261 233.264 317.427 232.834Z" fill="#212529"/>
<path d="M317.87 234.25C320.811 234.25 323.195 231.867 323.195 228.927C323.195 225.987 320.811 223.604 317.87 223.604C314.929 223.604 312.545 225.987 312.545 228.927C312.545 231.867 314.929 234.25 317.87 234.25Z" fill="#212529"/>
</g>
<defs>
<clipPath id="clip0_859_9773">
<rect width="525" height="369" fill="white" transform="translate(0.5)"/>
</clipPath>
</defs>
</svg>
