<svg width="360" height="223" viewBox="0 0 360 223" fill="none" xmlns="http://www.w3.org/2000/svg">
<path d="M295.043 213.25L291.301 212.373L293.564 195.141L299.088 196.434L295.043 213.25Z" fill="#FFB6B6"/>
<path d="M280.267 217.694C280.104 218.321 280.417 218.946 280.968 219.089L288.351 221.003C288.351 221.003 289.836 218.273 293.125 217.786L292.245 222.012L296.054 223L297.336 216.169C297.336 216.169 299.287 212.843 297.648 210.459C296.009 208.075 297.656 208.775 297.656 208.775L297.903 204.406L291.971 203.59L290.235 210.099L285.761 215.846L281.139 216.806C280.727 216.892 280.385 217.24 280.267 217.694H280.267Z" fill="#362406"/>
<path d="M330.923 209.183L327.51 210.95L318.008 196.39L323.046 193.783L330.923 209.183Z" fill="#FFB6B6"/>
<path d="M322.594 222.16C322.879 222.743 323.524 223.013 324.034 222.764L330.889 219.42C330.889 219.42 330.239 216.382 332.42 213.875L334.504 217.657L338.04 215.932L334.566 209.911C334.566 209.911 333.882 206.116 331.085 205.371C328.287 204.625 329.995 204.086 329.995 204.086L327.337 200.607L322.3 203.842L325.22 209.914L325.564 217.187L322.678 220.919C322.421 221.251 322.388 221.739 322.594 222.16L322.594 222.16V222.16Z" fill="#362406"/>
<path d="M130.732 145.178H229.938C231.187 145.178 232.2 144.167 232.2 142.919V2.68107C232.2 1.43335 231.187 0.421875 229.938 0.421875H130.732C129.483 0.421875 128.47 1.43335 128.47 2.68107V142.919C128.47 144.167 129.483 145.178 130.732 145.178Z" fill="#F8F9FA"/>
<path d="M232.622 145.601H128.047V0H232.622V145.601ZM128.893 144.756H231.776V0.845161H128.893V144.756Z" fill="#ADB5BD"/>
<path d="M209.121 23.3242C209.524 23.3242 209.85 23.6502 209.85 24.0523V25.5085C209.85 25.9107 209.524 26.2366 209.121 26.2366H151.549C151.146 26.2366 150.82 25.9107 150.82 25.5085V24.0523C150.82 23.6502 151.146 23.3242 151.549 23.3242H209.121Z" fill="#ADB5BD"/>
<path d="M209.121 30.2402C209.524 30.2402 209.85 30.5662 209.85 30.9683V32.4246C209.85 32.8267 209.524 33.1527 209.121 33.1527H151.549C151.146 33.1527 150.82 32.8267 150.82 32.4246V30.9683C150.82 30.5662 151.146 30.2402 151.549 30.2402H209.121Z" fill="#ADB5BD"/>
<path d="M209.121 37.1562C209.524 37.1562 209.85 37.4822 209.85 37.8844V39.3406C209.85 39.7427 209.524 40.0687 209.121 40.0687H151.549C151.146 40.0687 150.82 39.7427 150.82 39.3406V37.8848C150.82 37.4827 151.146 37.1567 151.549 37.1567H209.121" fill="#032C17"/>
<path d="M315.09 55.3018H334.214C334.186 54.4042 334.377 53.5132 334.77 52.7058C334.781 53.6018 334.978 54.4858 335.349 55.3018H336.218C337.546 55.3004 338.623 54.2248 338.624 52.8975V40.483C338.624 34.4046 333.421 25.2926 327.768 29.1056C327.586 29.0961 324.72 27.8281 324.538 27.8281C319.565 27.8322 317.855 32.3154 316.353 37.0515C314.642 36.2637 313.463 39.5521 312.61 45.3399C312.361 47.0289 312.139 48.9308 311.941 51.0063C311.393 52.7478 312.361 54.6035 314.105 55.1512C314.424 55.2515 314.756 55.3028 315.091 55.3034L315.09 55.3018V55.3018Z" fill="#212529"/>
<path d="M277.562 126.277C276.614 128.522 277.005 130.83 278.435 131.433C279.865 132.036 281.793 130.704 282.741 128.458C283.132 127.566 283.304 126.594 283.242 125.622L287.139 116.058L282.608 114.326L279.245 123.939C278.505 124.573 277.927 125.374 277.561 126.276L277.562 126.277Z" fill="#FFB6B6"/>
<path d="M319.464 51.0996L328.605 53.0098L327.203 57.2114L330.007 89.3484L325.334 99.6961L296.825 97.3616L303.835 83.3547C303.835 83.3547 301.031 71.6831 304.77 69.3478C308.509 67.0125 314.585 55.3409 314.585 55.3409L319.464 51.0996Z" fill="#A9944E"/>
<path d="M312.125 59.9925C312.125 59.9925 306.856 56.6623 304.009 59.1281C301.163 61.594 279.245 121.201 279.245 121.201L285.157 123.767L298.715 95.3688L312.125 59.9925Z" fill="#362406"/>
<path d="M297.031 160.422L291.686 201.474L299.163 201.94C299.163 201.94 303.051 191.342 307.487 178.858C308.431 176.211 309.398 173.48 310.356 170.744C311.394 167.775 312.427 164.806 313.408 161.939C315.833 154.871 317.96 148.437 319.175 144.236C319.385 143.498 319.572 142.831 319.726 142.242C322.996 129.693 324.866 96.897 324.866 96.897L297.76 94.5625L297.471 94.922L291.686 102.144L291.956 103.671L299.163 144.051L297.032 160.424L297.031 160.422Z" fill="#212529"/>
<path d="M299.162 144.052L297.031 160.425L306.616 177.283L307.485 178.861L320.683 202.821L327.202 199.128C327.202 199.128 318.72 179.654 313.406 161.941C312.817 159.994 312.27 158.066 311.78 156.189C310.335 150.694 312.7 140.666 311.775 137.902C308.649 128.574 298.46 109.913 293.731 101.459L291.955 103.672L299.162 144.052Z" fill="#212529"/>
<path d="M327.985 54.8693L336.083 58.1446L333.279 99.229L339.354 134.711L319.726 137.979C319.726 137.979 322.062 59.5452 323.464 58.1446C324.866 56.7439 327.985 54.8672 327.985 54.8672V54.8693V54.8693Z" fill="#362406"/>
<path d="M314.703 54.9902L305.239 58.6134L280.47 130.978L295.425 133.313L302.435 91.2945L314.703 54.9902Z" fill="#362406"/>
<path d="M338.369 133.101C338.609 135.526 340.057 137.368 341.602 137.214C343.147 137.061 344.203 134.971 343.962 132.545C343.879 131.575 343.565 130.639 343.045 129.815L341.895 119.553L337.086 120.194L338.731 130.243C338.383 131.153 338.259 132.133 338.369 133.101Z" fill="#FFB6B6"/>
<path d="M332.811 58.146C332.811 58.146 338.886 56.7453 340.756 60.0136C342.625 63.2819 343.56 126.776 343.56 126.776L337.131 127.243L333.746 95.9638L332.811 58.1473L332.811 58.146Z" fill="#362406"/>
<path d="M325.057 49.9663C330.422 49.9663 334.772 45.6213 334.772 40.2615C334.772 34.9016 330.422 30.5566 325.057 30.5566C319.692 30.5566 315.342 34.9016 315.342 40.2615C315.342 45.6213 319.692 49.9663 325.057 49.9663Z" fill="#FFB6B6"/>
<path d="M328.957 55.3018H333.755C333.998 55.3018 334.206 55.114 334.217 54.8708L334.218 54.844C334.245 54.3369 334.957 54.2516 335.122 54.7317C335.189 54.9249 335.264 55.1151 335.349 55.3018H335.821V40.3399C335.821 37.7737 333.739 35.6934 331.17 35.6934C328.976 35.6934 327.081 37.2239 326.622 39.3663C326.622 39.3663 323.361 43.3613 325.283 45.6073C327.204 47.8534 324.409 49.6816 324.409 49.6816C323.788 52.5741 325.996 55.3018 328.957 55.3018Z" fill="#212529"/>
<path d="M169.887 72.7302C170.964 72.0366 171.191 70.5523 170.438 69.517L166.91 64.6678C166.086 63.534 164.498 63.2821 163.363 64.1052C163.262 64.1781 163.167 64.2583 163.078 64.3452C157.105 67.5353 153.89 72.1941 157.465 77.7013C157.465 78.621 157.532 79.5395 157.666 80.4494C157.724 80.8442 157.857 81.2304 158.082 81.5598C158.752 82.538 159.933 82.897 160.973 82.5585L166.742 80.6858C167.968 80.2879 168.632 78.951 168.179 77.7455C167.594 76.1876 167.835 74.0524 169.887 72.7302Z" fill="#DEE2E6"/>
<path d="M183.581 87.0342C181.921 86.8705 180.503 88.237 180.503 89.9034V94.8754C180.503 95.0042 180.513 95.1329 180.533 95.2602C180.746 96.6457 182.043 97.5961 183.43 97.383C191.516 98.3785 197.042 94.8659 197.374 87.1592C197.427 87.051 197.472 86.9392 197.509 86.8247C197.94 85.493 197.209 84.0644 195.876 83.6339L191.045 82.066C189.379 81.5251 187.647 82.6059 187.355 84.332C187.092 85.8912 186.062 87.2789 183.581 87.0342Z" fill="#ADB5BD"/>
<path d="M153.715 91.8947C155.392 101.837 164.124 105.608 173.232 106.205C173.41 106.232 173.59 106.246 173.77 106.246C175.735 106.247 177.328 104.657 177.329 102.695V94.3808C177.329 92.0553 175.421 90.2442 173.093 90.2207C170.843 90.1981 169.376 89.1342 168.774 87.1811C168.085 84.95 165.632 83.7736 163.409 84.4951L155.812 86.9611C154.828 87.2803 154.032 88.0112 153.63 88.9637C153.231 89.9066 153.262 90.9764 153.715 91.8947Z" fill="#715C20"/>
<path d="M200.515 57.5178C199.113 56.1459 196.863 56.1692 195.49 57.5697C195.368 57.6943 195.255 57.8278 195.152 57.9691L188.402 67.2502C187.539 68.4369 188.033 70.0903 189.382 70.6697C192.541 72.027 192.209 75.0739 191.18 76.9385C190.676 77.8522 191.092 78.9958 192.086 79.3182L203.46 83.0103C205.331 83.6139 207.338 82.5877 207.942 80.7183C208.003 80.5301 208.048 80.3371 208.077 80.1414C208.272 78.8405 208.371 77.5269 208.37 76.2114C210.294 69.0438 207.632 62.287 200.515 57.5178H200.515Z" fill="#032C17"/>
<path d="M180.981 68.2801C182.242 68.9889 183.832 68.6461 184.682 67.4772L186.943 64.3682C187.382 63.7653 187.535 63.0006 187.36 62.2757C187.192 61.5642 186.72 60.9622 186.068 60.6289C180.747 55.8259 174.449 55.5312 169.108 60.6044C168.437 60.9428 167.948 61.5587 167.771 62.2889C167.597 63.0086 167.748 63.7685 168.185 64.3672L170.827 68.0006C171.735 69.2485 173.493 69.575 174.744 68.6705C176.561 67.3561 179.201 67.2788 180.981 68.2801V68.2801Z" fill="#ADB5BD"/>
<path d="M360 222.262H0V222.973H360V222.262Z" fill="#212529"/>
<path d="M151.189 130.912C151.393 130.053 152.346 129.771 153.126 129.803C153.618 129.837 154.107 129.914 154.585 130.034C155.086 130.146 155.582 130.279 156.076 130.419C156.981 130.677 157.877 130.989 158.797 131.19C159.569 131.401 160.381 131.413 161.159 131.225C161.907 131.02 162.496 130.443 162.716 129.699C162.939 128.989 162.618 128.222 161.954 127.882C161.341 127.544 160.569 127.767 160.23 128.381C160.225 128.39 160.221 128.399 160.216 128.408C159.931 129.164 160.155 130.018 160.773 130.538C161.09 130.836 161.437 131.099 161.809 131.324C162.186 131.581 162.606 131.769 163.049 131.879C163.803 132.079 164.599 131.768 165.018 131.111C165.101 130.954 165.151 130.781 165.165 130.604C165.187 130.363 164.81 130.364 164.788 130.604C164.724 131.295 163.914 131.618 163.307 131.543C162.898 131.475 162.508 131.324 162.16 131.098C161.824 130.903 161.506 130.679 161.209 130.428C160.695 129.984 160.214 129.253 160.559 128.559C160.827 128.114 161.407 127.97 161.853 128.238C161.913 128.274 161.968 128.316 162.018 128.364C162.558 128.806 162.462 129.606 162.106 130.13C161.678 130.677 161.018 130.991 160.324 130.979C159.591 130.98 158.863 130.866 158.166 130.64C157.297 130.394 156.437 130.118 155.563 129.886C155.068 129.754 154.568 129.635 154.063 129.543C153.586 129.438 153.096 129.404 152.609 129.442C151.786 129.481 151.075 130.027 150.824 130.81C150.77 131.047 151.134 131.148 151.189 130.912Z" fill="#362406"/>
<path d="M166.129 121.086C166.243 121.086 166.335 121.412 166.335 121.814V123.27C166.335 123.672 166.243 123.998 166.129 123.998H149.857C149.743 123.998 149.651 123.673 149.651 123.27V121.814C149.651 121.412 149.743 121.086 149.857 121.086H166.129Z" fill="#ADB5BD"/>
<path d="M209.644 121.086C209.758 121.086 209.85 121.412 209.85 121.814V123.27C209.85 123.672 209.758 123.998 209.644 123.998H193.372C193.258 123.998 193.166 123.673 193.166 123.27V121.814C193.166 121.412 193.258 121.086 193.372 121.086H209.644Z" fill="#ADB5BD"/>
<path d="M202.399 129.288L199.169 130.355L197.553 130.888C197.057 131.1 196.52 131.198 195.982 131.177C195.584 131.15 195.234 130.903 195.077 130.537C195.008 130.169 195.166 129.797 195.478 129.59C196.249 129.005 197.224 129.601 197.77 130.207C198.438 130.949 198.816 131.907 199.443 132.684C200 133.381 200.707 133.944 201.512 134.332C203.12 135.129 205.038 134.965 206.487 133.908C208.189 132.595 208.363 130.321 208.372 128.337C208.365 128.146 208.205 127.997 208.015 128.004C207.833 128.01 207.688 128.156 207.681 128.337C207.673 130.135 207.571 132.339 205.93 133.465C204.357 134.543 202.292 134.257 200.844 133.108C200.097 132.444 199.477 131.652 199.011 130.769C198.494 129.924 197.853 129.108 196.88 128.78C196.019 128.468 195.058 128.804 194.58 129.583C194.167 130.277 194.396 131.172 195.09 131.584C195.144 131.616 195.199 131.644 195.257 131.669C196.385 132.206 197.675 131.577 198.761 131.218L202.584 129.956C203.004 129.818 202.824 129.151 202.4 129.291L202.399 129.288Z" fill="#032C17"/>
<path d="M58.8613 209.601C58.8192 209.564 58.7867 209.545 58.7648 209.545C58.2378 209.55 57.7683 209.826 57.5095 210.283L51.8354 220.81C51.7056 221.039 51.6419 221.289 51.6441 221.539C51.6463 221.79 51.7144 222.039 51.8481 222.266C52.1155 222.719 64.6468 222.882 64.6468 222.882C65.1737 222.878 66.6201 216.402 58.8613 209.601H58.8613Z" fill="#212529"/>
<path d="M37.1747 220.33L41.4814 220.292L43.3852 203.68L37.0288 203.736L37.1747 220.33Z" fill="#FFB6B6"/>
<path d="M51.9292 220.103C52.0652 220.328 52.1423 221.055 52.1446 221.318C52.1517 222.124 51.503 222.784 50.6957 222.791L37.3581 222.907C36.8074 222.912 36.357 222.47 36.3522 221.92L36.3474 221.365C36.3474 221.365 35.673 219.703 37.0134 217.637C37.0134 217.637 38.7158 219.231 41.2166 216.689L41.9488 215.336L47.3683 219.223L50.3564 219.564C51.0101 219.639 51.5883 219.541 51.9291 220.103H51.9292Z" fill="#495057"/>
<path d="M53.5591 205.988L57.6512 207.33L64.7807 192.201L58.7413 190.221L53.5591 205.988Z" fill="#FFB6B6"/>
<path d="M67.609 210.495C67.6659 210.751 67.5057 211.465 67.4238 211.714C67.1719 212.48 66.3459 212.897 65.5789 212.646L52.9066 208.489C52.3833 208.317 52.0984 207.754 52.2703 207.231L52.4435 206.704C52.4435 206.704 52.3373 204.915 54.2698 203.386C54.2698 203.386 55.3713 205.441 58.5554 203.832L59.6827 202.785L63.5704 208.202L66.2918 209.481C66.8872 209.761 67.4663 209.853 67.6089 210.495L67.609 210.495Z" fill="#495057"/>
<path d="M59.337 109.662L67.9416 137.223L78.029 161.993L62.7389 197.636L54.2313 194.325L61.8456 163.476L48.8296 140.443L42.6785 209.587L35.1957 208.692L25.4663 125.866L26.9922 107.855L59.337 109.662Z" fill="#212529"/>
<path d="M50.5332 46.9078L41.2361 44.666L38.6714 50.7512C38.6714 50.7512 26.1083 52.8713 25.4662 62.4791C25.4662 62.4791 22.9623 75.091 24.5651 78.614C26.1679 82.1371 30.1193 94.5952 30.1193 94.5952C30.1193 94.5952 23.8629 110.117 25.4662 111.076C27.0694 112.035 61.4224 115.533 61.4224 113.611C61.4224 111.69 61.8146 88.8607 61.8146 88.8607L60.4694 54.2725L51.8157 51.0715L50.5332 46.9082V46.9078V46.9078Z" fill="#032C17"/>
<path d="M48.96 45.3607C54.1342 45.3607 58.3287 41.1705 58.3287 36.0017C58.3287 30.8328 54.1342 26.6426 48.96 26.6426C43.7858 26.6426 39.5913 30.8328 39.5913 36.0017C39.5913 41.1705 43.7858 45.3607 48.96 45.3607Z" fill="#FFB6B6"/>
<path d="M42.7563 37.3928C43.504 37.8014 42.7954 39.7537 43.2627 39.9223C43.8029 40.1172 45.7713 37.8773 45.7948 35.3692C45.8019 34.6101 45.6269 34.2457 45.7948 33.3456C46.0144 32.1683 46.689 30.7795 47.314 30.8162C47.6845 30.8379 48.0465 31.361 48.0737 31.8279C48.1117 32.4824 47.4755 32.7402 47.5672 33.0927C47.7421 33.7641 50.4144 34.2268 51.3654 33.0927C52.1109 32.2036 51.5384 30.6432 51.8718 30.5632C52.1175 30.5042 52.3817 31.3633 53.391 32.3339C53.7713 32.6995 54.3368 33.2433 54.6571 33.0927C55.1198 32.875 54.783 31.3424 54.9103 31.3221C55.0156 31.3052 55.0821 32.3825 55.6699 33.3456C56.425 34.583 57.9821 35.5364 58.7084 35.1163C59.1534 34.8589 59.1883 34.1426 59.2148 33.5986C59.2707 32.4525 60.937 29.8158 60.5052 28.59C59.6265 26.095 58.1229 27.8544 57.4423 27.022C56.521 25.8949 55.6949 26.5013 54.1506 25.2513C52.6421 24.0302 52.6285 22.8023 51.6186 22.7218C50.709 22.6494 50.3859 23.6187 49.3397 23.4807C48.4534 23.3638 48.2603 22.6122 47.5672 22.7218C46.9327 22.8222 46.8911 23.4845 46.048 23.7336C45.5097 23.8927 45.3914 23.6628 44.782 23.7336C43.5139 23.8811 42.6626 25.0351 42.5031 25.2513C41.8883 26.0847 42.1271 26.436 41.4903 27.2749C40.9411 27.9983 39.7235 27.6916 39.2659 28.053C37.7705 29.2339 37.1286 31.4108 37.1164 33.8918C37.108 35.6271 37.3348 36.5037 37.8409 38.6938C38.2252 40.3569 40.0035 42.5055 40.9838 43.4636C41.247 43.7207 41.9847 44.4417 42.5031 44.2224C42.9943 44.0146 43.0089 43.0809 43.0095 42.9577C43.0116 42.5337 42.8983 42.0091 41.9967 40.6811C41.0495 39.2862 40.6734 39.1271 40.7306 38.6575C40.8318 37.8275 42.1603 37.0671 42.7563 37.3928L42.7563 37.3928Z" fill="#362406"/>
<path d="M16.2627 130.746C15.9365 133.467 17.0773 135.842 18.8109 136.049C20.5446 136.256 22.2144 134.218 22.5407 131.497C22.6835 130.306 22.5451 129.181 22.199 128.275L23.4367 116.726L17.9992 116.262L17.3562 127.696C16.8058 128.494 16.4055 129.555 16.2627 130.746Z" fill="#FFB6B6"/>
<path d="M31.9197 54.0488C31.9197 54.0488 29.1025 54.0879 27.236 57.7265C26.2441 59.66 19.7968 94.3155 19.7968 94.3155L17.9855 105.276L18.9164 107.089C17.4367 109.35 17.0293 112.147 17.8029 114.736L16.0332 125.444L24.3546 125.489L30.8487 97.4362L36.309 81.1666L31.9197 54.0488V54.0488Z" fill="#032C17"/>
<path d="M74.4337 130.324C74.76 133.045 73.6191 135.42 71.8855 135.627C70.1519 135.835 68.482 133.797 68.1558 131.075C68.013 129.884 68.1513 128.759 68.4974 127.854L67.2598 116.305L72.6973 115.84L73.3402 127.274C73.8906 128.072 74.2909 129.133 74.4337 130.324Z" fill="#FFB6B6"/>
<path d="M58.7766 53.627C58.7766 53.627 61.5937 53.666 63.4603 57.3046C64.4522 59.2381 70.8994 93.8936 70.8994 93.8936L72.7107 104.854L71.7798 106.667C73.2596 108.928 73.667 111.725 72.8934 114.314L74.6631 125.022L66.3416 125.067L59.8476 97.0143L54.3872 80.7448L58.7766 53.627V53.627Z" fill="#032C17"/>
<path d="M313.38 38.8207C313.725 39.3858 315.559 37.3182 318.374 37.0902C319.091 37.0307 320.707 39.7725 322.561 39.8121C323.789 39.8369 324.546 39.827 326.058 39.8121C327.847 39.7923 328.336 39.7527 328.682 39.3164C329.351 38.4687 328.8 36.9617 329.119 36.8377C329.385 36.7336 330.076 37.6656 330.43 38.8207C331.174 41.2448 328.507 44.6208 328.244 47.7439C327.965 51.11 330.719 44.6604 330.43 47.7439C330.107 51.2141 328.948 50.9513 328.961 52.2056C328.966 52.3939 329.014 52.5575 329.119 52.7013C329.211 52.8302 329.302 52.8798 330.868 53.197C332.739 53.5787 333.679 53.7671 333.928 53.6928C334.571 53.5044 335.222 52.4584 335.677 51.7098C336.429 50.4853 335.895 51.7197 335.677 50.2226C335.467 48.775 334.811 48.5867 334.802 47.2482C334.794 45.5627 335.83 45.0521 336.551 43.2823C337.885 40.0104 336.582 36.223 336.114 34.8548C335.889 34.1986 335.482 33.3682 334.768 31.9961C334.194 30.8946 333.433 29.9242 332.505 29.1972C331.114 28.1075 329.499 27.3609 327.752 27.065C326.795 26.903 325.82 26.9881 324.879 27.2443L322.442 27.9082C321.418 28.1872 320.453 28.693 319.601 29.3963C318.808 29.3993 318.12 29.9809 317.848 30.826C317.819 30.9145 317.793 30.966 317.772 30.9585C313.38 29.4017 313.383 34.0126 313.431 36.893C313.436 37.1878 313.427 37.4487 313.393 37.6606V37.6755C313.305 38.2456 313.284 38.662 313.38 38.8207Z" fill="#212529"/>
<path d="M256.286 64.2871H210.047V65.1323H256.286V64.2871Z" fill="#212529"/>
<path d="M265.592 70.1897C262.327 70.1897 259.67 67.5358 259.67 64.2735C259.67 61.0113 262.327 58.3574 265.592 58.3574C268.858 58.3574 271.514 61.0113 271.514 64.2735C271.514 67.5358 268.858 70.1897 265.592 70.1897ZM265.592 59.2026C262.793 59.2026 260.516 61.4775 260.516 64.2735C260.516 67.0696 262.793 69.3445 265.592 69.3445C268.391 69.3445 270.668 67.0696 270.668 64.2735C270.668 61.4775 268.391 59.2026 265.592 59.2026Z" fill="#212529"/>
<path d="M265.592 67.2325C267.228 67.2325 268.554 65.9082 268.554 64.2745C268.554 62.6408 267.228 61.3164 265.592 61.3164C263.957 61.3164 262.631 62.6408 262.631 64.2745C262.631 65.9082 263.957 67.2325 265.592 67.2325Z" fill="#032C17"/>
<path d="M150.662 95.5566H104.423V96.4018H150.662V95.5566Z" fill="#212529"/>
<path d="M89.1948 95.545C89.1948 92.2828 91.8515 89.6289 95.117 89.6289C98.3826 89.6289 101.039 92.2828 101.039 95.545C101.039 98.8072 98.3826 101.461 95.117 101.461C91.8515 101.461 89.1948 98.8072 89.1948 95.545ZM90.0409 95.545C90.0409 98.3411 92.3181 100.616 95.117 100.616C97.916 100.616 100.193 98.3411 100.193 95.545C100.193 92.7489 97.916 90.4741 95.117 90.4741C92.3181 90.4741 90.0409 92.7489 90.0409 95.545Z" fill="#212529"/>
<path d="M95.1174 98.5021C96.7527 98.5021 98.0785 97.1777 98.0785 95.544C98.0785 93.9103 96.7527 92.5859 95.1174 92.5859C93.482 92.5859 92.1562 93.9103 92.1562 95.544C92.1562 97.1777 93.482 98.5021 95.1174 98.5021Z" fill="#715C20"/>
</svg>
