<svg width="190" height="128" viewBox="0 0 190 128" fill="none" xmlns="http://www.w3.org/2000/svg">
<g clip-path="url(#clip0_993_8802)">
<path d="M179.206 127.497C179.648 122.735 180.87 118.078 182.823 113.712C183.367 112.496 183.966 111.308 184.62 110.147C184.653 110.086 184.661 110.015 184.642 109.948C184.623 109.882 184.579 109.825 184.52 109.79C184.46 109.755 184.389 109.745 184.322 109.761C184.255 109.778 184.197 109.82 184.16 109.878C181.783 114.109 180.117 118.701 179.23 123.472C178.983 124.805 178.797 126.146 178.673 127.497C178.642 127.838 179.174 127.836 179.206 127.497Z" fill="#513C10"/>
<path d="M185.909 110.999C187.771 110.999 189.281 109.49 189.281 107.629C189.281 105.768 187.771 104.26 185.909 104.26C184.047 104.26 182.538 105.768 182.538 107.629C182.538 109.49 184.047 110.999 185.909 110.999Z" fill="#70CE6A"/>
<path d="M179.55 127.585C179.837 124.496 180.63 121.475 181.897 118.642C182.25 117.854 182.639 117.083 183.063 116.329C183.084 116.29 183.089 116.243 183.077 116.2C183.065 116.157 183.037 116.12 182.998 116.098C182.959 116.075 182.913 116.069 182.87 116.079C182.826 116.09 182.789 116.117 182.765 116.155C181.222 118.9 180.142 121.879 179.566 124.974C179.406 125.838 179.286 126.709 179.205 127.585C179.185 127.806 179.53 127.805 179.55 127.585H179.55Z" fill="#513C10"/>
<path d="M183.899 116.884C185.107 116.884 186.087 115.905 186.087 114.698C186.087 113.49 185.107 112.512 183.899 112.512C182.691 112.512 181.712 113.49 181.712 114.698C181.712 115.905 182.691 116.884 183.899 116.884Z" fill="#70CE6A"/>
<path d="M179.115 127.38C177.44 124.767 176.205 121.898 175.461 118.885C175.254 118.047 175.086 117.2 174.957 116.345C174.949 116.301 174.925 116.261 174.889 116.235C174.853 116.208 174.808 116.197 174.763 116.203C174.719 116.209 174.679 116.232 174.651 116.267C174.623 116.302 174.61 116.346 174.614 116.391C175.087 119.503 176.069 122.517 177.52 125.311C177.926 126.091 178.366 126.851 178.842 127.592C178.962 127.779 179.234 127.565 179.115 127.38Z" fill="#513C10"/>
<path d="M174.612 116.729C175.82 116.729 176.799 115.751 176.799 114.543C176.799 113.336 175.82 112.357 174.612 112.357C173.404 112.357 172.424 113.336 172.424 114.543C172.424 115.751 173.404 116.729 174.612 116.729Z" fill="#70CE6A"/>
<path d="M38.0085 127.497C37.5661 122.735 36.3441 118.078 34.3913 113.712C33.8471 112.496 33.248 111.308 32.5942 110.147C32.5614 110.086 32.5535 110.015 32.5722 109.948C32.5908 109.882 32.6346 109.825 32.6942 109.79C32.7538 109.755 32.8247 109.745 32.8918 109.761C32.9589 109.778 33.017 109.82 33.0539 109.878C35.4315 114.109 37.0973 118.702 37.9844 123.472C38.2312 124.805 38.4167 126.146 38.5409 127.497C38.5724 127.838 38.0399 127.836 38.0085 127.497Z" fill="#513C10"/>
<path d="M31.3049 110.999C33.1669 110.999 34.6764 109.49 34.6764 107.629C34.6764 105.768 33.1669 104.26 31.3049 104.26C29.4428 104.26 27.9333 105.768 27.9333 107.629C27.9333 109.49 29.4428 110.999 31.3049 110.999Z" fill="#70CE6A"/>
<path d="M37.6637 127.585C37.3767 124.496 36.5839 121.475 35.317 118.642C34.9639 117.854 34.5753 117.083 34.1512 116.329C34.1298 116.29 34.1247 116.243 34.1368 116.2C34.1489 116.157 34.1773 116.12 34.216 116.098C34.2547 116.075 34.3007 116.069 34.3442 116.079C34.3878 116.09 34.4255 116.117 34.4494 116.155C35.9919 118.9 37.0725 121.879 37.6481 124.974C37.8082 125.838 37.9285 126.709 38.0091 127.585C38.0295 127.806 37.684 127.805 37.6637 127.585H37.6637Z" fill="#513C10"/>
<path d="M33.3147 116.884C34.5227 116.884 35.502 115.905 35.502 114.698C35.502 113.49 34.5227 112.512 33.3147 112.512C32.1067 112.512 31.1274 113.49 31.1274 114.698C31.1274 115.905 32.1067 116.884 33.3147 116.884Z" fill="#70CE6A"/>
<path d="M38.0996 127.38C39.7746 124.767 41.009 121.898 41.7533 118.885C41.9601 118.047 42.1281 117.2 42.2575 116.345C42.2649 116.301 42.2893 116.261 42.3254 116.235C42.3614 116.208 42.4064 116.197 42.4508 116.203C42.4953 116.209 42.5356 116.232 42.5634 116.267C42.5912 116.302 42.6042 116.346 42.5998 116.391C42.1268 119.503 41.1453 122.517 39.6943 125.311C39.2886 126.091 38.8479 126.851 38.372 127.592C38.252 127.779 37.9805 127.565 38.0996 127.38H38.0996Z" fill="#513C10"/>
<path d="M42.6025 116.729C43.8105 116.729 44.7898 115.751 44.7898 114.543C44.7898 113.336 43.8105 112.357 42.6025 112.357C41.3946 112.357 40.4153 113.336 40.4153 114.543C40.4153 115.751 41.3946 116.729 42.6025 116.729Z" fill="#70CE6A"/>
<path d="M189.238 128H26.7498C26.6805 128 26.614 127.972 26.565 127.923C26.516 127.874 26.4885 127.808 26.4885 127.738C26.4885 127.669 26.516 127.603 26.565 127.554C26.614 127.504 26.6805 127.477 26.7498 127.477H189.238C189.307 127.477 189.374 127.504 189.423 127.553C189.472 127.602 189.5 127.669 189.5 127.738C189.5 127.808 189.472 127.875 189.423 127.924C189.374 127.973 189.307 128 189.238 128Z" fill="#212529"/>
<path d="M87.2588 78.0844C86.3835 78.0854 85.5444 78.4334 84.9255 79.0519C84.3066 79.6704 83.9585 80.509 83.9575 81.3838V124.055C83.9585 124.93 84.3066 125.769 84.9255 126.387C85.5444 127.006 86.3835 127.354 87.2588 127.355H168.25C169.126 127.354 169.965 127.006 170.584 126.387C171.203 125.769 171.551 124.93 171.552 124.055V81.3838C171.551 80.509 171.203 79.6704 170.584 79.0519C169.965 78.4334 169.126 78.0854 168.25 78.0844H87.2588Z" fill="#F8F9FA"/>
<path d="M166.533 83.4458L166.586 123.063C166.586 123.798 166.295 124.504 165.775 125.025C165.255 125.546 164.55 125.839 163.814 125.841L147.348 125.865C151.984 117.199 154.608 103.558 154.593 93.0439C154.589 88.8945 154.167 84.7561 153.334 80.691L163.754 80.6758C164.49 80.6755 165.195 80.967 165.717 81.4863C166.238 82.0056 166.531 82.7103 166.533 83.4458Z" fill="#09421A"/>
<path d="M142.404 78.0317L113.058 77.9166L115.911 68.4283C116.139 67.6829 116.6 67.0299 117.226 66.5649C117.851 66.0998 118.61 65.8471 119.39 65.8438H119.403L136.153 65.9095C136.935 65.916 137.695 66.1733 138.32 66.6435C138.945 67.1137 139.402 67.772 139.625 68.5215L142.404 78.0317Z" fill="#343A40"/>
<path d="M158.787 74.7852C157.97 74.7852 157.186 75.1096 156.608 75.6871C156.03 76.2646 155.706 77.0478 155.706 77.8645H161.868C161.868 77.0478 161.543 76.2646 160.966 75.6871C160.388 75.1096 159.604 74.7852 158.787 74.7852Z" fill="#09421A"/>
<path d="M168.25 127.795H87.2588C86.2668 127.793 85.3158 127.399 84.6144 126.698C83.913 125.997 83.5185 125.047 83.5173 124.055V81.3838C83.5185 80.3924 83.913 79.442 84.6144 78.741C85.3158 78.04 86.2668 77.6456 87.2588 77.6445H168.25C169.242 77.6456 170.193 78.04 170.895 78.741C171.596 79.442 171.991 80.3924 171.992 81.3838V124.055C171.991 125.047 171.596 125.997 170.895 126.698C170.193 127.399 169.242 127.793 168.25 127.795ZM87.2588 78.0844C86.3835 78.0854 85.5444 78.4334 84.9255 79.0519C84.3066 79.6704 83.9585 80.509 83.9575 81.3838V124.055C83.9585 124.93 84.3066 125.769 84.9255 126.387C85.5444 127.006 86.3835 127.354 87.2588 127.355H168.25C169.126 127.354 169.965 127.006 170.584 126.387C171.203 125.769 171.551 124.93 171.552 124.055V81.3838C171.551 80.509 171.203 79.6704 170.584 79.0519C169.965 78.4334 169.126 78.0854 168.25 78.0844H87.2588Z" fill="#343A40"/>
<path d="M131.276 74.4541H124.233C123.737 74.4541 123.261 74.2571 122.91 73.9065C122.56 73.5559 122.363 73.0803 122.363 72.5845C122.363 72.0886 122.56 71.6131 122.91 71.2624C123.261 70.9118 123.737 70.7148 124.233 70.7148H131.276C131.772 70.7148 132.248 70.9118 132.599 71.2624C132.95 71.6131 133.147 72.0886 133.147 72.5845C133.147 73.0803 132.95 73.5559 132.599 73.9065C132.248 74.2571 131.772 74.4541 131.276 74.4541Z" fill="#F8F9FA"/>
<path d="M127.755 119.435C124.446 119.435 121.213 118.455 118.462 116.618C115.711 114.781 113.567 112.17 112.301 109.116C111.035 106.061 110.704 102.7 111.349 99.4574C111.995 96.2147 113.588 93.236 115.927 90.8982C118.266 88.5603 121.247 86.9682 124.491 86.3232C127.736 85.6782 131.099 86.0092 134.156 87.2744C137.212 88.5397 139.824 90.6823 141.662 93.4313C143.5 96.1804 144.481 99.4124 144.481 102.719C144.476 107.151 142.712 111.4 139.577 114.534C136.441 117.667 132.189 119.43 127.755 119.435ZM127.755 86.4419C124.533 86.4419 121.385 87.3965 118.706 89.185C116.028 90.9735 113.941 93.5156 112.708 96.4898C111.475 99.464 111.153 102.737 111.781 105.894C112.41 109.051 113.961 111.952 116.238 114.228C118.516 116.504 121.418 118.055 124.577 118.683C127.737 119.311 131.011 118.988 133.987 117.756C136.963 116.524 139.507 114.438 141.296 111.761C143.086 109.085 144.041 105.938 144.041 102.719C144.036 98.4033 142.319 94.266 139.265 91.2146C136.212 88.1632 132.073 86.4468 127.755 86.4419Z" fill="#343A40"/>
<path d="M127.755 113.716C125.578 113.716 123.451 113.071 121.641 111.863C119.831 110.654 118.421 108.937 117.588 106.927C116.755 104.918 116.537 102.706 116.962 100.573C117.386 98.4396 118.434 96.48 119.973 94.9419C121.512 93.4038 123.473 92.3564 125.608 91.932C127.742 91.5077 129.955 91.7255 131.966 92.5579C133.976 93.3903 135.695 94.7999 136.904 96.6085C138.113 98.417 138.759 100.543 138.759 102.719C138.756 105.634 137.595 108.43 135.532 110.491C133.469 112.553 130.672 113.713 127.755 113.716ZM127.755 92.1606C125.665 92.1606 123.623 92.7798 121.885 93.9399C120.148 95.1001 118.794 96.749 117.995 98.6782C117.195 100.607 116.986 102.73 117.393 104.778C117.801 106.826 118.807 108.708 120.285 110.184C121.762 111.661 123.644 112.666 125.694 113.074C127.743 113.481 129.867 113.272 131.797 112.473C133.728 111.674 135.377 110.32 136.538 108.584C137.699 106.848 138.319 104.807 138.319 102.719C138.316 99.9194 137.201 97.2357 135.221 95.2564C133.241 93.2771 130.555 92.1638 127.755 92.1606Z" fill="#343A40"/>
<path d="M127.755 111.078C132.374 111.078 136.118 107.336 136.118 102.72C136.118 98.1035 132.374 94.3613 127.755 94.3613C123.136 94.3613 119.391 98.1035 119.391 102.72C119.391 107.336 123.136 111.078 127.755 111.078Z" fill="#ADB5BD"/>
<path d="M122.693 102.72C122.693 101.395 123.172 100.114 124.041 99.1142C124.91 98.1139 126.112 97.461 127.424 97.2755C126.644 97.1646 125.849 97.2225 125.094 97.4452C124.338 97.668 123.639 98.0504 123.044 98.5666C122.448 99.0828 121.971 99.7207 121.644 100.437C121.317 101.154 121.148 101.932 121.148 102.72C121.148 103.507 121.317 104.285 121.644 105.002C121.971 105.718 122.448 106.356 123.044 106.873C123.639 107.389 124.338 107.771 125.094 107.994C125.849 108.217 126.644 108.275 127.424 108.164C126.112 107.978 124.91 107.325 124.041 106.325C123.172 105.325 122.693 104.045 122.693 102.72Z" fill="#F8F9FA"/>
<path d="M164.289 78.0841H153.284V77.8641C153.284 76.4057 153.864 75.0071 154.896 73.9758C155.928 72.9446 157.327 72.3652 158.787 72.3652C160.246 72.3652 161.645 72.9446 162.677 73.9758C163.709 75.0071 164.289 76.4057 164.289 77.8641V78.0841ZM153.729 77.6442H163.844C163.787 76.3418 163.229 75.1115 162.287 74.21C161.345 73.3085 160.091 72.8052 158.787 72.8052C157.482 72.8052 156.228 73.3085 155.286 74.21C154.344 75.1115 153.786 76.3418 153.729 77.6442Z" fill="#343A40"/>
<path d="M89.0195 84.2429C88.5842 84.2429 88.1587 84.1139 87.7967 83.8722C87.4348 83.6305 87.1527 83.287 86.9861 82.885C86.8196 82.4831 86.776 82.0409 86.8609 81.6142C86.9458 81.1875 87.1554 80.7956 87.4632 80.488C87.771 80.1804 88.1632 79.9709 88.5901 79.886C89.017 79.8011 89.4595 79.8447 89.8617 80.0112C90.2638 80.1777 90.6076 80.4596 90.8494 80.8213C91.0912 81.183 91.2203 81.6083 91.2203 82.0433C91.2197 82.6265 90.9876 83.1856 90.575 83.5979C90.1624 84.0103 89.603 84.2422 89.0195 84.2429ZM89.0195 80.2837C88.6712 80.2837 88.3308 80.3869 88.0413 80.5802C87.7517 80.7736 87.5261 81.0484 87.3928 81.3699C87.2595 81.6915 87.2247 82.0453 87.2926 82.3866C87.3605 82.7279 87.5282 83.0415 87.7745 83.2876C88.0207 83.5337 88.3344 83.7013 88.676 83.7692C89.0175 83.8371 89.3715 83.8022 89.6933 83.669C90.015 83.5358 90.29 83.3103 90.4834 83.0209C90.6769 82.7316 90.7802 82.3913 90.7802 82.0433C90.7796 81.5768 90.5939 81.1295 90.2639 80.7996C89.9338 80.4698 89.4863 80.2842 89.0195 80.2837Z" fill="#343A40"/>
<path d="M89.0194 83.1429C89.6271 83.1429 90.1198 82.6505 90.1198 82.0431C90.1198 81.4357 89.6271 80.9434 89.0194 80.9434C88.4116 80.9434 87.9189 81.4357 87.9189 82.0431C87.9189 82.6505 88.4116 83.1429 89.0194 83.1429Z" fill="#09421A"/>
<path d="M94.7418 83.1429C95.3495 83.1429 95.8422 82.6505 95.8422 82.0431C95.8422 81.4357 95.3495 80.9434 94.7418 80.9434C94.134 80.9434 93.6414 81.4357 93.6414 82.0431C93.6414 82.6505 94.134 83.1429 94.7418 83.1429Z" fill="#ADB5BD"/>
<path d="M100.464 83.1429C101.072 83.1429 101.564 82.6505 101.564 82.0431C101.564 81.4357 101.072 80.9434 100.464 80.9434C99.8562 80.9434 99.3635 81.4357 99.3635 82.0431C99.3635 82.6505 99.8562 83.1429 100.464 83.1429Z" fill="#ADB5BD"/>
<path d="M94.7416 84.2429C94.3063 84.2429 93.8808 84.1139 93.5189 83.8722C93.157 83.6305 92.8749 83.287 92.7083 82.885C92.5417 82.4831 92.4981 82.0409 92.5831 81.6142C92.668 81.1875 92.8776 80.7956 93.1854 80.488C93.4932 80.1804 93.8853 79.9709 94.3123 79.886C94.7392 79.8011 95.1817 79.8447 95.5839 80.0112C95.986 80.1777 96.3297 80.4596 96.5716 80.8213C96.8134 81.183 96.9425 81.6083 96.9425 82.0433C96.9418 82.6265 96.7097 83.1856 96.2971 83.5979C95.8845 84.0103 95.3251 84.2422 94.7416 84.2429ZM94.7416 80.2837C94.3934 80.2837 94.053 80.3869 93.7634 80.5802C93.4739 80.7736 93.2482 81.0484 93.115 81.3699C92.9817 81.6915 92.9468 82.0453 93.0148 82.3866C93.0827 82.7279 93.2504 83.0415 93.4966 83.2876C93.7429 83.5337 94.0566 83.7013 94.3981 83.7692C94.7397 83.8371 95.0937 83.8022 95.4154 83.669C95.7371 83.5358 96.0121 83.3103 96.2056 83.0209C96.3991 82.7316 96.5023 82.3913 96.5023 82.0433C96.5018 81.5768 96.3161 81.1295 95.986 80.7996C95.656 80.4698 95.2084 80.2842 94.7416 80.2837Z" fill="#343A40"/>
<path d="M100.464 84.2429C100.029 84.2429 99.6032 84.1139 99.2413 83.8722C98.8794 83.6305 98.5973 83.287 98.4307 82.885C98.2641 82.4831 98.2206 82.0409 98.3055 81.6142C98.3904 81.1875 98.6 80.7956 98.9078 80.488C99.2156 80.1804 99.6077 79.9709 100.035 79.886C100.462 79.8011 100.904 79.8447 101.306 80.0112C101.708 80.1777 102.052 80.4596 102.294 80.8213C102.536 81.183 102.665 81.6083 102.665 82.0433C102.664 82.6265 102.432 83.1856 102.02 83.5979C101.607 84.0103 101.048 84.2422 100.464 84.2429ZM100.464 80.2837C100.116 80.2837 99.7754 80.3869 99.4859 80.5802C99.1963 80.7736 98.9706 81.0484 98.8374 81.3699C98.7041 81.6915 98.6692 82.0453 98.7372 82.3866C98.8051 82.7279 98.9728 83.0415 99.2191 83.2876C99.4653 83.5337 99.779 83.7013 100.121 83.7692C100.462 83.8371 100.816 83.8022 101.138 83.669C101.46 83.5358 101.735 83.3103 101.928 83.0209C102.121 82.7316 102.225 82.3913 102.225 82.0433C102.224 81.5768 102.039 81.1295 101.708 80.7996C101.378 80.4698 100.931 80.2842 100.464 80.2837Z" fill="#343A40"/>
<path d="M112.348 96.752H83.7373V97.1919H112.348V96.752Z" fill="#343A40"/>
<path d="M111.638 105.605H83.7373V106.045H111.638V105.605Z" fill="#343A40"/>
<path d="M171.772 96.752H143.161V97.1919H171.772V96.752Z" fill="#343A40"/>
<path d="M171.721 105.605H143.821V106.045H171.721V105.605Z" fill="#343A40"/>
<path d="M60.5453 53.3336C58.7605 52.5142 57.5873 50.1714 57.6541 47.8608C57.7209 45.5503 58.9375 43.3894 60.6155 42.2875C61.4335 41.7637 62.369 41.4512 63.3378 41.378C64.3066 41.3048 65.2784 41.4733 66.1659 41.8684C67.9668 42.6345 70.3847 42.8432 71.4671 44.7474C72.299 46.2107 71.9993 49.4753 71.4104 51.1024C70.9013 52.5088 69.6566 53.3012 68.4429 53.7447C67.0994 54.2311 65.6671 54.4235 64.2428 54.3088C62.8185 54.1942 61.4355 53.7751 60.1873 53.0801" fill="#212529"/>
<path d="M49.6631 125.089L47.0972 124.255L49.0958 113.967L52.8828 115.198L49.6631 125.089Z" fill="#FFB8B8"/>
<path d="M45.5029 122.927L50.4513 124.536L49.4377 127.65L41.3736 125.028C41.5067 124.619 41.7191 124.24 41.9987 123.913C42.2782 123.587 42.6194 123.318 43.0029 123.123C43.3863 122.928 43.8044 122.81 44.2334 122.776C44.6623 122.743 45.0937 122.794 45.5029 122.927Z" fill="#212529"/>
<path d="M72.6332 125.146L69.9349 125.145L68.6514 114.744L72.6336 114.744L72.6332 125.146Z" fill="#FFB8B8"/>
<path d="M68.0076 124.375H73.2113V127.649H64.7312C64.7312 127.219 64.8159 126.794 64.9806 126.396C65.1453 125.999 65.3866 125.638 65.6908 125.334C65.9951 125.03 66.3563 124.789 66.7538 124.624C67.1513 124.46 67.5773 124.375 68.0076 124.375Z" fill="#212529"/>
<path d="M72.4973 120.891C72.481 120.891 72.4648 120.891 72.4485 120.89L69.4585 120.748C69.2067 120.735 68.9691 120.628 68.7939 120.447C68.6187 120.265 68.5191 120.024 68.5153 119.773L68.1101 90.2126C68.1091 90.1393 68.0837 90.0684 68.0378 90.0111C67.992 89.9539 67.9284 89.9135 67.8571 89.8964C67.7858 89.8793 67.7108 89.8864 67.6439 89.9166C67.5771 89.9468 67.5222 89.9985 67.488 90.0633L51.651 120.074C51.5527 120.262 51.3963 120.413 51.2051 120.505C51.0139 120.597 50.798 120.625 50.5897 120.585L47.6139 120.018C47.4738 119.992 47.3411 119.935 47.2248 119.852C47.1086 119.77 47.0116 119.663 46.9405 119.539C46.8694 119.416 46.8259 119.278 46.8129 119.136C46.8 118.994 46.8178 118.851 46.8653 118.717L58.4044 86.0418L59.2923 76.3762C59.3121 76.1507 59.4091 75.939 59.5669 75.7767C59.7247 75.6145 59.9337 75.5116 60.1586 75.4854C63.5209 75.0725 68.219 72.3192 70.0828 71.1546C70.1972 71.0825 70.3253 71.0349 70.459 71.0148C70.5928 70.9947 70.7292 71.0025 70.8598 71.0377C70.9918 71.0732 71.1152 71.1354 71.2224 71.2203C71.3295 71.3052 71.4181 71.4111 71.4828 71.5316C75.9726 79.8706 77.6898 89.4215 76.3856 98.801L73.4768 120.036C73.4455 120.273 73.3288 120.491 73.1485 120.648C72.9683 120.806 72.7367 120.892 72.4973 120.891Z" fill="#495057"/>
<path d="M64.449 55.6035C67.4344 55.6035 69.8545 53.1848 69.8545 50.2012C69.8545 47.2175 67.4344 44.7988 64.449 44.7988C61.4636 44.7988 59.0435 47.2175 59.0435 50.2012C59.0435 53.1848 61.4636 55.6035 64.449 55.6035Z" fill="#FFB8B8"/>
<path d="M59.063 78.6979L57.4353 67.0744C57.0391 65.3082 57.3607 63.4571 58.3295 61.9278C59.2983 60.3985 60.835 59.3161 62.6019 58.9187C64.3688 58.5212 66.2213 58.8411 67.7523 59.808C69.2833 60.7749 70.3676 62.3098 70.7667 64.0753C71.2302 66.224 72.172 68.8396 71.828 71.6593C69.4174 78.3458 65.0415 80.4074 59.063 78.6979Z" fill="#A9944E"/>
<path d="M66.2158 60.6607H62.2543C61.9917 60.6604 61.74 60.556 61.5543 60.3704C61.3686 60.1849 61.2642 59.9333 61.2639 59.6709V58.3511C61.2642 58.0887 61.3686 57.8371 61.5543 57.6516C61.74 57.466 61.9917 57.3616 62.2543 57.3613H66.2158C66.4784 57.3616 66.7302 57.466 66.9158 57.6516C67.1015 57.8371 67.2059 58.0887 67.2062 58.3511V59.6709C67.2059 59.9333 67.1015 60.1849 66.9158 60.3704C66.7302 60.556 66.4784 60.6604 66.2158 60.6607Z" fill="#A9944E"/>
<path d="M86.2929 82.6304C86.4004 82.3021 86.4345 81.9542 86.3929 81.6112C86.3513 81.2683 86.235 80.9387 86.0521 80.6455C85.8692 80.3524 85.6243 80.1029 85.3345 79.9146C85.0447 79.7263 84.7172 79.6038 84.3749 79.5557L72.0436 61.9121L68.3872 65.5248L81.6581 81.7319C81.6154 82.312 81.7871 82.8875 82.1406 83.3495C82.4941 83.8115 83.0049 84.1278 83.5762 84.2385C84.1475 84.3493 84.7396 84.2467 85.2403 83.9503C85.741 83.6539 86.1155 83.1843 86.2929 82.6304V82.6304Z" fill="#FFB8B8"/>
<path d="M75.9011 67.3105L71.448 70.2815C71.3213 70.366 71.1779 70.4223 71.0274 70.4464C70.877 70.4706 70.7232 70.462 70.5764 70.4213C70.4295 70.3807 70.2932 70.3089 70.1767 70.2108C70.0601 70.1128 69.9661 69.9908 69.901 69.8531L67.6199 65.03C67.1912 64.3796 67.0379 63.586 67.1937 62.8229C67.3495 62.0599 67.8016 61.3897 68.451 60.9592C69.1003 60.5287 69.894 60.373 70.658 60.5263C71.422 60.6796 72.094 61.1293 72.5268 61.777L76.0985 65.7184C76.2007 65.8312 76.2774 65.9648 76.3233 66.11C76.3693 66.2552 76.3833 66.4085 76.3646 66.5596C76.3459 66.7107 76.2948 66.856 76.2148 66.9856C76.1348 67.1152 76.0278 67.226 75.9011 67.3105Z" fill="#A9944E"/>
<path d="M42.7301 58.9242C42.7572 59.0429 42.7748 59.1635 42.7828 59.285L52.2371 64.7359L54.5351 63.4138L56.985 66.6191L53.1444 69.3548C52.8341 69.5758 52.4605 69.6902 52.0796 69.681C51.6987 69.6717 51.3311 69.5392 51.032 69.3033L41.2829 61.6168C40.8429 61.7796 40.3638 61.8046 39.9093 61.6886C39.4547 61.5726 39.0463 61.321 38.7383 60.9673C38.4303 60.6136 38.2373 60.1746 38.185 59.7087C38.1328 59.2427 38.2237 58.7719 38.4457 58.3589C38.6677 57.9458 39.0103 57.6101 39.4279 57.3964C39.8454 57.1827 40.3182 57.1011 40.7833 57.1624C41.2484 57.2238 41.6838 57.4253 42.0316 57.74C42.3794 58.0547 42.623 58.4678 42.7301 58.9242V58.9242Z" fill="#FFB8B8"/>
<path d="M54.9851 68.697L52.6096 63.9015C52.542 63.765 52.5046 63.6156 52.5 63.4635C52.4954 63.3113 52.5237 63.1599 52.5829 63.0196C52.6421 62.8793 52.7309 62.7534 52.8431 62.6505C52.9554 62.5476 53.0886 62.4701 53.2335 62.4233L58.3128 60.7825C59.0132 60.4408 59.8207 60.3907 60.5581 60.6431C61.2955 60.8956 61.9026 61.4299 62.2464 62.129C62.5902 62.8282 62.6425 63.635 62.392 64.3726C62.1414 65.1103 61.6084 65.7185 60.9098 66.064L56.5397 69.0973C56.4145 69.1841 56.2721 69.243 56.1221 69.2698C55.9722 69.2966 55.8182 69.2909 55.6707 69.2529C55.5232 69.2149 55.3856 69.1456 55.2673 69.0496C55.149 68.9537 55.0527 68.8334 54.9851 68.697H54.9851Z" fill="#A9944E"/>
<path d="M68.0766 43.3976C68.2713 43.426 68.4698 43.3894 68.6416 43.2936C68.8133 43.1978 68.9487 43.0481 69.0267 42.8676C69.0988 42.6848 69.128 42.4879 69.1122 42.292C69.0963 42.0961 69.0358 41.9064 68.9352 41.7375C68.7305 41.401 68.4448 41.121 68.1042 40.923C67.7119 40.6609 67.2583 40.505 66.7877 40.4703C66.5529 40.4549 66.3175 40.4902 66.0975 40.5736C65.8775 40.6571 65.678 40.7868 65.5126 40.9541C65.3512 41.1254 65.2446 41.3411 65.2065 41.5733C65.1684 41.8056 65.2005 42.0439 65.2987 42.2579C65.4964 42.6388 65.9111 42.8524 66.3152 42.9975C67.1169 43.2845 67.9707 43.3965 68.8193 43.3262" fill="#212529"/>
<path d="M69.805 52.6615C68.8602 52.7058 69.0229 50.7023 68.7273 49.8044C68.4316 48.9065 68.024 47.8355 67.094 47.6633C66.3318 47.5222 65.643 48.0792 64.9792 48.479C63.7959 49.1917 62.2642 49.4546 61.0217 48.8509C59.7792 48.2472 59.0237 46.6342 59.6279 45.3925C59.812 45.0512 60.0641 44.7514 60.3689 44.5114C60.6736 44.2715 61.0243 44.0966 61.3994 43.9977C62.1514 43.8046 62.9349 43.7669 63.702 43.8872C65.4131 44.0968 67.0574 44.6793 68.5187 45.5935C69.5271 46.2255 70.4866 47.0862 70.7869 48.2373C71.0871 49.3885 71.2094 52.5188 70.0357 52.717L69.805 52.6615Z" fill="#212529"/>
<path d="M67.3332 40.6109C66.6196 39.7067 66.8884 38.2821 67.7202 37.485C68.552 36.688 69.7889 36.4396 70.9367 36.541C72.074 36.6555 73.1612 37.0668 74.0892 37.7337C75.0173 38.4006 75.7535 39.2997 76.2242 40.3407C76.9496 41.999 76.9436 43.8958 77.5996 45.5828C77.9493 46.482 78.4795 47.3002 79.1575 47.9869C79.8355 48.6737 80.647 49.2144 81.542 49.5759C82.437 49.9374 83.3966 50.1119 84.3617 50.0888C85.3268 50.0657 86.2769 49.8453 87.1535 49.4414C88.2953 48.9152 89.3826 47.8849 89.3174 46.63C90.0393 49.4116 88.7391 52.5935 86.2752 54.0749C84.8321 54.9425 83.1229 55.2371 81.451 55.4398C80.3614 55.5719 79.2416 55.6702 78.1783 55.398C76.6907 55.0173 75.4452 53.92 74.6911 52.5831C73.9369 51.2463 73.6402 49.6884 73.6287 48.1537C73.6197 46.9582 73.7764 45.762 73.6936 44.5693C73.6108 43.3766 73.2521 42.143 72.387 41.3172C71.5219 40.4914 70.0621 40.2196 69.1127 40.947C68.7311 41.2393 68.4515 41.6662 68.0219 41.8818C67.5923 42.0975 66.9135 41.9298 66.8848 41.4501L67.3332 40.6109Z" fill="#212529"/>
<path d="M46.6217 58.9619H2.03739C1.62979 58.9614 1.23903 58.7994 0.950814 58.5113C0.662599 58.2233 0.500473 57.8327 0.5 57.4254V32.3295C0.500474 31.9221 0.6626 31.5316 0.950814 31.2435C1.23903 30.9555 1.62979 30.7934 2.03739 30.793H46.6217C47.0294 30.7934 47.4201 30.9555 47.7083 31.2435C47.9966 31.5316 48.1587 31.9221 48.1591 32.3295V57.4254C48.1587 57.8327 47.9966 58.2233 47.7083 58.5113C47.4201 58.7994 47.0294 58.9614 46.6217 58.9619ZM2.03739 31.1344C1.72037 31.1348 1.41643 31.2608 1.19226 31.4848C0.968092 31.7089 0.841997 32.0126 0.841641 32.3295V57.4254C0.841997 57.7422 0.968092 58.046 1.19226 58.27C1.41643 58.4941 1.72037 58.6201 2.03739 58.6204H46.6217C46.9388 58.6201 47.2427 58.494 47.4669 58.27C47.691 58.046 47.8171 57.7422 47.8175 57.4254V32.3295C47.8171 32.0126 47.691 31.7089 47.4669 31.4848C47.2427 31.2608 46.9388 31.1348 46.6217 31.1344H2.03739Z" fill="#362406"/>
<path d="M16.7351 48.409C20.2561 48.409 23.1104 45.5564 23.1104 42.0375C23.1104 38.5186 20.2561 35.666 16.7351 35.666C13.2142 35.666 10.3599 38.5186 10.3599 42.0375C10.3599 45.5564 13.2142 48.409 16.7351 48.409Z" fill="#F7F2D4"/>
<path d="M41.3017 53.2891L33.8181 40.3348C33.7714 40.2538 33.7041 40.1866 33.6231 40.1399C33.5421 40.0931 33.4502 40.0685 33.3566 40.0685C33.2631 40.0685 33.1712 40.0931 33.0901 40.1399C33.0091 40.1866 32.9418 40.2538 32.8951 40.3348L28.3281 48.2404L21.5196 36.4547C21.4596 36.3509 21.3734 36.2647 21.2695 36.2048C21.1656 36.1448 21.0478 36.1133 20.9278 36.1133C20.8079 36.1133 20.6901 36.1448 20.5862 36.2048C20.4823 36.2647 20.3961 36.3509 20.3361 36.4547L10.7412 53.0637C10.6812 53.1676 10.6497 53.2853 10.6497 53.4052C10.6497 53.5251 10.6812 53.6428 10.7412 53.7466C10.8012 53.8504 10.8874 53.9366 10.9913 53.9966C11.0952 54.0565 11.213 54.0881 11.3329 54.0881H40.8402C40.9337 54.0881 41.0256 54.0635 41.1067 54.0167C41.1877 53.97 41.255 53.9027 41.3017 53.8218C41.3485 53.7408 41.3731 53.6489 41.3731 53.5555C41.3731 53.462 41.3485 53.3701 41.3017 53.2891Z" fill="#70CE6A"/>
<path d="M6.47875 33.8652H3.74561V36.5968H6.47875V33.8652Z" fill="#362406"/>
<path d="M29.14 22.0101H63.9765C64.295 22.0098 64.6004 21.8832 64.8256 21.6581C65.0508 21.433 65.1774 21.1279 65.1778 20.8096V1.20056C65.1774 0.882259 65.0508 0.577101 64.8256 0.352032C64.6004 0.126962 64.295 0.000358619 63.9765 0H29.14C28.8215 0.000370239 28.5162 0.126978 28.291 0.352045C28.0658 0.577112 27.9391 0.882263 27.9387 1.20056V20.8096C27.9391 21.1279 28.0658 21.433 28.291 21.6581C28.5162 21.8832 28.8215 22.0098 29.14 22.0101Z" fill="#102C7A"/>
<path d="M63.9765 22.0101H29.14C28.8215 22.0098 28.5162 21.8832 28.291 21.6581C28.0658 21.433 27.9391 21.1279 27.9387 20.8096V1.20056C27.9391 0.882263 28.0658 0.577112 28.291 0.352045C28.5162 0.126978 28.8215 0.000370239 29.14 0H63.9765C64.295 0.000358619 64.6004 0.126962 64.8256 0.352032C65.0508 0.577101 65.1774 0.882259 65.1778 1.20056V20.8096C65.1774 21.1279 65.0508 21.433 64.8256 21.6581C64.6004 21.8832 64.295 22.0098 63.9765 22.0101ZM29.14 0.266789C28.8923 0.267068 28.6548 0.365535 28.4796 0.54059C28.3045 0.715644 28.2059 0.952991 28.2057 1.20056V20.8096C28.2059 21.0571 28.3045 21.2945 28.4796 21.4695C28.6548 21.6446 28.8923 21.7431 29.14 21.7433H63.9765C64.2243 21.7431 64.4617 21.6446 64.6369 21.4695C64.812 21.2945 64.9106 21.0571 64.9109 20.8096V1.20056C64.9106 0.952994 64.812 0.715656 64.6369 0.540603C64.4617 0.365551 64.2243 0.267078 63.9765 0.266789H29.14Z" fill="#362406"/>
<path d="M40.6242 13.7655C43.3754 13.7655 45.6056 11.5366 45.6056 8.78705C45.6056 6.03753 43.3754 3.80859 40.6242 3.80859C37.8731 3.80859 35.6428 6.03753 35.6428 8.78705C35.6428 11.5366 37.8731 13.7655 40.6242 13.7655Z" fill="#D4C179"/>
<path d="M59.8198 17.5788L53.9724 7.45674C53.9358 7.39347 53.8833 7.34093 53.82 7.3044C53.7567 7.26787 53.6848 7.24864 53.6117 7.24864C53.5386 7.24864 53.4668 7.26787 53.4035 7.3044C53.3402 7.34093 53.2877 7.39347 53.2511 7.45674L49.6826 13.6339L44.3627 4.42499C44.3159 4.34387 44.2485 4.27652 44.1673 4.22969C44.0862 4.18286 43.9941 4.1582 43.9004 4.1582C43.8067 4.1582 43.7146 4.18286 43.6334 4.22969C43.5523 4.27652 43.4849 4.34387 43.438 4.42499L35.9409 17.4027C35.8941 17.4838 35.8694 17.5758 35.8694 17.6695C35.8694 17.7631 35.8941 17.8551 35.9409 17.9362C35.9878 18.0174 36.0552 18.0847 36.1363 18.1315C36.2175 18.1784 36.3096 18.203 36.4033 18.203H59.4592C59.5322 18.203 59.6041 18.1838 59.6674 18.1473C59.7307 18.1107 59.7832 18.0582 59.8198 17.9949C59.8563 17.9317 59.8756 17.8599 59.8756 17.7869C59.8756 17.7138 59.8563 17.642 59.8198 17.5788Z" fill="#09421A"/>
<path d="M32.6102 2.40039H30.4746V4.53471H32.6102V2.40039Z" fill="#362406"/>
</g>
<defs>
<clipPath id="clip0_993_8802">
<rect width="189" height="128" fill="white" transform="translate(0.5)"/>
</clipPath>
</defs>
</svg>
