<svg width="474" height="367" viewBox="0 0 474 367" fill="none" xmlns="http://www.w3.org/2000/svg">
<g clip-path="url(#clip0_993_10192)">
<path d="M431.694 115.041C435.982 113.169 427.286 112.079 417.42 111.721C407.555 111.363 395.62 111.382 389.316 110.363C383.218 109.378 383.667 107.625 383.154 106.037C382.642 104.449 380.297 102.821 370.783 102.468C358.927 102.028 339.375 103.722 330.424 102.705C322.072 101.757 327.037 98.7811 314.858 98.6673C307.903 98.6023 298.944 99.5832 291.206 99.8199C283.941 100.042 278.566 99.5819 274.794 98.9631C271.022 98.3444 268.395 97.5599 264.15 97.0133C253.006 95.5784 231.201 96.0607 211.74 97.8998C192.278 99.7389 175.596 102.753 166.188 105.738C156.78 108.723 154.181 111.662 156.372 114.154C157.772 115.746 161.353 117.234 170.039 117.874C186.287 119.07 215.215 117.011 232.004 118.099C241.362 118.706 245.513 120.21 253.723 121.032C262.544 121.916 275.456 121.963 288.143 121.942C314.557 121.899 341.648 121.627 369.271 121.129C380.809 120.92 392.899 120.65 405.176 119.658C417.454 118.666 429.976 116.752 432.567 114.957" fill="#ADB5BD"/>
<path d="M469.197 269.428C464.501 278.926 457.088 287.226 448.567 293.63C435.506 303.449 419.959 309.349 404.398 314.327C316.514 342.457 220.518 344.63 131.456 320.508C106.819 313.838 82.0572 304.825 62.8945 287.943C56.7609 282.538 51.4113 276.301 47.0005 269.414C72.5047 255.378 103.417 250.088 132.914 250.734C175.202 251.66 216.503 262.962 258.395 268.809C307.728 275.684 357.82 274.994 406.946 266.76C423.988 263.897 441.625 260.152 458.306 264.685C462.141 265.745 465.808 267.342 469.197 269.428V269.428Z" fill="#362406"/>
<path d="M446.348 332.57C445.638 334.566 444.475 336.37 442.951 337.84C440.656 340.101 437.772 341.662 434.862 343.043C418.304 350.865 399.852 353.77 381.695 351.413C376.707 350.757 371.633 349.645 367.447 346.85C366.107 345.955 364.899 344.877 363.856 343.647C368.472 340.235 374.374 338.39 380.154 337.742C388.441 336.813 396.806 337.938 405.144 337.981C414.963 338.03 424.732 336.58 434.115 333.682C437.37 332.676 440.718 331.481 444.096 331.929C444.873 332.035 445.631 332.251 446.348 332.57Z" fill="#102C7A"/>
<path d="M166.42 339.41C165.093 341.06 163.402 342.38 161.479 343.266C158.568 344.644 155.332 345.167 152.131 345.512C133.923 347.437 115.545 344.096 99.1758 335.884C94.6817 333.619 90.2562 330.897 87.223 326.877C86.2522 325.59 85.4657 324.174 84.8862 322.669C90.3666 320.969 96.5455 321.173 102.217 322.467C110.346 324.323 117.875 328.143 125.734 330.933C134.99 334.216 144.691 336.069 154.504 336.426C157.908 336.549 161.462 336.525 164.504 338.062C165.203 338.419 165.848 338.872 166.42 339.41Z" fill="#102C7A"/>
<path d="M292.153 353.652C291.185 355.536 289.792 357.17 288.087 358.424C285.512 360.359 282.447 361.522 279.379 362.504C261.929 368.052 243.256 368.475 225.573 363.722C220.716 362.407 215.834 360.631 212.057 357.303C210.847 356.237 209.793 355.008 208.923 353.65C213.951 350.883 220.045 349.84 225.86 349.967C234.196 350.15 242.338 352.378 250.597 353.53C260.322 354.886 270.197 354.75 279.882 353.127C283.241 352.562 286.718 351.824 290.006 352.718C290.762 352.927 291.485 353.241 292.153 353.652V353.652Z" fill="#102C7A"/>
<path d="M311.778 242.022L299.229 236.479V231.713L303.701 231.688C304.395 231.684 305.071 231.463 305.633 231.055C306.194 230.647 306.615 230.073 306.834 229.414L309.976 219.976C310.142 219.476 310.187 218.944 310.108 218.423C310.029 217.902 309.827 217.407 309.519 216.98C309.211 216.552 308.807 216.204 308.338 215.964C307.869 215.724 307.351 215.599 306.824 215.599H299.229V211.164H308.764C309.516 211.164 310.245 210.909 310.833 210.44C311.421 209.971 311.833 209.316 312.001 208.583L314.165 199.159C314.277 198.672 314.277 198.165 314.167 197.678C314.056 197.19 313.837 196.733 313.526 196.342C313.215 195.951 312.82 195.635 312.37 195.418C311.92 195.201 311.427 195.088 310.928 195.088H299.229V193.979C299.229 193.391 298.996 192.827 298.581 192.411C298.165 191.995 297.602 191.762 297.015 191.762C296.428 191.762 295.864 191.995 295.449 192.411C295.034 192.827 294.8 193.391 294.8 193.979V195.088H216.372V193.979C216.372 193.391 216.139 192.827 215.724 192.411C215.308 191.995 214.745 191.762 214.158 191.762C213.57 191.762 213.007 191.995 212.592 192.411C212.177 192.827 211.943 193.391 211.943 193.979V195.088H202.644C202.145 195.088 201.652 195.201 201.202 195.418C200.752 195.635 200.357 195.951 200.045 196.342C199.734 196.733 199.515 197.19 199.405 197.678C199.294 198.165 199.295 198.672 199.407 199.159L201.57 208.583C201.739 209.316 202.151 209.971 202.739 210.44C203.327 210.909 204.056 211.164 204.808 211.164H211.943V215.599H206.747C206.224 215.599 205.708 215.722 205.241 215.96C204.774 216.198 204.371 216.543 204.062 216.966C203.754 217.39 203.55 217.881 203.467 218.398C203.385 218.916 203.425 219.446 203.586 219.945L206.792 229.909C207.009 230.582 207.434 231.169 208.006 231.583C208.577 231.998 209.266 232.219 209.972 232.215L211.943 232.204V236.479L201.794 242.022C201.358 242.022 200.926 242.108 200.523 242.276C200.12 242.443 199.754 242.688 199.445 242.997C199.137 243.305 198.892 243.672 198.725 244.076C198.558 244.479 198.472 244.912 198.472 245.348C198.472 246.231 198.822 247.077 199.445 247.7C200.068 248.324 200.913 248.674 201.794 248.674H211.943V273.066C211.943 273.654 212.177 274.218 212.592 274.634C213.007 275.049 213.57 275.283 214.158 275.283C214.745 275.283 215.308 275.049 215.724 274.634C216.139 274.218 216.372 273.654 216.372 273.066V248.674H294.8V273.066C294.8 273.654 295.034 274.218 295.449 274.634C295.864 275.049 296.428 275.283 297.015 275.283C297.602 275.283 298.165 275.049 298.581 274.634C298.996 274.218 299.229 273.654 299.229 273.066V248.674H311.778C312.659 248.674 313.504 248.324 314.127 247.7C314.75 247.077 315.1 246.231 315.1 245.348C315.1 244.912 315.014 244.479 314.847 244.076C314.68 243.672 314.435 243.305 314.127 242.997C313.818 242.688 313.452 242.443 313.049 242.275C312.646 242.108 312.214 242.022 311.778 242.022V242.022ZM216.372 211.164H294.8V215.599H216.372L216.372 211.164ZM216.372 236.479V232.179L294.8 231.738V236.479H216.372Z" fill="#7A670C"/>
<path d="M178.699 165.765C177.009 162.632 176.774 158.526 178.848 155.635C179.874 159.368 182.186 162.617 185.374 164.808C186.607 165.648 188.065 166.454 188.487 167.887C188.709 168.8 188.572 169.763 188.105 170.578C187.639 171.383 187.072 172.124 186.418 172.785L186.358 173.009C183.299 171.194 180.389 168.897 178.699 165.765Z" fill="#125D1B"/>
<path d="M250.743 171.999C249.053 168.866 248.817 164.761 250.892 161.869C251.918 165.602 254.23 168.851 257.418 171.042C258.651 171.882 260.109 172.689 260.531 174.121C260.752 175.034 260.616 175.997 260.149 176.812C259.683 177.617 259.115 178.359 258.461 179.019L258.401 179.243C255.342 177.428 252.432 175.132 250.743 171.999Z" fill="#125D1B"/>
<path d="M373.877 287.177C370.485 286.111 367.457 283.332 366.931 279.811C370.266 281.77 374.186 282.486 377.996 281.831C379.465 281.573 381.072 281.132 382.372 281.865C383.166 282.365 383.739 283.151 383.972 284.061C384.198 284.963 384.308 285.891 384.298 286.821L384.411 287.023C380.955 287.858 377.27 288.243 373.877 287.177Z" fill="#125D1B"/>
<path d="M380.103 295.638C376.711 294.572 373.683 291.793 373.157 288.271C376.492 290.231 380.412 290.947 384.223 290.292C385.691 290.034 387.298 289.593 388.598 290.326C389.392 290.825 389.965 291.612 390.198 292.522C390.424 293.424 390.534 294.352 390.524 295.282L390.638 295.484C387.181 296.318 383.496 296.704 380.103 295.638Z" fill="#125D1B"/>
<path d="M360.536 291.185C357.143 290.118 354.116 287.34 353.59 283.818C356.925 285.778 360.844 286.494 364.655 285.838C366.124 285.58 367.731 285.14 369.03 285.873C369.825 286.372 370.398 287.158 370.631 288.069C370.857 288.971 370.966 289.899 370.957 290.829L371.07 291.031C367.613 291.865 363.928 292.251 360.536 291.185Z" fill="#125D1B"/>
<path d="M375.656 281.388C372.264 280.322 369.236 277.543 368.71 274.021C372.045 275.981 375.964 276.697 379.775 276.042C381.244 275.784 382.851 275.343 384.15 276.076C384.945 276.575 385.518 277.362 385.751 278.272C385.977 279.174 386.086 280.102 386.077 281.032L386.19 281.234C382.733 282.068 379.049 282.454 375.656 281.388Z" fill="#125D1B"/>
<path d="M132.095 286.997C128.824 285.601 126.084 282.536 125.908 278.98C129.033 281.26 132.863 282.359 136.72 282.083C138.207 281.971 139.85 281.692 141.071 282.549C141.812 283.125 142.305 283.964 142.447 284.892C142.583 285.813 142.601 286.746 142.5 287.671L142.593 287.884C139.071 288.373 135.366 288.393 132.095 286.997Z" fill="#125D1B"/>
<path d="M155.129 242.802C153.44 239.669 153.204 235.563 155.278 232.672C156.305 236.405 158.616 239.654 161.805 241.845C163.037 242.685 164.496 243.491 164.917 244.924C165.139 245.837 165.002 246.8 164.535 247.615C164.069 248.42 163.502 249.161 162.848 249.822L162.788 250.046C159.729 248.231 156.819 245.935 155.129 242.802Z" fill="#125D1B"/>
<path d="M157.65 271.537C154.292 270.366 151.352 267.495 150.935 263.959C154.208 266.021 158.103 266.858 161.932 266.322C163.409 266.109 165.028 265.719 166.304 266.492C167.083 267.016 167.632 267.819 167.836 268.737C168.034 269.645 168.115 270.576 168.077 271.505L168.184 271.711C164.703 272.438 161.008 272.709 157.65 271.537Z" fill="#125D1B"/>
<path d="M163.876 260.405C160.518 259.234 157.578 256.362 157.161 252.826C160.434 254.889 164.329 255.726 168.159 255.189C169.635 254.977 171.254 254.587 172.531 255.359C173.309 255.883 173.858 256.687 174.062 257.604C174.26 258.513 174.341 259.443 174.303 260.373L174.41 260.578C170.929 261.305 167.234 261.576 163.876 260.405Z" fill="#125D1B"/>
<path d="M151.424 264.412C148.066 263.241 145.125 260.37 144.709 256.834C147.981 258.896 151.877 259.733 155.706 259.197C157.182 258.984 158.802 258.594 160.078 259.367C160.857 259.891 161.405 260.694 161.61 261.612C161.808 262.52 161.889 263.451 161.851 264.38L161.957 264.586C158.477 265.313 154.781 265.584 151.424 264.412Z" fill="#125D1B"/>
<path d="M26.5732 153.452C26.4688 153.452 26.3645 153.452 26.2596 153.45C20.7596 153.369 15.4619 151.36 11.2883 147.772C7.11466 144.185 4.32916 139.245 3.41639 133.814C2.50362 128.382 3.52134 122.802 6.2925 118.044C9.06367 113.286 13.4129 109.652 18.5836 107.773C19.2711 107.529 19.8654 107.077 20.2834 106.479C20.7014 105.88 20.9221 105.166 20.9146 104.436L20.9144 104.352C20.9141 102.472 21.1386 100.598 21.583 98.7703C21.7339 98.1824 21.7264 97.5649 21.5614 96.9808C21.3964 96.3967 21.0797 95.8669 20.6436 95.4453C16.6994 91.7311 13.5704 87.2354 11.4558 82.2444C9.34116 77.2534 8.28715 71.8763 8.36083 66.4552C8.66788 45.2918 26.1215 28.0742 47.268 28.0742L47.4575 28.0747C52.7163 28.0809 57.9182 29.1639 62.7436 31.2571C67.569 33.3504 71.9159 36.4096 75.5172 40.2468C77.327 42.1595 79.5055 43.6847 81.921 44.73C84.3364 45.7753 86.9386 46.3189 89.5699 46.3281L89.6451 46.5506L89.6444 46.3279L89.7988 46.3275C97.1633 46.3493 104.372 48.4529 110.595 52.3961C116.819 56.3394 121.803 61.962 124.976 68.6169C125.148 68.984 125.419 69.2952 125.76 69.5148C126.1 69.7345 126.495 69.8537 126.9 69.8589L127.168 69.8643C134.12 70.0291 140.9 72.0563 146.804 75.7351C152.708 79.4138 157.519 84.6096 160.738 90.7818C163.956 96.954 165.464 103.877 165.104 110.831C164.744 117.784 162.529 124.514 158.691 130.32C154.852 136.126 149.53 140.796 143.278 143.843C137.026 146.891 130.072 148.205 123.141 147.649C116.209 147.093 109.553 144.688 103.865 140.682C98.1775 136.677 93.6654 131.219 90.7987 124.875C90.7114 124.686 90.5717 124.527 90.3963 124.416C90.2209 124.304 90.0173 124.246 89.8097 124.247C87.1354 124.248 84.4681 123.976 81.8494 123.433C72.3267 121.432 62.4221 122.362 53.4373 126.102C53.135 126.227 52.8296 126.346 52.5211 126.46C51.8221 126.713 51.2173 127.175 50.7881 127.783C50.359 128.391 50.126 129.116 50.1206 129.861V129.906C50.1205 136.151 47.6435 142.139 43.2343 146.555C38.8251 150.97 32.8448 153.452 26.6088 153.452H26.5732V153.452Z" fill="#032C17"/>
<path d="M86.6574 272.341C85.3046 272.346 83.9713 272.018 82.7739 271.388C81.5766 270.757 80.5517 269.843 79.7887 268.724C78.9487 267.514 78.441 266.104 78.3164 264.635C78.1917 263.167 78.4546 261.691 79.0786 260.356C83.77 250.152 85.472 238.79 84.1373 226.585C80.857 196.587 50.9403 149.765 50.6385 149.296L36.9038 131.796C33.7762 127.81 35.3123 123.533 38.0633 121.246C40.77 118.994 45.1823 118.282 48.4724 122.038C49.4244 123.044 50.1592 124.236 50.6312 125.539C51.5598 119.431 55.1801 91.8262 48.781 69.1C46.7793 61.9901 51.2275 57.0734 56.2075 55.5141C61.097 53.9835 67.4331 55.4652 69.793 62.3347C71.1598 66.3125 71.5957 70.8156 71.0894 75.7186C69.7893 88.3021 68.8072 100.03 68.1703 110.578C68.0975 111.783 68.4099 112.98 69.0622 113.996C69.7144 115.012 70.6726 115.793 71.798 116.227C72.9234 116.661 74.1576 116.725 75.3217 116.41C76.4858 116.094 77.5194 115.416 78.2728 114.473L89.0179 101.033C95.4822 92.9472 105.205 92.6295 111.973 95.9017C118.107 98.8668 124.416 106.072 122.011 116.618C121.435 119.144 120.398 121.156 118.929 122.6C118.622 122.902 118.31 123.204 117.994 123.507C110.84 130.346 105.979 139.237 104.08 148.957C102.18 158.677 103.337 168.747 107.389 177.782C116.991 199.012 123.345 217.222 126.275 231.906C130.3 252.079 127.645 264.953 118.383 270.17L118.297 270.195L87.2491 272.321L87.2352 272.119L87.2491 272.321C87.0511 272.334 86.8535 272.341 86.6574 272.341Z" fill="#412E0A"/>
<path d="M23.4817 125.378C23.3775 125.378 23.2737 125.377 23.169 125.376C17.669 125.295 12.3713 123.286 8.19756 119.698C4.02388 116.111 1.23835 111.171 0.32557 105.74C-0.587207 100.308 0.430537 94.7278 3.20174 89.9699C5.97295 85.212 10.3222 81.5774 15.493 79.6984C16.1805 79.4552 16.7748 79.0027 17.1928 78.4045C17.6108 77.8062 17.8315 77.092 17.824 76.3619L17.8238 76.2782C17.8234 74.3975 18.0479 72.5235 18.4924 70.6963C18.6432 70.1083 18.6358 69.4909 18.4707 68.9067C18.3057 68.3226 17.9889 67.7927 17.5528 67.3711C13.6086 63.6568 10.4797 59.1612 8.36514 54.1702C6.25054 49.1792 5.19656 43.8021 5.27023 38.381C5.57727 17.2176 23.0309 0 44.1774 0L44.3667 0.000445058C49.6255 0.00669873 54.8274 1.08972 59.6529 3.18294C64.4783 5.27616 68.8252 8.33536 72.4266 12.1725C74.2363 14.0853 76.4148 15.6104 78.8303 16.6557C81.2457 17.701 83.8478 18.2447 86.4791 18.2539L86.5543 18.4764L86.5536 18.2537L86.7082 18.2533C94.0727 18.2752 101.281 20.3788 107.505 24.322C113.728 28.2653 118.713 33.8879 121.885 40.5427C122.057 40.9098 122.329 41.2209 122.669 41.4406C123.009 41.6602 123.404 41.7795 123.809 41.7847L124.077 41.7901C131.029 41.9549 137.809 43.9821 143.713 47.6609C149.617 51.3396 154.428 56.5354 157.647 62.7076C160.865 68.8798 162.373 75.8029 162.013 82.7564C161.653 89.7099 159.438 96.4397 155.6 102.246C151.761 108.052 146.439 112.721 140.187 115.769C133.935 118.817 126.981 120.131 120.05 119.575C113.119 119.019 106.463 116.614 100.775 112.608C95.0867 108.603 90.5746 103.144 87.7079 96.8008C87.6206 96.6122 87.4809 96.4528 87.3055 96.3415C87.1301 96.2302 86.9265 96.1717 86.7189 96.1731C84.0446 96.1741 81.3773 95.9013 78.7585 95.3588C69.236 93.357 59.3313 94.2872 50.3467 98.0274C50.0442 98.1528 49.7387 98.2722 49.4303 98.3855C48.7313 98.6391 48.1266 99.101 47.6974 99.709C47.2683 100.317 47.0353 101.042 47.0298 101.786V101.832C47.0297 108.076 44.5527 114.065 40.1434 118.481C35.7342 122.896 29.754 125.377 23.518 125.378H23.4817V125.378Z" fill="#053518"/>
<path d="M122.243 61.1664C122.315 61.1552 122.387 61.1447 122.46 61.1344C126.281 60.6016 130.167 61.427 133.443 63.4669C136.719 65.5069 139.178 68.6323 140.39 72.2994C141.603 75.9666 141.493 79.9434 140.081 83.538C138.668 87.1326 136.041 90.1176 132.658 91.9736C132.207 92.2158 131.844 92.593 131.618 93.0525C131.392 93.5119 131.315 94.0306 131.399 94.5358L131.408 94.5938C131.609 95.8974 131.653 97.2203 131.54 98.5345C131.499 98.9582 131.57 99.3854 131.746 99.7726C131.923 100.16 132.199 100.493 132.547 100.739C137.061 103.834 140.542 108.217 142.537 113.318C144.532 118.419 144.95 124.003 143.736 129.345C142.522 134.687 139.732 139.541 135.729 143.275C131.726 147.009 126.694 149.452 121.286 150.287L121.155 150.307C117.509 150.866 113.788 150.672 110.22 149.738C106.652 148.804 103.312 147.149 100.406 144.874C98.9472 143.742 97.2743 142.918 95.4885 142.453C93.7026 141.987 91.8409 141.888 90.016 142.164L89.9402 142.018L89.9644 142.172L89.8573 142.189C84.7503 142.962 79.5291 142.276 74.7944 140.209C70.0598 138.142 66.0042 134.778 63.0943 130.505C62.9361 130.269 62.7146 130.083 62.4553 129.967C62.196 129.851 61.9094 129.811 61.6283 129.851L61.442 129.875C56.6059 130.506 51.6896 129.826 47.2045 127.909C42.7194 125.991 38.8296 122.905 35.9398 118.971C33.0499 115.037 31.2656 110.4 30.7726 105.542C30.2796 100.684 31.0959 95.7817 33.1365 91.3464C35.1771 86.9111 38.3674 83.1045 42.3755 80.3225C46.3837 77.5406 51.0631 75.8851 55.9269 75.5283C60.7908 75.1714 65.6612 76.1263 70.0315 78.2935C74.4018 80.4608 78.1122 83.7612 80.7766 87.8513C80.8573 87.9726 80.9711 88.0682 81.1046 88.1266C81.238 88.1849 81.3854 88.2036 81.5292 88.1805C83.3827 87.8934 85.2606 87.7969 87.1338 87.8926C93.948 88.2606 100.714 86.5553 106.542 83.0008C106.738 82.8815 106.937 82.766 107.139 82.6545C107.597 82.4038 107.966 82.0189 108.199 81.5516C108.431 81.0842 108.516 80.5568 108.44 80.0402L108.435 80.0084C107.768 75.6802 108.846 71.2641 111.43 67.7314C114.015 64.1986 117.895 61.8386 122.218 61.1703V61.1703L122.243 61.1664Z" fill="#09421A"/>
<path d="M404.617 137.436C398.331 137.436 388.492 154.374 388.391 154.549C379.325 166.135 370.001 195.473 365.249 211.932C364.709 213.8 364.562 215.76 364.817 217.688C365.073 219.616 365.725 221.47 366.733 223.132C367.742 224.794 369.084 226.229 370.674 227.345C372.265 228.461 374.07 229.234 375.975 229.615C385.908 231.601 394.354 234.424 401.076 238.005C416.99 246.484 435.861 238.468 437.773 237.614L431.509 205.207C424.554 182.076 410.082 138.167 405.074 137.467C404.922 137.446 404.769 137.435 404.617 137.436V137.436Z" fill="#09421A"/>
<path opacity="0.1" d="M431.725 205.153C431.725 205.153 411.579 138.151 405.104 137.245C398.63 136.34 390.847 154.621 390.847 154.621C386.764 171.521 376.572 194.764 369.172 210.46C368.261 212.393 367.794 214.506 367.808 216.643C367.822 218.781 368.315 220.888 369.251 222.808C370.187 224.729 371.542 226.415 373.217 227.74C374.891 229.066 376.842 229.998 378.924 230.467C385.967 232.048 393.996 234.485 400.971 238.201C417.967 247.255 438.024 237.743 438.024 237.743L431.725 205.153Z" fill="#032C17"/>
<path d="M418.897 209.648L386.433 205.64L393.104 176.25L418.897 177.141V209.648Z" fill="#9E616A"/>
<path d="M400.825 335.043L394.318 333.986L395.294 308.355L404.896 309.914L400.825 335.043Z" fill="#9E616A"/>
<path d="M433.25 321.455L427.366 324.428L411.779 301.78L420.464 297.393L433.25 321.455Z" fill="#9E616A"/>
<path d="M414.677 313.221L387.581 244.037C377.884 217.513 386.548 199.232 386.637 199.05L386.682 198.961L386.774 198.927C387.887 203.264 413.115 202.969 418.897 196.289C422.271 199.127 426.762 205.81 427.725 213.796C428.73 222.364 427.967 231.047 425.484 239.307L414.811 275.537L428.016 305.324L414.677 313.221Z" fill="#212529"/>
<path d="M401.611 270.307L391.828 319.983L404.858 322.443L413.056 279.444L401.611 270.307Z" fill="#212529"/>
<path d="M402.976 326.726L402.18 326.677L394.615 326.223L393.548 326.16V330.208L384.583 336.407C384.14 336.713 383.806 337.153 383.631 337.662C383.455 338.172 383.447 338.724 383.608 339.238C383.768 339.753 384.089 340.202 384.523 340.521C384.957 340.84 385.481 341.012 386.019 341.011H397.244L399.178 337.012L399.934 341.011H404.163L402.976 326.726Z" fill="#2F2E41"/>
<path d="M441.666 331.095L432.928 319.74L432.479 319.994L426.599 323.316L424.705 324.385L426.893 327.782L422.721 337.86C422.516 338.357 422.475 338.908 422.604 339.43C422.733 339.953 423.025 340.421 423.438 340.766C423.851 341.111 424.363 341.315 424.899 341.348C425.436 341.381 425.969 341.241 426.422 340.95L435.854 334.854L435.311 330.441L438.113 333.393L441.666 331.095Z" fill="#2F2E41"/>
<path d="M416.788 131.262C425.721 131.262 432.962 124.01 432.962 115.065C432.962 106.12 425.721 98.8691 416.788 98.8691C407.855 98.8691 400.613 106.12 400.613 115.065C400.613 124.01 407.855 131.262 416.788 131.262Z" fill="#2F2E41"/>
<path d="M334.917 183.116C333.425 182.506 332.208 181.37 331.497 179.922C330.785 178.473 330.629 176.814 331.058 175.259C331.487 173.703 332.47 172.359 333.823 171.481C335.175 170.603 336.802 170.253 338.395 170.496L359.147 166.5L366.934 175.763L343.824 178.475C343.617 179.411 343.208 180.29 342.626 181.051C342.043 181.812 341.301 182.435 340.452 182.878C339.603 183.32 338.667 183.571 337.711 183.612C336.755 183.653 335.801 183.484 334.917 183.116H334.917Z" fill="#9E616A"/>
<path d="M399.403 162.414L373.647 178.234L350.411 178.923L343.44 168.771L368.769 164.108L403.65 137.447L399.403 162.414Z" fill="#09421A"/>
<path d="M394.884 152.542C388.594 158.841 394.435 165.589 394.435 165.589L387.246 181.785L415.552 189.434L425.444 145.174L418.704 137.975C417.27 137.927 417.768 133.428 416.623 133.385C412.446 133.225 410.081 133.092 408.743 132.993C406.999 132.864 405.218 137.246 405.218 137.246C402.856 139.56 394.884 152.542 394.884 152.542Z" fill="#715C20"/>
<path d="M444.801 220.713C443.295 219.461 441.911 218.07 440.665 216.558C438.371 213.81 436.318 210.869 434.528 207.768C432.106 203.602 430.079 199.217 428.476 194.672C428.471 194.663 428.471 194.654 428.467 194.645C427.964 193.224 427.499 191.762 427.07 190.259C427.066 190.242 427.06 190.225 427.053 190.21C426.33 187.669 425.745 185.092 425.3 182.488C423.504 171.948 426.99 162.347 430.232 156.149C430.509 155.626 430.745 155.082 430.939 154.523C431.823 152.075 431.892 149.406 431.135 146.915C430.379 144.424 428.837 142.246 426.741 140.705L426.586 140.59C425.304 139.641 423.847 138.956 422.3 138.574C420.752 138.192 419.144 138.121 417.569 138.364C415.994 138.608 414.482 139.161 413.122 139.992C411.761 140.824 410.579 141.917 409.642 143.208C409.63 143.22 409.62 143.234 409.611 143.248C404.07 150.979 398.849 162.405 401.104 176.526C401.641 179.851 402.53 183.109 403.754 186.247C404.128 187.213 404.537 188.188 404.982 189.172C406.8 193.18 408.585 196.941 410.336 200.456C411.87 203.542 413.37 206.438 414.836 209.144C419.581 217.916 423.922 224.689 427.604 229.432C431.864 234.909 435.244 237.674 437.357 237.674C437.572 237.677 437.787 237.644 437.993 237.576C438.001 237.572 438.006 237.572 438.015 237.568C439.66 237.011 441.684 235.297 443.369 233.119C444.93 231.093 446.197 228.666 446.598 226.39C446.896 224.694 446.825 222.334 444.801 220.713Z" fill="#09421A"/>
<path d="M417.619 129.671C423.389 126.512 425.51 119.268 422.355 113.491C419.201 107.713 411.967 105.59 406.197 108.748C400.427 111.906 398.306 119.15 401.461 124.928C404.615 130.706 411.849 132.829 417.619 129.671Z" fill="#9E616A"/>
<path d="M396.498 117.419H413.69L413.867 114.947L414.748 117.419H417.395L417.745 112.52L419.492 117.419H424.614V117.176C424.611 113.766 423.256 110.496 420.848 108.084C418.439 105.673 415.174 104.316 411.768 104.312H409.344C405.938 104.316 402.673 105.673 400.264 108.084C397.856 110.496 396.501 113.766 396.498 117.176V117.419Z" fill="#2F2E41"/>
<path d="M451.887 229.104C451.358 230.629 450.289 231.906 448.882 232.694C447.476 233.482 445.83 233.726 444.256 233.38C442.682 233.034 441.289 232.121 440.342 230.816C439.395 229.51 438.959 227.902 439.116 226.296L434.031 205.758L442.855 197.48L446.786 220.445C447.73 220.602 448.629 220.964 449.419 221.506C450.208 222.048 450.869 222.757 451.355 223.582C451.842 224.408 452.141 225.33 452.233 226.284C452.325 227.238 452.207 228.201 451.887 229.104V229.104Z" fill="#9E616A"/>
<path d="M428.958 147.576L447.507 212.5L437.459 218.464L408.343 148.446L428.958 147.576Z" fill="#09421A"/>
<path d="M461.538 124.579C457.992 122.116 455.787 118.14 454.27 114.094C452.753 110.049 451.798 105.798 450.079 101.834C447.999 97.0484 444.857 92.7994 440.894 89.409C438.356 87.2423 435.403 85.4127 432.112 84.8761C428.82 84.3396 425.152 85.2973 423.046 87.8874C420.941 90.4775 420.946 94.7633 423.495 96.916C422.734 96.114 421.258 96.3127 420.597 97.1995C420.293 97.6632 420.143 98.212 420.171 98.7664C420.199 99.3208 420.403 99.8519 420.752 100.283C421.006 100.602 421.319 100.87 421.673 101.072C422.468 102.851 423.829 104.318 425.543 105.242C427.626 106.271 430.403 106.056 431.981 104.349C433.558 102.642 433.333 99.4531 431.3 98.3268C434.462 97.7173 437.733 99.5555 439.566 102.206C441.399 104.856 442.016 108.167 442.167 111.388C442.318 114.608 442.049 117.843 442.32 121.055C442.592 124.267 443.469 127.555 445.588 129.983C449.059 133.961 455.164 134.703 460.215 133.176C465.265 131.649 469.518 128.273 473.634 124.967C470.21 127.598 465.084 127.042 461.538 124.579Z" fill="#2F2E41"/>
<path d="M321.86 174.242C319.566 175.936 318.983 179.036 319.772 181.665C320.181 183.102 320.99 184.393 322.104 185.388C323.217 186.384 324.59 187.042 326.063 187.286C329.365 187.91 332.9 186.613 335.469 184.559C338.364 182.244 340.043 178.868 341.71 175.642C343.969 171.272 346.448 167.007 348.834 162.706C351.495 157.909 354.155 153.111 356.814 148.312C362.791 137.518 368.741 126.709 374.662 115.884C380.575 105.047 386.422 94.1727 392.201 83.2621C396.884 74.3716 401.522 65.449 405.86 56.3835C406.286 55.4926 406.709 54.5999 407.127 53.7053C407.25 53.3741 407.239 53.0078 407.095 52.6851C406.951 52.3623 406.687 52.109 406.358 51.9795C406.027 51.8598 405.663 51.8731 405.342 52.0166C405.02 52.1602 404.767 52.4227 404.635 52.7493C400.687 61.1923 396.415 69.4847 392.101 77.7449C386.694 88.099 381.188 98.4012 375.585 108.651C369.793 119.309 363.957 129.943 358.078 140.553C352.99 149.758 347.892 158.957 342.784 168.151C341.544 170.389 340.286 172.618 339.112 174.892C337.595 177.831 336.017 180.907 333.266 182.88C330.929 184.556 327.617 185.442 324.911 184.148C322.895 183.183 321.866 180.774 322.143 178.691C322.199 178.216 322.354 177.759 322.597 177.348C322.84 176.937 323.167 176.582 323.555 176.305C324.94 175.282 323.239 173.223 321.86 174.242V174.242Z" fill="#495057"/>
<path d="M466.178 117.387L466.02 117.367C459.959 116.622 453.954 115.724 448.172 114.696C444.057 113.964 440.039 113.168 436.23 112.329C433.018 111.626 429.843 110.873 426.793 110.091C423.393 109.223 420.018 108.29 416.764 107.315C415.406 106.915 414.023 106.491 412.656 106.055C410.122 105.25 407.679 104.431 405.396 103.621C403.18 102.845 400.946 102.017 398.756 101.161C398.709 101.147 398.663 101.13 398.619 101.111C394.18 99.3842 389.822 97.5214 385.67 95.5751C384.866 95.2013 384.066 94.8219 383.271 94.4369C359.319 82.8469 339.266 67.1217 323.669 47.698L323.581 47.5878L323.643 47.4608C331.98 30.3376 346.413 16.9569 364.103 9.94931C381.794 2.94174 401.463 2.81433 419.243 9.59213C421.433 10.43 423.59 11.3675 425.653 12.3787L431.207 15.0978C434.208 16.5666 437.111 18.2294 439.897 20.0756C455.31 30.318 466.48 45.8204 471.328 63.6961C476.175 81.5718 474.37 100.602 466.247 117.244L466.178 117.387Z" fill="#3E9D41"/>
<path d="M334.781 58.3861C355.48 43.0223 378.05 30.3623 401.945 20.7121C408.648 18.0034 415.443 15.5376 422.328 13.3145C423.143 13.0512 422.579 11.8397 421.769 12.1012C397.14 20.06 373.626 31.1338 351.798 45.0542C345.698 48.9391 339.744 53.0392 333.933 57.3546C333.242 57.8677 334.092 58.8973 334.781 58.3861V58.3861Z" fill="#212529"/>
<path d="M435.635 17.7012C435.556 17.8145 435.516 17.9499 435.519 18.0878C435.523 18.2257 435.57 18.3589 435.654 18.4681C439.422 23.6996 442.617 29.3217 445.184 35.2375C447.752 41.1532 449.71 47.3161 451.027 53.6302C452.357 59.9448 453.057 66.3764 453.114 72.8298C453.174 79.282 452.584 85.7238 451.356 92.0579C450.304 97.4744 448.759 102.783 446.738 107.916C446.4 108.778 446.048 109.634 445.681 110.485C445.364 111.219 445.037 111.948 444.7 112.671C444.338 113.454 445.588 113.925 445.949 113.15C446.391 112.191 446.819 111.226 447.222 110.25C449.338 105.196 450.997 99.9625 452.18 94.6122C453.59 88.2307 454.346 81.7217 454.435 75.1864C454.53 68.6417 453.979 62.1036 452.791 55.6674C451.604 49.2383 449.772 42.9458 447.321 36.886C444.864 30.8025 441.759 25.0016 438.062 19.5836C437.894 19.3347 437.721 19.0853 437.548 18.8403L435.635 17.7012Z" fill="#212529"/>
<path d="M369.427 86.3699L390.834 60.5404L412.241 34.7109L424.291 20.1712C424.841 19.5078 423.756 18.7299 423.21 19.3885L401.803 45.218L380.395 71.0475L368.345 85.5872C367.795 86.2505 368.881 87.0285 369.427 86.3699H369.427Z" fill="#212529"/>
<path d="M416.274 106.307L422.359 74.6773L428.423 43.1567L431.843 25.3786C432.005 24.5348 430.676 24.4111 430.515 25.2495L424.43 56.8791L418.366 88.3997L414.946 106.178C414.784 107.022 416.112 107.145 416.274 106.307V106.307Z" fill="#212529"/>
<path d="M439.774 20.2615C438.477 22.5805 436.423 24.3821 433.956 25.3639C431.49 26.3456 428.761 26.4477 426.228 25.653C423.695 24.8583 421.512 23.2152 420.046 20.9996C418.58 18.7839 417.92 16.1307 418.176 13.4853C418.297 12.2104 418.631 10.965 419.164 9.80078C421.313 10.6228 423.444 11.5489 425.556 12.5791L431.11 15.2981C434.103 16.7621 436.997 18.42 439.774 20.2615V20.2615Z" fill="#212529"/>
<path d="M169.588 27.5386C171.663 34.7999 174.769 41.7249 178.813 48.1009C179.963 49.9128 181.188 51.6744 182.487 53.3855C182.999 54.0618 184.158 53.3969 183.639 52.7112C179.126 46.763 175.496 40.1933 172.859 33.2056C172.116 31.2262 171.454 29.2188 170.874 27.1835C170.822 27.0181 170.708 26.8793 170.557 26.7964C170.405 26.7134 170.226 26.6928 170.06 26.7389C169.893 26.7849 169.75 26.8941 169.662 27.0433C169.574 27.1925 169.547 27.3701 169.588 27.5386H169.588Z" fill="#DDF2FF"/>
<path d="M209.098 56.478L217.202 70.5946C217.295 70.7411 217.44 70.846 217.609 70.8871C217.777 70.9282 217.954 70.9023 218.104 70.8148C218.253 70.7273 218.363 70.5852 218.41 70.4183C218.456 70.2514 218.436 70.0728 218.354 69.9203L210.25 55.8038C210.158 55.6572 210.012 55.5523 209.844 55.5112C209.676 55.4702 209.498 55.4961 209.349 55.5835C209.199 55.671 209.09 55.8132 209.043 55.9801C208.996 56.1469 209.016 56.3255 209.098 56.478V56.478Z" fill="#DDF2FF"/>
<path d="M227.181 36.3038L233.781 50.4202C234.144 51.1982 235.295 50.5207 234.933 49.7459L228.332 35.6296C227.969 34.8516 226.818 35.5291 227.181 36.3038Z" fill="#DDF2FF"/>
<path d="M292.773 45.7945C294.848 53.0558 297.955 59.9807 301.998 66.3567C303.149 68.1687 304.374 69.9302 305.672 71.6413C306.185 72.3177 307.344 71.6528 306.824 70.9671C302.312 65.0189 298.681 58.4491 296.045 51.4614C295.301 49.482 294.639 47.4747 294.06 45.4393C294.008 45.274 293.894 45.1352 293.742 45.0522C293.59 44.9693 293.412 44.9487 293.245 44.9947C293.078 45.0408 292.936 45.1499 292.848 45.2991C292.76 45.4483 292.733 45.6259 292.773 45.7945H292.773Z" fill="#DDF2FF"/>
<path d="M332.284 74.7358L340.388 88.8524C340.48 88.9989 340.626 89.1038 340.794 89.1449C340.962 89.186 341.14 89.1601 341.289 89.0726C341.439 88.9851 341.548 88.843 341.595 88.6761C341.642 88.5092 341.622 88.3307 341.54 88.1781L333.436 74.0616C333.343 73.915 333.198 73.8101 333.029 73.7691C332.861 73.728 332.684 73.7539 332.534 73.8414C332.385 73.9288 332.275 74.071 332.228 74.2379C332.182 74.4047 332.201 74.5833 332.284 74.7358V74.7358Z" fill="#DDF2FF"/>
<path d="M350.366 54.5597L356.966 68.676C357.33 69.454 358.48 68.7765 358.118 68.0018L351.518 53.8854C351.154 53.1074 350.004 53.7849 350.366 54.5597Z" fill="#DDF2FF"/>
<path d="M272.761 132.183C274.836 139.444 277.943 146.369 281.986 152.745C283.137 154.557 284.362 156.319 285.66 158.03C286.172 158.706 287.331 158.041 286.812 157.356C282.3 151.408 278.669 144.838 276.033 137.85C275.289 135.871 274.627 133.863 274.047 131.828C273.996 131.663 273.882 131.524 273.73 131.441C273.578 131.358 273.4 131.337 273.233 131.383C273.066 131.429 272.924 131.539 272.836 131.688C272.747 131.837 272.721 132.015 272.761 132.183H272.761Z" fill="#DDF2FF"/>
<path d="M312.271 161.124L320.376 175.241C320.468 175.388 320.614 175.492 320.782 175.534C320.95 175.575 321.128 175.549 321.277 175.461C321.426 175.374 321.536 175.232 321.583 175.065C321.63 174.898 321.61 174.719 321.528 174.567L313.423 160.45C313.331 160.304 313.185 160.199 313.017 160.158C312.849 160.117 312.672 160.143 312.522 160.23C312.373 160.317 312.263 160.46 312.216 160.627C312.169 160.793 312.189 160.972 312.271 161.124V161.124Z" fill="#DDF2FF"/>
<path d="M330.354 140.948L336.954 155.065C337.318 155.843 338.468 155.165 338.106 154.39L331.506 140.274C331.142 139.496 329.992 140.174 330.354 140.948Z" fill="#DDF2FF"/>
<path d="M138.013 168.253C140.088 175.515 143.195 182.44 147.238 188.816C148.389 190.628 149.614 192.389 150.913 194.1C151.425 194.777 152.584 194.112 152.065 193.426C147.552 187.478 143.922 180.908 141.285 173.92C140.541 171.941 139.88 169.934 139.3 167.898C139.248 167.733 139.134 167.594 138.982 167.511C138.83 167.428 138.652 167.408 138.485 167.454C138.318 167.5 138.176 167.609 138.088 167.758C138 167.907 137.973 168.085 138.013 168.253H138.013Z" fill="#DDF2FF"/>
<path d="M177.524 197.195L185.628 211.311C185.72 211.458 185.866 211.563 186.034 211.604C186.202 211.645 186.38 211.619 186.529 211.532C186.679 211.444 186.789 211.302 186.835 211.135C186.882 210.968 186.862 210.79 186.78 210.637L178.676 196.521C178.583 196.374 178.438 196.269 178.27 196.228C178.101 196.187 177.924 196.213 177.775 196.3C177.625 196.388 177.515 196.53 177.469 196.697C177.422 196.864 177.442 197.042 177.524 197.195V197.195Z" fill="#DDF2FF"/>
<path d="M195.606 177.019L202.206 191.135C202.57 191.913 203.72 191.236 203.358 190.461L196.758 176.344C196.394 175.566 195.244 176.244 195.606 177.019Z" fill="#DDF2FF"/>
<path d="M308.783 213.228C310.858 220.489 313.965 227.414 318.008 233.79C319.159 235.602 320.384 237.364 321.682 239.075C322.194 239.751 323.353 239.086 322.834 238.401C318.322 232.452 314.691 225.883 312.055 218.895C311.311 216.916 310.649 214.908 310.069 212.873C310.018 212.708 309.904 212.569 309.752 212.486C309.6 212.403 309.422 212.382 309.255 212.428C309.088 212.474 308.946 212.584 308.857 212.733C308.769 212.882 308.743 213.06 308.783 213.228H308.783Z" fill="#DDF2FF"/>
<path d="M348.293 242.169L356.398 256.286C356.49 256.433 356.636 256.537 356.804 256.579C356.972 256.62 357.15 256.594 357.299 256.506C357.448 256.419 357.558 256.277 357.605 256.11C357.652 255.943 357.632 255.764 357.55 255.612L349.445 241.495C349.353 241.349 349.207 241.244 349.039 241.203C348.871 241.162 348.694 241.188 348.544 241.275C348.395 241.362 348.285 241.505 348.238 241.671C348.191 241.838 348.211 242.017 348.293 242.169V242.169Z" fill="#DDF2FF"/>
<path d="M366.375 221.993L372.975 236.11C373.339 236.888 374.49 236.21 374.127 235.435L367.527 221.319C367.164 220.541 366.013 221.219 366.375 221.993Z" fill="#DDF2FF"/>
<path d="M382.16 165.582C384.235 172.843 387.342 179.768 391.385 186.144C392.536 187.956 393.761 189.717 395.06 191.428C395.572 192.105 396.731 191.44 396.212 190.754C391.699 184.806 388.069 178.236 385.432 171.249C384.688 169.269 384.027 167.262 383.447 165.226C383.395 165.061 383.281 164.922 383.129 164.839C382.977 164.756 382.799 164.736 382.632 164.782C382.465 164.828 382.323 164.937 382.235 165.086C382.147 165.235 382.12 165.413 382.16 165.582H382.16Z" fill="#DDF2FF"/>
<path d="M421.671 194.523L429.775 208.639C429.867 208.786 430.013 208.891 430.181 208.932C430.349 208.973 430.527 208.947 430.676 208.86C430.826 208.772 430.936 208.63 430.982 208.463C431.029 208.296 431.009 208.118 430.927 207.965L422.823 193.849C422.73 193.702 422.585 193.597 422.417 193.556C422.248 193.515 422.071 193.541 421.922 193.628C421.772 193.716 421.662 193.858 421.616 194.025C421.569 194.192 421.589 194.37 421.671 194.523V194.523Z" fill="#DDF2FF"/>
<path d="M439.753 174.347L446.353 188.463C446.717 189.241 447.868 188.564 447.505 187.789L440.905 173.673C440.542 172.895 439.391 173.572 439.753 174.347Z" fill="#DDF2FF"/>
<path d="M399.059 64.9429C401.134 72.2042 404.241 79.1292 408.284 85.5051C409.435 87.3171 410.66 89.0787 411.959 90.7897C412.471 91.4661 413.63 90.8012 413.111 90.1155C408.598 84.1673 404.967 77.5976 402.331 70.6099C401.587 68.6305 400.926 66.6231 400.346 64.5878C400.294 64.4224 400.18 64.2836 400.028 64.2007C399.876 64.1177 399.698 64.0971 399.531 64.1432C399.364 64.1892 399.222 64.2984 399.134 64.4476C399.046 64.5968 399.019 64.7744 399.059 64.9429H399.059Z" fill="#DDF2FF"/>
<path d="M438.57 93.8843L446.674 108.001C446.766 108.147 446.912 108.252 447.08 108.293C447.248 108.334 447.426 108.309 447.575 108.221C447.725 108.134 447.834 107.991 447.881 107.825C447.928 107.658 447.908 107.479 447.826 107.327L439.722 93.21C439.629 93.0635 439.484 92.9586 439.316 92.9175C439.147 92.8764 438.97 92.9023 438.82 92.9898C438.671 93.0773 438.561 93.2194 438.515 93.3863C438.468 93.5532 438.488 93.7317 438.57 93.8843V93.8843Z" fill="#DDF2FF"/>
<path d="M456.652 73.7081L463.252 87.8245C463.616 88.6025 464.767 87.925 464.404 87.1502L457.804 73.0339C457.44 72.2559 456.29 72.9334 456.652 73.7081Z" fill="#DDF2FF"/>
<path d="M38.8425 29.3179C40.9175 36.5792 44.0243 43.5042 48.0675 49.8801C49.2183 51.6921 50.4431 53.4537 51.7418 55.1647C52.2539 55.8411 53.413 55.1762 52.8938 54.4905C48.3813 48.5423 44.7506 41.9726 42.1142 34.9849C41.3705 33.0055 40.7088 30.9981 40.129 28.9628C40.0772 28.7974 39.9634 28.6586 39.8114 28.5757C39.6595 28.4927 39.4813 28.4721 39.3144 28.5182C39.1476 28.5642 39.0051 28.6734 38.9171 28.8226C38.829 28.9718 38.8023 29.1494 38.8425 29.3179H38.8425Z" fill="#DDF2FF"/>
<path d="M78.353 58.2593L86.4572 72.3758C86.5496 72.5224 86.6952 72.6273 86.8634 72.6683C87.0316 72.7094 87.2091 72.6835 87.3585 72.596C87.508 72.5086 87.6176 72.3664 87.6644 72.1995C87.7112 72.0326 87.6914 71.8541 87.6092 71.7016L79.505 57.585C79.4126 57.4385 79.2669 57.3336 79.0988 57.2925C78.9306 57.2514 78.7531 57.2773 78.6036 57.3648C78.4542 57.4523 78.3445 57.5944 78.2978 57.7613C78.251 57.9282 78.2708 58.1067 78.353 58.2593V58.2593Z" fill="#DDF2FF"/>
<path d="M96.4349 38.0851L103.035 52.2014C103.399 52.9794 104.549 52.3019 104.187 51.5272L97.5869 37.4108C97.2231 36.6328 96.0727 37.3103 96.4349 38.0851V38.0851Z" fill="#DDF2FF"/>
<path d="M66.8591 85.8726C68.9341 93.1339 72.0409 100.059 76.0841 106.435C77.2349 108.247 78.4597 110.008 79.7584 111.719C80.2705 112.396 81.4296 111.731 80.9104 111.045C76.3979 105.097 72.7672 98.5273 70.1308 91.5396C69.3871 89.5601 68.7254 87.5528 68.1456 85.5175C68.0938 85.3521 67.98 85.2133 67.828 85.1304C67.6761 85.0474 67.4979 85.0268 67.331 85.0729C67.1642 85.1189 67.0217 85.2281 66.9337 85.3773C66.8456 85.5265 66.8189 85.7041 66.8591 85.8726H66.8591Z" fill="#DDF2FF"/>
<path d="M106.37 114.814L114.474 128.93C114.566 129.077 114.712 129.182 114.88 129.223C115.048 129.264 115.226 129.238 115.375 129.151C115.525 129.063 115.634 128.921 115.681 128.754C115.728 128.587 115.708 128.409 115.626 128.256L107.522 114.14C107.429 113.993 107.284 113.888 107.115 113.847C106.947 113.806 106.77 113.832 106.62 113.919C106.471 114.007 106.361 114.149 106.314 114.316C106.268 114.483 106.287 114.661 106.37 114.814Z" fill="#DDF2FF"/>
<path d="M124.452 94.6378L131.052 108.754C131.416 109.532 132.566 108.855 132.204 108.08L125.604 93.9635C125.24 93.1856 124.09 93.8631 124.452 94.6378V94.6378Z" fill="#DDF2FF"/>
<path d="M2.37618 187.847C4.45122 195.109 7.55799 202.033 11.6012 208.409C12.752 210.221 13.9768 211.983 15.2755 213.694C15.7876 214.37 16.9467 213.706 16.4275 213.02C11.915 207.072 8.28433 200.502 5.64789 193.514C4.9042 191.535 4.24245 189.527 3.66265 187.492C3.6109 187.327 3.49705 187.188 3.34509 187.105C3.19314 187.022 3.01495 187.001 2.84811 187.047C2.68127 187.094 2.53881 187.203 2.45076 187.352C2.36272 187.501 2.33597 187.679 2.37617 187.847H2.37618Z" fill="#DDF2FF"/>
<path d="M41.8862 216.787L49.9904 230.903C50.0828 231.05 50.2284 231.155 50.3966 231.196C50.5648 231.237 50.7423 231.211 50.8917 231.123C51.0412 231.036 51.1508 230.894 51.1976 230.727C51.2444 230.56 51.2246 230.381 51.1424 230.229L43.0382 216.112C42.9458 215.966 42.8001 215.861 42.632 215.82C42.4638 215.779 42.2863 215.805 42.1368 215.892C41.9874 215.98 41.8777 216.122 41.831 216.289C41.7842 216.456 41.804 216.634 41.8862 216.787V216.787Z" fill="#DDF2FF"/>
<path d="M59.9686 196.612L66.5688 210.729C66.9325 211.507 68.083 210.829 67.7207 210.055L61.1206 195.938C60.7568 195.16 59.6063 195.838 59.9686 196.612Z" fill="#DDF2FF"/>
<path d="M181.151 108.138C183.226 115.4 186.332 122.324 190.376 128.7C191.526 130.512 192.751 132.274 194.05 133.985C194.562 134.661 195.721 133.997 195.202 133.311C190.689 127.363 187.059 120.793 184.422 113.805C183.679 111.826 183.017 109.818 182.437 107.783C182.385 107.618 182.271 107.479 182.12 107.396C181.968 107.313 181.789 107.292 181.623 107.338C181.456 107.385 181.313 107.494 181.225 107.643C181.137 107.792 181.11 107.97 181.151 108.138H181.151Z" fill="#DDF2FF"/>
<path d="M220.661 137.078L228.765 151.194C228.857 151.341 229.003 151.446 229.171 151.487C229.339 151.528 229.517 151.502 229.666 151.414C229.816 151.327 229.925 151.185 229.972 151.018C230.019 150.851 229.999 150.672 229.917 150.52L221.813 136.403C221.72 136.257 221.575 136.152 221.406 136.111C221.238 136.07 221.061 136.096 220.911 136.183C220.762 136.271 220.652 136.413 220.605 136.58C220.559 136.747 220.578 136.925 220.661 137.078V137.078Z" fill="#DDF2FF"/>
<path d="M238.743 116.903L245.343 131.02C245.707 131.798 246.857 131.12 246.495 130.346L239.895 116.229C239.531 115.451 238.381 116.129 238.743 116.903Z" fill="#DDF2FF"/>
</g>
<defs>
<clipPath id="clip0_993_10192">
<rect width="474" height="367" fill="white"/>
</clipPath>
</defs>
</svg>
