<svg width="152" height="128" viewBox="0 0 152 128" fill="none" xmlns="http://www.w3.org/2000/svg">
<g clip-path="url(#clip0_993_8981)">
<path d="M125.704 103.291L75.6079 80.2955L101.403 23.4805L151.5 46.4761L125.704 103.291Z" fill="#E9ECEF"/>
<path d="M133.336 70.2835L95.4114 52.8752C95.34 52.8424 95.2844 52.7824 95.257 52.7084C95.2295 52.6344 95.2324 52.5525 95.265 52.4807C95.2976 52.4089 95.3573 52.353 95.4309 52.3254C95.5044 52.2978 95.5859 52.3007 95.6573 52.3335L133.582 69.7419C133.653 69.7747 133.709 69.8346 133.736 69.9086C133.764 69.9826 133.761 70.0645 133.728 70.1363C133.696 70.2082 133.636 70.264 133.562 70.2916C133.489 70.3192 133.407 70.3163 133.336 70.2835V70.2835Z" fill="#F8F9FA"/>
<path d="M135.445 65.639L97.5203 48.2306C97.4849 48.2144 97.4531 48.1913 97.4266 48.1627C97.4001 48.1341 97.3794 48.1005 97.3658 48.0639C97.3523 48.0273 97.346 47.9883 97.3474 47.9492C97.3487 47.9102 97.3578 47.8717 97.3739 47.8362C97.3901 47.8006 97.413 47.7686 97.4415 47.7419C97.4699 47.7153 97.5033 47.6946 97.5397 47.6809C97.5762 47.6672 97.6149 47.6609 97.6538 47.6623C97.6926 47.6637 97.7308 47.6728 97.7662 47.689L135.691 65.0973C135.726 65.1136 135.758 65.1367 135.784 65.1653C135.811 65.1939 135.831 65.2275 135.845 65.2641C135.859 65.3007 135.865 65.3397 135.864 65.3787C135.862 65.4178 135.853 65.4562 135.837 65.4918C135.821 65.5274 135.798 65.5594 135.769 65.586C135.741 65.6127 135.708 65.6334 135.671 65.6471C135.635 65.6607 135.596 65.6671 135.557 65.6657C135.518 65.6643 135.48 65.6552 135.445 65.639V65.639Z" fill="#F8F9FA"/>
<path d="M137.554 60.9944L99.6292 43.5861C99.5938 43.5699 99.562 43.5468 99.5355 43.5182C99.509 43.4896 99.4883 43.456 99.4747 43.4194C99.4611 43.3827 99.4549 43.3438 99.4562 43.3047C99.4576 43.2656 99.4666 43.2272 99.4828 43.1916C99.4989 43.1561 99.5219 43.1241 99.5503 43.0974C99.5788 43.0708 99.6122 43.05 99.6486 43.0364C99.6851 43.0227 99.7238 43.0164 99.7627 43.0178C99.8015 43.0192 99.8397 43.0282 99.8751 43.0445L137.8 60.4528C137.871 60.4857 137.926 60.5457 137.954 60.6196C137.981 60.6935 137.978 60.7753 137.945 60.847C137.913 60.9188 137.853 60.9746 137.78 61.0022C137.706 61.0298 137.625 61.0271 137.554 60.9944V60.9944Z" fill="#F8F9FA"/>
<path d="M139.663 56.3499L101.738 38.9416C101.703 38.9253 101.671 38.9022 101.644 38.8736C101.618 38.845 101.597 38.8115 101.584 38.7748C101.57 38.7382 101.564 38.6992 101.565 38.6602C101.567 38.6211 101.576 38.5827 101.592 38.5471C101.608 38.5116 101.631 38.4795 101.659 38.4529C101.688 38.4262 101.721 38.4055 101.758 38.3918C101.794 38.3782 101.833 38.3718 101.872 38.3732C101.91 38.3746 101.949 38.3837 101.984 38.3999L139.908 55.8083C139.944 55.8245 139.976 55.8476 140.002 55.8762C140.029 55.9048 140.049 55.9384 140.063 55.975C140.076 56.0117 140.083 56.0506 140.081 56.0897C140.08 56.1288 140.071 56.1672 140.055 56.2027C140.039 56.2383 140.016 56.2703 139.987 56.297C139.959 56.3236 139.925 56.3444 139.889 56.358C139.853 56.3717 139.814 56.378 139.775 56.3766C139.736 56.3752 139.698 56.3662 139.663 56.3499V56.3499Z" fill="#F8F9FA"/>
<path d="M131.43 74.4827L93.5056 57.0744C93.4703 57.0581 93.4384 57.0351 93.4119 57.0065C93.3854 56.9778 93.3648 56.9443 93.3512 56.9076C93.3376 56.871 93.3313 56.832 93.3327 56.793C93.3341 56.7539 93.3431 56.7155 93.3593 56.6799C93.3754 56.6444 93.3984 56.6123 93.4268 56.5857C93.4553 56.5591 93.4887 56.5383 93.5251 56.5246C93.5615 56.511 93.6003 56.5047 93.6391 56.506C93.678 56.5074 93.7162 56.5165 93.7516 56.5327L131.676 73.9411C131.747 73.9739 131.803 74.0339 131.83 74.1078C131.858 74.1818 131.855 74.2637 131.822 74.3355C131.79 74.4074 131.73 74.4632 131.657 74.4908C131.583 74.5184 131.502 74.5155 131.43 74.4827V74.4827Z" fill="#F8F9FA"/>
<path d="M137.763 49.5373L108.139 35.9392C107.973 35.867 107.838 35.7358 107.761 35.5704C107.685 35.405 107.671 35.217 107.723 35.0422C107.755 34.9471 107.806 34.8599 107.874 34.7861C107.941 34.7123 108.023 34.6536 108.115 34.6137C108.206 34.5738 108.305 34.5537 108.405 34.5547C108.505 34.5557 108.603 34.5777 108.694 34.6193L138.309 48.2133C138.478 48.2859 138.615 48.4191 138.693 48.5871C138.771 48.7552 138.785 48.9464 138.731 49.1238C138.698 49.2176 138.646 49.3035 138.578 49.376C138.511 49.4485 138.429 49.506 138.338 49.5449C138.247 49.5838 138.148 49.6032 138.05 49.6019C137.951 49.6006 137.853 49.5786 137.763 49.5373V49.5373Z" fill="#F8F9FA"/>
<path d="M23.7781 46.4761L73.8746 23.4805L99.67 80.2955L49.5735 103.291L23.7781 46.4761Z" fill="#E9ECEF"/>
<path d="M41.9422 70.2835L79.8667 52.8752C79.902 52.8589 79.9339 52.8358 79.9604 52.8072C79.9869 52.7786 80.0075 52.745 80.0211 52.7084C80.0347 52.6718 80.041 52.6328 80.0396 52.5938C80.0382 52.5547 80.0292 52.5163 80.0131 52.4807C79.9969 52.4451 79.9739 52.4131 79.9455 52.3865C79.917 52.3598 79.8836 52.3391 79.8472 52.3254C79.8108 52.3118 79.7721 52.3054 79.7332 52.3068C79.6943 52.3082 79.6561 52.3173 79.6208 52.3335L41.6963 69.7419C41.6609 69.7581 41.6291 69.7812 41.6026 69.8098C41.5761 69.8384 41.5555 69.872 41.5419 69.9086C41.5283 69.9452 41.522 69.9842 41.5234 70.0233C41.5248 70.0623 41.5338 70.1008 41.5499 70.1363C41.5661 70.1719 41.589 70.2039 41.6175 70.2306C41.6459 70.2572 41.6793 70.2779 41.7158 70.2916C41.7522 70.3053 41.7909 70.3116 41.8298 70.3102C41.8687 70.3088 41.9069 70.2997 41.9422 70.2835V70.2835Z" fill="#F8F9FA"/>
<path d="M39.8333 65.639L77.7578 48.2306C77.8292 48.1978 77.8848 48.1379 77.9122 48.0639C77.9397 47.9899 77.9368 47.908 77.9042 47.8362C77.8716 47.7644 77.8119 47.7085 77.7383 47.6809C77.6648 47.6533 77.5833 47.6562 77.5119 47.689L39.5874 65.0973C39.5521 65.1136 39.5202 65.1367 39.4937 65.1653C39.4672 65.1939 39.4466 65.2275 39.433 65.2641C39.4194 65.3007 39.4131 65.3397 39.4145 65.3787C39.4159 65.4178 39.4249 65.4562 39.441 65.4918C39.4572 65.5274 39.4801 65.5594 39.5086 65.586C39.5371 65.6127 39.5705 65.6334 39.6069 65.6471C39.6433 65.6607 39.6821 65.6671 39.7209 65.6657C39.7598 65.6643 39.798 65.6552 39.8333 65.639H39.8333Z" fill="#F8F9FA"/>
<path d="M37.7247 60.9945L75.6491 43.5861C75.7205 43.5533 75.7761 43.4933 75.8035 43.4194C75.831 43.3454 75.8281 43.2635 75.7955 43.1916C75.7629 43.1198 75.7032 43.064 75.6296 43.0364C75.5561 43.0088 75.4746 43.0117 75.4032 43.0445L37.4787 60.4528C37.4074 60.4857 37.3519 60.5456 37.3245 60.6196C37.2971 60.6935 37.3001 60.7754 37.3326 60.8471C37.3652 60.9189 37.4248 60.9747 37.4983 61.0024C37.5718 61.03 37.6532 61.0271 37.7247 60.9945V60.9945Z" fill="#F8F9FA"/>
<path d="M35.6156 56.3499L73.54 38.9416C73.5754 38.9253 73.6072 38.9022 73.6337 38.8736C73.6602 38.845 73.6809 38.8115 73.6945 38.7748C73.7081 38.7382 73.7143 38.6992 73.713 38.6602C73.7116 38.6211 73.7026 38.5827 73.6864 38.5471C73.6703 38.5116 73.6473 38.4795 73.6188 38.4529C73.5904 38.4262 73.557 38.4055 73.5206 38.3918C73.4841 38.3782 73.4454 38.3718 73.4065 38.3732C73.3677 38.3746 73.3295 38.3837 73.2941 38.3999L35.3697 55.8083C35.2982 55.8411 35.2427 55.9011 35.2152 55.975C35.1878 56.049 35.1907 56.1309 35.2233 56.2027C35.2559 56.2746 35.3155 56.3304 35.3891 56.358C35.4627 56.3856 35.5441 56.3827 35.6156 56.3499H35.6156Z" fill="#F8F9FA"/>
<path d="M43.848 74.4827L81.7724 57.0744C81.8439 57.0416 81.8994 56.9816 81.9269 56.9076C81.9543 56.8337 81.9514 56.7518 81.9188 56.6799C81.8862 56.6081 81.8266 56.5522 81.753 56.5246C81.6794 56.497 81.598 56.5 81.5265 56.5327L43.6021 73.9411C43.5667 73.9573 43.5349 73.9804 43.5084 74.009C43.4819 74.0376 43.4612 74.0712 43.4476 74.1078C43.434 74.1445 43.4278 74.1834 43.4291 74.2225C43.4305 74.2616 43.4396 74.3 43.4557 74.3355C43.4718 74.3711 43.4948 74.4031 43.5232 74.4298C43.5517 74.4564 43.5851 74.4772 43.6215 74.4908C43.658 74.5045 43.6967 74.5108 43.7356 74.5094C43.7744 74.508 43.8126 74.499 43.848 74.4827H43.848Z" fill="#F8F9FA"/>
<path d="M37.5151 49.5373L67.1389 35.9392C67.3056 35.867 67.4401 35.7358 67.5169 35.5704C67.5936 35.405 67.6072 35.217 67.5552 35.0422C67.5233 34.9471 67.472 34.8599 67.4045 34.7861C67.3369 34.7123 67.2548 34.6536 67.1633 34.6137C67.0717 34.5738 66.9729 34.5537 66.8732 34.5547C66.7735 34.5557 66.6751 34.5777 66.5843 34.6193L36.9695 48.2133C36.7998 48.2859 36.6628 48.4191 36.5848 48.5871C36.5069 48.7552 36.4936 48.9464 36.5475 49.1238C36.5803 49.2176 36.6323 49.3035 36.7 49.376C36.7676 49.4485 36.8496 49.506 36.9406 49.5449C37.0317 49.5838 37.1298 49.6032 37.2287 49.6019C37.3276 49.6006 37.4251 49.5786 37.5151 49.5373V49.5373Z" fill="#F8F9FA"/>
<path d="M5.50797 113.562C5.82426 108.636 8.55414 103.638 13.0986 101.77C11.5664 106.912 11.8926 112.434 14.0195 117.358C14.8466 119.254 15.9629 121.276 15.4078 123.27C15.0624 124.511 14.0968 125.502 12.9905 126.151C11.884 126.801 10.6344 127.153 9.40032 127.5L9.16635 127.719C6.91592 123.331 5.19168 118.489 5.50797 113.562Z" fill="#3E9D41"/>
<path d="M13.15 101.86C10.6284 105.064 9.17501 108.986 8.99632 113.068C8.94233 113.946 9.02634 114.827 9.24526 115.679C9.48517 116.502 9.93986 117.245 10.5621 117.832C11.1313 118.39 11.7778 118.895 12.2021 119.583C12.4141 119.938 12.549 120.335 12.5979 120.746C12.6469 121.158 12.6088 121.575 12.4861 121.97C12.206 122.964 11.5874 123.797 10.9544 124.591C10.2515 125.472 9.50759 126.376 9.25326 127.504C9.22245 127.641 9.01336 127.585 9.04413 127.448C9.48661 125.486 11.2844 124.279 12.0701 122.489C12.4367 121.653 12.5551 120.702 12.1161 119.869C11.7322 119.141 11.0658 118.619 10.4846 118.059C9.86932 117.496 9.40049 116.79 9.11911 116.003C8.85777 115.165 8.74013 114.288 8.77124 113.411C8.80994 111.434 9.15751 109.476 9.80121 107.607C10.5241 105.471 11.6051 103.475 12.9975 101.705C13.0837 101.596 13.2357 101.751 13.15 101.86V101.86Z" fill="#125D1B"/>
<path d="M8.97686 111.749C8.29977 111.626 7.68826 111.265 7.25152 110.73C6.81479 110.196 6.58127 109.522 6.59268 108.831C6.5934 108.802 6.60499 108.776 6.62499 108.756C6.645 108.736 6.67186 108.725 6.69992 108.725C6.72799 108.724 6.75506 108.735 6.77543 108.754C6.7958 108.774 6.80787 108.8 6.80912 108.829C6.79731 109.473 7.01489 110.1 7.42259 110.597C7.83029 111.094 8.40125 111.428 9.03242 111.539C9.16955 111.563 9.11321 111.773 8.97686 111.749L8.97686 111.749Z" fill="#125D1B"/>
<path d="M10.2363 117.586C11.3992 116.791 12.221 115.583 12.538 114.206C12.5693 114.069 12.7784 114.125 12.7471 114.261C12.4146 115.695 11.5568 116.949 10.3449 117.774C10.2294 117.853 10.1214 117.664 10.2363 117.586V117.586Z" fill="#125D1B"/>
<path d="M10.7368 105.664C10.9889 105.767 11.2624 105.804 11.5327 105.774C11.803 105.744 12.0617 105.647 12.2854 105.492C12.4 105.412 12.5078 105.601 12.394 105.68C12.146 105.851 11.8602 105.958 11.5616 105.991C11.2631 106.025 10.9608 105.985 10.6812 105.874C10.654 105.866 10.6309 105.848 10.6167 105.823C10.6024 105.798 10.598 105.769 10.6044 105.741C10.6119 105.713 10.6301 105.69 10.6548 105.675C10.6796 105.661 10.7091 105.657 10.7368 105.664V105.664Z" fill="#125D1B"/>
<path d="M27.7524 109.661C27.6823 109.713 27.6122 109.765 27.5422 109.819C26.6034 110.523 25.7231 111.303 24.91 112.15C24.8461 112.215 24.7823 112.281 24.7203 112.348C22.7829 114.41 21.2432 116.817 20.1794 119.445C19.7571 120.491 19.4145 121.568 19.1547 122.666C18.7959 124.183 18.527 125.857 17.7147 127.128C17.6315 127.262 17.54 127.39 17.441 127.513L9.45051 127.989C9.43181 127.981 9.41313 127.975 9.39434 127.967L9.07617 128.001C9.08564 127.943 9.09669 127.884 9.10615 127.826C9.11151 127.793 9.11864 127.759 9.12399 127.726C9.12812 127.703 9.13234 127.681 9.1348 127.661C9.13615 127.653 9.13759 127.646 9.13904 127.64C9.1415 127.62 9.14595 127.601 9.14851 127.582C9.20935 127.25 9.27263 126.917 9.33834 126.583C9.33823 126.581 9.33823 126.581 9.3399 126.58C9.84702 124.042 10.5693 121.525 11.6486 119.198C11.6811 119.128 11.7134 119.056 11.7495 118.986C12.2418 117.94 12.8183 116.936 13.4732 115.984C13.8335 115.464 14.2198 114.962 14.6305 114.482C15.6941 113.242 16.9451 112.178 18.3375 111.328C21.1136 109.636 24.3972 108.855 27.5148 109.602C27.5945 109.621 27.6726 109.64 27.7524 109.661Z" fill="#70CE6A"/>
<path d="M27.7403 109.764C23.8083 110.796 20.2995 113.048 17.7125 116.199C17.1436 116.868 16.6831 117.622 16.3478 118.435C16.0467 119.237 15.9647 120.106 16.1104 120.95C16.2305 121.741 16.4443 122.535 16.3712 123.342C16.3277 123.754 16.198 124.152 15.9908 124.51C15.7835 124.868 15.5032 125.178 15.1684 125.42C14.3497 126.044 13.3569 126.334 12.3762 126.585C11.2874 126.863 10.152 127.135 9.27358 127.881C9.16715 127.972 9.03378 127.8 9.14005 127.71C10.6683 126.411 12.8264 126.536 14.5259 125.582C15.3189 125.137 15.9833 124.448 16.1313 123.518C16.2608 122.704 16.0409 121.884 15.9124 121.085C15.7583 120.263 15.8067 119.415 16.0535 118.616C16.3465 117.789 16.7774 117.018 17.3277 116.336C18.5422 114.782 19.9923 113.428 21.6249 112.326C23.4812 111.058 25.5396 110.119 27.711 109.549C27.8454 109.514 27.8739 109.729 27.7403 109.764V109.764Z" fill="#125D1B"/>
<path d="M18.4863 115.134C18.0194 114.626 17.7474 113.967 17.7188 113.276C17.6902 112.585 17.9069 111.906 18.3303 111.36C18.4163 111.25 18.5904 111.379 18.5043 111.49C18.1092 111.997 17.9074 112.629 17.9353 113.273C17.9632 113.917 18.219 114.529 18.6566 115C18.7516 115.102 18.5807 115.236 18.4863 115.134H18.4863Z" fill="#125D1B"/>
<path d="M15.997 120.556C17.4019 120.625 18.781 120.158 19.8591 119.25C19.9659 119.16 20.0993 119.331 19.9926 119.421C18.8689 120.364 17.4329 120.847 15.9711 120.772C15.8317 120.765 15.8585 120.549 15.997 120.556V120.556Z" fill="#125D1B"/>
<path d="M23.535 111.34C23.6749 111.575 23.8705 111.771 24.1043 111.91C24.3381 112.05 24.6027 112.129 24.8744 112.14C25.0138 112.146 24.9869 112.362 24.8485 112.356C24.5483 112.342 24.2562 112.255 23.9975 112.101C23.7389 111.947 23.5216 111.732 23.3647 111.475C23.3479 111.451 23.3404 111.423 23.3438 111.395C23.3472 111.366 23.3613 111.34 23.3831 111.322C23.4057 111.304 23.4343 111.296 23.4628 111.3C23.4912 111.303 23.5172 111.318 23.535 111.34V111.34Z" fill="#125D1B"/>
<path d="M124.911 103.768H50.0022V18.8125H124.911V103.768Z" fill="#F8F9FA"/>
<path d="M124.911 103.768H50.0022V18.8125H124.911V103.768ZM50.4049 103.363H124.509V19.2175H50.4049L50.4049 103.363Z" fill="#212529"/>
<path d="M115.811 58.5911H59.1027C59.0498 58.5911 58.9974 58.5807 58.9486 58.5603C58.8997 58.54 58.8553 58.5101 58.8179 58.4725C58.7805 58.4349 58.7508 58.3903 58.7306 58.3412C58.7104 58.292 58.7 58.2394 58.7 58.1862C58.7 58.133 58.7104 58.0804 58.7306 58.0312C58.7508 57.9821 58.7805 57.9375 58.8179 57.8999C58.8553 57.8623 58.8997 57.8324 58.9486 57.8121C58.9974 57.7917 59.0498 57.7812 59.1027 57.7812H115.811C115.918 57.7813 116.02 57.8239 116.096 57.8999C116.171 57.9758 116.214 58.0788 116.214 58.1862C116.214 58.2936 116.171 58.3966 116.096 58.4725C116.02 58.5485 115.918 58.5911 115.811 58.5911V58.5911Z" fill="#495057"/>
<path d="M115.811 51.6458H59.1027C58.9959 51.6458 58.8934 51.6032 58.8179 51.5272C58.7424 51.4513 58.7 51.3483 58.7 51.2409C58.7 51.1335 58.7424 51.0305 58.8179 50.9545C58.8934 50.8786 58.9959 50.8359 59.1027 50.8359H115.811C115.918 50.8359 116.02 50.8786 116.096 50.9545C116.171 51.0305 116.214 51.1335 116.214 51.2409C116.214 51.3483 116.171 51.4513 116.096 51.5272C116.02 51.6032 115.918 51.6458 115.811 51.6458V51.6458Z" fill="#495057"/>
<path d="M115.811 44.7005H59.1027C59.0498 44.7005 58.9974 44.6901 58.9486 44.6697C58.8997 44.6494 58.8553 44.6195 58.8179 44.5819C58.7805 44.5443 58.7508 44.4997 58.7306 44.4505C58.7104 44.4014 58.7 44.3488 58.7 44.2956C58.7 44.2424 58.7104 44.1897 58.7306 44.1406C58.7508 44.0915 58.7805 44.0468 58.8179 44.0092C58.8553 43.9716 58.8997 43.9418 58.9486 43.9215C58.9974 43.9011 59.0498 43.8906 59.1027 43.8906H115.811C115.918 43.8906 116.02 43.9333 116.096 44.0092C116.171 44.0852 116.214 44.1882 116.214 44.2956C116.214 44.403 116.171 44.506 116.096 44.5819C116.02 44.6579 115.918 44.7005 115.811 44.7005V44.7005Z" fill="#495057"/>
<path d="M115.811 37.7552H59.1027C58.9959 37.7552 58.8934 37.7126 58.8179 37.6366C58.7424 37.5607 58.7 37.4577 58.7 37.3503C58.7 37.2429 58.7424 37.1399 58.8179 37.0639C58.8934 36.988 58.9959 36.9453 59.1027 36.9453H115.811C115.918 36.9453 116.02 36.988 116.096 37.0639C116.171 37.1399 116.214 37.2429 116.214 37.3503C116.214 37.4577 116.171 37.5607 116.096 37.6366C116.02 37.7126 115.918 37.7552 115.811 37.7552V37.7552Z" fill="#495057"/>
<path d="M115.811 64.8685H59.1027C58.9959 64.8685 58.8934 64.8258 58.8179 64.7499C58.7424 64.6739 58.7 64.5709 58.7 64.4635C58.7 64.3561 58.7424 64.2531 58.8179 64.1772C58.8934 64.1013 58.9959 64.0586 59.1027 64.0586H115.811C115.918 64.0586 116.02 64.1013 116.096 64.1772C116.171 64.2531 116.214 64.3561 116.214 64.4635C116.214 64.5709 116.171 64.6739 116.096 64.7499C116.02 64.8258 115.918 64.8685 115.811 64.8685V64.8685Z" fill="#495057"/>
<path d="M115.811 96.0286H59.1027C58.9959 96.0286 58.8934 95.986 58.8179 95.91C58.7424 95.8341 58.7 95.7311 58.7 95.6237C58.7 95.5163 58.7424 95.4133 58.8179 95.3374C58.8934 95.2614 58.9959 95.2188 59.1027 95.2188H115.811C115.918 95.2188 116.02 95.2614 116.096 95.3374C116.171 95.4133 116.214 95.5163 116.214 95.6237C116.214 95.7311 116.171 95.8341 116.096 95.91C116.02 95.986 115.918 96.0286 115.811 96.0286V96.0286Z" fill="#495057"/>
<path d="M102.227 89.5279H72.6868C72.4894 89.5277 72.3001 89.4487 72.1605 89.3083C72.0209 89.168 71.9424 88.9776 71.9421 88.7791V71.3074C71.9424 71.1089 72.0209 70.9185 72.1605 70.7781C72.3001 70.6378 72.4894 70.5588 72.6868 70.5586H102.227C102.424 70.5588 102.613 70.6378 102.753 70.7781C102.892 70.9185 102.971 71.1089 102.971 71.3074V88.7791C102.971 88.9776 102.892 89.168 102.753 89.3083C102.613 89.4487 102.424 89.5277 102.227 89.5279V89.5279Z" fill="#F8F9FA"/>
<path d="M92.3618 79.5459C92.2114 79.3841 92.0302 79.2542 91.829 79.1642C91.6278 79.0741 91.4106 79.0257 91.1903 79.0217C90.9701 79.0178 90.7513 79.0584 90.547 79.1412C90.3427 79.2239 90.157 79.3471 90.001 79.5035L81.6878 87.8624C81.4682 88.0828 81.1707 88.2067 80.8605 88.2072C80.5502 88.2077 80.2524 88.0846 80.0321 87.8649L78.8009 86.6294C78.6487 86.4763 78.4679 86.3549 78.269 86.272C78.0701 86.1891 77.8569 86.1465 77.6416 86.1465C77.4263 86.1465 77.2131 86.1891 77.0141 86.272C76.8152 86.3549 76.6345 86.4763 76.4823 86.6294L74.0994 89.0281H100.814V88.6861L92.3618 79.5459Z" fill="#09421A"/>
<path d="M102.227 89.5279H72.6868C72.4894 89.5277 72.3001 89.4487 72.1605 89.3083C72.0209 89.168 71.9424 88.9776 71.9421 88.7791V71.3074C71.9424 71.1089 72.0209 70.9185 72.1605 70.7781C72.3001 70.6378 72.4894 70.5588 72.6868 70.5586H102.227C102.424 70.5588 102.613 70.6378 102.753 70.7781C102.892 70.9185 102.971 71.1089 102.971 71.3074V88.7791C102.971 88.9776 102.892 89.168 102.753 89.3083C102.613 89.4487 102.424 89.5277 102.227 89.5279V89.5279ZM72.6868 71.0578C72.621 71.0579 72.5579 71.0842 72.5114 71.131C72.4649 71.1778 72.4387 71.2412 72.4386 71.3074V88.7791C72.4387 88.8453 72.4649 88.9087 72.5114 88.9555C72.5579 89.0023 72.621 89.0286 72.6868 89.0287H102.227C102.292 89.0286 102.355 89.0023 102.402 88.9555C102.448 88.9087 102.475 88.8453 102.475 88.7791V71.3074C102.475 71.2412 102.448 71.1778 102.402 71.131C102.355 71.0842 102.292 71.0579 102.227 71.0578L72.6868 71.0578Z" fill="#3F3D56"/>
<path d="M31.0117 86.6076C31.0866 86.3421 31.1027 86.0633 31.0588 85.7909C31.015 85.5185 30.9123 85.2591 30.7579 85.0309C30.6036 84.8027 30.4013 84.6114 30.1655 84.4703C29.9296 84.3292 29.6659 84.2418 29.3928 84.2143L27.845 77.6895L25.4727 80.2312L27.3062 86.0377C27.2906 86.502 27.445 86.9559 27.7401 87.3135C28.0352 87.671 28.4504 87.9073 28.9072 87.9775C29.3639 88.0478 29.8304 87.9471 30.2183 87.6946C30.6062 87.4421 30.8885 87.0554 31.0117 86.6076Z" fill="#FFB6B6"/>
<path d="M26.8743 84.2399C26.7623 84.2024 26.6595 84.1417 26.5724 84.0616C26.4853 83.9815 26.4159 83.8839 26.3688 83.7751L23.0871 75.7039C22.2502 73.7689 22.1408 71.594 22.7794 69.584L24.8822 62.961C24.9142 62.6048 25.0157 62.2584 25.1809 61.9417C25.3461 61.625 25.5717 61.3441 25.845 61.1151C26.1182 60.8862 26.4336 60.7136 26.7732 60.6073C27.1129 60.501 27.47 60.4631 27.8242 60.4957C28.1784 60.5283 28.5227 60.6308 28.8375 60.7973C29.1523 60.9638 29.4313 61.191 29.6587 61.466C29.8861 61.7411 30.0573 62.0584 30.1626 62.4001C30.2679 62.7417 30.3052 63.1008 30.2723 63.4569L27.4836 74.1219L29.3514 82.498C29.3806 82.6691 29.3569 82.8451 29.2834 83.0021C29.21 83.1592 29.0903 83.2898 28.9406 83.3763L27.5561 84.1717C27.4076 84.257 27.2368 84.2947 27.0664 84.2798C27.001 84.2742 26.9365 84.2608 26.8743 84.2399V84.2399Z" fill="#CED4DA"/>
<path d="M38.5467 125.595H40.8353L41.9242 116.719H38.5461L38.5467 125.595Z" fill="#FFB6B6"/>
<path d="M37.9626 124.844L42.47 124.844H42.4702C43.232 124.844 43.9626 125.148 44.5013 125.69C45.04 126.231 45.3426 126.966 45.3427 127.732V127.826L37.9628 127.826L37.9626 124.844Z" fill="#343A40"/>
<path d="M25.6651 125.595H27.9537L29.0427 116.719H25.6646L25.6651 125.595Z" fill="#FFB6B6"/>
<path d="M25.0813 124.844L29.5887 124.844H29.5889C30.3507 124.844 31.0812 125.148 31.6199 125.69C32.1586 126.231 32.4613 126.966 32.4613 127.732V127.826L25.0814 127.826L25.0813 124.844Z" fill="#343A40"/>
<path d="M39.9246 80.8222L26.5024 79.6348C26.5024 79.6348 25.1764 88.143 25.363 91.5218C25.5497 94.9006 25.7364 100.157 25.7364 100.157L24.2429 123.058L30.0302 122.307L30.777 103.348L33.2039 93.0235L36.0042 106.163L37.8711 123.058L42.9116 122.494L41.2314 102.034C41.2314 102.034 42.7249 83.6379 39.9246 80.8222Z" fill="#212529"/>
<path d="M34.5108 55.8562C36.5729 55.8562 38.2446 54.1753 38.2446 52.1019C38.2446 50.0285 36.5729 48.3477 34.5108 48.3477C32.4488 48.3477 30.7771 50.0285 30.7771 52.1019C30.7771 54.1753 32.4488 55.8562 34.5108 55.8562Z" fill="#FFB8B8"/>
<path d="M38.5996 60.4851L35.9329 58.3506C35.9329 58.3506 33.045 56.11 31.351 57.7665L30.5904 58.8599C30.5904 58.8599 26.2783 60.4851 26.2783 62.5499L26.4833 73.8769C26.4833 73.8769 24.9898 79.696 27.23 80.0714L40.2798 81.1334L40.1114 70.3104L38.5996 60.4851Z" fill="#CED4DA"/>
<path d="M31.6172 55.3881C31.6172 55.3881 27.6968 52.5724 29.7504 49.1936C31.175 46.8495 34.1271 47.0351 35.8016 47.3686C36.2528 47.4523 36.6769 47.6451 37.0374 47.9303C37.398 48.2155 37.6841 48.5847 37.8712 49.0058C38.1513 49.6628 38.1513 50.3198 37.0311 50.3198C34.7909 50.3198 35.911 52.0092 35.911 52.0092C35.911 52.0092 34.4175 52.3847 34.7909 53.6987C35.1643 55.0126 31.6172 55.3881 31.6172 55.3881Z" fill="#2F2E41"/>
<path d="M52.0702 80.2674C52.0006 80.0004 51.8737 79.7521 51.6984 79.5398C51.5231 79.3275 51.3036 79.1564 51.0554 79.0386C50.8072 78.9209 50.5363 78.8592 50.2619 78.8581C49.9874 78.857 49.7161 78.9164 49.4669 79.0321L44.8386 74.2012L44.0784 77.6021L48.5901 81.6682C48.8112 82.0762 49.1734 82.3884 49.6082 82.5458C50.0429 82.7032 50.52 82.6947 50.949 82.5221C51.3779 82.3494 51.729 82.0245 51.9356 81.6089C52.1423 81.1934 52.1902 80.7161 52.0702 80.2674H52.0702Z" fill="#FFB6B6"/>
<path d="M47.3109 80.3415C47.1955 80.3664 47.0762 80.3666 46.9607 80.3421C46.8452 80.3175 46.7362 80.2688 46.6407 80.1992L39.7376 74.9214C38.0395 73.6816 36.847 71.8638 36.3821 69.8062L34.8491 63.0268C34.6965 62.7036 34.6088 62.3533 34.591 61.996C34.5732 61.6386 34.6257 61.2813 34.7454 60.9444C34.8651 60.6074 35.0497 60.2975 35.2887 60.0324C35.5276 59.7673 35.8162 59.5522 36.138 59.3994C36.4597 59.2466 36.8083 59.1591 37.1637 59.1418C37.5191 59.1246 37.8744 59.178 38.2092 59.299C38.5441 59.42 38.8519 59.6062 39.1151 59.847C39.3783 60.0878 39.5918 60.3784 39.7431 60.7021L42.7263 71.3139L48.5652 77.5762C48.6768 77.7087 48.7453 77.8724 48.7613 78.0452C48.7773 78.2181 48.7402 78.3917 48.6549 78.5426L47.8638 79.9347C47.7789 80.084 47.6508 80.2037 47.4965 80.2778C47.4373 80.3064 47.375 80.3277 47.3109 80.3415Z" fill="#CED4DA"/>
<path d="M142.131 5.66431H34.309C34.2676 5.66417 34.228 5.64752 34.1987 5.61803C34.1695 5.58854 34.1531 5.5486 34.1531 5.50696C34.1531 5.46532 34.1695 5.42538 34.1987 5.39589C34.228 5.36639 34.2676 5.34975 34.309 5.34961H142.131C142.173 5.34975 142.212 5.36639 142.241 5.39589C142.271 5.42538 142.287 5.46532 142.287 5.50696C142.287 5.5486 142.271 5.58854 142.241 5.61803C142.212 5.64752 142.173 5.66417 142.131 5.66431V5.66431Z" fill="#343A40"/>
<path d="M37.8313 3.46171C38.782 3.46171 39.5527 2.68678 39.5527 1.73085C39.5527 0.77493 38.782 0 37.8313 0C36.8806 0 36.1099 0.77493 36.1099 1.73085C36.1099 2.68678 36.8806 3.46171 37.8313 3.46171Z" fill="#212529"/>
<path d="M43.778 3.46171C44.7287 3.46171 45.4994 2.68678 45.4994 1.73085C45.4994 0.77493 44.7287 0 43.778 0C42.8273 0 42.0566 0.77493 42.0566 1.73085C42.0566 2.68678 42.8273 3.46171 43.778 3.46171Z" fill="#212529"/>
<path d="M49.7246 3.46171C50.6753 3.46171 51.446 2.68678 51.446 1.73085C51.446 0.77493 50.6753 0 49.7246 0C48.7739 0 48.0032 0.77493 48.0032 1.73085C48.0032 2.68678 48.7739 3.46171 49.7246 3.46171Z" fill="#212529"/>
<path d="M138.568 1.05909H134.343C134.26 1.0588 134.181 1.02552 134.122 0.966531C134.064 0.907545 134.031 0.827663 134.031 0.744387C134.031 0.661111 134.064 0.581231 134.122 0.522245C134.181 0.463258 134.26 0.429975 134.343 0.429688H138.568C138.651 0.429975 138.73 0.463258 138.789 0.522245C138.847 0.581231 138.88 0.661111 138.88 0.744387C138.88 0.827663 138.847 0.907545 138.789 0.966531C138.73 1.02552 138.651 1.0588 138.568 1.05909V1.05909Z" fill="#212529"/>
<path d="M138.568 2.23878H134.343C134.26 2.23849 134.181 2.20521 134.122 2.14622C134.064 2.08723 134.031 2.00735 134.031 1.92408C134.031 1.8408 134.064 1.76092 134.122 1.70193C134.181 1.64295 134.26 1.60966 134.343 1.60938H138.568C138.651 1.60966 138.73 1.64295 138.789 1.70193C138.847 1.76092 138.88 1.8408 138.88 1.92408C138.88 2.00735 138.847 2.08723 138.789 2.14622C138.73 2.20521 138.651 2.23849 138.568 2.23878V2.23878Z" fill="#212529"/>
<path d="M138.568 3.41846H134.343C134.26 3.41817 134.181 3.38489 134.122 3.32591C134.064 3.26692 134.031 3.18704 134.031 3.10376C134.031 3.02049 134.064 2.9406 134.122 2.88162C134.181 2.82263 134.26 2.78935 134.343 2.78906H138.568C138.651 2.78935 138.73 2.82263 138.789 2.88162C138.847 2.9406 138.88 3.02049 138.88 3.10376C138.88 3.18704 138.847 3.26692 138.789 3.32591C138.73 3.38489 138.651 3.41817 138.568 3.41846V3.41846Z" fill="#212529"/>
<path d="M71.8144 127.873H0.686687C0.637174 127.873 0.58969 127.854 0.554679 127.819C0.519669 127.783 0.5 127.736 0.5 127.686C0.5 127.636 0.519669 127.588 0.554679 127.553C0.58969 127.518 0.637174 127.498 0.686687 127.498H71.8144C71.8639 127.498 71.9114 127.518 71.9464 127.553C71.9814 127.588 72.0011 127.636 72.0011 127.686C72.0011 127.736 71.9814 127.783 71.9464 127.819C71.9114 127.854 71.8639 127.873 71.8144 127.873Z" fill="#362406"/>
<path d="M109.633 30.4037H65.3362C65.0894 30.409 64.8492 30.323 64.6613 30.1619C64.4734 30.0009 64.3509 29.776 64.3172 29.5301C64.3032 29.3944 64.3177 29.2573 64.3598 29.1276C64.4019 28.9979 64.4705 28.8786 64.5614 28.7773C64.6522 28.676 64.7632 28.595 64.8872 28.5395C65.0111 28.4841 65.1453 28.4554 65.2809 28.4554H109.564C109.815 28.4488 110.059 28.5357 110.25 28.6995C110.441 28.8632 110.565 29.0922 110.598 29.3423C110.61 29.477 110.594 29.6128 110.551 29.7409C110.508 29.8691 110.439 29.9869 110.348 30.0867C110.257 30.1866 110.147 30.2663 110.023 30.3209C109.9 30.3755 109.767 30.4036 109.633 30.4037V30.4037Z" fill="#032C17"/>
</g>
<defs>
<clipPath id="clip0_993_8981">
<rect width="151" height="128" fill="white" transform="translate(0.5)"/>
</clipPath>
</defs>
</svg>
