<svg width="450" height="301" viewBox="0 0 450 301" fill="none" xmlns="http://www.w3.org/2000/svg">
<g clip-path="url(#clip0_993_9655)">
<path d="M443.495 300.917H246.159C244.561 300.916 243.03 300.28 241.9 299.151C240.77 298.021 240.135 296.489 240.133 294.892V155.393C240.135 153.795 240.77 152.264 241.9 151.134C243.03 150.004 244.561 149.369 246.159 149.367H443.495C445.092 149.369 446.624 150.004 447.753 151.134C448.883 152.264 449.518 153.795 449.52 155.393V294.892C449.518 296.49 448.883 298.021 447.753 299.151C446.624 300.28 445.092 300.916 443.495 300.917Z" fill="#715C20"/>
<path d="M435.279 157.582H254.376C252.778 157.584 251.246 158.22 250.116 159.35C248.986 160.48 248.35 162.012 248.348 163.61V286.674C248.35 288.272 248.986 289.804 250.116 290.934C251.246 292.064 252.778 292.7 254.376 292.702H435.279C436.877 292.7 438.408 292.064 439.537 290.934C440.667 289.804 441.301 288.272 441.302 286.674V163.61C441.301 162.012 440.667 160.48 439.537 159.35C438.408 158.22 436.877 157.584 435.279 157.582Z" fill="white"/>
<path d="M361.313 216.085C364.315 203.008 356.148 189.973 343.072 186.971C329.995 183.969 316.961 192.136 313.959 205.213C310.957 218.29 319.124 231.324 332.2 234.327C345.277 237.329 358.311 229.162 361.313 216.085Z" fill="#9E616A"/>
<path d="M407.503 269.826C406.609 265.604 404.587 261.704 401.653 258.541C398.718 255.378 394.98 253.071 390.837 251.864L390.819 251.855C390.028 251.465 389.191 251.178 388.328 251L359.134 245.026L353.285 238.75L328.396 240.339L325.798 247.559L297.208 260.265L297.682 259.933C296.457 260.424 295.266 260.995 294.116 261.642L293.971 261.706C293.147 262.076 292.382 262.564 291.699 263.156C284.428 268.202 279.625 276.301 279.447 285.332L278.692 292.702H412.358L407.503 269.826Z" fill="#362406"/>
<path d="M364.223 197.628C362.234 191.415 356.415 186.17 349.895 186.337C350.403 184.787 349.535 183.05 348.237 182.063C346.938 181.077 345.296 180.683 343.699 180.35C340.399 179.662 336.96 179.137 333.679 179.912C330.399 180.687 327.29 183.04 326.551 186.33C323.563 183.529 318.038 184.304 315.935 187.819C314.853 189.627 314.7 192.058 315.869 193.811C317.031 195.553 319.232 196.338 321.324 196.437C323.416 196.535 325.487 196.066 327.569 195.847C332.544 195.325 337.799 196.327 341.82 199.302C345.842 202.276 348.412 207.377 347.697 212.328C349.304 211.3 351.62 212.014 352.743 213.556C353.866 215.099 353.954 217.207 353.433 219.042C352.911 220.877 351.853 222.505 350.809 224.102C348.886 227.043 346.964 229.984 345.042 232.924L345.83 233.448C348.729 234.671 351.866 232.385 353.977 230.051C357.537 226.113 360.404 221.601 362.458 216.706C364.979 210.69 366.212 203.84 364.223 197.628Z" fill="#212529"/>
<path d="M259.428 192.893H8.17158C6.13766 192.891 4.1877 192.082 2.74949 190.643C1.31129 189.205 0.502302 187.255 0.5 185.221V7.60544C0.502295 5.57145 1.31128 3.62141 2.74948 2.18316C4.18769 0.744908 6.13765 -0.0641083 8.17158 -0.0664062H259.428C261.461 -0.0641025 263.411 0.744919 264.85 2.18317C266.288 3.62142 267.097 5.57144 267.099 7.60543V185.221C267.097 187.255 266.288 189.205 264.85 190.643C263.411 192.082 261.461 192.891 259.428 192.893Z" fill="#715C20"/>
<path d="M248.967 10.3945H18.635C16.6003 10.3971 14.6496 11.2066 13.2108 12.6455C11.772 14.0843 10.9626 16.035 10.96 18.0698V174.759C10.9626 176.794 11.772 178.745 13.2108 180.184C14.6496 181.622 16.6003 182.432 18.635 182.435H248.967C251.002 182.432 252.951 181.622 254.389 180.183C255.827 178.744 256.635 176.794 256.637 174.759V18.0698C256.635 16.0356 255.827 14.085 254.389 12.646C252.951 11.2071 251.002 10.3974 248.967 10.3945Z" fill="white"/>
<path d="M166.942 83.9277L166.517 84.6935C170.299 75.3742 166.86 63.8906 160.115 56.8636C153.369 49.8365 143.992 46.624 134.758 45.3495C127.904 44.4033 120.789 44.4307 114.271 46.9416C104.833 50.5777 97.6214 58.995 91.6006 67.7513C88.8466 71.7564 86.1389 76.3223 86.4133 81.3281C86.668 85.9736 89.4253 89.9157 91.6834 93.857C93.9417 97.7982 95.8274 102.688 94.2067 106.99C93.241 109.553 91.1999 111.399 89.5437 113.496C87.8876 115.593 86.5252 118.428 87.3252 121.059C87.9724 123.187 89.9194 124.587 91.9218 125.054C93.9239 125.52 96.0009 125.215 98.0286 124.909L150.66 116.957C154.237 116.416 157.629 115.019 160.549 112.884C163.469 110.749 165.829 107.94 167.428 104.695C169.028 101.451 169.819 97.8679 169.734 94.2518C169.649 90.6356 168.691 87.0936 166.942 83.9277Z" fill="#2F2E41"/>
<path d="M127.794 116.59C142.005 116.59 153.526 105.069 153.526 90.8566C153.526 76.6443 142.005 65.123 127.794 65.123C113.582 65.123 102.061 76.6443 102.061 90.8566C102.061 105.069 113.582 116.59 127.794 116.59Z" fill="#FFB9B9"/>
<path d="M191.978 149.111C190.312 145.462 187.686 142.335 184.379 140.064C181.072 137.793 177.21 136.465 173.207 136.221L166.035 135.787L166.052 135.862V135.862L147.821 124.895C148.27 125.408 118.167 126.483 118.167 126.483L106.998 136.119L102.313 136.403C98.3097 136.647 94.4477 137.975 91.1412 140.246C87.8346 142.517 85.208 145.644 83.5428 149.294L68.3315 182.617H98.6495L99.3528 179.59C100.118 180.522 100.86 181.47 101.579 182.435H207.189L191.978 149.111Z" fill="#09421A"/>
<path d="M152.202 66.9735C151.538 63.4594 147.954 61.8521 144.883 61.0733C135.976 58.8007 126.711 58.2919 117.609 59.5755C110.973 60.5218 104.18 62.6084 99.366 67.7878C95.6111 71.8274 93.339 77.6143 93.1622 83.5891C93.0593 87.0713 93.6819 90.695 95.4143 93.6276C97.147 96.5602 100.1 98.6873 103.149 98.6126L103.457 99.6864C116.377 97.8863 128.378 89.8473 135.936 77.9305C134.518 82.9961 131.695 87.5567 127.794 91.0854C136.516 87.5951 144.098 81.7515 149.695 74.2057C151.223 72.177 152.707 69.6471 152.202 66.9735Z" fill="#2F2E41"/>
</g>
<defs>
<clipPath id="clip0_993_9655">
<rect width="449" height="301" fill="white" transform="translate(0.5)"/>
</clipPath>
</defs>
</svg>
