<svg width="468" height="337" viewBox="0 0 468 337" fill="none" xmlns="http://www.w3.org/2000/svg">
<g clip-path="url(#clip0_859_9179)">
<path d="M230.76 335.576H212.82V197.359H227.41C228.117 197.359 228.794 197.639 229.295 198.138C229.796 198.637 230.079 199.315 230.083 200.022L230.76 335.576Z" fill="#212529"/>
<path d="M214.497 336.307H21.8496V237.873H214.497V336.307Z" fill="#F8F9FA"/>
<path d="M138.565 335.942H22.2151V238.24H214.131V260.295C214.109 280.351 206.14 299.579 191.973 313.761C177.807 327.942 158.599 335.92 138.565 335.942Z" fill="#343A40"/>
<path d="M227.838 201.285C227.741 201.469 227.666 201.663 227.614 201.864L220.971 227.497L213.765 241.157H22.5808V237.755L33.4655 227.497L46.1632 203.183C46.7237 202.109 47.4598 201.138 48.341 200.308C50.3514 198.414 53.008 197.359 55.7686 197.359H225.474C225.935 197.359 226.388 197.479 226.789 197.705C227.19 197.932 227.526 198.259 227.764 198.654C228.002 199.049 228.133 199.499 228.146 199.96C228.159 200.421 228.053 200.878 227.838 201.285Z" fill="#343A40"/>
<path d="M214.497 336.307H21.8496V237.873H214.497V336.307ZM23.312 334.843H213.035V239.337H23.312V334.843Z" fill="#212529"/>
<path d="M224.52 214.398L220.971 227.497H33.4658L39.5246 216.594L224.52 214.398Z" fill="#212529"/>
<path d="M59.6635 289.455H28.9536V291.156H59.6635V289.455Z" fill="#F8F9FA"/>
<path d="M59.6635 295.408H28.9536V297.109H59.6635V295.408Z" fill="#F8F9FA"/>
<path d="M59.6635 301.363H28.9536V303.065H59.6635V301.363Z" fill="#F8F9FA"/>
<path d="M40.8494 270.503C46.9501 270.503 51.8957 265.552 51.8957 259.445C51.8957 253.338 46.9501 248.387 40.8494 248.387C34.7488 248.387 29.8032 253.338 29.8032 259.445C29.8032 265.552 34.7488 270.503 40.8494 270.503Z" fill="#F8F9FA"/>
<path d="M161.918 220.068H152.537V147.787H160.167C160.536 147.787 160.891 147.934 161.153 148.195C161.415 148.455 161.563 148.81 161.564 149.18L161.918 220.068Z" fill="#212529"/>
<path d="M153.414 220.451H52.668V168.975H153.414V220.451Z" fill="#F8F9FA"/>
<path d="M113.705 220.26H52.8591V169.166H153.222V180.7C153.21 191.188 149.043 201.243 141.635 208.66C134.226 216.076 124.182 220.248 113.705 220.26Z" fill="#343A40"/>
<path d="M160.39 149.84C160.34 149.936 160.301 150.038 160.273 150.143L156.799 163.547L153.031 170.691H53.0505V168.912L58.7428 163.547L65.383 150.832C65.6762 150.271 66.0611 149.763 66.5219 149.329C67.5733 148.339 68.9626 147.787 70.4062 147.787H159.154C159.395 147.787 159.632 147.849 159.842 147.968C160.052 148.087 160.227 148.258 160.352 148.464C160.476 148.671 160.545 148.906 160.552 149.147C160.559 149.388 160.503 149.627 160.39 149.84Z" fill="#343A40"/>
<path d="M153.414 220.451H52.668V168.975H153.414V220.451ZM53.4328 219.685H152.649V169.74H53.4328V219.685Z" fill="#212529"/>
<path d="M158.655 156.697L156.799 163.546H58.7429L61.9112 157.845L158.655 156.697Z" fill="#212529"/>
<path d="M72.4429 195.949H56.3831V196.839H72.4429V195.949Z" fill="#F8F9FA"/>
<path d="M72.4429 199.062H56.3831V199.952H72.4429V199.062Z" fill="#F8F9FA"/>
<path d="M72.4429 202.176H56.3831V203.065H72.4429V202.176Z" fill="#F8F9FA"/>
<path d="M62.6041 186.038C65.7944 186.038 68.3807 183.449 68.3807 180.255C68.3807 177.062 65.7944 174.473 62.6041 174.473C59.4137 174.473 56.8274 177.062 56.8274 180.255C56.8274 183.449 59.4137 186.038 62.6041 186.038Z" fill="#F8F9FA"/>
<path d="M438.404 336.258L438.345 335.946C437.396 330.707 437.598 325.323 438.937 320.169C440.276 315.015 442.72 310.215 446.1 306.103C448.013 303.811 450.208 301.77 452.631 300.027L452.862 299.86L452.963 300.126C454.169 303.308 455.69 306.494 456.383 307.904L456.851 297.377L457.118 297.235C458.341 296.579 459.733 296.304 461.113 296.447C462.494 296.59 463.8 297.143 464.863 298.035C465.964 298.92 466.774 300.115 467.19 301.465C467.606 302.815 467.608 304.259 467.197 305.611C466.834 306.848 466.49 308.131 466.158 309.371C465.017 313.635 463.837 318.044 461.55 321.757C459.791 324.55 457.432 326.915 454.644 328.678C451.855 330.442 448.709 331.559 445.434 331.95L438.404 336.258Z" fill="#125D1B"/>
<path d="M467.5 336.129C467.5 336.243 467.478 336.357 467.434 336.463C467.391 336.568 467.327 336.665 467.246 336.746C467.165 336.827 467.069 336.891 466.963 336.934C466.857 336.978 466.744 337 466.63 337H1.37014C1.13936 337 0.918038 336.908 0.754856 336.745C0.591674 336.581 0.5 336.36 0.5 336.129C0.5 335.898 0.591674 335.676 0.754856 335.513C0.918038 335.35 1.13936 335.258 1.37014 335.258H466.63C466.744 335.257 466.857 335.28 466.963 335.323C467.069 335.367 467.165 335.431 467.246 335.512C467.327 335.593 467.391 335.689 467.434 335.795C467.478 335.901 467.5 336.014 467.5 336.129Z" fill="#212529"/>
<path d="M361.968 113.257L348.651 111.348C344.147 118.887 342.547 138.955 342.547 138.955L329.513 169.965C328.65 170.552 327.957 171.356 327.503 172.296C327.049 173.237 326.85 174.28 326.927 175.322C327.004 176.364 327.354 177.367 327.941 178.23C328.529 179.094 329.333 179.787 330.273 180.24C331.213 180.694 332.255 180.891 333.296 180.813C334.336 180.734 335.338 180.383 336.2 179.794C337.061 179.205 337.753 178.399 338.205 177.458C338.656 176.516 338.852 175.472 338.773 174.431L360.172 138.336L361.968 113.257Z" fill="#FFB8B8"/>
<path d="M359.849 76.2449C361.91 76.5645 363.876 77.3349 365.606 78.5013C367.336 79.6678 368.788 81.2016 369.858 82.9936C370.929 84.7857 371.592 86.7919 371.8 88.8696C372.008 90.9472 371.756 93.0453 371.062 95.0144L368.236 103.033C368.236 103.033 366.697 127.178 360.831 133.993L342.828 132.362C342.828 132.362 346.119 120.18 343.592 114.287C342.045 110.677 342.131 98.2107 343.656 88.0695C343.941 86.2278 344.587 84.4607 345.556 82.8692C346.525 81.2777 347.798 79.8932 349.302 78.7949C350.806 77.6965 352.512 76.906 354.322 76.4684C356.131 76.0308 358.01 75.9549 359.849 76.2449Z" fill="#362406"/>
<path d="M403.86 326.773L395.838 326.772L392.022 295.797L403.862 295.798L403.86 326.773Z" fill="#FFB6B6"/>
<path d="M404.142 335.15L379.474 335.149V334.837C379.474 332.288 380.485 329.843 382.286 328.04C384.087 326.238 386.529 325.225 389.075 325.225H389.076L393.582 321.803L401.989 325.225L404.143 325.226L404.142 335.15Z" fill="#2F2E41"/>
<path d="M368.984 288.385L361.574 291.46L346.195 264.311L357.132 259.771L368.984 288.385Z" fill="#FFB6B6"/>
<path d="M372.451 296.013L349.664 305.473L349.544 305.184C348.569 302.829 348.568 300.183 349.541 297.828C350.515 295.472 352.383 293.6 354.735 292.623L354.736 292.623L357.588 287.734L366.664 287.671L368.653 286.846L372.451 296.013Z" fill="#2F2E41"/>
<path d="M413.032 150.566L356.102 156.521L348.486 182.197L322.113 224.625L351.233 278.183L361.488 268.969L351.644 225.72L381.025 193.967L386.596 191.653L391.018 309.48L407.375 309.749L414.533 179.734C417.973 168.249 416.937 158.766 413.032 150.566Z" fill="#212529"/>
<path d="M392.16 69.2811L382.815 58.748L368.05 60.3904L358.597 73.6342C353.565 74.7922 349.168 77.8368 346.31 82.1415C343.452 86.4462 342.351 91.6836 343.233 96.7762C346.902 117.922 359.368 138.432 355.252 148.865C349.003 164.703 348.622 171.163 363.58 168.942C378.537 166.722 428.649 161.603 418.934 151.877C409.218 142.151 407.084 125.899 407.084 125.899L406.694 88.7159C407.108 86.4733 407.053 84.1694 406.533 81.9491C406.013 79.7288 405.04 77.6402 403.675 75.8147C402.31 73.9893 400.582 72.4664 398.6 71.342C396.618 70.2175 394.425 69.5159 392.16 69.2811L392.16 69.2811Z" fill="#412E0A"/>
<path d="M373.899 56.0521C382.951 56.0521 390.289 48.706 390.289 39.6442C390.289 30.5824 382.951 23.2363 373.899 23.2363C364.847 23.2363 357.509 30.5824 357.509 39.6442C357.509 48.706 364.847 56.0521 373.899 56.0521Z" fill="#FFB8B8"/>
<path d="M394.094 38.6709C393.362 41.9953 392.042 45.1618 390.196 48.0206C389.706 48.9954 388.974 49.8277 388.07 50.4375C387.612 50.7315 387.066 50.8556 386.526 50.788C385.986 50.7205 385.488 50.4657 385.116 50.0679L384.718 49.7427C385.5 49.2604 386.198 48.6538 386.785 47.9467C387.076 47.5919 387.277 47.1727 387.374 46.7241C387.47 46.2754 387.458 45.8102 387.339 45.3672C387.197 44.9303 386.892 44.5653 386.487 44.3489C386.082 44.1325 385.609 44.0816 385.168 44.2068C384.208 44.5838 383.625 45.9733 382.621 45.759C381.809 45.5815 381.639 44.5099 381.639 43.6673C381.668 39.2621 379.542 33.0019 377.895 33.1941C376.232 33.2851 374.567 33.062 372.986 32.5363C371.403 32.0097 369.733 31.7963 368.068 31.908C367.95 31.9228 367.832 31.945 367.707 31.9672C367.44 31.1302 367.073 30.3286 366.614 29.5798C366.666 30.4837 366.621 31.3905 366.481 32.285C365.157 32.8314 363.788 33.2641 362.391 33.5784C360.87 33.7928 357.525 38.3457 357.37 37.88C357.103 37.0431 356.737 36.2415 356.277 35.4927C356.329 36.3966 356.285 37.3034 356.145 38.1978C356.137 38.2348 356.137 38.2644 356.13 38.3013C355.392 37.3183 354.941 36.1209 355.192 37.0374C352.719 31.435 353.679 27.4216 357.57 22.6987C358.328 21.6832 359.331 20.877 360.486 20.3557C361.064 20.1015 361.698 20.0005 362.326 20.0627C362.955 20.1248 363.557 20.3479 364.074 20.7105C365.661 19.254 367.608 18.2488 369.714 17.7991C371.82 17.3495 374.007 17.4717 376.05 18.1532C380.103 19.5649 383.226 20.3927 383.846 24.65C387.198 24.1104 390.646 26.0173 392.492 28.8629C394.331 31.7159 394.707 35.3375 394.094 38.6709Z" fill="#2F2E41"/>
<path d="M380.803 174.952H375.363V133.039H379.787C380.002 133.039 380.207 133.124 380.359 133.275C380.511 133.427 380.597 133.632 380.598 133.846L380.803 174.952Z" fill="#212529"/>
<path d="M375.872 175.175H317.453V145.326H375.872V175.175Z" fill="#F8F9FA"/>
<path d="M352.846 175.063H317.564V145.436H375.761V152.123C375.754 158.205 373.337 164.036 369.042 168.337C364.746 172.637 358.921 175.056 352.846 175.063Z" fill="#343A40"/>
<path d="M379.917 134.23C379.888 134.285 379.865 134.344 379.849 134.405L377.835 142.178L375.65 146.32H317.675V145.289L320.975 142.178L324.826 134.805C324.996 134.479 325.219 134.185 325.486 133.933C326.096 133.359 326.901 133.039 327.739 133.039H379.2C379.34 133.039 379.477 133.075 379.599 133.144C379.721 133.213 379.823 133.312 379.895 133.432C379.967 133.551 380.007 133.688 380.011 133.828C380.015 133.967 379.982 134.106 379.917 134.23Z" fill="#212529"/>
<path d="M375.872 175.175H317.453V145.326H375.872V175.175ZM317.896 174.732H375.428V145.77H317.896V174.732Z" fill="#212529"/>
<path d="M378.911 138.207L377.835 142.18H320.976L322.812 138.873L378.911 138.207Z" fill="#343A40"/>
<path d="M328.92 160.967H319.607V161.483H328.92V160.967Z" fill="#F8F9FA"/>
<path d="M328.92 162.771H319.607V163.287H328.92V162.771Z" fill="#F8F9FA"/>
<path d="M328.92 164.578H319.607V165.094H328.92V164.578Z" fill="#F8F9FA"/>
<path d="M323.214 155.22C325.064 155.22 326.564 153.719 326.564 151.867C326.564 150.015 325.064 148.514 323.214 148.514C321.364 148.514 319.865 150.015 319.865 151.867C319.865 153.719 321.364 155.22 323.214 155.22Z" fill="#F8F9FA"/>
<path d="M403.53 109.425L390.213 107.516C385.709 115.055 384.108 135.123 384.108 135.123L371.075 166.133C370.212 166.72 369.518 167.524 369.064 168.464C368.61 169.405 368.412 170.448 368.489 171.49C368.566 172.532 368.916 173.535 369.503 174.398C370.09 175.262 370.894 175.955 371.834 176.408C372.774 176.862 373.817 177.059 374.857 176.981C375.898 176.902 376.899 176.551 377.761 175.962C378.623 175.373 379.314 174.567 379.766 173.626C380.218 172.684 380.414 171.64 380.334 170.599L401.733 134.504L403.53 109.425Z" fill="#FFB8B8"/>
<path d="M396.312 72.4138C398.373 72.7333 400.339 73.5038 402.069 74.6702C403.799 75.8367 405.251 77.3705 406.321 79.1625C407.392 80.9545 408.055 82.9608 408.263 85.0384C408.471 87.1161 408.219 89.2141 407.525 91.1832L404.699 99.202C404.699 99.202 408.259 123.347 402.392 130.162L384.389 128.531C384.389 128.531 387.681 116.349 385.154 110.456C383.606 106.846 383.692 94.3796 385.217 84.2383C386.382 76.4946 388.582 71.2153 396.312 72.4138Z" fill="#362406"/>
<path d="M283.23 32.4638C276.723 35.7123 271.772 41.4152 269.466 48.3179C267.159 55.2207 267.687 62.7579 270.932 69.2714C277.689 82.8351 302.108 105.968 321.59 109.463C313.21 83.9899 324.862 58.0975 319.998 44.7747C314.8 30.5388 296.779 25.6993 283.23 32.4638Z" fill="#343A40"/>
<path d="M292.362 64.7231C297.3 64.7231 301.303 60.7159 301.303 55.7727C301.303 50.8295 297.3 46.8223 292.362 46.8223C287.425 46.8223 283.422 50.8295 283.422 55.7727C283.422 60.7159 287.425 64.7231 292.362 64.7231Z" fill="white"/>
<path d="M321.418 123.828C324.653 123.828 327.274 121.204 327.274 117.966C327.274 114.728 324.653 112.104 321.418 112.104C318.184 112.104 315.562 114.728 315.562 117.966C315.562 121.204 318.184 123.828 321.418 123.828Z" fill="#343A40"/>
<path opacity="0.2" d="M295.088 46.3628C296.262 46.322 297.432 46.5132 298.532 46.9255C299.633 47.3377 300.641 47.963 301.499 48.7656C302.358 49.5681 303.05 50.5322 303.537 51.6027C304.023 52.6732 304.294 53.8292 304.333 55.0045C304.373 56.1799 304.181 57.3515 303.769 58.4525C303.356 59.5535 302.73 60.5623 301.928 61.4212C301.125 62.2801 300.162 62.9723 299.092 63.4582C298.022 63.9441 296.867 64.2142 295.693 64.2531C297.683 63.5122 299.344 62.0866 300.38 60.2315C301.416 58.3764 301.759 56.2128 301.346 54.128C300.934 52.0432 299.794 50.1733 298.131 48.8529C296.467 47.5325 294.389 46.8479 292.267 46.9215C293.171 46.5842 294.123 46.3955 295.088 46.3628Z" fill="#231F20"/>
<path opacity="0.2" d="M320.043 44.779C324.907 58.1018 313.255 83.9941 321.635 109.467C319.796 109.128 317.985 108.654 316.216 108.047C309.388 83.4226 320.105 58.8167 315.405 45.9445C311.198 34.4236 298.593 29.058 286.757 31.0155C299.748 26.5802 315.28 31.7332 320.043 44.779Z" fill="#231F20"/>
<path d="M45.5864 168.388C38.8512 168.226 32.3275 170.749 27.4506 175.403C22.5737 180.056 19.743 186.458 19.5813 193.2C19.2445 207.241 29.2307 236.78 43.6745 248.094C47.8372 223.595 68.5889 207.443 70.3719 194.421C72.2772 180.507 59.6119 168.725 45.5864 168.388Z" fill="#343A40"/>
<path d="M42.9773 199.734C47.5528 199.734 51.2619 196.02 51.2619 191.44C51.2619 186.86 47.5528 183.146 42.9773 183.146C38.4018 183.146 34.6926 186.86 34.6926 191.44C34.6926 196.02 38.4018 199.734 42.9773 199.734Z" fill="#F8F9FA"/>
<path d="M39.853 260.415C42.8499 260.415 45.2793 257.983 45.2793 254.983C45.2793 251.983 42.8499 249.551 39.853 249.551C36.8562 249.551 34.4268 251.983 34.4268 254.983C34.4268 257.983 36.8562 260.415 39.853 260.415Z" fill="#343A40"/>
<path opacity="0.2" d="M49.2817 184.916C51.2575 185.878 52.7706 187.587 53.4881 189.666C54.2055 191.745 54.0686 194.024 53.1075 196.002C52.6316 196.981 51.9676 197.857 51.1536 198.58C50.3395 199.302 49.3912 199.857 48.3629 200.213C46.2862 200.931 44.0095 200.794 42.0337 199.832C43.9841 200.088 45.962 199.641 47.6133 198.571C49.2647 197.501 50.4818 195.878 51.0467 193.991C51.6115 192.105 51.4874 190.079 50.6965 188.276C49.9056 186.473 48.4994 185.01 46.7298 184.15C47.6162 184.266 48.4779 184.525 49.2817 184.916Z" fill="#212529"/>
<path opacity="0.2" d="M70.4067 194.445C68.6237 207.467 47.872 223.619 43.7093 248.117C42.3499 247.042 41.0718 245.868 39.8855 244.604C44.9523 221.473 64.3807 205.969 66.1035 193.387C67.6453 182.126 59.6439 172.264 49.102 168.732C61.662 170.735 72.1527 181.693 70.4067 194.445Z" fill="#212529"/>
<path d="M141.961 60.3267C140.068 60.4507 138.298 61.3092 137.027 62.7196C135.757 64.13 135.087 65.981 135.159 67.8786C135.18 68.2641 135.232 68.6473 135.316 69.0241L113.82 82.5808L125.704 87.8424L144.295 74.162C145.829 73.6929 147.165 72.7286 148.093 71.4197C149.022 70.1108 149.492 68.5309 149.43 66.9265C149.386 66.0139 149.162 65.119 148.772 64.2929C148.383 63.4667 147.834 62.7255 147.158 62.1115C146.482 61.4976 145.692 61.0229 144.833 60.7146C143.974 60.4064 143.063 60.2705 142.151 60.3148C142.087 60.3179 142.024 60.3219 141.961 60.3267Z" fill="#FFB6B6"/>
<path d="M121.232 76.4189L126.559 87.4227L105.495 100.992C103.996 101.966 102.274 102.54 100.491 102.66C98.708 102.779 96.9242 102.44 95.3091 101.675C93.3454 100.734 91.7404 99.1801 90.736 97.2465C89.7317 95.3129 89.3824 93.1049 89.7407 90.9552L96.5757 51.8926C97.0346 49.159 98.5224 46.7054 100.733 45.0363C102.944 43.3673 105.709 42.6097 108.461 42.9195C109.801 43.0662 111.099 43.4757 112.282 44.1247C113.464 44.7736 114.507 45.6494 115.351 46.7018C116.195 47.7542 116.823 48.9628 117.201 50.2585C117.578 51.5542 117.697 52.9116 117.551 54.2533C117.539 54.3593 117.526 54.4651 117.511 54.5707C117.459 54.946 117.388 55.3183 117.296 55.6859L109.834 83.4665L121.232 76.4189Z" fill="#0D4F1B"/>
<path d="M122.729 93.4785H92.6047V123.635H122.729V93.4785Z" fill="#FFB8B8"/>
<path d="M194.169 182.29L205.674 178.416L212.081 209.766L204.284 212.391L194.169 182.29Z" fill="#FFB6B6"/>
<path d="M174.67 179.882L186.082 175.74L193.216 206.932L185.483 209.737L174.67 179.882Z" fill="#FFB6B6"/>
<path d="M93.6851 131.513C87.6473 171.808 168.052 147.985 168.052 147.985L193.262 182.8L208.021 180.113C208.021 180.113 201.38 159.213 189.52 131.195C184.253 118.753 124.445 121.793 124.445 121.793L123.204 112.037L88.989 111.365L93.6851 131.513Z" fill="#2F2E41"/>
<path d="M151.765 150.686L170.358 139.094C183.969 166.302 187.981 178.086 187.981 178.086L175.114 181.708L151.765 150.686Z" fill="#2F2E41"/>
<path d="M110.894 44.4727L104.831 36.6704L96.1817 36.2949L95.3184 43.6331L91.0327 45.6115C86.7534 61.8864 86.0925 78.903 89.0966 95.4614C89.6709 96.0028 90.0906 96.6878 90.3123 97.4457C90.534 98.2036 90.5498 99.007 90.3578 99.773L90.08 100.882L90.1057 100.922C91.0176 102.363 91.327 104.105 90.9671 105.772L88.9204 109.412C88.1859 110.722 87.7452 112.175 87.6287 113.672C87.5123 115.169 87.723 116.674 88.2461 118.081C88.7693 119.488 89.5924 120.765 90.6582 121.821C91.724 122.878 93.007 123.689 94.4178 124.199C106.999 128.764 118.792 130.465 127.517 117.655L130.26 73.0138L110.894 44.4727Z" fill="#0D4F1B"/>
<path d="M104.542 38.7431C113.375 38.7431 120.535 31.5755 120.535 22.7338C120.535 13.8922 113.375 6.72461 104.542 6.72461C95.7102 6.72461 88.5503 13.8922 88.5503 22.7338C88.5503 31.5755 95.7102 38.7431 104.542 38.7431Z" fill="#FFB8B8"/>
<path d="M96.5143 3.4346C89.743 3.56483 84.3725 9.85242 84.5189 17.4783C79.508 22.7125 78.2941 48.4573 82.481 55.3061C90.1402 56.1961 94.7989 37.2269 101.516 39.9691L102.401 35.8293L104.406 41.2203C106.113 42.0081 107.808 42.8728 109.489 43.8145C110.697 38.2668 110.397 32.8743 107.15 28.1773C104.265 24.0046 111.286 19.0507 116.307 19.7509L116.233 15.9184L117.494 19.728C119.451 21.1677 121.616 20.6465 123.836 19.6061C127.436 0.875776 99.5641 -4.24636 96.5143 3.4346Z" fill="#2F2E41"/>
<path d="M200.741 217.693L205.867 217.023L206.15 212.059L209.125 216.597L222.72 214.819C223.372 214.734 223.979 214.442 224.453 213.987C224.928 213.532 225.245 212.937 225.357 212.289C225.47 211.64 225.373 210.973 225.08 210.384C224.787 209.795 224.313 209.316 223.729 209.015L211.893 202.929L211.254 198.031L199.924 200.207L200.741 217.693Z" fill="#2F2E41"/>
<path d="M187.203 217.738L191.853 215.478L190.551 210.679L194.809 214.041L207.142 208.046C207.733 207.758 208.217 207.289 208.523 206.707C208.829 206.125 208.941 205.46 208.843 204.81C208.745 204.159 208.442 203.557 207.978 203.091C207.514 202.626 206.913 202.321 206.263 202.221L193.111 200.199L190.956 195.756L180.897 201.41L187.203 217.738Z" fill="#2F2E41"/>
<path d="M117.005 110.983H122.707V67.0508H118.07C117.845 67.0508 117.63 67.1398 117.471 67.2984C117.311 67.457 117.221 67.6723 117.22 67.8971L117.005 110.983Z" fill="#212529"/>
<path d="M117.934 68.2967C117.965 68.355 117.988 68.4166 118.005 68.4804L120.116 76.6279L122.407 80.97H183.175V79.8886L179.715 76.6279L175.679 68.8998C175.501 68.5586 175.267 68.2498 174.987 67.986C174.348 67.384 173.503 67.0488 172.626 67.0488H118.685C118.539 67.0488 118.395 67.0867 118.267 67.1588C118.14 67.2309 118.033 67.3348 117.957 67.4604C117.882 67.5859 117.84 67.7289 117.836 67.8754C117.832 68.022 117.865 68.1671 117.934 68.2967Z" fill="#343A40"/>
<path d="M122.174 79.9277H183.407V111.215H122.174V79.9277ZM182.942 110.75H122.639V80.3931H182.942L182.942 110.75Z" fill="#212529"/>
<path d="M122.174 79.9277H183.407V111.215H122.174V79.9277Z" fill="#F8F9FA"/>
<path d="M122.291 87.0531V80.043H183.291V111.098H146.309C139.941 111.09 133.836 108.555 129.333 104.047C124.831 99.5395 122.298 93.4278 122.291 87.0531Z" fill="#343A40"/>
<path d="M118.989 72.4648L120.117 76.6284H179.715L177.789 73.1632L118.989 72.4648Z" fill="#212529"/>
<path d="M181.149 96.3223H171.388V96.863H181.149V96.3223Z" fill="#F8F9FA"/>
<path d="M181.149 98.2148H171.388V98.7556H181.149V98.2148Z" fill="#F8F9FA"/>
<path d="M181.149 100.107H171.388V100.648H181.149V100.107Z" fill="#F8F9FA"/>
<path d="M177.368 90.2991C179.307 90.2991 180.879 88.7255 180.879 86.7843C180.879 84.8432 179.307 83.2695 177.368 83.2695C175.429 83.2695 173.857 84.8432 173.857 86.7843C173.857 88.7255 175.429 90.2991 177.368 90.2991Z" fill="#F8F9FA"/>
<path d="M149.045 33.6744C153.172 33.5752 157.169 35.1213 160.157 37.9725C163.146 40.8237 164.88 44.7465 164.979 48.8779C165.185 57.4811 159.066 75.5811 150.216 82.5138C147.665 67.5022 134.95 57.6051 133.857 49.626C132.69 41.1 140.451 33.881 149.045 33.6744Z" fill="#343A40"/>
<path d="M150.644 52.8823C153.447 52.8823 155.72 50.6072 155.72 47.8006C155.72 44.994 153.447 42.7188 150.644 42.7188C147.84 42.7188 145.567 44.994 145.567 47.8006C145.567 50.6072 147.84 52.8823 150.644 52.8823Z" fill="#F8F9FA"/>
<path d="M152.558 90.0652C154.394 90.0652 155.883 88.5749 155.883 86.7367C155.883 84.8984 154.394 83.4082 152.558 83.4082C150.722 83.4082 149.233 84.8984 149.233 86.7367C149.233 88.5749 150.722 90.0652 152.558 90.0652Z" fill="#F8F9FA"/>
<path opacity="0.2" d="M146.78 43.8033C146.181 44.0952 145.645 44.5024 145.203 45.0018C144.76 45.5012 144.421 46.0828 144.203 46.7136C143.985 47.3443 143.894 48.0118 143.934 48.678C143.974 49.3441 144.145 49.9958 144.436 50.5959C144.728 51.196 145.135 51.7328 145.634 52.1755C146.132 52.6182 146.713 52.9582 147.343 53.1761C147.974 53.394 148.64 53.4856 149.306 53.4455C149.971 53.4054 150.622 53.2346 151.222 52.9426C150.027 53.0997 148.815 52.8259 147.803 52.1702C146.791 51.5145 146.045 50.5198 145.699 49.3639C145.353 48.2081 145.429 46.9667 145.914 45.8619C146.398 44.7571 147.26 43.861 148.344 43.334C147.801 43.4049 147.273 43.5634 146.78 43.8033Z" fill="#231F20"/>
<path opacity="0.2" d="M133.836 49.6417C134.929 57.6208 147.644 67.5179 150.195 82.5295C151.028 81.8706 151.811 81.1509 152.538 80.3764C149.433 66.2032 137.529 56.7031 136.473 48.9938C135.528 42.0938 140.431 36.0506 146.891 33.8867C139.195 35.1139 132.767 41.8285 133.836 49.6417Z" fill="#231F20"/>
<path d="M140.002 75.934C138.11 75.7937 136.238 76.398 134.784 77.6182C133.331 78.8384 132.41 80.5783 132.219 82.4676C132.186 82.8523 132.185 83.239 132.215 83.6238L109.048 94.0621L120.087 100.924L140.395 89.9598C141.979 89.7084 143.436 88.939 144.537 87.7719C145.638 86.6047 146.323 85.1054 146.483 83.5079C146.65 81.6703 146.081 79.8415 144.902 78.4239C143.722 77.0062 142.028 76.1159 140.192 75.9487C140.128 75.9429 140.065 75.938 140.002 75.934Z" fill="#FFB6B6"/>
<path d="M117.242 88.9893L120.992 100.627L98.2501 111.138C96.6308 111.894 94.8452 112.223 93.0631 112.094C91.2809 111.964 89.5614 111.381 88.068 110.399C86.2538 109.194 84.8799 107.432 84.1534 105.377C83.4269 103.323 83.3872 101.088 84.0401 99.0087L96.2257 61.2741C97.0592 58.6307 98.8728 56.4076 101.294 55.062C103.714 53.7163 106.558 53.3504 109.24 54.0395C110.547 54.371 111.776 54.957 112.857 55.7639C113.937 56.5709 114.849 57.5831 115.539 58.7426C116.229 59.9022 116.684 61.1864 116.878 62.522C117.072 63.8576 117.001 65.2184 116.67 66.5267C116.644 66.6301 116.616 66.733 116.587 66.8355C116.484 67.2001 116.361 67.5588 116.219 67.9101L104.977 94.3848L117.242 88.9893Z" fill="#0D4F1B"/>
</g>
<defs>
<clipPath id="clip0_859_9179">
<rect width="467" height="337" fill="white" transform="translate(0.5)"/>
</clipPath>
</defs>
</svg>
