<svg width="352" height="237" viewBox="0 0 352 237" fill="none" xmlns="http://www.w3.org/2000/svg">
<g clip-path="url(#clip0_859_9482)">
<path d="M223.567 131.622C224.799 131.362 225.881 130.622 226.578 129.563C227.276 128.504 227.534 127.21 227.297 125.96C227.244 125.684 227.167 125.413 227.066 125.151L239.863 113.997L231.497 111.604L220.627 122.562C219.486 123.113 218.604 124.096 218.173 125.298C217.743 126.501 217.797 127.827 218.325 128.989C218.774 129.964 219.537 130.756 220.49 131.234C221.442 131.713 222.528 131.85 223.567 131.622L223.567 131.622Z" fill="#FFB6B6"/>
<path d="M306.666 210.722L307.131 200.148C311.98 197.527 317.388 196.143 322.885 196.115C315.319 202.37 316.264 214.428 311.134 222.839C309.514 225.45 307.334 227.659 304.755 229.303C302.176 230.946 299.265 231.981 296.236 232.332L289.904 236.252C289.035 231.355 289.227 226.325 290.465 221.509C291.704 216.694 293.961 212.207 297.08 208.358C298.85 206.217 300.881 204.309 303.123 202.68C304.64 206.724 306.666 210.722 306.666 210.722Z" fill="#125D1B"/>
<path d="M290.351 230.81L284.617 230.81L281.89 208.449L290.352 208.45L290.351 230.81Z" fill="#FFB6B6"/>
<path d="M291.813 236.429L273.326 236.429V236.192C273.326 234.263 274.084 232.412 275.433 231.048C276.783 229.683 278.613 228.917 280.521 228.917H280.522L283.899 226.326L290.2 228.917L291.813 228.917L291.813 236.429Z" fill="#2F2E41"/>
<path d="M263.713 230.81L257.98 230.81L255.252 208.449L263.715 208.45L263.713 230.81Z" fill="#FFB6B6"/>
<path d="M265.176 236.429L246.689 236.429V236.192C246.689 234.263 247.447 232.412 248.796 231.048C250.146 229.683 251.976 228.917 253.884 228.917H253.885L257.262 226.326L263.563 228.917L265.176 228.917L265.176 236.429Z" fill="#2F2E41"/>
<path d="M261.232 108.561L298.525 109.503C305.608 113.393 305.716 121.812 303.395 131.808C303.395 131.808 304.178 137.749 302.612 139.333C301.045 140.917 300.261 140.917 301.045 143.69C301.828 146.462 297.689 150.991 298.192 151.499C298.694 152.007 299.87 154.78 299.87 154.78L295.952 177.356C295.952 177.356 293.21 216.568 292.427 217.36C291.643 218.152 290.86 217.36 291.643 219.34C292.427 221.321 293.21 220.528 292.427 221.321C291.733 222.077 291.079 222.87 290.468 223.697H280.998C280.998 223.697 280.284 219.736 280.284 219.34C280.284 218.944 279.5 216.568 279.5 216.172C279.5 215.776 280.193 215.075 280.193 215.075C280.432 214.27 280.594 213.444 280.675 212.607C280.675 211.815 283.026 181.317 283.026 181.317L278.325 141.71L266.965 180.525C266.965 180.525 266.965 214.587 266.182 215.379C265.398 216.172 265.398 215.776 265.79 217.36C266.182 218.944 267.749 218.548 266.573 219.736C265.398 220.924 265.006 218.944 265.398 220.924L265.79 222.905L254.038 223.075C254.038 223.075 252.471 219.736 253.255 218.548C254.038 217.36 253.991 217.684 253.036 215.74C252.08 213.795 251.688 213.399 252.08 213.003C252.471 212.607 252.471 210.5 252.471 210.5L254.43 172.603C254.43 172.603 254.822 132.6 254.822 131.412C254.851 130.8 254.74 130.19 254.496 129.63V128.017L255.997 122.302L261.232 108.561Z" fill="#2F2E41"/>
<path d="M223.136 118.756L229.439 123.896L263.798 96.9659L261.765 50.0957C259.833 51.6588 258.226 53.5938 257.038 55.7887C255.85 57.9837 255.104 60.395 254.843 62.8833L248.956 89.3597L223.136 118.756Z" fill="#362406"/>
<path d="M255.666 120.4C267.828 121.972 279.034 117.21 289.619 113.616C294.397 111.994 299.211 113.688 303.647 110.944C301.729 91.8395 303.591 70.3199 307.666 47.3871C307.899 46.0889 307.656 44.7494 306.984 43.6187C306.311 42.488 305.255 41.6432 304.012 41.242L290.882 37.433L286.839 32.9238L276.398 35.6037L272.744 42.2833L260.184 50.8638C259.451 51.3644 258.877 52.0683 258.53 52.8911C258.183 53.7139 258.079 54.6204 258.229 55.5017C262.003 77.0691 261.128 99.2058 255.666 120.4Z" fill="#362406"/>
<path d="M294.482 126.314C295.597 125.724 296.438 124.714 296.824 123.502C297.209 122.291 297.108 120.975 296.542 119.838C296.417 119.587 296.269 119.347 296.102 119.123L305.403 104.861L296.709 104.867L289.209 118.409C288.259 119.254 287.676 120.443 287.586 121.718C287.496 122.994 287.907 124.254 288.728 125.227C289.423 126.041 290.371 126.592 291.417 126.79C292.462 126.988 293.543 126.82 294.482 126.314L294.482 126.314Z" fill="#FFB6B6"/>
<path d="M291.855 113.001L297.548 120.401L317.472 90.3878L315.749 59.8961C315.529 56.0125 314.342 52.2482 312.297 48.9533C310.252 45.6583 307.417 42.9399 304.054 41.0508L304.46 87.9209L291.855 113.001Z" fill="#362406"/>
<path d="M277.55 31.1807C284.587 31.1807 290.292 25.4127 290.292 18.2974C290.292 11.1821 284.587 5.41406 277.55 5.41406C270.513 5.41406 264.808 11.1821 264.808 18.2974C264.808 25.4127 270.513 31.1807 277.55 31.1807Z" fill="#FFB6B6"/>
<path d="M269.431 10.7356C269.924 10.7395 270.415 10.8046 270.892 10.9295C271.833 11.1582 272.789 11.3202 273.752 11.4144C276.702 11.695 279.474 12.9669 281.624 15.0271C283.775 17.0873 285.181 19.8168 285.618 22.7797C286.358 22.127 288.043 20.9264 289.424 22.0423C289.445 22.06 289.457 22.0691 289.506 22.0458C290.423 21.6059 292.051 16.1915 292.1 11.4243C292.126 8.89395 291.732 5.66288 289.708 4.63967L289.602 4.58576L289.574 4.46859C289.439 3.89941 287.928 2.92783 285.302 2.17163C280.531 0.797399 273.418 -1.87963 269.412 2.06008C269.109 3.38825 268.123 6.23053 267.127 6.5527C266.024 6.90929 265.071 7.21704 264.921 8.5852C264.796 10.5322 264.805 12.4857 264.948 14.4314C265.322 13.2408 266.056 12.1987 267.046 11.4518C267.75 10.9725 268.583 10.7226 269.431 10.7356Z" fill="#2F2E41"/>
<path d="M352 236.511C352 236.575 351.988 236.639 351.964 236.698C351.939 236.758 351.904 236.812 351.859 236.857C351.814 236.903 351.76 236.939 351.702 236.963C351.643 236.988 351.58 237 351.516 237H0.48388C0.355548 237 0.232476 236.948 0.141731 236.857C0.0509855 236.765 0 236.641 0 236.511C0 236.381 0.0509855 236.257 0.141731 236.165C0.232476 236.073 0.355548 236.021 0.48388 236.021H351.516C351.58 236.021 351.643 236.034 351.702 236.058C351.76 236.083 351.814 236.119 351.859 236.164C351.904 236.21 351.939 236.264 351.964 236.323C351.988 236.383 352 236.446 352 236.511Z" fill="#212529"/>
<path d="M145.277 41.5762L97.4476 52.4563C96.1661 52.7494 95.0519 53.5444 94.3495 54.6671C93.647 55.7897 93.4137 57.1482 93.7006 58.4446L106.816 117.388L163.012 104.604C163.474 104.501 163.896 104.265 164.229 103.925L151.199 45.3648C150.909 44.0691 150.123 42.9426 149.012 42.2323C147.902 41.522 146.559 41.2861 145.277 41.5762Z" fill="#ADB5BD"/>
<path d="M127.903 49.6922L101.691 55.6548C100.524 55.9215 99.5097 56.6452 98.8698 57.6673C98.2299 58.6894 98.0171 59.9263 98.2779 61.1069L110.609 116.525L160.519 105.171L151.539 64.8127C150.382 59.6416 147.244 55.1455 142.813 52.3109C138.382 49.4762 133.02 48.5345 127.903 49.6922Z" fill="white"/>
<path d="M150.921 102.184L118.017 109.669C117.875 109.701 117.742 109.761 117.624 109.845C117.505 109.929 117.405 110.035 117.327 110.159C117.25 110.282 117.197 110.42 117.173 110.564C117.148 110.708 117.152 110.855 117.183 110.998C117.215 111.141 117.274 111.275 117.358 111.395C117.441 111.514 117.547 111.616 117.669 111.694C117.791 111.772 117.927 111.825 118.07 111.849C118.212 111.874 118.358 111.87 118.499 111.838L151.403 104.353C151.545 104.321 151.678 104.262 151.797 104.178C151.915 104.094 152.016 103.987 152.093 103.863C152.171 103.74 152.223 103.602 152.248 103.458C152.273 103.314 152.269 103.166 152.238 103.024C152.206 102.881 152.147 102.746 152.063 102.627C151.98 102.507 151.874 102.406 151.752 102.328C151.629 102.25 151.493 102.197 151.35 102.172C151.208 102.148 151.062 102.152 150.921 102.184Z" fill="#E4E4E4"/>
<path d="M149.967 97.8943L117.062 105.379C116.777 105.444 116.53 105.621 116.374 105.87C116.218 106.119 116.166 106.421 116.23 106.709C116.294 106.997 116.469 107.247 116.715 107.405C116.962 107.563 117.261 107.615 117.545 107.55L150.45 100.065C150.591 100.033 150.724 99.9734 150.842 99.8892C150.96 99.805 151.061 99.6981 151.138 99.5747C151.215 99.4512 151.268 99.3135 151.292 99.1696C151.317 99.0256 151.313 98.8781 151.282 98.7356C151.25 98.593 151.191 98.4582 151.108 98.3388C151.024 98.2194 150.919 98.1177 150.796 98.0396C150.674 97.9614 150.538 97.9084 150.396 97.8835C150.253 97.8586 150.108 97.8623 149.967 97.8943H149.967Z" fill="#E4E4E4"/>
<path d="M130.372 97.8481L116.108 101.093C115.824 101.157 115.577 101.334 115.421 101.583C115.265 101.832 115.213 102.133 115.277 102.421C115.341 102.709 115.516 102.959 115.762 103.116C116.008 103.274 116.307 103.326 116.591 103.261L130.855 100.017C130.996 99.9851 131.129 99.9256 131.248 99.8416C131.366 99.7576 131.467 99.6508 131.544 99.5273C131.622 99.4039 131.674 99.2662 131.699 99.1221C131.724 98.9781 131.72 98.8305 131.689 98.6878C131.657 98.5452 131.598 98.4103 131.514 98.2908C131.431 98.1714 131.325 98.0697 131.203 97.9917C131.08 97.9137 130.944 97.8609 130.801 97.8362C130.659 97.8116 130.513 97.8156 130.372 97.8481Z" fill="#E4E4E4"/>
<path d="M147.015 84.6267L114.11 92.1118C113.969 92.1439 113.836 92.2038 113.718 92.2879C113.6 92.3721 113.499 92.479 113.422 92.6025C113.266 92.8518 113.214 93.1537 113.278 93.4415C113.342 93.7294 113.517 93.9798 113.764 94.1376C114.01 94.2953 114.309 94.3476 114.593 94.2828L147.498 86.7977C147.639 86.7656 147.772 86.7058 147.89 86.6216C148.008 86.5374 148.109 86.4306 148.186 86.3071C148.263 86.1836 148.316 86.046 148.34 85.902C148.365 85.758 148.361 85.6105 148.33 85.468C148.298 85.3254 148.239 85.1906 148.156 85.0712C148.072 84.9518 147.967 84.8501 147.845 84.772C147.722 84.6939 147.586 84.6408 147.444 84.6159C147.302 84.591 147.156 84.5947 147.015 84.6267Z" fill="#E4E4E4"/>
<path d="M146.061 80.3418L113.156 87.8269C113.015 87.8587 112.882 87.9183 112.764 88.0024C112.645 88.0864 112.545 88.1932 112.467 88.3166C112.39 88.44 112.337 88.5776 112.313 88.7216C112.288 88.8656 112.291 89.0131 112.323 89.1557C112.355 89.2983 112.414 89.4331 112.497 89.5525C112.581 89.6719 112.687 89.7736 112.809 89.8516C112.931 89.9296 113.067 89.9825 113.21 90.0072C113.352 90.0319 113.498 90.028 113.639 89.9956L146.543 82.5105C146.684 82.4786 146.818 82.4189 146.936 82.3348C147.054 82.2508 147.155 82.144 147.232 82.0206C147.309 81.8972 147.362 81.7597 147.386 81.6158C147.411 81.4719 147.407 81.3245 147.376 81.182C147.344 81.0395 147.285 80.9047 147.201 80.7854C147.118 80.666 147.013 80.5644 146.89 80.4864C146.768 80.4084 146.632 80.3554 146.49 80.3306C146.348 80.3058 146.202 80.3096 146.061 80.3418Z" fill="#E4E4E4"/>
<path d="M126.466 80.2928L112.202 83.5374C112.061 83.5695 111.928 83.6293 111.81 83.7135C111.692 83.7977 111.591 83.9046 111.514 84.028C111.437 84.1515 111.384 84.2892 111.36 84.4331C111.335 84.5771 111.339 84.7246 111.37 84.8671C111.402 85.0097 111.461 85.1445 111.544 85.2639C111.628 85.3834 111.733 85.485 111.856 85.5631C111.978 85.6413 112.114 85.6943 112.256 85.7192C112.399 85.7441 112.544 85.7405 112.685 85.7084L126.949 82.4637C127.09 82.4316 127.223 82.3718 127.341 82.2876C127.459 82.2034 127.56 82.0966 127.637 81.9731C127.715 81.8496 127.767 81.712 127.792 81.568C127.816 81.424 127.813 81.2766 127.781 81.134C127.749 80.9915 127.69 80.8566 127.607 80.7372C127.524 80.6178 127.418 80.5161 127.296 80.438C127.174 80.3599 127.037 80.3068 126.895 80.2819C126.753 80.257 126.607 80.2607 126.466 80.2928Z" fill="#E4E4E4"/>
<path d="M143.108 67.0721L110.204 74.5572C109.919 74.6219 109.672 74.7984 109.516 75.0478C109.36 75.2971 109.308 75.599 109.372 75.8869C109.436 76.1747 109.611 76.4251 109.857 76.5829C110.104 76.7406 110.402 76.7929 110.687 76.7281L143.592 69.243C143.733 69.2109 143.866 69.1511 143.984 69.0669C144.102 68.9827 144.203 68.8759 144.28 68.7524C144.357 68.6289 144.41 68.4913 144.434 68.3473C144.459 68.2033 144.455 68.0559 144.424 67.9133C144.392 67.7708 144.333 67.6359 144.249 67.5165C144.166 67.3971 144.06 67.2954 143.938 67.2173C143.816 67.1392 143.68 67.0861 143.538 67.0612C143.395 67.0363 143.249 67.04 143.108 67.0721Z" fill="#362406"/>
<path d="M142.155 62.785L109.25 70.2701C109.109 70.3021 108.976 70.362 108.858 70.4461C108.74 70.5303 108.639 70.6372 108.562 70.7607C108.406 71.01 108.354 71.3119 108.418 71.5997C108.482 71.8876 108.657 72.138 108.903 72.2958C109.15 72.4535 109.449 72.5058 109.733 72.441L142.638 64.9559C142.779 64.9238 142.912 64.864 143.03 64.7798C143.148 64.6956 143.249 64.5888 143.326 64.4653C143.403 64.3418 143.456 64.2042 143.48 64.0602C143.505 63.9162 143.501 63.7688 143.47 63.6262C143.438 63.4837 143.379 63.3488 143.296 63.2294C143.212 63.11 143.107 63.0083 142.984 62.9302C142.862 62.8521 142.726 62.799 142.584 62.7741C142.441 62.7492 142.296 62.7529 142.155 62.785Z" fill="#362406"/>
<path d="M122.559 62.7361L108.296 65.9808C108.011 66.0456 107.764 66.222 107.607 66.4714C107.451 66.7208 107.4 67.0226 107.464 67.3105C107.528 67.5984 107.702 67.8487 107.949 68.0065C108.196 68.1643 108.494 68.2165 108.779 68.1517L123.042 64.9071C123.183 64.875 123.317 64.8152 123.435 64.731C123.553 64.6468 123.654 64.5399 123.731 64.4164C123.808 64.293 123.861 64.1553 123.885 64.0113C123.91 63.8674 123.906 63.7199 123.874 63.5774C123.843 63.4348 123.784 63.3 123.7 63.1806C123.617 63.0611 123.511 62.9595 123.389 62.8813C123.267 62.8032 123.131 62.7502 122.989 62.7253C122.846 62.7004 122.7 62.704 122.559 62.7361Z" fill="#362406"/>
<path d="M49.8574 109.965C49.5456 109.965 49.2467 110.091 49.0262 110.314C48.8058 110.536 48.6817 110.839 48.6814 111.154V234.105C48.6817 234.42 48.8057 234.722 49.0262 234.945C49.2467 235.168 49.5456 235.294 49.8574 235.294H202.318C202.63 235.294 202.929 235.168 203.15 234.945C203.37 234.722 203.494 234.42 203.494 234.105V130.89C203.494 130.575 203.37 130.273 203.15 130.05C202.929 129.827 202.63 129.701 202.318 129.701H114.816C113.928 129.702 113.071 129.367 112.414 128.763L92.7421 110.69C92.2346 110.223 91.573 109.964 90.8868 109.965H49.8574Z" fill="#6C757D"/>
<path d="M231.806 77.8072L150.171 42.321C147.982 41.3726 145.511 41.3407 143.299 42.2324C141.087 43.1242 139.315 44.8667 138.372 47.0777L95.5957 147.682L191.511 189.376C192.298 189.721 193.166 189.83 194.012 189.689L236.51 89.738C237.448 87.5248 237.48 85.0257 236.598 82.7891C235.716 80.5524 233.992 78.7608 231.806 77.8072Z" fill="#ADB5BD"/>
<path d="M197.771 71.0275L153.033 51.5802C151.04 50.7162 148.789 50.6867 146.775 51.4981C144.76 52.3096 143.146 53.8958 142.287 55.9088L102.07 150.496L187.257 187.527L216.545 118.643C220.289 109.81 220.415 99.8364 216.895 90.91C213.375 81.9835 206.498 74.8332 197.771 71.0275Z" fill="white"/>
<path d="M176.316 172.818L120.154 148.405C119.914 148.3 119.655 148.244 119.393 148.24C119.131 148.237 118.871 148.285 118.628 148.383C118.385 148.481 118.163 148.626 117.975 148.811C117.787 148.996 117.637 149.216 117.534 149.459C117.43 149.702 117.375 149.964 117.372 150.229C117.369 150.494 117.417 150.757 117.514 151.002C117.611 151.248 117.755 151.472 117.938 151.662C118.121 151.852 118.339 152.003 118.58 152.107L174.742 176.52C174.982 176.625 175.241 176.681 175.503 176.685C175.764 176.689 176.025 176.64 176.268 176.542C176.511 176.445 176.733 176.299 176.921 176.114C177.109 175.93 177.259 175.709 177.362 175.466C177.465 175.223 177.52 174.961 177.524 174.697C177.527 174.432 177.479 174.169 177.382 173.923C177.285 173.677 177.14 173.453 176.957 173.263C176.774 173.074 176.556 172.923 176.316 172.818Z" fill="#E4E4E4"/>
<path d="M179.428 165.497L123.267 141.084C122.781 140.873 122.232 140.865 121.741 141.063C121.249 141.262 120.856 141.649 120.647 142.14C120.438 142.631 120.431 143.186 120.627 143.683C120.823 144.18 121.205 144.578 121.691 144.789L177.852 169.202C178.093 169.307 178.352 169.362 178.614 169.366C178.875 169.369 179.136 169.321 179.379 169.223C179.622 169.125 179.844 168.979 180.032 168.794C180.219 168.609 180.369 168.389 180.473 168.146C180.576 167.903 180.631 167.641 180.634 167.376C180.638 167.111 180.59 166.848 180.493 166.602C180.396 166.356 180.252 166.132 180.069 165.942C179.886 165.753 179.669 165.601 179.428 165.497H179.428Z" fill="#E4E4E4"/>
<path d="M150.722 144.351L126.377 133.768C126.137 133.663 125.879 133.607 125.617 133.604C125.355 133.6 125.095 133.648 124.852 133.746C124.609 133.844 124.387 133.99 124.199 134.174C124.012 134.359 123.862 134.579 123.758 134.822C123.655 135.066 123.6 135.327 123.597 135.592C123.593 135.856 123.641 136.119 123.738 136.365C123.835 136.611 123.98 136.835 124.162 137.024C124.345 137.214 124.563 137.365 124.804 137.47L149.149 148.052C149.389 148.157 149.647 148.213 149.909 148.217C150.171 148.22 150.431 148.172 150.674 148.074C150.917 147.976 151.139 147.83 151.327 147.646C151.514 147.461 151.664 147.241 151.768 146.998C151.871 146.755 151.926 146.493 151.929 146.229C151.933 145.964 151.885 145.701 151.788 145.455C151.69 145.209 151.546 144.985 151.364 144.796C151.181 144.606 150.963 144.455 150.722 144.351Z" fill="#E4E4E4"/>
<path d="M189.056 142.853L132.894 118.44C132.409 118.23 131.86 118.223 131.369 118.421C130.878 118.619 130.485 119.006 130.276 119.497C130.068 119.989 130.06 120.543 130.256 121.04C130.451 121.536 130.834 121.934 131.319 122.146L187.48 146.559C187.721 146.664 187.98 146.72 188.242 146.724C188.504 146.728 188.764 146.679 189.008 146.581C189.252 146.483 189.474 146.338 189.662 146.153C189.849 145.968 189.999 145.747 190.103 145.504C190.207 145.26 190.262 144.999 190.265 144.733C190.268 144.468 190.22 144.205 190.123 143.959C190.026 143.713 189.881 143.489 189.698 143.299C189.515 143.109 189.297 142.958 189.056 142.853Z" fill="#E4E4E4"/>
<path d="M192.167 135.537L136.005 111.124C135.765 111.019 135.506 110.963 135.244 110.959C134.982 110.955 134.722 111.004 134.479 111.102C134.236 111.199 134.014 111.345 133.826 111.53C133.638 111.714 133.488 111.935 133.385 112.178C133.281 112.421 133.226 112.683 133.223 112.948C133.22 113.212 133.268 113.475 133.365 113.721C133.462 113.967 133.607 114.191 133.79 114.381C133.972 114.57 134.191 114.721 134.431 114.826L190.593 139.239C190.833 139.344 191.092 139.4 191.354 139.404C191.616 139.407 191.876 139.359 192.119 139.261C192.362 139.163 192.584 139.018 192.772 138.833C192.96 138.649 193.11 138.428 193.213 138.185C193.317 137.942 193.372 137.68 193.375 137.415C193.378 137.15 193.33 136.888 193.233 136.642C193.136 136.396 192.991 136.172 192.808 135.982C192.625 135.793 192.407 135.641 192.167 135.537Z" fill="#E4E4E4"/>
<path d="M163.463 114.387L139.118 103.804C138.632 103.593 138.083 103.586 137.592 103.784C137.101 103.982 136.707 104.37 136.499 104.861C136.29 105.352 136.282 105.907 136.478 106.404C136.674 106.9 137.057 107.298 137.542 107.51L161.887 118.092C162.128 118.197 162.387 118.253 162.649 118.256C162.911 118.26 163.171 118.211 163.414 118.113C163.658 118.015 163.879 117.87 164.067 117.685C164.255 117.5 164.405 117.28 164.508 117.036C164.612 116.793 164.667 116.532 164.67 116.267C164.674 116.002 164.626 115.739 164.528 115.493C164.431 115.247 164.287 115.022 164.104 114.833C163.922 114.643 163.704 114.491 163.463 114.387Z" fill="#E4E4E4"/>
<path d="M201.796 112.888L145.635 88.4753C145.149 88.265 144.601 88.2582 144.11 88.4564C143.619 88.6547 143.226 89.0417 143.018 89.5326C142.809 90.0235 142.801 90.5782 142.997 91.0747C143.192 91.5711 143.574 91.9689 144.06 92.1807L200.221 116.594C200.462 116.698 200.72 116.754 200.982 116.758C201.244 116.761 201.504 116.713 201.748 116.615C201.991 116.517 202.213 116.371 202.401 116.186C202.588 116.002 202.738 115.781 202.842 115.538C202.945 115.295 203 115.033 203.004 114.768C203.007 114.503 202.959 114.24 202.862 113.994C202.765 113.748 202.621 113.524 202.438 113.334C202.255 113.144 202.037 112.993 201.796 112.888Z" fill="#032C17"/>
<path d="M204.907 105.572L148.746 81.1592C148.26 80.9486 147.711 80.9417 147.22 81.1399C146.729 81.3381 146.337 81.7252 146.128 82.2162C145.919 82.7072 145.911 83.262 146.107 83.7585C146.302 84.2551 146.685 84.6529 147.17 84.8646L203.332 109.278C203.572 109.383 203.831 109.44 204.094 109.444C204.356 109.448 204.617 109.4 204.861 109.302C205.105 109.204 205.327 109.058 205.515 108.873C205.703 108.688 205.853 108.468 205.957 108.224C206.061 107.98 206.116 107.718 206.119 107.453C206.122 107.187 206.074 106.924 205.976 106.678C205.879 106.431 205.734 106.207 205.551 106.017C205.367 105.828 205.148 105.676 204.907 105.572Z" fill="#032C17"/>
<path d="M176.203 84.4221L151.858 73.8394C151.372 73.6284 150.823 73.6212 150.332 73.8193C149.841 74.0174 149.448 74.4047 149.239 74.8959C149.03 75.3872 149.023 75.9422 149.218 76.4389C149.414 76.9356 149.797 77.3334 150.283 77.5448L174.628 88.1275C174.868 88.2322 175.127 88.2879 175.389 88.2916C175.651 88.2952 175.911 88.2466 176.154 88.1485C176.398 88.0505 176.62 87.9049 176.807 87.7201C176.995 87.5353 177.145 87.315 177.248 87.0716C177.352 86.8282 177.407 86.5666 177.41 86.3018C177.414 86.0369 177.366 85.7739 177.269 85.5279C177.172 85.2818 177.028 85.0575 176.845 84.8678C176.662 84.6781 176.444 84.5266 176.203 84.4221V84.4221Z" fill="#032C17"/>
<path d="M115.593 114.348L67.7642 125.228C66.4828 125.521 65.3686 126.316 64.6661 127.439C63.9637 128.561 63.7303 129.92 64.0172 131.216L77.1324 190.159L133.329 177.376C133.79 177.272 134.213 177.036 134.546 176.697L121.516 118.136C121.226 116.841 120.439 115.714 119.329 115.004C118.219 114.294 116.875 114.058 115.593 114.348Z" fill="#ADB5BD"/>
<path d="M98.2194 122.464L72.0079 128.426C70.841 128.693 69.8263 129.417 69.1864 130.439C68.5466 131.461 68.3337 132.698 68.5946 133.878L80.9254 189.296L130.836 177.943L121.856 137.584C120.699 132.413 117.561 127.917 113.13 125.082C108.699 122.248 103.336 121.306 98.2194 122.464Z" fill="white"/>
<path d="M121.238 174.956L88.3332 182.441C88.1921 182.472 88.0586 182.532 87.9404 182.616C87.8221 182.7 87.7214 182.807 87.644 182.93C87.5666 183.054 87.5141 183.191 87.4893 183.335C87.4646 183.479 87.4682 183.627 87.5 183.769C87.5317 183.912 87.5909 184.047 87.6742 184.166C87.7576 184.286 87.8634 184.387 87.9856 184.465C88.1078 184.543 88.244 184.596 88.3865 184.621C88.5289 184.646 88.6748 184.642 88.8157 184.609L121.72 177.124C121.861 177.093 121.995 177.033 122.113 176.949C122.232 176.865 122.332 176.758 122.41 176.635C122.487 176.511 122.54 176.374 122.565 176.23C122.59 176.085 122.586 175.938 122.554 175.795C122.523 175.653 122.463 175.518 122.38 175.398C122.296 175.279 122.191 175.177 122.068 175.099C121.946 175.021 121.81 174.968 121.667 174.944C121.525 174.919 121.379 174.923 121.238 174.956Z" fill="#E4E4E4"/>
<path d="M120.283 170.666L87.3789 178.151C87.0941 178.216 86.8465 178.392 86.6905 178.642C86.5345 178.891 86.4828 179.193 86.5469 179.481C86.6109 179.769 86.7855 180.019 87.0321 180.177C87.2787 180.334 87.5772 180.387 87.8619 180.322L120.766 172.837C121.051 172.772 121.299 172.596 121.455 172.346C121.611 172.097 121.662 171.795 121.598 171.507C121.534 171.219 121.36 170.969 121.113 170.811C120.866 170.653 120.568 170.601 120.283 170.666Z" fill="#E4E4E4"/>
<path d="M100.689 170.622L86.4251 173.866C86.2843 173.898 86.1511 173.958 86.0331 174.042C85.9151 174.126 85.8146 174.233 85.7375 174.356C85.6603 174.48 85.6079 174.617 85.5832 174.761C85.5586 174.905 85.5623 175.052 85.594 175.195C85.6256 175.337 85.6847 175.472 85.7679 175.591C85.8511 175.71 85.9567 175.812 86.0787 175.89C86.2007 175.968 86.3367 176.021 86.4789 176.046C86.6211 176.071 86.7668 176.067 86.9077 176.035L101.171 172.79C101.312 172.759 101.446 172.699 101.564 172.615C101.683 172.531 101.784 172.424 101.861 172.301C101.938 172.177 101.991 172.04 102.016 171.896C102.041 171.752 102.037 171.604 102.005 171.461C101.974 171.319 101.914 171.184 101.831 171.064C101.748 170.945 101.642 170.843 101.519 170.765C101.397 170.687 101.261 170.634 101.118 170.61C100.976 170.585 100.83 170.589 100.689 170.622Z" fill="#E4E4E4"/>
<path d="M117.331 157.4L84.427 164.885C84.286 164.917 84.1526 164.977 84.0345 165.061C83.9164 165.146 83.8159 165.252 83.7386 165.376C83.5826 165.625 83.5309 165.927 83.595 166.215C83.659 166.503 83.8336 166.753 84.0802 166.911C84.3268 167.069 84.6253 167.121 84.91 167.056L117.814 159.571C118.099 159.506 118.347 159.33 118.503 159.081C118.659 158.831 118.71 158.529 118.646 158.241C118.582 157.954 118.408 157.703 118.161 157.545C117.915 157.388 117.616 157.335 117.331 157.4Z" fill="#E4E4E4"/>
<path d="M116.377 153.113L83.4731 160.598C83.332 160.63 83.1985 160.69 83.0803 160.774C82.962 160.858 82.8613 160.965 82.7839 161.088C82.7065 161.211 82.654 161.349 82.6292 161.493C82.6045 161.637 82.6081 161.785 82.6398 161.927C82.6716 162.07 82.7308 162.205 82.8141 162.324C82.8974 162.443 83.0032 162.545 83.1255 162.623C83.2477 162.701 83.3839 162.754 83.5264 162.779C83.6688 162.803 83.8147 162.799 83.9556 162.767L116.86 155.282C117.001 155.25 117.134 155.19 117.252 155.106C117.371 155.022 117.471 154.915 117.548 154.792C117.626 154.669 117.678 154.531 117.703 154.387C117.728 154.243 117.724 154.096 117.692 153.953C117.661 153.811 117.601 153.676 117.518 153.557C117.435 153.437 117.329 153.336 117.207 153.258C117.085 153.18 116.949 153.127 116.807 153.102C116.664 153.077 116.518 153.081 116.377 153.113Z" fill="#E4E4E4"/>
<path d="M96.7823 153.064L82.5188 156.309C82.234 156.374 81.9864 156.55 81.8304 156.8C81.6744 157.049 81.6227 157.351 81.6868 157.639C81.7508 157.926 81.9253 158.177 82.172 158.335C82.4186 158.492 82.7171 158.545 83.0018 158.48L97.2653 155.235C97.5501 155.17 97.7977 154.994 97.9537 154.745C98.1097 154.495 98.1614 154.193 98.0974 153.906C98.0333 153.618 97.8588 153.367 97.6121 153.209C97.3655 153.052 97.067 152.999 96.7823 153.064Z" fill="#E4E4E4"/>
<path d="M113.425 139.844L80.5207 147.329C80.3797 147.361 80.2464 147.421 80.1283 147.505C80.0102 147.589 79.9096 147.696 79.8324 147.819C79.6763 148.069 79.6246 148.37 79.6887 148.658C79.7528 148.946 79.9273 149.197 80.1739 149.354C80.4205 149.512 80.7191 149.564 81.0038 149.5L113.908 142.014C114.049 141.982 114.183 141.923 114.301 141.838C114.419 141.754 114.519 141.647 114.597 141.524C114.674 141.4 114.726 141.263 114.751 141.119C114.776 140.975 114.772 140.827 114.74 140.685C114.708 140.542 114.649 140.407 114.566 140.288C114.483 140.169 114.377 140.067 114.255 139.989C114.133 139.911 113.997 139.858 113.854 139.833C113.712 139.808 113.566 139.811 113.425 139.844H113.425Z" fill="#362406"/>
<path d="M112.471 135.558L79.5669 143.043C79.4259 143.076 79.2925 143.135 79.1744 143.22C79.0563 143.304 78.9558 143.411 78.8785 143.534C78.7225 143.783 78.6708 144.085 78.7348 144.373C78.7989 144.661 78.9734 144.911 79.2201 145.069C79.4667 145.227 79.7652 145.279 80.0499 145.214L112.954 137.729C113.239 137.665 113.487 137.488 113.643 137.239C113.799 136.989 113.85 136.688 113.786 136.4C113.722 136.112 113.548 135.861 113.301 135.704C113.054 135.546 112.756 135.494 112.471 135.558H112.471Z" fill="#362406"/>
<path d="M92.876 135.51L78.6125 138.754C78.3278 138.819 78.0802 138.995 77.9241 139.245C77.7681 139.494 77.7164 139.796 77.7805 140.084C77.8446 140.372 78.0191 140.622 78.2657 140.78C78.5124 140.938 78.8109 140.99 79.0956 140.925L93.3591 137.68C93.5001 137.648 93.6334 137.589 93.7515 137.504C93.8697 137.42 93.9702 137.313 94.0475 137.19C94.1247 137.066 94.1772 136.929 94.2018 136.785C94.2265 136.641 94.2228 136.493 94.1911 136.351C94.1594 136.208 94.1002 136.073 94.017 135.954C93.9337 135.835 93.828 135.733 93.7059 135.655C93.5838 135.577 93.4476 135.524 93.3053 135.499C93.1629 135.474 93.017 135.477 92.876 135.51Z" fill="#362406"/>
<path d="M48.8472 142.258C48.6928 142.258 48.5399 142.289 48.3972 142.348C48.2545 142.408 48.1249 142.496 48.0157 142.606C47.9065 142.716 47.8198 142.847 47.7607 142.992C47.7016 143.136 47.6712 143.29 47.6711 143.446C47.6711 143.491 47.7073 235.06 47.7073 235.06C47.7395 235.35 47.8765 235.619 48.0921 235.814C48.3077 236.008 48.5868 236.116 48.876 236.116H212.652C212.941 236.116 213.22 236.008 213.436 235.814C213.651 235.619 213.788 235.35 213.821 235.06L224.015 143.58C224.033 143.414 224.017 143.245 223.967 143.086C223.916 142.926 223.833 142.779 223.723 142.655C223.613 142.529 223.478 142.429 223.327 142.36C223.176 142.292 223.012 142.257 222.846 142.258L48.8472 142.258Z" fill="#6C757D"/>
<path d="M60.4044 147.329C58.7428 147.334 57.1498 148 55.9698 149.183C54.7898 150.365 54.1175 151.97 54.0981 153.65L54.3026 224.616C54.2954 225.458 54.4531 226.293 54.7668 227.073C55.0804 227.854 55.5438 228.563 56.1301 229.161C56.7165 229.759 57.4142 230.234 58.1829 230.558C58.9516 230.882 59.7762 231.048 60.6091 231.048H164.573C176.497 231.056 188.005 226.619 196.896 218.585C205.786 210.552 211.436 199.486 212.763 187.504L216.45 154.42C216.549 153.528 216.461 152.625 216.192 151.769C215.922 150.914 215.477 150.126 214.885 149.457C214.294 148.787 213.569 148.252 212.759 147.885C211.949 147.519 211.071 147.329 210.183 147.329H60.4044ZM219.723 147.329L219.704 146.918H219.723V147.329Z" fill="#032C17"/>
<path d="M105.817 200.496H65.5428C65.1266 200.496 64.7275 200.328 64.4332 200.031C64.1389 199.733 63.9736 199.33 63.9736 198.909C63.9736 198.488 64.1389 198.085 64.4332 197.787C64.7275 197.49 65.1266 197.322 65.5428 197.322H105.817C107.841 197.294 107.861 200.524 105.817 200.496Z" fill="#E4E4E4"/>
<path d="M160.071 208.794H65.5428C65.1266 208.794 64.7275 208.627 64.4332 208.33C64.1389 208.032 63.9736 207.629 63.9736 207.208C63.9736 206.787 64.1389 206.384 64.4332 206.086C64.7275 205.788 65.1266 205.621 65.5428 205.621H160.071C162.095 205.593 162.115 208.823 160.071 208.794Z" fill="#E4E4E4"/>
</g>
<defs>
<clipPath id="clip0_859_9482">
<rect width="352" height="237" fill="white"/>
</clipPath>
</defs>
</svg>
