<svg width="360" height="367" viewBox="0 0 360 367" fill="none" xmlns="http://www.w3.org/2000/svg">
<path d="M180 366.999C279.411 366.999 360 362.213 360 356.31C360 350.407 279.411 345.621 180 345.621C80.5887 345.621 0 350.407 0 356.31C0 362.213 80.5887 366.999 180 366.999Z" fill="#614C17"/>
<path d="M204.053 84.6732H202.116V31.0408C202.116 22.8083 198.882 14.9129 193.124 9.09163C187.366 3.27036 179.556 0 171.413 0H59.0224C50.8795 0 43.07 3.27036 37.3121 9.09163C31.5541 14.9129 28.3193 22.8083 28.3193 31.0408V325.271C28.3193 333.503 31.5541 341.399 37.3121 347.22C43.07 353.041 50.8795 356.312 59.0224 356.312H171.413C179.556 356.312 187.366 353.041 193.124 347.22C198.882 341.399 202.116 333.503 202.116 325.271V122.849H204.053V84.6732Z" fill="#212529"/>
<path d="M195.581 31.2579V325.054C195.581 331.203 193.166 337.099 188.865 341.446C184.565 345.794 178.733 348.236 172.652 348.236H59.722C53.6409 348.236 47.809 345.793 43.509 341.446C39.2091 337.099 36.7932 331.203 36.793 325.055V31.2579C36.7931 25.1098 39.2089 19.2135 43.509 14.8661C47.8091 10.5187 53.6412 8.07631 59.7225 8.07617H73.4226C72.7493 9.74857 72.4929 11.5626 72.6758 13.3587C72.8588 15.1548 73.4756 16.878 74.4718 18.3765C75.4681 19.8751 76.8134 21.1032 78.3893 21.9527C79.9652 22.8023 81.7235 23.2473 83.5094 23.2486H147.897C149.683 23.2474 151.441 22.8025 153.017 21.9529C154.593 21.1034 155.939 19.8753 156.935 18.3767C157.931 16.8782 158.548 15.155 158.731 13.3589C158.914 11.5627 158.658 9.74861 157.985 8.07617H172.652C178.733 8.07631 184.565 10.5187 188.865 14.8661C193.166 19.2135 195.581 25.1098 195.581 31.2579Z" fill="#DDF2FF"/>
<path d="M88.9616 253.7H86.5864L87.3794 206.799H88.1723L88.9616 253.7Z" fill="#614C17"/>
<path d="M90.9405 177.269L94.7742 171.28C93.6373 168.105 92.3242 164.997 90.8411 161.972L88.3623 163.996L90.3252 160.929C88.4543 157.207 86.9826 154.861 86.9826 154.861C86.9826 154.861 79.2952 167.109 76.7255 180.079L81.645 187.766L76.2 183.319C76.0061 184.829 75.9064 186.351 75.9014 187.874C75.9014 203.234 80.8631 215.685 86.9837 215.685C93.1042 215.685 98.066 203.232 98.066 187.874C98.066 183.113 97.0002 178.131 95.5285 173.523L90.9405 177.269Z" fill="#125D1B"/>
<path d="M150.79 253.7H148.415L149.208 206.799H150.001L150.79 253.7Z" fill="#614C17"/>
<path d="M152.769 177.269L156.602 171.28C155.466 168.105 154.152 164.997 152.669 161.972L150.191 163.996L152.153 160.929C150.283 157.207 148.811 154.861 148.811 154.861C148.811 154.861 141.122 167.11 138.555 180.079L143.471 187.765L138.026 183.318C137.832 184.828 137.733 186.35 137.728 187.873C137.728 203.233 142.689 215.684 148.81 215.684C154.93 215.684 159.892 203.231 159.892 187.873C159.892 183.112 158.826 178.13 157.355 173.522L152.769 177.269Z" fill="#125D1B"/>
<path d="M87.1545 98.2315C99.2065 98.2315 108.977 88.354 108.977 76.1695C108.977 63.9849 99.2065 54.1074 87.1545 54.1074C75.1026 54.1074 65.3325 63.9849 65.3325 76.1695C65.3325 88.354 75.1026 98.2315 87.1545 98.2315Z" fill="#F0E4AB"/>
<path d="M117.38 246.87H112.483L114.115 150.164H115.747L117.38 246.87Z" fill="#614C17"/>
<path d="M121.46 89.2798L129.365 76.9308C127.021 70.3842 124.313 63.9765 121.255 57.7382L116.144 61.9117L120.191 55.5881C116.332 47.9124 113.299 43.0762 113.299 43.0762C113.299 43.0762 97.4465 68.3321 92.1501 95.0727L102.291 110.922L91.0617 101.752C90.6618 104.867 90.4561 108.005 90.4458 111.146C90.4458 142.815 100.676 168.489 113.297 168.489C125.917 168.489 136.147 142.815 136.147 111.146C136.147 101.328 133.95 91.0563 130.92 81.5543L121.46 89.2798Z" fill="#125D1B"/>
<path d="M195.582 260.809V326.551C195.582 339.885 185.316 350.694 172.652 350.694H59.722C47.0586 350.694 36.7925 339.885 36.792 326.551V267.218C56.3716 243.017 84.6805 228.554 114.851 227.336C145.022 226.118 174.3 238.257 195.582 260.809Z" fill="#0D4F1B"/>
<path opacity="0.2" d="M116.31 325.661C134.764 325.661 149.724 310.536 149.724 291.879C149.724 273.222 134.764 258.098 116.31 258.098C97.8559 258.098 82.896 273.222 82.896 291.879C82.896 310.536 97.8559 325.661 116.31 325.661Z" fill="#032C17"/>
<path d="M116.31 319.079C131.169 319.079 143.215 306.901 143.215 291.878C143.215 276.856 131.169 264.678 116.31 264.678C101.451 264.678 89.4053 276.856 89.4053 291.878C89.4053 306.901 101.451 319.079 116.31 319.079Z" fill="#032C17"/>
<path d="M113.172 303.509L103.69 291.184L109.204 286.848L113.693 292.683L128.859 276.498L133.931 281.355L113.172 303.509Z" fill="white"/>
<path d="M259.288 249.57C268.922 249.57 276.733 241.674 276.733 231.934C276.733 222.193 268.922 214.297 259.288 214.297C249.653 214.297 241.843 222.193 241.843 231.934C241.843 241.674 249.653 249.57 259.288 249.57Z" fill="#2F2E41"/>
<path d="M266.357 330.944L267.701 337.354L292.795 335.163L290.813 325.703L266.357 330.944Z" fill="#FFB8B8"/>
<path d="M264.403 350.977L260.181 330.831L267.879 329.182L270.471 341.544C270.685 342.566 270.698 343.621 270.509 344.648C270.32 345.675 269.933 346.655 269.369 347.53C268.806 348.406 268.077 349.162 267.225 349.753C266.373 350.344 265.414 350.76 264.403 350.977Z" fill="#2F2E41"/>
<path d="M250.636 330.603L247.812 336.501L223.97 328.293L228.139 319.59L250.636 330.603Z" fill="#FFB8B8"/>
<path d="M244.13 339.902L249.577 328.528L256.66 331.996L247.784 350.53C245.905 349.61 244.465 347.974 243.78 345.981C243.095 343.988 243.221 341.801 244.13 339.902Z" fill="#2F2E41"/>
<path d="M203.661 318.955C204.477 319.108 205.317 319.079 206.121 318.869C206.925 318.659 207.673 318.274 208.314 317.74C208.954 317.206 209.471 316.536 209.828 315.778C210.185 315.021 210.373 314.193 210.38 313.354L249.696 276.706L239.932 269.061L204.336 307.51C202.94 307.592 201.622 308.189 200.633 309.188C199.644 310.187 199.051 311.518 198.968 312.929C198.885 314.34 199.317 315.733 200.182 316.844C201.047 317.954 202.285 318.705 203.662 318.954L203.661 318.955Z" fill="#FFB8B8"/>
<path d="M257.099 250.366C264.269 250.366 270.082 244.489 270.082 237.24C270.082 229.99 264.269 224.113 257.099 224.113C249.928 224.113 244.115 229.99 244.115 237.24C244.115 244.489 249.928 250.366 257.099 250.366Z" fill="#FFB8B8"/>
<path d="M268.75 314.4C259.642 314.4 248.674 312.462 241.907 304.525L241.754 304.347L241.913 304.172C241.966 304.115 246.943 298.363 241.972 288.106L235.137 290.231L228.333 281.151L232.102 269.72L247.526 257.16C249.736 255.37 252.426 254.292 255.249 254.065C260.358 253.566 265.335 252.133 269.937 249.836C272.043 248.801 274.363 248.288 276.704 248.339L277.007 248.348C277.719 248.368 278.419 248.534 279.066 248.837C279.712 249.139 280.292 249.57 280.768 250.105C281.245 250.641 281.609 251.268 281.838 251.95C282.068 252.631 282.158 253.353 282.104 254.071C281.057 267.769 279.211 300.858 284.637 312.251L284.777 312.546L284.464 312.626C279.307 313.799 274.037 314.394 268.751 314.4L268.75 314.4Z" fill="#362406"/>
<path d="M243.693 304.352C243.693 304.352 209.332 301.145 205.632 311.299C201.931 321.454 206.16 326.264 212.504 328.402C218.847 330.54 234.178 333.212 234.178 333.212L241.05 324.661L259.024 325.73C259.024 325.73 279.051 337.473 284.588 350.033C285.776 352.751 287.671 355.092 290.07 356.809C292.47 358.525 295.284 359.551 298.215 359.779C302.655 360.091 306.601 358.397 306.601 351.382C306.601 335.349 284.398 312.367 284.398 312.367L243.693 304.352Z" fill="#2F2E41"/>
<path d="M217.526 320.118C217.526 320.118 226.513 317.446 240.786 324.394L217.526 320.118Z" fill="#2F2E41"/>
<path d="M244.146 228.869C249.217 231.999 254.933 233.903 260.851 234.434L259.09 232.301C260.372 232.78 261.721 233.051 263.087 233.103C263.771 233.123 264.45 232.981 265.07 232.687C265.689 232.394 266.232 231.958 266.655 231.414C267.001 230.85 267.206 230.209 267.253 229.547C267.301 228.885 267.189 228.221 266.928 227.612C266.391 226.397 265.556 225.341 264.502 224.545C262.633 223.05 260.428 222.046 258.082 221.622C255.736 221.198 253.324 221.368 251.058 222.116C249.504 222.585 248.111 223.487 247.041 224.719C246.515 225.34 246.149 226.083 245.978 226.882C245.806 227.68 245.833 228.509 246.056 229.295" fill="#2F2E41"/>
<path d="M259.194 218.377C261.501 212.961 264.954 208.122 269.311 204.201C272.108 201.69 275.376 199.529 279.062 198.877C282.748 198.225 286.903 199.342 289.165 202.356C291.015 204.822 291.36 208.125 291.156 211.212C290.953 214.299 290.27 217.358 290.335 220.449C290.402 223.605 291.247 226.695 292.794 229.437C294.342 232.179 296.542 234.487 299.195 236.151C301.848 237.816 304.871 238.784 307.988 238.968C311.105 239.152 314.219 238.546 317.045 237.205C313.862 238.984 311.382 241.801 308.429 243.943C305.476 246.085 301.576 247.556 298.22 246.14C294.668 244.643 293.039 240.571 291.767 236.899L286.094 220.523C285.13 217.74 284.117 214.873 282.149 212.696C280.181 210.52 276.987 209.192 274.278 210.287C272.225 211.116 270.888 213.097 269.716 214.99C268.544 216.883 267.307 218.902 265.329 219.896C263.35 220.889 260.412 220.278 259.766 218.14" fill="#2F2E41"/>
<path d="M263.649 314.447C263.425 314.447 263.201 314.434 262.979 314.409C261.501 314.241 260.144 313.507 259.185 312.358C258.226 311.21 257.739 309.733 257.823 308.232C257.908 306.732 258.558 305.321 259.64 304.289C260.722 303.258 262.153 302.685 263.64 302.688C263.899 302.69 264.158 302.709 264.415 302.746L282.166 283.643L280.313 277.398L289.617 273.18L292.225 279.625C293.099 281.808 293.254 284.219 292.667 286.498C292.079 288.777 290.78 290.804 288.962 292.278L269.423 307.991C269.444 308.183 269.455 308.375 269.455 308.568C269.455 309.395 269.282 310.212 268.948 310.967C268.615 311.723 268.127 312.398 267.518 312.95C266.457 313.918 265.078 314.451 263.649 314.447Z" fill="#FFB8B8"/>
<path d="M277.526 250.906C278.141 250.63 278.806 250.482 279.479 250.471C280.153 250.461 280.821 250.588 281.445 250.846C282.068 251.103 282.634 251.485 283.108 251.969C283.581 252.453 283.953 253.029 284.201 253.662L293.385 277.094L279.112 286.714L277.526 250.906Z" fill="#362406"/>
</svg>
