<svg width="130" height="128" viewBox="0 0 130 128" fill="none" xmlns="http://www.w3.org/2000/svg">
<g clip-path="url(#clip0_993_8934)">
<path d="M40.8511 6.59613V87.472H93.1084V4.63963C84.7495 1.27337 75.7755 -0.292244 66.7714 0.0448661C57.7673 0.381976 48.9353 2.61424 40.8511 6.59613Z" fill="#DDF2FF"/>
<path d="M35.7241 9.95046V87.7008H53.4916L53.1741 83.2998L51.4272 35.1173H86.6082L84.8612 83.2998L84.5437 87.7008H102.51V11.3582C102.181 11.1149 101.849 10.8747 101.514 10.6391C101.448 10.5935 101.736 9.30423 101.669 9.25863C97.8051 6.5534 93.6249 4.33111 89.2218 2.64121L87.9207 16.9616H81.8245V1.69276C81.4265 1.59395 81.0285 1.50122 80.6275 1.41456V1.41458C80.6275 5.5379 78.9907 9.49235 76.0771 12.408C73.1636 15.3236 69.2119 16.9616 65.0916 16.9616H57.6069V1.01172C57.2074 1.08469 56.8078 1.16222 56.4114 1.2443V16.9616H50.1131L49.1196 3.24641C44.8349 4.73302 40.7401 6.7194 36.9197 9.16451C36.7875 9.24964 36.6538 9.33326 36.5217 9.42142C36.2543 9.59473 35.9885 9.77107 35.7241 9.95046ZM81.8245 18.1595H87.8341L86.8968 31.1268H81.8245V18.1595ZM57.6069 18.1595H80.6275V31.1268H71.7088V30.8698C71.7088 30.7465 71.6846 30.6243 71.6374 30.5103C71.5902 30.3963 71.5211 30.2927 71.4339 30.2054C71.3467 30.1182 71.2432 30.049 71.1293 30.0018C71.0154 29.9546 70.8933 29.9303 70.77 29.9304H67.0664C66.943 29.9302 66.8207 29.9543 66.7066 30.0014C66.5926 30.0486 66.4889 30.1177 66.4015 30.205C66.3142 30.2922 66.2449 30.3959 66.1976 30.51C66.1504 30.624 66.126 30.7463 66.126 30.8698V31.1268H57.6069V18.1595ZM51.137 31.1268L50.1997 18.1595H56.4113V31.1268H51.137Z" fill="#715C20"/>
<path d="M8.85986 85.3805C8.86137 85.3851 8.86289 85.3881 8.86441 85.3927C8.87505 85.4246 8.88569 85.4535 8.89784 85.4854V85.4869C9.41586 86.9433 9.98502 88.3753 10.6053 89.783L127.765 89.6553C128.394 88.2187 128.971 86.7558 129.497 85.2665C129.499 85.2632 129.5 85.2596 129.5 85.2559L8.85986 85.3805Z" fill="#513C10"/>
<path d="M52.8539 63.1995C52.7605 63.5889 52.5829 63.9531 52.3336 64.2663C52.0843 64.5796 51.7694 64.8343 51.4111 65.0127C51.0528 65.191 50.6598 65.2885 50.2598 65.2983C49.8597 65.3082 49.4624 65.2302 49.0957 65.0697L42.4924 72.2172L41.283 67.3057L47.739 61.2713C48.0492 60.6728 48.568 60.209 49.1971 59.9676C49.8261 59.7263 50.5218 59.7243 51.1523 59.962C51.7828 60.1996 52.3042 60.6605 52.6178 61.2572C52.9315 61.8539 53.0155 62.545 52.8539 63.1995L52.8539 63.1995Z" fill="#FFB6B6"/>
<path d="M45.3406 69.5356L36.3688 79.6129L36.2959 79.5992C36.2655 79.5947 35.5849 79.4731 34.5064 79.2754C30.6053 78.561 21.5058 76.8568 19.2484 76.0678C17.9467 75.6287 16.7786 74.8642 15.8547 73.8468C16.0887 72.5714 16.3393 71.6167 16.5869 71.1515C16.7677 70.8125 16.7343 70.3701 16.7419 69.8654C17.3343 69.4561 18.0247 69.2116 18.7426 69.157C23.2315 68.832 27.7344 69.5548 31.8965 71.2686L34.2633 72.2476L34.3605 72.1761L42.3541 66.3052L42.4088 66.2656L45.1583 69.3319L45.3406 69.5356Z" fill="#0D4F1B"/>
<path d="M64.0652 127.8C63.9452 127.791 63.8267 127.78 63.7067 127.77C62.2013 127.643 60.711 127.465 59.236 127.234L57.6166 123.461L56.8403 121.652L59.7707 120.392L61.6757 119.574L62.581 122.688L62.9563 123.981L63.8434 127.034L64.0652 127.8Z" fill="#FFB6B6"/>
<path d="M31.2378 110.242V115.542C32.1265 116.198 33.0329 116.832 33.957 117.442V110.242H31.2378Z" fill="#E9ECEF"/>
<path d="M21.6855 106.885C22.4497 107.733 23.2366 108.56 24.0462 109.364C25.9519 111.263 27.9753 113.04 30.1044 114.685H42.2269C42.5488 114.685 42.8669 114.616 43.1601 114.483C43.4532 114.35 43.7146 114.156 43.9268 113.914L43.9283 113.91C44.1811 113.624 44.3568 113.279 44.4388 112.906L44.4403 112.903C44.4745 112.743 44.4918 112.58 44.4919 112.417V109.153C44.4915 108.552 44.2528 107.975 43.8282 107.55C43.4035 107.125 42.8277 106.886 42.2269 106.885H21.6855Z" fill="#6C757D"/>
<path d="M16.6907 94.1457L18.0047 99.7795C17.8762 100.596 17.8335 101.423 17.8771 102.248C18.4999 103.084 19.1425 103.904 19.8048 104.706C20.4155 105.447 21.0424 106.173 21.6855 106.885C22.4496 107.733 23.2365 108.56 24.0462 109.364C26.1547 110.027 28.64 110.298 31.2377 110.316C32.1339 110.324 33.0439 110.299 33.9569 110.251C37.6589 110.056 35.6309 109.462 38.698 108.844C39.5092 108.683 40.2718 108.519 40.9736 108.359C42.3028 108.06 43.4148 107.78 44.22 107.567C45.1269 107.33 48.4001 105.694 48.4001 105.694L50.9826 111.319L53.2613 116.639L56.2619 123.361C56.6478 123.396 57.0342 123.425 57.421 123.449C57.8312 123.478 58.2418 123.501 58.653 123.519C58.9781 123.536 59.3017 123.548 59.6283 123.557L59.7392 123.592L59.8303 123.563L61.2947 123.096L61.7885 122.94L63.5643 122.374C63.5643 122.374 63.1678 121.125 62.4736 119.04C62.2184 118.276 60.4106 112.622 58.5193 107.686C57.9588 106.221 57.3785 104.734 56.7815 103.255C56.2923 102.04 55.7941 100.83 55.2897 99.6366C54.4132 97.5676 50.1779 96.4518 45.1907 95.8665C44.937 95.8377 44.6818 95.8088 44.425 95.7814C41.8836 95.5138 39.1872 95.3755 36.6654 95.3116C35.4031 95.2797 39.9573 95.2676 38.8241 95.2661C38.458 95.2661 38.102 95.2671 37.7561 95.2691H37.7546C36.8204 95.2737 35.9606 95.2873 35.204 95.3025C35.0567 95.3056 34.9139 95.3101 34.7741 95.3132H34.7726C34.6784 95.3147 34.5858 95.3177 34.4946 95.3193C32.8403 95.3618 31.8255 95.4135 31.8255 95.4135L31.4321 92.3245L31.3516 91.7012L31.2756 91.1083V91.1068L31.2665 91.0323L31.2042 91.0308L30.1105 91.0095L20.9168 90.8301L17.0009 90.6641L16.6907 94.1457Z" fill="#212529"/>
<path d="M46.5772 105.543C45.4698 107.437 44.6069 111.027 43.4721 112.806C41.2952 116.22 40.0192 118.083 38.5107 120.184C36.9521 119.334 35.4345 118.42 33.958 117.441C33.1695 116.921 32.3933 116.383 31.6292 115.825L32.533 113.762L33.0465 112.751L35.3525 108.207L37.938 103.113L38.8373 103.533L46.5772 105.543Z" fill="#212529"/>
<path d="M124.289 79.5135C124.333 79.3824 124.348 79.2434 124.333 79.106C124.319 78.9686 124.275 78.8359 124.205 78.7168C124.135 78.5978 124.04 78.4952 123.927 78.4159C123.814 78.3366 123.685 78.2824 123.549 78.2571C123.499 78.2464 123.448 78.24 123.396 78.2381L117.206 78.0782C117.067 78.0768 116.93 78.1045 116.802 78.1596C116.674 78.2146 116.56 78.2958 116.466 78.3979C116.379 78.3793 116.291 78.3701 116.202 78.3704C116.009 78.3654 115.817 78.3985 115.637 78.4677C115.457 78.5369 115.293 78.641 115.153 78.7739C115.013 78.9068 114.901 79.066 114.822 79.2424C114.744 79.4188 114.701 79.6089 114.697 79.8018C114.692 79.9947 114.725 80.1867 114.794 80.3668C114.864 80.5469 114.968 80.7115 115.101 80.8513C115.234 80.991 115.393 81.1032 115.569 81.1814C115.745 81.2596 115.935 81.3023 116.128 81.3069C116.35 81.3114 116.57 81.2661 116.772 81.1745L117.341 87.2686C117.396 87.4689 117.514 87.6461 117.678 87.7737C117.842 87.9013 118.043 87.9725 118.25 87.9765L122.274 88.0802C122.48 88.0839 122.682 88.0221 122.851 87.9038C123.02 87.7855 123.147 87.6168 123.214 87.4218L124.289 79.5135ZM116.141 80.8866C115.863 80.8793 115.6 80.7621 115.408 80.5606C115.216 80.3592 115.113 80.0899 115.119 79.8118C115.126 79.5338 115.242 79.2697 115.443 79.0774C115.644 78.8851 115.912 78.7804 116.19 78.7861C116.21 78.7862 116.227 78.7955 116.247 78.7956C116.203 78.9639 116.204 79.1408 116.25 79.3086L116.655 80.7608C116.498 80.8487 116.321 80.8922 116.141 80.8866Z" fill="#CED4DA"/>
<path d="M123.549 78.2573C123.417 79.0119 121.934 79.5424 120.151 79.4502C118.512 79.3746 117.171 78.7985 116.926 78.1157C117.017 78.0888 117.111 78.0762 117.206 78.0784L123.396 78.2383C123.448 78.2402 123.499 78.2466 123.549 78.2573Z" fill="#80BFFF"/>
<path d="M84.7925 70.2819V85.873H95.7073V70.2819C95.7075 70.1697 95.6717 70.0605 95.6053 69.9702C95.5388 69.8799 95.4452 69.8133 95.3381 69.7802C95.2877 69.7635 95.2348 69.7553 95.1817 69.7559H85.3196C85.2505 69.7558 85.182 69.7693 85.1181 69.7956C85.0542 69.822 84.9961 69.8607 84.9471 69.9096C84.8982 69.9584 84.8593 70.0164 84.8328 70.0803C84.8062 70.1442 84.7925 70.2127 84.7925 70.2819ZM89.0521 75.639C89.0549 75.3316 89.1789 75.0378 89.3971 74.8214C89.6153 74.605 89.91 74.4837 90.2172 74.4837C90.5244 74.4837 90.8192 74.605 91.0374 74.8214C91.2556 75.0378 91.3796 75.3316 91.3824 75.639V77.4481C91.3809 77.7563 91.2575 78.0515 91.0391 78.2689C90.8208 78.4864 90.5253 78.6085 90.2172 78.6085C89.9092 78.6085 89.6136 78.4864 89.3953 78.2689C89.1769 78.0515 89.0535 77.7563 89.0521 77.4481V75.639Z" fill="#495057"/>
<path d="M84.759 85.375V86.8785C84.7593 86.9564 84.7902 87.031 84.8451 87.0862C84.9 87.1414 84.9744 87.1728 85.0522 87.1734H95.4475C95.5254 87.173 95.6 87.1418 95.6549 87.0865C95.7098 87.0312 95.7407 86.9564 95.7407 86.8785V85.375H84.759Z" fill="#3F3D56"/>
<path d="M67.6221 46.7924V75.2596C67.6224 75.6224 67.7665 75.9702 68.0228 76.2267C68.2792 76.4832 68.6268 76.6275 68.9893 76.6278H111.145C111.507 76.6275 111.855 76.4832 112.111 76.2267C112.367 75.9702 112.511 75.6224 112.512 75.2596V46.7924C112.511 46.43 112.367 46.0826 112.11 45.8265C111.854 45.5703 111.507 45.4262 111.145 45.4258H68.9893C68.6271 45.4262 68.2798 45.5703 68.0236 45.8265C67.7673 46.0826 67.6229 46.43 67.6221 46.7924Z" fill="#495057"/>
<path d="M68.6108 47.1468V74.9086C68.6112 75.1024 68.6883 75.2882 68.8252 75.4253C68.9622 75.5623 69.1478 75.6395 69.3415 75.6398H110.793C110.987 75.6395 111.173 75.5623 111.31 75.4253C111.447 75.2882 111.524 75.1024 111.524 74.9086V47.1468C111.524 46.9527 111.447 46.7666 111.31 46.6292C111.173 46.4919 110.987 46.4145 110.793 46.4141H69.3415C69.1476 46.4145 68.9618 46.4919 68.8248 46.6292C68.6878 46.7666 68.6109 46.9527 68.6108 47.1468Z" fill="white"/>
<path d="M77.1904 87.0722C77.2326 87.1251 77.2862 87.1678 77.3473 87.197C77.4083 87.2262 77.4752 87.2412 77.5428 87.2409H102.204C102.272 87.2408 102.338 87.2257 102.399 87.1966C102.46 87.1675 102.513 87.1253 102.556 87.0728C102.598 87.0204 102.629 86.9592 102.645 86.8936C102.66 86.828 102.661 86.7597 102.648 86.6936L102.265 84.874C102.249 84.7997 102.215 84.7307 102.165 84.6731C102.116 84.6155 102.053 84.5711 101.982 84.5441C101.931 84.5239 101.876 84.5136 101.821 84.5137H77.9241C77.869 84.5136 77.8144 84.5239 77.7631 84.5441C77.6923 84.5711 77.6293 84.6155 77.5799 84.6731C77.5306 84.7307 77.4964 84.7997 77.4806 84.874L77.0977 86.6936C77.0841 86.7596 77.0854 86.8279 77.1014 86.8934C77.1174 86.9588 77.1478 87.0199 77.1904 87.0722Z" fill="#343A40"/>
<path d="M109.448 50.2384H70.6619C70.6216 50.2375 70.5832 50.2209 70.555 50.192C70.5268 50.1632 70.511 50.1244 70.511 50.084C70.511 50.0437 70.5268 50.0049 70.555 49.9761C70.5832 49.9472 70.6216 49.9306 70.6619 49.9297H109.448C109.489 49.9306 109.527 49.9472 109.555 49.9761C109.583 50.0049 109.599 50.0437 109.599 50.084C109.599 50.1244 109.583 50.1632 109.555 50.192C109.527 50.2209 109.489 50.2375 109.448 50.2384Z" fill="#3F3D56"/>
<path d="M73.3021 49.1425C73.8014 49.1425 74.2061 48.7284 74.2061 48.2177C74.2061 47.707 73.8014 47.293 73.3021 47.293C72.8029 47.293 72.3982 47.707 72.3982 48.2177C72.3982 48.7284 72.8029 49.1425 73.3021 49.1425Z" fill="#3F3D56"/>
<path d="M76.4249 49.1425C76.9242 49.1425 77.3289 48.7284 77.3289 48.2177C77.3289 47.707 76.9242 47.293 76.4249 47.293C75.9257 47.293 75.521 47.707 75.521 48.2177C75.521 48.7284 75.9257 49.1425 76.4249 49.1425Z" fill="#3F3D56"/>
<path d="M79.5475 49.1425C80.0467 49.1425 80.4514 48.7284 80.4514 48.2177C80.4514 47.707 80.0467 47.293 79.5475 47.293C79.0483 47.293 78.6436 47.707 78.6436 48.2177C78.6436 48.7284 79.0483 49.1425 79.5475 49.1425Z" fill="#3F3D56"/>
<path d="M107.568 47.5215H105.35C105.306 47.5225 105.265 47.5406 105.234 47.572C105.203 47.6034 105.186 47.6456 105.186 47.6895C105.186 47.7334 105.203 47.7755 105.234 47.8069C105.265 47.8383 105.306 47.8565 105.35 47.8574H107.568C107.612 47.8569 107.654 47.8389 107.685 47.8075C107.716 47.776 107.734 47.7336 107.734 47.6895C107.734 47.6453 107.716 47.6029 107.685 47.5715C107.654 47.54 107.612 47.5221 107.568 47.5215Z" fill="#3F3D56"/>
<path d="M107.568 48.1523H105.35C105.306 48.1534 105.265 48.1715 105.234 48.2029C105.203 48.2343 105.186 48.2764 105.186 48.3203C105.186 48.3642 105.203 48.4064 105.234 48.4378C105.265 48.4691 105.306 48.4873 105.35 48.4883H107.568C107.612 48.4877 107.654 48.4697 107.685 48.4383C107.716 48.4069 107.734 48.3645 107.734 48.3203C107.734 48.2762 107.716 48.2338 107.685 48.2024C107.654 48.1709 107.612 48.153 107.568 48.1523Z" fill="#3F3D56"/>
<path d="M107.568 48.7832H105.35C105.306 48.7842 105.265 48.8023 105.234 48.8337C105.203 48.8651 105.186 48.9073 105.186 48.9512C105.186 48.9951 105.203 49.0372 105.234 49.0686C105.265 49.1 105.306 49.1182 105.35 49.1192H107.568C107.612 49.1186 107.654 49.1006 107.685 49.0692C107.716 49.0377 107.734 48.9954 107.734 48.9512C107.734 48.907 107.716 48.8646 107.685 48.8332C107.654 48.8018 107.612 48.7838 107.568 48.7832Z" fill="#3F3D56"/>
<path d="M94.6065 58.6309H88.0593C87.7396 58.6309 87.4805 58.8902 87.4805 59.2101V59.7004C87.4805 60.0203 87.7396 60.2796 88.0593 60.2796H94.6065C94.9261 60.2796 95.1853 60.0203 95.1853 59.7004V59.2101C95.1853 58.8902 94.9261 58.6309 94.6065 58.6309Z" fill="#125D1B"/>
<path d="M98.5194 61.9277H84.1462C83.8265 61.9277 83.5674 62.1871 83.5674 62.507V62.9973C83.5674 63.3172 83.8265 63.5765 84.1462 63.5765H98.5194C98.839 63.5765 99.0982 63.3172 99.0982 62.9973V62.507C99.0982 62.1871 98.839 61.9277 98.5194 61.9277Z" fill="#125D1B"/>
<path d="M98.5194 65.2246H84.1462C83.8265 65.2246 83.5674 65.4839 83.5674 65.8038V66.2941C83.5674 66.614 83.8265 66.8734 84.1462 66.8734H98.5194C98.839 66.8734 99.0982 66.614 99.0982 66.2941V65.8038C99.0982 65.4839 98.839 65.2246 98.5194 65.2246Z" fill="#125D1B"/>
<path d="M64.5787 88.2119C66.5503 88.2119 68.1486 87.7015 68.1486 87.0718C68.1486 86.4421 66.5503 85.9316 64.5787 85.9316C62.6071 85.9316 61.0088 86.4421 61.0088 87.0718C61.0088 87.7015 62.6071 88.2119 64.5787 88.2119Z" fill="#343A40"/>
<path d="M64.5787 87.4522C66.5503 87.4522 68.1486 86.9417 68.1486 86.312C68.1486 85.6823 66.5503 85.1719 64.5787 85.1719C62.6071 85.1719 61.0088 85.6823 61.0088 86.312C61.0088 86.9417 62.6071 87.4522 64.5787 87.4522Z" fill="#212529"/>
<path d="M64.8447 87.0761L64.3127 87.0681L64.4595 77.1277C64.4808 75.5057 64.0766 73.9066 63.2872 72.4898C62.4979 71.073 61.3509 69.8883 59.9609 69.0538L49.8076 62.9804L50.0805 62.5234L60.2339 68.597C61.7039 69.4795 62.9169 70.7324 63.7517 72.2308C64.5865 73.7291 65.014 75.4203 64.9914 77.1357L64.8447 87.0761Z" fill="#343A40"/>
<path d="M51.3625 58.1125C51.3625 57.3988 50.7844 56.8203 50.0713 56.8203C49.3581 56.8203 48.78 57.3988 48.78 58.1125V66.1695C48.78 66.8831 49.3581 67.4617 50.0713 67.4617C50.7844 67.4617 51.3625 66.8831 51.3625 66.1695V58.1125Z" fill="#032C17"/>
<path d="M49.1677 69.6814C48.1476 69.68 47.1691 69.2767 46.4438 68.559C45.7185 67.8412 45.3047 66.8665 45.2919 65.8458L45.248 61.7635L45.78 61.7578L45.8238 65.8403C45.8305 66.4643 46.0118 67.074 46.3471 67.6003C46.6824 68.1265 47.1583 68.5482 47.7208 68.8176C48.2834 69.087 48.9101 69.1934 49.53 69.1246C50.1498 69.0558 50.738 68.8146 51.2279 68.4283L54.848 65.5744L55.1772 65.9928L51.5571 68.8467C50.8772 69.3861 50.0353 69.6803 49.1677 69.6814Z" fill="#343A40"/>
<path d="M46.0455 65.1046C46.9264 65.1046 47.6406 63.369 47.6406 61.2281C47.6406 59.0871 46.9264 57.3516 46.0455 57.3516C45.1646 57.3516 44.4504 59.0871 44.4504 61.2281C44.4504 63.369 45.1646 65.1046 46.0455 65.1046Z" fill="#212529"/>
<path d="M34.7981 82.0956C34.6598 81.226 34.5672 80.2729 34.5064 79.2756C34.3636 76.9938 34.3773 74.4779 34.3606 72.1763C34.3535 71.1304 34.2708 69.9882 34.1632 68.9277C34.0693 67.9616 33.7472 67.0318 33.2234 66.2148C32.6997 65.3979 31.9892 64.7173 31.1508 64.2293C30.58 63.899 30.0656 63.4795 29.627 62.9868C29.39 62.7222 29.3612 62.1111 29.3308 61.465C29.2943 60.6791 29.2564 59.8643 28.8356 59.4447L28.8174 59.4265L28.793 59.4173C27.0263 58.829 24.0413 59.2106 23.1541 59.4158L23.1161 59.4249L23.0918 59.4553C22.7257 59.9403 22.7455 60.7156 22.7652 61.465C22.7819 62.1385 22.7986 62.7754 22.5009 62.967C22.27 63.116 22.0482 63.2573 21.834 63.3942C19.2075 65.0709 17.8889 65.9131 16.9227 68.651C16.7938 69.0426 16.7327 69.4534 16.7419 69.8656C16.7344 70.3703 16.7678 70.8127 16.587 71.1517C16.3394 71.6169 16.0887 72.5716 15.8548 73.847C14.6289 80.5496 13.9012 96.1346 16.8969 96.4994C17.1308 96.5283 16.6538 96.9981 16.4898 97.2337C16.2543 97.5727 16.0523 97.8646 16.1692 98.088C16.2482 98.2401 16.4548 98.3115 16.8164 98.3115C18.1805 98.3115 32.2034 96.2516 32.6014 95.5098C32.6273 95.4611 32.6303 95.5524 32.6014 95.5098C39.1761 94.6509 35.6959 87.7796 34.7981 82.0956Z" fill="#0D4F1B"/>
<path d="M50.6238 88.8071C50.3425 88.5149 50.0006 88.2881 49.6221 88.1424C49.2437 87.9968 48.8379 87.936 48.4335 87.9643C48.029 87.9926 47.6357 88.1093 47.2812 88.3062C46.9266 88.5031 46.6196 88.7753 46.3816 89.1038L36.947 86.252L38.4098 91.1636L47.1447 93.1188C47.7226 93.4823 48.4138 93.621 49.0871 93.5087C49.7604 93.3964 50.3692 93.0408 50.798 92.5093C51.2268 91.9779 51.446 91.3074 51.4139 90.6251C51.3818 89.9428 51.1007 89.2959 50.6238 88.8071L50.6238 88.8071Z" fill="#FFB6B6"/>
<path d="M39.235 91.6198L26.2799 89.2404C26.2275 89.1048 21.0265 75.6322 20.3839 72.6058C19.9772 70.7813 20.2063 68.8725 21.0331 67.1962L21.056 67.156L21.0985 67.1377C21.9673 66.767 22.9364 66.7037 23.846 66.9582C24.7556 67.2127 25.5514 67.7697 26.1022 68.5375C28.7416 72.2587 30.4806 76.5429 31.182 81.0519L31.578 83.6172L37.7515 85.4129L39.235 91.6198Z" fill="#0D4F1B"/>
<path d="M34.9904 55.2137C34.1902 56.6781 32.9154 57.8261 31.376 58.4687C29.8367 59.1112 28.1246 59.21 26.5217 58.7487C24.9188 58.2875 23.5206 57.2937 22.5575 55.931C21.5944 54.5683 21.1237 52.9181 21.223 51.2519C21.3223 49.5858 21.9856 48.0032 23.1038 46.7648C24.222 45.5264 25.7282 44.7059 27.3746 44.4386C29.0209 44.1713 30.7092 44.473 32.1613 45.2941C33.6134 46.1152 34.7428 47.4067 35.3634 48.9559C35.397 49.04 35.4272 49.124 35.4575 49.2115C35.8083 50.1881 35.9481 51.2281 35.8676 52.2628C35.7871 53.2974 35.4881 54.3033 34.9904 55.2137Z" fill="#FFB6B6"/>
<path d="M36.0455 49.2108C35.7297 48.3264 35.8675 48.7871 35.5482 47.9061C35.7566 48.6862 35.4273 49.1234 35.4575 49.2108H26.7175V44.1265C29.278 43.111 31.7814 42.2468 33.2935 44.1265C34.641 44.1266 35.9332 44.6622 36.886 45.6157C37.8388 46.5692 38.3741 47.8624 38.3742 49.2108L36.0455 49.2108Z" fill="#2F2E41"/>
<path d="M28.9977 63.1929C28.991 63.0987 28.9809 63.0012 28.9674 62.9071C28.85 62.2163 28.6596 61.54 28.3995 60.8895C28.1475 60.18 27.8922 59.4671 27.6368 58.7576C27.9656 60.0455 27.8654 61.4056 27.3512 62.6313C25.876 61.4813 26.5851 59.7502 24.878 58.8517C20.2967 56.4405 18.7114 52.544 19.9929 46.5593C20.4486 44.431 23.1032 42.3027 27.7404 42.3027C32.3809 42.3027 34.4494 44.6117 34.5401 49.2521C28.8277 50.5972 30.0763 62.7221 28.9977 63.1929Z" fill="#2F2E41"/>
<path d="M20.4542 46.7805C22.1291 46.7805 23.4869 45.4218 23.4869 43.7457C23.4869 42.0697 22.1291 40.7109 20.4542 40.7109C18.7794 40.7109 17.4216 42.0697 17.4216 43.7457C17.4216 45.4218 18.7794 46.7805 20.4542 46.7805Z" fill="#2F2E41"/>
<path d="M19.0356 42.864C18.5184 43.4665 17.7086 43.7007 16.9782 44.0143C15.689 44.5803 14.5572 45.4524 13.681 46.5551C12.8047 47.6577 12.2105 48.9576 11.9498 50.3421C11.7478 51.4697 11.7742 52.6371 11.4552 53.7364C11.1381 54.8357 10.3529 55.9143 9.22607 56.105C8.46351 56.2354 7.69906 55.9407 6.9818 55.6498C6.5873 55.4912 6.19281 55.3319 5.79831 55.1719C6.20979 54.1387 6.62064 53.1055 7.03087 52.0723C6.37157 53.0474 5.60482 53.9452 4.74506 54.7488C3.3313 54.1784 1.91628 53.6079 0.5 53.0375C3.98439 53.0507 3.38981 49.6658 4.16937 46.2696C4.59784 44.4034 8.24644 43.1398 8.96182 41.3642C9.34837 40.4012 10.0025 39.5691 10.8469 38.9665C11.6913 38.3639 12.6905 38.0159 13.7263 37.9639C14.762 37.9118 15.791 38.1578 16.6915 38.6727C17.592 39.1876 18.3262 39.9499 18.8072 40.8693C19.5226 41.1545 19.5433 42.269 19.0356 42.864Z" fill="#2F2E41"/>
<path d="M32.6149 42.4175C32.9016 42.5133 33.1385 42.719 33.2735 42.9895C33.4085 43.26 33.4307 43.5731 33.335 43.86L30.6528 51.9036C30.6054 52.0456 30.5306 52.1769 30.4325 52.29C30.3344 52.4031 30.2151 52.4957 30.0812 52.5627C29.9474 52.6296 29.8017 52.6695 29.6524 52.68C29.5032 52.6906 29.3533 52.6716 29.2114 52.6242C28.9248 52.5285 28.6879 52.3228 28.5528 52.0523C28.4178 51.7818 28.3957 51.4686 28.4913 51.1818L31.1735 43.1382C31.2692 42.8513 31.4748 42.6143 31.7451 42.4791C32.0154 42.344 32.3283 42.3218 32.6149 42.4175Z" fill="white"/>
<path d="M28.9701 56.1511C30.6481 56.1511 32.0083 54.7899 32.0083 53.1107C32.0083 51.4315 30.6481 50.0703 28.9701 50.0703C27.2921 50.0703 25.9319 51.4315 25.9319 53.1107C25.9319 54.7899 27.2921 56.1511 28.9701 56.1511Z" fill="white"/>
<path d="M28.97 53.8718C29.3895 53.8718 29.7296 53.5314 29.7296 53.1117C29.7296 52.6919 29.3895 52.3516 28.97 52.3516C28.5505 52.3516 28.2104 52.6919 28.2104 53.1117C28.2104 53.5314 28.5505 53.8718 28.97 53.8718Z" fill="#6C63FF"/>
<path d="M72.8611 126.674C73.0242 127.069 73.2033 127.465 73.3753 127.862L73.2955 127.868C73.2689 127.868 73.2441 127.871 73.2175 127.873C71.9638 127.951 70.6989 127.993 69.4228 127.997C69.3643 127.999 69.3075 127.999 69.249 127.999C69.249 127.996 69.2508 127.994 69.2508 127.99C69.3819 127.996 69.5117 127.962 69.6226 127.891C69.7334 127.821 69.8201 127.718 69.8708 127.597C69.9214 127.476 69.9337 127.342 69.9059 127.214C69.8781 127.085 69.8116 126.969 69.7154 126.879C69.6976 126.814 69.687 126.768 69.6711 126.704C69.6762 126.689 69.6821 126.675 69.6888 126.661C69.821 126.349 70.0424 126.083 70.3254 125.896C70.6083 125.709 70.9401 125.61 71.2791 125.611C71.618 125.613 71.949 125.714 72.2305 125.903C72.512 126.092 72.7313 126.36 72.8611 126.674Z" fill="#495057"/>
<path d="M84.5573 120.88C84.5555 120.894 84.5537 120.907 84.552 120.921C84.3272 121.012 84.1086 121.117 83.8976 121.237C83.7753 121.304 83.6565 121.377 83.5412 121.453C83.3956 121.55 83.2828 121.69 83.2176 121.852C83.1524 122.015 83.1378 122.194 83.1757 122.365C83.2137 122.536 83.3024 122.691 83.4303 122.811C83.5582 122.931 83.7192 123.009 83.8923 123.036L83.9101 123.039C83.9225 123.041 83.9331 123.043 83.9455 123.045C83.2759 124.663 82.1227 126.034 80.6438 126.97C80.5729 126.984 80.5037 126.997 80.4328 127.009C80.0746 127.075 79.7182 127.135 79.36 127.19C78.1152 127.392 76.858 127.556 75.5883 127.68C75.8427 126.393 75.9709 125.084 75.9714 123.772C75.9722 123.038 75.9313 122.304 75.849 121.574C75.7816 120.976 75.6894 120.379 75.5688 119.79C75.5086 119.492 75.4412 119.195 75.3667 118.898C74.9691 117.319 74.3882 115.793 73.636 114.35C73.0254 113.177 72.3014 112.067 71.4745 111.035C70.4882 110.497 69.6909 109.669 69.1906 108.663C69.0083 108.301 68.8799 107.915 68.8093 107.516C68.9193 107.532 69.0328 107.541 69.1445 107.548C69.1781 107.55 69.2154 107.552 69.2508 107.554H69.2633C69.3855 107.559 69.5069 107.529 69.6126 107.468C69.7183 107.406 69.8039 107.315 69.859 107.205C69.9141 107.096 69.9364 106.973 69.9232 106.851C69.91 106.729 69.8619 106.614 69.7846 106.519C69.7367 106.46 69.6888 106.4 69.641 106.342C69.5683 106.251 69.492 106.161 69.4193 106.07C69.4111 106.062 69.4034 106.053 69.3963 106.043C69.3129 105.939 69.2278 105.836 69.1444 105.733C69.2967 105.495 69.5026 105.295 69.7456 105.151C70.5861 104.658 71.7458 104.998 72.354 105.759C72.9622 106.521 73.0774 107.589 72.8664 108.538C72.6584 109.348 72.3142 110.116 71.8486 110.81C71.8947 110.868 71.9408 110.923 71.9869 110.982C72.7588 111.975 73.4384 113.036 74.0173 114.153C74.0651 114.242 74.1112 114.33 74.1556 114.421C74.0074 113.06 74.1842 111.684 74.6716 110.405C75.1645 109.214 76.0902 108.21 76.9041 107.181C77.8829 105.944 79.8902 106.483 80.0622 108.052C80.0639 108.066 80.0657 108.082 80.0675 108.096C79.9469 108.166 79.8281 108.238 79.7128 108.315C79.5672 108.412 79.4542 108.551 79.3889 108.714C79.3235 108.876 79.3087 109.055 79.3465 109.226C79.3842 109.397 79.4728 109.553 79.6005 109.672C79.7282 109.792 79.8891 109.871 80.0622 109.898L80.0799 109.901C79.9376 111.345 79.4367 112.731 78.6229 113.932C77.809 115.133 76.7079 116.111 75.4199 116.777C75.3472 116.815 75.278 116.852 75.2071 116.886C75.4298 117.512 75.621 118.149 75.7798 118.795C75.8579 119.097 75.9253 119.4 75.9873 119.705C76.1609 120.549 76.2817 121.403 76.3491 122.262C76.4312 123.344 76.4265 124.43 76.3349 125.511L76.3402 125.474C76.574 124.272 77.2146 123.187 78.1542 122.402C79.5515 121.254 81.5233 120.832 83.0305 119.909C83.1905 119.806 83.3766 119.751 83.5668 119.751C83.7569 119.75 83.9433 119.804 84.1038 119.906C84.2643 120.008 84.3923 120.154 84.4727 120.327C84.553 120.499 84.5824 120.691 84.5573 120.88Z" fill="#0D4F1B"/>
</g>
<defs>
<clipPath id="clip0_993_8934">
<rect width="129" height="128" fill="white" transform="translate(0.5)"/>
</clipPath>
</defs>
</svg>
