<svg width="108" height="128" viewBox="0 0 108 128" fill="none" xmlns="http://www.w3.org/2000/svg">
<path d="M106.39 107.065H34.418C33.9912 107.064 33.582 106.893 33.2802 106.589C32.9784 106.285 32.8086 105.873 32.8081 105.443V1.6222C32.8086 1.19211 32.9783 0.779777 33.2802 0.47566C33.582 0.171544 33.9912 0.00047988 34.418 0H106.39C106.817 0.000480384 107.226 0.171544 107.528 0.47566C107.83 0.779777 107.999 1.19211 108 1.6222V105.443C107.999 105.873 107.83 106.285 107.528 106.589C107.226 106.893 106.817 107.064 106.39 107.065Z" fill="#362406"/>
<path d="M104.833 105.539H35.8911C35.4643 105.538 35.0551 105.367 34.7533 105.063C34.4515 104.759 34.2817 104.347 34.2812 103.917V3.14954C34.2817 2.71945 34.4515 2.30712 34.7533 2.003C35.0551 1.69889 35.4643 1.52782 35.8911 1.52734H104.833C105.26 1.52782 105.669 1.69889 105.971 2.003C106.272 2.30712 106.442 2.71945 106.443 3.14954V103.917C106.442 104.347 106.272 104.759 105.971 105.063C105.669 105.367 105.26 105.538 104.833 105.539Z" fill="#F8F9FA"/>
<path d="M94.0153 38.2856H46.7232C46.4071 38.2852 46.1041 38.1586 45.8806 37.9333C45.6571 37.7081 45.5314 37.4028 45.531 37.0842V9.05291C45.5314 8.7344 45.6571 8.42903 45.8806 8.20381C46.1041 7.97859 46.4071 7.85191 46.7232 7.85156H94.0153C94.3314 7.85191 94.6345 7.97859 94.858 8.20381C95.0815 8.42903 95.2072 8.7344 95.2076 9.05291V37.0842C95.2072 37.4028 95.0815 37.7081 94.858 37.9333C94.6345 38.1586 94.3314 38.2852 94.0153 38.2856Z" fill="#DDF2FF"/>
<path d="M78.2222 22.8179C77.9815 22.5582 77.6914 22.35 77.3692 22.2055C77.0471 22.0611 76.6993 21.9833 76.3468 21.977C75.9942 21.9706 75.6439 22.0358 75.3168 22.1686C74.9897 22.3013 74.6925 22.499 74.4427 22.7499L61.1334 36.1608C60.7818 36.5143 60.3056 36.7132 59.8089 36.714C59.3122 36.7147 58.8354 36.5173 58.4827 36.1649L56.5116 34.1826C56.2679 33.937 55.9786 33.7421 55.6601 33.6092C55.3416 33.4762 55.0003 33.4078 54.6556 33.4078C54.3109 33.4078 53.9696 33.4762 53.6511 33.6092C53.3327 33.7421 53.0433 33.937 52.7996 34.1826L48.9846 38.0309H91.754V37.4823L78.2222 22.8179Z" fill="#125D1B"/>
<path d="M94.0155 38.695H46.7234C46.2998 38.6945 45.8936 38.5247 45.594 38.2228C45.2945 37.921 45.126 37.5117 45.1255 37.0848V9.05354C45.126 8.62665 45.2945 8.21737 45.594 7.91551C45.8936 7.61365 46.2998 7.44385 46.7234 7.44336H94.0155C94.4391 7.44384 94.8453 7.61364 95.1449 7.9155C95.4445 8.21736 95.613 8.62664 95.6134 9.05354V37.0848C95.613 37.5117 95.4445 37.921 95.1449 38.2228C94.8453 38.5247 94.4391 38.6945 94.0155 38.695ZM46.7234 8.26097C46.5149 8.26122 46.315 8.3448 46.1675 8.49339C46.0201 8.64197 45.9371 8.84343 45.9369 9.05355V37.0848C45.9371 37.2949 46.0201 37.4964 46.1675 37.645C46.315 37.7935 46.5149 37.8771 46.7234 37.8774H94.0155C94.224 37.8771 94.4239 37.7935 94.5714 37.645C94.7188 37.4964 94.8018 37.2949 94.802 37.0848V9.05354C94.8018 8.84341 94.7188 8.64195 94.5714 8.49337C94.4239 8.34479 94.224 8.2612 94.0155 8.26096L46.7234 8.26097Z" fill="#362406"/>
<path d="M58.294 50.2246C58.0596 50.2246 57.8348 50.3184 57.669 50.4855C57.5033 50.6525 57.4102 50.879 57.4102 51.1152C57.4102 51.3515 57.5033 51.578 57.669 51.745C57.8348 51.9121 58.0596 52.0059 58.294 52.0059H82.4449C82.6793 52.0059 82.9041 51.9121 83.0699 51.745C83.2357 51.578 83.3288 51.3515 83.3288 51.1152C83.3288 50.879 83.2357 50.6525 83.0699 50.4855C82.9041 50.3184 82.6793 50.2246 82.4449 50.2246H58.294Z" fill="#212529"/>
<path d="M44.6354 62.4883C44.4009 62.4883 44.1761 62.5821 44.0104 62.7491C43.8446 62.9162 43.7515 63.1427 43.7515 63.3789C43.7515 63.6151 43.8446 63.8417 44.0104 64.0087C44.1761 64.1757 44.4009 64.2696 44.6354 64.2696H96.1034C96.3378 64.2696 96.5626 64.1757 96.7284 64.0087C96.8942 63.8417 96.9873 63.6151 96.9873 63.3789C96.9873 63.1427 96.8942 62.9162 96.7284 62.7491C96.5626 62.5821 96.3378 62.4883 96.1034 62.4883H44.6354Z" fill="#ADB5BD"/>
<path d="M44.6354 69.5742C44.4009 69.5742 44.1761 69.6681 44.0104 69.8351C43.8446 70.0021 43.7515 70.2286 43.7515 70.4649C43.7515 70.7011 43.8446 70.9276 44.0104 71.0946C44.1761 71.2617 44.4009 71.3555 44.6354 71.3555H96.1034C96.3378 71.3555 96.5626 71.2617 96.7284 71.0946C96.8942 70.9276 96.9873 70.7011 96.9873 70.4649C96.9873 70.2286 96.8942 70.0021 96.7284 69.8351C96.5626 69.6681 96.3378 69.5742 96.1034 69.5742H44.6354Z" fill="#ADB5BD"/>
<path d="M44.6354 76.6602C44.4009 76.6602 44.1761 76.754 44.0104 76.921C43.8446 77.088 43.7515 77.3146 43.7515 77.5508C43.7515 77.787 43.8446 78.0135 44.0104 78.1806C44.1761 78.3476 44.4009 78.4414 44.6354 78.4414H96.1034C96.3378 78.4414 96.5626 78.3476 96.7284 78.1806C96.8942 78.0135 96.9873 77.787 96.9873 77.5508C96.9873 77.3146 96.8942 77.088 96.7284 76.921C96.5626 76.754 96.3378 76.6602 96.1034 76.6602H44.6354Z" fill="#ADB5BD"/>
<path d="M44.6354 83.7461C44.4009 83.7461 44.1761 83.8399 44.0104 84.007C43.8446 84.174 43.7515 84.4005 43.7515 84.6367C43.7515 84.8729 43.8446 85.0995 44.0104 85.2665C44.1761 85.4335 44.4009 85.5274 44.6354 85.5274H96.1034C96.3378 85.5274 96.5626 85.4335 96.7284 85.2665C96.8942 85.0995 96.9873 84.8729 96.9873 84.6367C96.9873 84.4005 96.8942 84.174 96.7284 84.007C96.5626 83.8399 96.3378 83.7461 96.1034 83.7461H44.6354Z" fill="#ADB5BD"/>
<path d="M44.6354 90.832C44.5193 90.832 44.4043 90.8551 44.2971 90.8998C44.1899 90.9446 44.0924 91.0102 44.0104 91.0929C43.9283 91.1756 43.8632 91.2738 43.8188 91.3818C43.7743 91.4899 43.7515 91.6057 43.7515 91.7227C43.7515 91.8396 43.7743 91.9554 43.8188 92.0635C43.8632 92.1716 43.9283 92.2698 44.0104 92.3525C44.0924 92.4352 44.1899 92.5008 44.2971 92.5455C44.4043 92.5903 44.5193 92.6133 44.6354 92.6133H96.1034C96.3378 92.6133 96.5626 92.5195 96.7284 92.3525C96.8942 92.1854 96.9873 91.9589 96.9873 91.7227C96.9873 91.4865 96.8942 91.2599 96.7284 91.0929C96.5626 90.9259 96.3378 90.832 96.1034 90.832H44.6354Z" fill="#ADB5BD"/>
<path d="M44.6354 97.918C44.4009 97.918 44.1761 98.0118 44.0104 98.1788C43.8446 98.3459 43.7515 98.5724 43.7515 98.8086C43.7515 99.0448 43.8446 99.2714 44.0104 99.4384C44.1761 99.6054 44.4009 99.6992 44.6354 99.6992H96.1034C96.3378 99.6992 96.5626 99.6054 96.7284 99.4384C96.8942 99.2714 96.9873 99.0448 96.9873 98.8086C96.9873 98.5724 96.8942 98.3459 96.7284 98.1788C96.5626 98.0118 96.3378 97.918 96.1034 97.918H44.6354Z" fill="#ADB5BD"/>
<path d="M104.97 119.184H91.5223C91.0954 119.183 90.6862 119.012 90.3844 118.708C90.0826 118.404 89.9128 117.991 89.9124 117.561V112.79C89.9128 112.36 90.0826 111.948 90.3844 111.644C90.6862 111.34 91.0954 111.168 91.5223 111.168H104.97C105.396 111.168 105.806 111.34 106.107 111.644C106.409 111.948 106.579 112.36 106.58 112.79V117.561C106.579 117.991 106.409 118.404 106.107 118.708C105.806 119.012 105.396 119.183 104.97 119.184Z" fill="#E6E6E6"/>
<path d="M26.9861 63.8125L27.341 67.1298L27.1321 71.4796L36.694 70.3349L37.5925 63.8125L36.4478 63.824L26.9861 63.8125Z" fill="#FFB6B6"/>
<path d="M38.3955 53.5331L35.4393 52.4314L34.176 50.5829L29.6318 50.125L26.8288 51.9344L24.479 53.1401L24.5193 59.4357L27.221 70.7093L36.8804 70.3276L38.1518 62.2885C38.1518 62.2885 41.1055 58.291 37.9246 56.0015L38.3955 53.5331Z" fill="#032C17"/>
<path d="M22.0264 124.039H24.117L25.1117 115.914H22.0264V124.039Z" fill="#FFB6B6"/>
<path d="M21.3442 122.595L24.6841 122.395V123.836L27.8594 126.046C28.0163 126.155 28.1344 126.312 28.1965 126.494C28.2587 126.675 28.2616 126.872 28.2049 127.055C28.1482 127.239 28.0348 127.399 27.8812 127.513C27.7277 127.627 27.5421 127.688 27.3515 127.688H23.3753L22.6899 126.262L22.4223 127.688H20.9231L21.3442 122.595Z" fill="#212529"/>
<path d="M33.7693 124.039H35.8599L36.8546 115.914H33.7693V124.039Z" fill="#FFB6B6"/>
<path d="M33.0871 122.595L36.427 122.395V123.836L39.6023 126.046C39.7592 126.155 39.8773 126.312 39.9395 126.494C40.0016 126.675 40.0045 126.872 39.9478 127.055C39.8911 127.239 39.7777 127.399 39.6242 127.513C39.4706 127.627 39.285 127.688 39.0944 127.688H35.1182L34.4328 126.262L34.1652 127.688H32.666L33.0871 122.595Z" fill="#212529"/>
<path d="M21.1245 117.031H21.1472L21.5493 103.82C21.2891 103.315 21.1571 102.752 21.1649 102.183C21.1728 101.613 21.3202 101.054 21.5943 100.556L21.6518 100.451L21.5026 99.7539C21.3109 98.8583 21.3989 97.9248 21.7544 97.0815L22.1295 84.7581C20.7895 76.0075 27.1755 70.3008 27.1755 70.3008H36.7417L38.7955 77.4109C40.1532 90.7397 39.9068 103.728 37.7523 116.312L37.8111 116.342C38.0226 116.415 38.1133 116.711 38.0137 117.001C37.9142 117.292 37.662 117.468 37.4505 117.394L32.3984 117.217C32.187 117.144 32.0962 116.848 32.1958 116.558C32.2953 116.267 32.5475 116.091 32.759 116.165L33.1025 116.34L32.3699 103.592L32.4512 101.263L32.2837 98.6216L31.5093 86.7393L28.5781 101.351L25.5841 117.179C25.6667 117.254 25.7246 117.353 25.7503 117.462C25.776 117.571 25.7682 117.686 25.728 117.79C25.6878 117.895 25.617 117.985 25.525 118.048C25.433 118.112 25.3241 118.145 25.2127 118.145H21.1245C20.978 118.145 20.8374 118.086 20.7338 117.982C20.6302 117.877 20.572 117.736 20.572 117.588C20.572 117.441 20.6302 117.299 20.7338 117.195C20.8374 117.09 20.978 117.031 21.1245 117.031V117.031Z" fill="#343A40"/>
<path d="M20.13 79.6033C19.9475 79.426 19.8057 79.2105 19.7148 78.972C19.6238 78.7335 19.5859 78.4778 19.6036 78.223C19.6213 77.9681 19.6943 77.7202 19.8174 77.4968C19.9405 77.2735 20.1107 77.08 20.316 76.9301L22.8648 61.166L25.854 62.2258L22.825 77.4115C23.0521 77.7757 23.1387 78.2113 23.0684 78.6356C22.9981 79.0599 22.7759 79.4434 22.4437 79.7136C22.1115 79.9838 21.6925 80.1218 21.266 80.1014C20.8396 80.0811 20.4354 79.9039 20.13 79.6033H20.13Z" fill="#FFB6B6"/>
<path d="M24.8809 53.1262C24.8809 53.1262 24.0235 52.8006 23.7124 54.7314C23.4632 56.2772 21.0311 65.6074 21.2612 67.7693C20.9758 67.87 20.7318 68.0636 20.5675 68.3195C20.4033 68.5754 20.3282 68.879 20.3541 69.1827L24.8388 69.2058C25.5255 68.4511 25.6145 67.5406 25.2829 67.3168L25.9034 64.5583L28.8254 55.6587L25.5049 53.3504L24.8809 53.1262Z" fill="#032C17"/>
<path d="M40.7768 80.2742C40.9739 80.1133 41.1335 79.9109 41.2444 79.6812C41.3554 79.4514 41.4151 79.2 41.4192 78.9445C41.4233 78.6891 41.3717 78.4358 41.2682 78.2026C41.1646 77.9694 41.0116 77.7619 40.8198 77.5947L39.9107 61.7383L36.5581 62.4647L38.279 77.8568C38.0216 78.2 37.8982 78.6264 37.9319 79.0552C37.9657 79.484 38.1545 79.8854 38.4623 80.1834C38.7702 80.4814 39.1759 80.6552 39.6025 80.6719C40.0291 80.6887 40.4469 80.5471 40.7769 80.2742L40.7768 80.2742Z" fill="#FFB6B6"/>
<path d="M38.3048 53.4831C38.3048 53.4831 39.1868 53.233 39.332 55.1837C39.4481 56.7453 41.0744 66.2518 40.6606 68.3857C40.9363 68.5108 41.163 68.7248 41.3047 68.994C41.4465 69.2632 41.4953 69.5723 41.4436 69.8725L36.9736 69.5067C36.3539 68.6952 36.3429 67.7804 36.6924 67.5862L36.3098 64.7842L34.1587 55.6642L37.6641 53.6524L38.3048 53.4831Z" fill="#032C17"/>
<path d="M29.91 49.7988C32.4075 49.7988 34.4321 47.7587 34.4321 45.2422C34.4321 42.7256 32.4075 40.6855 29.91 40.6855C27.4125 40.6855 25.3879 42.7256 25.3879 45.2422C25.3879 47.7587 27.4125 49.7988 29.91 49.7988Z" fill="#FFB8B8"/>
<path d="M20.9229 54.8187C19.966 54.4769 19.0091 54.1346 18.0521 53.7916C18.2171 53.5127 18.4271 53.2636 18.6736 53.0546C19.5847 52.288 20.8423 52.1494 21.999 51.8908C23.1576 51.6322 24.4152 51.1021 24.8387 49.9863C25.2787 48.8263 24.6407 47.5739 24.2704 46.3916C23.7516 44.7421 23.7626 42.9004 24.4574 41.3192C25.1522 39.7379 26.5638 38.456 28.2393 38.0792C29.9149 37.7042 31.8086 38.3156 32.8389 39.6973C33.5027 39.4967 34.2164 39.5479 34.8453 39.8412C35.4742 40.1346 35.9747 40.6498 36.2523 41.2896C36.4925 41.8955 36.4998 42.6252 36.1423 43.1701C35.7849 43.715 35.0204 43.994 34.4448 43.691L34.7784 42.8376C33.7463 43.1904 33.0754 45.0709 33.2147 46.1607C33.3522 47.2488 33.9828 48.2019 34.6226 49.0904C35.2624 49.9789 35.9444 50.8767 36.2193 51.9388C36.6153 53.4665 36.08 55.1364 35.0901 56.3611C34.1001 57.5858 32.7051 58.417 31.2605 59.0285C30.1791 59.4866 29.0554 59.8356 27.9057 60.0703C28.111 59.6676 28.3145 59.2649 28.5198 58.8622L26.0835 60.3474C25.6123 60.3936 25.1375 60.4213 24.6627 60.4305C23.2805 60.4545 21.8707 60.3086 20.6058 59.7526C19.3391 59.1947 18.2263 58.1843 17.768 56.8709C17.6211 56.4461 17.5515 55.998 17.5627 55.5483C18.6827 55.3045 19.8028 55.0613 20.9229 54.8187Z" fill="#212529"/>
<path d="M16.3624 122.669C16.2222 122.676 16.0834 122.639 15.9649 122.563C15.8463 122.487 15.7537 122.377 15.6996 122.246C15.6454 122.116 15.6324 121.972 15.6622 121.834C15.6921 121.696 15.7634 121.57 15.8664 121.474C15.8836 121.405 15.896 121.355 15.9133 121.286C15.9071 121.271 15.9009 121.256 15.8946 121.241C15.7534 120.905 15.5168 120.619 15.2145 120.418C14.9122 120.216 14.5577 120.11 14.1955 120.111C13.8333 120.113 13.4795 120.222 13.1787 120.425C12.8779 120.628 12.6434 120.917 12.5047 121.254C11.9502 122.599 11.2443 123.947 11.0705 125.37C10.994 125.999 11.0262 126.636 11.1659 127.254C9.8637 124.392 9.18748 121.281 9.18313 118.132C9.18286 117.342 9.22642 116.552 9.31363 115.767C9.3857 115.123 9.48569 114.484 9.6136 113.849C10.3116 110.406 11.8102 107.179 13.9863 104.433C15.0395 103.854 15.8913 102.963 16.4268 101.881C16.6208 101.492 16.7579 101.077 16.8339 100.649C16.7151 100.664 16.5943 100.674 16.4755 100.682C16.4385 100.684 16.3995 100.686 16.3625 100.688L16.3486 100.689C16.218 100.695 16.0885 100.662 15.9757 100.596C15.8629 100.529 15.7716 100.431 15.7127 100.314C15.6539 100.196 15.63 100.064 15.6441 99.9329C15.6581 99.8019 15.7093 99.6779 15.7917 99.5756C15.843 99.512 15.8943 99.4484 15.9457 99.3848C16.0236 99.2867 16.1035 99.1905 16.1814 99.0924C16.1904 99.0831 16.1988 99.0733 16.2067 99.063C16.2963 98.9511 16.3859 98.8412 16.4755 98.7293C16.312 98.4735 16.092 98.2593 15.8327 98.1032C14.9348 97.5733 13.6961 97.9404 13.0475 98.7588C12.3969 99.5772 12.2742 100.725 12.5001 101.748C12.7223 102.618 13.0899 103.444 13.587 104.189C13.5383 104.252 13.4876 104.313 13.439 104.376C12.5488 105.529 11.773 106.768 11.1226 108.073C11.2808 106.61 11.092 105.131 10.5719 103.756C10.0447 102.474 9.05655 101.395 8.18638 100.287C7.14116 98.9563 4.99785 99.537 4.8137 101.224C4.81192 101.24 4.81018 101.257 4.80848 101.273C4.93773 101.346 5.06425 101.424 5.18804 101.507C5.34355 101.612 5.46405 101.761 5.53375 101.936C5.60345 102.111 5.6191 102.303 5.57864 102.487C5.53819 102.671 5.44352 102.838 5.30704 102.967C5.17056 103.096 4.99863 103.18 4.81379 103.209L4.79486 103.212C4.8409 103.681 4.92229 104.147 5.03832 104.603C5.37454 105.879 5.96867 107.071 6.78346 108.104C7.59825 109.138 8.61613 109.991 9.77329 110.609C9.84926 110.648 9.92328 110.688 9.99924 110.725C9.34582 112.591 8.93595 114.534 8.77995 116.507C8.69163 117.67 8.69684 118.839 8.79553 120.002L8.78969 119.961C8.54035 118.668 7.85581 117.501 6.85167 116.658C5.36027 115.423 3.25319 114.969 1.64422 113.977C1.47323 113.866 1.2744 113.807 1.0712 113.806C0.867993 113.806 0.668889 113.864 0.497362 113.974C0.325834 114.083 0.189037 114.24 0.103112 114.426C0.0171865 114.612 -0.0142857 114.818 0.0124057 115.021C0.0145611 115.035 0.016758 115.05 0.0189891 115.064C0.258837 115.163 0.492362 115.276 0.718217 115.404C0.847467 115.477 0.973992 115.555 1.09778 115.638C1.25329 115.742 1.37379 115.892 1.44349 116.067C1.51319 116.242 1.52883 116.434 1.48838 116.618C1.44792 116.802 1.35325 116.969 1.21677 117.098C1.08029 117.227 0.908368 117.311 0.723523 117.34L0.704581 117.343C0.690945 117.345 0.679263 117.347 0.665647 117.349C1.07546 118.335 1.65065 119.242 2.36602 120.032C3.24974 120.987 4.31784 121.751 5.50482 122.275C6.6918 122.8 7.97265 123.075 9.26884 123.084H9.27079C9.62265 124.624 10.1325 126.124 10.792 127.558H16.2262C16.2457 127.497 16.2632 127.435 16.2807 127.374C15.7777 127.406 15.2728 127.375 14.7771 127.284C15.1803 126.785 15.5834 126.283 15.9866 125.784C15.9956 125.775 16.0041 125.765 16.0119 125.755C16.2164 125.5 16.4229 125.246 16.6274 124.991L16.6275 124.991C16.6384 124.209 16.5494 123.429 16.3625 122.669L16.3624 122.669Z" fill="#3E9D41"/>
<path d="M52.8625 127.941L0.635431 127.999C0.575621 127.999 0.518259 127.976 0.475966 127.933C0.433674 127.89 0.409912 127.832 0.409912 127.772C0.409912 127.712 0.433674 127.654 0.475966 127.612C0.518259 127.569 0.575621 127.545 0.635431 127.545L52.8625 127.486C52.9223 127.486 52.9797 127.51 53.0219 127.553C53.0642 127.596 53.088 127.653 53.088 127.714C53.088 127.774 53.0642 127.832 53.0219 127.874C52.9797 127.917 52.9223 127.941 52.8625 127.941Z" fill="#513C10"/>
</svg>
