<svg width="364" height="269" viewBox="0 0 364 269" fill="none" xmlns="http://www.w3.org/2000/svg">
<g clip-path="url(#clip0_708_6697)">
<path d="M258.37 197.296H62.351C60.6044 197.294 58.9299 196.6 57.6949 195.365C56.4599 194.13 55.7652 192.456 55.7632 190.71V31.1483C55.7652 29.4022 56.4599 27.7283 57.6949 26.4937C58.9299 25.259 60.6044 24.5645 62.351 24.5625H258.37C260.116 24.5645 261.791 25.259 263.026 26.4937C264.261 27.7283 264.956 29.4022 264.958 31.1483V190.71C264.956 192.456 264.261 194.13 263.026 195.365C261.791 196.6 260.116 197.294 258.37 197.296Z" fill="#ADB5BD"/>
<path d="M66.7959 29.25C65.1135 29.252 63.5005 29.921 62.3109 31.1103C61.1212 32.2996 60.4521 33.9121 60.4502 35.594V186.268C60.4522 187.95 61.1214 189.562 62.311 190.752C63.5006 191.941 65.1135 192.61 66.7959 192.612H200.963C216.688 192.594 231.763 186.341 242.881 175.226C254 164.111 260.255 149.04 260.272 133.32V35.594C260.271 33.9121 259.601 32.2996 258.412 31.1103C257.222 29.921 255.609 29.252 253.927 29.25L66.7959 29.25Z" fill="white"/>
<path d="M222.626 97.0156H187.083C186.342 97.0148 185.631 96.72 185.107 96.196C184.583 95.672 184.288 94.9615 184.287 94.2204V76.5354C184.288 75.7943 184.583 75.0838 185.107 74.5598C185.631 74.0358 186.342 73.7411 187.083 73.7402H222.626C223.367 73.7411 224.078 74.0358 224.602 74.5598C225.126 75.0838 225.421 75.7943 225.422 76.5354C227.621 82.7937 227.934 88.7403 225.422 94.2204C225.421 94.9615 225.126 95.672 224.602 96.196C224.078 96.72 223.367 97.0148 222.626 97.0156Z" fill="#ADB5BD"/>
<path d="M218.415 95.3061H188.218C187.588 95.3054 186.984 95.0549 186.539 94.6097C186.093 94.1645 185.843 93.5609 185.842 92.9313V77.906C185.843 77.2764 186.093 76.6728 186.539 76.2276C186.984 75.7824 187.588 75.5319 188.218 75.5312H218.415C219.045 75.5319 219.649 75.7824 220.094 76.2276C220.539 76.6728 220.79 77.2764 220.791 77.906C222.829 83.2571 223.156 88.3206 220.791 92.9313C220.79 93.5609 220.539 94.1645 220.094 94.6097C219.649 95.0549 219.045 95.3054 218.415 95.3061Z" fill="white"/>
<path d="M216.787 106.278H192.843C192.139 106.279 191.463 106 190.964 105.503C190.465 105.006 190.184 104.331 190.183 103.627C190.182 102.923 190.46 102.247 190.957 101.748C191.454 101.25 192.129 100.968 192.833 100.967H216.787C217.49 100.968 218.165 101.249 218.662 101.746C219.159 102.244 219.438 102.919 219.438 103.622C219.438 104.326 219.159 105.001 218.662 105.498C218.165 105.996 217.49 106.277 216.787 106.278Z" fill="#ADB5BD"/>
<path d="M200.688 79.5879C200.413 79.5889 200.149 79.6988 199.954 79.8936C199.76 80.0885 199.65 80.3524 199.649 80.6278V91.8842C199.649 92.066 199.697 92.2446 199.788 92.4022C199.878 92.5597 200.009 92.6907 200.166 92.782C200.323 92.8733 200.502 92.9218 200.684 92.9225C200.865 92.9232 201.044 92.8762 201.202 92.7862L211.141 87.121C211.301 87.0302 211.433 86.8985 211.525 86.7395C211.618 86.5806 211.666 86.4 211.665 86.2163C211.665 86.0325 211.616 85.8523 211.523 85.6938C211.429 85.5353 211.296 85.4044 211.136 85.3144L201.198 79.7226C201.042 79.6346 200.867 79.5882 200.688 79.5879Z" fill="#ADB5BD"/>
<path d="M345.684 247.463C345.136 246.767 344.392 246.25 343.547 245.98C342.703 245.71 341.797 245.7 340.946 245.949L340.76 246.005L339.091 252.518C338.841 251.547 338.306 249.356 337.969 247.211L337.94 247.033L337.774 247.106C336.029 247.877 334.389 248.865 332.893 250.047C330.241 252.173 328.085 254.851 326.573 257.895C325.061 260.938 324.231 264.274 324.139 267.671L324.136 267.796L324.133 267.875L324.354 267.796L329.096 266.102C331.195 266.287 333.309 266.001 335.284 265.265C337.259 264.529 339.044 263.361 340.51 261.847C342.426 259.827 343.74 257.229 345.01 254.715C345.382 253.982 345.763 253.227 346.153 252.5C346.587 251.71 346.775 250.808 346.691 249.91C346.608 249.012 346.257 248.16 345.684 247.463Z" fill="#125D1B"/>
<path d="M224.596 81.3699C224.691 81.8629 224.894 82.3291 225.188 82.7356C225.483 83.1421 225.864 83.479 226.303 83.7227C226.742 83.9663 227.229 84.1106 227.73 84.1456C228.232 84.1806 228.734 84.1053 229.203 83.9251L243.374 100.406L245.168 94.3217L231.119 79.2438C230.764 78.4765 230.14 77.866 229.364 77.5281C228.589 77.1902 227.717 77.1483 226.913 77.4103C226.109 77.6724 225.429 78.2203 225.002 78.95C224.575 79.6798 224.431 80.5408 224.596 81.3699L224.596 81.3699Z" fill="#FFB8B8"/>
<path d="M281.709 263.855H277.02L274.789 245.771H281.71L281.709 263.855Z" fill="#FFB6B6"/>
<path d="M281.584 262.325L276.577 260.289L276.434 260.23L273.669 262.325C272.108 262.326 270.611 262.946 269.507 264.049C268.404 265.153 267.783 266.649 267.783 268.21V268.401H282.904V262.325H281.584Z" fill="#2F2E41"/>
<path d="M315.165 263.855H310.475L308.244 245.771H315.166L315.165 263.855Z" fill="#FFB6B6"/>
<path d="M315.04 262.325L310.032 260.289L309.889 260.23L307.124 262.325C305.563 262.326 304.066 262.946 302.963 264.049C301.859 265.153 301.239 266.649 301.238 268.21V268.401H316.359V262.325H315.04Z" fill="#2F2E41"/>
<path d="M304.096 155.867C304.096 155.867 309.979 161.985 309.979 167.012C309.979 172.038 308.508 178.941 309.979 180.451C311.449 181.962 313.287 183.799 311.082 186.005C308.876 188.21 307.773 189.312 309.243 190.783C310.714 192.253 309.979 217.98 309.979 217.98L317.699 252.528H307.972L295.641 217.98L292.332 189.312L281.631 216.877L282.813 252.824L272.644 252.528L268.435 214.304C268.435 214.304 274.685 177.945 273.582 177.013C272.479 176.081 273.582 174.2 273.582 174.2L276.523 160.278L304.096 155.867Z" fill="#2F2E41"/>
<path d="M292.579 112.493C292.579 112.493 294.58 104.614 285.365 102.355C276.15 100.095 249.81 97.1932 249.81 97.1932L236.498 83.0723L231.988 89.6208L246.91 108.159L282.269 115.42L292.579 112.493Z" fill="#362406"/>
<path d="M234.18 89.1376C234.594 88.6022 234.917 88.0031 235.138 87.3638L237.047 82.6744L236.551 82.6537C235.866 82.5247 235.16 82.5421 234.482 82.7046C233.803 82.8671 233.167 83.1712 232.614 83.5968C232.061 84.0225 231.605 84.5601 231.274 85.1745C230.944 85.7888 230.747 86.4661 230.697 87.1618C230.634 87.7636 230.742 88.3709 231.008 88.9141C231.144 89.1834 231.342 89.4168 231.585 89.5952C231.828 89.7735 232.11 89.8917 232.408 89.9401C232.746 89.9582 233.084 89.8947 233.392 89.755C233.7 89.6154 233.971 89.4036 234.18 89.1376Z" fill="#ADB5BD"/>
<path d="M274.646 162.157L273.543 170.15C273.543 170.15 275.749 172.518 276.852 172.222C277.955 171.926 281.999 170.203 281.999 170.203C281.999 170.203 286.778 172.814 289.352 173.11C291.925 173.406 305.528 171.63 305.895 170.742C306.263 169.854 310.536 166.377 310.536 166.377L308.837 156.236L274.646 162.157Z" fill="#ADB5BD"/>
<path d="M310.465 134.194C310.465 134.194 309.531 141.901 310.267 142.611C311.002 143.316 309.531 147.782 308.061 150.722C306.59 153.662 309.164 154.03 309.164 156.235C309.164 158.44 310.267 166.526 310.267 166.526C310.267 166.526 298.87 167.261 297.032 165.423C295.193 163.586 292.252 165.056 288.208 169.099C284.164 173.141 275.381 169.834 273.543 167.996C271.705 166.158 274.973 159.543 276.076 158.26C277.179 156.977 275.014 158.462 273.911 154.397C272.808 150.332 274.973 150.722 276.811 148.884C278.65 147.047 276.811 143.739 275.341 140.431C273.87 137.123 274.973 112.499 274.973 106.618C274.973 100.738 283.061 100.003 283.061 100.003L286.263 95.9785L288.616 93.0199L293.227 92.8361L293.348 92.8324L297.807 92.6523L299.973 95.1736L304.752 100.738L310.267 101.841C314.678 103.311 313.575 112.499 313.575 112.499L310.465 134.194Z" fill="#362406"/>
<path d="M292.999 91.2426C298.218 91.2426 302.449 87.0128 302.449 81.7951C302.449 76.5774 298.218 72.3477 292.999 72.3477C287.78 72.3477 283.549 76.5774 283.549 81.7951C283.549 87.0128 287.78 91.2426 292.999 91.2426Z" fill="#FFB6B6"/>
<path d="M303.956 78.616C301.357 77.0224 301.69 72.8556 299.186 71.4005C297.941 70.6832 296.541 70.2771 295.106 70.2168C293.67 70.1566 292.241 70.4439 290.941 71.0544C289.177 70.2999 287.063 70.902 285.652 72.2644C284.241 73.6267 283.477 75.6365 283.252 77.6578C283.089 79.6885 283.235 81.7322 283.685 83.7193C283.825 82.9209 283.965 82.1226 284.105 81.3242L291.555 79.6964C290.896 80.2888 290.236 80.8812 289.576 81.4735C292.951 82.2414 296.491 81.688 299.469 79.9269C302.713 81.3804 302.125 84.6447 299.278 88.9768C300.381 90.8145 306.918 80.4318 303.956 78.616Z" fill="#2F2E41"/>
<path d="M299.973 95.1734C299.952 95.1905 299.93 95.2065 299.907 95.2212C299.128 95.6855 298.237 95.9271 297.33 95.9195C296.143 96.0185 294.964 95.6491 294.047 94.8904C293.565 94.4347 291.65 95.3976 290.392 95.9305C289.074 96.4769 287.595 96.494 286.264 95.9783L288.617 93.0197L292.494 92.1602H293.463L297.808 92.6522L299.973 95.1734Z" fill="#ADB5BD"/>
<path d="M363.426 268.852L231.879 269C231.804 269.001 231.728 268.986 231.658 268.958C231.588 268.929 231.525 268.887 231.471 268.834C231.417 268.78 231.374 268.717 231.345 268.647C231.316 268.578 231.3 268.503 231.3 268.427C231.299 268.351 231.314 268.276 231.343 268.206C231.371 268.136 231.413 268.073 231.467 268.019C231.52 267.965 231.583 267.922 231.653 267.893C231.723 267.864 231.798 267.848 231.873 267.848H231.879L363.426 267.699C363.579 267.7 363.725 267.761 363.832 267.869C363.94 267.977 364 268.123 364 268.275C364 268.428 363.94 268.574 363.832 268.682C363.725 268.79 363.579 268.851 363.426 268.852Z" fill="#362406"/>
<path d="M205.917 75.3455H204.949V6.12305H243.025V7.0909H205.917V75.3455Z" fill="#362406"/>
<path d="M272.637 0H246.981C245.312 0 243.711 0.662809 242.531 1.84261C241.351 3.02241 240.688 4.62257 240.688 6.29106C240.688 7.95955 241.351 9.55971 242.531 10.7395C243.711 11.9193 245.312 12.5821 246.981 12.5821H272.637C274.306 12.5821 275.907 11.9193 277.087 10.7395C278.267 9.55971 278.93 7.95955 278.93 6.29106C278.93 4.62257 278.267 3.02241 277.087 1.84261C275.907 0.662809 274.306 0 272.637 0Z" fill="#032C17"/>
<path d="M204.871 81.6771C208.065 81.6771 210.654 79.0889 210.654 75.8962C210.654 72.7035 208.065 70.1152 204.871 70.1152C201.677 70.1152 199.088 72.7035 199.088 75.8962C199.088 79.0889 201.677 81.6771 204.871 81.6771Z" fill="#032C17"/>
<path d="M135.189 97.6191L160.557 91.7504L167.839 90.0659C168.75 89.8552 168.371 88.4533 167.46 88.6641L142.091 94.5328L134.81 96.2173C133.899 96.428 134.277 97.8299 135.188 97.6191H135.189Z" fill="#032C17"/>
<path d="M161.385 82.3353L174.965 88.5806C175.429 88.7408 175.863 88.9757 176.251 89.2761C176.625 89.6431 176.353 89.9962 176.047 90.3159C175.133 91.1692 174.167 91.9657 173.156 92.701L167.37 97.4035C166.644 97.9938 167.669 99.0239 168.388 98.4391L173.428 94.3434L175.947 92.2956C176.661 91.7154 177.53 91.1233 177.817 90.1991C178.42 88.2573 176.041 87.4852 174.719 86.8774L168.805 84.1577L162.124 81.0854C161.282 80.6981 160.536 81.9451 161.385 82.3353Z" fill="#032C17"/>
<path d="M348.796 129.877C346.376 128.238 343.437 127.628 340.564 127.421C337.298 127.244 334.026 127.248 330.761 127.433C327.369 127.567 323.984 127.813 320.606 128.169C317.233 128.526 313.874 128.993 310.53 129.572C307.535 130.038 304.571 130.686 301.656 131.514C298.896 132.277 296.297 133.532 293.982 135.218C291.951 136.745 290.389 138.812 289.473 141.182C288.574 143.406 288.422 145.86 289.038 148.178C289.366 149.304 289.928 150.348 290.687 151.241C291.565 152.222 292.604 153.045 293.76 153.674C296.16 155.044 298.88 155.868 301.051 157.622C301.623 158.08 302.145 158.599 302.607 159.169C302.921 159.609 303.355 159.951 303.857 160.152C304.333 160.318 304.848 160.34 305.336 160.214C305.824 160.089 306.265 159.821 306.601 159.446C307.036 158.851 307.398 158.207 307.681 157.526L308.826 155.318C308.903 155.124 308.999 154.939 309.112 154.765C309.198 154.663 309.045 154.768 309.074 154.741C309.09 154.726 309.123 154.726 309.142 154.714C309.237 154.667 309.336 154.629 309.437 154.601C310.497 154.197 311.561 153.806 312.63 153.428C316.574 152.022 320.567 150.727 324.622 149.678C326.709 149.118 328.825 148.675 330.962 148.352C333.729 147.958 336.537 148.003 339.317 147.734C342.309 147.444 345.397 146.839 347.963 145.191C350.085 143.902 351.72 141.946 352.611 139.63C352.998 138.526 353.13 137.349 352.999 136.186C352.666 133.556 350.947 131.335 348.796 129.877Z" fill="#ADB5BD"/>
<path d="M343.844 131.357C341.657 129.875 339.001 129.324 336.405 129.137C333.454 128.977 330.497 128.98 327.546 129.148C324.481 129.269 321.422 129.491 318.37 129.813C315.322 130.135 312.286 130.558 309.264 131.081C306.558 131.502 303.88 132.088 301.245 132.835C298.751 133.525 296.402 134.659 294.311 136.183C292.475 137.563 291.063 139.43 290.236 141.573C289.424 143.582 289.286 145.8 289.842 147.894C290.139 148.912 290.647 149.855 291.333 150.663C292.126 151.549 293.065 152.293 294.11 152.861C296.279 154.099 298.736 154.843 300.698 156.428C301.215 156.843 301.687 157.312 302.104 157.826C302.388 158.225 302.78 158.533 303.234 158.715C303.664 158.865 304.129 158.885 304.571 158.771C305.012 158.658 305.41 158.416 305.714 158.077C306.107 157.539 306.434 156.957 306.69 156.342L307.725 154.346C307.794 154.172 307.88 154.005 307.983 153.847C308.061 153.755 307.922 153.849 307.949 153.825C307.963 153.812 307.993 153.812 308.01 153.801C308.095 153.759 308.185 153.724 308.277 153.699C309.234 153.334 310.196 152.981 311.162 152.639C314.726 151.368 318.334 150.198 321.999 149.25C323.885 148.744 325.797 148.344 327.728 148.051C330.228 147.695 332.766 147.737 335.278 147.493C337.982 147.231 340.773 146.684 343.092 145.196C345.009 144.031 346.486 142.263 347.292 140.17C347.641 139.172 347.761 138.108 347.642 137.058C347.341 134.681 345.788 132.674 343.844 131.357Z" fill="white"/>
<path d="M339.265 134.032L303.636 140.601C303.534 140.62 303.43 140.62 303.328 140.598C303.226 140.577 303.13 140.536 303.044 140.478C302.959 140.42 302.885 140.345 302.829 140.258C302.772 140.171 302.733 140.074 302.714 139.972C302.695 139.87 302.696 139.766 302.717 139.664C302.739 139.563 302.78 139.466 302.839 139.381C302.897 139.295 302.972 139.222 303.059 139.166C303.146 139.109 303.244 139.071 303.346 139.052L303.35 139.051L338.979 132.482C339.08 132.463 339.185 132.465 339.286 132.486C339.387 132.508 339.483 132.549 339.569 132.608C339.654 132.666 339.727 132.741 339.783 132.828C339.839 132.915 339.878 133.012 339.897 133.114C339.916 133.216 339.914 133.32 339.893 133.421C339.871 133.522 339.83 133.618 339.771 133.704C339.712 133.789 339.637 133.862 339.55 133.918C339.463 133.974 339.366 134.013 339.265 134.032V134.032Z" fill="#ADB5BD"/>
<path d="M340.142 138.79L304.514 145.359C304.412 145.378 304.307 145.377 304.206 145.356C304.104 145.335 304.008 145.294 303.922 145.236C303.837 145.177 303.763 145.103 303.707 145.016C303.65 144.929 303.611 144.832 303.592 144.73C303.573 144.628 303.574 144.523 303.595 144.422C303.617 144.32 303.658 144.224 303.716 144.139C303.775 144.053 303.85 143.98 303.937 143.924C304.024 143.867 304.121 143.829 304.223 143.81L304.228 143.809L339.856 137.24C339.958 137.221 340.063 137.222 340.164 137.244C340.265 137.266 340.361 137.307 340.446 137.366C340.532 137.424 340.605 137.499 340.661 137.586C340.717 137.673 340.756 137.77 340.775 137.872C340.793 137.973 340.792 138.078 340.77 138.179C340.749 138.28 340.707 138.376 340.649 138.462C340.59 138.547 340.515 138.62 340.428 138.676C340.341 138.732 340.244 138.771 340.142 138.79Z" fill="#ADB5BD"/>
<path d="M309.543 149.35L305.391 150.115C305.186 150.152 304.975 150.107 304.803 149.988C304.631 149.869 304.514 149.688 304.476 149.483C304.438 149.278 304.483 149.066 304.601 148.894C304.719 148.722 304.9 148.604 305.105 148.565L309.257 147.8C309.463 147.763 309.674 147.808 309.846 147.927C310.018 148.045 310.136 148.227 310.173 148.432C310.211 148.637 310.166 148.849 310.048 149.021C309.93 149.193 309.748 149.311 309.543 149.35Z" fill="#ADB5BD"/>
<path d="M306.536 169.125C308.355 168.789 309.558 167.042 309.223 165.223C308.887 163.404 307.14 162.202 305.32 162.537C303.501 162.873 302.297 164.619 302.633 166.438C302.969 168.258 304.716 169.46 306.536 169.125Z" fill="#09421A"/>
<path d="M122.152 96.1184H91.7197C90.307 96.1167 88.9526 95.555 87.9537 94.5563C86.9547 93.5577 86.3928 92.2037 86.3911 90.7914V70.741C86.3928 69.3287 86.9547 67.9748 87.9537 66.9761C88.9526 65.9775 90.307 65.4157 91.7197 65.4141H122.152C123.564 65.4157 124.919 65.9775 125.918 66.9761C126.917 67.9748 127.479 69.3287 127.48 70.741V90.7914C127.479 92.2037 126.917 93.5577 125.918 94.5563C124.919 95.555 123.564 96.1167 122.152 96.1184Z" fill="#ADB5BD"/>
<path d="M118.808 95.0389H92.3221C91.0926 95.0374 89.9139 94.5485 89.0445 93.6794C88.1751 92.8103 87.686 91.6319 87.6846 90.4027V72.9526C87.686 71.7234 88.1751 70.545 89.0445 69.6759C89.9139 68.8068 91.0926 68.3179 92.3221 68.3164H118.808C120.037 68.3179 121.216 68.8068 122.085 69.6759C122.955 70.545 123.444 71.7234 123.445 72.9526V90.4028C123.444 91.6319 122.955 92.8103 122.085 93.6794C121.216 94.5485 120.037 95.0374 118.808 95.0389Z" fill="white"/>
<path d="M126.438 114.183H87.39C87.1487 114.182 86.9175 114.086 86.7471 113.916C86.5767 113.745 86.481 113.513 86.481 113.272C86.481 113.031 86.5767 112.8 86.7471 112.629C86.9175 112.458 87.1487 112.362 87.39 112.361H126.438C126.679 112.362 126.911 112.458 127.081 112.629C127.251 112.8 127.347 113.031 127.347 113.272C127.347 113.513 127.251 113.745 127.081 113.916C126.911 114.086 126.679 114.182 126.438 114.183Z" fill="#ADB5BD"/>
<path d="M126.438 108.978H87.39C87.1487 108.977 86.9175 108.881 86.7471 108.71C86.5767 108.54 86.481 108.308 86.481 108.067C86.481 107.826 86.5767 107.595 86.7471 107.424C86.9175 107.253 87.1487 107.157 87.39 107.156H126.438C126.679 107.157 126.911 107.253 127.081 107.424C127.251 107.595 127.347 107.826 127.347 108.067C127.347 108.308 127.251 108.54 127.081 108.71C126.911 108.881 126.679 108.977 126.438 108.978Z" fill="#ADB5BD"/>
<path d="M126.438 119.388H87.3901C87.1485 119.388 86.9167 119.292 86.7459 119.121C86.575 118.951 86.479 118.719 86.479 118.477C86.479 118.236 86.575 118.004 86.7459 117.833C86.9167 117.662 87.1485 117.566 87.3901 117.566H126.438C126.68 117.566 126.912 117.662 127.083 117.833C127.253 118.004 127.349 118.236 127.349 118.477C127.349 118.719 127.253 118.951 127.083 119.121C126.912 119.292 126.68 119.388 126.438 119.388Z" fill="#ADB5BD"/>
<path d="M126.438 124.593H87.3901C87.1485 124.593 86.9167 124.497 86.7459 124.326C86.575 124.156 86.479 123.924 86.479 123.682C86.479 123.441 86.575 123.209 86.7459 123.038C86.9167 122.867 87.1485 122.771 87.3901 122.771H126.438C126.68 122.771 126.912 122.867 127.083 123.038C127.253 123.209 127.349 123.441 127.349 123.682C127.349 123.924 127.253 124.156 127.083 124.326C126.912 124.497 126.68 124.593 126.438 124.593Z" fill="#ADB5BD"/>
<path d="M126.438 129.798H87.3901C87.1485 129.798 86.9167 129.702 86.7459 129.531C86.575 129.361 86.479 129.129 86.479 128.887C86.479 128.646 86.575 128.414 86.7459 128.243C86.9167 128.073 87.1485 127.977 87.3901 127.977H126.438C126.68 127.977 126.912 128.073 127.083 128.243C127.253 128.414 127.349 128.646 127.349 128.887C127.349 129.129 127.253 129.361 127.083 129.531C126.912 129.702 126.68 129.798 126.438 129.798Z" fill="#ADB5BD"/>
<path d="M126.438 135.003H87.39C87.1487 135.003 86.9175 134.907 86.7471 134.736C86.5767 134.565 86.481 134.334 86.481 134.092C86.481 133.851 86.5767 133.62 86.7471 133.449C86.9175 133.278 87.1487 133.182 87.39 133.182H126.438C126.679 133.182 126.911 133.278 127.081 133.449C127.251 133.62 127.347 133.851 127.347 134.092C127.347 134.334 127.251 134.565 127.081 134.736C126.911 134.907 126.679 135.003 126.438 135.003Z" fill="#ADB5BD"/>
<path d="M104.962 123.066H105.93V160.35H35.9053V159.382H104.962V123.066Z" fill="#362406"/>
<path d="M6.29297 166.471H31.9489C33.6179 166.471 35.2186 165.808 36.3987 164.628C37.5789 163.448 38.2419 161.848 38.2419 160.18C38.2419 158.511 37.5789 156.911 36.3987 155.731C35.2186 154.551 33.6179 153.889 31.9489 153.889H6.29297C4.62397 153.889 3.02333 154.551 1.84317 155.731C0.66301 156.911 0 158.511 0 160.18C0 161.848 0.66301 163.448 1.84317 164.628C3.02333 165.808 4.62397 166.471 6.29297 166.471Z" fill="#032C17"/>
<path d="M106.12 125.874C109.314 125.874 111.903 123.286 111.903 120.093C111.903 116.901 109.314 114.312 106.12 114.312C102.926 114.312 100.337 116.901 100.337 120.093C100.337 123.286 102.926 125.874 106.12 125.874Z" fill="#032C17"/>
<path d="M136.009 121.7C144.499 123.504 142.34 123.856 150.83 125.66L158.14 127.213C159.055 127.408 159.305 125.978 158.39 125.783C149.9 123.979 152.06 123.627 143.57 121.823L136.259 120.27C135.345 120.076 135.094 121.506 136.009 121.7H136.009Z" fill="#032C17"/>
<path d="M155.564 117.48L165.226 128.883C165.578 129.224 165.872 129.621 166.096 130.057C166.281 130.548 165.884 130.752 165.472 130.913C164.282 131.299 163.071 131.613 161.843 131.851L154.61 133.665C153.702 133.893 154.195 135.26 155.095 135.034L161.394 133.454L164.544 132.664C165.436 132.441 166.474 132.272 167.125 131.555C168.493 130.051 166.664 128.345 165.724 127.236L161.516 122.27L156.763 116.661C156.164 115.954 154.96 116.768 155.564 117.48V117.48Z" fill="#032C17"/>
<path d="M186.201 167.184C193.627 167.184 199.648 161.165 199.648 153.74C199.648 146.316 193.627 140.297 186.201 140.297C178.774 140.297 172.753 146.316 172.753 153.74C172.753 161.165 178.774 167.184 186.201 167.184Z" fill="#ADB5BD"/>
<path d="M184.89 165.472C190.536 165.472 195.113 160.896 195.113 155.251C195.113 149.607 190.536 145.031 184.89 145.031C179.244 145.031 174.667 149.607 174.667 155.251C174.667 160.896 179.244 165.472 184.89 165.472Z" fill="white"/>
<path d="M183.056 162.247C182.823 162.247 182.594 162.193 182.387 162.089C182.179 161.986 181.998 161.835 181.859 161.649L178.19 156.759C178.072 156.602 177.986 156.423 177.938 156.233C177.889 156.043 177.878 155.845 177.906 155.65C177.933 155.456 177.999 155.269 178.099 155.1C178.199 154.931 178.331 154.783 178.488 154.665C178.645 154.547 178.824 154.461 179.015 154.413C179.205 154.364 179.403 154.353 179.597 154.381C179.792 154.408 179.979 154.474 180.148 154.574C180.317 154.674 180.465 154.806 180.583 154.963L180.584 154.964L182.984 158.163L189.148 148.919C189.257 148.756 189.397 148.615 189.561 148.506C189.724 148.396 189.907 148.32 190.1 148.281C190.293 148.243 190.491 148.242 190.684 148.28C190.877 148.318 191.06 148.394 191.224 148.503C191.387 148.612 191.528 148.752 191.637 148.916C191.747 149.079 191.823 149.262 191.861 149.455C191.9 149.648 191.9 149.846 191.861 150.039C191.823 150.232 191.747 150.415 191.638 150.579L184.3 161.581C184.168 161.78 183.989 161.945 183.78 162.06C183.57 162.176 183.336 162.24 183.097 162.247C183.083 162.247 183.069 162.247 183.056 162.247Z" fill="#ADB5BD"/>
<path d="M311.768 167.59C312.201 167.336 312.573 166.99 312.858 166.576C313.143 166.162 313.333 165.691 313.416 165.196C313.499 164.7 313.472 164.193 313.337 163.709C313.203 163.226 312.963 162.777 312.637 162.396L323.434 143.533L317.099 143.877L307.583 162.156C306.978 162.747 306.612 163.54 306.552 164.383C306.493 165.226 306.745 166.062 307.261 166.732C307.777 167.402 308.521 167.859 309.352 168.017C310.182 168.176 311.042 168.024 311.768 167.59H311.768Z" fill="#FFB8B8"/>
<path d="M299.606 101.474C299.606 101.474 311.042 97.7989 313.984 106.62C316.925 115.44 326.812 139.33 326.812 139.33L316.189 161.014L311.41 155.869L316.518 140.8L301.812 118.748L299.606 101.474Z" fill="#362406"/>
<path d="M316.554 158.8C316.21 158.218 315.773 157.695 315.261 157.253L311.612 153.742L311.409 154.195C311.035 154.784 310.79 155.445 310.689 156.135C310.589 156.825 310.635 157.529 310.826 158.2C311.016 158.871 311.347 159.494 311.795 160.029C312.243 160.563 312.799 160.997 313.427 161.302C313.963 161.583 314.567 161.708 315.171 161.662C315.471 161.636 315.761 161.539 316.017 161.379C316.273 161.219 316.487 161.001 316.643 160.743C316.785 160.436 316.851 160.099 316.835 159.761C316.82 159.422 316.723 159.093 316.554 158.8Z" fill="#ADB5BD"/>
<path d="M186.084 171.828H185.116V209.111H217.867V208.144H186.084V171.828Z" fill="#362406"/>
<path d="M253.772 208.941C253.771 207.273 253.107 205.674 251.927 204.495C250.747 203.315 249.148 202.652 247.479 202.65H221.823C220.154 202.65 218.554 203.313 217.373 204.493C216.193 205.673 215.53 207.273 215.53 208.941C215.53 210.61 216.193 212.21 217.373 213.39C218.554 214.57 220.154 215.233 221.823 215.233H247.479C249.148 215.231 250.747 214.568 251.927 213.388C253.107 212.209 253.771 210.609 253.772 208.941Z" fill="#032C17"/>
<path d="M184.926 174.636C188.119 174.636 190.708 172.048 190.708 168.855C190.708 165.662 188.119 163.074 184.926 163.074C181.732 163.074 179.143 165.662 179.143 168.855C179.143 172.048 181.732 174.636 184.926 174.636Z" fill="#032C17"/>
</g>
<defs>
<clipPath id="clip0_708_6697">
<rect width="364" height="269" fill="white"/>
</clipPath>
</defs>
</svg>
