<svg width="273" height="219" viewBox="0 0 273 219" fill="none" xmlns="http://www.w3.org/2000/svg">
<path d="M103.549 92.966C94.08 96.7569 84.3963 99.9883 74.5481 102.644H110.119C111.031 102.644 111.905 102.281 112.549 101.637C113.194 100.992 113.556 100.118 113.556 99.2067V88.5439C110.272 90.1249 106.936 91.5989 103.549 92.966Z" fill="#032C17"/>
<path d="M103.395 92.4048C96.0226 95.372 88.5208 97.9811 80.8891 100.232C78.7315 100.878 76.5663 101.494 74.3935 102.082C74.2416 102.103 74.104 102.183 74.0111 102.305C73.9182 102.427 73.8775 102.581 73.898 102.733C73.9185 102.884 73.9985 103.022 74.1205 103.115C74.2424 103.208 74.3962 103.249 74.5482 103.228H109.824C110.268 103.241 110.712 103.197 111.145 103.096C111.96 102.875 112.687 102.404 113.223 101.751C113.76 101.098 114.079 100.294 114.138 99.4504C114.172 98.952 114.138 98.4422 114.138 97.9439V88.5441C114.136 88.4424 114.107 88.3429 114.055 88.2554C114.004 88.1678 113.93 88.0951 113.842 88.0444C113.754 87.9936 113.654 87.9666 113.552 87.9658C113.45 87.9651 113.35 87.9906 113.261 88.0401C110.015 89.6019 106.724 91.0568 103.386 92.4048C103.24 92.4495 103.116 92.5486 103.04 92.6818C102.964 92.815 102.943 92.9721 102.979 93.1208C102.999 93.1952 103.032 93.265 103.079 93.326C103.126 93.3871 103.184 93.438 103.251 93.476C103.318 93.5139 103.392 93.5381 103.468 93.5469C103.544 93.5558 103.622 93.5492 103.695 93.5275C107.132 92.1433 110.517 90.6501 113.848 89.0482L112.972 88.5441V98.8546C112.972 99.7597 112.777 100.593 112.113 101.252C111.833 101.517 111.503 101.725 111.143 101.863C110.783 102.001 110.399 102.067 110.013 102.057H77.1716C76.3382 102.057 75.4904 102.014 74.657 102.057H74.5482L74.7028 103.202C82.3698 101.117 89.9509 98.7229 97.3974 95.962C99.5091 95.1791 101.609 94.3677 103.698 93.5275C103.844 93.4823 103.968 93.3831 104.043 93.2501C104.119 93.117 104.141 92.9602 104.105 92.8115C104.086 92.7378 104.052 92.6686 104.006 92.608C103.959 92.5475 103.901 92.4968 103.835 92.4589C103.769 92.421 103.696 92.3967 103.62 92.3875C103.545 92.3782 103.468 92.3841 103.395 92.4048V92.4048Z" fill="#032C17"/>
<path d="M114.146 12.0461V9.00451C114.146 7.88468 114.281 6.64455 113.86 5.58486C113.178 3.89795 111.568 3.05306 109.821 3.05306H7.42959C6.28397 3.05306 5.11259 3.02156 3.95839 3.05306C1.6328 3.1218 0.0174864 5.03497 0.0117584 7.28609V9.17635V98.7144C0.0117584 100.103 0.378354 101.424 1.5211 102.337C2.90729 103.446 4.69158 103.225 6.34985 103.225H25.2925C25.6992 103.225 26.0629 102.718 25.7937 102.349C19.4069 93.5763 14.6555 83.7126 11.1872 73.448C7.64439 62.9398 5.31593 52.0021 3.54024 41.0673C2.54547 34.9153 1.75404 28.7329 1.16596 22.5198C1.09722 21.7809 -0.068434 21.7723 0.00316666 22.5198C1.04056 33.7559 2.78052 44.9159 5.21283 55.9344C7.59856 66.6545 10.7433 77.2199 15.4689 87.1523C18.0794 92.6893 21.1993 97.9713 24.7884 102.93L25.2925 102.054H6.34985C4.80327 102.054 2.91302 102.34 1.8161 101C1.20033 100.258 1.16596 99.3989 1.16596 98.5139V7.32905C1.16596 5.65646 2.28293 4.25022 4.02999 4.21872H5.08108H109.713C111.05 4.21872 112.325 4.73711 112.82 6.10325C113.152 7.02547 112.989 8.21118 112.989 9.17062V12.0346C112.989 12.785 114.155 12.7879 114.155 12.0346L114.146 12.0461Z" fill="#09421A"/>
<path d="M0.149067 23.9627C0.734185 33.6113 2.08162 43.1984 4.17875 52.6345C6.18357 61.7679 8.681 70.8697 12.0949 79.5821C15.3026 87.7761 19.3037 95.7066 24.4646 102.852C25.7334 104.605 27.0423 106.352 28.4743 107.97C29.9063 109.588 31.5502 110.849 33.6868 111.175C35.9207 111.519 38.2005 111.026 40.4058 110.68C42.7753 110.298 45.141 109.9 47.5029 109.485C56.9981 107.788 66.4026 105.652 75.7164 103.079C84.9737 100.52 94.0828 97.4532 103.002 93.8908C112.01 90.2927 120.696 85.9361 128.967 80.868C130.471 79.943 131.994 79.0322 133.475 78.0699C134.753 77.2393 136.081 76.2799 136.883 74.9538C137.588 73.7882 137.765 72.2445 136.783 71.1848C135.801 70.1251 134.26 69.7184 132.968 69.1628C131.064 68.3408 129.294 66.9575 127.776 65.5627C126.167 64.0715 124.75 62.3848 123.56 60.542C121.088 56.7472 119.482 52.4569 118.347 48.0921C117.187 43.6328 116.52 39.0647 115.953 34.4966C115.329 29.496 114.701 24.4725 114.398 19.4433C114.252 16.9831 114.137 14.5143 114.134 12.0455C114.134 11.3066 112.989 11.3037 112.989 12.0455C112.983 16.9804 113.258 21.9117 113.814 26.8153C114.355 31.5008 114.845 36.195 115.589 40.849C116.953 49.3523 119.341 58.2594 125.247 64.8066C126.686 66.4025 128.322 67.8094 130.116 68.9938C130.852 69.5044 131.633 69.9464 132.45 70.3141C133.106 70.6005 133.782 70.8325 134.426 71.1389C134.999 71.4082 135.729 71.7461 136.05 72.3218C136.336 72.843 136.173 73.539 135.921 74.0402C135.248 75.3834 133.845 76.3114 132.613 77.0961C125.092 81.9438 117.222 86.2277 109.068 89.9126C100.456 93.7476 91.5172 96.8894 82.4955 99.616C73.4738 102.343 64.2918 104.602 55.0438 106.458C50.4213 107.39 45.7816 108.229 41.1247 108.976C38.9566 109.322 36.6854 109.858 34.4801 109.686C32.2748 109.514 30.6853 108.134 29.2963 106.51C23.6942 99.9482 19.3065 92.2898 15.7781 84.4567C12.0949 76.2799 9.33686 67.705 7.04564 59.0442C4.59004 49.7996 2.7936 40.3925 1.66986 30.8937C1.40065 28.6024 1.19157 26.2826 1.02832 23.9684C0.988227 23.3956 0.108971 23.3956 0.140475 23.9684L0.149067 23.9627Z" fill="#09421A"/>
<path d="M128.495 54.9814C127.598 55.0299 126.738 55.3539 126.032 55.9093C125.269 56.4513 124.593 57.1061 124.027 57.8511C123.546 58.5299 123.632 59.4435 124.528 59.687C125.425 59.9304 126.49 59.5037 127.263 59.0855L126.817 58.7304C126.53 60.3457 127.613 61.7405 128.956 62.5052C129.688 62.8898 130.456 63.2043 131.247 63.4446C132.19 63.7625 133.132 64.0747 134.077 64.3897C134.469 64.5214 134.65 63.8999 134.246 63.7711L131.869 62.9777C131.131 62.7548 130.408 62.487 129.704 62.1758C128.466 61.5858 127.163 60.4144 127.412 58.8936C127.426 58.8347 127.423 58.773 127.402 58.7159C127.382 58.6589 127.345 58.609 127.297 58.5721C127.249 58.5352 127.192 58.513 127.131 58.508C127.071 58.5031 127.01 58.5157 126.957 58.5442C126.35 58.8765 125.548 59.2115 124.84 59.117C124.494 59.0741 124.23 58.8679 124.356 58.4927C124.512 58.1575 124.736 57.8589 125.015 57.6163C125.96 56.6167 127.049 55.5141 128.492 55.3738C128.744 55.348 128.756 54.9642 128.492 54.9728L128.495 54.9814Z" fill="#09421A"/>
<path d="M121.275 54.2936C122.541 53.9098 123.812 53.5403 125.087 53.1938C126.307 52.8587 127.555 52.4892 128.81 52.7928C129.907 53.099 130.919 53.6548 131.766 54.4167C132.622 55.1353 133.401 55.9405 134.091 56.8197C134.852 57.8602 135.523 58.964 136.096 60.119C136.256 60.4226 136.789 60.2135 136.669 59.8813C136.213 58.7846 135.611 57.7539 134.882 56.8168C134.164 55.8474 133.344 54.9582 132.436 54.1647C131.575 53.378 130.569 52.767 129.474 52.3661C128.228 51.9479 126.983 52.0969 125.751 52.4491C124.21 52.8873 122.684 53.38 121.169 53.8812C120.911 53.9671 121.017 54.3709 121.28 54.2907L121.275 54.2936Z" fill="#09421A"/>
<path d="M122.455 56.5474C123.117 56.4407 123.763 56.2531 124.379 55.9889C124.427 55.9603 124.462 55.9157 124.48 55.8632C124.497 55.8107 124.495 55.7537 124.474 55.7025C124.452 55.6481 124.41 55.6041 124.357 55.5796C124.304 55.555 124.243 55.5519 124.188 55.5708C123.572 55.7827 122.956 55.9775 122.332 56.1579C122.28 56.1726 122.237 56.207 122.21 56.2536C122.184 56.3003 122.177 56.3554 122.191 56.4071C122.206 56.4587 122.24 56.5025 122.287 56.5292C122.333 56.556 122.388 56.5635 122.44 56.5503L122.455 56.5474Z" fill="#09421A"/>
<path d="M122.827 58.1879C123.305 58.1864 123.783 58.1597 124.259 58.1077C124.292 58.106 124.325 58.0975 124.355 58.0825C124.385 58.0675 124.412 58.0464 124.434 58.0206C124.455 57.9948 124.471 57.9648 124.481 57.9325C124.49 57.9002 124.493 57.8663 124.488 57.8329C124.484 57.7996 124.473 57.7675 124.455 57.7387C124.438 57.7099 124.415 57.685 124.387 57.6656C124.36 57.6462 124.328 57.6327 124.295 57.626C124.263 57.6193 124.229 57.6195 124.196 57.6265C123.737 57.6979 123.276 57.7457 122.812 57.7697C122.757 57.7697 122.704 57.7918 122.665 57.831C122.625 57.8702 122.603 57.9234 122.603 57.9788C122.603 58.0343 122.625 58.0874 122.665 58.1266C122.704 58.1658 122.757 58.1879 122.812 58.1879H122.827Z" fill="#09421A"/>
<path d="M123.672 59.5479C123.814 59.5764 123.957 59.5936 124.102 59.5995H124.488C124.525 59.5991 124.561 59.5909 124.594 59.5755C124.627 59.5601 124.657 59.5379 124.681 59.5102C124.704 59.4826 124.722 59.4502 124.733 59.4152C124.743 59.3801 124.746 59.3433 124.741 59.3071C124.736 59.2709 124.723 59.2361 124.704 59.2052C124.685 59.1742 124.659 59.1477 124.629 59.1274C124.598 59.1071 124.564 59.0935 124.528 59.0875C124.492 59.0815 124.455 59.0832 124.42 59.0926C124.331 59.1174 124.241 59.1365 124.15 59.1498H124.21C124.05 59.1609 123.889 59.1561 123.729 59.1355C123.702 59.1344 123.674 59.1392 123.648 59.1495C123.623 59.1599 123.6 59.1756 123.58 59.1957C123.549 59.2287 123.529 59.2708 123.523 59.3159C123.517 59.3656 123.528 59.4158 123.556 59.4577C123.583 59.4996 123.624 59.5306 123.672 59.545V59.5479Z" fill="#09421A"/>
<path d="M190 63.8274C188.373 65.6832 185.832 66.3849 183.441 66.9921L171.862 69.9392C169.814 70.4604 167.723 70.9874 165.615 70.8328C162.797 70.6294 160.222 69.2375 157.748 67.8771L140.93 58.6263C138.94 57.5351 136.551 56.421 134.506 57.4034C132.902 58.1766 132.092 60.0411 131.943 61.814C131.794 63.5868 132.158 65.3625 132.229 67.141C132.31 68.974 132.078 70.8328 132.418 72.6342C132.759 74.4357 133.85 76.2658 135.617 76.767C137.05 77.1766 138.642 76.6353 140.057 77.1079C141.847 77.7036 142.746 79.6568 144.155 80.9113C144.834 81.5022 145.634 81.9368 146.499 82.1842C147.364 82.4317 148.273 82.486 149.161 82.3433C150.135 82.18 151.083 81.7705 152.068 81.8278C154.385 81.9538 155.792 84.3796 157.705 85.677C158.692 86.3243 159.838 86.6885 161.017 86.7299C162.197 86.7713 163.365 86.4884 164.395 85.9119C165.274 85.4021 166.191 84.6488 167.179 84.8894C167.892 85.0641 168.376 85.72 169.003 86.1066C170.831 87.2322 173.102 85.8746 174.989 84.855C177.67 83.423 180.646 82.6268 183.504 81.5843C187.694 80.0571 191.655 77.9621 195.275 75.3579C196.057 74.7851 196.842 74.1865 197.323 73.3531C197.953 72.2591 197.973 70.9244 197.896 69.6642C197.844 68.954 197.755 68.2122 197.357 67.6193C196.959 67.0265 196.172 66.637 195.516 66.9148" fill="#032C17"/>
<path d="M189.857 63.6868C188.138 65.5398 185.587 66.1756 183.229 66.7541C180.237 67.4873 177.255 68.2491 174.268 68.9995C172.793 69.369 171.324 69.7671 169.837 70.0878C168.378 70.4496 166.871 70.5792 165.372 70.4716C162.548 70.1852 160.005 68.7102 157.571 67.3642C152.202 64.3932 146.824 61.4337 141.438 58.4857C139.292 57.3057 136.509 55.8365 134.109 57.2112C131.972 58.4313 131.465 61.132 131.571 63.386C131.64 64.8725 131.883 66.3417 131.898 67.831C131.912 69.3203 131.8 70.7895 132.006 72.2588C132.307 74.4097 133.57 76.7868 135.896 77.2049C137.239 77.4484 138.662 77.0245 139.974 77.4627C141.002 77.8035 141.735 78.6856 142.4 79.4962C143.136 80.384 143.861 81.269 144.86 81.8704C145.922 82.5026 147.142 82.8204 148.377 82.7869C149.7 82.7497 150.995 82.0337 152.321 82.2141C153.363 82.3631 154.22 83.0476 154.973 83.7378C155.775 84.4738 156.52 85.2758 157.41 85.9059C158.381 86.5808 159.514 86.9869 160.692 87.083C161.878 87.181 163.069 86.9678 164.146 86.4643C165.129 86.0004 166.32 84.7459 167.472 85.4104C167.964 85.6968 168.331 86.135 168.821 86.43C169.312 86.7279 169.873 86.8918 170.447 86.9054C171.713 86.9426 172.933 86.3698 174.027 85.7999C175.219 85.1467 176.442 84.554 177.693 84.0242C179.008 83.5029 180.354 83.0647 181.703 82.6151C184.348 81.7451 186.923 80.6736 189.404 79.4102C190.642 78.7706 191.849 78.0804 193.027 77.3396C194.178 76.6383 195.284 75.8674 196.341 75.0312C197.352 74.2522 198.028 73.1158 198.228 71.8549C198.315 71.2115 198.336 70.5609 198.291 69.9131C198.287 69.2596 198.179 68.6109 197.971 67.9914C197.575 66.9804 196.539 66.1727 195.427 66.5909C195.021 66.7427 195.195 67.3985 195.608 67.2467C196.149 67.0434 196.716 67.3699 197.04 67.8195C197.401 68.3322 197.478 69.0052 197.524 69.6153C197.618 70.884 197.621 72.2616 196.899 73.3672C196.221 74.3982 195.055 75.0856 194.055 75.7787C192.94 76.5424 191.795 77.2546 190.619 77.9152C188.26 79.2493 185.793 80.3827 183.244 81.3034C180.7 82.2199 178.088 82.9502 175.637 84.133C173.692 85.0724 170.966 87.2319 168.861 85.545C168.47 85.1758 168.027 84.8669 167.546 84.6285C167.004 84.4299 166.407 84.4494 165.879 84.6829C165.341 84.9281 164.823 85.2154 164.33 85.5421C163.823 85.8511 163.273 86.0809 162.697 86.2238C161.575 86.4882 160.402 86.4347 159.309 86.0691C158.238 85.7111 157.382 85.0237 156.571 84.2562C155.818 83.543 155.09 82.7783 154.214 82.2113C153.339 81.6254 152.277 81.3856 151.235 81.5382C150.554 81.6385 149.898 81.8618 149.231 81.9879C148.635 82.0981 148.026 82.1097 147.426 82.0222C146.224 81.8499 145.106 81.3027 144.233 80.4585C143.457 79.7081 142.858 78.8002 142.102 78.0326C141.358 77.2227 140.348 76.7073 139.255 76.5806C138.004 76.4517 136.678 76.8068 135.466 76.3343C134.458 75.939 133.748 75.0426 133.295 74.086C132.745 72.9146 132.642 71.6029 132.631 70.3256C132.631 68.8935 132.688 67.4845 132.559 66.061C132.339 63.6438 131.832 60.8084 133.478 58.7406C135.246 56.521 138.144 57.5635 140.24 58.6661C142.818 60.0294 145.378 61.4872 147.945 62.8991C150.559 64.3312 153.174 65.7832 155.795 67.2152C158.175 68.5184 160.558 69.9819 163.184 70.7437C164.496 71.1293 165.866 71.2806 167.231 71.1905C168.659 71.0563 170.071 70.7947 171.453 70.4086C174.317 69.6783 177.181 68.9279 180.045 68.189C181.431 67.831 182.823 67.4816 184.206 67.1064C185.344 66.821 186.456 66.4377 187.528 65.9608C188.538 65.4959 189.439 64.8258 190.175 63.9932C190.341 63.7985 190.069 63.5178 189.888 63.7068L189.857 63.6868Z" fill="#032C17"/>
<path d="M171.891 139.925C168.966 146.584 166.014 153.243 162.983 159.83C159.97 166.383 156.889 172.907 153.664 179.363C150.439 185.818 147.054 192.251 143.502 198.552C141.727 201.714 139.902 204.847 138.029 207.951C137.62 208.694 137.167 209.412 136.674 210.102C136.223 210.667 135.715 211.184 135.159 211.646C133.996 212.63 132.715 213.468 131.347 214.141C130.611 214.507 129.815 214.713 129.056 215.051C128.463 215.306 127.793 215.624 127.512 216.254C127.418 216.476 127.373 216.716 127.379 216.958C127.385 217.199 127.443 217.436 127.548 217.653C127.654 217.87 127.805 218.062 127.991 218.216C128.177 218.37 128.394 218.482 128.627 218.545C128.963 218.601 129.305 218.608 129.643 218.565L131.044 218.502C131.903 218.468 132.762 218.439 133.604 218.422C135.197 218.394 136.792 218.402 138.384 218.468C139.224 218.502 140.064 218.548 140.902 218.606C141.619 218.678 142.34 218.708 143.061 218.694C143.731 218.679 144.396 218.578 145.04 218.394C145.437 218.315 145.786 218.082 146.011 217.746C146.475 216.939 146.547 215.865 146.684 214.965C146.759 214.473 146.825 213.977 146.925 213.49C147.057 212.987 147.26 212.504 147.529 212.058C150.634 206.199 154.403 200.754 158.412 195.481C162.33 190.326 166.412 185.297 170.109 179.976C172.077 177.146 173.95 174.248 175.64 171.232C177.329 168.216 178.79 165.048 179.529 161.649C179.893 159.968 180.102 158.212 180.743 156.608C181.178 155.609 181.732 154.667 182.393 153.801C183.948 151.633 185.773 149.654 187.594 147.709C188.316 146.942 189.046 146.186 189.762 145.418C190.049 145.112 189.587 144.648 189.301 144.954C187.669 146.701 186.01 148.428 184.452 150.244C182.894 152.06 181.285 153.936 180.337 156.113C179.701 157.562 179.454 159.168 179.148 160.712C178.82 162.421 178.341 164.097 177.716 165.721C176.453 168.92 174.68 171.913 172.847 174.823C169.376 180.368 165.401 185.558 161.391 190.721C157.499 195.739 153.624 200.783 150.27 206.187C149.373 207.631 148.513 209.097 147.692 210.586C147.314 211.277 146.893 211.967 146.578 212.688C146.439 213.036 146.342 213.4 146.292 213.771C146.12 214.779 146.026 215.81 145.756 216.801C145.682 217.088 145.599 217.477 145.352 217.66C144.868 218.021 144.006 218.067 143.431 218.116C141.927 218.239 140.401 218.007 138.897 217.935C137.324 217.861 135.751 217.828 134.18 217.838C132.482 217.838 130.786 217.973 129.088 217.993C128.829 218.007 128.575 217.928 128.37 217.77C128.165 217.613 128.023 217.387 127.971 217.133C127.83 216.466 128.32 216.074 128.856 215.79C129.577 215.406 130.376 215.2 131.127 214.882C131.788 214.592 132.427 214.254 133.04 213.871C134.325 213.122 135.503 212.203 136.543 211.139C137.631 209.993 138.367 208.521 139.178 207.169C140.102 205.627 141.015 204.074 141.919 202.513C145.487 196.343 148.881 190.078 152.1 183.716C155.319 177.354 158.43 170.929 161.431 164.441C164.436 157.96 167.322 151.424 170.178 144.877C170.871 143.29 171.561 141.703 172.249 140.114C172.357 139.862 171.988 139.642 171.876 139.896L171.891 139.925Z" fill="#212529"/>
<path d="M187.354 99.6532C183.126 114.139 174.909 127.076 168.414 140.7C167.944 141.689 167.472 142.742 167.589 143.828C167.812 145.91 170 147.13 171.957 147.872C176.622 149.592 181.472 150.763 186.408 151.36C193.617 152.3 201.015 152.305 208.098 150.736C215.18 149.167 222.011 145.976 227.353 141.044C227.766 140.723 228.079 140.291 228.255 139.798C228.332 139.363 228.305 138.915 228.177 138.492C226.427 130.513 224.577 122.511 221.53 114.93C218.483 107.349 214.178 100.143 208.121 94.6612C207.791 94.3748 207.336 94.0512 206.938 94.2517" fill="#09421A"/>
<path d="M187.136 99.5938C185.447 104.961 183.38 110.202 180.95 115.277C178.555 120.352 175.92 125.301 173.32 130.273C172.017 132.771 170.719 135.271 169.468 137.794C168.849 139.043 168.185 140.289 167.666 141.583C167.208 142.729 167.059 143.949 167.62 145.077C168.631 147.114 171.149 147.961 173.139 148.66C175.913 149.629 178.753 150.395 181.637 150.951C187.442 152.114 193.368 152.564 199.282 152.289C204.816 152.003 210.32 150.937 215.47 148.852C217.873 147.89 220.181 146.708 222.366 145.321C223.449 144.628 224.494 143.882 225.502 143.084C226.001 142.689 226.49 142.28 226.972 141.858C227.448 141.479 227.88 141.047 228.258 140.569C228.434 140.303 228.554 140.003 228.607 139.687C228.661 139.372 228.648 139.049 228.57 138.739C228.441 138.026 228.263 137.307 228.106 136.617C227.785 135.177 227.457 133.738 227.121 132.298C226.442 129.434 225.714 126.57 224.887 123.729C223.334 118.408 221.41 113.175 218.821 108.263C216.403 103.681 213.402 99.3647 209.71 95.7102C209.272 95.2749 208.825 94.851 208.361 94.43C207.949 94.0663 207.416 93.7054 206.846 93.9317C206.442 94.092 206.62 94.7536 207.029 94.5904C207.576 94.3727 208.232 95.2291 208.585 95.5641C209.033 95.9918 209.473 96.4272 209.905 96.8701C210.777 97.7752 211.612 98.7165 212.408 99.6941C214.004 101.661 215.453 103.743 216.741 105.923C219.448 110.474 221.51 115.375 223.162 120.398C224.941 125.814 226.256 131.367 227.484 136.929C227.636 137.611 227.817 138.295 227.931 138.983C228.057 139.75 227.728 140.234 227.195 140.738C226.268 141.598 225.293 142.404 224.274 143.153C222.251 144.647 220.09 145.946 217.821 147.031C213.048 149.276 207.935 150.709 202.69 151.272C196.962 151.928 191.128 151.696 185.423 150.88C182.603 150.48 179.81 149.906 177.06 149.161C175.691 148.786 174.331 148.365 172.993 147.887C171.891 147.534 170.834 147.053 169.843 146.455C169.015 145.917 168.242 145.178 167.981 144.195C167.615 142.821 168.388 141.46 168.964 140.26C170.135 137.82 171.358 135.391 172.598 133C175.101 128.145 177.682 123.331 180.082 118.425C182.499 113.601 184.604 108.626 186.383 103.532C186.812 102.266 187.21 100.989 187.566 99.6969C187.573 99.6685 187.575 99.6389 187.572 99.6097C187.568 99.5805 187.558 99.5524 187.544 99.5268C187.514 99.4753 187.465 99.4376 187.408 99.422C187.38 99.4143 187.35 99.4122 187.321 99.416C187.292 99.4197 187.263 99.4292 187.238 99.4438C187.186 99.4733 187.149 99.5222 187.133 99.5795L187.136 99.5938Z" fill="#09421A"/>
<path d="M209.303 107.452L205.463 110.711C205.026 111.043 204.649 111.447 204.348 111.906C204.201 112.137 204.115 112.403 204.099 112.677C204.083 112.951 204.137 113.225 204.257 113.472C204.543 113.945 205.236 114.163 205.66 113.816C204.693 115.587 203.971 117.481 203.515 119.447C203.415 119.879 203.426 120.483 203.856 120.592C204.205 120.675 204.497 120.337 204.695 120.04L206.23 117.711C205.746 118.155 206.159 119.089 206.803 119.18C207.447 119.272 208.063 118.713 208.235 118.078C207.751 118.364 208.166 119.175 208.716 119.292C208.916 119.326 209.12 119.318 209.317 119.267C209.513 119.217 209.696 119.125 209.854 118.998C210.012 118.871 210.141 118.713 210.234 118.532C210.326 118.352 210.379 118.154 210.389 117.952C209.862 118.358 210.317 119.309 210.962 119.412C211.606 119.515 212.236 119.083 212.717 118.625C213.708 117.675 214.489 116.528 215.008 115.257C215.528 113.987 215.775 112.622 215.733 111.25" fill="#F8F9FA"/>
<path d="M209.157 107.306C208.298 107.999 207.439 108.689 206.597 109.379C205.829 109.998 204.93 110.608 204.305 111.384C203.821 111.997 203.544 112.902 203.97 113.627C204.331 114.24 205.211 114.52 205.809 114.085L205.371 113.655C204.836 114.641 204.373 115.665 203.985 116.717C203.794 117.25 203.618 117.79 203.458 118.338C203.287 118.82 203.177 119.321 203.131 119.83C203.113 120.007 203.137 120.185 203.203 120.35C203.269 120.514 203.374 120.66 203.509 120.775C203.668 120.879 203.856 120.925 204.045 120.908C204.233 120.89 204.41 120.809 204.546 120.678C204.936 120.36 205.185 119.85 205.457 119.438L206.494 117.863C206.691 117.562 206.244 117.221 205.995 117.479C205.422 118.08 205.749 119.097 206.482 119.406C207.393 119.79 208.284 118.983 208.53 118.155C208.545 118.095 208.542 118.033 208.522 117.975C208.502 117.917 208.465 117.866 208.416 117.828C208.368 117.791 208.309 117.769 208.248 117.764C208.187 117.759 208.125 117.773 208.072 117.803C207.278 118.358 207.931 119.472 208.725 119.601C208.964 119.63 209.207 119.609 209.438 119.54C209.669 119.471 209.883 119.355 210.067 119.2C210.252 119.045 210.402 118.853 210.51 118.638C210.617 118.422 210.679 118.186 210.692 117.946C210.69 117.885 210.671 117.827 210.637 117.777C210.602 117.727 210.554 117.688 210.498 117.665C210.442 117.641 210.381 117.635 210.321 117.645C210.262 117.656 210.207 117.684 210.162 117.725C209.63 118.192 209.833 119.005 210.32 119.426C211.007 120.022 211.955 119.644 212.582 119.154C214.06 117.994 215.117 116.204 215.658 114.426C215.984 113.398 216.126 112.321 216.077 111.244C216.069 111.16 216.03 111.082 215.968 111.025C215.905 110.969 215.824 110.937 215.74 110.937C215.656 110.937 215.575 110.969 215.512 111.025C215.45 111.082 215.411 111.16 215.403 111.244C215.438 113.153 214.926 115.032 213.929 116.66C213.44 117.497 212.786 118.226 212.007 118.802C211.666 119.028 211.148 119.269 210.761 118.983C210.515 118.796 210.334 118.41 210.601 118.166L210.071 117.946C210.052 118.203 209.947 118.447 209.772 118.637C209.597 118.828 209.363 118.953 209.108 118.994C209.002 119.017 208.892 119.014 208.788 118.985C208.683 118.955 208.588 118.9 208.51 118.825C208.412 118.728 208.223 118.456 208.387 118.341L207.928 117.989C207.794 118.435 207.338 118.994 206.803 118.848C206.439 118.756 206.153 118.221 206.442 117.92L205.947 117.536C205.434 118.309 204.936 119.1 204.406 119.862C204.265 120.065 203.879 120.515 203.784 120.042C203.763 119.668 203.821 119.293 203.956 118.942C204.415 117.213 205.082 115.545 205.944 113.976C206.084 113.718 205.78 113.34 205.505 113.541C205.395 113.624 205.261 113.669 205.123 113.669C204.985 113.669 204.851 113.624 204.741 113.541C204.611 113.43 204.514 113.287 204.46 113.125C204.406 112.964 204.397 112.791 204.434 112.624C204.552 111.903 205.168 111.393 205.689 110.943C206.955 109.843 208.203 108.726 209.458 107.612C209.661 107.435 209.369 107.157 209.171 107.326L209.157 107.306Z" fill="#F8F9FA"/>
<path d="M180.849 42.9575C180.991 44.4095 180.817 45.8749 180.34 47.2535C180.101 47.9377 179.734 48.5704 179.26 49.118C178.845 49.5791 178.114 50.0889 178.266 50.8106C178.324 51.0616 178.477 51.2803 178.693 51.4207C178.825 51.5066 178.933 51.5295 178.979 51.7071C179.008 51.9309 178.984 52.1583 178.91 52.3715C178.786 53.0533 178.714 53.7437 178.696 54.4365C178.667 55.7597 178.804 57.3005 179.689 58.3631C180.64 59.5087 182.241 59.7349 183.616 59.4228C183.974 59.3426 183.822 58.7955 183.464 58.8729C182.284 59.1335 180.912 58.9273 180.105 57.9507C179.297 56.974 179.223 55.3501 179.283 54.0957C179.314 53.4026 179.452 52.7381 179.546 52.0508C179.595 51.7805 179.538 51.502 179.389 51.2718C179.246 51.0713 178.965 51.0169 178.85 50.8106C178.638 50.4412 179.12 50.0402 179.349 49.8111C179.575 49.5875 179.783 49.3462 179.97 49.0894C180.338 48.5714 180.627 48.002 180.829 47.3996C181.29 45.9729 181.431 44.462 181.242 42.9747C181.213 42.7198 180.815 42.7112 180.835 42.9747L180.849 42.9575Z" fill="#212529"/>
<path d="M182.427 48.6342L182.384 48.6686L182.33 48.6915H182.347H182.284H182.31H182.247H182.27L182.212 48.6686H182.235L182.184 48.6314L182.25 48.6801L182.198 48.6428L182.215 48.6571L182.175 48.6085C182.183 48.6178 182.19 48.6285 182.195 48.64L182.169 48.5827C182.179 48.6036 182.186 48.6258 182.189 48.6486V48.5827C182.197 48.6445 182.197 48.707 182.189 48.7688V48.7001C182.185 48.7412 182.175 48.7816 182.161 48.8204L182.187 48.7574C182.18 48.7745 182.171 48.7908 182.161 48.8061L182.201 48.7517L182.178 48.7774L182.229 48.7345C182.222 48.7428 182.212 48.7488 182.201 48.7517L182.264 48.7259H182.247H182.318H182.301H182.37H182.347L182.413 48.7545L182.384 48.7402L182.439 48.7803C182.437 48.7747 182.437 48.7687 182.439 48.7631L182.479 48.8204V48.8061L182.507 48.8691C182.506 48.8644 182.506 48.8594 182.507 48.8548V48.9264C182.507 48.8949 182.507 48.8605 182.507 48.829V48.9006C182.507 48.8543 182.495 48.8089 182.471 48.7688C182.448 48.7286 182.415 48.6951 182.376 48.6715C182.335 48.6475 182.289 48.6349 182.242 48.6349C182.195 48.6349 182.149 48.6475 182.109 48.6715C182.087 48.6861 182.066 48.7024 182.046 48.7202C181.996 48.7725 181.967 48.8422 181.966 48.9149C181.964 48.9742 181.979 49.0327 182.009 49.0839C182.055 49.1645 182.131 49.2241 182.221 49.25C182.268 49.2651 182.318 49.27 182.367 49.2646C182.417 49.2592 182.464 49.2435 182.507 49.2185C182.539 49.2015 182.568 49.1792 182.593 49.1526C182.62 49.1243 182.643 49.0925 182.662 49.0581C182.712 48.9458 182.735 48.823 182.728 48.7001C182.733 48.5594 182.686 48.4218 182.596 48.3135C182.555 48.2753 182.506 48.2478 182.452 48.2333C182.398 48.2189 182.341 48.2178 182.287 48.2304C182.253 48.2371 182.221 48.2507 182.192 48.2705C182.163 48.289 182.137 48.3134 182.118 48.3421C182.097 48.3697 182.08 48.4007 182.069 48.4338V48.491C182.066 48.5208 182.072 48.5507 182.086 48.577C182.104 48.6213 182.137 48.6585 182.178 48.6829C182.213 48.7009 182.251 48.7117 182.29 48.7144C182.348 48.7127 182.405 48.6893 182.447 48.6486L182.427 48.6342Z" fill="#09421A"/>
<path d="M182.043 46.7694L182.19 46.7179L182.278 46.6978H182.316C182.423 46.6864 182.532 46.6864 182.639 46.6978C182.651 46.6953 182.664 46.6953 182.676 46.6978C182.703 46.7022 182.728 46.7079 182.754 46.715C182.805 46.7277 182.856 46.743 182.906 46.7609L182.94 46.778L183.02 46.8181C183.069 46.8439 183.115 46.8754 183.163 46.9041C183.215 46.9324 183.276 46.9413 183.334 46.9291C183.392 46.9169 183.444 46.8844 183.48 46.8375C183.516 46.7906 183.534 46.7323 183.531 46.6731C183.529 46.6139 183.505 46.5577 183.464 46.5145C183.241 46.3259 182.962 46.2153 182.671 46.1995C182.399 46.1813 182.128 46.2409 181.889 46.3713C181.842 46.3977 181.807 46.4402 181.79 46.4908C181.773 46.5414 181.775 46.5965 181.796 46.6457C181.817 46.6949 181.855 46.7347 181.903 46.7575C181.952 46.7803 182.007 46.7846 182.058 46.7694H182.043Z" fill="#09421A"/>
<path d="M180.984 53.3134C181.193 53.297 181.4 53.2557 181.6 53.1903C181.804 53.1248 181.997 53.0282 182.173 52.9039C182.223 52.8719 182.26 52.8217 182.275 52.7637C182.29 52.7057 182.282 52.6441 182.253 52.5917C182.222 52.5407 182.172 52.5038 182.114 52.4888C182.057 52.4738 181.995 52.482 181.943 52.5115L181.694 52.6432L181.56 52.7091C181.56 52.7091 181.497 52.7378 181.545 52.7091L181.474 52.7349C181.298 52.8017 181.116 52.8488 180.93 52.8752C180.881 52.8892 180.838 52.9204 180.81 52.963C180.783 53.0056 180.771 53.0568 180.778 53.1072C180.784 53.1581 180.809 53.2049 180.847 53.2387C180.886 53.2725 180.936 53.2909 180.987 53.2905L180.984 53.3134Z" fill="#09421A"/>
<path d="M187.328 49.5054C187.428 49.3216 187.589 49.1782 187.783 49.0999C187.978 49.0216 188.193 49.013 188.393 49.0758C188.575 49.1746 188.726 49.3207 188.832 49.4987C188.937 49.6767 188.992 49.8799 188.992 50.0868C189.003 50.5039 188.851 50.909 188.568 51.2152C188.424 51.375 188.255 51.5096 188.066 51.6133C187.972 51.6649 187.703 51.8253 187.597 51.7393C187.543 51.686 187.471 51.6561 187.395 51.6561C187.319 51.6561 187.247 51.686 187.193 51.7393C187.141 51.7929 187.111 51.8649 187.111 51.9398C187.111 52.0148 187.141 52.0868 187.193 52.1403C187.625 52.4954 188.172 52.2406 188.576 51.9656C188.997 51.6901 189.321 51.2894 189.501 50.82C189.674 50.3348 189.65 49.8016 189.435 49.3336C189.332 49.0901 189.16 48.8821 188.94 48.735C188.721 48.588 188.463 48.5083 188.198 48.5059C187.663 48.5345 187.053 48.841 186.912 49.388C186.897 49.4431 186.904 49.5019 186.933 49.5516C186.961 49.6013 187.008 49.6377 187.063 49.6529C187.118 49.6681 187.177 49.6608 187.226 49.6326C187.276 49.6044 187.312 49.5576 187.328 49.5025V49.5054Z" fill="#09421A"/>
<path d="M188.104 49.9629C188.055 49.9644 188.006 49.9702 187.958 49.9801C187.909 49.9909 187.863 50.0093 187.82 50.0345C187.747 50.073 187.681 50.1222 187.622 50.1806C187.588 50.2171 187.556 50.2564 187.528 50.298C187.5 50.3365 187.478 50.3789 187.462 50.424C187.454 50.454 187.449 50.4847 187.448 50.5156C187.445 50.5269 187.445 50.5387 187.448 50.55C187.45 50.5998 187.463 50.6486 187.485 50.6932C187.499 50.7184 187.516 50.7415 187.537 50.762C187.586 50.8103 187.653 50.8371 187.723 50.8364C187.778 50.8378 187.831 50.8208 187.875 50.7881C187.92 50.7554 187.951 50.7089 187.966 50.656C187.969 50.6293 187.969 50.6025 187.966 50.5758C187.971 50.5483 187.971 50.5202 187.966 50.4927C187.956 50.4473 187.933 50.4056 187.9 50.3724C187.88 50.3546 187.858 50.3392 187.834 50.3266C187.801 50.3063 187.762 50.2955 187.723 50.2951C187.682 50.2954 187.643 50.3062 187.608 50.3266C187.575 50.3457 187.547 50.3734 187.528 50.4068C187.508 50.4406 187.497 50.4791 187.496 50.5185C187.498 50.5211 187.499 50.5241 187.499 50.5271C187.499 50.5301 187.498 50.5331 187.496 50.5357V50.4755V50.5156C187.491 50.5372 187.491 50.5599 187.496 50.5815C187.496 50.5815 187.496 50.6073 187.496 50.6187V50.5557V50.5758V50.5099C187.498 50.5165 187.498 50.5234 187.496 50.53L187.519 50.4727L187.663 50.3639H187.726H187.789L187.846 50.3896L187.895 50.4269L187.932 50.4755C187.932 50.4755 187.932 50.4756 187.932 50.4612L187.955 50.5156C187.955 50.5156 187.955 50.5156 187.955 50.4956V50.5586V50.5185V50.5815C187.953 50.5692 187.953 50.5566 187.955 50.5443L187.929 50.5987C187.946 50.5646 187.966 50.532 187.989 50.5013L187.955 50.55C187.986 50.5073 188.024 50.4696 188.066 50.4383L188.021 50.4727C188.053 50.4464 188.089 50.4243 188.127 50.4068C188.164 50.3896 188.195 50.3667 188.233 50.3495L188.187 50.3696C188.212 50.364 188.236 50.3522 188.255 50.3352C188.276 50.3196 188.294 50.3002 188.307 50.2779C188.327 50.2383 188.335 50.1933 188.33 50.1491C188.323 50.1015 188.299 50.0579 188.263 50.0264C188.227 49.9949 188.18 49.9774 188.132 49.9772L188.104 49.9629Z" fill="#09421A"/>
<path d="M187.792 48.5484C186.915 48.0844 186.36 47.1851 185.904 46.3116C185.449 45.4381 184.971 44.4815 184.558 43.5392C184.146 42.597 183.768 41.5917 183.928 40.5807C183.285 42.234 182.194 43.6758 180.778 44.745C180.543 44.1366 180.445 43.4838 180.491 42.8332C180.538 42.1826 180.728 41.5503 181.047 40.9816C181.702 39.8511 182.69 38.9508 183.877 38.404C184.146 38.2723 184.51 38.1749 184.707 38.404C185.527 38.0429 186.416 37.8668 187.311 37.8885C189.018 37.906 190.678 38.449 192.065 39.4437C193.612 40.5578 194.717 42.1674 195.788 43.7397C196.121 44.2038 196.421 44.6909 196.685 45.1975C196.945 45.7302 197.126 46.2973 197.375 46.8328C197.744 47.6119 198.257 48.3164 198.649 49.0868C199.042 49.8573 199.305 50.7365 199.122 51.5814C198.904 52.5752 198.114 53.3342 197.323 53.9729C194.875 55.9634 191.982 57.4899 188.863 57.9653C188.712 58.0007 188.555 57.9947 188.408 57.9481C188.121 57.825 188.044 57.4469 188.027 57.129C187.95 55.6907 188.046 54.2484 188.313 52.833C188.335 52.6709 188.382 52.5134 188.453 52.3661C188.586 52.1663 188.751 51.9893 188.94 51.842C189.568 51.2692 189.969 50.3728 189.779 49.5365C189.59 48.7002 188.688 48.0329 187.866 48.2677" fill="#09421A"/>
<path d="M187.9 48.3399C187.777 48.2664 187.661 48.1845 187.55 48.0954C186.628 47.3551 186.103 46.1195 185.609 45.0893C185.277 44.4133 184.956 43.726 184.675 43.0243C184.395 42.3239 184.127 41.4808 184.237 40.6716L184.237 40.6672C184.251 40.5887 184.235 40.5079 184.192 40.4406C184.149 40.3734 184.083 40.3244 184.006 40.3033C183.929 40.2822 183.847 40.2905 183.776 40.3265C183.705 40.3626 183.65 40.4238 183.621 40.4982C183.051 41.9386 182.131 43.2119 180.948 44.2051C180.841 44.295 180.731 44.3826 180.62 44.4678L181.093 44.6597C181.036 44.5106 180.987 44.3589 180.948 44.2051C180.82 43.7094 180.783 43.1933 180.841 42.682C180.917 42.0121 181.152 41.3703 181.528 40.8104C181.87 40.2905 182.296 39.8308 182.788 39.45C183.031 39.2602 183.288 39.088 183.556 38.9345C183.722 38.8342 184.283 38.439 184.481 38.6137C184.534 38.6615 184.6 38.6918 184.671 38.7005C184.741 38.7092 184.813 38.6959 184.876 38.6624C186.308 38.018 188.012 38.0896 189.496 38.5192C190.928 38.9671 192.213 39.791 193.219 40.9049C194.23 42.0362 195.134 43.2586 195.92 44.5566C196.315 45.2443 196.655 45.9626 196.936 46.7046C197.277 47.4223 197.66 48.1195 198.082 48.7924C198.505 49.4398 198.757 50.1837 198.815 50.9548C198.795 51.6907 198.487 52.3893 197.956 52.8995C196.917 53.9398 195.736 54.827 194.448 55.5344C193.158 56.3042 191.771 56.8976 190.323 57.2986C189.991 57.3874 189.659 57.4647 189.321 57.5277C189.143 57.5694 188.964 57.601 188.782 57.6222C188.556 57.6394 188.47 57.5965 188.413 57.3788C188.348 57.0151 188.326 56.6449 188.35 56.2761C188.35 55.8351 188.35 55.394 188.387 54.9558C188.422 54.4518 188.476 53.9506 188.548 53.4522C188.611 53.0283 188.619 52.5672 188.943 52.2551C189.481 51.7281 189.96 51.1925 190.106 50.4249C190.366 49.0531 189.246 47.581 187.78 47.9075C187.658 47.9342 187.584 48.0067 187.55 48.0954C187.459 48.3298 187.647 48.6771 187.969 48.592C188.651 48.4087 189.329 48.9414 189.478 49.603C189.647 50.3677 189.232 51.1295 188.685 51.6336C188.439 51.8321 188.243 52.0851 188.112 52.3725C187.978 52.7999 187.891 53.2407 187.852 53.6871C187.73 54.5916 187.675 55.5039 187.688 56.4165C187.688 56.975 187.623 57.8485 188.184 58.1864C188.496 58.3783 188.874 58.2953 189.215 58.238C189.613 58.1693 190.008 58.0833 190.398 57.9831C191.913 57.583 193.367 56.9789 194.72 56.1874C196.082 55.4471 197.335 54.5218 198.443 53.4379C198.977 52.9237 199.348 52.2631 199.508 51.539C199.615 50.7912 199.504 50.0283 199.187 49.3423C198.812 48.5723 198.397 47.8219 197.944 47.0941C197.546 46.3637 197.317 45.559 196.925 44.8258C196.513 44.1031 196.057 43.4068 195.559 42.7408C195.102 42.0805 194.611 41.4439 194.09 40.8333C192.957 39.4826 191.469 38.4757 189.793 37.9263C188.101 37.4022 186.191 37.3678 184.555 38.1039L184.95 38.1555C184.34 37.6227 183.518 38.1927 182.946 38.5507C182.286 38.9713 181.705 39.5033 181.227 40.123C180.219 41.4519 179.838 43.2735 180.474 44.8344C180.54 45.0005 180.76 45.1666 180.944 45.0262C182.419 43.9035 183.558 42.3972 184.237 40.6716L184.237 40.6701L183.621 40.5011C183.392 42.188 184.306 43.8119 185.033 45.2754C185.675 46.5556 186.334 48.0678 187.671 48.7581C187.726 48.7847 187.789 48.7897 187.847 48.772C187.905 48.7542 187.954 48.7151 187.985 48.6624C188.015 48.6098 188.025 48.5476 188.011 48.4882C187.998 48.4289 187.962 48.377 187.912 48.3428L187.9 48.3399Z" fill="#212529"/>
<path d="M184.675 43.0243C184.956 43.726 185.277 44.4133 185.609 45.0893C186.103 46.1195 186.628 47.3551 187.55 48.0954C187.584 48.0067 187.658 47.9342 187.78 47.9075C189.246 47.581 190.366 49.0531 190.106 50.4249C189.96 51.1925 189.481 51.7281 188.943 52.2551C188.619 52.5672 188.611 53.0283 188.548 53.4522C188.476 53.9506 188.422 54.4518 188.387 54.9558C188.35 55.394 188.35 55.8351 188.35 56.2761C188.326 56.6449 188.348 57.0151 188.413 57.3788C188.47 57.5965 188.556 57.6394 188.782 57.6222C188.964 57.601 189.143 57.5694 189.321 57.5277C189.659 57.4647 189.991 57.3874 190.323 57.2986C191.771 56.8976 193.158 56.3042 194.448 55.5344C195.736 54.827 196.917 53.9398 197.956 52.8995C198.487 52.3893 198.795 51.6907 198.815 50.9548C198.757 50.1837 198.505 49.4398 198.082 48.7924C197.66 48.1195 197.277 47.4223 196.936 46.7046C196.655 45.9626 196.315 45.2443 195.92 44.5566C195.134 43.2586 194.23 42.0362 193.219 40.9049C192.213 39.791 190.928 38.9671 189.496 38.5192C188.012 38.0896 186.308 38.018 184.876 38.6624C184.813 38.6959 184.741 38.7092 184.671 38.7005C184.6 38.6918 184.534 38.6615 184.481 38.6137C184.283 38.439 183.722 38.8342 183.556 38.9345C183.288 39.088 183.031 39.2602 182.788 39.45C182.296 39.8308 181.87 40.2905 181.528 40.8104C181.152 41.3703 180.917 42.0121 180.841 42.682C180.783 43.1933 180.82 43.7094 180.948 44.2051C182.131 43.2119 183.051 41.9386 183.621 40.4982C183.65 40.4238 183.705 40.3626 183.776 40.3265C183.847 40.2905 183.929 40.2822 184.006 40.3033C184.083 40.3244 184.149 40.3734 184.192 40.4406C184.235 40.5079 184.251 40.5887 184.237 40.6672V40.6701L184.237 40.6716C184.127 41.4808 184.395 42.3239 184.675 43.0243Z" fill="#212529"/>
<path d="M196.069 55.3392C196.123 55.3392 196.176 55.3174 196.214 55.2788C196.253 55.2401 196.275 55.1877 196.275 55.133C196.275 55.0783 196.253 55.0258 196.214 54.9872C196.176 54.9485 196.123 54.9268 196.069 54.9268C196.014 54.9268 195.962 54.9485 195.923 54.9872C195.884 55.0258 195.863 55.0783 195.863 55.133C195.863 55.1877 195.884 55.2401 195.923 55.2788C195.962 55.3174 196.014 55.3392 196.069 55.3392V55.3392Z" fill="#09421A"/>
<path d="M187.379 65.2504C186.984 63.962 186.515 62.6977 185.973 61.4641C185.706 60.8598 185.4 60.267 185.113 59.6827C184.919 59.3047 184.558 58.6087 184.014 58.8235C183.959 58.8495 183.913 58.8925 183.884 58.9461C183.855 58.9997 183.844 59.0611 183.852 59.1215C183.861 59.1818 183.888 59.238 183.93 59.2818C183.973 59.3255 184.028 59.3546 184.088 59.3648C184.326 59.3877 184.429 59.7028 184.526 59.8861C184.658 60.1266 184.784 60.3672 184.907 60.6107C185.162 61.1147 185.406 61.6245 185.646 62.1315C186.148 63.1854 186.596 64.2614 186.989 65.3592C187.081 65.6084 187.476 65.5082 187.393 65.2475L187.379 65.2504Z" fill="#212529"/>
<path d="M195.462 61.3648C194.657 60.415 193.93 59.4017 193.288 58.3347C192.707 57.3009 192.279 56.1887 192.016 55.0325C191.925 54.6401 191.306 54.8062 191.409 55.2014C191.721 56.3984 192.203 57.5443 192.841 58.6039C193.532 59.688 194.309 60.7148 195.164 61.6741C195.347 61.8918 195.645 61.5825 195.473 61.3648H195.462Z" fill="#212529"/>
<path d="M195.304 60.125L187.534 62.8573C186.855 63.0465 186.22 63.3666 185.664 63.7996C185.137 64.2664 184.805 65.0168 185.016 65.6841C185.137 65.9206 185.21 66.1784 185.231 66.443C185.189 66.6512 185.09 66.8436 184.945 66.9987C183.009 69.5419 181.27 72.2799 180.228 75.3043C179.185 78.3288 178.879 81.6682 179.795 84.7299C180.998 88.7395 184.203 92.0933 184.578 96.2604C184.707 97.6753 184.544 99.2677 185.475 100.342C186.085 101.052 187.041 101.353 187.966 101.487C191.085 101.98 194.244 101.052 197.217 99.9808C200.865 98.6751 204.427 97.1417 207.883 95.3898C208.625 95.0146 209.392 94.5993 209.865 93.9148C210.936 92.3711 210.088 90.2775 209.275 88.582C207.603 85.1127 206.141 81.5463 204.896 77.902C203.149 72.784 201.814 67.4827 199.288 62.7026C198.672 61.5398 197.804 60.2882 196.495 60.1508" fill="#032C17"/>
<path d="M195.246 59.915C193.176 60.5852 191.119 61.2898 189.06 61.9943C188.131 62.2714 187.219 62.6013 186.328 62.9824C185.954 63.1367 185.617 63.3668 185.337 63.6581C185.057 63.9495 184.84 64.2957 184.701 64.6751C184.591 65.0334 184.591 65.4165 184.701 65.7748C184.799 65.965 184.865 66.1702 184.896 66.382C184.896 66.6226 184.65 66.8431 184.509 67.0264C183.936 67.7902 183.388 68.5634 182.865 69.3463C181.81 70.9298 180.921 72.618 180.213 74.3841C178.81 77.9613 178.403 82.0253 179.766 85.6798C180.952 88.8589 183.203 91.5912 184.02 94.9192C184.195 95.7628 184.291 96.621 184.306 97.4825C184.303 98.3084 184.463 99.1268 184.776 99.8911C185.555 101.535 187.534 101.896 189.175 101.968C191.18 102.065 193.184 101.644 195.115 101.06C197.12 100.45 199.076 99.6878 201.009 98.8944C202.893 98.1211 204.752 97.2963 206.582 96.4056C208.095 95.6724 210.082 94.9736 210.592 93.1692C211.059 91.5053 210.217 89.7496 209.509 88.2832C208.606 86.4101 207.764 84.5084 206.983 82.5781C205.462 78.8119 204.291 74.9369 203.028 71.079C202.421 69.2317 201.774 67.3959 201.023 65.603C200.634 64.6808 200.218 63.77 199.76 62.8793C199.408 62.1254 198.948 61.4268 198.394 60.8058C197.895 60.2643 197.222 59.9147 196.492 59.8177C196.074 59.7632 196.08 60.4191 196.492 60.4735C198.122 60.6797 198.944 62.6846 199.568 63.9648C200.39 65.6884 201.113 67.4575 201.734 69.2632C202.994 72.8404 204.025 76.492 205.322 80.052C205.992 81.8888 206.717 83.7027 207.496 85.4937C207.891 86.3968 208.298 87.2942 208.716 88.1858C209.115 88.9679 209.459 89.7765 209.747 90.6059C209.991 91.3878 210.145 92.2384 209.907 93.0375C209.67 93.8366 209.022 94.3664 208.315 94.7559C206.634 95.675 204.908 96.5085 203.143 97.2534C201.312 98.0667 199.457 98.8085 197.578 99.493C195.739 100.216 193.836 100.76 191.893 101.117C190.946 101.271 189.986 101.322 189.029 101.269C188.149 101.217 187.199 101.097 186.417 100.662C184.85 99.8023 185.048 97.9006 184.925 96.3655C184.658 93.0891 182.742 90.351 181.302 87.487C180.481 85.9587 179.935 84.2981 179.689 82.5809C179.479 80.717 179.61 78.8304 180.076 77.0133C180.958 73.4304 182.925 70.2456 185.119 67.3214C185.381 67.0549 185.537 66.7031 185.56 66.3305C185.54 65.9209 185.248 65.5915 185.274 65.1848C185.334 64.2884 186.173 63.7528 186.915 63.4378C187.794 63.0683 188.714 62.7762 189.613 62.4526L192.554 61.3929C193.491 61.0549 194.419 60.6998 195.35 60.3475C195.61 60.2501 195.507 59.8377 195.235 59.9265L195.246 59.915Z" fill="#032C17"/>
<path d="M202.427 139.634H202.75C202.802 139.633 202.851 139.612 202.888 139.576C202.906 139.558 202.92 139.537 202.93 139.513C202.94 139.49 202.945 139.464 202.945 139.439C202.945 139.413 202.94 139.388 202.931 139.364C202.921 139.341 202.906 139.319 202.888 139.301C202.851 139.265 202.802 139.245 202.75 139.244H202.427C202.375 139.245 202.326 139.266 202.289 139.301C202.271 139.319 202.257 139.341 202.247 139.364C202.237 139.388 202.232 139.413 202.232 139.439C202.234 139.49 202.254 139.539 202.289 139.576C202.326 139.612 202.375 139.632 202.427 139.634V139.634Z" fill="#09421A"/>
<path d="M203.999 138.794C206.888 144.316 209.787 149.832 212.697 155.342C213.912 157.634 215.02 160.094 216.624 162.164C218.079 164.04 220.061 165.427 222.484 165.564C225.061 165.71 227.55 164.496 229.644 163.11C231.935 161.606 233.997 159.782 236.088 158.034C240.364 154.463 244.537 150.766 248.523 146.865C252.5 143.009 256.245 138.922 259.742 134.627C260.612 133.55 261.464 132.458 262.296 131.35C263.05 130.345 263.729 129.174 264.708 128.363C266.727 126.693 269.511 128.564 271.713 127.361C272.707 126.817 273.283 125.671 272.859 124.577C272.435 123.483 271.284 122.744 270.373 122.079C268.391 120.649 266.194 119.545 263.863 118.809C262.786 118.456 261.664 117.984 260.584 118.577C259.587 119.124 259.381 120.247 258.848 121.154C257.703 123.136 255.884 124.697 254.062 126.055C252.138 127.487 250.096 128.758 248.085 130.064C245.525 131.726 242.954 133.369 240.372 134.996C237.757 136.654 235.139 138.311 232.519 139.968C231.232 140.787 229.946 141.608 228.661 142.431C227.582 143.127 226.393 143.757 225.583 144.783C224.97 145.553 224.577 146.607 225.233 147.478C225.271 147.538 225.328 147.585 225.395 147.611C225.461 147.638 225.535 147.642 225.604 147.623C225.673 147.604 225.734 147.564 225.779 147.508C225.824 147.452 225.849 147.383 225.852 147.312C226.093 144.633 225.891 141.933 225.253 139.321C225.15 138.903 224.509 139.08 224.609 139.498C225.227 142.054 225.42 144.693 225.182 147.312L225.8 147.143C225.099 146.206 226.049 145.138 226.751 144.516C227.273 144.097 227.824 143.715 228.398 143.371L230.237 142.194C232.728 140.599 235.225 139.014 237.726 137.436C242.489 134.423 247.257 131.422 251.957 128.3C253.808 127.13 255.544 125.788 257.141 124.29C257.919 123.545 258.609 122.713 259.198 121.81C259.482 121.369 259.727 120.905 259.931 120.421C260.143 119.92 260.337 119.467 260.824 119.17C261.054 119.035 261.309 118.952 261.573 118.924C261.838 118.897 262.105 118.927 262.357 119.012C262.943 119.18 263.526 119.362 264.107 119.559C265.188 119.92 266.242 120.363 267.257 120.882C268.336 121.463 269.365 122.133 270.333 122.884C271.149 123.5 272.51 124.382 272.338 125.576C272.152 126.874 270.619 127.215 269.525 127.192C268.38 127.166 267.214 126.888 266.057 127.077C264.9 127.266 264.021 128.031 263.31 128.936C262.52 129.941 261.79 130.992 261.019 132.009C257.726 136.266 254.176 140.318 250.388 144.141C246.633 147.959 242.684 151.588 238.625 155.082C236.594 156.829 234.538 158.547 232.459 160.237C230.454 161.881 228.298 163.528 225.82 164.418C223.495 165.252 220.992 165.177 218.947 163.679C217.105 162.325 215.934 160.243 214.874 158.261C212.059 153.011 209.281 147.741 206.465 142.491L204.374 138.593C204.246 138.353 203.882 138.568 204.008 138.808L203.999 138.794Z" fill="#212529"/>
<path d="M196.604 64.6523C197.839 63.1229 200.222 63.4866 202.123 63.9964C204.79 64.7124 207.456 65.4284 210.12 66.1645C216.506 67.9373 223.114 69.9794 227.937 74.5303C230.408 76.8645 232.385 80.0751 232.098 83.4604C231.757 87.4872 228.323 90.9584 228.724 94.9795C228.879 96.5432 229.609 98.1757 228.979 99.6135C228.444 100.839 227.089 101.487 226.313 102.575C225.033 104.371 225.531 107.037 224.151 108.758C223.051 110.127 221.135 110.448 219.568 111.227C218.15 111.929 216.962 113.046 215.513 113.682C214.063 114.317 212.122 114.317 211.162 113.06C210.269 111.894 210.535 110.064 209.475 109.05C208.928 108.526 208.106 108.311 207.685 107.684C207.112 106.825 207.568 105.662 208.032 104.731C211.269 98.2018 214.1 91.4786 216.509 84.6002C216.796 83.8155 217.205 82.9019 218.027 82.7988C217.437 83.7324 216.022 83.214 215.063 82.6441C210.648 79.9944 205.732 78.2878 200.625 77.6321" fill="#032C17"/>
<path d="M196.779 64.8158C197.924 63.4554 199.929 63.736 201.479 64.1083C203.707 64.6439 205.912 65.317 208.12 65.9299C212.001 67.001 215.916 68.0636 219.619 69.6674C223.171 71.2054 226.651 73.2961 229.137 76.3177C230.387 77.7719 231.25 79.5186 231.645 81.3956C231.992 83.2801 231.531 85.0988 230.809 86.8373C230.087 88.5757 229.197 90.1538 228.687 91.9266C228.429 92.7767 228.306 93.6619 228.323 94.5501C228.355 95.584 228.67 96.5749 228.802 97.5945C228.928 98.5425 228.802 99.4418 228.16 100.172C227.587 100.822 226.865 101.318 226.298 101.962C225.09 103.351 225.075 105.187 224.611 106.877C224.417 107.724 223.953 108.485 223.288 109.045C222.601 109.589 221.753 109.904 220.943 110.208C220.062 110.522 219.216 110.924 218.417 111.408C217.592 111.926 216.818 112.522 215.962 112.994C214.662 113.71 212.508 114.194 211.468 112.765C210.982 112.098 210.896 111.219 210.675 110.445C210.492 109.642 210.028 108.931 209.366 108.441C208.636 107.928 207.745 107.627 207.834 106.565C207.917 105.559 208.556 104.597 208.98 103.701C209.953 101.692 210.888 99.6662 211.783 97.6232C213.597 93.4627 215.258 89.2373 216.764 84.947C217.007 84.2596 217.288 83.2773 218.124 83.1398L217.718 82.6128C217.176 83.4004 215.842 82.6787 215.243 82.3264C214.166 81.6906 213.069 81.0949 211.938 80.5593C208.367 78.8641 204.551 77.7439 200.631 77.2399C200.144 77.1769 200.15 77.9416 200.631 78.0046C203.29 78.3505 205.903 78.9813 208.427 79.8863C209.675 80.3343 210.898 80.8496 212.09 81.43C212.697 81.7278 213.298 82.0429 213.891 82.3751C214.404 82.6615 214.9 82.9937 215.432 83.2343C216.377 83.6754 217.649 83.9704 218.339 82.9622C218.534 82.6758 218.21 82.3894 217.933 82.4352C217.073 82.5784 216.604 83.3746 216.3 84.1193C215.868 85.1876 215.524 86.2988 215.123 87.3785C214.3 89.601 213.428 91.8035 212.508 93.9859C211.578 96.1988 210.603 98.3945 209.581 100.573C209.081 101.644 208.569 102.712 208.046 103.775C207.602 104.677 207.041 105.62 207.009 106.653C206.978 107.687 207.602 108.306 208.415 108.796C208.822 108.999 209.177 109.293 209.452 109.655C209.665 110.01 209.819 110.397 209.91 110.801C210.125 111.625 210.263 112.519 210.77 113.215C211.017 113.547 211.329 113.826 211.686 114.036C212.043 114.246 212.438 114.383 212.849 114.438C214.854 114.747 216.518 113.653 218.104 112.573C218.928 111.998 219.814 111.518 220.745 111.141C221.615 110.846 222.458 110.474 223.262 110.03C224.05 109.562 224.673 108.862 225.047 108.025C225.374 107.169 225.605 106.28 225.737 105.373C225.906 104.485 226.104 103.572 226.628 102.813C227.152 102.054 227.925 101.57 228.538 100.923C229.23 100.231 229.619 99.2941 229.621 98.3163C229.621 97.2222 229.251 96.1768 229.119 95.0971C228.887 93.1954 229.581 91.3739 230.342 89.6554C231.104 87.937 232.038 86.1613 232.364 84.251C232.663 82.2892 232.33 80.2832 231.413 78.523C229.615 74.8885 226.155 72.2422 222.647 70.3748C219.015 68.4416 215.06 67.2244 211.11 66.116C208.789 65.4726 206.461 64.8473 204.128 64.2401C202.306 63.7647 200.33 63.0515 198.42 63.3809C197.649 63.4987 196.946 63.8914 196.441 64.4864C196.255 64.7127 196.575 65.0392 196.767 64.81L196.779 64.8158Z" fill="#032C17"/>
<path d="M182.381 70.1623C181.628 72.2673 180.6 74.2607 179.804 76.3457C179.039 78.319 178.34 80.5272 178.538 82.6723C178.544 82.7327 178.573 82.7886 178.618 82.8291C178.663 82.8697 178.722 82.8921 178.783 82.8921C178.843 82.8921 178.902 82.8697 178.947 82.8291C178.992 82.7886 179.021 82.7327 179.028 82.6723C179.061 81.5846 179.194 80.5023 179.426 79.4389C179.675 78.3938 179.999 77.3679 180.394 76.3686C181.175 74.3294 182.112 72.359 182.791 70.2711C182.874 70.0162 182.481 69.9131 182.393 70.1623H182.381Z" fill="#F8F9FA"/>
<path d="M195.327 68.4812C194.739 70.3998 194.914 72.4712 195.816 74.2637C196.716 76.048 198.314 77.3224 200.13 78.0957C201.173 78.5326 202.27 78.8302 203.392 78.9807C203.724 79.0265 203.87 78.5253 203.532 78.4709C201.198 78.1072 198.867 77.2136 197.254 75.4207C196.451 74.4993 195.89 73.3923 195.622 72.1997C195.354 71.0071 195.387 69.7665 195.719 68.59C195.726 68.5643 195.728 68.5374 195.725 68.5108C195.722 68.4843 195.713 68.4587 195.7 68.4354C195.687 68.4121 195.669 68.3917 195.648 68.3752C195.627 68.3587 195.603 68.3466 195.577 68.3394C195.551 68.3323 195.524 68.3303 195.498 68.3335C195.471 68.3368 195.446 68.3453 195.423 68.3584C195.399 68.3716 195.379 68.3892 195.362 68.4103C195.346 68.4313 195.334 68.4554 195.327 68.4812V68.4812Z" fill="#F8F9FA"/>
<path d="M204.709 78.3651L204.574 78.8778C204.56 78.9369 204.568 78.9991 204.597 79.0525C204.628 79.1037 204.677 79.1415 204.735 79.1584C204.794 79.1726 204.856 79.1645 204.909 79.1355C204.961 79.1054 205 79.056 205.015 78.9981L205.107 78.474C205.119 78.4207 205.112 78.3649 205.087 78.3164C205.074 78.293 205.055 78.2725 205.034 78.2563C205.012 78.24 204.987 78.2283 204.961 78.2219C204.909 78.2078 204.853 78.215 204.806 78.2418C204.758 78.2686 204.724 78.3129 204.709 78.3651Z" fill="#F8F9FA"/>
<path d="M205.594 79.2528C205.663 79.2528 205.728 79.2257 205.776 79.1773C205.825 79.129 205.852 79.0634 205.852 78.9951C205.852 78.9267 205.825 78.8611 205.776 78.8128C205.728 78.7645 205.663 78.7373 205.594 78.7373C205.526 78.7373 205.46 78.7645 205.412 78.8128C205.364 78.8611 205.336 78.9267 205.336 78.9951C205.336 79.0634 205.364 79.129 205.412 79.1773C205.46 79.2257 205.526 79.2528 205.594 79.2528V79.2528Z" fill="#F8F9FA"/>
<path d="M216.801 83.9761C217.272 82.7889 217.97 81.7044 218.854 80.7827C218.88 80.7403 218.891 80.6902 218.884 80.6409C218.878 80.5916 218.854 80.5461 218.817 80.5123C218.781 80.4784 218.734 80.4584 218.684 80.4554C218.634 80.4525 218.585 80.467 218.545 80.4963C217.596 81.4553 216.867 82.6095 216.408 83.8787C216.32 84.1221 216.695 84.2224 216.795 83.9847L216.801 83.9761Z" fill="#F8F9FA"/>
<path d="M216.294 81.6676L217.325 80.5221C217.358 80.4831 217.374 80.4334 217.372 80.3826C217.37 80.3319 217.349 80.2839 217.313 80.248C217.277 80.2121 217.229 80.191 217.178 80.1887C217.128 80.1864 217.078 80.2031 217.039 80.2357L216.019 81.3813C216 81.3997 215.984 81.4219 215.974 81.4465C215.963 81.4712 215.958 81.4977 215.958 81.5245C215.958 81.5512 215.963 81.5777 215.974 81.6024C215.984 81.627 216 81.6492 216.019 81.6676C216.037 81.6874 216.06 81.7032 216.084 81.714C216.109 81.7248 216.135 81.7304 216.162 81.7304C216.189 81.7304 216.216 81.7248 216.241 81.714C216.265 81.7032 216.287 81.6874 216.306 81.6676H216.294Z" fill="#F8F9FA"/>
<path d="M146.031 214.533L138.043 214.453C136.998 214.453 135.858 214.398 135.062 213.717C134.756 213.456 134.472 213.095 134.171 212.814C133.29 213.44 132.361 213.995 131.393 214.476C130.428 214.951 129.34 215.163 128.429 215.733C128.346 215.783 128.266 215.837 128.188 215.896C127.962 216.075 127.798 216.321 127.721 216.599C127.644 216.877 127.657 217.173 127.759 217.443C127.861 217.713 128.046 217.944 128.287 218.102C128.528 218.26 128.814 218.337 129.102 218.322C133.39 218.058 137.691 218.097 141.973 218.439C142.927 218.514 144.677 218.399 145.507 217.93C146.026 217.643 146.255 215.948 146.467 214.553C146.318 214.533 146.172 214.533 146.031 214.533Z" fill="#09421A"/>
<path d="M271.55 127.087C271.804 126.96 272.028 126.782 272.211 126.565C272.394 126.348 272.53 126.096 272.613 125.824C272.919 124.679 272.04 123.819 271.221 123.155C268.145 120.681 265.699 119.669 262.319 118.687C261.801 118.54 261.247 118.595 260.769 118.842C260.29 119.088 259.923 119.507 259.742 120.013C259.65 120.254 259.547 120.489 259.435 120.723C262.094 121.402 264.671 122.369 267.119 123.608C267.428 123.736 267.701 123.938 267.915 124.195C268.104 124.524 268.203 124.898 268.202 125.277C268.265 125.993 268.331 126.709 268.397 127.422C269.496 127.531 270.576 127.617 271.55 127.087V127.087Z" fill="#09421A"/>
<path d="M110.119 3.63771H4.02985C3.11834 3.63771 2.24417 3.9998 1.59964 4.64433C0.955111 5.28886 0.593018 6.16303 0.593018 7.07454V10.225H113.565V7.07454C113.565 6.62248 113.475 6.17487 113.302 5.75733C113.129 5.3398 112.875 4.96054 112.555 4.64129C112.235 4.32203 111.855 4.06906 111.437 3.89685C111.019 3.72464 110.571 3.63658 110.119 3.63771V3.63771Z" fill="#09421A"/>
<path d="M0.593018 99.1981C0.593018 100.11 0.955111 100.984 1.59964 101.628C2.24417 102.273 3.11834 102.635 4.02985 102.635H25.2866C17.6053 92.1125 12.2811 79.9375 8.69821 67.3874C4.67712 53.2878 1.96489 37.1232 0.593018 22.5195" fill="#09421A"/>
<path d="M0.020548 99.1977C0.0289852 100.031 0.292247 100.843 0.775004 101.523C1.25776 102.202 1.93691 102.718 2.72132 103.001C3.27669 103.175 3.85828 103.251 4.43974 103.224H25.3042C25.7109 103.224 26.0746 102.718 25.8054 102.348C22.6316 97.9683 19.8267 93.3327 17.4195 88.4891C15.0063 83.6343 12.9307 78.619 11.2074 73.4787C9.4661 68.3235 8.057 63.0594 6.82261 57.761C5.53666 52.2477 4.46265 46.6858 3.55476 41.0981C2.65736 35.5877 1.92894 30.0506 1.3695 24.4867C1.30077 23.828 1.23776 23.1693 1.17475 22.5105C1.10601 21.7716 -0.0596449 21.763 0.0119557 22.5105C0.533208 28.0667 1.21962 33.6039 2.07119 39.1219C2.9304 44.7755 3.9815 50.4033 5.22162 55.9853C6.42165 61.3639 7.79924 66.711 9.48042 71.9579C11.1435 77.1546 13.1498 82.2352 15.4863 87.1659C17.8061 92.0793 20.5235 96.7949 23.6115 101.266C24.0049 101.827 24.402 102.383 24.803 102.935L25.307 102.059H5.02973C4.70037 102.059 4.371 102.059 4.0445 102.059C3.28723 102.051 2.56308 101.747 2.02758 101.212C1.49208 100.676 1.18794 99.9521 1.18048 99.1948C1.18048 98.4473 0.00622781 98.4444 0.0176839 99.1948L0.020548 99.1977Z" fill="#09421A"/>
<path d="M5.95175 1.92472C6.11214 1.0827 6.98566 0.730423 7.76754 0.756199C8.09626 0.748638 8.4193 0.842649 8.69262 1.02542C8.94458 1.25038 9.11481 1.55256 9.17664 1.88462C9.39038 2.61331 9.31018 3.39673 8.95325 4.06701C8.79638 4.34279 8.58256 4.58199 8.32603 4.76869C8.03963 4.98635 7.55274 5.05509 7.37231 5.38446C7.31071 5.49406 7.29391 5.62324 7.3254 5.74495C7.3569 5.86667 7.43426 5.97148 7.54128 6.03745C7.92793 6.26944 8.40049 6.01454 8.75277 5.79974C9.0735 5.59957 9.35656 5.34462 9.58906 5.0465C10.1057 4.36914 10.3683 3.53192 10.3308 2.68082C10.3022 1.88749 10.0731 0.942359 9.42009 0.423971C8.76709 -0.0944163 7.85919 -0.0657756 7.10882 0.160482C6.70813 0.26097 6.34613 0.47775 6.06838 0.78353C5.79063 1.08931 5.60954 1.47042 5.54792 1.87889C5.51928 2.09942 5.9002 2.1653 5.94316 1.93045L5.95175 1.92472Z" fill="#032C17"/>
<path d="M14.6901 1.92472C14.8505 1.0827 15.7269 0.730423 16.5059 0.756199C16.8354 0.748976 17.1593 0.842934 17.4338 1.02542C17.6848 1.25119 17.8548 1.553 17.9178 1.88462C18.13 2.61345 18.0499 3.39628 17.6944 4.06701C17.5383 4.34067 17.3278 4.57947 17.0758 4.76869C16.7894 4.98636 16.3025 5.0551 16.1192 5.38446C16.0579 5.4944 16.0415 5.62383 16.0736 5.74558C16.1056 5.86733 16.1836 5.97194 16.2911 6.03745C16.6777 6.26944 17.1503 6.01454 17.5026 5.79974C17.8268 5.59985 18.1137 5.34495 18.3503 5.0465C18.8673 4.36944 19.1289 3.53176 19.0892 2.68082C19.0606 1.88749 18.8343 0.942359 18.1813 0.423971C17.5283 -0.0944163 16.6176 -0.0657756 15.8672 0.160482C15.467 0.261461 15.1057 0.478454 14.8284 0.784196C14.5512 1.08994 14.3706 1.47079 14.3092 1.87889C14.2805 2.09942 14.6586 2.1653 14.7015 1.93045L14.6901 1.92472Z" fill="#032C17"/>
<path d="M23.4281 1.92472C23.5913 1.0827 24.4649 0.730423 25.2439 0.756199C25.5735 0.748606 25.8975 0.842595 26.1718 1.02542C26.4228 1.25119 26.5928 1.553 26.6558 1.88462C26.868 2.61345 26.7879 3.39628 26.4325 4.06701C26.2772 4.34129 26.0665 4.58026 25.8138 4.76869C25.5274 4.98636 25.0405 5.0551 24.8572 5.38446C24.7966 5.49456 24.7806 5.62375 24.8126 5.7453C24.8446 5.86685 24.9221 5.97145 25.0291 6.03745C25.4157 6.26944 25.8883 6.01454 26.2406 5.79974C26.5607 5.59878 26.8436 5.34394 27.0769 5.0465C27.5935 4.36914 27.8561 3.53192 27.8186 2.68082C27.79 1.88749 27.5609 0.942359 26.9079 0.423971C26.2549 -0.0944163 25.347 -0.0657756 24.5937 0.160482C24.1936 0.261461 23.8322 0.478454 23.555 0.784196C23.2778 1.08994 23.0971 1.47079 23.0357 1.87889C23.0071 2.09942 23.388 2.1653 23.4281 1.93045V1.92472Z" fill="#032C17"/>
<path d="M32.169 1.92472C32.3294 1.0827 33.2058 0.730423 33.9848 0.756199C34.3143 0.748976 34.6382 0.842934 34.9127 1.02542C35.1628 1.25148 35.3318 1.5533 35.3939 1.88462C35.6076 2.61331 35.5274 3.39673 35.1705 4.06701C35.0162 4.34116 34.8065 4.58014 34.5547 4.76869C34.2683 4.98636 33.7814 5.0551 33.5981 5.38446C33.5365 5.49406 33.5197 5.62324 33.5512 5.74496C33.5827 5.86667 33.6601 5.97148 33.7671 6.03745C34.1538 6.26944 34.6263 6.01454 34.9815 5.79974C35.3013 5.5995 35.5834 5.34453 35.8149 5.0465C36.334 4.37041 36.5968 3.53227 36.5567 2.68082C36.528 1.88749 36.2989 0.942359 35.6459 0.423971C34.9929 -0.0944163 34.085 -0.0657756 33.3346 0.160482C32.9341 0.261314 32.5723 0.478199 32.2946 0.783917C32.0169 1.08963 31.8357 1.47056 31.7738 1.87889C31.7451 2.09942 32.126 2.1653 32.169 1.93045V1.92472Z" fill="#032C17"/>
<path d="M40.9073 1.92472C41.0677 1.0827 41.9441 0.730423 42.7231 0.756199C43.0528 0.748606 43.3767 0.842595 43.6511 1.02542C43.902 1.25119 44.072 1.553 44.1351 1.88462C44.3473 2.61345 44.2672 3.39628 43.9117 4.06701C43.7556 4.34067 43.545 4.57947 43.2931 4.76869C43.0067 4.98636 42.5198 5.0551 42.3365 5.38446C42.2752 5.4944 42.2588 5.62383 42.2908 5.74558C42.3229 5.86733 42.4008 5.97194 42.5083 6.03745C42.895 6.26944 43.3675 6.01454 43.7198 5.79974C44.0399 5.59878 44.3229 5.34394 44.5561 5.0465C45.0731 4.36944 45.3347 3.53176 45.295 2.68082C45.2693 1.88749 45.0401 0.942359 44.3871 0.423971C43.7341 -0.0944163 42.8234 -0.0657756 42.073 0.160482C41.6729 0.261461 41.3115 0.478454 41.0343 0.784196C40.757 1.08994 40.5764 1.47079 40.515 1.87889C40.4863 2.09942 40.8644 2.1653 40.9073 1.93045V1.92472Z" fill="#032C17"/>
<path d="M49.648 1.92472C49.8084 1.0827 50.6819 0.730423 51.4638 0.756199C51.7925 0.748638 52.1155 0.84265 52.3889 1.02542C52.6408 1.25038 52.811 1.55256 52.8729 1.88462C53.0866 2.61331 53.0064 3.39673 52.6495 4.06701C52.4951 4.34194 52.2843 4.58108 52.0309 4.76869C51.7445 4.98636 51.2576 5.0551 51.0771 5.38446C51.0155 5.49406 50.9987 5.62324 51.0302 5.74496C51.0617 5.86667 51.1391 5.97148 51.2461 6.03745C51.6328 6.26944 52.1053 6.01454 52.4576 5.79974C52.7783 5.59958 53.0614 5.34462 53.2939 5.0465C53.8106 4.36914 54.0731 3.53192 54.0357 2.68082C54.007 1.88749 53.7779 0.942359 53.1249 0.423971C52.4719 -0.0944163 51.564 -0.0657756 50.8108 0.160482C50.4106 0.261461 50.0492 0.478454 49.772 0.784196C49.4948 1.08994 49.3142 1.47079 49.2528 1.87889C49.2241 2.09942 49.605 2.1653 49.648 1.93045V1.92472Z" fill="#032C17"/>
<path d="M58.3863 1.92472C58.5467 1.0827 59.4231 0.730423 60.2021 0.756199C60.5317 0.748976 60.8556 0.842934 61.1301 1.02542C61.381 1.25119 61.551 1.553 61.6141 1.88462C61.8263 2.61345 61.7462 3.39628 61.3907 4.06701C61.2346 4.34067 61.024 4.57947 60.7721 4.76869C60.4857 4.98636 59.9988 5.0551 59.8155 5.38446C59.7542 5.4944 59.7378 5.62383 59.7698 5.74558C59.8019 5.86733 59.8798 5.97194 59.9873 6.03745C60.3711 6.26944 60.8465 6.01454 61.1988 5.79974C61.5189 5.59878 61.8019 5.34394 62.0351 5.0465C62.5521 4.36944 62.8137 3.53176 62.774 2.68082C62.7454 1.88749 62.5191 0.942359 61.8661 0.423971C61.2131 -0.0944163 60.3024 -0.0657756 59.552 0.160482C59.1519 0.261461 58.7905 0.478454 58.5133 0.784196C58.2361 1.08994 58.0554 1.47079 57.994 1.87889C57.9653 2.09942 58.3434 2.1653 58.3863 1.93045V1.92472Z" fill="#032C17"/>
<path d="M67.1246 1.92472C67.2879 1.0827 68.1614 0.730423 68.9404 0.756199C69.27 0.748606 69.594 0.842595 69.8684 1.02542C70.1193 1.25119 70.2893 1.553 70.3524 1.88462C70.5646 2.61345 70.4844 3.39628 70.129 4.06701C69.9737 4.34129 69.763 4.58026 69.5104 4.76869C69.224 4.98636 68.7371 5.0551 68.5538 5.38446C68.4924 5.4944 68.4761 5.62383 68.5081 5.74558C68.5401 5.86733 68.6181 5.97194 68.7256 6.03745C69.1123 6.26944 69.5848 6.01454 69.9371 5.79974C70.2572 5.59878 70.5402 5.34394 70.7734 5.0465C71.2901 4.36914 71.5526 3.53192 71.5152 2.68082C71.4865 1.88749 71.2574 0.942359 70.6044 0.423971C69.9514 -0.0944163 69.0407 -0.0657756 68.2903 0.160482C67.8901 0.261461 67.5287 0.478454 67.2515 0.784196C66.9743 1.08994 66.7937 1.47079 66.7322 1.87889C66.7036 2.09942 67.0845 2.1653 67.1246 1.93045V1.92472Z" fill="#032C17"/>
<path d="M75.8655 1.92472C76.0259 1.0827 76.8994 0.730423 77.6813 0.756199C78.01 0.748638 78.3331 0.84265 78.6064 1.02542C78.8583 1.25038 79.0286 1.55256 79.0904 1.88462C79.3041 2.61331 79.2239 3.39673 78.867 4.06701C78.7128 4.34116 78.503 4.58014 78.2512 4.76869C77.9648 4.98636 77.4751 5.0551 77.2947 5.38446C77.2331 5.49406 77.2163 5.62324 77.2478 5.74496C77.2793 5.86667 77.3566 5.97148 77.4636 6.03745C77.8503 6.26944 78.3228 6.01454 78.6751 5.79974C78.9958 5.59958 79.2789 5.34462 79.5114 5.0465C80.0292 4.36971 80.2918 3.53208 80.2532 2.68082C80.2246 1.88749 79.9954 0.942359 79.3424 0.423971C78.6894 -0.0944163 77.7816 -0.0657756 77.0312 0.160482C76.6307 0.261314 76.2689 0.478199 75.9912 0.783917C75.7135 1.08963 75.5323 1.47056 75.4703 1.87889C75.4416 2.09942 75.8226 2.1653 75.8655 1.93045V1.92472Z" fill="#032C17"/>
<path d="M84.6036 1.92472C84.764 1.0827 85.6404 0.730423 86.4194 0.756199C86.749 0.748606 87.073 0.842595 87.3474 1.02542C87.5983 1.25119 87.7683 1.553 87.8314 1.88462C88.0436 2.61345 87.9635 3.39628 87.608 4.06701C87.4518 4.34067 87.2413 4.57947 86.9894 4.76869C86.703 4.98636 86.2161 5.0551 86.0328 5.38446C85.9714 5.4944 85.9551 5.62383 85.9871 5.74558C86.0192 5.86733 86.0971 5.97194 86.2046 6.03745C86.5913 6.26944 87.0638 6.01454 87.4161 5.79974C87.7362 5.59878 88.0192 5.34394 88.2524 5.0465C88.7694 4.36944 89.031 3.53176 88.9913 2.68082C88.9655 1.88749 88.7364 0.942359 88.0834 0.423971C87.4304 -0.0944163 86.5197 -0.0657756 85.7693 0.160482C85.3691 0.261461 85.0077 0.478454 84.7305 0.784196C84.4533 1.08994 84.2727 1.47079 84.2113 1.87889C84.1826 2.09942 84.5607 2.1653 84.6036 1.93045V1.92472Z" fill="#032C17"/>
<path d="M93.3445 1.92472C93.5049 1.0827 94.3784 0.730423 95.1575 0.756199C95.4871 0.748233 95.8112 0.842254 96.0854 1.02542C96.3374 1.25038 96.5076 1.55256 96.5694 1.88462C96.7832 2.61331 96.703 3.39673 96.346 4.06701C96.1916 4.34194 95.9808 4.58108 95.7274 4.76869C95.441 4.98636 94.9541 5.0551 94.7708 5.38446C94.7109 5.49471 94.6953 5.62368 94.7273 5.74503C94.7592 5.86638 94.8362 5.97097 94.9427 6.03745C95.3293 6.26944 95.8019 6.01454 96.1541 5.79974C96.4749 5.59958 96.7579 5.34462 96.9904 5.0465C97.5071 4.36914 97.7696 3.53192 97.7322 2.68082C97.7036 1.88749 97.4745 0.942359 96.8215 0.423971C96.1685 -0.0944163 95.2606 -0.0657756 94.5073 0.160482C94.1072 0.261461 93.7458 0.478454 93.4686 0.784196C93.1914 1.08994 93.0107 1.47079 92.9493 1.87889C92.9206 2.09942 93.3016 2.1653 93.3445 1.93045V1.92472Z" fill="#032C17"/>
<path d="M102.083 1.92459C102.243 1.08257 103.12 0.730292 103.899 0.756068C104.228 0.748845 104.552 0.842803 104.827 1.02528C105.078 1.25106 105.248 1.55287 105.311 1.88449C105.523 2.61332 105.443 3.39615 105.087 4.06688C104.931 4.34054 104.721 4.57934 104.469 4.76857C104.182 4.98623 103.695 5.05497 103.512 5.38433C103.454 5.49542 103.441 5.62475 103.475 5.74535C103.51 5.86594 103.59 5.96849 103.698 6.0316C104.082 6.26359 104.557 6.00869 104.91 5.79389C105.23 5.59293 105.513 5.33809 105.746 5.04065C106.263 4.36359 106.525 3.5259 106.485 2.67496C106.456 1.88163 106.23 0.936501 105.577 0.418113C104.924 -0.100276 104.013 -0.0716351 103.263 0.154623C102.863 0.255602 102.501 0.472596 102.224 0.778338C101.947 1.08408 101.766 1.46493 101.705 1.87304C101.676 2.09357 102.054 2.15944 102.097 1.92459H102.083Z" fill="#032C17"/>
<path d="M25.8739 32.7445C35.0598 32.2538 44.2409 31.7335 53.4172 31.1836C62.5936 30.6337 71.7709 30.038 80.9491 29.3964C86.1311 29.0413 91.3121 28.6766 96.4922 28.3024C96.8616 28.2766 96.8645 27.7009 96.4922 27.7295C87.3273 28.394 78.1529 29.0279 68.9689 29.6313C59.7849 30.2346 50.6057 30.8074 41.4313 31.3497C36.2474 31.6609 31.0616 31.9635 25.8739 32.2576C25.5674 32.2748 25.5674 32.7531 25.8739 32.7359V32.7445Z" fill="#032C17"/>
<path d="M27.3088 49.619C32.0822 49.2639 36.8556 48.8438 41.6289 48.3589C46.4023 47.8739 51.1585 47.3154 55.8975 46.6834C60.6212 46.061 65.3354 45.3755 70.0401 44.627C74.7944 43.8633 79.5372 43.0394 84.2685 42.1554C88.9999 41.2714 93.6941 40.3234 98.351 39.3114L100.089 38.9305C100.427 38.856 100.284 38.3348 99.9434 38.4121C95.2922 39.4431 90.6267 40.4093 85.9469 41.3105C81.267 42.2117 76.549 43.0537 71.7929 43.8366C67.0901 44.6003 62.3778 45.3068 57.656 45.9559C52.9342 46.6051 48.178 47.1836 43.3874 47.6915C38.6255 48.2051 33.8569 48.6567 29.0816 49.0462L27.3088 49.1866C27.0224 49.2095 27.0224 49.6448 27.3088 49.6248V49.619Z" fill="#032C17"/>
<path d="M33.1971 67.4183C37.8254 66.8455 42.4393 66.1839 47.0389 65.4336C51.6386 64.6832 56.2449 63.824 60.8579 62.8559C65.4403 61.9013 70.0094 60.8607 74.5651 59.7342C79.1208 58.6076 83.6431 57.3837 88.132 56.0625C92.6075 54.7527 97.0553 53.3541 101.475 51.8667C102.048 51.6777 102.601 51.4858 103.162 51.2939C103.477 51.1822 103.349 50.6781 103.022 50.7841C98.5914 52.2419 94.1722 53.7168 89.7015 55.0543C85.2307 56.3918 80.7399 57.632 76.2234 58.7948C71.7068 59.9576 67.1644 61.0201 62.6049 61.9939C58.0454 62.9676 53.4658 63.8498 48.8576 64.6374C44.2494 65.425 39.6154 66.141 34.9613 66.7482L33.1914 66.9773C32.905 67.0116 32.905 67.4498 33.1914 67.4155L33.1971 67.4183Z" fill="#032C17"/>
<path d="M40.4033 83.217C44.9151 82.5125 49.4107 81.7268 53.89 80.8599C58.3693 79.9931 62.8324 79.0384 67.2793 77.9959C71.7434 76.9534 76.1893 75.8278 80.6171 74.6192C85.0449 73.4106 89.424 72.1285 93.7544 70.7728C98.0924 69.4267 102.418 67.9899 106.731 66.4625L108.344 65.8897C108.67 65.7722 108.527 65.2481 108.201 65.3684C103.904 66.9293 99.5827 68.3814 95.2351 69.7676C90.8875 71.1537 86.5141 72.4569 82.1178 73.6798C77.7215 74.9028 73.2594 76.057 68.7972 77.1167C64.3351 78.1763 59.9188 79.1587 55.4308 80.0551C50.9429 80.9516 46.4664 81.7736 41.9699 82.501L40.2801 82.7731C39.9937 82.8189 40.114 83.2629 40.4033 83.217V83.217Z" fill="#032C17"/>
<path d="M34.721 27.4139C35.35 35.5352 36.6917 43.5854 38.7306 51.4717C40.7839 59.3344 43.51 67.0059 46.8787 74.4011C48.7393 78.5921 50.8432 82.6707 53.1796 86.6162C53.3142 86.8424 53.7352 86.768 53.7094 86.473L53.6178 85.4362C53.5863 85.0954 53.045 85.0868 53.0765 85.4362L53.1395 86.473L53.6693 86.3298C51.6645 82.7984 49.7256 79.2614 47.9842 75.5983C46.2429 71.9352 44.662 68.1518 43.2586 64.3398C40.4823 56.7707 38.359 48.9779 36.9119 41.0467C36.0936 36.5349 35.5019 31.9849 35.1391 27.4139C35.1162 27.1447 34.6923 27.1418 34.7124 27.4139H34.721Z" fill="#032C17"/>
<path d="M51.1348 27.9879C52.6128 35.462 54.474 42.8552 56.711 50.1383C58.9476 57.425 61.5505 64.5942 64.5097 71.6185C66.1537 75.5278 67.8406 79.4602 70.0574 83.0746C70.102 83.1225 70.1616 83.1537 70.2264 83.163C70.2913 83.1723 70.3573 83.1591 70.4136 83.1256C70.4698 83.0921 70.5129 83.0404 70.5356 82.979C70.5584 82.9175 70.5594 82.8502 70.5385 82.7882C68.5996 79.5461 67.0415 76.1007 65.5494 72.6323C64.0572 69.164 62.631 65.604 61.3106 62.0383C58.6757 54.9393 56.3979 47.7201 54.4771 40.3805C53.3945 36.2373 52.4207 32.0682 51.5558 27.8733C51.5014 27.6013 51.0889 27.7158 51.1405 27.9879H51.1348Z" fill="#032C17"/>
<path d="M68.7138 26.6525C70.23 33.505 72.1572 40.2601 74.4848 46.8811C76.7992 53.4695 79.4882 59.9203 82.5385 66.2019C84.2569 69.7447 86.0498 73.2817 88.0489 76.6756C88.0868 76.7436 88.1503 76.7937 88.2252 76.8149C88.3001 76.8361 88.3804 76.8267 88.4484 76.7887C88.5164 76.7507 88.5665 76.6873 88.5877 76.6124C88.6089 76.5375 88.5995 76.4572 88.5615 76.3892C86.8947 73.3218 85.2163 70.2688 83.6698 67.1384C82.1232 64.008 80.6654 60.8375 79.2993 57.6327C76.5576 51.1944 74.1768 44.6084 72.1678 37.9053C71.0413 34.1477 70.0208 30.3595 69.1062 26.5408C69.0432 26.2831 68.6508 26.3919 68.7081 26.6497L68.7138 26.6525Z" fill="#032C17"/>
<path d="M87.8802 25.6758C88.8855 31.6301 90.6183 37.4183 92.729 43.0776C94.8398 48.7369 97.3373 54.2473 99.8748 59.7205C100.602 61.2957 101.333 62.87 102.066 64.4433C102.839 66.1044 103.546 67.8228 104.417 69.4353C104.552 69.6902 105.004 69.5126 104.893 69.2348C104.32 67.7713 103.581 66.3536 102.914 64.9387C102.246 63.5239 101.579 62.0747 100.909 60.657C99.6313 57.9219 98.3597 55.181 97.1368 52.4229C94.6852 46.8982 92.4111 41.279 90.6612 35.488C89.6676 32.2354 88.8737 28.9251 88.2841 25.5756C88.2382 25.3064 87.8316 25.4209 87.8745 25.6873L87.8802 25.6758Z" fill="#032C17"/>
<path d="M161.142 78.1046C161.886 78.1046 161.886 76.959 161.142 76.959C160.397 76.959 160.394 78.1046 161.142 78.1046Z" fill="#032C17"/>
</svg>
