<svg width="186" height="223" viewBox="0 0 186 223" fill="none" xmlns="http://www.w3.org/2000/svg">
<g clip-path="url(#clip0_759_8358)">
<path d="M72.0394 183.03C68.3384 179.19 62.9751 176.988 57.3247 176.988L57.1068 176.988C53.385 176.99 49.7297 175.997 46.5146 174.111L46.1801 173.915L46.4496 173.635C47.9084 172.117 49.1265 170.382 50.0612 168.491C49.3973 169.114 48.6055 169.582 47.7419 169.863C46.8782 170.143 45.9637 170.23 45.0632 170.115C44.1125 170.001 43.1998 169.672 42.3936 169.153C41.5874 168.633 40.9085 167.937 40.408 167.116C38.4332 163.892 36.0791 159.318 36.0791 155.833C36.0822 152.888 36.6952 149.976 37.879 147.282C39.0628 144.588 40.7916 142.172 42.955 140.188C44.3246 138.945 45.4186 137.426 46.1656 135.73C46.9126 134.034 47.2958 132.198 47.2904 130.343L47.2893 130.079C47.2889 127.636 47.5856 125.202 48.1728 122.832L48.2324 122.593L48.4772 122.602C50.0556 122.656 51.6349 122.522 53.1823 122.205C51.7308 122.026 50.3108 121.646 48.9626 121.076L48.6993 120.969L48.7886 120.697C54.9488 116.86 68.8541 118.847 76.9251 100.269C83.4696 85.2055 106.561 113.642 106.561 130.079C106.561 131.756 104.911 133.972 106.146 135.081C119.497 147.064 110.285 154.759 107.381 162.502C106.692 164.339 108.186 166.356 108.186 168.343C108.186 168.681 108.177 169.029 108.16 169.378L108.135 169.915L107.689 169.617C106.809 169.037 105.992 168.363 105.254 167.608C106.02 169.38 106.381 171.303 106.31 173.235C106.24 175.166 105.74 177.057 104.847 178.768C103.448 181.425 102.094 183.327 100.824 184.421C96.7538 187.925 91.5074 189.733 86.157 189.474C80.8066 189.215 75.7565 186.91 72.0394 183.03H72.0394Z" fill="#3E9D41"/>
<path d="M94.3923 223C94.4833 223 94.5711 222.967 94.6398 222.907C94.7085 222.847 94.7534 222.764 94.7662 222.673C94.7823 222.56 96.3559 211.141 94.9426 195.966C93.6373 181.951 89.4457 161.765 76.8892 145.186C76.8591 145.147 76.8215 145.113 76.7786 145.088C76.7357 145.063 76.6882 145.046 76.639 145.04C76.5897 145.033 76.5396 145.036 76.4916 145.049C76.4435 145.062 76.3984 145.084 76.3589 145.114C76.3194 145.144 76.2862 145.182 76.2612 145.225C76.2362 145.269 76.22 145.316 76.2133 145.366C76.2067 145.415 76.2099 145.466 76.2226 145.514C76.2353 145.562 76.2574 145.608 76.2876 145.648C88.7357 162.083 92.8935 182.121 94.1896 196.037C95.5947 211.124 94.0333 222.453 94.0174 222.566C94.0098 222.62 94.0138 222.675 94.0292 222.727C94.0446 222.78 94.0709 222.828 94.1064 222.869C94.142 222.91 94.1859 222.943 94.2352 222.966C94.2845 222.988 94.3381 223 94.3923 223V223Z" fill="#412E0A"/>
<path d="M84.1451 168.571C84.225 168.571 84.3029 168.546 84.3675 168.498C84.4322 168.451 84.4803 168.385 84.505 168.308C84.5298 168.232 84.5298 168.15 84.5051 168.073C84.4805 167.997 84.4324 167.93 84.3678 167.883C80.7899 165.446 76.9248 163.467 72.8614 161.99C66.5131 159.652 56.8596 157.532 46.9215 160.714C46.8741 160.729 46.8301 160.754 46.792 160.786C46.754 160.818 46.7226 160.857 46.6997 160.902C46.6768 160.946 46.6628 160.995 46.6586 161.045C46.6544 161.094 46.6599 161.145 46.675 161.192C46.6901 161.24 46.7144 161.284 46.7465 161.322C46.7786 161.361 46.8178 161.392 46.862 161.415C46.9062 161.438 46.9545 161.452 47.004 161.456C47.0536 161.46 47.1035 161.454 47.1508 161.439C56.8853 158.322 66.3639 160.407 72.6013 162.705C76.5994 164.156 80.4025 166.102 83.9231 168.498C83.9876 168.546 84.0654 168.571 84.1451 168.571Z" fill="#412E0A"/>
<path d="M101.454 125.203C101.46 125.123 101.44 125.043 101.398 124.975C101.356 124.906 101.293 124.853 101.219 124.823C101.145 124.793 101.064 124.787 100.986 124.806C100.909 124.825 100.839 124.869 100.788 124.93C98.1144 128.345 95.8736 132.081 94.1168 136.052C91.3415 142.253 88.5448 151.787 90.9839 161.989C90.9954 162.037 91.0164 162.083 91.0456 162.124C91.0747 162.164 91.1116 162.198 91.154 162.225C91.1963 162.251 91.2434 162.268 91.2925 162.276C91.3416 162.284 91.3917 162.282 91.44 162.27C91.4883 162.258 91.5339 162.237 91.5741 162.208C91.6143 162.178 91.6483 162.141 91.6742 162.099C91.7001 162.056 91.7174 162.009 91.7251 161.959C91.7329 161.91 91.7308 161.859 91.7191 161.811C89.3302 151.818 92.0796 142.458 94.8065 136.364C96.5335 132.457 98.7369 128.781 101.366 125.421C101.417 125.359 101.448 125.283 101.454 125.203Z" fill="#412E0A"/>
<path d="M174.395 222.597H144.291L144.161 222.361C143.776 221.659 143.405 220.915 143.058 220.15C139.957 213.471 138.646 205.833 137.489 199.093L136.619 194.013C136.513 193.398 136.593 192.765 136.847 192.196C137.101 191.626 137.518 191.146 138.045 190.816C138.572 190.487 139.185 190.323 139.805 190.346C140.425 190.369 141.025 190.577 141.526 190.945C146.101 194.294 150.678 197.64 155.257 200.983C156.99 202.252 158.97 203.721 160.866 205.308C161.049 204.414 161.241 203.517 161.432 202.633C161.564 202.023 161.874 201.466 162.322 201.034C162.771 200.602 163.337 200.314 163.949 200.207C164.561 200.101 165.19 200.181 165.757 200.436C166.324 200.692 166.802 201.112 167.13 201.642L170.652 207.335C173.221 211.493 175.488 215.59 175.026 220.008C175.028 220.062 175.024 220.116 175.014 220.169C174.922 220.895 174.75 221.608 174.503 222.296L174.395 222.597Z" fill="#125D1B"/>
<path d="M160.37 103.53L154.56 81.8958C154.311 80.98 153.714 80.1993 152.898 79.7222C152.082 79.2452 151.113 79.11 150.198 79.3458C149.725 79.4678 149.282 79.6855 148.896 79.9854C148.509 80.2854 148.187 80.6614 147.95 81.0906C147.712 81.5198 147.564 81.9931 147.515 82.4818C147.465 82.9704 147.515 83.4641 147.661 83.9327L154.381 106.219L157.897 119.935C157.385 120.328 157.005 120.87 156.81 121.488C156.615 122.106 156.614 122.769 156.807 123.387C157 124.006 157.377 124.55 157.888 124.945C158.398 125.34 159.017 125.568 159.661 125.597C160.305 125.626 160.941 125.454 161.485 125.106C162.029 124.759 162.453 124.251 162.699 123.652C162.946 123.053 163.003 122.393 162.864 121.76C162.724 121.127 162.395 120.553 161.919 120.115L160.37 103.53Z" fill="#A0616A"/>
<path d="M111.481 98.8704L129.134 85.2028C129.88 84.6215 130.369 83.7684 130.496 82.8275C130.622 81.8866 130.376 80.9334 129.81 80.1737C129.517 79.7806 129.148 79.4516 128.724 79.2068C128.301 78.9621 127.833 78.8065 127.348 78.7498C126.863 78.6931 126.372 78.7363 125.904 78.8768C125.436 79.0173 125.002 79.2523 124.627 79.5672L106.723 94.3301L95.4674 102.839C94.9105 102.513 94.2673 102.368 93.6254 102.423C92.9834 102.478 92.3737 102.73 91.8793 103.145C91.3848 103.561 91.0294 104.119 90.8614 104.745C90.6935 105.371 90.721 106.033 90.9404 106.643C91.1598 107.252 91.5603 107.779 92.0876 108.151C92.6149 108.524 93.2434 108.724 93.8876 108.725C94.5319 108.725 95.1607 108.526 95.6887 108.155C96.2166 107.783 96.6181 107.257 96.8386 106.648L111.481 98.8704Z" fill="#A0616A"/>
<path d="M125.869 102.012L125.091 119.496L149.523 114.154C147.443 107.128 146.029 105.93 147.592 101.041L125.869 102.012Z" fill="#A0616A"/>
<path d="M140.891 69.9609H132.75L129.254 75.9795L127.588 75.887C126.774 75.8418 125.958 75.9642 125.192 76.2467C124.426 76.5292 123.725 76.9659 123.132 77.5302C122.54 78.0945 122.068 78.7744 121.745 79.5284C121.422 80.2825 121.256 81.0948 121.256 81.9157L123.308 85.1163C123.308 85.1163 119.638 91.5522 124.925 94.7185C124.925 94.7185 123.982 100.684 124.925 100.62C125.868 100.556 128.041 99.3417 125.868 100.556C123.696 101.77 123.858 101.933 124.139 102.216L124.42 102.498L147.262 106.357C147.262 106.357 147.93 101.902 148.002 101.108C148.074 100.313 147.591 102.256 148.074 100.313C148.557 98.3704 149.281 99.0989 148.557 98.3704C147.833 97.6419 153.248 88.617 151.023 85.1162L154.591 81.6155C154.591 78.2575 149.23 75.5353 145.892 75.5353H145.465L140.891 69.9609Z" fill="#362406"/>
<path d="M121.277 215.857H117.982L116.414 203.071L121.277 203.072L121.277 215.857Z" fill="#A0616A"/>
<path d="M111.332 220.748C111.333 221.119 111.481 221.475 111.741 221.738C112.002 222.001 112.355 222.15 112.724 222.152H118.927L119.119 221.751L119.997 219.93L120.337 221.751L120.412 222.152H122.751L122.718 221.748L122.094 214.222L121.278 214.172L117.752 213.961L116.886 213.908V216.155C116.228 216.859 111.07 219.518 111.332 220.748Z" fill="#032C17"/>
<path d="M170.246 207.174L167.475 208.968L159.28 199.067L163.37 196.421L170.246 207.174Z" fill="#A0616A"/>
<path d="M164.513 216.701C164.714 217.012 165.029 217.231 165.389 217.31C165.75 217.389 166.127 217.322 166.439 217.123L171.655 213.747L171.602 213.306L171.36 211.296L172.625 212.643L172.904 212.939L174.871 211.666L174.626 211.345L170.054 205.354L169.341 205.756L166.262 207.499L165.505 207.925L166.714 209.815C166.539 210.765 163.631 215.809 164.513 216.701Z" fill="#032C17"/>
<path d="M185.617 222.831L83.5884 222.931C83.4865 222.93 83.389 222.889 83.3172 222.817C83.2454 222.744 83.2051 222.646 83.2051 222.543C83.2051 222.441 83.2454 222.343 83.3172 222.27C83.389 222.197 83.4865 222.156 83.5884 222.156L185.617 222.056C185.719 222.056 185.816 222.097 185.888 222.17C185.96 222.242 186 222.341 186 222.443C186 222.546 185.96 222.644 185.888 222.717C185.816 222.789 185.719 222.83 185.617 222.831Z" fill="#212529"/>
<path d="M149.14 112.179C149.14 112.179 133.522 120.49 125.262 114.819C125.262 114.819 123.455 123.624 122.731 124.352C122.007 125.081 120.853 125.398 121.671 126.211C122.49 127.023 122.945 128.121 121.39 129.515C119.834 130.909 118.284 130.466 119.783 131.902C121.283 133.337 115.249 168.546 115.249 168.546C115.249 168.546 116.214 201.29 115.249 202.28C114.283 203.27 112.993 203.492 114.241 204.717C115.49 205.941 115.49 204.992 115.49 206.681V208.37L116.061 210.048H123.898C123.898 210.048 125.789 207.838 123.898 205.918C122.007 203.999 124.474 203.474 125.05 201.672C125.627 199.871 126.593 201.813 125.627 199.871C124.662 197.928 124.198 198.298 124.189 197.02C124.179 195.743 138.42 145.721 138.42 145.721L140.144 173.407L160.891 203.729L166.998 199.121C166.998 199.121 162.552 192.824 163.591 191.959C164.631 191.093 160.527 190.007 161.821 189.031C163.115 188.054 160 187.07 161.174 185.776C162.348 184.482 159.556 181.219 157.939 181.219C156.321 181.219 154.051 175.781 154.051 175.781L157.44 132.819L149.14 112.179Z" fill="#343A40"/>
<path d="M132.587 52.2879C132.476 52.4339 131.596 52.3553 130.537 52.1998C128.443 51.8922 128.158 52.2577 126.593 53.6899C124.326 55.7647 125.615 68.4192 124.501 71.1611L124.141 71.428C124.855 71.2908 125.556 71.0934 126.237 70.8378C126.621 69.6168 127.007 68.3918 127.395 67.1717C127.762 68.121 127.992 69.1179 128.08 70.1325C128.619 69.9188 129.155 69.3961 131.406 68.695C132.54 67.9211 140.744 67.143 141.799 66.8025C144.475 57.6404 140.162 53.9352 132.587 52.2879Z" fill="#212529"/>
<path d="M135.356 66.4166C139.686 66.4166 143.196 62.8854 143.196 58.5296C143.196 54.1737 139.686 50.6426 135.356 50.6426C131.027 50.6426 127.517 54.1737 127.517 58.5296C127.517 62.8854 131.027 66.4166 135.356 66.4166Z" fill="#A0616A"/>
<path d="M140.292 51.5932C139.85 51.5277 139.425 51.3777 139.039 51.1514C138.848 51.0352 138.693 50.8672 138.592 50.6666C138.491 50.4661 138.449 50.241 138.469 50.0172C138.565 49.4568 139.195 49.1222 139.759 49.1563C140.321 49.2378 140.855 49.4551 141.315 49.7897C141.265 49.2481 141.035 48.7393 140.662 48.3451C140.29 47.9508 139.796 47.694 139.261 47.6158C140.003 47.5755 140.775 47.54 141.461 47.8272C142.148 48.1144 142.719 48.8255 142.596 49.5629C143.75 49.4133 144.887 50.2221 145.364 51.2899C145.84 52.3577 145.746 53.6117 145.365 54.7177C145.328 54.887 145.254 55.0463 145.15 55.1847C145.046 55.3231 144.914 55.4374 144.762 55.5197C144.373 55.668 143.956 55.4194 143.619 55.1743C141.862 53.8941 140.262 52.4077 138.854 50.7467" fill="#212529"/>
<path d="M143.71 66.9143C143.378 67.0717 143.551 67.6573 143.293 67.9196C143.181 68.0306 143.045 68.1152 142.897 68.1673C142.858 67.6785 142.745 67.1986 142.561 66.7443C142.528 66.6618 142.472 66.5695 142.385 66.5768C142.284 66.5889 142.257 66.7225 142.255 66.822C142.234 67.3159 142.126 67.802 141.934 68.2571C141.931 68.262 141.929 68.2693 141.927 68.2741C141.852 68.2717 141.774 68.2693 141.702 68.2668C141.142 68.245 139.901 66.7978 139.626 67.2883C140.597 65.5569 141.779 62.9538 141.96 60.9748C142.023 60.5605 141.993 60.1373 141.871 59.7364C141.808 59.537 141.689 59.36 141.528 59.2266C141.368 59.0932 141.173 59.0089 140.966 58.9837C140.864 58.979 140.762 58.997 140.668 59.0365C140.574 59.076 140.489 59.1359 140.421 59.212C140.352 59.2881 140.302 59.3785 140.272 59.4767C140.242 59.5749 140.234 59.6785 140.249 59.7801L140.109 59.7607C138.81 58.6971 139.93 56.8492 138.419 56.1183C137.908 55.8706 134.775 56.6987 134.222 56.553C134.21 55.9672 134.092 55.3886 133.872 54.8459C133.838 54.7634 133.783 54.6711 133.696 54.6784C133.595 54.6905 133.568 54.8241 133.566 54.9236C133.545 55.4175 133.436 55.9036 133.245 56.3587C132.479 56.2495 131.699 56.2907 130.949 56.4801C130.288 56.655 129.66 56.9561 128.997 57.1163C128.668 57.2175 128.323 57.2503 127.982 57.2127C127.641 57.1751 127.311 57.068 127.013 56.8978C126.17 56.3296 126.023 55.0718 126.443 54.1442C126.747 53.5489 127.158 53.0155 127.655 52.5707C128.034 52.2016 128.427 51.847 128.82 51.4925C129.173 51.1744 129.525 50.8563 129.878 50.5382C130.321 50.1182 130.794 49.7303 131.292 49.3775C132.087 48.853 132.981 48.4976 133.918 48.3331C134.854 48.1686 135.815 48.1984 136.74 48.4208C137.85 48.6879 139.334 48.3115 140.35 48.8336C140.881 49.108 142.057 50.1594 142.523 50.5333C143.715 51.4877 142.908 50.7101 144.212 51.2618C147.322 52.5775 145.947 65.855 143.71 66.9143Z" fill="#212529"/>
<path d="M56.9081 124.481C83.7591 124.481 105.526 102.583 105.526 75.5692C105.526 48.5559 83.7591 26.6572 56.9081 26.6572C30.0571 26.6572 8.29004 48.5559 8.29004 75.5692C8.29004 102.583 30.0571 124.481 56.9081 124.481Z" fill="#F8F9FA"/>
<path d="M56.908 124.969C29.8324 124.969 7.80469 102.809 7.80469 75.5692C7.80469 48.3298 29.8324 26.1689 56.908 26.1689C83.9837 26.1689 106.011 48.3298 106.011 75.5692C106.011 102.809 83.9837 124.969 56.908 124.969ZM56.908 27.1454C30.3676 27.1454 8.77529 48.8683 8.77529 75.5692C8.77529 102.27 30.3676 123.993 56.908 123.993C83.4485 123.993 105.041 102.27 105.041 75.5692C105.041 48.8683 83.4484 27.1454 56.908 27.1454Z" fill="#0D4F1B"/>
<path d="M50.2758 101.025C49.4362 101.025 48.6082 100.829 47.8573 100.451C47.1064 100.073 46.4533 99.5243 45.9497 98.8485L32.686 81.0563C32.2599 80.4847 31.9499 79.8342 31.7736 79.1421C31.5974 78.45 31.5584 77.7297 31.6589 77.0224C31.7593 76.3151 31.9973 75.6346 32.3591 75.0199C32.721 74.4051 33.1997 73.868 33.7678 73.4394C34.336 73.0107 34.9825 72.6988 35.6705 72.5215C36.3585 72.3442 37.0744 72.305 37.7774 72.406C38.4805 72.5071 39.1569 72.7465 39.7679 73.1105C40.379 73.4746 40.9128 73.9561 41.3389 74.5277L50.0165 86.1669L72.3038 52.5343C73.0999 51.3346 74.3369 50.5021 75.7429 50.2196C77.1489 49.9372 78.6088 50.228 79.8018 51.0281C80.9948 51.8282 81.8231 53.0721 82.1047 54.4865C82.3863 55.9008 82.0982 57.3698 81.3036 58.5704L54.7761 98.6023C54.2962 99.3263 53.6508 99.924 52.894 100.345C52.1371 100.767 51.2909 100.999 50.4263 101.023C50.3761 101.024 50.3259 101.025 50.2758 101.025Z" fill="#0D4F1B"/>
<path d="M107 29.7123C107.135 28.7772 106.161 27.8606 104.825 27.665C103.489 27.4694 102.296 28.0689 102.161 29.0041C102.026 29.9392 102.999 30.8558 104.335 31.0514C105.672 31.247 106.864 30.6475 107 29.7123Z" fill="#3E9D41"/>
<path d="M122.908 28.1508C123.043 27.2157 122.069 26.2991 120.733 26.1035C119.397 25.9079 118.204 26.5074 118.069 27.4425C117.934 28.3777 118.907 29.2943 120.244 29.4899C121.58 29.6855 122.773 29.0859 122.908 28.1508Z" fill="#412E0A"/>
<path d="M102.643 16.7553C102.778 15.8202 101.805 14.9035 100.469 14.708C99.1325 14.5124 97.9397 15.1119 97.8044 16.047C97.6692 16.9822 98.6427 17.8988 99.9789 18.0944C101.315 18.29 102.508 17.6904 102.643 16.7553Z" fill="#513C10"/>
<path d="M95.7297 11.4483C95.7362 10.5898 95.2602 9.89016 94.6666 9.88564C94.0729 9.88113 93.5865 10.5734 93.58 11.4319C93.5736 12.2904 94.0496 12.99 94.6432 12.9945C95.2368 12.999 95.7233 12.3067 95.7297 11.4483Z" fill="#3E9D41"/>
<path d="M93.386 1.56251C93.3924 0.704022 92.9164 0.00441742 92.3228 -9.8539e-05C91.7292 -0.0046145 91.2427 0.687668 91.2363 1.54616C91.2298 2.40464 91.7058 3.10425 92.2995 3.10876C92.8931 3.11328 93.3795 2.421 93.386 1.56251Z" fill="#412E0A"/>
<path d="M111.615 18.9609C111.622 18.1025 111.146 17.4029 110.552 17.3983C109.959 17.3938 109.472 18.0861 109.466 18.9446C109.459 19.8031 109.935 20.5027 110.529 20.5072C111.123 20.5117 111.609 19.8194 111.615 18.9609Z" fill="#3E9D41"/>
<path d="M103.928 22.8223C103.934 21.9638 103.458 21.2642 102.865 21.2597C102.271 21.2552 101.785 21.9475 101.778 22.8059C101.772 23.6644 102.248 24.364 102.841 24.3685C103.435 24.373 103.922 23.6808 103.928 22.8223Z" fill="#513C10"/>
<path d="M114.629 29.959C114.636 29.1005 114.16 28.4009 113.566 28.3964C112.972 28.3919 112.486 29.0842 112.479 29.9427C112.473 30.8011 112.949 31.5007 113.543 31.5052C114.136 31.5098 114.623 30.8175 114.629 29.959Z" fill="#412E0A"/>
<path d="M15.7633 145.586C15.8985 144.651 14.925 143.735 13.5888 143.539C12.2526 143.343 11.0598 143.943 10.9246 144.878C10.7893 145.813 11.7629 146.73 13.099 146.925C14.4352 147.121 15.628 146.521 15.7633 145.586Z" fill="#3E9D41"/>
<path d="M31.6715 144.025C31.8067 143.09 30.8332 142.173 29.497 141.977C28.1608 141.782 26.968 142.381 26.8328 143.317C26.6975 144.252 27.6711 145.168 29.0072 145.364C30.3434 145.559 31.5362 144.96 31.6715 144.025Z" fill="#412E0A"/>
<path d="M11.4068 132.629C11.5421 131.694 10.5685 130.778 9.23235 130.582C7.89618 130.386 6.70336 130.986 6.56812 131.921C6.43288 132.856 7.40643 133.773 8.7426 133.968C10.0788 134.164 11.2716 133.564 11.4068 132.629Z" fill="#513C10"/>
<path d="M4.49438 127.322C4.50083 126.464 4.02484 125.764 3.43123 125.76C2.83761 125.755 2.35114 126.447 2.34469 127.306C2.33824 128.164 2.81424 128.864 3.40786 128.869C4.00148 128.873 4.48793 128.181 4.49438 127.322Z" fill="#3E9D41"/>
<path d="M2.14971 117.436C2.1562 116.578 1.68023 115.878 1.08661 115.874C0.492996 115.869 0.00651505 116.562 2.76871e-05 117.42C-0.00645968 118.279 0.469503 118.978 1.06312 118.983C1.65674 118.987 2.14322 118.295 2.14971 117.436Z" fill="#412E0A"/>
<path d="M20.3791 134.835C20.3856 133.976 19.9096 133.277 19.316 133.272C18.7224 133.268 18.2359 133.96 18.2295 134.819C18.223 135.677 18.699 136.377 19.2926 136.381C19.8862 136.386 20.3727 135.693 20.3791 134.835Z" fill="#3E9D41"/>
<path d="M12.6917 138.696C12.6981 137.838 12.2221 137.138 11.6285 137.134C11.0349 137.129 10.5484 137.821 10.542 138.68C10.5355 139.538 11.0115 140.238 11.6051 140.243C12.1987 140.247 12.6852 139.555 12.6917 138.696Z" fill="#513C10"/>
<path d="M23.3928 145.833C23.3993 144.975 22.9233 144.275 22.3296 144.27C21.736 144.266 21.2496 144.958 21.2431 145.817C21.2367 146.675 21.7127 147.375 22.3063 147.379C22.8999 147.384 23.3864 146.692 23.3928 145.833Z" fill="#412E0A"/>
</g>
<defs>
<clipPath id="clip0_759_8358">
<rect width="186" height="223" fill="white"/>
</clipPath>
</defs>
</svg>
