<svg width="305" height="235" viewBox="0 0 305 235" fill="none" xmlns="http://www.w3.org/2000/svg">
<path d="M119.549 100.966C110.08 104.757 100.396 107.988 90.5481 110.644H126.119C127.031 110.644 127.905 110.281 128.549 109.637C129.194 108.992 129.556 108.118 129.556 107.207V96.5439C126.272 98.1249 122.936 99.5989 119.549 100.966Z" fill="#032C17"/>
<path d="M119.395 100.405C112.023 103.372 104.521 105.981 96.8891 108.232C94.7315 108.878 92.5663 109.494 90.3935 110.082C90.2416 110.103 90.104 110.183 90.0111 110.305C89.9182 110.427 89.8775 110.581 89.898 110.733C89.9185 110.884 89.9985 111.022 90.1205 111.115C90.2424 111.208 90.3962 111.249 90.5482 111.228H125.824C126.268 111.241 126.712 111.197 127.145 111.096C127.96 110.875 128.687 110.404 129.223 109.751C129.76 109.098 130.079 108.294 130.138 107.45C130.172 106.952 130.138 106.442 130.138 105.944V96.5441C130.136 96.4424 130.107 96.3429 130.055 96.2554C130.004 96.1678 129.93 96.0951 129.842 96.0444C129.754 95.9936 129.654 95.9666 129.552 95.9658C129.45 95.9651 129.35 95.9906 129.261 96.0401C126.015 97.6019 122.724 99.0568 119.386 100.405C119.24 100.449 119.116 100.549 119.04 100.682C118.964 100.815 118.943 100.972 118.979 101.121C118.999 101.195 119.032 101.265 119.079 101.326C119.126 101.387 119.184 101.438 119.251 101.476C119.318 101.514 119.392 101.538 119.468 101.547C119.544 101.556 119.622 101.549 119.695 101.528C123.132 100.143 126.517 98.6501 129.848 97.0482L128.972 96.5441V106.855C128.972 107.76 128.777 108.593 128.113 109.252C127.833 109.517 127.503 109.725 127.143 109.863C126.783 110.001 126.399 110.067 126.013 110.057H93.1716C92.3382 110.057 91.4904 110.014 90.657 110.057H90.5482L90.7028 111.202C98.3698 109.117 105.951 106.723 113.397 103.962C115.509 103.179 117.609 102.368 119.698 101.528C119.844 101.482 119.968 101.383 120.043 101.25C120.119 101.117 120.141 100.96 120.105 100.812C120.086 100.738 120.052 100.669 120.006 100.608C119.959 100.547 119.901 100.497 119.835 100.459C119.769 100.421 119.696 100.397 119.62 100.387C119.545 100.378 119.468 100.384 119.395 100.405Z" fill="#032C17"/>
<path d="M130.146 20.0461V17.0045C130.146 15.8847 130.281 14.6446 129.86 13.5849C129.178 11.898 127.568 11.0531 125.821 11.0531H23.4296C22.284 11.0531 21.1126 11.0216 19.9584 11.0531C17.6328 11.1218 16.0175 13.035 16.0118 15.2861V17.1763V106.714C16.0118 108.103 16.3784 109.424 17.5211 110.337C18.9073 111.446 20.6916 111.225 22.3498 111.225H41.2925C41.6992 111.225 42.0629 110.718 41.7937 110.349C35.4069 101.576 30.6555 91.7126 27.1872 81.448C23.6444 70.9398 21.3159 60.0021 19.5402 49.0673C18.5455 42.9153 17.754 36.7329 17.166 30.5198C17.0972 29.7809 15.9316 29.7723 16.0032 30.5198C17.0406 41.7559 18.7805 52.9159 21.2128 63.9344C23.5986 74.6545 26.7433 85.2199 31.4689 95.1523C34.0794 100.689 37.1993 105.971 40.7884 110.93L41.2925 110.054H22.3498C20.8033 110.054 18.913 110.34 17.8161 109C17.2003 108.258 17.166 107.399 17.166 106.514V15.3291C17.166 13.6565 18.2829 12.2502 20.03 12.2187H21.0811H125.713C127.05 12.2187 128.325 12.7371 128.82 14.1033C129.152 15.0255 128.989 16.2112 128.989 17.1706V20.0346C128.989 20.785 130.155 20.7879 130.155 20.0346L130.146 20.0461Z" fill="#09421A"/>
<path d="M16.1491 31.9627C16.7342 41.6113 18.0816 51.1984 20.1788 60.6345C22.1836 69.7679 24.681 78.8697 28.0949 87.5821C31.3026 95.7761 35.3037 103.707 40.4646 110.852C41.7334 112.605 43.0423 114.352 44.4743 115.97C45.9063 117.589 47.5502 118.849 49.6868 119.175C51.9207 119.519 54.2005 119.026 56.4058 118.68C58.7753 118.298 61.141 117.9 63.5029 117.485C72.9981 115.788 82.4026 113.652 91.7164 111.079C100.974 108.52 110.083 105.453 119.002 101.891C128.01 98.2927 136.696 93.9361 144.967 88.868C146.471 87.943 147.994 87.0322 149.475 86.0699C150.753 85.2393 152.081 84.2799 152.883 82.9538C153.588 81.7882 153.765 80.2445 152.783 79.1848C151.801 78.1251 150.26 77.7184 148.968 77.1628C147.064 76.3408 145.294 74.9575 143.776 73.5627C142.167 72.0715 140.75 70.3848 139.56 68.542C137.088 64.7472 135.482 60.4569 134.347 56.0921C133.187 51.6328 132.52 47.0647 131.953 42.4966C131.329 37.496 130.701 32.4725 130.398 27.4433C130.252 24.9831 130.137 22.5143 130.134 20.0455C130.134 19.3066 128.989 19.3037 128.989 20.0455C128.983 24.9804 129.258 29.9117 129.814 34.8153C130.355 39.5008 130.845 44.195 131.589 48.849C132.953 57.3523 135.341 66.2594 141.247 72.8066C142.686 74.4025 144.322 75.8094 146.116 76.9938C146.852 77.5044 147.633 77.9464 148.45 78.3141C149.106 78.6005 149.782 78.8325 150.426 79.1389C150.999 79.4082 151.729 79.7461 152.05 80.3218C152.336 80.843 152.173 81.539 151.921 82.0402C151.248 83.3834 149.845 84.3114 148.613 85.0961C141.092 89.9438 133.222 94.2277 125.068 97.9126C116.456 101.748 107.517 104.889 98.4955 107.616C89.4738 110.343 80.2918 112.602 71.0438 114.458C66.4213 115.39 61.7816 116.229 57.1247 116.976C54.9566 117.322 52.6854 117.858 50.4801 117.686C48.2748 117.514 46.6853 116.134 45.2963 114.51C39.6942 107.948 35.3065 100.29 31.7781 92.4567C28.0949 84.2799 25.3369 75.705 23.0456 67.0442C20.59 57.7996 18.7936 48.3925 17.6699 38.8937C17.4006 36.6024 17.1916 34.2826 17.0283 31.9684C16.9882 31.3956 16.109 31.3956 16.1405 31.9684L16.1491 31.9627Z" fill="#09421A"/>
<path d="M144.495 62.9814C143.598 63.0299 142.738 63.3539 142.032 63.9093C141.269 64.4513 140.593 65.1061 140.027 65.8511C139.546 66.5299 139.632 67.4435 140.528 67.687C141.425 67.9304 142.49 67.5037 143.263 67.0855L142.817 66.7304C142.53 68.3457 143.613 69.7405 144.956 70.5052C145.688 70.8898 146.456 71.2043 147.247 71.4446C148.19 71.7625 149.132 72.0747 150.077 72.3897C150.469 72.5214 150.65 71.8999 150.246 71.7711L147.869 70.9777C147.131 70.7548 146.408 70.487 145.704 70.1758C144.466 69.5858 143.163 68.4144 143.412 66.8936C143.426 66.8347 143.423 66.773 143.402 66.7159C143.382 66.6589 143.345 66.609 143.297 66.5721C143.249 66.5352 143.192 66.513 143.131 66.508C143.071 66.5031 143.01 66.5157 142.957 66.5442C142.35 66.8765 141.548 67.2115 140.84 67.117C140.494 67.0741 140.23 66.8679 140.356 66.4927C140.512 66.1575 140.736 65.8589 141.015 65.6163C141.96 64.6167 143.049 63.5141 144.492 63.3738C144.744 63.348 144.756 62.9642 144.492 62.9728L144.495 62.9814Z" fill="#09421A"/>
<path d="M137.275 62.2936C138.541 61.9098 139.812 61.5403 141.087 61.1938C142.307 60.8587 143.555 60.4892 144.81 60.7928C145.907 61.099 146.919 61.6548 147.766 62.4167C148.622 63.1353 149.401 63.9405 150.091 64.8197C150.852 65.8602 151.523 66.964 152.096 68.119C152.256 68.4226 152.789 68.2135 152.669 67.8813C152.213 66.7846 151.611 65.7539 150.882 64.8168C150.164 63.8474 149.344 62.9582 148.436 62.1647C147.575 61.378 146.569 60.767 145.474 60.3661C144.228 59.9479 142.983 60.0969 141.751 60.4491C140.21 60.8873 138.684 61.38 137.169 61.8812C136.911 61.9671 137.017 62.3709 137.28 62.2907L137.275 62.2936Z" fill="#09421A"/>
<path d="M138.455 64.5474C139.117 64.4407 139.763 64.2531 140.379 63.9889C140.427 63.9603 140.462 63.9157 140.48 63.8632C140.497 63.8107 140.495 63.7537 140.474 63.7025C140.452 63.6481 140.41 63.6041 140.357 63.5796C140.304 63.555 140.243 63.5519 140.188 63.5708C139.572 63.7827 138.956 63.9775 138.332 64.1579C138.28 64.1726 138.237 64.207 138.21 64.2536C138.184 64.3003 138.177 64.3554 138.191 64.4071C138.206 64.4587 138.24 64.5025 138.287 64.5292C138.333 64.556 138.388 64.5635 138.44 64.5503L138.455 64.5474Z" fill="#09421A"/>
<path d="M138.827 66.1879C139.305 66.1864 139.783 66.1597 140.259 66.1077C140.292 66.106 140.325 66.0975 140.355 66.0825C140.385 66.0675 140.412 66.0464 140.434 66.0206C140.455 65.9948 140.471 65.9648 140.481 65.9325C140.49 65.9002 140.493 65.8663 140.488 65.8329C140.484 65.7996 140.473 65.7675 140.455 65.7387C140.438 65.7099 140.415 65.685 140.387 65.6656C140.36 65.6462 140.328 65.6327 140.295 65.626C140.263 65.6193 140.229 65.6195 140.196 65.6265C139.737 65.6979 139.276 65.7457 138.812 65.7697C138.757 65.7697 138.704 65.7918 138.665 65.831C138.625 65.8702 138.603 65.9234 138.603 65.9788C138.603 66.0343 138.625 66.0874 138.665 66.1266C138.704 66.1658 138.757 66.1879 138.812 66.1879H138.827Z" fill="#09421A"/>
<path d="M139.672 67.5479C139.814 67.5764 139.957 67.5936 140.102 67.5995H140.488C140.525 67.5991 140.561 67.5909 140.594 67.5755C140.627 67.5601 140.657 67.5379 140.681 67.5102C140.704 67.4826 140.722 67.4502 140.733 67.4152C140.743 67.3801 140.746 67.3433 140.741 67.3071C140.736 67.2709 140.723 67.2361 140.704 67.2052C140.685 67.1742 140.659 67.1477 140.629 67.1274C140.598 67.1071 140.564 67.0935 140.528 67.0875C140.492 67.0815 140.455 67.0832 140.42 67.0926C140.331 67.1174 140.241 67.1365 140.15 67.1498H140.21C140.05 67.1609 139.889 67.1561 139.729 67.1355C139.702 67.1344 139.674 67.1392 139.648 67.1495C139.623 67.1599 139.6 67.1756 139.58 67.1957C139.549 67.2287 139.529 67.2708 139.523 67.3159C139.517 67.3656 139.528 67.4158 139.556 67.4577C139.583 67.4996 139.624 67.5306 139.672 67.545V67.5479Z" fill="#09421A"/>
<path d="M206 71.8274C204.373 73.6832 201.832 74.3849 199.441 74.9921L187.862 77.9392C185.814 78.4605 183.723 78.9874 181.615 78.8328C178.797 78.6294 176.222 77.2375 173.748 75.8771L156.93 66.6263C154.94 65.5351 152.551 64.421 150.506 65.4034C148.902 66.1766 148.092 68.0411 147.943 69.814C147.794 71.5868 148.158 73.3625 148.229 75.141C148.31 76.974 148.078 78.8328 148.418 80.6342C148.759 82.4357 149.85 84.2658 151.617 84.767C153.05 85.1766 154.642 84.6353 156.057 85.1079C157.847 85.7036 158.746 87.6568 160.155 88.9113C160.834 89.5022 161.634 89.9368 162.499 90.1842C163.364 90.4317 164.273 90.486 165.161 90.3433C166.135 90.18 167.083 89.7705 168.068 89.8278C170.385 89.9538 171.792 92.3796 173.705 93.677C174.692 94.3243 175.838 94.6885 177.017 94.7299C178.197 94.7713 179.365 94.4884 180.395 93.9119C181.274 93.4021 182.191 92.6488 183.179 92.8894C183.892 93.0641 184.376 93.72 185.003 94.1066C186.831 95.2322 189.102 93.8746 190.989 92.855C193.67 91.423 196.646 90.6268 199.504 89.5843C203.694 88.0571 207.655 85.9621 211.275 83.3579C212.057 82.7851 212.842 82.1865 213.323 81.3531C213.953 80.2591 213.973 78.9244 213.896 77.6642C213.844 76.954 213.755 76.2122 213.357 75.6193C212.959 75.0265 212.172 74.637 211.516 74.9148" fill="#032C17"/>
<path d="M205.857 71.6868C204.138 73.5398 201.587 74.1756 199.229 74.7541C196.237 75.4873 193.255 76.2491 190.268 76.9995C188.793 77.369 187.324 77.7671 185.837 78.0878C184.378 78.4496 182.871 78.5792 181.372 78.4716C178.548 78.1852 176.005 76.7102 173.571 75.3642C168.202 72.3932 162.824 69.4337 157.438 66.4857C155.292 65.3057 152.509 63.8365 150.109 65.2112C147.972 66.4313 147.465 69.132 147.571 71.386C147.64 72.8725 147.883 74.3417 147.898 75.831C147.912 77.3203 147.8 78.7895 148.006 80.2588C148.307 82.4097 149.57 84.7868 151.896 85.205C153.239 85.4484 154.662 85.0245 155.974 85.4627C157.002 85.8035 157.735 86.6856 158.4 87.4962C159.136 88.384 159.861 89.269 160.86 89.8704C161.922 90.5026 163.142 90.8204 164.377 90.7869C165.7 90.7497 166.995 90.0337 168.321 90.2141C169.363 90.3631 170.22 91.0476 170.973 91.7378C171.775 92.4738 172.52 93.2758 173.41 93.9059C174.381 94.5808 175.514 94.9869 176.692 95.083C177.878 95.181 179.069 94.9678 180.146 94.4643C181.129 94.0004 182.32 92.7459 183.472 93.4104C183.964 93.6968 184.331 94.135 184.821 94.43C185.312 94.7279 185.873 94.8918 186.447 94.9054C187.713 94.9426 188.933 94.3698 190.027 93.7999C191.219 93.1467 192.442 92.554 193.693 92.0242C195.008 91.5029 196.354 91.0647 197.703 90.6151C200.348 89.7451 202.923 88.6736 205.404 87.4102C206.642 86.7706 207.849 86.0804 209.027 85.3396C210.178 84.6383 211.284 83.8674 212.341 83.0312C213.352 82.2522 214.028 81.1158 214.228 79.8549C214.315 79.2115 214.336 78.5609 214.291 77.9131C214.287 77.2596 214.179 76.6109 213.971 75.9914C213.575 74.9804 212.539 74.1727 211.427 74.5909C211.021 74.7427 211.195 75.3985 211.608 75.2467C212.149 75.0434 212.716 75.3699 213.04 75.8195C213.401 76.3322 213.478 77.0052 213.524 77.6153C213.618 78.884 213.621 80.2616 212.899 81.3671C212.221 82.3982 211.055 83.0856 210.055 83.7787C208.94 84.5424 207.795 85.2546 206.619 85.9152C204.26 87.2493 201.793 88.3827 199.244 89.3034C196.7 90.2199 194.088 90.9502 191.637 92.133C189.692 93.0724 186.966 95.2319 184.861 93.545C184.47 93.1758 184.027 92.8669 183.546 92.6285C183.004 92.4299 182.407 92.4494 181.879 92.6829C181.341 92.9281 180.823 93.2154 180.33 93.5421C179.823 93.8511 179.273 94.0809 178.697 94.2238C177.575 94.4882 176.402 94.4347 175.309 94.0691C174.238 93.7111 173.382 93.0237 172.571 92.2562C171.818 91.543 171.09 90.7783 170.214 90.2113C169.339 89.6254 168.277 89.3856 167.235 89.5382C166.554 89.6385 165.898 89.8618 165.231 89.9879C164.635 90.0981 164.026 90.1097 163.426 90.0222C162.224 89.8499 161.106 89.3027 160.233 88.4585C159.457 87.7081 158.858 86.8002 158.102 86.0326C157.358 85.2227 156.348 84.7073 155.255 84.5806C154.004 84.4517 152.678 84.8068 151.466 84.3343C150.458 83.939 149.748 83.0426 149.295 82.086C148.745 80.9146 148.642 79.6029 148.631 78.3256C148.631 76.8935 148.688 75.4845 148.559 74.061C148.339 71.6438 147.832 68.8084 149.478 66.7406C151.246 64.521 154.144 65.5635 156.24 66.6661C158.818 68.0294 161.378 69.4872 163.945 70.8991C166.559 72.3312 169.174 73.7832 171.795 75.2152C174.175 76.5184 176.558 77.9819 179.184 78.7437C180.496 79.1293 181.866 79.2806 183.231 79.1905C184.659 79.0563 186.071 78.7947 187.453 78.4086C190.317 77.6783 193.181 76.9279 196.045 76.189C197.431 75.831 198.823 75.4816 200.206 75.1064C201.344 74.821 202.456 74.4377 203.528 73.9608C204.538 73.4959 205.439 72.8258 206.175 71.9932C206.341 71.7985 206.069 71.5178 205.888 71.7068L205.857 71.6868Z" fill="#032C17"/>
<path d="M187.891 147.925C184.966 154.584 182.014 161.243 178.983 167.83C175.97 174.383 172.889 180.907 169.664 187.363C166.439 193.818 163.054 200.251 159.502 206.552C157.727 209.714 155.902 212.847 154.029 215.951C153.62 216.694 153.167 217.412 152.674 218.102C152.223 218.667 151.715 219.184 151.159 219.646C149.996 220.63 148.715 221.468 147.347 222.141C146.611 222.507 145.815 222.713 145.056 223.051C144.463 223.306 143.793 223.624 143.512 224.254C143.418 224.476 143.373 224.716 143.379 224.958C143.385 225.199 143.443 225.436 143.548 225.653C143.654 225.87 143.805 226.062 143.991 226.216C144.177 226.37 144.394 226.482 144.627 226.545C144.963 226.601 145.305 226.608 145.643 226.565L147.044 226.502C147.903 226.468 148.762 226.439 149.604 226.422C151.197 226.394 152.792 226.402 154.384 226.468C155.224 226.502 156.064 226.548 156.902 226.606C157.619 226.678 158.34 226.708 159.061 226.694C159.731 226.679 160.396 226.578 161.04 226.394C161.437 226.315 161.786 226.082 162.011 225.746C162.475 224.939 162.547 223.865 162.684 222.965C162.759 222.473 162.825 221.977 162.925 221.49C163.057 220.987 163.26 220.504 163.529 220.058C166.634 214.199 170.403 208.754 174.412 203.481C178.33 198.326 182.412 193.297 186.109 187.976C188.077 185.146 189.95 182.248 191.64 179.232C193.329 176.216 194.79 173.048 195.529 169.649C195.893 167.968 196.102 166.212 196.743 164.608C197.178 163.609 197.732 162.667 198.393 161.801C199.948 159.633 201.773 157.654 203.594 155.709C204.316 154.942 205.046 154.186 205.762 153.418C206.049 153.112 205.587 152.648 205.301 152.954C203.669 154.701 202.01 156.428 200.452 158.244C198.894 160.06 197.285 161.936 196.337 164.113C195.701 165.562 195.454 167.168 195.148 168.712C194.82 170.421 194.341 172.097 193.716 173.721C192.453 176.92 190.68 179.913 188.847 182.823C185.376 188.368 181.401 193.558 177.391 198.721C173.499 203.739 169.624 208.783 166.27 214.187C165.373 215.631 164.513 217.097 163.692 218.586C163.314 219.277 162.893 219.967 162.578 220.688C162.439 221.036 162.342 221.4 162.292 221.771C162.12 222.779 162.026 223.81 161.756 224.801C161.682 225.088 161.599 225.477 161.352 225.66C160.868 226.021 160.006 226.067 159.431 226.116C157.927 226.239 156.401 226.007 154.897 225.935C153.324 225.861 151.751 225.828 150.18 225.838C148.482 225.838 146.786 225.973 145.088 225.993C144.829 226.007 144.575 225.928 144.37 225.77C144.165 225.613 144.023 225.387 143.971 225.133C143.83 224.466 144.32 224.074 144.856 223.79C145.577 223.406 146.376 223.2 147.127 222.882C147.788 222.592 148.427 222.254 149.04 221.871C150.325 221.122 151.503 220.203 152.543 219.139C153.631 217.993 154.367 216.521 155.178 215.169C156.102 213.627 157.015 212.074 157.919 210.513C161.487 204.343 164.881 198.078 168.1 191.716C171.319 185.354 174.43 178.929 177.431 172.441C180.436 165.96 183.322 159.424 186.178 152.877C186.871 151.29 187.561 149.703 188.249 148.114C188.357 147.862 187.988 147.642 187.876 147.896L187.891 147.925Z" fill="#212529"/>
<path d="M203.354 107.653C199.126 122.139 190.909 135.076 184.414 148.7C183.944 149.689 183.472 150.742 183.589 151.828C183.812 153.91 186 155.13 187.957 155.872C192.622 157.592 197.472 158.763 202.408 159.36C209.617 160.3 217.015 160.305 224.098 158.736C231.18 157.167 238.011 153.976 243.353 149.044C243.766 148.723 244.079 148.291 244.255 147.798C244.332 147.363 244.305 146.915 244.177 146.492C242.427 138.513 240.577 130.511 237.53 122.93C234.483 115.349 230.178 108.143 224.121 102.661C223.791 102.375 223.336 102.051 222.938 102.252" fill="#09421A"/>
<path d="M203.136 107.594C201.447 112.961 199.38 118.202 196.95 123.277C194.555 128.352 191.92 133.301 189.32 138.273C188.017 140.771 186.719 143.271 185.468 145.794C184.849 147.043 184.185 148.289 183.666 149.583C183.208 150.729 183.059 151.949 183.62 153.077C184.631 155.114 187.149 155.961 189.139 156.66C191.913 157.629 194.753 158.395 197.637 158.951C203.442 160.114 209.368 160.564 215.282 160.289C220.816 160.003 226.32 158.937 231.47 156.852C233.873 155.89 236.181 154.708 238.366 153.321C239.449 152.628 240.494 151.882 241.502 151.084C242.001 150.689 242.49 150.28 242.972 149.858C243.448 149.479 243.88 149.047 244.258 148.569C244.434 148.303 244.554 148.003 244.607 147.687C244.661 147.372 244.648 147.049 244.57 146.739C244.441 146.026 244.263 145.307 244.106 144.617C243.785 143.177 243.457 141.738 243.121 140.298C242.442 137.434 241.714 134.57 240.887 131.729C239.334 126.408 237.41 121.175 234.821 116.263C232.403 111.681 229.402 107.365 225.71 103.71C225.272 103.275 224.825 102.851 224.361 102.43C223.949 102.066 223.416 101.705 222.846 101.932C222.442 102.092 222.62 102.754 223.029 102.59C223.576 102.373 224.232 103.229 224.585 103.564C225.033 103.992 225.473 104.427 225.905 104.87C226.778 105.775 227.612 106.716 228.408 107.694C230.004 109.661 231.453 111.743 232.741 113.923C235.448 118.474 237.51 123.375 239.162 128.398C240.941 133.814 242.256 139.367 243.484 144.929C243.636 145.611 243.817 146.295 243.931 146.983C244.057 147.75 243.728 148.234 243.195 148.738C242.268 149.598 241.293 150.404 240.274 151.153C238.251 152.647 236.09 153.946 233.821 155.031C229.048 157.276 223.935 158.709 218.69 159.272C212.962 159.928 207.128 159.696 201.423 158.88C198.603 158.48 195.81 157.906 193.06 157.161C191.691 156.786 190.331 156.365 188.993 155.887C187.891 155.534 186.834 155.053 185.843 154.455C185.015 153.917 184.242 153.178 183.981 152.195C183.615 150.821 184.388 149.46 184.964 148.26C186.135 145.82 187.358 143.391 188.598 141C191.101 136.145 193.682 131.331 196.082 126.425C198.499 121.601 200.604 116.626 202.383 111.532C202.812 110.266 203.21 108.989 203.566 107.697C203.573 107.669 203.575 107.639 203.572 107.61C203.568 107.581 203.558 107.552 203.544 107.527C203.514 107.475 203.465 107.438 203.408 107.422C203.38 107.414 203.35 107.412 203.321 107.416C203.292 107.42 203.263 107.429 203.238 107.444C203.186 107.473 203.149 107.522 203.133 107.58L203.136 107.594Z" fill="#09421A"/>
<path d="M225.303 115.452L221.463 118.711C221.026 119.043 220.649 119.447 220.348 119.906C220.201 120.137 220.115 120.403 220.099 120.677C220.083 120.951 220.137 121.225 220.257 121.472C220.543 121.945 221.236 122.163 221.66 121.816C220.693 123.587 219.971 125.481 219.515 127.447C219.415 127.879 219.426 128.483 219.856 128.592C220.205 128.675 220.497 128.337 220.695 128.04L222.23 125.711C221.746 126.155 222.159 127.089 222.803 127.18C223.447 127.272 224.063 126.713 224.235 126.078C223.751 126.364 224.166 127.175 224.716 127.292C224.916 127.326 225.12 127.318 225.317 127.267C225.513 127.217 225.696 127.125 225.854 126.998C226.012 126.871 226.141 126.713 226.234 126.532C226.326 126.352 226.379 126.154 226.389 125.952C225.862 126.358 226.317 127.309 226.962 127.412C227.606 127.515 228.236 127.083 228.717 126.625C229.708 125.675 230.489 124.528 231.008 123.257C231.528 121.987 231.775 120.622 231.733 119.25" fill="#F8F9FA"/>
<path d="M225.157 115.306C224.298 115.999 223.439 116.689 222.597 117.379C221.829 117.998 220.93 118.608 220.305 119.384C219.821 119.997 219.544 120.902 219.97 121.627C220.331 122.24 221.211 122.52 221.809 122.085L221.371 121.655C220.836 122.641 220.373 123.665 219.985 124.717C219.794 125.25 219.618 125.79 219.458 126.338C219.287 126.82 219.177 127.321 219.131 127.83C219.113 128.007 219.137 128.185 219.203 128.35C219.269 128.514 219.374 128.66 219.509 128.775C219.668 128.879 219.856 128.925 220.045 128.908C220.233 128.89 220.41 128.809 220.546 128.678C220.936 128.36 221.185 127.85 221.457 127.438L222.494 125.863C222.691 125.562 222.244 125.221 221.995 125.479C221.422 126.08 221.749 127.097 222.482 127.406C223.393 127.79 224.284 126.983 224.53 126.155C224.545 126.095 224.542 126.033 224.522 125.975C224.502 125.917 224.465 125.866 224.416 125.828C224.368 125.791 224.309 125.769 224.248 125.764C224.187 125.759 224.125 125.773 224.072 125.803C223.278 126.358 223.931 127.472 224.725 127.601C224.964 127.63 225.207 127.609 225.438 127.54C225.669 127.471 225.883 127.355 226.067 127.2C226.252 127.045 226.402 126.853 226.51 126.638C226.617 126.422 226.679 126.186 226.692 125.946C226.69 125.885 226.671 125.827 226.637 125.777C226.602 125.727 226.554 125.688 226.498 125.665C226.442 125.641 226.381 125.635 226.321 125.645C226.262 125.656 226.207 125.684 226.162 125.725C225.63 126.192 225.833 127.005 226.32 127.426C227.007 128.022 227.955 127.644 228.582 127.154C230.06 125.994 231.117 124.204 231.658 122.426C231.984 121.398 232.126 120.321 232.077 119.244C232.069 119.16 232.03 119.082 231.968 119.025C231.905 118.969 231.824 118.937 231.74 118.937C231.656 118.937 231.575 118.969 231.512 119.025C231.45 119.082 231.411 119.16 231.403 119.244C231.438 121.153 230.926 123.032 229.929 124.66C229.44 125.497 228.786 126.226 228.007 126.802C227.666 127.028 227.148 127.269 226.761 126.983C226.515 126.796 226.334 126.41 226.601 126.166L226.071 125.946C226.052 126.203 225.947 126.447 225.772 126.637C225.597 126.828 225.363 126.953 225.108 126.994C225.002 127.017 224.892 127.014 224.788 126.985C224.683 126.955 224.588 126.9 224.51 126.825C224.412 126.728 224.223 126.456 224.387 126.341L223.928 125.989C223.794 126.435 223.338 126.994 222.803 126.848C222.439 126.756 222.153 126.221 222.442 125.92L221.947 125.536C221.434 126.309 220.936 127.1 220.406 127.862C220.265 128.065 219.879 128.515 219.784 128.042C219.763 127.668 219.821 127.293 219.956 126.942C220.415 125.213 221.082 123.545 221.944 121.976C222.084 121.718 221.78 121.34 221.505 121.541C221.395 121.624 221.261 121.669 221.123 121.669C220.985 121.669 220.851 121.624 220.741 121.541C220.611 121.43 220.514 121.287 220.46 121.125C220.406 120.964 220.397 120.791 220.434 120.624C220.552 119.903 221.168 119.393 221.689 118.943C222.955 117.843 224.203 116.726 225.458 115.612C225.661 115.435 225.369 115.157 225.171 115.326L225.157 115.306Z" fill="#F8F9FA"/>
<path d="M196.849 50.9575C196.991 52.4095 196.817 53.8749 196.34 55.2535C196.101 55.9377 195.734 56.5704 195.26 57.118C194.845 57.5791 194.114 58.0889 194.266 58.8106C194.324 59.0616 194.477 59.2803 194.693 59.4207C194.825 59.5066 194.933 59.5295 194.979 59.7071C195.008 59.9309 194.984 60.1583 194.91 60.3715C194.786 61.0533 194.714 61.7437 194.696 62.4365C194.667 63.7597 194.804 65.3005 195.689 66.3631C196.64 67.5087 198.241 67.7349 199.616 67.4228C199.974 67.3426 199.822 66.7955 199.464 66.8729C198.284 67.1335 196.912 66.9273 196.105 65.9507C195.297 64.974 195.223 63.3501 195.283 62.0957C195.314 61.4026 195.452 60.7381 195.546 60.0508C195.595 59.7805 195.538 59.502 195.389 59.2718C195.246 59.0713 194.965 59.0169 194.85 58.8106C194.638 58.4412 195.12 58.0402 195.349 57.8111C195.575 57.5875 195.783 57.3462 195.97 57.0894C196.338 56.5714 196.627 56.002 196.829 55.3996C197.29 53.9729 197.431 52.462 197.242 50.9747C197.213 50.7198 196.815 50.7112 196.835 50.9747L196.849 50.9575Z" fill="#212529"/>
<path d="M198.427 56.6342L198.384 56.6686L198.33 56.6915H198.347H198.284H198.31H198.247H198.27L198.212 56.6686H198.235L198.184 56.6314L198.25 56.6801L198.198 56.6428L198.215 56.6571L198.175 56.6085C198.183 56.6178 198.19 56.6285 198.195 56.64L198.169 56.5827C198.179 56.6036 198.186 56.6258 198.189 56.6486V56.5827C198.197 56.6445 198.197 56.707 198.189 56.7688V56.7001C198.185 56.7412 198.175 56.7816 198.161 56.8204L198.187 56.7574C198.18 56.7745 198.171 56.7908 198.161 56.8061L198.201 56.7517L198.178 56.7774L198.229 56.7345C198.222 56.7428 198.212 56.7488 198.201 56.7517L198.264 56.7259H198.247H198.318H198.301H198.37H198.347L198.413 56.7545L198.384 56.7402L198.439 56.7803C198.437 56.7747 198.437 56.7687 198.439 56.7631L198.479 56.8204V56.8061L198.507 56.8691C198.506 56.8644 198.506 56.8594 198.507 56.8548V56.9264C198.507 56.8949 198.507 56.8605 198.507 56.829V56.9006C198.507 56.8543 198.495 56.8089 198.471 56.7688C198.448 56.7286 198.415 56.6951 198.376 56.6715C198.335 56.6475 198.289 56.6349 198.242 56.6349C198.195 56.6349 198.149 56.6475 198.109 56.6715C198.087 56.6861 198.066 56.7024 198.046 56.7202C197.996 56.7725 197.967 56.8422 197.966 56.9149C197.964 56.9742 197.979 57.0327 198.009 57.0839C198.055 57.1645 198.131 57.2241 198.221 57.25C198.268 57.2651 198.318 57.27 198.367 57.2646C198.417 57.2592 198.464 57.2435 198.507 57.2185C198.539 57.2015 198.568 57.1792 198.593 57.1526C198.62 57.1243 198.643 57.0925 198.662 57.0581C198.712 56.9458 198.735 56.823 198.728 56.7001C198.733 56.5594 198.686 56.4218 198.596 56.3135C198.555 56.2753 198.506 56.2478 198.452 56.2333C198.398 56.2189 198.341 56.2178 198.287 56.2304C198.253 56.2371 198.221 56.2507 198.192 56.2705C198.163 56.289 198.137 56.3134 198.118 56.3421C198.097 56.3697 198.08 56.4007 198.069 56.4338V56.491C198.066 56.5208 198.072 56.5507 198.086 56.577C198.104 56.6213 198.137 56.6585 198.178 56.6829C198.213 56.7009 198.251 56.7117 198.29 56.7144C198.348 56.7127 198.405 56.6893 198.447 56.6486L198.427 56.6342Z" fill="#09421A"/>
<path d="M198.043 54.7694L198.19 54.7179L198.278 54.6978H198.316C198.423 54.6864 198.532 54.6864 198.639 54.6978C198.651 54.6953 198.664 54.6953 198.676 54.6978C198.703 54.7022 198.728 54.7079 198.754 54.715C198.805 54.7277 198.856 54.743 198.906 54.7609L198.94 54.778L199.02 54.8181C199.069 54.8439 199.115 54.8754 199.163 54.9041C199.215 54.9324 199.276 54.9413 199.334 54.9291C199.392 54.9169 199.444 54.8844 199.48 54.8375C199.516 54.7906 199.534 54.7323 199.531 54.6731C199.529 54.6139 199.505 54.5577 199.464 54.5145C199.241 54.3259 198.962 54.2153 198.671 54.1995C198.399 54.1813 198.128 54.2409 197.889 54.3713C197.842 54.3977 197.807 54.4402 197.79 54.4908C197.773 54.5414 197.775 54.5965 197.796 54.6457C197.817 54.6949 197.855 54.7347 197.903 54.7575C197.952 54.7803 198.007 54.7846 198.058 54.7694H198.043Z" fill="#09421A"/>
<path d="M196.984 61.3134C197.193 61.297 197.4 61.2557 197.6 61.1903C197.804 61.1248 197.997 61.0282 198.173 60.9039C198.223 60.8719 198.26 60.8217 198.275 60.7637C198.29 60.7057 198.282 60.6441 198.253 60.5917C198.222 60.5407 198.172 60.5038 198.114 60.4888C198.057 60.4738 197.995 60.482 197.943 60.5115L197.694 60.6432L197.56 60.7091C197.56 60.7091 197.497 60.7378 197.545 60.7091L197.474 60.7349C197.298 60.8017 197.116 60.8488 196.93 60.8752C196.881 60.8892 196.838 60.9204 196.81 60.963C196.783 61.0056 196.771 61.0568 196.778 61.1072C196.784 61.1581 196.809 61.2049 196.847 61.2387C196.886 61.2725 196.936 61.2909 196.987 61.2905L196.984 61.3134Z" fill="#09421A"/>
<path d="M203.328 57.5054C203.428 57.3216 203.589 57.1782 203.783 57.0999C203.978 57.0216 204.193 57.013 204.393 57.0758C204.575 57.1746 204.726 57.3207 204.832 57.4987C204.937 57.6767 204.992 57.8799 204.992 58.0868C205.003 58.5039 204.851 58.909 204.568 59.2152C204.424 59.375 204.255 59.5096 204.066 59.6133C203.972 59.6649 203.703 59.8253 203.597 59.7393C203.543 59.686 203.471 59.6561 203.395 59.6561C203.319 59.6561 203.247 59.686 203.193 59.7393C203.141 59.7929 203.111 59.8649 203.111 59.9398C203.111 60.0148 203.141 60.0868 203.193 60.1403C203.625 60.4954 204.172 60.2406 204.576 59.9656C204.997 59.6901 205.321 59.2894 205.501 58.82C205.674 58.3348 205.65 57.8016 205.435 57.3336C205.332 57.0901 205.16 56.8821 204.94 56.735C204.721 56.588 204.463 56.5083 204.198 56.5059C203.663 56.5345 203.053 56.841 202.912 57.388C202.897 57.4431 202.904 57.5019 202.933 57.5516C202.961 57.6013 203.008 57.6377 203.063 57.6529C203.118 57.6681 203.177 57.6608 203.226 57.6326C203.276 57.6044 203.312 57.5576 203.328 57.5025V57.5054Z" fill="#09421A"/>
<path d="M204.104 57.9629C204.055 57.9644 204.006 57.9702 203.958 57.9801C203.909 57.9909 203.863 58.0093 203.82 58.0345C203.747 58.073 203.681 58.1222 203.622 58.1806C203.588 58.2171 203.556 58.2564 203.528 58.298C203.5 58.3365 203.478 58.3789 203.462 58.424C203.454 58.454 203.449 58.4847 203.448 58.5156C203.445 58.5269 203.445 58.5387 203.448 58.55C203.45 58.5998 203.463 58.6486 203.485 58.6932C203.499 58.7184 203.516 58.7415 203.537 58.762C203.586 58.8103 203.653 58.8371 203.723 58.8364C203.778 58.8378 203.831 58.8208 203.875 58.7881C203.92 58.7554 203.951 58.7089 203.966 58.656C203.969 58.6293 203.969 58.6025 203.966 58.5758C203.971 58.5483 203.971 58.5202 203.966 58.4927C203.956 58.4473 203.933 58.4056 203.9 58.3724C203.88 58.3546 203.858 58.3392 203.834 58.3266C203.801 58.3063 203.762 58.2955 203.723 58.2951C203.682 58.2954 203.643 58.3062 203.608 58.3266C203.575 58.3457 203.547 58.3734 203.528 58.4068C203.508 58.4406 203.497 58.4791 203.496 58.5185C203.498 58.5211 203.499 58.5241 203.499 58.5271C203.499 58.5301 203.498 58.5331 203.496 58.5357V58.4755V58.5156C203.491 58.5372 203.491 58.5599 203.496 58.5815C203.496 58.5815 203.496 58.6073 203.496 58.6187V58.5557V58.5758V58.5099C203.498 58.5165 203.498 58.5234 203.496 58.53L203.519 58.4727L203.663 58.3639H203.726H203.789L203.846 58.3896L203.895 58.4269L203.932 58.4755C203.932 58.4755 203.932 58.4756 203.932 58.4612L203.955 58.5156C203.955 58.5156 203.955 58.5156 203.955 58.4956V58.5586V58.5185V58.5815C203.953 58.5692 203.953 58.5566 203.955 58.5443L203.929 58.5987C203.946 58.5646 203.966 58.532 203.989 58.5013L203.955 58.55C203.986 58.5073 204.024 58.4696 204.066 58.4383L204.021 58.4727C204.053 58.4464 204.089 58.4243 204.127 58.4068C204.164 58.3896 204.195 58.3667 204.233 58.3495L204.187 58.3696C204.212 58.364 204.236 58.3522 204.255 58.3352C204.276 58.3196 204.294 58.3002 204.307 58.2779C204.327 58.2383 204.335 58.1933 204.33 58.1491C204.323 58.1015 204.299 58.0579 204.263 58.0264C204.227 57.9949 204.18 57.9774 204.132 57.9772L204.104 57.9629Z" fill="#09421A"/>
<path d="M203.792 56.5484C202.915 56.0844 202.36 55.1851 201.904 54.3116C201.449 53.4381 200.971 52.4815 200.558 51.5392C200.146 50.597 199.768 49.5917 199.928 48.5807C199.285 50.234 198.194 51.6758 196.778 52.745C196.543 52.1366 196.445 51.4838 196.491 50.8332C196.538 50.1826 196.728 49.5503 197.047 48.9816C197.702 47.8511 198.69 46.9508 199.877 46.404C200.146 46.2723 200.51 46.1749 200.707 46.404C201.527 46.0429 202.416 45.8668 203.311 45.8885C205.018 45.906 206.678 46.449 208.065 47.4437C209.612 48.5578 210.717 50.1674 211.788 51.7397C212.121 52.2038 212.421 52.6909 212.685 53.1975C212.945 53.7302 213.126 54.2973 213.375 54.8328C213.744 55.6119 214.257 56.3164 214.649 57.0868C215.042 57.8573 215.305 58.7365 215.122 59.5814C214.904 60.5752 214.114 61.3342 213.323 61.9729C210.875 63.9634 207.982 65.4899 204.863 65.9653C204.712 66.0007 204.555 65.9947 204.408 65.9481C204.121 65.825 204.044 65.4469 204.027 65.129C203.95 63.6907 204.046 62.2484 204.313 60.833C204.335 60.6709 204.382 60.5134 204.453 60.3661C204.586 60.1663 204.751 59.9893 204.94 59.842C205.568 59.2692 205.969 58.3728 205.779 57.5365C205.59 56.7002 204.688 56.0329 203.866 56.2677" fill="#09421A"/>
<path d="M203.9 56.3399C203.777 56.2664 203.661 56.1845 203.55 56.0954C202.628 55.3551 202.103 54.1195 201.609 53.0893C201.277 52.4133 200.956 51.726 200.675 51.0243C200.395 50.3239 200.127 49.4808 200.237 48.6716L200.237 48.6672C200.251 48.5887 200.235 48.5079 200.192 48.4406C200.149 48.3734 200.083 48.3244 200.006 48.3033C199.929 48.2822 199.847 48.2905 199.776 48.3265C199.705 48.3626 199.65 48.4238 199.621 48.4982C199.051 49.9386 198.131 51.2119 196.948 52.2051C196.841 52.295 196.731 52.3826 196.62 52.4678L197.093 52.6597C197.036 52.5106 196.987 52.3589 196.948 52.2051C196.82 51.7094 196.783 51.1933 196.841 50.682C196.917 50.0121 197.152 49.3703 197.528 48.8104C197.87 48.2905 198.296 47.8308 198.788 47.45C199.031 47.2602 199.288 47.088 199.556 46.9345C199.722 46.8342 200.283 46.439 200.481 46.6137C200.534 46.6615 200.6 46.6918 200.671 46.7005C200.741 46.7092 200.813 46.6959 200.876 46.6624C202.308 46.018 204.012 46.0896 205.496 46.5192C206.928 46.9671 208.213 47.791 209.219 48.9049C210.23 50.0362 211.134 51.2586 211.92 52.5566C212.315 53.2443 212.655 53.9626 212.936 54.7046C213.277 55.4223 213.66 56.1195 214.082 56.7924C214.505 57.4398 214.757 58.1837 214.815 58.9548C214.795 59.6907 214.487 60.3893 213.956 60.8995C212.917 61.9398 211.736 62.827 210.448 63.5344C209.158 64.3042 207.771 64.8976 206.323 65.2986C205.991 65.3874 205.659 65.4647 205.321 65.5277C205.143 65.5694 204.964 65.601 204.782 65.6222C204.556 65.6394 204.47 65.5965 204.413 65.3788C204.348 65.0151 204.326 64.6449 204.35 64.2761C204.35 63.8351 204.35 63.394 204.387 62.9558C204.422 62.4518 204.476 61.9506 204.548 61.4522C204.611 61.0283 204.619 60.5672 204.943 60.2551C205.481 59.7281 205.96 59.1925 206.106 58.4249C206.366 57.0531 205.246 55.581 203.78 55.9075C203.658 55.9342 203.584 56.0067 203.55 56.0954C203.459 56.3298 203.647 56.6771 203.969 56.592C204.651 56.4087 205.329 56.9414 205.478 57.603C205.647 58.3677 205.232 59.1295 204.685 59.6336C204.439 59.8321 204.243 60.0851 204.112 60.3725C203.978 60.7999 203.891 61.2407 203.852 61.6871C203.73 62.5916 203.675 63.5039 203.688 64.4165C203.688 64.975 203.623 65.8485 204.184 66.1864C204.496 66.3783 204.874 66.2953 205.215 66.238C205.613 66.1693 206.008 66.0833 206.398 65.9831C207.913 65.583 209.367 64.9789 210.72 64.1874C212.082 63.4471 213.335 62.5218 214.443 61.4379C214.977 60.9237 215.348 60.2631 215.508 59.539C215.615 58.7912 215.504 58.0283 215.187 57.3423C214.812 56.5723 214.397 55.8219 213.944 55.0941C213.546 54.3637 213.317 53.559 212.925 52.8258C212.513 52.1031 212.057 51.4068 211.559 50.7408C211.102 50.0805 210.611 49.4439 210.09 48.8333C208.957 47.4826 207.469 46.4757 205.793 45.9263C204.101 45.4022 202.191 45.3678 200.555 46.1039L200.95 46.1555C200.34 45.6227 199.518 46.1927 198.946 46.5507C198.286 46.9713 197.705 47.5033 197.227 48.123C196.219 49.4519 195.838 51.2735 196.474 52.8344C196.54 53.0005 196.76 53.1666 196.944 53.0262C198.419 51.9035 199.558 50.3972 200.237 48.6716L200.237 48.6701L199.621 48.5011C199.392 50.188 200.306 51.8119 201.033 53.2754C201.675 54.5556 202.334 56.0678 203.671 56.7581C203.726 56.7847 203.789 56.7897 203.847 56.772C203.905 56.7542 203.954 56.7151 203.985 56.6624C204.015 56.6098 204.025 56.5476 204.011 56.4882C203.998 56.4289 203.962 56.377 203.912 56.3428L203.9 56.3399Z" fill="#212529"/>
<path d="M200.675 51.0243C200.956 51.726 201.277 52.4133 201.609 53.0893C202.103 54.1195 202.628 55.3551 203.55 56.0954C203.584 56.0067 203.658 55.9342 203.78 55.9075C205.246 55.581 206.366 57.0531 206.106 58.4249C205.96 59.1925 205.481 59.7281 204.943 60.2551C204.619 60.5672 204.611 61.0283 204.548 61.4522C204.476 61.9506 204.422 62.4518 204.387 62.9558C204.35 63.394 204.35 63.8351 204.35 64.2761C204.326 64.6449 204.348 65.0151 204.413 65.3788C204.47 65.5965 204.556 65.6394 204.782 65.6222C204.964 65.601 205.143 65.5694 205.321 65.5277C205.659 65.4647 205.991 65.3874 206.323 65.2986C207.771 64.8976 209.158 64.3042 210.448 63.5344C211.736 62.827 212.917 61.9398 213.956 60.8995C214.487 60.3893 214.795 59.6907 214.815 58.9548C214.757 58.1837 214.505 57.4398 214.082 56.7924C213.66 56.1195 213.277 55.4223 212.936 54.7046C212.655 53.9626 212.315 53.2443 211.92 52.5566C211.134 51.2586 210.23 50.0362 209.219 48.9049C208.213 47.791 206.928 46.9671 205.496 46.5192C204.012 46.0896 202.308 46.018 200.876 46.6624C200.813 46.6959 200.741 46.7092 200.671 46.7005C200.6 46.6918 200.534 46.6615 200.481 46.6137C200.283 46.439 199.722 46.8342 199.556 46.9345C199.288 47.088 199.031 47.2602 198.788 47.45C198.296 47.8308 197.87 48.2905 197.528 48.8104C197.152 49.3703 196.917 50.0121 196.841 50.682C196.783 51.1933 196.82 51.7094 196.948 52.2051C198.131 51.2119 199.051 49.9386 199.621 48.4982C199.65 48.4238 199.705 48.3626 199.776 48.3265C199.847 48.2905 199.929 48.2822 200.006 48.3033C200.083 48.3244 200.149 48.3734 200.192 48.4406C200.235 48.5079 200.251 48.5887 200.237 48.6672V48.6701L200.237 48.6716C200.127 49.4808 200.395 50.3239 200.675 51.0243Z" fill="#212529"/>
<path d="M212.069 63.3392C212.123 63.3392 212.176 63.3174 212.214 63.2788C212.253 63.2401 212.275 63.1877 212.275 63.133C212.275 63.0783 212.253 63.0258 212.214 62.9872C212.176 62.9485 212.123 62.9268 212.069 62.9268C212.014 62.9268 211.962 62.9485 211.923 62.9872C211.884 63.0258 211.863 63.0783 211.863 63.133C211.863 63.1877 211.884 63.2401 211.923 63.2788C211.962 63.3174 212.014 63.3392 212.069 63.3392Z" fill="#09421A"/>
<path d="M203.379 73.2504C202.984 71.962 202.515 70.6977 201.973 69.4641C201.706 68.8598 201.4 68.267 201.113 67.6827C200.919 67.3047 200.558 66.6087 200.014 66.8235C199.959 66.8495 199.913 66.8925 199.884 66.9461C199.855 66.9997 199.844 67.0611 199.852 67.1215C199.861 67.1818 199.888 67.238 199.93 67.2818C199.973 67.3255 200.028 67.3546 200.088 67.3648C200.326 67.3877 200.429 67.7028 200.526 67.8861C200.658 68.1266 200.784 68.3672 200.907 68.6107C201.162 69.1147 201.406 69.6245 201.646 70.1315C202.148 71.1854 202.596 72.2614 202.989 73.3592C203.081 73.6084 203.476 73.5082 203.393 73.2475L203.379 73.2504Z" fill="#212529"/>
<path d="M211.462 69.3648C210.657 68.415 209.93 67.4017 209.288 66.3347C208.707 65.3009 208.279 64.1887 208.016 63.0325C207.925 62.6401 207.306 62.8062 207.409 63.2014C207.721 64.3984 208.203 65.5443 208.841 66.6039C209.532 67.688 210.309 68.7148 211.164 69.6741C211.347 69.8918 211.645 69.5825 211.473 69.3648H211.462Z" fill="#212529"/>
<path d="M211.304 68.125L203.534 70.8573C202.855 71.0465 202.22 71.3666 201.664 71.7996C201.137 72.2664 200.805 73.0168 201.016 73.6841C201.137 73.9206 201.21 74.1784 201.231 74.443C201.189 74.6512 201.09 74.8436 200.945 74.9987C199.009 77.5419 197.27 80.2799 196.228 83.3043C195.185 86.3288 194.879 89.6682 195.795 92.7299C196.998 96.7395 200.203 100.093 200.578 104.26C200.707 105.675 200.544 107.268 201.475 108.342C202.085 109.052 203.041 109.353 203.966 109.487C207.085 109.98 210.244 109.052 213.217 107.981C216.865 106.675 220.427 105.142 223.883 103.39C224.625 103.015 225.392 102.599 225.865 101.915C226.936 100.371 226.088 98.2775 225.275 96.582C223.603 93.1127 222.141 89.5463 220.896 85.902C219.149 80.784 217.814 75.4827 215.288 70.7026C214.672 69.5398 213.804 68.2882 212.495 68.1508" fill="#032C17"/>
<path d="M211.246 67.915C209.176 68.5852 207.119 69.2898 205.06 69.9943C204.131 70.2714 203.219 70.6013 202.328 70.9824C201.954 71.1367 201.617 71.3668 201.337 71.6581C201.057 71.9495 200.84 72.2957 200.701 72.6751C200.591 73.0334 200.591 73.4165 200.701 73.7748C200.799 73.965 200.865 74.1702 200.896 74.382C200.896 74.6226 200.65 74.8431 200.509 75.0264C199.936 75.7902 199.388 76.5634 198.865 77.3463C197.81 78.9298 196.921 80.618 196.213 82.3841C194.81 85.9613 194.403 90.0253 195.766 93.6798C196.952 96.8589 199.203 99.5912 200.02 102.919C200.195 103.763 200.291 104.621 200.306 105.482C200.303 106.308 200.463 107.127 200.776 107.891C201.555 109.535 203.534 109.896 205.175 109.968C207.18 110.065 209.184 109.644 211.115 109.06C213.12 108.45 215.076 107.688 217.009 106.894C218.893 106.121 220.752 105.296 222.582 104.406C224.095 103.672 226.082 102.974 226.592 101.169C227.059 99.5053 226.217 97.7496 225.509 96.2832C224.606 94.4101 223.764 92.5084 222.983 90.5781C221.462 86.8119 220.291 82.9369 219.028 79.079C218.421 77.2317 217.774 75.3959 217.023 73.603C216.634 72.6808 216.218 71.77 215.76 70.8793C215.408 70.1254 214.948 69.4268 214.394 68.8058C213.895 68.2643 213.222 67.9147 212.492 67.8177C212.074 67.7632 212.08 68.4191 212.492 68.4735C214.122 68.6797 214.944 70.6846 215.568 71.9648C216.39 73.6884 217.113 75.4575 217.734 77.2632C218.994 80.8404 220.025 84.492 221.322 88.052C221.992 89.8888 222.717 91.7027 223.496 93.4937C223.891 94.3968 224.298 95.2942 224.716 96.1858C225.115 96.9679 225.459 97.7765 225.747 98.6059C225.991 99.3878 226.145 100.238 225.907 101.038C225.67 101.837 225.022 102.366 224.315 102.756C222.634 103.675 220.908 104.509 219.143 105.253C217.312 106.067 215.457 106.809 213.578 107.493C211.739 108.216 209.836 108.76 207.893 109.117C206.946 109.271 205.986 109.322 205.029 109.269C204.149 109.217 203.199 109.097 202.417 108.662C200.85 107.802 201.048 105.901 200.925 104.366C200.658 101.089 198.742 98.351 197.302 95.487C196.481 93.9587 195.935 92.2981 195.689 90.5809C195.479 88.717 195.61 86.8304 196.076 85.0133C196.958 81.4304 198.925 78.2456 201.119 75.3214C201.381 75.0549 201.537 74.7031 201.56 74.3305C201.54 73.9209 201.248 73.5915 201.274 73.1848C201.334 72.2884 202.173 71.7528 202.915 71.4378C203.794 71.0683 204.714 70.7762 205.613 70.4526L208.554 69.3929C209.491 69.0549 210.419 68.6998 211.35 68.3475C211.61 68.2501 211.507 67.8377 211.235 67.9265L211.246 67.915Z" fill="#032C17"/>
<path d="M218.427 147.634H218.75C218.802 147.633 218.851 147.612 218.888 147.576C218.906 147.558 218.92 147.537 218.93 147.513C218.94 147.49 218.945 147.464 218.945 147.439C218.945 147.413 218.94 147.388 218.931 147.364C218.921 147.341 218.906 147.319 218.888 147.301C218.851 147.265 218.802 147.245 218.75 147.244H218.427C218.375 147.245 218.326 147.266 218.289 147.301C218.271 147.319 218.257 147.341 218.247 147.364C218.237 147.388 218.232 147.413 218.232 147.439C218.234 147.49 218.254 147.539 218.289 147.576C218.326 147.612 218.375 147.632 218.427 147.634Z" fill="#09421A"/>
<path d="M219.999 146.794C222.888 152.316 225.787 157.832 228.697 163.342C229.912 165.634 231.02 168.094 232.624 170.164C234.079 172.04 236.061 173.427 238.484 173.564C241.061 173.71 243.55 172.496 245.644 171.11C247.935 169.606 249.997 167.782 252.088 166.034C256.364 162.463 260.537 158.766 264.523 154.865C268.5 151.009 272.245 146.922 275.742 142.627C276.612 141.55 277.464 140.458 278.296 139.35C279.05 138.345 279.729 137.174 280.708 136.363C282.727 134.693 285.511 136.564 287.713 135.361C288.707 134.817 289.283 133.671 288.859 132.577C288.435 131.483 287.284 130.744 286.373 130.079C284.391 128.649 282.194 127.545 279.863 126.809C278.786 126.456 277.664 125.984 276.584 126.577C275.587 127.124 275.381 128.247 274.848 129.154C273.703 131.136 271.884 132.697 270.062 134.055C268.138 135.487 266.096 136.758 264.085 138.064C261.525 139.726 258.954 141.369 256.372 142.996C253.757 144.654 251.139 146.311 248.519 147.968C247.232 148.787 245.946 149.608 244.661 150.431C243.582 151.127 242.393 151.757 241.583 152.783C240.97 153.553 240.577 154.607 241.233 155.478C241.271 155.538 241.328 155.585 241.395 155.611C241.461 155.638 241.535 155.642 241.604 155.623C241.673 155.604 241.734 155.564 241.779 155.508C241.824 155.452 241.849 155.383 241.852 155.312C242.093 152.633 241.891 149.933 241.253 147.321C241.15 146.903 240.509 147.08 240.609 147.498C241.227 150.054 241.42 152.693 241.182 155.312L241.8 155.143C241.099 154.206 242.049 153.138 242.751 152.516C243.273 152.097 243.824 151.715 244.398 151.371L246.237 150.194C248.728 148.599 251.225 147.014 253.726 145.436C258.489 142.423 263.257 139.422 267.957 136.3C269.808 135.13 271.544 133.788 273.141 132.29C273.919 131.545 274.609 130.713 275.198 129.81C275.482 129.369 275.727 128.905 275.931 128.421C276.143 127.92 276.337 127.467 276.824 127.17C277.054 127.035 277.309 126.952 277.573 126.924C277.838 126.897 278.105 126.927 278.357 127.012C278.943 127.18 279.526 127.362 280.107 127.559C281.188 127.92 282.242 128.363 283.257 128.882C284.336 129.463 285.365 130.133 286.333 130.884C287.149 131.5 288.51 132.382 288.338 133.576C288.152 134.874 286.619 135.215 285.525 135.192C284.38 135.166 283.214 134.888 282.057 135.077C280.9 135.266 280.021 136.031 279.31 136.936C278.52 137.941 277.79 138.992 277.019 140.009C273.726 144.266 270.176 148.318 266.388 152.141C262.633 155.959 258.684 159.588 254.625 163.082C252.594 164.829 250.538 166.547 248.459 168.237C246.454 169.881 244.298 171.528 241.82 172.418C239.495 173.252 236.992 173.177 234.947 171.679C233.105 170.325 231.934 168.243 230.874 166.261C228.059 161.011 225.281 155.741 222.465 150.491L220.374 146.593C220.246 146.353 219.882 146.568 220.008 146.808L219.999 146.794Z" fill="#212529"/>
<path d="M212.604 72.6523C213.839 71.1229 216.222 71.4866 218.123 71.9964C220.79 72.7124 223.456 73.4284 226.12 74.1645C232.506 75.9373 239.114 77.9794 243.937 82.5303C246.408 84.8645 248.385 88.0751 248.098 91.4604C247.757 95.4872 244.323 98.9584 244.724 102.979C244.879 104.543 245.609 106.176 244.979 107.613C244.444 108.839 243.089 109.487 242.313 110.575C241.033 112.371 241.531 115.037 240.151 116.758C239.051 118.127 237.135 118.448 235.568 119.227C234.15 119.929 232.962 121.046 231.513 121.682C230.063 122.317 228.122 122.317 227.162 121.06C226.269 119.894 226.535 118.064 225.475 117.05C224.928 116.526 224.106 116.311 223.685 115.684C223.112 114.825 223.568 113.662 224.032 112.731C227.269 106.202 230.1 99.4786 232.509 92.6002C232.796 91.8155 233.205 90.9019 234.027 90.7988C233.437 91.7324 232.022 91.214 231.063 90.6441C226.648 87.9944 221.732 86.2878 216.625 85.6321" fill="#032C17"/>
<path d="M212.779 72.8158C213.924 71.4554 215.929 71.736 217.479 72.1083C219.707 72.6439 221.912 73.317 224.12 73.9299C228.001 75.001 231.916 76.0636 235.619 77.6674C239.171 79.2054 242.651 81.2961 245.137 84.3177C246.387 85.7719 247.25 87.5186 247.645 89.3956C247.992 91.2801 247.531 93.0988 246.809 94.8373C246.087 96.5757 245.197 98.1538 244.687 99.9266C244.429 100.777 244.306 101.662 244.323 102.55C244.355 103.584 244.67 104.575 244.802 105.595C244.928 106.543 244.802 107.442 244.16 108.172C243.587 108.822 242.865 109.318 242.298 109.962C241.09 111.351 241.075 113.187 240.611 114.877C240.417 115.724 239.953 116.485 239.288 117.045C238.601 117.589 237.753 117.904 236.943 118.208C236.062 118.522 235.216 118.924 234.417 119.408C233.592 119.926 232.818 120.522 231.962 120.994C230.662 121.71 228.508 122.194 227.468 120.765C226.982 120.098 226.896 119.219 226.675 118.445C226.492 117.642 226.028 116.931 225.366 116.441C224.636 115.928 223.745 115.627 223.834 114.565C223.917 113.559 224.556 112.597 224.98 111.701C225.953 109.692 226.888 107.666 227.783 105.623C229.597 101.463 231.258 97.2373 232.764 92.947C233.007 92.2596 233.288 91.2773 234.124 91.1398L233.718 90.6128C233.176 91.4004 231.842 90.6787 231.243 90.3264C230.166 89.6906 229.069 89.0949 227.938 88.5593C224.367 86.8641 220.551 85.7439 216.631 85.2399C216.144 85.1769 216.15 85.9416 216.631 86.0046C219.29 86.3505 221.903 86.9813 224.427 87.8863C225.675 88.3343 226.898 88.8496 228.09 89.43C228.697 89.7278 229.298 90.0429 229.891 90.3751C230.404 90.6615 230.9 90.9937 231.432 91.2343C232.377 91.6754 233.649 91.9704 234.339 90.9622C234.534 90.6758 234.21 90.3894 233.933 90.4352C233.073 90.5784 232.604 91.3746 232.3 92.1193C231.868 93.1876 231.524 94.2988 231.123 95.3785C230.3 97.601 229.428 99.8035 228.508 101.986C227.578 104.199 226.603 106.395 225.581 108.573C225.081 109.644 224.569 110.712 224.046 111.775C223.602 112.677 223.041 113.62 223.009 114.653C222.978 115.687 223.602 116.306 224.415 116.796C224.822 116.999 225.177 117.293 225.452 117.655C225.665 118.01 225.819 118.397 225.91 118.801C226.125 119.625 226.263 120.519 226.77 121.215C227.017 121.547 227.329 121.826 227.686 122.036C228.043 122.246 228.438 122.383 228.849 122.438C230.854 122.747 232.518 121.653 234.104 120.573C234.928 119.998 235.814 119.518 236.745 119.141C237.615 118.846 238.458 118.474 239.262 118.03C240.05 117.562 240.673 116.862 241.047 116.025C241.374 115.169 241.605 114.28 241.737 113.373C241.906 112.485 242.104 111.572 242.628 110.813C243.152 110.054 243.925 109.57 244.538 108.923C245.23 108.231 245.619 107.294 245.621 106.316C245.621 105.222 245.251 104.177 245.119 103.097C244.887 101.195 245.581 99.3739 246.342 97.6555C247.104 95.937 248.038 94.1613 248.364 92.251C248.663 90.2892 248.33 88.2832 247.413 86.523C245.615 82.8885 242.155 80.2422 238.647 78.3748C235.015 76.4416 231.06 75.2244 227.11 74.116C224.789 73.4726 222.461 72.8473 220.128 72.2401C218.306 71.7647 216.33 71.0515 214.42 71.3809C213.649 71.4987 212.946 71.8914 212.441 72.4864C212.255 72.7127 212.575 73.0392 212.767 72.81L212.779 72.8158Z" fill="#032C17"/>
<path d="M198.381 78.1623C197.628 80.2673 196.6 82.2607 195.804 84.3457C195.039 86.319 194.34 88.5272 194.538 90.6723C194.544 90.7327 194.573 90.7886 194.618 90.8291C194.663 90.8697 194.722 90.8921 194.783 90.8921C194.843 90.8921 194.902 90.8697 194.947 90.8291C194.992 90.7886 195.021 90.7327 195.028 90.6723C195.061 89.5846 195.194 88.5023 195.426 87.4389C195.675 86.3938 195.999 85.3679 196.394 84.3686C197.175 82.3294 198.112 80.359 198.791 78.2711C198.874 78.0162 198.481 77.9131 198.393 78.1623H198.381Z" fill="#F8F9FA"/>
<path d="M211.327 76.4812C210.739 78.3998 210.914 80.4712 211.816 82.2637C212.716 84.048 214.314 85.3224 216.13 86.0957C217.173 86.5326 218.27 86.8302 219.392 86.9807C219.724 87.0265 219.87 86.5253 219.532 86.4709C217.198 86.1072 214.867 85.2136 213.254 83.4207C212.451 82.4993 211.89 81.3923 211.622 80.1997C211.354 79.0071 211.387 77.7665 211.719 76.59C211.726 76.5643 211.728 76.5374 211.725 76.5108C211.722 76.4843 211.713 76.4587 211.7 76.4354C211.687 76.4121 211.669 76.3917 211.648 76.3752C211.627 76.3587 211.603 76.3466 211.577 76.3394C211.551 76.3323 211.524 76.3303 211.498 76.3335C211.471 76.3368 211.446 76.3453 211.423 76.3584C211.399 76.3716 211.379 76.3892 211.362 76.4103C211.346 76.4313 211.334 76.4554 211.327 76.4812Z" fill="#F8F9FA"/>
<path d="M220.709 86.3651L220.574 86.8778C220.56 86.9369 220.568 86.9991 220.597 87.0525C220.628 87.1037 220.677 87.1415 220.735 87.1584C220.794 87.1726 220.856 87.1645 220.909 87.1355C220.961 87.1054 221 87.056 221.015 86.9981L221.107 86.474C221.119 86.4207 221.112 86.3649 221.087 86.3164C221.074 86.293 221.055 86.2725 221.034 86.2563C221.012 86.24 220.987 86.2283 220.961 86.2219C220.909 86.2078 220.853 86.215 220.806 86.2418C220.758 86.2686 220.724 86.3129 220.709 86.3651Z" fill="#F8F9FA"/>
<path d="M221.594 87.2528C221.663 87.2528 221.728 87.2257 221.776 87.1773C221.825 87.129 221.852 87.0634 221.852 86.9951C221.852 86.9267 221.825 86.8611 221.776 86.8128C221.728 86.7645 221.663 86.7373 221.594 86.7373C221.526 86.7373 221.46 86.7645 221.412 86.8128C221.364 86.8611 221.336 86.9267 221.336 86.9951C221.336 87.0634 221.364 87.129 221.412 87.1773C221.46 87.2257 221.526 87.2528 221.594 87.2528Z" fill="#F8F9FA"/>
<path d="M232.801 91.9761C233.272 90.7889 233.97 89.7044 234.854 88.7827C234.88 88.7403 234.891 88.6902 234.884 88.6409C234.878 88.5916 234.854 88.5461 234.817 88.5123C234.781 88.4784 234.734 88.4584 234.684 88.4554C234.634 88.4525 234.585 88.467 234.545 88.4963C233.596 89.4553 232.867 90.6095 232.408 91.8787C232.32 92.1221 232.695 92.2224 232.795 91.9847L232.801 91.9761Z" fill="#F8F9FA"/>
<path d="M232.294 89.6676L233.325 88.5221C233.358 88.4831 233.374 88.4334 233.372 88.3826C233.37 88.3319 233.349 88.2839 233.313 88.248C233.277 88.2121 233.229 88.191 233.178 88.1887C233.128 88.1864 233.078 88.2031 233.039 88.2357L232.019 89.3813C232 89.3997 231.984 89.4219 231.974 89.4465C231.963 89.4712 231.958 89.4977 231.958 89.5245C231.958 89.5512 231.963 89.5777 231.974 89.6024C231.984 89.627 232 89.6492 232.019 89.6676C232.037 89.6874 232.06 89.7032 232.084 89.714C232.109 89.7248 232.135 89.7304 232.162 89.7304C232.189 89.7304 232.216 89.7248 232.241 89.714C232.265 89.7032 232.287 89.6874 232.306 89.6676H232.294Z" fill="#F8F9FA"/>
<path d="M162.031 222.533L154.043 222.453C152.998 222.453 151.858 222.398 151.062 221.717C150.756 221.456 150.472 221.095 150.171 220.814C149.29 221.44 148.361 221.995 147.393 222.476C146.428 222.951 145.34 223.163 144.429 223.733C144.346 223.783 144.266 223.837 144.188 223.896C143.962 224.075 143.798 224.321 143.721 224.599C143.644 224.877 143.657 225.173 143.759 225.443C143.861 225.713 144.046 225.944 144.287 226.102C144.528 226.26 144.814 226.337 145.102 226.322C149.39 226.058 153.691 226.097 157.973 226.439C158.927 226.514 160.677 226.399 161.507 225.93C162.026 225.643 162.255 223.948 162.467 222.553C162.318 222.533 162.172 222.533 162.031 222.533Z" fill="#09421A"/>
<path d="M287.55 135.087C287.804 134.96 288.028 134.782 288.211 134.565C288.394 134.348 288.53 134.096 288.613 133.824C288.919 132.679 288.04 131.819 287.221 131.155C284.145 128.681 281.699 127.669 278.319 126.687C277.801 126.54 277.247 126.595 276.769 126.842C276.29 127.088 275.923 127.507 275.742 128.013C275.65 128.254 275.547 128.489 275.435 128.723C278.094 129.402 280.671 130.369 283.119 131.608C283.428 131.736 283.701 131.938 283.915 132.195C284.104 132.524 284.203 132.898 284.202 133.277C284.265 133.993 284.331 134.709 284.397 135.422C285.496 135.531 286.576 135.617 287.55 135.087Z" fill="#09421A"/>
<path d="M126.119 11.6377H20.0298C19.1183 11.6377 18.2442 11.9998 17.5996 12.6443C16.9551 13.2889 16.593 14.163 16.593 15.0745V18.225H129.565V15.0745C129.565 14.6225 129.475 14.1749 129.302 13.7573C129.129 13.3398 128.875 12.9605 128.555 12.6413C128.235 12.322 127.855 12.0691 127.437 11.8968C127.019 11.7246 126.571 11.6366 126.119 11.6377Z" fill="#09421A"/>
<path d="M16.593 107.198C16.593 108.11 16.9551 108.984 17.5996 109.628C18.2442 110.273 19.1183 110.635 20.0298 110.635H41.2866C33.6053 100.112 28.2811 87.9375 24.6982 75.3874C20.6771 61.2878 17.9649 45.1232 16.593 30.5195" fill="#09421A"/>
<path d="M16.0205 107.198C16.029 108.031 16.2922 108.843 16.775 109.523C17.2578 110.202 17.9369 110.718 18.7213 111.001C19.2767 111.175 19.8583 111.251 20.4397 111.225H41.3042C41.7109 111.225 42.0746 110.718 41.8054 110.348C38.6316 105.968 35.8267 101.333 33.4195 96.4891C31.0063 91.6343 28.9307 86.619 27.2074 81.4787C25.4661 76.3235 24.057 71.0594 22.8226 65.761C21.5367 60.2477 20.4627 54.6858 19.5548 49.0981C18.6574 43.5877 17.9289 38.0506 17.3695 32.4867C17.3008 31.828 17.2378 31.1693 17.1748 30.5105C17.106 29.7716 15.9404 29.763 16.012 30.5105C16.5332 36.0667 17.2196 41.6039 18.0712 47.1219C18.9304 52.7755 19.9815 58.4033 21.2216 63.9853C22.4216 69.3639 23.7992 74.711 25.4804 79.9579C27.1435 85.1546 29.1498 90.2352 31.4863 95.1659C33.8061 100.079 36.5235 104.795 39.6115 109.266C40.0049 109.827 40.402 110.383 40.803 110.935L41.307 110.059H21.0297C20.7004 110.059 20.371 110.059 20.0445 110.059C19.2872 110.051 18.5631 109.747 18.0276 109.212C17.4921 108.676 17.1879 107.952 17.1805 107.195C17.1805 106.447 16.0062 106.444 16.0177 107.195L16.0205 107.198Z" fill="#09421A"/>
<path d="M21.9518 9.92472C22.1121 9.0827 22.9857 8.73042 23.7675 8.7562C24.0963 8.74864 24.4193 8.84265 24.6926 9.02542C24.9446 9.25038 25.1148 9.55256 25.1766 9.88462C25.3904 10.6133 25.3102 11.3967 24.9532 12.067C24.7964 12.3428 24.5826 12.582 24.326 12.7687C24.0396 12.9864 23.5527 13.0551 23.3723 13.3845C23.3107 13.4941 23.2939 13.6232 23.3254 13.745C23.3569 13.8667 23.4343 13.9715 23.5413 14.0375C23.9279 14.2694 24.4005 14.0145 24.7528 13.7997C25.0735 13.5996 25.3566 13.3446 25.5891 13.0465C26.1057 12.3691 26.3683 11.5319 26.3308 10.6808C26.3022 9.88749 26.0731 8.94236 25.4201 8.42397C24.7671 7.90558 23.8592 7.93422 23.1088 8.16048C22.7081 8.26097 22.3461 8.47775 22.0684 8.78353C21.7906 9.08931 21.6095 9.47042 21.5479 9.87889C21.5193 10.0994 21.9002 10.1653 21.9432 9.93045L21.9518 9.92472Z" fill="#032C17"/>
<path d="M30.6901 9.92472C30.8505 9.0827 31.7269 8.73042 32.5059 8.7562C32.8354 8.74898 33.1593 8.84293 33.4338 9.02542C33.6848 9.25119 33.8548 9.553 33.9178 9.88462C34.13 10.6135 34.0499 11.3963 33.6944 12.067C33.5383 12.3407 33.3278 12.5795 33.0758 12.7687C32.7894 12.9864 32.3025 13.0551 32.1192 13.3845C32.0579 13.4944 32.0415 13.6238 32.0736 13.7456C32.1056 13.8673 32.1836 13.9719 32.2911 14.0375C32.6777 14.2694 33.1503 14.0145 33.5026 13.7997C33.8268 13.5998 34.1137 13.3449 34.3503 13.0465C34.8673 12.3694 35.1289 11.5318 35.0892 10.6808C35.0606 9.88749 34.8343 8.94236 34.1813 8.42397C33.5283 7.90558 32.6176 7.93422 31.8672 8.16048C31.467 8.26146 31.1057 8.47845 30.8284 8.7842C30.5512 9.08994 30.3706 9.47079 30.3092 9.87889C30.2805 10.0994 30.6586 10.1653 30.7015 9.93045L30.6901 9.92472Z" fill="#032C17"/>
<path d="M39.4281 9.92472C39.5913 9.0827 40.4649 8.73042 41.2439 8.7562C41.5735 8.74861 41.8975 8.84259 42.1718 9.02542C42.4228 9.25119 42.5928 9.553 42.6558 9.88462C42.868 10.6135 42.7879 11.3963 42.4325 12.067C42.2772 12.3413 42.0665 12.5803 41.8138 12.7687C41.5274 12.9864 41.0405 13.0551 40.8572 13.3845C40.7966 13.4946 40.7806 13.6238 40.8126 13.7453C40.8446 13.8669 40.9221 13.9715 41.0291 14.0375C41.4157 14.2694 41.8883 14.0145 42.2406 13.7997C42.5607 13.5988 42.8436 13.3439 43.0769 13.0465C43.5935 12.3691 43.8561 11.5319 43.8186 10.6808C43.79 9.88749 43.5609 8.94236 42.9079 8.42397C42.2549 7.90558 41.347 7.93422 40.5937 8.16048C40.1936 8.26146 39.8322 8.47845 39.555 8.7842C39.2778 9.08994 39.0971 9.47079 39.0357 9.87889C39.0071 10.0994 39.388 10.1653 39.4281 9.93045V9.92472Z" fill="#032C17"/>
<path d="M48.169 9.92472C48.3294 9.0827 49.2058 8.73042 49.9848 8.7562C50.3143 8.74898 50.6382 8.84293 50.9127 9.02542C51.1628 9.25148 51.3318 9.5533 51.3939 9.88462C51.6076 10.6133 51.5274 11.3967 51.1705 12.067C51.0162 12.3412 50.8065 12.5801 50.5547 12.7687C50.2683 12.9864 49.7814 13.0551 49.5981 13.3845C49.5365 13.4941 49.5197 13.6232 49.5512 13.745C49.5827 13.8667 49.6601 13.9715 49.7671 14.0375C50.1538 14.2694 50.6263 14.0145 50.9815 13.7997C51.3013 13.5995 51.5834 13.3445 51.8149 13.0465C52.334 12.3704 52.5968 11.5323 52.5567 10.6808C52.528 9.88749 52.2989 8.94236 51.6459 8.42397C50.9929 7.90558 50.085 7.93422 49.3346 8.16048C48.9341 8.26131 48.5723 8.4782 48.2946 8.78392C48.0169 9.08963 47.8357 9.47056 47.7738 9.87889C47.7451 10.0994 48.126 10.1653 48.169 9.93045V9.92472Z" fill="#032C17"/>
<path d="M56.9073 9.92472C57.0677 9.0827 57.9441 8.73042 58.7231 8.7562C59.0528 8.74861 59.3767 8.84259 59.6511 9.02542C59.902 9.25119 60.072 9.553 60.1351 9.88462C60.3473 10.6135 60.2672 11.3963 59.9117 12.067C59.7556 12.3407 59.545 12.5795 59.2931 12.7687C59.0067 12.9864 58.5198 13.0551 58.3365 13.3845C58.2752 13.4944 58.2588 13.6238 58.2908 13.7456C58.3229 13.8673 58.4008 13.9719 58.5083 14.0375C58.895 14.2694 59.3675 14.0145 59.7198 13.7997C60.0399 13.5988 60.3229 13.3439 60.5561 13.0465C61.0731 12.3694 61.3347 11.5318 61.295 10.6808C61.2693 9.88749 61.0401 8.94236 60.3871 8.42397C59.7341 7.90558 58.8234 7.93422 58.073 8.16048C57.6729 8.26146 57.3115 8.47845 57.0343 8.7842C56.757 9.08994 56.5764 9.47079 56.515 9.87889C56.4863 10.0994 56.8644 10.1653 56.9073 9.93045V9.92472Z" fill="#032C17"/>
<path d="M65.648 9.92472C65.8084 9.0827 66.6819 8.73042 67.4638 8.7562C67.7925 8.74864 68.1155 8.84265 68.3889 9.02542C68.6408 9.25038 68.811 9.55256 68.8729 9.88462C69.0866 10.6133 69.0064 11.3967 68.6495 12.067C68.4951 12.3419 68.2843 12.5811 68.0309 12.7687C67.7445 12.9864 67.2576 13.0551 67.0771 13.3845C67.0155 13.4941 66.9987 13.6232 67.0302 13.745C67.0617 13.8667 67.1391 13.9715 67.2461 14.0375C67.6328 14.2694 68.1053 14.0145 68.4576 13.7997C68.7783 13.5996 69.0614 13.3446 69.2939 13.0465C69.8106 12.3691 70.0731 11.5319 70.0357 10.6808C70.007 9.88749 69.7779 8.94236 69.1249 8.42397C68.4719 7.90558 67.564 7.93422 66.8108 8.16048C66.4106 8.26146 66.0492 8.47845 65.772 8.7842C65.4948 9.08994 65.3142 9.47079 65.2528 9.87889C65.2241 10.0994 65.605 10.1653 65.648 9.93045V9.92472Z" fill="#032C17"/>
<path d="M74.3863 9.92472C74.5467 9.0827 75.4231 8.73042 76.2021 8.7562C76.5317 8.74898 76.8556 8.84293 77.1301 9.02542C77.381 9.25119 77.551 9.553 77.6141 9.88462C77.8263 10.6135 77.7462 11.3963 77.3907 12.067C77.2346 12.3407 77.024 12.5795 76.7721 12.7687C76.4857 12.9864 75.9988 13.0551 75.8155 13.3845C75.7542 13.4944 75.7378 13.6238 75.7698 13.7456C75.8019 13.8673 75.8798 13.9719 75.9873 14.0375C76.3711 14.2694 76.8465 14.0145 77.1988 13.7997C77.5189 13.5988 77.8019 13.3439 78.0351 13.0465C78.5521 12.3694 78.8137 11.5318 78.774 10.6808C78.7454 9.88749 78.5191 8.94236 77.8661 8.42397C77.2131 7.90558 76.3024 7.93422 75.552 8.16048C75.1519 8.26146 74.7905 8.47845 74.5133 8.7842C74.2361 9.08994 74.0554 9.47079 73.994 9.87889C73.9653 10.0994 74.3434 10.1653 74.3863 9.93045V9.92472Z" fill="#032C17"/>
<path d="M83.1246 9.92472C83.2879 9.0827 84.1614 8.73042 84.9404 8.7562C85.27 8.74861 85.594 8.84259 85.8684 9.02542C86.1193 9.25119 86.2893 9.553 86.3524 9.88462C86.5646 10.6135 86.4844 11.3963 86.129 12.067C85.9737 12.3413 85.763 12.5803 85.5104 12.7687C85.224 12.9864 84.7371 13.0551 84.5538 13.3845C84.4924 13.4944 84.4761 13.6238 84.5081 13.7456C84.5401 13.8673 84.6181 13.9719 84.7256 14.0375C85.1123 14.2694 85.5848 14.0145 85.9371 13.7997C86.2572 13.5988 86.5402 13.3439 86.7734 13.0465C87.2901 12.3691 87.5526 11.5319 87.5152 10.6808C87.4865 9.88749 87.2574 8.94236 86.6044 8.42397C85.9514 7.90558 85.0407 7.93422 84.2903 8.16048C83.8901 8.26146 83.5287 8.47845 83.2515 8.7842C82.9743 9.08994 82.7937 9.47079 82.7322 9.87889C82.7036 10.0994 83.0845 10.1653 83.1246 9.93045V9.92472Z" fill="#032C17"/>
<path d="M91.8655 9.92472C92.0259 9.0827 92.8994 8.73042 93.6813 8.7562C94.01 8.74864 94.3331 8.84265 94.6064 9.02542C94.8583 9.25038 95.0286 9.55256 95.0904 9.88462C95.3041 10.6133 95.2239 11.3967 94.867 12.067C94.7128 12.3412 94.503 12.5801 94.2512 12.7687C93.9648 12.9864 93.4751 13.0551 93.2947 13.3845C93.2331 13.4941 93.2163 13.6232 93.2478 13.745C93.2793 13.8667 93.3566 13.9715 93.4636 14.0375C93.8503 14.2694 94.3228 14.0145 94.6751 13.7997C94.9958 13.5996 95.2789 13.3446 95.5114 13.0465C96.0292 12.3697 96.2918 11.5321 96.2532 10.6808C96.2246 9.88749 95.9954 8.94236 95.3424 8.42397C94.6894 7.90558 93.7816 7.93422 93.0312 8.16048C92.6307 8.26131 92.2689 8.4782 91.9912 8.78392C91.7135 9.08963 91.5323 9.47056 91.4703 9.87889C91.4416 10.0994 91.8226 10.1653 91.8655 9.93045V9.92472Z" fill="#032C17"/>
<path d="M100.604 9.92472C100.764 9.0827 101.64 8.73042 102.419 8.7562C102.749 8.74861 103.073 8.84259 103.347 9.02542C103.598 9.25119 103.768 9.553 103.831 9.88462C104.044 10.6135 103.963 11.3963 103.608 12.067C103.452 12.3407 103.241 12.5795 102.989 12.7687C102.703 12.9864 102.216 13.0551 102.033 13.3845C101.971 13.4944 101.955 13.6238 101.987 13.7456C102.019 13.8673 102.097 13.9719 102.205 14.0375C102.591 14.2694 103.064 14.0145 103.416 13.7997C103.736 13.5988 104.019 13.3439 104.252 13.0465C104.769 12.3694 105.031 11.5318 104.991 10.6808C104.966 9.88749 104.736 8.94236 104.083 8.42397C103.43 7.90558 102.52 7.93422 101.769 8.16048C101.369 8.26146 101.008 8.47845 100.731 8.7842C100.453 9.08994 100.273 9.47079 100.211 9.87889C100.183 10.0994 100.561 10.1653 100.604 9.93045V9.92472Z" fill="#032C17"/>
<path d="M109.345 9.92472C109.505 9.0827 110.378 8.73042 111.157 8.7562C111.487 8.74823 111.811 8.84225 112.085 9.02542C112.337 9.25038 112.508 9.55256 112.569 9.88462C112.783 10.6133 112.703 11.3967 112.346 12.067C112.192 12.3419 111.981 12.5811 111.727 12.7687C111.441 12.9864 110.954 13.0551 110.771 13.3845C110.711 13.4947 110.695 13.6237 110.727 13.745C110.759 13.8664 110.836 13.971 110.943 14.0375C111.329 14.2694 111.802 14.0145 112.154 13.7997C112.475 13.5996 112.758 13.3446 112.99 13.0465C113.507 12.3691 113.77 11.5319 113.732 10.6808C113.704 9.88749 113.474 8.94236 112.821 8.42397C112.168 7.90558 111.261 7.93422 110.507 8.16048C110.107 8.26146 109.746 8.47845 109.469 8.7842C109.191 9.08994 109.011 9.47079 108.949 9.87889C108.921 10.0994 109.302 10.1653 109.345 9.93045V9.92472Z" fill="#032C17"/>
<path d="M118.083 9.92459C118.243 9.08257 119.12 8.73029 119.899 8.75607C120.228 8.74885 120.552 8.8428 120.827 9.02528C121.078 9.25106 121.248 9.55287 121.311 9.88449C121.523 10.6133 121.443 11.3962 121.087 12.0669C120.931 12.3405 120.721 12.5793 120.469 12.7686C120.182 12.9862 119.695 13.055 119.512 13.3843C119.454 13.4954 119.441 13.6248 119.475 13.7453C119.51 13.8659 119.59 13.9685 119.698 14.0316C120.082 14.2636 120.557 14.0087 120.91 13.7939C121.23 13.5929 121.513 13.3381 121.746 13.0406C122.263 12.3636 122.525 11.5259 122.485 10.675C122.456 9.88163 122.23 8.9365 121.577 8.41811C120.924 7.89972 120.013 7.92836 119.263 8.15462C118.863 8.2556 118.501 8.4726 118.224 8.77834C117.947 9.08408 117.766 9.46493 117.705 9.87304C117.676 10.0936 118.054 10.1594 118.097 9.92459H118.083Z" fill="#032C17"/>
<path d="M41.8739 40.7445C51.0598 40.2538 60.2409 39.7335 69.4172 39.1836C78.5936 38.6337 87.7709 38.038 96.9491 37.3964C102.131 37.0413 107.312 36.6766 112.492 36.3024C112.862 36.2766 112.864 35.7009 112.492 35.7295C103.327 36.394 94.1529 37.0279 84.9689 37.6313C75.7849 38.2346 66.6057 38.8074 57.4313 39.3497C52.2474 39.6609 47.0616 39.9635 41.8739 40.2576C41.5674 40.2748 41.5674 40.7531 41.8739 40.7359V40.7445Z" fill="#032C17"/>
<path d="M43.3088 57.619C48.0822 57.2639 52.8555 56.8438 57.6289 56.3589C62.4023 55.8739 67.1585 55.3154 71.8975 54.6834C76.6212 54.061 81.3354 53.3755 86.0401 52.627C90.7944 51.8633 95.5372 51.0394 100.269 50.1554C105 49.2714 109.694 48.3234 114.351 47.3114L116.089 46.9305C116.427 46.856 116.284 46.3348 115.943 46.4121C111.292 47.4431 106.627 48.4093 101.947 49.3105C97.267 50.2117 92.549 51.0537 87.7929 51.8366C83.0901 52.6003 78.3778 53.3068 73.656 53.9559C68.9342 54.6051 64.178 55.1836 59.3874 55.6915C54.6255 56.2051 49.8569 56.6567 45.0816 57.0462L43.3088 57.1866C43.0224 57.2095 43.0224 57.6448 43.3088 57.6248V57.619Z" fill="#032C17"/>
<path d="M49.1971 75.4183C53.8254 74.8455 58.4393 74.1839 63.0389 73.4336C67.6386 72.6832 72.2449 71.824 76.8579 70.8559C81.4403 69.9013 86.0094 68.8607 90.5651 67.7342C95.1208 66.6076 99.6431 65.3837 104.132 64.0625C108.607 62.7527 113.055 61.3541 117.475 59.8667C118.048 59.6777 118.601 59.4858 119.162 59.2939C119.477 59.1822 119.349 58.6781 119.022 58.7841C114.591 60.2419 110.172 61.7168 105.701 63.0543C101.231 64.3918 96.7399 65.632 92.2234 66.7948C87.7068 67.9576 83.1644 69.0201 78.6049 69.9939C74.0454 70.9676 69.4658 71.8498 64.8576 72.6374C60.2494 73.425 55.6154 74.141 50.9613 74.7482L49.1914 74.9773C48.905 75.0116 48.905 75.4498 49.1914 75.4155L49.1971 75.4183Z" fill="#032C17"/>
<path d="M56.4033 91.217C60.9151 90.5125 65.4107 89.7268 69.89 88.8599C74.3693 87.9931 78.8324 87.0384 83.2793 85.9959C87.7434 84.9534 92.1893 83.8278 96.6171 82.6192C101.045 81.4106 105.424 80.1285 109.754 78.7728C114.092 77.4267 118.418 75.9899 122.731 74.4625L124.344 73.8897C124.67 73.7722 124.527 73.2481 124.201 73.3684C119.904 74.9293 115.583 76.3814 111.235 77.7676C106.887 79.1537 102.514 80.4569 98.1178 81.6798C93.7215 82.9028 89.2594 84.057 84.7972 85.1167C80.3351 86.1763 75.9188 87.1587 71.4308 88.0551C66.9429 88.9516 62.4664 89.7736 57.9699 90.501L56.2801 90.7731C55.9937 90.8189 56.114 91.2629 56.4033 91.217Z" fill="#032C17"/>
<path d="M50.721 35.4139C51.35 43.5352 52.6917 51.5854 54.7306 59.4717C56.7839 67.3344 59.51 75.0059 62.8787 82.4011C64.7393 86.592 66.8432 90.6707 69.1796 94.6162C69.3142 94.8424 69.7352 94.768 69.7094 94.473L69.6178 93.4362C69.5863 93.0954 69.045 93.0868 69.0765 93.4362L69.1395 94.473L69.6693 94.3298C67.6645 90.7984 65.7256 87.2614 63.9842 83.5983C62.2429 79.9352 60.662 76.1518 59.2586 72.3398C56.4823 64.7707 54.359 56.9779 52.9119 49.0467C52.0936 44.5349 51.5019 39.9849 51.1391 35.4139C51.1162 35.1447 50.6923 35.1418 50.7124 35.4139H50.721Z" fill="#032C17"/>
<path d="M67.1348 35.9879C68.6128 43.462 70.474 50.8552 72.711 58.1383C74.9476 65.425 77.5505 72.5942 80.5097 79.6185C82.1537 83.5278 83.8406 87.4602 86.0574 91.0746C86.102 91.1225 86.1616 91.1537 86.2264 91.163C86.2913 91.1723 86.3573 91.1591 86.4136 91.1256C86.4698 91.0921 86.5129 91.0404 86.5357 90.979C86.5584 90.9175 86.5594 90.8502 86.5385 90.7882C84.5996 87.5461 83.0415 84.1007 81.5494 80.6323C80.0572 77.164 78.631 73.604 77.3106 70.0383C74.6757 62.9393 72.3979 55.7201 70.4771 48.3805C69.3945 44.2373 68.4207 40.0682 67.5558 35.8733C67.5014 35.6013 67.0889 35.7158 67.1405 35.9879H67.1348Z" fill="#032C17"/>
<path d="M84.7138 34.6525C86.23 41.505 88.1572 48.2601 90.4848 54.8811C92.7992 61.4695 95.4882 67.9202 98.5385 74.2019C100.257 77.7447 102.05 81.2817 104.049 84.6756C104.087 84.7436 104.15 84.7937 104.225 84.8149C104.3 84.8361 104.38 84.8267 104.448 84.7887C104.516 84.7507 104.566 84.6873 104.588 84.6124C104.609 84.5375 104.599 84.4572 104.562 84.3892C102.895 81.3218 101.216 78.2688 99.6698 75.1384C98.1232 72.008 96.6654 68.8375 95.2993 65.6327C92.5576 59.1944 90.1768 52.6084 88.1678 45.9053C87.0413 42.1477 86.0208 38.3595 85.1062 34.5408C85.0432 34.2831 84.6508 34.3919 84.7081 34.6497L84.7138 34.6525Z" fill="#032C17"/>
<path d="M103.88 33.6758C104.886 39.6301 106.618 45.4183 108.729 51.0776C110.84 56.7369 113.337 62.2473 115.875 67.7205C116.602 69.2957 117.333 70.87 118.066 72.4433C118.839 74.1044 119.546 75.8228 120.417 77.4353C120.552 77.6902 121.004 77.5126 120.893 77.2348C120.32 75.7713 119.581 74.3536 118.914 72.9387C118.246 71.5239 117.579 70.0747 116.909 68.657C115.631 65.9219 114.36 63.181 113.137 60.4229C110.685 54.8982 108.411 49.279 106.661 43.488C105.668 40.2354 104.874 36.9251 104.284 33.5756C104.238 33.3064 103.832 33.4209 103.875 33.6873L103.88 33.6758Z" fill="#032C17"/>
<path d="M177.142 86.1046C177.886 86.1046 177.886 84.959 177.142 84.959C176.397 84.959 176.394 86.1046 177.142 86.1046Z" fill="#032C17"/>
</svg>
