<svg width="560" height="416" viewBox="0 0 560 416" fill="none" xmlns="http://www.w3.org/2000/svg">
<g clip-path="url(#clip0_859_8867)">
<path d="M186.567 403.684C169.472 403.684 152.403 403.418 135.36 402.885C111.008 402.123 85.8257 401.336 62.4201 390.032C46.0468 382.125 31.5458 369.438 20.485 353.344C13.188 342.643 7.75367 330.778 4.41319 318.255C2.77905 312.231 1.59321 306.093 0.865429 299.893C-1.12762 283.142 0.284587 266.159 5.01684 249.971C7.31496 242.224 10.4463 234.751 14.3556 227.683C31.4243 196.904 62.5565 176.243 99.7698 170.998C100.078 170.963 100.388 170.957 100.697 170.98C100.864 170.988 101.031 170.997 101.201 170.99L101.42 170.93C101.984 170.759 102.56 170.63 103.144 170.545C160.536 163.104 221.209 178.158 278.597 214.078C322.97 241.855 381.776 256.813 458.377 259.805L459.464 259.855C480.788 260.922 501.415 268.577 519.117 281.995C536.413 295.001 549.589 312.747 557.054 333.092C557.957 335.553 558.785 338.115 559.515 340.706C560.897 345.606 559.295 350.557 555.117 354.326V354.331L554.927 354.502C554.468 354.9 553.984 355.281 553.49 355.636L552.909 356.053C548.014 359.565 544.148 362.338 539.52 364.493C536.397 365.932 533.12 367.01 529.752 367.704C511.086 371.667 492.129 375.341 473.41 378.626C437.056 385.008 399.744 390.274 362.51 394.275C304.071 400.546 245.34 403.687 186.567 403.684ZM100.261 172.07C100.147 172.07 100.033 172.076 99.9197 172.091C63.0543 177.287 32.2168 197.745 15.3173 228.22C11.4466 235.218 8.34628 242.617 6.07101 250.286C1.38165 266.331 -0.0173961 283.162 1.95829 299.763C2.67967 305.909 3.8551 311.993 5.47488 317.965C8.78266 330.368 14.1643 342.119 21.3909 352.718C32.3434 368.655 46.6961 381.214 62.8977 389.037C86.0933 400.24 111.156 401.024 135.395 401.781C211.168 404.141 287.014 401.267 362.393 393.178C399.602 389.179 436.89 383.917 473.22 377.538C491.927 374.257 510.87 370.585 529.524 366.625C532.81 365.948 536.009 364.897 539.057 363.492C543.591 361.381 547.421 358.634 552.269 355.155L552.85 354.739C553.274 354.434 553.691 354.107 554.09 353.768L554.205 353.663C558.189 350.166 559.738 345.553 558.456 341.006V341.005C557.734 338.442 556.915 335.908 556.021 333.472C541.013 292.237 502.189 263.096 459.412 260.957L458.33 260.908C423.34 259.54 392.721 255.753 364.727 249.328C331.309 241.659 302.135 230.114 278.014 215.014C220.845 179.232 160.426 164.234 103.284 171.639C102.752 171.718 102.228 171.837 101.713 171.993L101.319 172.089C101.092 172.101 100.869 172.092 100.646 172.082C100.514 172.076 100.386 172.07 100.261 172.07Z" fill="#3E9D41"/>
<path d="M554.567 354.078V354.084C554.121 354.47 553.654 354.839 553.17 355.187C545.093 360.985 539.574 365.051 529.638 367.163C510.932 371.135 492.157 374.775 473.315 378.081C436.557 384.535 399.603 389.75 362.452 393.726C287.048 401.832 211.176 404.708 135.378 402.332C110.135 401.543 85.789 400.705 62.659 389.534C45.7517 381.369 31.5458 368.465 20.9381 353.03C10.1819 337.379 3.64017 318.86 1.41187 299.827C6.64937 297.535 12.2137 296.083 17.9011 295.524C37.6419 293.638 57.0691 300.887 75.0218 309.321C92.9799 317.751 110.614 327.604 130.057 331.493C158.711 337.225 188.289 329.43 215.76 319.45C243.231 309.47 270.273 297.146 299.246 293.378C338.106 288.32 377.098 299.027 414.83 309.63C455.021 320.923 495.214 332.217 535.41 343.514C541.153 345.124 547.112 346.851 551.591 350.801C552.701 351.779 553.699 352.878 554.567 354.078Z" fill="#0D4F1B"/>
<path d="M554.567 354.078V354.084C554.121 354.47 553.654 354.84 553.17 355.187C548.108 358.817 544.053 361.774 539.288 363.992C522.909 365.608 506.508 367.007 490.085 368.19C447.814 371.229 405.46 372.846 363.024 373.039C276.936 373.48 186.424 376.183 111.048 334.257C85.9675 320.306 49.636 348.915 24.7894 333.617C17.6275 329.193 10.9724 323.993 4.94411 318.11C3.31602 312.112 2.13534 306.001 1.41186 299.828C-0.582684 283.151 0.823066 266.243 5.54379 250.128C7.82771 242.419 10.9437 234.983 14.8365 227.951C26.3795 232.105 37.4493 238.085 47.9854 244.418C67.3081 256.02 86.0971 269.194 107.615 275.836C139.333 285.628 173.649 280.243 205.835 272.145C238.021 264.047 269.992 253.256 303.163 252.346C347.652 251.127 390.473 267.737 431.886 284.083C473.431 300.484 514.981 316.883 556.537 333.28C557.45 335.768 558.266 338.293 558.985 340.855C560.454 346.062 558.325 350.779 554.567 354.078Z" fill="#3E9D41"/>
<path d="M149.5 142.293C143.243 138.063 143.855 128.809 150.472 125.172C150.606 125.098 150.738 125.021 150.868 124.942C151.199 123.35 151.531 121.757 151.863 120.165C153.815 122.198 157.653 121.814 159.166 119.435C153.89 108.149 146.951 97.7229 138.583 88.5056C136.759 86.4864 135.735 83.8674 135.706 81.1431C135.676 78.4189 136.643 75.7782 138.423 73.7199C138.455 73.6825 138.487 73.6448 138.518 73.6069C143.243 72.0067 147.718 69.7411 151.807 66.8781C137.783 44.2854 111.041 26.3369 104.684 0.5C85.5617 21.0907 83.415 28.3425 64.2922 48.9332C64.2922 48.9332 46.1851 65.3161 42.2768 74.1205C43.2371 75.1319 51.8344 77.559 52.1649 79.5477C58.7214 80.0747 70.0803 72.869 70.0803 72.869C70.0803 72.869 45.2877 99.3714 37.7604 115.696C37.0826 117.166 36.4388 118.844 37.0067 120.36C37.46 121.571 39.0864 122.269 40.1339 121.788C38.8826 122.998 37.8779 124.44 37.1758 126.035C39.3601 127.434 41.9509 128.053 44.5295 127.792C47.1081 127.532 49.5238 126.407 51.3861 124.6C50.3376 126.564 49.2892 128.528 48.2407 130.492L48.2426 130.497C49.659 130.961 50.9302 131.787 51.9305 132.895C52.9308 134.002 53.6256 135.352 53.9462 136.811C54.2669 138.271 54.2023 139.788 53.7589 141.215C53.3155 142.641 52.5086 143.927 51.4178 144.945C44.9117 151.012 38.9668 157.39 36.7885 161.589C34.7392 165.54 55.7806 170.303 60.5133 170.108C65.246 169.912 69.6698 167.827 73.9443 165.781C73.736 167.735 74.1088 169.707 75.0158 171.45C77.3567 172.019 79.7876 172.114 82.1656 171.729C84.5436 171.343 86.8208 170.485 88.8634 169.205C88.6748 173.114 93.5917 175.272 97.0046 174.165C95.3007 201.191 96.5471 239.142 98.184 278.539H102.245V175.723C103.326 176.272 104.482 176.657 105.675 176.866C113.984 178.345 124.011 179.244 129.418 172.748C135.641 179.039 147.044 178.92 153.231 172.65C152.622 173.732 153.554 175.552 154.933 175.839C156.557 176.177 158.138 175.209 159.517 174.284C165.762 170.098 172.006 165.912 178.251 161.726C170.545 156.518 159.598 149.119 149.5 142.293Z" fill="#0D4F1B"/>
<path d="M336.949 129.715C347.778 129.715 356.558 120.913 356.558 110.054C356.558 99.1953 347.778 90.3926 336.949 90.3926C326.119 90.3926 317.34 99.1953 317.34 110.054C317.34 120.913 326.119 129.715 336.949 129.715Z" fill="#F0E4AB"/>
<path d="M380.838 100.745C379.704 96.9355 376.5 94.4488 372.628 93.9032C372.585 93.8972 372.545 93.9052 372.502 93.9024C372.448 93.8856 372.392 93.8727 372.335 93.8638C366.851 93.1936 361.301 94.4047 356.591 97.3C352.052 100.141 346.764 101.426 341.418 101.635C341.386 101.636 341.355 101.637 341.323 101.639C339.336 101.772 337.438 102.515 335.887 103.769C334.336 105.022 333.209 106.724 332.657 108.643C332.598 108.878 332.616 109.125 332.707 109.349C332.798 109.574 332.958 109.763 333.163 109.89C333.756 110.393 334.457 110.751 335.212 110.933C336.841 111.279 338.475 111.596 340.115 111.884C343.315 112.445 346.533 112.899 349.766 113.246C356.331 113.951 362.936 114.201 369.535 113.995C371.732 113.926 373.852 113.853 375.866 112.88C377.331 112.155 378.582 111.06 379.497 109.703C380.36 108.398 380.927 106.92 381.158 105.373C381.39 103.825 381.28 102.245 380.838 100.745Z" fill="#F8F9FA"/>
<path d="M340.082 126.959C338.948 123.15 335.744 120.664 331.873 120.118C331.83 120.112 331.789 120.12 331.747 120.117C331.692 120.1 331.636 120.088 331.58 120.079C326.095 119.408 320.546 120.62 315.836 123.515C311.297 126.356 306.009 127.641 300.663 127.85C300.631 127.851 300.599 127.852 300.568 127.854C298.581 127.987 296.682 128.73 295.132 129.984C293.581 131.237 292.453 132.939 291.902 134.858C291.843 135.093 291.861 135.34 291.952 135.564C292.043 135.789 292.202 135.978 292.408 136.105C293 136.608 293.702 136.965 294.457 137.148C296.085 137.494 297.72 137.811 299.36 138.098C302.56 138.66 305.777 139.114 309.011 139.46C315.576 140.166 322.181 140.416 328.779 140.21C330.977 140.141 333.097 140.068 335.11 139.095C336.575 138.37 337.827 137.275 338.742 135.918C339.604 134.613 340.171 133.135 340.403 131.587C340.634 130.04 340.525 128.46 340.082 126.959Z" fill="#F8F9FA"/>
<path d="M506.023 209.045C499.765 204.815 500.378 195.561 506.995 191.924C507.129 191.85 507.261 191.773 507.391 191.694C507.722 190.102 508.054 188.509 508.385 186.917C510.337 188.95 514.176 188.566 515.689 186.187C510.413 174.901 503.474 164.475 495.106 155.258C493.282 153.238 492.258 150.619 492.229 147.895C492.199 145.171 493.166 142.53 494.946 140.472C494.978 140.434 495.01 140.397 495.041 140.359C499.766 138.759 504.241 136.493 508.33 133.63C494.306 111.037 467.564 93.0889 461.207 67.252C442.085 87.8426 439.938 95.0945 420.815 115.685C420.815 115.685 402.708 132.068 398.8 140.872C399.76 141.884 408.357 144.311 408.688 146.3C415.244 146.827 426.603 139.621 426.603 139.621C426.603 139.621 401.811 166.123 394.283 182.448C393.606 183.918 392.962 185.596 393.53 187.112C393.983 188.323 395.609 189.021 396.657 188.54C395.406 189.75 394.401 191.192 393.699 192.787C395.883 194.186 398.474 194.805 401.052 194.544C403.631 194.284 406.047 193.159 407.909 191.352C406.861 193.316 405.812 195.28 404.764 197.244L404.766 197.249C406.182 197.713 407.453 198.539 408.453 199.647C409.454 200.754 410.149 202.104 410.469 203.563C410.79 205.023 410.725 206.54 410.282 207.967C409.838 209.393 409.032 210.679 407.941 211.697C401.435 217.764 395.49 224.142 393.311 228.341C391.262 232.292 412.304 237.055 417.036 236.86C421.769 236.664 426.193 234.579 430.467 232.533C430.259 234.487 430.632 236.459 431.539 238.202C433.88 238.771 436.311 238.866 438.688 238.481C441.066 238.095 443.344 237.237 445.386 235.957C445.198 239.865 450.115 242.024 453.527 240.917C451.824 267.943 453.07 305.894 454.707 345.291H458.768V242.475C459.849 243.024 461.005 243.409 462.198 243.618C470.507 245.097 480.534 245.996 485.941 239.5C492.163 245.791 503.567 245.672 509.754 239.402C509.145 240.484 510.077 242.304 511.456 242.591C513.08 242.929 514.661 241.961 516.04 241.036C522.285 236.85 528.529 232.664 534.773 228.478C527.068 223.27 516.121 215.871 506.023 209.045Z" fill="#0D4F1B"/>
<path d="M34.6456 313.854C35.0528 313.873 35.4559 313.766 35.8002 313.547C36.1446 313.329 36.4137 313.009 36.5709 312.632C36.7282 312.255 36.766 311.839 36.6793 311.439C36.5927 311.04 36.3856 310.677 36.0863 310.399C36.0362 310.2 36.0002 310.056 35.9501 309.856C35.9681 309.813 35.9861 309.77 36.0042 309.726C36.4144 308.755 37.1018 307.926 37.98 307.345C38.8582 306.764 39.888 306.456 40.9402 306.46C41.9924 306.464 43.0199 306.78 43.8938 307.367C44.7676 307.955 45.4488 308.788 45.8518 309.763C47.4624 313.652 49.513 317.548 50.0179 321.661C50.2403 323.479 50.1465 325.322 49.7407 327.107C53.5236 318.833 55.488 309.84 55.5006 300.738C55.5014 298.454 55.3748 296.172 55.1215 293.902C54.9122 292.041 54.6217 290.194 54.2501 288.359C52.2226 278.406 47.8694 269.078 41.5479 261.139C38.4884 259.465 36.014 256.891 34.4584 253.764C33.8948 252.64 33.4965 251.44 33.2759 250.201C33.621 250.247 33.9718 250.275 34.3169 250.298C34.4244 250.303 34.5376 250.309 34.6451 250.315L34.6857 250.317C35.065 250.334 35.4411 250.24 35.7688 250.048C36.0965 249.856 36.3618 249.573 36.5327 249.233C36.7037 248.893 36.7729 248.51 36.7322 248.132C36.6915 247.753 36.5426 247.395 36.3033 247.099C36.1543 246.915 36.0052 246.731 35.856 246.548C35.6296 246.264 35.3976 245.986 35.1713 245.702C35.1452 245.676 35.1206 245.647 35.0978 245.617C34.8375 245.294 34.5772 244.976 34.3169 244.653C34.792 243.914 35.431 243.294 36.1841 242.843C38.7925 241.311 42.391 242.372 44.2751 244.738C46.1649 247.104 46.5213 250.423 45.865 253.378C45.2196 255.893 44.1519 258.28 42.7078 260.436C42.8493 260.617 42.9964 260.793 43.1378 260.975C45.7236 264.309 47.9772 267.888 49.8665 271.663C49.4071 267.434 49.9554 263.157 51.4665 259.182C52.9979 255.478 55.8683 252.358 58.3961 249.156C61.4324 245.309 67.6585 246.988 68.1934 251.864C68.1986 251.911 68.2036 251.958 68.2086 252.005C67.8331 252.218 67.4656 252.443 67.106 252.682C66.6542 252.984 66.3042 253.417 66.1017 253.922C65.8993 254.428 65.8538 254.983 65.9713 255.515C66.0888 256.046 66.3638 256.53 66.7603 256.903C67.1568 257.275 67.6562 257.519 68.1932 257.602L68.2481 257.61C68.1144 258.967 67.878 260.312 67.5409 261.633C66.5642 265.32 64.8383 268.766 62.4714 271.753C60.1045 274.74 57.1477 277.205 53.7862 278.993C53.5655 279.106 53.3505 279.22 53.1298 279.328C54.1424 282.188 54.9517 285.117 55.5515 288.093C56.0882 290.716 56.4623 293.371 56.6718 296.041C56.9283 299.404 56.9132 302.783 56.6265 306.145L56.6435 306.026C57.3678 302.288 59.3563 298.915 62.2732 296.478C66.6056 292.909 72.7265 291.595 77.4004 288.727C77.8971 288.407 78.4747 288.236 79.065 288.235C79.6553 288.233 80.2337 288.401 80.7319 288.719C81.2302 289.036 81.6276 289.49 81.8772 290.026C82.1268 290.562 82.2182 291.159 82.1407 291.746C82.1344 291.787 82.1281 291.829 82.1216 291.871C81.4248 292.155 80.7465 292.483 80.0904 292.852C79.7149 293.065 79.3474 293.29 78.9878 293.529C78.536 293.831 78.186 294.264 77.9835 294.769C77.7811 295.275 77.7356 295.83 77.8531 296.362C77.9706 296.893 78.2457 297.377 78.6421 297.75C79.0386 298.122 79.538 298.366 80.075 298.449L80.13 298.457C80.1696 298.463 80.2035 298.469 80.2431 298.475C79.0526 301.325 77.3817 303.948 75.3037 306.23C72.7365 308.992 69.6338 311.199 66.1857 312.716C62.7377 314.233 59.0169 315.028 55.2516 315.052H55.2459C54.2238 319.505 52.7429 323.84 50.827 327.987H35.0411C34.9845 327.811 34.9336 327.629 34.8827 327.453C36.3439 327.545 37.8108 327.458 39.2507 327.192C38.0795 325.751 36.9083 324.299 35.7371 322.858C35.711 322.831 35.6864 322.803 35.6635 322.773C35.0694 322.035 34.4697 321.303 33.8756 320.566L33.8753 320.565C33.8436 318.304 34.1023 316.049 34.6451 313.855L34.6456 313.854Z" fill="#0D4F1B"/>
<path d="M505.058 329.302C505.465 329.32 505.868 329.213 506.212 328.994C506.557 328.776 506.826 328.456 506.983 328.079C507.14 327.702 507.178 327.286 507.091 326.886C507.005 326.487 506.798 326.124 506.498 325.847C506.448 325.647 506.412 325.503 506.362 325.304C506.38 325.26 506.398 325.217 506.416 325.173C506.827 324.202 507.514 323.374 508.392 322.792C509.27 322.211 510.3 321.904 511.352 321.907C512.404 321.911 513.432 322.227 514.306 322.814C515.18 323.402 515.861 324.235 516.264 325.21C517.874 329.1 519.925 332.996 520.43 337.108C520.652 338.926 520.559 340.769 520.153 342.554C523.936 334.28 525.9 325.287 525.913 316.185C525.913 313.901 525.787 311.619 525.534 309.349C525.324 307.488 525.034 305.641 524.662 303.806C522.635 293.854 518.281 284.525 511.96 276.587C508.9 274.913 506.426 272.339 504.871 269.211C504.307 268.087 503.909 266.887 503.688 265.649C504.033 265.694 504.384 265.722 504.729 265.745C504.837 265.751 504.95 265.756 505.057 265.762L505.098 265.764C505.477 265.781 505.853 265.688 506.181 265.495C506.509 265.303 506.774 265.02 506.945 264.68C507.116 264.34 507.185 263.958 507.144 263.579C507.104 263.201 506.955 262.842 506.715 262.546C506.566 262.363 506.417 262.179 506.268 261.995C506.042 261.711 505.81 261.433 505.583 261.15C505.557 261.123 505.533 261.094 505.51 261.065C505.25 260.741 504.989 260.424 504.729 260.1C505.204 259.361 505.843 258.741 506.596 258.29C509.205 256.759 512.803 257.82 514.687 260.185C516.577 262.551 516.933 265.87 516.277 268.826C515.632 271.341 514.564 273.727 513.12 275.883C513.261 276.065 513.408 276.24 513.55 276.422C516.136 279.756 518.389 283.336 520.279 287.11C519.819 282.882 520.368 278.604 521.879 274.629C523.41 270.925 526.28 267.805 528.808 264.603C531.844 260.756 538.071 262.435 538.606 267.311C538.611 267.358 538.616 267.405 538.621 267.453C538.245 267.665 537.878 267.89 537.518 268.129C537.066 268.432 536.716 268.864 536.514 269.369C536.311 269.875 536.266 270.43 536.383 270.962C536.501 271.494 536.776 271.978 537.172 272.35C537.569 272.723 538.068 272.966 538.605 273.049L538.66 273.058C538.527 274.415 538.29 275.759 537.953 277.08C536.976 280.768 535.25 284.213 532.884 287.2C530.517 290.187 527.56 292.652 524.198 294.44C523.978 294.553 523.763 294.667 523.542 294.775C525.44 300.168 526.631 305.787 527.084 311.488C527.34 314.852 527.325 318.231 527.039 321.592L527.056 321.473C527.78 317.735 529.768 314.363 532.685 311.925C537.018 308.356 543.139 307.042 547.813 304.174C548.309 303.854 548.887 303.684 549.477 303.682C550.067 303.681 550.646 303.848 551.144 304.166C551.642 304.483 552.04 304.937 552.289 305.473C552.539 306.009 552.63 306.606 552.553 307.193C552.547 307.235 552.54 307.276 552.534 307.318C551.837 307.603 551.159 307.93 550.503 308.3C550.127 308.512 549.76 308.737 549.4 308.976C548.948 309.278 548.598 309.711 548.396 310.216C548.193 310.722 548.148 311.277 548.265 311.809C548.383 312.341 548.658 312.825 549.054 313.197C549.451 313.57 549.95 313.813 550.487 313.896L550.542 313.905C550.582 313.91 550.616 313.916 550.655 313.922C549.465 316.772 547.794 319.395 545.716 321.677C543.149 324.439 540.046 326.646 536.598 328.163C533.15 329.68 529.429 330.475 525.664 330.499H525.658C524.636 334.952 523.155 339.287 521.239 343.434H505.453C505.397 343.258 505.346 343.076 505.295 342.9C506.756 342.993 508.223 342.905 509.663 342.64C508.492 341.198 507.32 339.746 506.149 338.305C506.123 338.278 506.099 338.25 506.076 338.22C505.482 337.483 504.882 336.751 504.288 336.013L504.287 336.012C504.256 333.752 504.514 331.496 505.057 329.302L505.058 329.302Z" fill="#0D4F1B"/>
<path d="M317.443 283.514C317.85 283.533 318.253 283.426 318.598 283.207C318.942 282.989 319.211 282.669 319.369 282.292C319.526 281.915 319.564 281.499 319.477 281.099C319.39 280.7 319.183 280.337 318.884 280.06C318.834 279.86 318.798 279.716 318.748 279.517C318.766 279.473 318.784 279.43 318.802 279.386C319.212 278.415 319.899 277.586 320.778 277.005C321.656 276.424 322.686 276.116 323.738 276.12C324.79 276.124 325.817 276.44 326.691 277.027C327.565 277.615 328.246 278.448 328.649 279.423C330.26 283.312 332.311 287.209 332.816 291.321C333.038 293.139 332.944 294.982 332.538 296.767C336.321 288.493 338.286 279.5 338.298 270.398C338.299 268.114 338.172 265.832 337.919 263.562C337.71 261.701 337.419 259.854 337.048 258.019C335.02 248.066 330.667 238.738 324.346 230.799C321.286 229.126 318.812 226.552 317.256 223.424C316.692 222.3 316.294 221.1 316.073 219.861C316.419 219.907 316.769 219.935 317.115 219.958C317.222 219.964 317.335 219.969 317.443 219.975L317.483 219.977C317.863 219.994 318.239 219.901 318.566 219.708C318.894 219.516 319.159 219.233 319.33 218.893C319.501 218.553 319.571 218.171 319.53 217.792C319.489 217.414 319.34 217.055 319.101 216.759C318.952 216.575 318.803 216.392 318.654 216.208C318.427 215.924 318.195 215.646 317.969 215.363C317.943 215.336 317.918 215.307 317.895 215.277C317.635 214.954 317.375 214.636 317.115 214.313C317.59 213.574 318.229 212.954 318.982 212.503C321.59 210.972 325.189 212.032 327.073 214.398C328.962 216.764 329.319 220.083 328.663 223.038C328.017 225.554 326.95 227.94 325.505 230.096C325.647 230.277 325.794 230.453 325.935 230.635C328.521 233.969 330.775 237.549 332.664 241.323C332.205 237.095 332.753 232.817 334.264 228.842C335.795 225.138 338.666 222.018 341.194 218.816C344.23 214.969 350.456 216.648 350.991 221.524C350.996 221.571 351.001 221.618 351.006 221.666C350.631 221.878 350.263 222.103 349.904 222.342C349.452 222.644 349.102 223.077 348.899 223.582C348.697 224.088 348.651 224.643 348.769 225.175C348.886 225.707 349.161 226.19 349.558 226.563C349.954 226.935 350.454 227.179 350.991 227.262L351.046 227.271C350.912 228.627 350.676 229.972 350.339 231.293C349.362 234.98 347.636 238.426 345.269 241.413C342.902 244.4 339.945 246.865 336.584 248.653C336.363 248.766 336.148 248.88 335.927 248.988C337.826 254.381 339.016 259.999 339.469 265.701C339.726 269.065 339.711 272.444 339.424 275.805L339.441 275.686C340.165 271.948 342.154 268.576 345.071 266.138C349.403 262.569 355.524 261.255 360.198 258.387C360.695 258.067 361.272 257.896 361.863 257.895C362.453 257.894 363.031 258.061 363.53 258.379C364.028 258.696 364.425 259.15 364.675 259.686C364.924 260.222 365.016 260.819 364.938 261.406C364.932 261.448 364.926 261.489 364.919 261.531C364.222 261.816 363.544 262.143 362.888 262.513C362.513 262.725 362.145 262.95 361.785 263.189C361.334 263.491 360.984 263.924 360.781 264.429C360.579 264.935 360.533 265.49 360.651 266.022C360.768 266.554 361.043 267.038 361.44 267.41C361.836 267.782 362.336 268.026 362.873 268.109L362.928 268.118C362.967 268.123 363.001 268.129 363.041 268.135C361.85 270.985 360.179 273.608 358.101 275.89C355.534 278.652 352.431 280.859 348.983 282.376C345.535 283.893 341.815 284.688 338.049 284.712H338.044C337.021 289.165 335.54 293.5 333.625 297.647H317.839C317.782 297.471 317.731 297.289 317.68 297.113C319.141 297.205 320.608 297.118 322.048 296.852C320.877 295.411 319.706 293.959 318.535 292.518C318.509 292.491 318.484 292.463 318.461 292.433C317.867 291.695 317.267 290.964 316.673 290.226L316.673 290.225C316.641 287.965 316.9 285.709 317.443 283.515L317.443 283.514Z" fill="#0D4F1B"/>
<path d="M217.139 403.791L223.745 401.822L219.375 374.746L209.625 377.653L217.139 403.791Z" fill="#FFB6B6"/>
<path d="M176.626 393.104C177.028 393.455 177.431 393.802 177.838 394.149C178.649 394.844 179.47 395.53 180.292 396.208C180.705 396.547 181.123 396.887 181.538 397.222L181.535 397.235L181.562 397.244L181.57 397.25L182.238 397.532L183.652 395.049L184.304 393.906L185.226 392.286L186.914 389.323L195.806 373.72L186.439 369.762L185.838 371.201L185.833 371.2L185.535 371.913L179.942 385.221L178.801 387.941L178.764 388.024L178.078 389.649L177.485 391.057L176.825 392.63L176.626 393.104Z" fill="#FFB6B6"/>
<path d="M127.687 325.581C128.147 326.674 128.623 327.765 129.103 328.848C129.997 330.862 130.926 332.855 131.89 334.826C131.89 334.83 131.894 334.831 131.898 334.836C132.518 335.626 133.227 336.341 134.012 336.966C134.044 336.999 134.082 337.023 134.114 337.052C134.693 337.504 135.326 337.884 135.998 338.181C136.241 338.284 136.488 338.388 136.73 338.492C137.607 338.854 138.48 339.182 139.352 339.488C140.904 340.026 142.453 340.482 144 340.856C144.124 340.89 144.249 340.919 144.374 340.948C150.753 342.448 157.157 342.682 163.914 342.47C167.249 342.37 170.672 342.158 174.216 341.937C175.375 341.861 176.537 341.791 177.713 341.723C177.802 341.718 177.896 341.71 177.989 341.706C179.669 341.607 181.376 341.516 183.122 341.437C185.32 341.336 187.584 341.26 189.93 341.22L189.258 344.419C188.731 346.878 187.831 349.241 186.588 351.426C185.163 354.13 184.034 356.269 184.919 361.235L185.344 363.639C184.758 364.707 184.427 365.896 184.377 367.113C184.326 368.33 184.558 369.542 185.054 370.654L185.174 370.919L176.006 386.482L175.412 387.491L178.764 388.024L182.886 388.683L189.872 389.792L203.157 371.114L203.793 370.223L203.8 370.173L208.915 331.036C208.955 330.69 208.983 330.337 208.993 329.986C209.056 328.395 208.802 326.806 208.246 325.314C207.69 323.821 206.844 322.455 205.756 321.294C204.714 320.174 203.461 319.273 202.069 318.643C200.677 318.012 199.174 317.666 197.648 317.624L194.126 317.523L186.932 317.317L181.864 317.175L181.762 317.173L166.816 316.747L166.444 312.283L166.262 312.18L160.454 308.935L140.366 297.71L140.315 297.684L138.993 296.945L138.783 297.19C138.721 297.264 138.658 297.337 138.601 297.411C136.82 299.684 135.276 302.132 133.992 304.719C131.854 308.938 129.957 313.275 128.31 317.711C128.238 317.903 128.174 318.078 128.116 318.236L128.095 318.284C128.069 318.359 128.052 318.407 128.046 318.42C127.23 320.395 127.177 322.955 127.687 325.581Z" fill="#212529"/>
<path d="M129.055 311.075C129.169 310.797 129.301 310.516 129.436 310.246C130.493 308.201 131.662 306.217 132.937 304.302C134.373 302.119 136.047 299.803 137.998 297.317C138.942 296.113 139.949 294.865 141.021 293.574C141.558 292.926 142.114 292.268 142.688 291.599C142.711 291.568 142.736 291.538 142.762 291.509L142.927 291.312L163.58 297.495L163.57 300.33L165.068 304.348L164.967 304.466C164.971 304.467 164.972 304.463 164.967 304.466V303.915L165.517 304.466L170.842 311.063L170.879 311.065L182.778 311.401L195.04 311.749L201.627 311.938C203.154 311.98 204.657 312.326 206.049 312.956C207.441 313.586 208.694 314.488 209.735 315.608C210.823 316.769 211.669 318.136 212.225 319.628C212.781 321.12 213.035 322.709 212.972 324.3C212.963 324.623 212.938 324.953 212.901 325.277L216.705 340.712C218.982 349.943 219.856 359.466 219.299 368.959L221.503 383.982L220.858 383.94L211.255 383.319L208.719 383.157L204.489 374.229C204.007 373.211 203.561 372.171 203.159 371.115C202.495 369.389 201.942 367.623 201.502 365.827L194.085 335.534C193.14 335.546 192.205 335.552 191.28 335.552C187.001 335.568 182.908 335.485 179.002 335.304C166.3 334.719 155.476 333.111 146.042 330.398C143.392 329.639 140.849 328.79 138.413 327.851C137.519 327.51 136.64 327.156 135.774 326.788C135.57 326.705 135.371 326.622 135.172 326.535C133.384 325.757 131.819 324.541 130.621 323C129.422 321.459 128.628 319.641 128.312 317.712C127.924 315.474 128.182 313.171 129.055 311.075Z" fill="#212529"/>
<path d="M215.841 399.277L222.989 397.139L224.111 396.803L225.128 401.165L236.342 405.574C236.897 405.792 237.367 406.181 237.685 406.686C238.003 407.191 238.152 407.785 238.109 408.38C238.067 408.976 237.836 409.542 237.449 409.996C237.063 410.451 236.542 410.769 235.962 410.906L223.875 413.747L220.785 409.923L220.98 414.428L216.427 415.499L214.103 399.799L215.841 399.277Z" fill="#212529"/>
<path d="M176.006 386.482L175.412 387.491L175.836 387.559L176.006 386.482Z" fill="#212529"/>
<path d="M178.114 388.156L184.694 391.68L185.726 392.232L183.388 396.049L188.262 407.094C188.504 407.64 188.565 408.249 188.437 408.832C188.308 409.415 187.997 409.942 187.549 410.335C187.101 410.728 186.539 410.968 185.946 411.018C185.353 411.068 184.759 410.927 184.251 410.615L173.668 404.107L174.156 399.209L171.133 402.547L167.147 400.097L176.513 387.301L178.114 388.156Z" fill="#212529"/>
<path d="M225.661 187.258C225.724 187.989 225.627 188.725 225.375 189.415C225.124 190.104 224.726 190.73 224.207 191.248C223.689 191.766 223.064 192.163 222.375 192.413C221.687 192.662 220.953 192.758 220.224 192.692L212.906 208.951L207.965 201.116L215.671 186.877C215.863 185.657 216.494 184.549 217.446 183.764C218.398 182.98 219.603 182.572 220.835 182.619C222.066 182.666 223.237 183.164 224.127 184.019C225.016 184.874 225.562 186.027 225.661 187.258H225.661Z" fill="#FFB6B6"/>
<path d="M207.046 235.628L173.518 261.35C170.858 263.386 167.502 264.281 164.184 263.839C160.867 263.396 157.861 261.652 155.824 258.99C154.699 257.514 153.911 255.809 153.516 253.994C153.122 252.179 153.131 250.299 153.543 248.487C153.954 246.676 154.759 244.978 155.898 243.514C157.038 242.049 158.486 240.854 160.138 240.014L193.563 223.01L208.516 193.801L218.557 196.793L207.046 235.628Z" fill="#362406"/>
<path d="M135.64 266.184L134.961 291.144C125.606 306.99 124.542 314.685 127.132 318.787L165.596 304.699L166.244 303.147L168.252 291.995L171.894 280.488C172.535 279.286 181.24 271.899 173.08 257.887L156.663 235.712L143.509 234.957C141.341 240.538 145.253 243.583 141.346 244.869C132.51 252.989 133.808 254.31 135.64 266.184Z" fill="#362406"/>
<path d="M109.481 336.257C109.183 335.587 109.035 334.859 109.048 334.126C109.061 333.392 109.234 332.67 109.555 332.011C109.877 331.351 110.338 330.771 110.908 330.31C111.477 329.848 112.14 329.518 112.851 329.342L114.473 311.578L121.694 317.366L119.047 333.347C119.263 334.563 119.027 335.817 118.383 336.87C117.739 337.924 116.732 338.704 115.553 339.062C114.374 339.421 113.104 339.334 111.985 338.817C110.866 338.3 109.975 337.389 109.481 336.257V336.257Z" fill="#FFB6B6"/>
<path d="M111.325 284.444L134.64 249.155C136.491 246.36 139.372 244.415 142.652 243.748C145.931 243.08 149.341 243.744 152.132 245.594C153.677 246.62 154.977 247.974 155.941 249.561C156.905 251.147 157.508 252.927 157.709 254.774C157.91 256.62 157.702 258.489 157.102 260.246C156.501 262.003 155.522 263.607 154.235 264.942L128.178 291.956L123.555 324.46L113.091 324.919L111.325 284.444Z" fill="#362406"/>
<path d="M160.738 204.675C165.389 213.866 162.35 224.513 153.72 230.112C144.387 236.166 132.27 234.84 128.351 223.075C123.986 209.974 127.572 204.353 135.369 197.638C144.506 189.769 155.712 194.744 160.738 204.675Z" fill="#212529"/>
<path d="M137.843 225.15C140.211 228.261 143.713 230.302 147.581 230.825C151.449 231.348 155.365 230.31 158.47 227.939C161.575 225.569 163.615 222.059 164.14 218.182C164.666 214.304 163.635 210.376 161.274 207.26L161.147 207.092C158.735 204.065 155.233 202.11 151.396 201.648C147.559 201.187 143.695 202.256 140.637 204.625C137.58 206.995 135.574 210.474 135.052 214.313C134.53 218.152 135.533 222.043 137.847 225.147L137.843 225.15Z" fill="#FFB6B6"/>
<path d="M165.245 203.187C162.852 205.47 159.935 207.127 156.751 208.012C156.113 207.272 155.357 206.644 154.513 206.153C154.917 206.995 155.194 207.893 155.334 208.818C153.915 211.772 148.116 213.895 142.574 216.067L135.234 203.078L144.95 197.558C152.757 192.146 161.947 194.456 165.245 203.187Z" fill="#212529"/>
<path d="M129.696 197.655C128.374 197.042 126.661 197.42 125.418 198.281C124.235 199.183 123.279 200.349 122.625 201.687C121.437 203.852 120.583 206.185 120.093 208.607C119.674 210.702 119.745 213.235 121.62 214.329C123.184 215.241 125.421 214.666 126.859 213.449C128.297 212.231 129.106 210.52 129.808 208.849C130.509 207.178 131.173 205.446 132.42 204.058L131.124 204.664C131.534 203.418 131.725 202.11 131.688 200.798C131.659 200.146 131.459 199.512 131.11 198.961C130.76 198.409 130.273 197.959 129.696 197.655Z" fill="#212529"/>
<path d="M146.501 199.357L136.078 205.28C133.259 206.881 131.19 209.54 130.326 212.67C129.463 215.801 129.875 219.148 131.472 221.974C133.798 226.09 137.572 229.188 142.055 230.663C146.538 232.139 151.409 231.885 155.715 229.951L146.19 221.52L159.112 228.122L161.87 226.554C148.013 224.028 145.339 213.128 146.501 199.357Z" fill="#212529"/>
</g>
<defs>
<clipPath id="clip0_859_8867">
<rect width="560" height="415" fill="white" transform="translate(0 0.5)"/>
</clipPath>
</defs>
</svg>
