<svg width="305" height="276" viewBox="0 0 305 276" fill="none" xmlns="http://www.w3.org/2000/svg">
<g clip-path="url(#clip0_202_1054)">
<path d="M305 275.697H0V0.697296H305V275.697Z" fill="#F8F9FA"/>
<path d="M62.9028 256.132C62.9028 256.132 29.5364 222.761 25.9663 172.498C21.5256 109.976 44.1974 76.8512 86.7814 70.1646C99.8504 68.1117 117.149 54.2228 135.158 37.1522C171.504 2.7002 274.73 39.2793 250.944 152.388C239.754 205.597 285.514 202.62 264.618 256.246L62.9028 256.132Z" fill="#F8F9FA"/>
<path d="M187.842 232.49C187.842 232.49 183.75 221.633 192.148 218.726C192.148 218.726 197.97 217.502 201.792 219.16C201.792 219.16 192.958 226.625 194.421 228.216C195.884 229.808 203.675 219.174 203.675 219.174C203.675 219.174 214.952 222.049 217.859 225.041C217.859 225.041 205.83 229.445 207.632 230.62C209.434 231.795 222.16 227.806 222.16 227.806C222.16 227.806 231.691 233.249 228.951 239.369C226.211 245.49 222.036 246.172 220.558 245.448C219.08 244.722 211.311 237.961 210.668 239.175C210.024 240.388 213.973 246.549 217.692 248.121C217.692 248.121 207.737 253.577 203.792 249.53C199.848 245.482 200.723 241.651 198.242 239.196C195.759 236.738 193.228 235.824 193.96 237.678C194.695 239.53 199.581 242.845 200.21 246.519C200.839 250.193 201.641 252.808 196.986 250.268C192.33 247.729 185.615 241.156 186.727 236.824C187.842 232.49 187.842 232.49 187.842 232.49Z" fill="#3E9D41"/>
<path d="M223.907 237.731C223.907 237.731 196.728 226.652 187.842 232.489C187.842 232.489 185.064 236.115 179.617 238.359L178.347 239.921C178.347 239.921 184.912 236.514 186.728 236.823C186.728 236.823 187.525 225.888 223.907 237.731Z" fill="#3E9D41"/>
<path d="M179.617 238.359C179.617 238.359 172.149 240.679 168.961 248.507L170 248.995C170 248.995 174.761 241.431 179.298 239.444C183.835 237.456 179.617 238.359 179.617 238.359Z" fill="#3E9D41"/>
<path d="M123.783 191.676C123.783 191.676 129.08 186.852 125.24 182.799C125.24 182.799 122.358 180.429 119.778 180.236C119.778 180.236 122.586 186.939 121.332 187.395C120.077 187.85 118.73 179.695 118.73 179.695C118.73 179.695 111.682 178.007 109.236 178.819C109.236 178.819 114.669 184.757 113.343 184.884C112.017 185.011 106.083 179.1 106.083 179.1C106.083 179.1 99.2838 179.342 99.0927 183.53C98.9016 187.717 101.024 189.309 102.045 189.337C103.066 189.366 109.256 187.879 109.274 188.739C109.291 189.598 105.384 191.863 102.885 191.651C102.885 191.651 106.876 197.569 110.191 196.474C113.506 195.38 114.09 193.002 116.151 192.364C118.211 191.726 119.868 191.956 118.945 192.769C118.022 193.581 114.39 193.997 113.016 195.849C111.641 197.701 110.467 198.915 113.754 198.863C117.042 198.81 122.597 197.123 123.19 194.399C123.783 191.676 123.783 191.676 123.783 191.676Z" fill="#3E9D41"/>
<path d="M102.344 184.089C102.344 184.089 120.491 185.857 123.783 191.675C123.783 191.675 124.309 194.491 126.699 197.318L126.967 198.553C126.967 198.553 124.282 194.756 123.19 194.399C123.19 194.399 125.801 188.111 102.344 184.089Z" fill="#3E9D41"/>
<path d="M126.699 197.318C126.699 197.318 130.188 200.775 129.769 206.038L129.057 206.005C129.057 206.005 128.532 200.432 126.573 198.011C124.615 195.591 126.699 197.318 126.699 197.318Z" fill="#3E9D41"/>
<path d="M180.347 205.779C180.347 205.779 162.29 193.147 172.477 179.212C172.477 179.212 180.384 170.81 188.199 169.183C188.199 169.183 182.188 190.812 186.2 191.704C190.211 192.598 191.196 167.111 191.196 167.111C191.196 167.111 212.106 159.128 219.899 160.632C219.899 160.632 205.564 180.968 209.667 180.825C213.772 180.682 229.651 160.228 229.651 160.228C229.651 160.228 250.541 158.245 252.734 170.976C254.928 183.706 249.051 189.426 245.937 189.921C242.825 190.417 223.32 188.352 223.597 190.988C223.873 193.622 236.694 198.985 244.257 197.335C244.257 197.335 234.325 217.034 223.766 215.015C213.205 212.993 210.505 205.957 203.957 204.83C197.408 203.702 192.429 205.069 195.565 207.185C198.701 209.303 209.969 209.117 214.885 214.231C219.801 219.344 223.86 222.591 213.784 223.747C203.709 224.904 186.07 221.967 183.209 213.873C180.347 205.779 180.347 205.779 180.347 205.779Z" fill="#09421A"/>
<path d="M243.004 173.991C243.004 173.991 188.181 186.667 180.347 205.778C180.347 205.778 179.819 214.603 173.597 224.206L173.252 228.089C173.252 228.089 180.004 215.403 183.209 213.873C183.209 213.873 172.805 195.684 243.004 173.991Z" fill="#212529"/>
<path d="M173.597 224.206C173.597 224.206 164.253 236.177 167.56 252.107L169.725 251.722C169.725 251.722 169.189 234.465 174.247 226.277C179.307 218.09 173.597 224.206 173.597 224.206Z" fill="#212529"/>
<path d="M111.119 234.817C111.119 234.817 124.87 223.868 116.099 213.298C116.099 213.298 109.409 207.012 103.116 206.111C103.116 206.111 108.936 223.008 105.789 223.919C102.641 224.83 100.633 204.614 100.633 204.614C100.633 204.614 83.6217 199.312 77.4966 200.898C77.4966 200.898 89.8739 216.352 86.6035 216.444C83.3334 216.536 69.7218 201.066 69.7218 201.066C69.7218 201.066 53.0164 200.537 51.8838 210.77C50.7515 221.002 55.7006 225.257 58.1993 225.494C60.6982 225.732 76.1101 223.113 76.0161 225.222C75.9223 227.331 65.9852 232.238 59.8926 231.305C59.8926 231.305 68.7376 246.473 77.0379 244.336C85.3381 242.201 87.1466 236.471 92.2995 235.246C97.4525 234.022 101.478 234.858 99.0859 236.699C96.6937 238.539 87.7249 238.956 84.0617 243.269C80.3986 247.583 77.3273 250.367 85.3946 250.781C93.462 251.196 107.347 247.977 109.233 241.398C111.119 234.817 111.119 234.817 111.119 234.817Z" fill="#3E9D41"/>
<path d="M111.443 234.402C111.443 234.402 121.699 240.657 123.606 253.483L121.887 253.815C121.887 253.815 117.548 240.791 111.526 236.133C105.505 231.474 111.443 234.402 111.443 234.402Z" fill="#3E9D41"/>
<path d="M114.846 226.349C114.846 226.349 122.219 220.282 117.366 214.621C117.366 214.621 113.68 211.266 110.255 210.833C110.255 210.833 113.559 219.956 111.858 220.479C110.157 221.001 108.894 210.043 108.894 210.043C108.894 210.043 99.6125 207.316 96.3003 208.23C96.3003 208.23 103.153 216.512 101.378 216.59C99.6029 216.67 92.0805 208.391 92.0805 208.391C92.0805 208.391 83.0055 208.252 82.4778 213.818C81.9502 219.384 84.6737 221.65 86.0325 221.758C87.3912 221.865 95.7371 220.306 95.7041 221.451C95.6712 222.598 90.3174 225.349 87.0013 224.897C87.0013 224.897 91.9333 233.055 96.4219 231.821C100.911 230.587 101.843 227.46 104.631 226.749C107.418 226.038 109.611 226.457 108.328 227.478C107.045 228.498 102.179 228.805 100.227 231.179C98.2744 233.552 96.6304 235.092 101.014 235.245C105.398 235.399 112.91 233.528 113.878 229.939C114.846 226.349 114.846 226.349 114.846 226.349Z" fill="#09421A"/>
<path d="M86.7734 214.784C86.7734 214.784 110.838 218.375 114.846 226.348C114.846 226.348 115.364 230.138 118.363 234.066L118.64 235.729C118.64 235.729 115.31 230.488 113.878 229.938C113.878 229.938 117.767 221.736 86.7734 214.784Z" fill="#212529"/>
<path d="M118.364 234.067C118.364 234.067 122.788 238.91 121.886 245.895L120.939 245.802C120.939 245.802 120.603 238.34 118.151 234.983C115.699 231.625 118.364 234.067 118.364 234.067Z" fill="#212529"/>
<path d="M132.406 199.035C132.406 199.035 132.406 196.809 132.716 196.069C133.027 195.33 134.166 192.318 134.166 192.318H138.619C138.619 192.318 139.447 195.066 139.5 195.965C139.551 196.863 139.5 199.035 139.5 199.035H132.406Z" fill="#212529"/>
<path d="M160.679 199.035C160.679 199.035 160.679 196.809 160.368 196.069C160.058 195.33 158.918 192.318 158.918 192.318H154.466C154.466 192.318 153.637 195.066 153.585 195.965C153.533 196.863 153.585 199.035 153.585 199.035H160.679Z" fill="#212529"/>
<path d="M132.964 121.981C132.964 121.981 133.743 146.263 132.578 160.117C131.413 173.971 132.587 193.253 132.587 193.253C132.587 193.253 136.312 195.349 140.351 193.253C140.351 193.253 144.781 166.487 144.752 160.117C144.723 153.334 149.572 123.04 149.572 123.04L132.964 121.981Z" fill="#7A670C"/>
<path d="M160.517 193.251C160.517 193.251 156.792 195.349 152.753 193.251C152.753 193.251 148.325 166.487 148.353 160.116C148.365 157.252 147.509 150.191 146.513 142.993C145.15 133.147 143.532 123.041 143.532 123.041L160.122 119.98C160.122 119.98 159.361 146.263 160.526 160.116C161.692 173.971 160.517 193.251 160.517 193.251Z" fill="#7A670C"/>
<path d="M148.353 160.116C148.366 157.252 147.509 150.191 146.513 142.993C147.545 138.695 150.062 134.556 150.062 134.556C153.246 143.673 148.353 160.116 148.353 160.116Z" fill="#212529"/>
<path d="M104.222 53.496C104.292 53.6435 110.236 66.9188 111.582 69.9239C111.747 70.2924 111.675 70.7157 111.39 70.9972C110.405 71.9696 108.029 74.1023 106.144 74.1045C105.781 74.1049 105.511 73.8022 105.432 73.4401L101.312 54.6006C101.17 53.9525 101.674 53.3457 102.322 53.3839L104.222 53.496Z" fill="#F8F9FA"/>
<path fill-rule="evenodd" clip-rule="evenodd" d="M104.222 53.4962C104.292 53.6438 110.022 66.8076 111.367 69.8127C111.533 70.1812 111.461 70.6045 111.175 70.8859C110.19 71.8583 108.196 74.0749 106.311 74.0771C105.948 74.0776 105.824 74.032 105.744 73.6699L101.312 54.6008C101.17 53.9527 101.674 53.3459 102.322 53.3841L104.222 53.4962ZM110.465 70.1978C109.781 68.6706 108.186 64.7425 106.535 61.0552C105.703 59.1987 104.912 57.4317 104.324 56.1195C104.03 55.4634 103.786 54.9212 103.615 54.5384L103.579 54.46L102.266 54.3825L106.525 73.0635C107.132 72.9899 107.736 72.6506 108.559 72.0849C109.425 71.4896 109.988 70.6655 110.465 70.1978Z" fill="#212529"/>
<path d="M134.052 80.2288C134.052 80.2288 130.387 79.951 128.219 80.6839C126.051 81.4182 114.144 68.1885 110.954 68.6973C110.954 68.6973 105.61 70.6987 105.561 74.0289C105.561 74.0289 116.938 89.9734 124.308 94.0861C131.677 98.1973 132.182 109.571 132.182 109.571L136.29 106.434L134.052 80.2288Z" fill="#212529"/>
<path d="M104.222 53.4961C104.222 53.4961 104.183 50.7901 103.88 50.06C103.439 48.9999 103.551 47.7294 102.178 47.9659C100.805 48.2024 99.2651 49.2391 99.2245 49.708C99.1702 50.3378 99.5841 52.5034 100.057 53.0011C100.219 53.1717 100.428 53.3743 100.633 53.567C101.11 54.0146 101.78 54.1675 102.404 53.9957L104.222 53.4961Z" fill="#F8F9FA"/>
<path fill-rule="evenodd" clip-rule="evenodd" d="M102.98 50.451L102.98 50.4512C102.98 50.4511 102.98 50.4511 102.98 50.4513C102.981 50.4529 102.986 50.4668 102.994 50.4969C103.003 50.5291 103.014 50.572 103.025 50.6266C103.048 50.7366 103.071 50.8746 103.092 51.0367C103.134 51.361 103.166 51.7424 103.189 52.1152C103.202 52.3341 103.213 52.5459 103.221 52.7358L102.151 53.03C101.833 53.1174 101.512 53.035 101.294 52.8304C101.094 52.642 100.9 52.4544 100.758 52.3044C100.764 52.3104 100.767 52.3135 100.767 52.3132C100.769 52.3116 100.716 52.233 100.634 52.0119C100.55 51.7825 100.467 51.4903 100.395 51.1767C100.324 50.8653 100.268 50.5523 100.234 50.2876C100.219 50.1683 100.209 50.064 100.203 49.9776C100.31 49.8767 100.481 49.7455 100.707 49.6055C101.192 49.3056 101.804 49.0443 102.34 48.952C102.408 48.9403 102.455 48.9371 102.486 48.937C102.49 48.9442 102.494 48.9525 102.498 48.962C102.554 49.0787 102.602 49.2409 102.68 49.5237C102.684 49.5361 102.687 49.5486 102.691 49.5614C102.758 49.8085 102.848 50.1333 102.98 50.451ZM102.461 48.8954C102.461 48.8954 102.461 48.8959 102.462 48.8968C102.461 48.8958 102.461 48.8954 102.461 48.8954ZM102.531 48.9399C102.533 48.9407 102.535 48.9409 102.535 48.9409C102.535 48.9408 102.533 48.9404 102.531 48.9399ZM102.178 47.9659C100.805 48.2024 99.2651 49.2391 99.2245 49.708C99.1702 50.3378 99.5841 52.5034 100.057 53.0011C100.219 53.1717 100.428 53.3743 100.633 53.567C101.11 54.0146 101.78 54.1675 102.404 53.9957L104.222 53.4961C104.222 53.4961 104.183 50.7901 103.88 50.06C103.773 49.8024 103.698 49.5324 103.627 49.2746C103.406 48.4714 103.217 47.7868 102.178 47.9659Z" fill="#212529"/>
<path d="M104.222 53.4961C104.222 53.4961 104.879 51.842 105.231 51.3772C105.505 51.0159 104.563 49.3853 104.061 48.6433C103.895 48.3981 103.588 48.3689 103.547 48.6642C103.516 48.8883 103.565 49.2305 103.832 49.7423C104.012 50.0879 103.998 50.398 103.927 50.6356C103.828 50.9655 103.71 51.3184 103.789 51.6538L104.222 53.4961Z" fill="#F8F9FA"/>
<path fill-rule="evenodd" clip-rule="evenodd" d="M104.222 53.4961C104.222 53.4961 104.557 52.6531 104.876 52.0017C105.004 51.7405 105.13 51.5102 105.231 51.3772C105.366 51.1995 105.206 50.7148 104.95 50.1798C104.821 49.9115 104.668 49.6305 104.515 49.3692C104.515 49.3692 104.515 49.3692 104.515 49.3692C104.468 49.2889 104.421 49.2104 104.375 49.1348C104.29 48.9949 104.207 48.8646 104.132 48.7499C104.107 48.7127 104.083 48.6771 104.061 48.6433C103.895 48.3981 103.588 48.3689 103.547 48.6642C103.534 48.7553 103.535 48.8659 103.558 48.9995C103.58 49.1272 103.622 49.2759 103.694 49.4486C103.731 49.5397 103.777 49.6375 103.832 49.7423C103.96 49.9895 103.99 50.2185 103.97 50.4159C103.963 50.4944 103.947 50.5679 103.927 50.6356C103.921 50.6563 103.914 50.677 103.908 50.6979C103.814 51.0097 103.715 51.3394 103.789 51.6538L104.222 53.4961Z" fill="#212529"/>
<path d="M133.827 75.8415C133.827 75.8415 128.484 76.5689 127.77 73.4792C127.056 70.3896 122.272 68.9417 123.085 66.1986C124.081 62.8367 122.13 60.1527 123.716 57.719C125.464 55.0364 128.418 55.7569 129.617 54.1591C130.817 52.5627 133.229 50.844 136.122 51.9907C139.016 53.1375 140.837 51.8821 142.83 53.1361C145.031 54.5221 144.715 56.85 146.485 57.7465C148.108 58.5687 148.068 61.6597 147.307 64.3094C146.757 66.2192 149.048 67.4787 145.988 70.1325C144.713 71.2366 145.404 73.2799 141.142 74.4596C139.222 74.9904 134.824 74.8584 133.827 75.8415Z" fill="#212529"/>
<path d="M133.484 73.0455C133.484 73.0455 134.212 77.946 133.997 80.2436L129.785 84.5996L148.491 83.9437L143.04 78.6418C143.04 78.6418 140.546 72.3567 140.796 69.8102C141.045 67.265 133.484 73.0455 133.484 73.0455Z" fill="#F8F9FA"/>
<path fill-rule="evenodd" clip-rule="evenodd" d="M134.937 80.6936L134.97 80.3391C135.088 79.0771 134.948 77.1836 134.793 75.6786C134.714 74.9105 134.629 74.2163 134.563 73.7142C134.553 73.6379 134.543 73.566 134.534 73.499C134.72 73.3625 134.953 73.193 135.22 73.0027C135.915 72.5075 136.831 71.8797 137.731 71.3337C138.544 70.841 139.275 70.4586 139.801 70.274C139.81 70.9542 139.928 71.7232 140.085 72.4742C140.293 73.466 140.592 74.5247 140.894 75.4862C141.196 76.4503 141.505 77.331 141.739 77.9701C141.856 78.29 141.954 78.5503 142.023 78.7314C142.058 78.8219 142.085 78.8927 142.104 78.9412L142.126 78.9971L142.132 79.012L142.134 79.0172C142.134 79.0173 142.134 79.0178 143.04 78.6418C143.04 78.6418 140.546 72.3567 140.796 69.8102C141.045 67.2651 133.484 73.0455 133.484 73.0455C133.484 73.0455 134.212 77.946 133.997 80.2436L129.785 84.5996L148.491 83.9437L143.04 78.6418L142.134 79.0172L142.214 79.2177L146.129 83.026L132.21 83.514L134.937 80.6936Z" fill="#212529"/>
<path d="M133.579 73.7231C133.579 73.7217 135.659 76.9874 138.356 76.3975C141.053 75.8076 141.103 72.5626 141.103 72.5626L133.579 73.7231Z" fill="#212529"/>
<path d="M137.798 75.0902C135.827 75.4257 131.728 73.4388 131.128 70.132L130.193 64.9729C129.975 63.7657 130.62 62.6217 131.628 62.432L139.123 61.0171C140.132 60.8273 141.135 61.6592 141.354 62.8665L142.236 67.734C142.864 71.2003 140.059 74.7052 137.798 75.0902Z" fill="#F8F9FA"/>
<path fill-rule="evenodd" clip-rule="evenodd" d="M131.628 62.432L139.123 61.0171C140.132 60.8273 141.135 61.6592 141.354 62.8665L142.236 67.734C142.864 71.2003 140.059 74.7052 137.798 75.0902C135.827 75.4257 131.728 73.4388 131.128 70.132L130.193 64.9729C129.975 63.7657 130.62 62.6217 131.628 62.432ZM137.638 74.1038C138.411 73.972 139.474 73.232 140.293 72.0041C141.093 70.8043 141.53 69.326 141.275 67.9163C141.275 67.9164 141.275 67.9162 141.275 67.9163L140.392 63.0488C140.245 62.2343 139.642 61.9361 139.299 62.0006L131.806 63.4153C131.467 63.4792 131.007 63.9748 131.155 64.7907L132.09 69.9497C132.322 71.2328 133.259 72.3501 134.47 73.131C135.707 73.9286 136.979 74.2159 137.638 74.1038Z" fill="#212529"/>
<path d="M160.169 120.756C160.169 120.756 153.196 123.551 146.598 124.797C143.72 125.34 140.536 125.607 137.984 125.737C135.164 125.884 133.119 125.862 133.119 125.862C133.119 125.862 131.677 126.271 131.205 118.729C130.846 112.988 130.803 110.046 129.594 104.885C128.928 102.045 128.195 98.2716 126.765 95.9354C123.551 90.6829 127.289 83.3102 128.556 82.4632C128.556 82.4632 130.457 81.3027 133.997 80.2439C134.01 80.3154 136.671 83.0448 139.218 82.9265C140.65 82.0108 141.766 81.2504 143.04 78.642C145.226 78.4922 147.639 78.4839 150.258 78.6984C150.258 78.6984 150.728 79.8094 155.356 99.7469C157.189 107.644 162.256 120.388 160.169 120.756Z" fill="#212529"/>
<path d="M130.544 67.2139C130.544 67.2139 131.166 62.5595 135.753 62.378C140.342 62.1979 140.905 63.0985 141.585 64.1394C142.264 65.1802 142.228 59.7449 142.228 59.7449L136.668 59.1426C136.668 59.1426 130.641 61.1598 130.165 62.2653C129.677 63.3969 129.814 63.4505 129.814 63.4505L130.544 67.2139Z" fill="#212529"/>
<path d="M132.227 66.9931C131.806 67.0714 131.467 67.2983 131.297 67.6132C131.145 67.8951 131.139 68.2292 131.277 68.5826C131.543 69.2577 132.14 69.6083 133.054 69.6248C133.749 69.6372 134.374 69.4419 134.381 69.4392L134.39 69.4364C135.043 69.3141 135.437 68.8369 135.627 67.9377C135.67 67.7356 135.784 67.0536 135.462 66.7153C135.284 66.5269 134.994 66.4706 134.598 66.5448L132.227 66.9931ZM133.994 69.6977C133.223 69.8421 131.648 69.9589 131.13 68.6417C130.973 68.2429 130.983 67.8607 131.158 67.5362C131.351 67.1773 131.73 66.9216 132.198 66.8336L134.569 66.3853C135.02 66.3001 135.359 66.3729 135.577 66.6026C135.943 66.9876 135.842 67.6888 135.782 67.9721C135.577 68.9414 135.144 69.4571 134.423 69.5946C134.393 69.6042 134.232 69.6523 133.994 69.6977Z" fill="#212529"/>
<path d="M137.793 65.9411C137.398 66.0167 137.146 66.1762 137.045 66.4155C136.863 66.85 137.21 67.4454 137.32 67.6172C137.814 68.3886 138.348 68.6897 139.001 68.566L139.011 68.5646C139.017 68.5646 139.669 68.5192 140.315 68.2539C141.162 67.9046 141.597 67.3587 141.609 66.6314C141.615 66.2519 141.491 65.9425 141.251 65.7349C140.982 65.5025 140.586 65.4145 140.165 65.4942L137.793 65.9411ZM139.462 68.665C139.225 68.709 139.057 68.7241 139.026 68.7269C138.303 68.8602 137.72 68.5357 137.188 67.7066C137.032 67.4632 136.694 66.8459 136.9 66.3522C137.022 66.0594 137.313 65.8669 137.765 65.783L140.136 65.3347C140.603 65.2467 141.048 65.3471 141.353 65.6111C141.631 65.8504 141.774 66.2037 141.767 66.6341C141.745 68.0531 140.234 68.5192 139.462 68.665Z" fill="#212529"/>
<path d="M135.52 67.3625C135.485 67.3694 135.448 67.3556 135.426 67.324C135.395 67.28 135.406 67.2195 135.449 67.1879C135.484 67.1632 136.337 66.5623 137.242 66.8524C137.292 66.8689 137.32 66.9225 137.304 66.9734C137.289 67.0243 137.235 67.0532 137.185 67.0367C136.368 66.7754 135.566 67.3405 135.558 67.3474C135.546 67.3556 135.534 67.3598 135.52 67.3625Z" fill="#212529"/>
<path d="M135.154 72.0378C135.154 72.0378 136.649 71.7545 137.059 71.6775C137.459 71.6033 139.016 71.3077 139.016 71.3077C139.016 71.3077 138.464 72.8298 137.319 73.0168C136.174 73.2038 135.154 72.0378 135.154 72.0378Z" fill="#212529"/>
<path d="M158.561 41.3487C158.561 41.5133 158.845 56.1079 158.909 59.4102C158.917 59.8151 159.161 60.1641 159.537 60.2912C160.837 60.7308 163.884 61.6011 165.585 60.7701C165.913 60.6099 166.028 60.2166 165.945 59.8546L161.652 41.0529C161.504 40.4068 160.794 40.0841 160.226 40.4055L158.561 41.3487Z" fill="#F8F9FA"/>
<path fill-rule="evenodd" clip-rule="evenodd" d="M159.549 41.9321L160.7 41.2803L164.963 59.9507C164.384 60.1527 163.533 60.1631 162.551 60.0175C161.517 59.8642 160.513 59.5664 159.886 59.356C159.853 57.6778 159.767 53.237 159.688 49.183C159.649 47.142 159.611 45.1992 159.584 43.7563C159.57 43.0348 159.559 42.4385 159.551 42.0175L159.549 41.9321ZM164.994 60.0853L164.993 60.083L164.994 60.0853ZM158.909 59.4102C158.845 56.1079 158.561 41.5133 158.561 41.3487L160.226 40.4055C160.794 40.0841 161.504 40.4068 161.652 41.0529L165.945 59.8546C166.028 60.2166 165.913 60.6099 165.585 60.7701C163.884 61.6011 160.837 60.7308 159.537 60.2912C159.161 60.1641 158.917 59.8151 158.909 59.4102Z" fill="#212529"/>
<path d="M143.04 78.6415C143.04 78.6415 146.226 76.7688 148.491 76.469C150.755 76.1693 155.764 60.151 158.854 59.1968C158.854 59.1968 165.214 56.7172 166.675 59.6968C166.675 59.6968 162.602 79.846 157.709 86.8131C152.816 93.7803 156.749 104.885 156.749 104.885L152.159 103.243L143.04 78.6415Z" fill="#212529"/>
<path d="M158.561 41.3496C158.561 41.3496 157.445 38.8939 157.409 38.1019C157.355 36.951 156.715 35.8565 158.053 35.4619C159.391 35.0672 161.218 35.3188 161.455 35.7245C161.77 36.2676 162.318 38.403 162.104 39.0602C162.077 39.1428 162.046 39.2321 162.012 39.3252C161.676 40.2598 160.854 40.9107 159.898 41.0938L158.561 41.3496Z" fill="#F8F9FA"/>
<path fill-rule="evenodd" clip-rule="evenodd" d="M158.386 38.0549L158.386 38.054C158.369 37.7092 158.312 37.377 158.268 37.1244C158.266 37.1112 158.264 37.0983 158.262 37.0856C158.212 36.7963 158.187 36.6287 158.187 36.4994C158.187 36.4896 158.187 36.4809 158.187 36.4732C158.215 36.4597 158.259 36.4419 158.324 36.4227C158.846 36.2686 159.509 36.233 160.073 36.2885C160.337 36.3145 160.547 36.3574 160.687 36.4009C160.719 36.4815 160.754 36.5806 160.791 36.6953C160.873 36.9491 160.956 37.2559 161.024 37.5681C161.093 37.8825 161.142 38.1826 161.164 38.4268C161.184 38.6616 161.17 38.7558 161.172 38.7562C161.172 38.7563 161.173 38.7551 161.174 38.7527C161.151 38.8213 161.125 38.8977 161.095 38.98C160.89 39.5507 160.372 39.9857 159.718 40.1109L159.14 40.2214C159.066 40.0462 158.985 39.8501 158.904 39.646C158.767 39.2998 158.633 38.9422 158.533 38.6314C158.483 38.476 158.445 38.3417 158.419 38.2325C158.406 38.1784 158.397 38.1351 158.392 38.1021C158.387 38.0716 158.386 38.0568 158.386 38.055C158.386 38.0548 158.386 38.0548 158.386 38.0549ZM158.561 41.3496L159.898 41.0938C160.854 40.9107 161.676 40.2598 162.012 39.3252C162.046 39.2321 162.077 39.1428 162.104 39.0602C162.318 38.403 161.77 36.2676 161.455 35.7245C161.218 35.3188 159.391 35.0672 158.053 35.4619C157.04 35.7606 157.161 36.4606 157.303 37.2824C157.348 37.5461 157.396 37.8223 157.409 38.1019C157.445 38.8939 158.561 41.3496 158.561 41.3496ZM158.144 36.4986C158.144 36.4987 158.145 36.4978 158.147 36.496C158.145 36.4977 158.144 36.4986 158.144 36.4986ZM158.192 36.4253C158.192 36.4242 158.192 36.4236 158.192 36.4236L158.192 36.4253Z" fill="#212529"/>
<path d="M158.561 41.3496C158.561 41.3496 157.266 40.1492 156.752 39.8866C156.412 39.7137 156.472 38.3353 156.581 37.3758C156.649 36.7815 157.167 36.5491 157.279 37.1364C157.312 37.3091 157.328 37.5251 157.317 37.7952C157.312 37.9311 157.326 38.0528 157.353 38.1613C157.522 38.829 158.14 39.3651 158.283 40.0389L158.561 41.3496Z" fill="#F8F9FA"/>
<path fill-rule="evenodd" clip-rule="evenodd" d="M158.165 39.6875C158.216 39.8012 158.257 39.9178 158.283 40.0389L158.561 41.3496C158.561 41.3496 157.901 40.7378 157.336 40.2921C157.11 40.1136 156.899 39.9617 156.752 39.8866C156.555 39.7867 156.492 39.2845 156.495 38.6931C156.496 38.5928 156.498 38.4899 156.502 38.386C156.51 38.1784 156.524 37.9667 156.542 37.7631C156.542 37.763 156.542 37.7629 156.542 37.7628C156.546 37.7241 156.549 37.6857 156.553 37.6477C156.562 37.5544 156.571 37.4634 156.581 37.3758C156.585 37.3399 156.591 37.3053 156.598 37.2721C156.71 36.7564 157.174 36.5846 157.279 37.1364C157.297 37.2317 157.31 37.3402 157.317 37.4638C157.321 37.5433 157.322 37.6291 157.32 37.7217C157.319 37.7457 157.318 37.7703 157.317 37.7952C157.312 37.9311 157.326 38.0528 157.353 38.1613C157.383 38.2771 157.425 38.3889 157.477 38.4981C157.57 38.6955 157.691 38.8845 157.812 39.0735C157.941 39.2749 158.07 39.4762 158.165 39.6875Z" fill="#212529"/>
<path d="M92.7134 62.9041L86.3881 50.2899C86.281 50.0754 86.3639 49.8141 86.5731 49.7055L94.0049 45.8225C94.2141 45.7139 94.4705 45.7978 94.5776 46.0123L100.903 58.6265C101.01 58.8396 100.927 59.1009 100.718 59.2109L93.2861 63.0925C93.0767 63.2025 92.8204 63.1173 92.7134 62.9041Z" fill="#7A670C"/>
<path d="M107.34 52.2169C107.243 52.0217 107.22 51.8085 107.264 51.616C107.361 51.1967 107.809 50.8144 108.562 50.9615C109.042 51.055 109.71 51.5266 110.555 52.1261C112.019 53.1615 114.024 54.5805 115.296 54.0841C116.23 53.7184 116.769 52.9828 116.636 52.254C116.51 51.5596 115.675 50.7525 113.739 50.7567C113.51 50.758 113.323 50.5683 113.323 50.3345C113.322 50.0994 113.508 49.9097 113.737 49.9083C116.182 49.9028 117.26 51.0371 117.454 52.0986C117.662 53.244 116.915 54.3591 115.593 54.8761C113.911 55.5334 111.788 54.0305 110.081 52.8233C109.408 52.3461 108.713 51.8539 108.406 51.7948C108.18 51.7494 108.082 51.803 108.07 51.8182C108.075 51.8333 108.127 51.913 108.288 51.9598C108.509 52.0244 108.637 52.2581 108.575 52.4836C108.512 52.7091 108.282 52.8398 108.061 52.7765C107.698 52.6706 107.462 52.4589 107.34 52.2169Z" fill="#212529"/>
<path d="M103.501 44.5601C103.599 44.7553 103.755 44.8983 103.934 44.9753C104.323 45.1389 104.89 44.9932 105.214 44.2837C105.42 43.8313 105.435 43.0022 105.454 41.9517C105.487 40.134 105.532 37.6438 106.67 36.8821C107.507 36.3224 108.407 36.3059 108.908 36.8422C109.386 37.3537 109.54 38.517 108.403 40.1161C108.269 40.3058 108.31 40.5712 108.496 40.7087C108.682 40.8462 108.942 40.8049 109.076 40.6152C110.511 38.5939 110.241 37.0374 109.51 36.2564C108.722 35.4149 107.398 35.3806 106.214 36.1726C104.708 37.1804 104.661 39.8177 104.623 41.9366C104.607 42.7726 104.592 43.6361 104.46 43.9248C104.363 44.1379 104.264 44.1874 104.244 44.1888C104.235 44.1764 104.202 44.0871 104.26 43.9262C104.338 43.7062 104.227 43.4628 104.011 43.3831C103.795 43.3019 103.557 43.4161 103.478 43.6361C103.349 43.9991 103.38 44.3181 103.501 44.5601Z" fill="#212529"/>
<path d="M99.938 52.4326L98.9343 50.432C99.1251 50.8115 103.509 48.6032 103.319 48.2237L104.322 50.2244C104.084 49.7486 99.6995 51.9569 99.938 52.4326Z" fill="#212529"/>
<path d="M118.529 48.4359C111.8 51.9504 105.117 52.3547 103.604 49.3365C102.092 46.3198 106.321 41.0246 113.051 37.5088C113.972 39.3458 117.191 45.7657 118.529 48.4359Z" fill="#D4C179"/>
<path d="M95.2344 47.3206C96.2629 46.7829 98.2186 48.5855 99.6026 51.3452C100.987 54.1048 101.275 56.7778 100.246 57.3154C99.4032 55.6352 96.4588 49.7626 95.2344 47.3206Z" fill="#D4C179"/>
<path d="M118.114 48.9119L112.429 37.5736C112.293 37.3028 112.398 36.97 112.664 36.8311C112.93 36.6923 113.255 36.7995 113.391 37.0718L119.076 48.4086C119.212 48.6809 119.107 49.0123 118.842 49.1511C118.576 49.29 118.25 49.1828 118.114 48.9119Z" fill="#212529"/>
<path d="M95.2943 57.7461L91.9966 51.1695L94.0563 50.0929L97.354 56.6695L95.2943 57.7461Z" fill="#D4C179"/>
<path d="M100.817 48.4677C101.672 48.0923 102.872 47.8627 103.184 48.2243C103.497 48.5859 102.698 50.0929 101.881 50.6168C101.49 50.867 99.5177 50.9977 99.2688 50.4436C99.0721 50.0077 99.0606 49.2377 100.817 48.4677Z" fill="#F8F9FA"/>
<path fill-rule="evenodd" clip-rule="evenodd" d="M101.202 49.3868L101.203 49.3866C101.434 49.2853 101.695 49.1975 101.944 49.1359C101.768 49.4017 101.566 49.6227 101.403 49.7409C101.403 49.741 101.402 49.7412 101.401 49.7414C101.357 49.7542 101.287 49.7701 101.193 49.7851C101.003 49.8152 100.766 49.834 100.531 49.8319C100.488 49.8315 100.447 49.8304 100.408 49.8287C100.565 49.7096 100.813 49.5573 101.202 49.3868ZM101.433 49.7311C101.433 49.7311 101.432 49.7316 101.429 49.7326C101.432 49.7317 101.433 49.7311 101.433 49.7311ZM102.277 48.4382C102.277 48.4382 102.277 48.4389 102.277 48.4403L102.277 48.4382ZM102.682 49.0495C102.69 49.052 102.695 49.0528 102.695 49.0525C102.696 49.0523 102.692 49.0511 102.682 49.0495ZM100.817 48.4677C101.672 48.0923 102.872 47.8627 103.184 48.2243C103.497 48.5859 102.698 50.0929 101.881 50.6168C101.49 50.867 99.5177 50.9977 99.2688 50.4436C99.0721 50.0077 99.0606 49.2377 100.817 48.4677Z" fill="#212529"/>
<path d="M172.725 255.708H120.301V200.562H172.725V255.708Z" fill="#212529"/>
<path d="M172.021 205.721H121.005C119.12 205.721 117.593 204.161 117.593 202.238C117.593 200.314 119.12 198.755 121.005 198.755H172.021C173.905 198.755 175.433 200.314 175.433 202.238C175.433 204.161 173.905 205.721 172.021 205.721Z" fill="#09421A"/>
<path d="M277.988 256.333H47.7689C47.472 256.333 47.2292 256.085 47.2292 255.783C47.2292 255.479 47.472 255.232 47.7689 255.232H277.988C278.286 255.232 278.528 255.479 278.528 255.783C278.528 256.085 278.286 256.333 277.988 256.333Z" fill="#212529"/>
<path d="M195.672 50.6912C195.672 50.6912 194.106 51.8915 192.301 51.7925C190.961 51.7183 189.589 50.5207 189.534 50.4395L188.557 52.3755C188.557 52.3755 191.058 53.7656 193.123 53.2541C193.755 53.0974 194.761 52.4017 195.207 51.8943C195.697 51.3347 195.672 50.6912 195.672 50.6912Z" fill="#212529"/>
<path d="M195.448 46.7624L198.068 45.507C198.068 45.507 197.96 51.1913 193.45 53.1396C193.45 53.1396 196.173 49.1233 195.448 46.7624Z" fill="#09421A"/>
<path d="M105 108.196C105 108.196 105.72 110.907 104.652 113.261C103.858 115.008 101.611 116.211 101.479 116.241L103.446 118.554C103.446 118.554 106.527 115.947 106.95 112.929C107.079 112.005 106.713 110.301 106.296 109.443C105.837 108.497 105 108.196 105 108.196Z" fill="#212529"/>
<path d="M99.8599 106.446L99.6189 102.3C99.6189 102.3 106.833 105.408 106.975 112.433C106.975 112.433 103.257 106.713 99.8599 106.446Z" fill="#09421A"/>
<path d="M190.311 143.827C190.311 143.827 187.88 142.803 186.756 140.604C185.923 138.972 186.341 136.533 186.396 136.413L183.532 136.585C183.532 136.585 183.67 140.486 185.662 142.573C186.272 143.213 187.75 143.924 188.63 144.102C189.6 144.299 190.311 143.827 190.311 143.827Z" fill="#212529"/>
<path d="M194.607 140.876L197.823 143.108C197.823 143.108 191.309 146.871 186.016 142.884C186.016 142.884 192.429 143.347 194.607 140.876Z" fill="#09421A"/>
<path d="M229.492 111.405C229.492 111.405 233.3 108.705 236.157 112.729L239.296 111.352C239.296 111.352 237.747 108.853 231.663 109.962C227.682 110.686 229.492 111.405 229.492 111.405Z" fill="#09421A"/>
<path d="M225.743 114.045C225.743 114.045 226.779 109.678 234.587 109.678C234.587 109.678 231.663 109.961 229.376 113.837L225.743 114.045Z" fill="#212529"/>
<path d="M84.3936 155.259C84.3936 155.259 80.4678 157.775 77.7957 153.62L74.5977 154.848C74.5977 154.848 76.0327 157.416 82.1603 156.598C86.1694 156.063 84.3936 155.259 84.3936 155.259Z" fill="#09421A"/>
<path d="M88.2586 152.799C88.2586 152.799 87.0249 157.112 79.2249 156.742C79.2249 156.742 82.1603 156.598 84.6202 152.834L88.2586 152.799Z" fill="#212529"/>
<path d="M196.928 86.5484C196.928 86.5484 194.825 85.1926 194.604 83.555C194.604 83.555 192.557 83.6678 192.114 84.3456C192.114 84.3456 193.055 87.0571 194.161 87.5659C194.161 87.5659 196.652 87.735 196.928 86.5484Z" fill="#212529"/>
<path d="M60.9472 107.879C60.9472 107.879 58.8443 106.523 58.6231 104.885C58.6231 104.885 56.5755 104.998 56.1328 105.676C56.1328 105.676 57.0735 108.386 58.1802 108.895C58.1802 108.895 60.6705 109.064 60.9472 107.879Z" fill="#212529"/>
<path d="M49.2463 185.1C49.2463 185.1 51.4054 183.709 51.6327 182.027C51.6327 182.027 53.735 182.143 54.1895 182.838C54.1895 182.838 53.2236 185.621 52.0873 186.144C52.0873 186.144 49.5305 186.317 49.2463 185.1Z" fill="#7A670C"/>
<path d="M156.427 235.498H136.598C132.613 235.498 129.383 232.202 129.383 228.135C129.383 224.068 132.613 220.77 136.598 220.77H156.427C160.412 220.77 163.642 224.068 163.642 228.135C163.642 232.202 160.412 235.498 156.427 235.498Z" fill="#09421A"/>
</g>
<defs>
<clipPath id="clip0_202_1054">
<rect width="305" height="275" fill="white" transform="translate(0 0.697266)"/>
</clipPath>
</defs>
</svg>
