<svg width="177" height="128" viewBox="0 0 177 128" fill="none" xmlns="http://www.w3.org/2000/svg">
<g clip-path="url(#clip0_982_9374)">
<path d="M176.246 127.018H0.754335C0.686881 127.018 0.62219 126.991 0.574493 126.943C0.526796 126.895 0.5 126.83 0.5 126.762C0.5 126.694 0.526796 126.629 0.574493 126.581C0.62219 126.533 0.686881 126.506 0.754335 126.506H176.246C176.313 126.506 176.378 126.533 176.426 126.581C176.473 126.629 176.5 126.694 176.5 126.762C176.5 126.83 176.473 126.895 176.426 126.943C176.378 126.991 176.313 127.018 176.246 127.018Z" fill="#212529"/>
<path d="M158.876 82.3613H55.6156C55.1771 82.3613 54.7566 82.5367 54.4466 82.8488C54.1366 83.161 53.9624 83.5843 53.9624 84.0257C53.9624 84.4672 54.1366 84.8905 54.4466 85.2027C54.7566 85.5148 55.1771 85.6901 55.6156 85.6901H58.5404V125.508C58.5404 125.949 58.7146 126.373 59.0246 126.685C59.3347 126.997 59.7552 127.172 60.1936 127.172C60.6321 127.172 61.0525 126.997 61.3626 126.685C61.6726 126.373 61.8468 125.949 61.8468 125.508L61.8719 85.6901H152.39V125.508C152.39 125.949 152.564 126.373 152.874 126.685C153.184 126.997 153.605 127.172 154.043 127.172C154.482 127.172 154.902 126.997 155.212 126.685C155.522 126.373 155.696 125.949 155.696 125.508V86.5678L156.177 85.6901H158.876C159.314 85.6901 159.735 85.5148 160.045 85.2027C160.355 84.8905 160.529 84.4672 160.529 84.0257C160.529 83.5843 160.355 83.161 160.045 82.8488C159.735 82.5367 159.314 82.3613 158.876 82.3613Z" fill="#362406"/>
<path d="M112.864 83.2306H81.5852C80.9796 83.2299 80.3989 82.9874 79.9706 82.5562C79.5424 82.125 79.3015 81.5404 79.3008 80.9307V63.5929C79.3015 62.9831 79.5424 62.3985 79.9706 61.9674C80.3989 61.5362 80.9796 61.2937 81.5852 61.293H112.864C113.469 61.2937 114.05 61.5362 114.478 61.9674C114.907 62.3985 115.148 62.9831 115.148 63.5929V80.9307C115.148 81.5404 114.907 82.125 114.478 82.5562C114.05 82.9874 113.469 83.2299 112.864 83.2306Z" fill="#ADB5BD"/>
<path d="M112.864 63.0645H81.5854C81.4458 63.0648 81.3121 63.1207 81.2134 63.22C81.1148 63.3194 81.0592 63.454 81.0589 63.5945V80.9325C81.0592 81.073 81.1148 81.2077 81.2134 81.307C81.3121 81.4063 81.4458 81.4623 81.5854 81.4626H112.864C113.003 81.4623 113.137 81.4063 113.236 81.307C113.334 81.2077 113.39 81.073 113.39 80.9325V63.5945C113.39 63.454 113.334 63.3194 113.236 63.22C113.137 63.1207 113.003 63.0648 112.864 63.0645Z" fill="#D8F6CF"/>
<path d="M97.5289 78.3553C98.4419 78.3553 99.1821 76.7503 99.1821 74.7704C99.1821 72.7905 98.4419 71.1855 97.5289 71.1855C96.6159 71.1855 95.8757 72.7905 95.8757 74.7704C95.8757 76.7503 96.6159 78.3553 97.5289 78.3553Z" fill="#A0616A"/>
<path d="M99.8922 75.34C99.8922 75.34 96.1478 74.4713 94.0884 76.0639C92.029 77.6565 96.7095 81.276 96.7095 81.276L99.8922 75.34Z" fill="#2F2E41"/>
<path d="M97.4079 73.6979C99.3585 73.6979 100.94 72.1058 100.94 70.1419C100.94 68.178 99.3585 66.5859 97.4079 66.5859C95.4572 66.5859 93.8759 68.178 93.8759 70.1419C93.8759 72.1058 95.4572 73.6979 97.4079 73.6979Z" fill="#A0616A"/>
<path d="M94.6767 65.1504C94.9122 64.7479 95.2537 64.4188 95.6633 64.1993C96.0729 63.9799 96.5348 63.8787 96.9979 63.907C97.4823 63.9681 97.9551 64.1014 98.4007 64.3023L100.71 65.2091C101.307 65.4437 101.961 65.7312 102.221 66.3217C102.461 66.8698 102.282 67.5029 102.1 68.0735L101.236 70.7861C101.14 70.1721 100.976 69.5711 100.747 68.9942C100.513 68.4135 100.092 67.9294 99.5502 67.6207C98.9504 67.3109 98.2435 67.3174 97.5702 67.35C96.6167 67.3962 95.5799 67.5183 94.9024 68.1955C94.5428 68.58 94.299 69.0594 94.1993 69.578C94.1012 70.0938 94.0519 70.6178 94.0519 71.143C93.6608 70.4663 93.3315 69.7553 93.0678 69.0188C92.8508 68.4704 92.7272 67.8892 92.7021 67.2994C92.6794 66.7046 92.8754 66.1223 93.2526 65.6639C93.4441 65.44 93.6939 65.2743 93.9739 65.1856C94.2539 65.0968 94.5529 65.0886 94.8373 65.1618L94.6767 65.1504Z" fill="#2F2E41"/>
<path d="M105.841 78.4236C105.808 78.3035 105.741 78.1959 105.647 78.1143C105.553 78.0328 105.438 77.9809 105.315 77.9652C105.307 77.9595 105.298 77.9544 105.289 77.9498L100.017 74.9748C99.8662 74.8899 99.6889 74.8667 99.5217 74.91C99.3546 74.9533 99.2105 75.0598 99.1193 75.2074L97.6773 77.5581L95.5053 75.3713L95.4707 75.3365C95.3592 75.2243 95.2121 75.1552 95.055 75.1414C94.898 75.1276 94.7411 75.1699 94.612 75.2609L90.2786 78.316C90.271 78.316 90.2633 78.3186 90.2558 78.3186C90.0484 78.3534 89.8589 78.4584 89.7188 78.6162C89.5787 78.774 89.4962 78.9752 89.485 79.1866L89.3731 81.463H106.678L105.841 78.4236Z" fill="#6C63FF"/>
<path d="M115.5 81.1077H112.161C112.161 81.0139 112.124 80.9239 112.058 80.8575C111.992 80.7912 111.903 80.7539 111.809 80.7539H110.755C110.662 80.7539 110.573 80.7912 110.507 80.8575C110.441 80.9239 110.404 81.0139 110.404 81.1077H109.349C109.349 81.0139 109.312 80.9239 109.246 80.8575C109.181 80.7912 109.091 80.7539 108.998 80.7539H107.944C107.85 80.7539 107.761 80.7912 107.695 80.8575C107.629 80.9239 107.592 81.0139 107.592 81.1077H106.538C106.538 81.0139 106.501 80.9239 106.435 80.8575C106.369 80.7912 106.28 80.7539 106.186 80.7539H105.132C105.039 80.7539 104.949 80.7912 104.884 80.8575C104.818 80.9239 104.781 81.0139 104.781 81.1077H103.726C103.726 81.0139 103.689 80.9239 103.623 80.8575C103.557 80.7912 103.468 80.7539 103.375 80.7539H102.32C102.227 80.7539 102.138 80.7912 102.072 80.8575C102.006 80.9239 101.969 81.0139 101.969 81.1077H100.915C100.915 81.0139 100.878 80.9239 100.812 80.8575C100.746 80.7912 100.656 80.7539 100.563 80.7539H99.5089C99.4157 80.7539 99.3263 80.7912 99.2604 80.8575C99.1945 80.9239 99.1575 81.0139 99.1575 81.1077H98.1031C98.1031 81.0139 98.0661 80.9239 98.0002 80.8575C97.9343 80.7912 97.8449 80.7539 97.7517 80.7539H96.6973C96.6041 80.7539 96.5147 80.7912 96.4488 80.8575C96.3829 80.9239 96.3459 81.0139 96.3459 81.1077H95.2915C95.2915 81.0139 95.2545 80.9239 95.1886 80.8575C95.1227 80.7912 95.0333 80.7539 94.9401 80.7539H93.8858C93.7926 80.7539 93.7032 80.7912 93.6373 80.8575C93.5714 80.9239 93.5343 81.0139 93.5343 81.1077H92.48C92.48 81.0139 92.443 80.9239 92.3771 80.8575C92.3112 80.7912 92.2218 80.7539 92.1285 80.7539H91.0742C90.981 80.7539 90.8916 80.7912 90.8257 80.8575C90.7598 80.9239 90.7228 81.0139 90.7228 81.1077H89.6684C89.6684 81.0139 89.6314 80.9239 89.5655 80.8575C89.4996 80.7912 89.4102 80.7539 89.317 80.7539H88.2626C88.1694 80.7539 88.0801 80.7912 88.0141 80.8575C87.9482 80.9239 87.9112 81.0139 87.9112 81.1077H86.8569C86.8569 81.0139 86.8198 80.9239 86.7539 80.8575C86.688 80.7912 86.5986 80.7539 86.5054 80.7539H85.4511C85.3579 80.7539 85.2685 80.7912 85.2026 80.8575C85.1367 80.9239 85.0996 81.0139 85.0996 81.1077H84.0453C84.0453 81.0139 84.0083 80.9239 83.9424 80.8575C83.8765 80.7912 83.7871 80.7539 83.6939 80.7539H82.6395C82.5463 80.7539 82.4569 80.7912 82.391 80.8575C82.3251 80.9239 82.2881 81.0139 82.2881 81.1077H78.9494C78.67 81.1082 78.4023 81.2202 78.2049 81.4192C78.0075 81.6182 77.8967 81.888 77.8967 82.1692C77.8967 82.4505 78.0075 82.7202 78.2049 82.9193C78.4023 83.1183 78.67 83.2303 78.9494 83.2307H115.5C115.779 83.2307 116.047 83.1189 116.245 82.9198C116.443 82.7208 116.554 82.4508 116.554 82.1692C116.554 81.8877 116.443 81.6177 116.245 81.4186C116.047 81.2196 115.779 81.1077 115.5 81.1077Z" fill="#ADB5BD"/>
<path d="M73.5143 74.9435V81.9919H55.9748C55.5049 82.0083 55.0365 81.9294 54.5975 81.7597C54.1585 81.59 53.758 81.333 53.4198 81.0042C53.0816 80.6753 52.8126 80.2812 52.6289 79.8454C52.4452 79.4097 52.3505 78.9411 52.3505 78.4677C52.3505 77.9943 52.4452 77.5257 52.6289 77.09C52.8126 76.6542 53.0816 76.2601 53.4198 75.9313C53.758 75.6024 54.1585 75.3454 54.5975 75.1757C55.0365 75.006 55.5049 74.9271 55.9748 74.9435H73.5143Z" fill="#F2F2F2"/>
<path d="M73.9452 81.938C73.9451 82.0099 73.9168 82.0788 73.8663 82.1297C73.8158 82.1805 73.7473 82.2091 73.6759 82.2091H55.6624C54.684 82.2091 53.7458 81.8178 53.054 81.1213C52.3622 80.4248 51.9735 79.4802 51.9735 78.4952C51.9735 77.5102 52.3622 76.5655 53.054 75.869C53.7458 75.1725 54.684 74.7812 55.6624 74.7813H73.6759C73.7473 74.7812 73.8158 74.8098 73.8663 74.8607C73.9168 74.9115 73.9452 74.9804 73.9452 75.0523C73.9452 75.1242 73.9168 75.1932 73.8663 75.244C73.8158 75.2949 73.7473 75.3234 73.6759 75.3234H55.6624C54.8274 75.3242 54.0268 75.6587 53.4366 76.2534C52.8464 76.8482 52.5149 77.6545 52.5149 78.4952C52.5149 79.3359 52.8464 80.1422 53.4366 80.7369C54.0268 81.3317 54.8274 81.6662 55.6624 81.6669H73.6759C73.7473 81.6669 73.8158 81.6955 73.8663 81.7463C73.9167 81.7972 73.9451 81.8661 73.9452 81.938Z" fill="#0D4F1B"/>
<path d="M73.5143 76.5713H54.6661C54.659 76.5714 54.652 76.57 54.6454 76.5673C54.6388 76.5646 54.6328 76.5606 54.6278 76.5556C54.6228 76.5505 54.6188 76.5446 54.616 76.5379C54.6133 76.5313 54.6119 76.5243 54.6119 76.5171C54.6119 76.51 54.6133 76.5029 54.616 76.4963C54.6188 76.4897 54.6228 76.4837 54.6278 76.4786C54.6328 76.4736 54.6388 76.4696 54.6454 76.4669C54.652 76.4642 54.659 76.4628 54.6661 76.4629H73.5143C73.5285 76.463 73.5422 76.4687 73.5522 76.4789C73.5622 76.4891 73.5678 76.5028 73.5678 76.5171C73.5678 76.5314 73.5622 76.5452 73.5522 76.5553C73.5422 76.5655 73.5285 76.5712 73.5143 76.5713Z" fill="#CCCCCC"/>
<path d="M73.5143 77.8721H54.6661C54.659 77.8722 54.652 77.8708 54.6454 77.8681C54.6388 77.8654 54.6328 77.8614 54.6278 77.8564C54.6228 77.8513 54.6188 77.8453 54.616 77.8387C54.6133 77.8321 54.6119 77.825 54.6119 77.8179C54.6119 77.8107 54.6133 77.8037 54.616 77.797C54.6188 77.7904 54.6228 77.7845 54.6278 77.7794C54.6328 77.7744 54.6388 77.7704 54.6454 77.7677C54.652 77.765 54.659 77.7636 54.6661 77.7637H73.5143C73.5285 77.7638 73.5422 77.7695 73.5522 77.7797C73.5622 77.7898 73.5678 77.8036 73.5678 77.8179C73.5678 77.8322 73.5622 77.8459 73.5522 77.8561C73.5422 77.8663 73.5285 77.872 73.5143 77.8721Z" fill="#CCCCCC"/>
<path d="M73.5143 79.1729H54.6661C54.659 79.1729 54.652 79.1716 54.6454 79.1689C54.6388 79.1662 54.6328 79.1622 54.6278 79.1571C54.6228 79.1521 54.6188 79.1461 54.616 79.1395C54.6133 79.1329 54.6119 79.1258 54.6119 79.1187C54.6119 79.1115 54.6133 79.1044 54.616 79.0978C54.6188 79.0912 54.6228 79.0852 54.6278 79.0802C54.6328 79.0752 54.6388 79.0712 54.6454 79.0685C54.652 79.0658 54.659 79.0644 54.6661 79.0645H73.5143C73.5285 79.0646 73.5422 79.0703 73.5522 79.0805C73.5622 79.0906 73.5678 79.1044 73.5678 79.1187C73.5678 79.133 73.5622 79.1467 73.5522 79.1569C73.5422 79.167 73.5285 79.1728 73.5143 79.1729Z" fill="#CCCCCC"/>
<path d="M73.5143 80.4737H54.6661C54.659 80.4737 54.652 80.4724 54.6454 80.4697C54.6388 80.4669 54.6328 80.463 54.6278 80.4579C54.6228 80.4529 54.6188 80.4469 54.616 80.4403C54.6133 80.4337 54.6119 80.4266 54.6119 80.4195C54.6119 80.4123 54.6133 80.4052 54.616 80.3986C54.6188 80.392 54.6228 80.386 54.6278 80.381C54.6328 80.376 54.6388 80.372 54.6454 80.3693C54.652 80.3665 54.659 80.3652 54.6661 80.3652H73.5143C73.5285 80.3653 73.5422 80.3711 73.5522 80.3813C73.5622 80.3914 73.5678 80.4051 73.5678 80.4195C73.5678 80.4338 73.5622 80.4475 73.5522 80.4577C73.5422 80.4678 73.5285 80.4736 73.5143 80.4737Z" fill="#CCCCCC"/>
<path d="M70.208 67.5178V74.5661H52.6684C52.1985 74.5825 51.7301 74.5036 51.2912 74.3339C50.8522 74.1642 50.4517 73.9073 50.1134 73.5784C49.7752 73.2495 49.5062 72.8554 49.3225 72.4197C49.1388 71.9839 49.0441 71.5153 49.0441 71.0419C49.0441 70.5685 49.1388 70.1 49.3225 69.6642C49.5062 69.2284 49.7752 68.8343 50.1134 68.5055C50.4517 68.1766 50.8522 67.9196 51.2912 67.75C51.7301 67.5803 52.1985 67.5013 52.6684 67.5178H70.208Z" fill="#F2F2F2"/>
<path d="M70.6388 74.5122C70.6388 74.5841 70.6104 74.653 70.5599 74.7039C70.5094 74.7547 70.4409 74.7833 70.3695 74.7833H52.356C51.8716 74.7833 51.3919 74.6872 50.9444 74.5006C50.4968 74.314 50.0902 74.0404 49.7476 73.6955C49.4051 73.3507 49.1334 72.9412 48.948 72.4906C48.7626 72.0401 48.6672 71.5571 48.6672 71.0694C48.6672 70.5817 48.7626 70.0987 48.948 69.6481C49.1334 69.1975 49.4051 68.7881 49.7476 68.4433C50.0902 68.0984 50.4968 67.8248 50.9444 67.6382C51.3919 67.4515 51.8716 67.3555 52.356 67.3555H70.3695C70.4409 67.3555 70.5094 67.384 70.5599 67.4349C70.6104 67.4857 70.6388 67.5547 70.6388 67.6266C70.6388 67.6985 70.6104 67.7674 70.5599 67.8182C70.5094 67.8691 70.4409 67.8976 70.3695 67.8976H52.356C51.521 67.8984 50.7204 68.2329 50.1302 68.8276C49.54 69.4224 49.2085 70.2287 49.2085 71.0694C49.2085 71.9101 49.54 72.7164 50.1302 73.3111C50.7204 73.9059 51.521 74.2404 52.356 74.2411H70.3695C70.4409 74.2412 70.5094 74.2697 70.5599 74.3206C70.6104 74.3714 70.6388 74.4403 70.6388 74.5122Z" fill="#3F3D56"/>
<path d="M70.208 69.1456H51.3598C51.3527 69.1456 51.3456 69.1442 51.339 69.1415C51.3325 69.1388 51.3265 69.1348 51.3214 69.1298C51.3164 69.1248 51.3124 69.1188 51.3097 69.1122C51.3069 69.1056 51.3055 69.0985 51.3055 69.0913C51.3055 69.0842 51.3069 69.0771 51.3097 69.0705C51.3124 69.0639 51.3164 69.0579 51.3214 69.0529C51.3265 69.0478 51.3325 69.0438 51.339 69.0411C51.3456 69.0384 51.3527 69.0371 51.3598 69.0371H70.208C70.2222 69.0372 70.2358 69.043 70.2458 69.0531C70.2558 69.0633 70.2615 69.077 70.2615 69.0913C70.2615 69.1057 70.2558 69.1194 70.2458 69.1295C70.2358 69.1397 70.2222 69.1455 70.208 69.1456Z" fill="#CCCCCC"/>
<path d="M70.208 70.4463H51.3598C51.3527 70.4464 51.3456 70.445 51.339 70.4423C51.3325 70.4396 51.3265 70.4356 51.3214 70.4306C51.3164 70.4255 51.3124 70.4195 51.3097 70.4129C51.3069 70.4063 51.3055 70.3993 51.3055 70.3921C51.3055 70.385 51.3069 70.3779 51.3097 70.3713C51.3124 70.3647 51.3164 70.3587 51.3214 70.3536C51.3265 70.3486 51.3325 70.3446 51.339 70.3419C51.3456 70.3392 51.3527 70.3378 51.3598 70.3379H70.208C70.2222 70.338 70.2358 70.3437 70.2458 70.3539C70.2558 70.3641 70.2615 70.3778 70.2615 70.3921C70.2615 70.4064 70.2558 70.4202 70.2458 70.4303C70.2358 70.4405 70.2222 70.4462 70.208 70.4463Z" fill="#CCCCCC"/>
<path d="M70.208 71.7471H51.3598C51.3527 71.7472 51.3456 71.7458 51.339 71.7431C51.3325 71.7404 51.3265 71.7364 51.3214 71.7314C51.3164 71.7263 51.3124 71.7203 51.3097 71.7137C51.3069 71.7071 51.3055 71.7 51.3055 71.6929C51.3055 71.6857 51.3069 71.6787 51.3097 71.6721C51.3124 71.6655 51.3164 71.6595 51.3214 71.6544C51.3265 71.6494 51.3325 71.6454 51.339 71.6427C51.3456 71.64 51.3527 71.6386 51.3598 71.6387H70.208C70.2222 71.6388 70.2358 71.6445 70.2458 71.6547C70.2558 71.6648 70.2615 71.6786 70.2615 71.6929C70.2615 71.7072 70.2558 71.7209 70.2458 71.7311C70.2358 71.7413 70.2222 71.747 70.208 71.7471Z" fill="#CCCCCC"/>
<path d="M70.208 73.0479H51.3598C51.3527 73.0479 51.3456 73.0466 51.339 73.0439C51.3325 73.0412 51.3265 73.0372 51.3214 73.0321C51.3164 73.0271 51.3124 73.0211 51.3097 73.0145C51.3069 73.0079 51.3055 73.0008 51.3055 72.9937C51.3055 72.9865 51.3069 72.9794 51.3097 72.9728C51.3124 72.9662 51.3164 72.9602 51.3214 72.9552C51.3265 72.9502 51.3325 72.9462 51.339 72.9435C51.3456 72.9408 51.3527 72.9394 51.3598 72.9395H70.208C70.2222 72.9396 70.2358 72.9453 70.2458 72.9555C70.2558 72.9656 70.2615 72.9794 70.2615 72.9937C70.2615 73.008 70.2558 73.0217 70.2458 73.0319C70.2358 73.042 70.2222 73.0478 70.208 73.0479Z" fill="#CCCCCC"/>
<path d="M90.6118 107.045V100.899C90.6118 100.628 90.5046 100.367 90.3138 100.175C90.123 99.9829 89.8643 99.875 89.5944 99.875H66.4499C66.1801 99.875 65.9214 99.9829 65.7306 100.175C65.5398 100.367 65.4326 100.628 65.4326 100.899V107.045H90.6118Z" fill="#513C10"/>
<path d="M90.6118 109.35H65.4326V117.288H90.6118V109.35Z" fill="#513C10"/>
<path d="M65.4326 119.592V125.737C65.4326 126.009 65.5398 126.269 65.7306 126.462C65.9214 126.654 66.1801 126.762 66.4499 126.762H89.5944C89.8643 126.762 90.123 126.654 90.3138 126.462C90.5046 126.269 90.6118 126.009 90.6118 125.737V119.592H65.4326Z" fill="#513C10"/>
<path d="M77.895 104.486C78.3164 104.486 78.658 104.142 78.658 103.717C78.658 103.293 78.3164 102.949 77.895 102.949C77.4736 102.949 77.132 103.293 77.132 103.717C77.132 104.142 77.4736 104.486 77.895 104.486Z" fill="#212529"/>
<path d="M77.895 114.728C78.3164 114.728 78.658 114.384 78.658 113.96C78.658 113.535 78.3164 113.191 77.895 113.191C77.4736 113.191 77.132 113.535 77.132 113.96C77.132 114.384 77.4736 114.728 77.895 114.728Z" fill="#212529"/>
<path d="M77.9359 124.753C78.3573 124.753 78.6989 124.409 78.6989 123.985C78.6989 123.561 78.3573 123.217 77.9359 123.217C77.5145 123.217 77.1729 123.561 77.1729 123.985C77.1729 124.409 77.5145 124.753 77.9359 124.753Z" fill="#212529"/>
<path d="M87.7571 92.8693V99.9177H70.2176C69.7477 99.9341 69.2792 99.8551 68.8403 99.6855C68.4013 99.5158 68.0008 99.2588 67.6626 98.9299C67.3243 98.6011 67.0554 98.207 66.8717 97.7712C66.688 97.3354 66.5933 96.8669 66.5933 96.3935C66.5933 95.9201 66.688 95.4515 66.8717 95.0158C67.0554 94.58 67.3243 94.1859 67.6626 93.857C68.0008 93.5282 68.4013 93.2712 68.8403 93.1015C69.2792 92.9318 69.7477 92.8529 70.2176 92.8693H87.7571Z" fill="#F2F2F2"/>
<path d="M88.1879 99.8618C88.1879 99.9337 88.1595 100.003 88.1091 100.054C88.0586 100.104 87.9901 100.133 87.9187 100.133H69.9052C69.4205 100.133 68.9405 100.038 68.4926 99.8511C68.0447 99.6646 67.6376 99.3911 67.2948 99.0462C66.9519 98.7013 66.6799 98.2918 66.4943 97.841C66.3088 97.3902 66.2133 96.907 66.2133 96.419C66.2133 95.931 66.3088 95.4478 66.4943 94.997C66.6799 94.5462 66.9519 94.1367 67.2948 93.7918C67.6376 93.4469 68.0447 93.1734 68.4926 92.9869C68.9405 92.8004 69.4205 92.7047 69.9052 92.7051H87.9187C87.9901 92.7051 88.0586 92.7336 88.1091 92.7845C88.1596 92.8353 88.1879 92.9043 88.1879 92.9762C88.1879 93.0481 88.1596 93.117 88.1091 93.1678C88.0586 93.2187 87.9901 93.2473 87.9187 93.2473H69.9052C69.0702 93.248 68.2696 93.5825 67.6794 94.1772C67.0892 94.772 66.7577 95.5783 66.7577 96.419C66.7577 97.2597 67.0892 98.066 67.6794 98.6608C68.2696 99.2555 69.0702 99.59 69.9052 99.5907H87.9187C87.9901 99.5908 88.0585 99.6193 88.109 99.6702C88.1595 99.721 88.1879 99.7899 88.1879 99.8618Z" fill="#3F3D56"/>
<path d="M87.7571 94.4952H68.9089C68.9018 94.4952 68.8948 94.4938 68.8882 94.4911C68.8816 94.4884 68.8756 94.4845 68.8706 94.4794C68.8655 94.4744 68.8615 94.4684 68.8588 94.4618C68.8561 94.4552 68.8547 94.4481 68.8547 94.4409C68.8547 94.4338 68.8561 94.4267 68.8588 94.4201C68.8615 94.4135 68.8655 94.4075 68.8706 94.4025C68.8756 94.3974 68.8816 94.3934 68.8882 94.3907C68.8948 94.388 68.9018 94.3867 68.9089 94.3867H87.7571C87.7713 94.3868 87.7849 94.3926 87.7949 94.4027C87.805 94.4129 87.8106 94.4266 87.8106 94.4409C87.8106 94.4553 87.805 94.469 87.7949 94.4791C87.7849 94.4893 87.7713 94.4951 87.7571 94.4952Z" fill="#CCCCCC"/>
<path d="M87.7571 95.7959H68.9089C68.9018 95.796 68.8948 95.7946 68.8882 95.7919C68.8816 95.7892 68.8756 95.7852 68.8706 95.7802C68.8655 95.7751 68.8615 95.7692 68.8588 95.7626C68.8561 95.7559 68.8547 95.7489 68.8547 95.7417C68.8547 95.7346 68.8561 95.7275 68.8588 95.7209C68.8615 95.7143 68.8655 95.7083 68.8706 95.7032C68.8756 95.6982 68.8816 95.6942 68.8882 95.6915C68.8948 95.6888 68.9018 95.6875 68.9089 95.6875H87.7571C87.7713 95.6876 87.7849 95.6933 87.7949 95.7035C87.805 95.7137 87.8106 95.7274 87.8106 95.7417C87.8106 95.756 87.805 95.7698 87.7949 95.7799C87.7849 95.7901 87.7713 95.7958 87.7571 95.7959Z" fill="#CCCCCC"/>
<path d="M87.7571 97.0967H68.9089C68.9018 97.0968 68.8948 97.0954 68.8882 97.0927C68.8816 97.09 68.8756 97.086 68.8706 97.081C68.8655 97.0759 68.8615 97.0699 68.8588 97.0633C68.8561 97.0567 68.8547 97.0497 68.8547 97.0425C68.8547 97.0353 68.8561 97.0283 68.8588 97.0217C68.8615 97.0151 68.8655 97.0091 68.8706 97.004C68.8756 96.999 68.8816 96.995 68.8882 96.9923C68.8948 96.9896 68.9018 96.9882 68.9089 96.9883H87.7571C87.7713 96.9884 87.7849 96.9941 87.7949 97.0043C87.805 97.0144 87.8106 97.0282 87.8106 97.0425C87.8106 97.0568 87.805 97.0706 87.7949 97.0807C87.7849 97.0909 87.7713 97.0966 87.7571 97.0967Z" fill="#CCCCCC"/>
<path d="M87.7571 98.3994H68.9089C68.9018 98.3995 68.8948 98.3981 68.8882 98.3954C68.8816 98.3927 68.8756 98.3888 68.8706 98.3837C68.8655 98.3787 68.8615 98.3727 68.8588 98.3661C68.8561 98.3595 68.8547 98.3524 68.8547 98.3452C68.8547 98.3381 68.8561 98.331 68.8588 98.3244C68.8615 98.3178 68.8655 98.3118 68.8706 98.3068C68.8756 98.3017 68.8816 98.2977 68.8882 98.295C68.8948 98.2923 68.9018 98.291 68.9089 98.291H87.7571C87.7713 98.2911 87.7849 98.2969 87.7949 98.307C87.805 98.3172 87.8106 98.3309 87.8106 98.3452C87.8106 98.3595 87.805 98.3733 87.7949 98.3834C87.7849 98.3936 87.7713 98.3994 87.7571 98.3994Z" fill="#CCCCCC"/>
<path d="M64.1119 46.865V1.92596C64.1125 1.41534 64.3142 0.925807 64.6728 0.564745C65.0314 0.203683 65.5177 0.000580812 66.0248 0H101.308C101.816 0.000584194 102.302 0.203687 102.66 0.564749C103.019 0.92581 103.221 1.41535 103.221 1.92596V46.865C103.221 47.3757 103.019 47.8652 102.66 48.2263C102.302 48.5873 101.816 48.7904 101.308 48.791H66.0248C65.5177 48.7904 65.0314 48.5873 64.6728 48.2263C64.3142 47.8652 64.1125 47.3757 64.1119 46.865ZM66.0248 0.427992C65.6304 0.428437 65.2522 0.586402 64.9733 0.867229C64.6943 1.14806 64.5374 1.52881 64.537 1.92596V46.865C64.5374 47.2622 64.6943 47.6429 64.9733 47.9238C65.2522 48.2046 65.6304 48.3626 66.0248 48.363H101.308C101.703 48.3626 102.081 48.2046 102.36 47.9238C102.639 47.6429 102.796 47.2622 102.796 46.865V1.92596C102.796 1.52881 102.639 1.14806 102.36 0.867229C102.081 0.586402 101.703 0.428438 101.308 0.427992H66.0248Z" fill="#E6E6E6"/>
<path d="M85.6452 20.6377V11.4102C85.6455 11.1549 85.7464 10.9102 85.9257 10.7296C86.105 10.5491 86.3481 10.4475 86.6017 10.4473H94.3683C94.6219 10.4475 94.865 10.5491 95.0444 10.7296C95.2237 10.9102 95.3245 11.1549 95.3248 11.4102V20.6377C95.3245 20.893 95.2237 21.1377 95.0444 21.3183C94.865 21.4988 94.6219 21.6004 94.3683 21.6006H86.6017C86.3481 21.6004 86.105 21.4988 85.9257 21.3183C85.7464 21.1377 85.6455 20.893 85.6452 20.6377Z" fill="#0D4F1B"/>
<path d="M70.554 24.9189V15.6915C70.5543 15.4362 70.6552 15.1914 70.8345 15.0109C71.0138 14.8303 71.2569 14.7288 71.5105 14.7285H79.2772C79.5307 14.7288 79.7739 14.8303 79.9532 15.0109C80.1325 15.1914 80.2334 15.4362 80.2337 15.6915V24.9189C80.2334 25.1742 80.1325 25.419 79.9532 25.5995C79.7739 25.7801 79.5307 25.8816 79.2772 25.8819H71.5105C71.2569 25.8816 71.0138 25.7801 70.8345 25.5995C70.6552 25.419 70.5543 25.1742 70.554 24.9189Z" fill="#6C757D"/>
<path d="M82.6695 37.9716V28.7442C82.6698 28.4889 82.7706 28.2441 82.9499 28.0636C83.1293 27.8831 83.3724 27.7815 83.626 27.7812H91.3926C91.6462 27.7815 91.8893 27.8831 92.0686 28.0636C92.2479 28.2441 92.3488 28.4889 92.3491 28.7442V37.9716C92.3488 38.2269 92.2479 38.4717 92.0686 38.6523C91.8893 38.8328 91.6462 38.9343 91.3926 38.9346H83.626C83.3724 38.9343 83.1293 38.8328 82.9499 38.6523C82.7706 38.4717 82.6698 38.2269 82.6695 37.9716Z" fill="#614C17"/>
<path d="M129.082 80.1589H121.091C121.015 80.1588 120.941 80.1764 120.873 80.2101L118.856 81.2267C118.789 81.2551 118.733 81.3025 118.693 81.3631C118.653 81.4236 118.632 81.4946 118.632 81.5673C118.632 81.6399 118.653 81.7109 118.693 81.7714C118.733 81.832 118.789 81.8794 118.856 81.9078L120.873 82.9244C120.941 82.9581 121.015 82.9757 121.091 82.9756H129.082C129.193 82.982 129.301 82.9445 129.384 82.8712C129.466 82.7978 129.517 82.6946 129.525 82.5838V80.5507C129.517 80.4399 129.466 80.3367 129.384 80.2633C129.301 80.19 129.193 80.1525 129.082 80.1589Z" fill="#212529"/>
<path d="M129.525 80.5507V82.5838C129.517 82.6946 129.467 82.7978 129.384 82.8712C129.301 82.9445 129.193 82.982 129.082 82.9756H127.49V80.1589H129.082C129.193 80.1525 129.301 80.19 129.384 80.2634C129.467 80.3367 129.517 80.4399 129.525 80.5507Z" fill="#0A6A3E"/>
<path d="M129.022 64.9493C129.384 64.7921 129.775 64.7136 130.169 64.719C130.564 64.7244 130.952 64.8137 131.31 64.9808C131.667 65.148 131.986 65.3893 132.244 65.689C132.503 65.9887 132.695 66.34 132.81 66.7199C132.845 66.8404 132.872 66.9631 132.891 67.0874L144.066 72.6665L146.652 70.941L149.87 74.6707L145.921 77.8996C145.446 78.2848 144.861 78.5057 144.251 78.5294C143.642 78.553 143.041 78.3782 142.538 78.0309L131.2 70.137C131.116 70.173 131.03 70.2046 130.942 70.2317C130.565 70.3467 130.167 70.38 129.776 70.3296C129.385 70.2791 129.009 70.1461 128.673 69.9391C128.336 69.7321 128.047 69.4559 127.824 69.1286C127.601 68.8013 127.449 68.4302 127.379 68.0396C127.358 67.9263 127.344 67.8117 127.337 67.6966C127.306 67.1203 127.45 66.548 127.752 66.0568C128.053 65.5657 128.496 65.1792 129.022 64.9493Z" fill="#FFB8B8"/>
<path d="M152.298 99.2988H140.087C140.087 99.6522 127.503 99.939 127.503 99.939C127.305 100.089 127.125 100.261 126.966 100.451C126.488 101.025 126.227 101.751 126.228 102.5V103.012C126.229 103.861 126.564 104.675 127.16 105.275C127.756 105.875 128.564 106.212 129.408 106.213H152.298C153.141 106.212 153.949 105.874 154.545 105.274C155.141 104.674 155.476 103.86 155.477 103.012V102.5C155.476 101.651 155.14 100.838 154.544 100.238C153.949 99.6376 153.141 99.3 152.298 99.2988Z" fill="#212529"/>
<path d="M139.015 127.596H142.322V106.086H139.015V127.596Z" fill="#212529"/>
<path d="M129.605 127.478C129.605 127.837 134.615 127.617 140.796 127.617C146.976 127.617 151.987 127.837 151.987 127.478C151.987 127.118 146.976 124.266 140.796 124.266C134.615 124.266 129.605 127.118 129.605 127.478Z" fill="#212529"/>
<path d="M132.59 124.957L129.472 124.956L127.988 116.814L132.59 116.815L132.59 124.957Z" fill="#F3ACAC"/>
<path d="M133.385 128L123.331 128V127.871C123.331 127.354 123.432 126.842 123.629 126.364C123.826 125.886 124.114 125.451 124.477 125.086C124.841 124.72 125.272 124.43 125.747 124.232C126.222 124.034 126.73 123.932 127.244 123.932H127.245L133.385 123.932L133.385 128Z" fill="#212529"/>
<path d="M127.926 119.907L121.71 105.873C121.191 104.69 121.134 103.354 121.549 102.131C121.965 100.907 122.823 99.886 123.953 99.2709L137.436 91.9916L143.589 91.4647L149.264 90.9453L149.305 91.0151C149.357 91.1041 150.578 93.2261 149.753 95.5529C149.127 97.3179 147.5 98.6965 144.916 99.6505C138.884 101.877 131.917 103.78 129.201 104.495C129.081 104.526 128.969 104.582 128.872 104.659C128.775 104.737 128.696 104.834 128.639 104.945C128.582 105.055 128.548 105.175 128.539 105.298C128.531 105.422 128.548 105.545 128.589 105.662L134.364 118.725C134.424 118.891 134.446 119.068 134.427 119.243C134.409 119.419 134.351 119.588 134.257 119.737C134.163 119.886 134.037 120.012 133.888 120.104C133.738 120.196 133.57 120.253 133.395 120.269L129.08 120.585C129.043 120.589 129.007 120.59 128.971 120.59C128.75 120.59 128.533 120.526 128.348 120.405C128.163 120.283 128.016 120.111 127.926 119.907Z" fill="#343A40"/>
<path d="M134.116 124.957L130.998 124.956L129.514 116.814L134.116 116.815L134.116 124.957Z" fill="#FFB8B8"/>
<path d="M134.911 128L124.857 128V127.871C124.857 127.354 124.958 126.842 125.155 126.364C125.352 125.886 125.64 125.451 126.003 125.086C126.367 124.72 126.798 124.43 127.273 124.232C127.748 124.034 128.256 123.932 128.77 123.932H128.771L134.911 123.932L134.911 128Z" fill="#2A2F34"/>
<path d="M129.707 120.677L123.49 106.643C122.971 105.46 122.914 104.124 123.33 102.9C123.745 101.677 124.603 100.656 125.733 100.04L139.216 92.7611L145.369 92.2342L151.045 91.7148L151.085 91.7846C151.138 91.8736 152.358 93.9957 151.533 96.3225C150.908 98.0874 149.28 99.466 146.696 100.42C140.665 102.647 133.697 104.55 130.982 105.264C130.862 105.295 130.749 105.351 130.652 105.429C130.556 105.507 130.476 105.604 130.419 105.715C130.362 105.824 130.328 105.945 130.32 106.068C130.311 106.191 130.328 106.315 130.369 106.431L136.144 119.494C136.205 119.66 136.226 119.838 136.208 120.013C136.189 120.188 136.131 120.357 136.037 120.506C135.944 120.656 135.817 120.781 135.668 120.873C135.518 120.966 135.35 121.022 135.175 121.038L130.86 121.355C130.824 121.358 130.787 121.36 130.751 121.36C130.53 121.36 130.314 121.295 130.128 121.174C129.943 121.053 129.796 120.88 129.707 120.677Z" fill="#383E44"/>
<path d="M126.608 77.8038C123.996 74.3056 121.931 70.4256 120.485 66.2984C120.401 66.0515 120.407 65.7827 120.502 65.5399C120.596 65.297 120.774 65.0958 121.002 64.9722L129.94 60.1501C130.085 60.0715 130.246 60.0271 130.41 60.0204C130.574 60.0137 130.737 60.0448 130.888 60.1114C131.041 60.1784 131.177 60.2798 131.286 60.4077C131.394 60.5357 131.472 60.6869 131.514 60.8498C132.554 64.8269 134.51 68.5016 137.223 71.5765C137.334 71.7017 137.416 71.8508 137.462 72.0127C137.508 72.1745 137.516 72.3447 137.487 72.5103C137.458 72.6732 137.394 72.8276 137.297 72.9615C137.201 73.0954 137.075 73.2054 136.93 73.2831L127.991 78.1052C127.763 78.2279 127.498 78.265 127.245 78.2098C126.992 78.1546 126.766 78.0107 126.608 77.8038Z" fill="#CCCCCC"/>
<path d="M127.218 77.3417C127.266 77.4022 127.334 77.4438 127.409 77.4595C127.484 77.4751 127.563 77.4638 127.631 77.4275L136.569 72.6053C136.613 72.5826 136.65 72.55 136.679 72.5101C136.708 72.4703 136.727 72.4242 136.735 72.3757C136.745 72.3244 136.742 72.2716 136.728 72.2215C136.713 72.1714 136.688 72.1253 136.653 72.0868C133.86 68.9213 131.847 65.1384 130.776 61.0441C130.763 60.9935 130.74 60.9465 130.706 60.9068C130.673 60.867 130.631 60.8356 130.583 60.8149C130.538 60.7948 130.49 60.7853 130.441 60.7874C130.392 60.7894 130.344 60.8029 130.301 60.8267L121.362 65.6487C121.294 65.6856 121.242 65.7451 121.213 65.8169C121.184 65.8888 121.181 65.9685 121.205 66.0423C122.625 70.0956 124.653 73.9062 127.218 77.3417Z" fill="white"/>
<path d="M156.304 76.5179L149.303 79.1962L147.594 74.4163C147.367 73.7816 147.371 73.0866 147.603 72.4541C147.836 71.8215 148.283 71.2922 148.866 70.9596C149.456 70.6232 150.146 70.5101 150.811 70.6409C151.476 70.7716 152.073 71.1376 152.494 71.6726L156.304 76.5179Z" fill="#6C63FF"/>
<path d="M138.498 95.4551C138.351 95.3502 138.227 95.2148 138.136 95.0582C138.044 94.9015 137.987 94.727 137.968 94.5464C137.071 86.1194 137.696 79.5247 139.877 74.3853C140.261 73.4988 140.84 72.7116 141.57 72.0827C142.299 71.4538 143.161 70.9997 144.091 70.7544L149.749 70.4668L149.779 70.4811C151.056 71.1108 152.097 72.138 152.748 73.4105C153.4 74.683 153.627 76.133 153.395 77.5454C151.575 82.3756 150.051 87.4046 151.213 91.4615C151.262 91.6311 151.276 91.8088 151.255 91.9841C151.234 92.1594 151.178 92.3286 151.09 92.4815C151.005 92.6293 150.891 92.758 150.755 92.8597C150.619 92.9614 150.463 93.0339 150.298 93.0728L139.519 95.6541C139.345 95.6959 139.164 95.6998 138.987 95.6655C138.811 95.6312 138.644 95.5594 138.498 95.4551Z" fill="#102C7A"/>
<path d="M147.861 68.3401C151.311 68.3401 154.108 65.5243 154.108 62.0509C154.108 58.5775 151.311 55.7617 147.861 55.7617C144.411 55.7617 141.614 58.5775 141.614 62.0509C141.614 65.5243 144.411 68.3401 147.861 68.3401Z" fill="#FFB8B8"/>
<path d="M130.527 67.0305L125.659 69.1941C125.474 69.2761 125.264 69.2809 125.075 69.2073C124.887 69.1337 124.735 68.9878 124.653 68.8015L124.532 68.5269C124.451 68.3405 124.446 68.1292 124.519 67.9393C124.592 67.7493 124.737 67.5964 124.922 67.5139L129.791 65.3503C129.976 65.2683 130.186 65.2635 130.374 65.3371C130.563 65.4107 130.715 65.5566 130.797 65.7429L130.917 66.0175C130.999 66.2039 131.003 66.4152 130.93 66.6052C130.857 66.7951 130.712 66.948 130.527 67.0305Z" fill="#CCCCCC"/>
<path d="M132.308 70.3605L127.439 72.5242C127.254 72.6062 127.044 72.611 126.855 72.5374C126.667 72.4638 126.515 72.3179 126.433 72.1316L126.313 71.857C126.231 71.6706 126.226 71.4592 126.3 71.2693C126.373 71.0794 126.518 70.9265 126.703 70.844L131.571 68.6804C131.756 68.5983 131.966 68.5936 132.155 68.6672C132.343 68.7408 132.495 68.8867 132.577 69.0729L132.697 69.3476C132.779 69.534 132.784 69.7453 132.711 69.9352C132.637 70.1251 132.493 70.2781 132.308 70.3605Z" fill="#CCCCCC"/>
<path d="M136.062 83.363L125.208 74.7424C125.122 74.773 125.034 74.7991 124.945 74.8206C124.562 74.9108 124.164 74.9189 123.778 74.8443C123.391 74.7697 123.025 74.614 122.702 74.3875C122.377 74.1608 122.104 73.8669 121.901 73.5254C121.698 73.1839 121.57 72.8027 121.525 72.4073C121.453 71.7752 121.594 71.1369 121.927 70.5959C122.26 70.055 122.764 69.6431 123.359 69.4272C123.73 69.2932 124.125 69.2396 124.518 69.27C124.911 69.3004 125.293 69.414 125.64 69.6035C125.986 69.793 126.289 70.054 126.528 70.3694C126.767 70.6849 126.938 71.0477 127.028 71.434C127.056 71.5565 127.076 71.6807 127.086 71.8059L137.891 78.0813L140.58 76.5228L143.558 80.4488L139.383 83.4445C138.895 83.7923 138.308 83.9722 137.709 83.9575C137.111 83.9429 136.533 83.7344 136.062 83.363Z" fill="#FFB8B8"/>
<path d="M144.883 81.6703L138.69 77.4306L141.6 73.2806C141.987 72.7296 142.554 72.3338 143.202 72.1632C143.851 71.9927 144.538 72.0583 145.143 72.3486C145.755 72.6422 146.242 73.1464 146.517 73.7701C146.792 74.3938 146.836 75.096 146.642 75.7497L144.883 81.6703Z" fill="#102C7A"/>
<path d="M145.571 61.1136C143.965 62.2199 141.857 63.3571 140.217 62.179C139.14 61.4054 138.801 59.9729 139.238 58.7158C140.023 56.4551 142.18 55.4598 144.243 54.6969C146.925 53.7052 149.845 52.9162 152.614 53.6265C155.382 54.3367 157.829 57.0354 157.329 59.8675C156.927 62.145 154.793 64.04 155.096 66.333C155.401 68.6406 157.979 69.8553 160.255 70.2678C162.53 70.6802 165.077 70.8127 166.712 72.4584C168.799 74.5579 168.278 78.3103 166.315 80.5269C164.351 82.7434 161.389 83.7482 158.518 84.4312C154.715 85.3362 150.601 85.8118 146.989 84.3099C143.376 82.808 140.565 78.765 141.612 74.9739C142.054 73.3725 143.095 72.0192 144.101 70.7016C145.108 69.3841 146.127 68.0063 146.511 66.3898C146.83 65.0427 146.594 63.4787 145.706 62.4682C145.545 62.2914 145.443 62.0676 145.416 61.829C145.389 61.5904 145.438 61.3492 145.555 61.1402L145.571 61.1136Z" fill="#212529"/>
<path d="M28.2409 91.6697C26.6312 92.2394 24.903 92.3821 23.2227 92.0841C21.5423 91.786 19.9665 91.0574 18.6471 89.9682C15.2868 87.1287 14.2333 82.4506 13.376 78.1189C12.5309 73.8482 11.6857 69.5774 10.8405 65.3066L16.1489 68.9866C19.9664 71.6331 23.8699 74.3643 26.5131 78.1975C29.1563 82.0307 30.31 87.2635 28.1863 91.4112" fill="#125D1B"/>
<path d="M27.7871 107.181C28.3244 103.241 28.8769 99.2505 28.5 95.2681C28.1653 91.7313 27.0936 88.2769 24.9116 85.4444C23.7535 83.9438 22.3442 82.6581 20.7472 81.6451C20.3307 81.3805 19.9475 82.0449 20.3621 82.3084C23.1254 84.0667 25.2627 86.663 26.4658 89.7231C27.7947 93.126 28.0081 96.8355 27.7791 100.45C27.6406 102.637 27.3471 104.808 27.0514 106.977C27.0281 107.075 27.0426 107.179 27.0921 107.266C27.1415 107.354 27.2222 107.42 27.3178 107.45C27.4154 107.476 27.5194 107.463 27.6072 107.413C27.6951 107.362 27.7597 107.279 27.7871 107.181H27.7871Z" fill="#032C17"/>
<path d="M22.6122 100.21C21.9218 101.267 20.9729 102.126 19.8568 102.706C18.7407 103.286 17.495 103.567 16.2399 103.521C13.0141 103.367 10.3248 101.101 7.90398 98.9487L0.74361 92.5837L5.48259 92.3553C8.89058 92.1911 12.3865 92.038 15.6325 93.0961C18.8785 94.1542 21.8721 96.7006 22.4657 100.083" fill="#125D1B"/>
<path d="M29.3055 109.448C26.7195 104.841 23.72 99.7209 18.3603 98.0845C16.87 97.631 15.3074 97.4686 13.7565 97.6059C13.2678 97.6483 13.3898 98.4069 13.8777 98.3645C16.4773 98.1472 19.0718 98.8383 21.2246 100.321C23.2961 101.741 24.909 103.715 26.2742 105.808C27.1104 107.09 27.8594 108.426 28.6085 109.761C28.848 110.187 29.5477 109.879 29.3055 109.448Z" fill="#032C17"/>
<path d="M33.4491 114.296C33.3619 113.28 32.9994 112.307 32.4011 111.483C31.8027 110.66 30.9914 110.017 30.0555 109.626V106.963H25.6187V109.71C24.7289 110.121 23.9631 110.761 23.3994 111.567C22.8357 112.373 22.4943 113.314 22.4099 114.296L21.3667 126.506H34.4924L33.4491 114.296Z" fill="#715C20"/>
</g>
<defs>
<clipPath id="clip0_982_9374">
<rect width="176" height="128" fill="white" transform="translate(0.5)"/>
</clipPath>
</defs>
</svg>
