<svg width="602" height="369" viewBox="0 0 602 369" fill="none" xmlns="http://www.w3.org/2000/svg">
<rect width="602" height="369" rx="32" fill="#A9944E"/>
<g opacity="0.8">
<rect width="602" height="369" rx="32" fill="#212529" fill-opacity="0.25"/>
<path d="M243.25 226.831H239.125V230.956H243.25V226.831Z" fill="#032C17"/>
<path d="M218.5 222.706H214.375V226.831H218.5V222.706Z" fill="#032C17"/>
<path d="M268 216.519H263.875V220.644H268V216.519Z" fill="#032C17"/>
<path d="M336.062 216.519H331.938V220.644H336.062V216.519Z" fill="#032C17"/>
<path d="M367 220.644H362.875V224.769H367V220.644Z" fill="#032C17"/>
<path d="M383.5 228.894H379.375V233.019H383.5V228.894Z" fill="#032C17"/>
<path d="M395.875 241.269L357.226 237.201L351.643 240.924C351.57 240.972 351.498 241.015 351.422 241.052L347.297 243.114L345.451 239.425L349.46 237.42L352.793 235.199L344.312 230.956H330.729L323.083 238.602C322.697 238.99 322.172 239.206 321.625 239.206H317.5V235.081H320.771L327.109 228.743L319.562 222.706H305.125V206.154C340.619 205.061 369.062 175.966 369.062 140.206C333.303 140.206 304.207 168.65 303.114 204.144H300.946C299.855 168.65 270.76 140.206 235 140.206C235 175.966 263.444 205.061 298.937 206.154V222.706H282.437L275.221 228.479L279.455 231.303C279.754 231.503 279.995 231.775 280.156 232.097L281.65 235.081H288.625V239.206H280.375C279.593 239.206 278.88 238.765 278.529 238.065L276.712 234.429L271.5 230.956H257.687L247.187 235.456L252.737 239.619L250.262 242.919L242.652 237.21L206.125 241.269L206.063 247.456H395.875V241.269ZM361.417 144.935L364.333 147.852L312.771 199.414L309.854 196.498L361.417 144.935ZM293.387 199.447L245.95 154.072L248.802 151.092L296.24 196.467L293.387 199.447Z" fill="#032C17"/>
<path d="M270.062 78.1227V92.7686C270.062 93.4182 270.368 94.0287 270.887 94.4186L286.562 106.175V152.581H290.687V105.144C290.687 104.494 290.382 103.883 289.862 103.494L274.187 91.7373V78.1227C278.894 77.1678 282.437 73.0077 282.437 68.0186C282.437 62.324 277.82 57.7061 272.125 57.7061C266.43 57.7061 261.812 62.324 261.812 68.0186C261.812 73.0077 265.356 77.1678 270.062 78.1227ZM272.125 65.9561C273.263 65.9561 274.187 66.8801 274.187 68.0186C274.187 69.1571 273.263 70.0811 272.125 70.0811C270.986 70.0811 270.062 69.1571 270.062 68.0186C270.062 66.8801 270.986 65.9561 272.125 65.9561Z" fill="#032C17"/>
<path d="M317.5 104.184L328.957 96.5471C329.531 96.1634 329.875 95.5199 329.875 94.8311V78.1227C334.582 77.1678 338.125 73.0077 338.125 68.0186C338.125 62.324 333.507 57.7061 327.812 57.7061C322.118 57.7061 317.5 62.324 317.5 68.0186C317.5 73.0077 321.043 77.1678 325.75 78.1227V93.7276L314.293 101.365C313.719 101.749 313.375 102.392 313.375 103.081V152.581H317.5V104.184ZM327.812 65.9561C328.951 65.9561 329.875 66.8801 329.875 68.0186C329.875 69.1571 328.951 70.0811 327.812 70.0811C326.674 70.0811 325.75 69.1571 325.75 68.0186C325.75 66.8801 326.674 65.9561 327.812 65.9561Z" fill="#032C17"/>
<path d="M346.375 104.935V113.394H329.875C328.737 113.394 327.812 114.318 327.812 115.456V140.206H331.938V117.519H348.438C349.576 117.519 350.5 116.595 350.5 115.456V104.935C355.207 103.98 358.75 99.8202 358.75 94.8311C358.75 89.1365 354.132 84.5186 348.438 84.5186C342.743 84.5186 338.125 89.1365 338.125 94.8311C338.125 99.8202 341.668 103.98 346.375 104.935ZM348.438 92.7686C349.576 92.7686 350.5 93.6926 350.5 94.8311C350.5 95.9696 349.576 96.8936 348.438 96.8936C347.299 96.8936 346.375 95.9696 346.375 94.8311C346.375 93.6926 347.299 92.7686 348.438 92.7686Z" fill="#032C17"/>
<path d="M251.5 102.873V115.456C251.5 116.595 252.424 117.519 253.563 117.519H270.063V138.144H274.188V115.456C274.188 114.318 273.264 113.394 272.125 113.394H255.625V102.873C260.332 101.918 263.875 97.7577 263.875 92.7686C263.875 87.074 259.257 82.4561 253.563 82.4561C247.868 82.4561 243.25 87.074 243.25 92.7686C243.25 97.7577 246.793 101.918 251.5 102.873ZM253.563 90.7061C254.701 90.7061 255.625 91.6301 255.625 92.7686C255.625 93.9071 254.701 94.8311 253.563 94.8311C252.424 94.8311 251.5 93.9071 251.5 92.7686C251.5 91.6301 252.424 90.7061 253.563 90.7061Z" fill="#032C17"/>
<path d="M299.969 96.6852V158.769H304.094V96.6852C308.8 95.7303 312.344 91.5702 312.344 86.5811C312.344 80.8865 307.726 76.2686 302.031 76.2686C296.337 76.2686 291.719 80.8865 291.719 86.5811C291.719 91.5702 295.262 95.7303 299.969 96.6852ZM302.031 84.5186C303.17 84.5186 304.094 85.4426 304.094 86.5811C304.094 87.7196 303.17 88.6436 302.031 88.6436C300.893 88.6436 299.969 87.7196 299.969 86.5811C299.969 85.4426 300.893 84.5186 302.031 84.5186Z" fill="#032C17"/>
<path d="M181.837 278.555L179.407 271.373C179.227 270.917 179.035 270.383 178.831 269.771C178.627 269.147 178.423 268.475 178.219 267.755C178.039 268.487 177.847 269.165 177.643 269.789C177.439 270.413 177.247 270.953 177.067 271.409L174.655 278.555H181.837ZM191.503 288.581H186.787C186.259 288.581 185.833 288.461 185.509 288.221C185.185 287.969 184.939 287.651 184.771 287.267L183.223 282.695H173.251L171.703 287.267C171.571 287.603 171.331 287.909 170.983 288.185C170.647 288.449 170.227 288.581 169.723 288.581H164.971L175.123 262.355H181.351L191.503 288.581ZM200.533 278.267C201.457 278.267 202.123 278.039 202.531 277.583C202.951 277.115 203.161 276.515 203.161 275.783C203.161 275.027 202.951 274.433 202.531 274.001C202.123 273.569 201.457 273.353 200.533 273.353C199.609 273.353 198.937 273.569 198.517 274.001C198.109 274.433 197.905 275.027 197.905 275.783C197.905 276.143 197.953 276.473 198.049 276.773C198.157 277.073 198.319 277.337 198.535 277.565C198.751 277.781 199.021 277.955 199.345 278.087C199.681 278.207 200.077 278.267 200.533 278.267ZM204.853 289.265C204.853 288.821 204.655 288.503 204.259 288.311C203.863 288.107 203.347 287.963 202.711 287.879C202.075 287.795 201.361 287.747 200.569 287.735C199.789 287.711 199.009 287.663 198.229 287.591C197.881 287.831 197.593 288.101 197.365 288.401C197.149 288.689 197.041 289.019 197.041 289.391C197.041 289.655 197.095 289.895 197.203 290.111C197.323 290.327 197.527 290.513 197.815 290.669C198.103 290.825 198.487 290.945 198.967 291.029C199.459 291.125 200.077 291.173 200.821 291.173C201.625 291.173 202.285 291.125 202.801 291.029C203.317 290.933 203.725 290.801 204.025 290.633C204.337 290.465 204.553 290.261 204.673 290.021C204.793 289.793 204.853 289.541 204.853 289.265ZM210.361 270.491V272.525C210.361 272.837 210.271 273.083 210.091 273.263C209.923 273.443 209.629 273.581 209.209 273.677L207.859 273.983C207.931 274.247 207.985 274.517 208.021 274.793C208.069 275.069 208.093 275.357 208.093 275.657C208.093 276.593 207.895 277.433 207.499 278.177C207.115 278.921 206.581 279.557 205.897 280.085C205.225 280.601 204.427 281.003 203.503 281.291C202.579 281.567 201.589 281.705 200.533 281.705C200.245 281.705 199.963 281.699 199.687 281.687C199.411 281.663 199.141 281.627 198.877 281.579C198.469 281.831 198.265 282.113 198.265 282.425C198.265 282.737 198.433 282.965 198.769 283.109C199.105 283.241 199.549 283.337 200.101 283.397C200.653 283.445 201.277 283.481 201.973 283.505C202.681 283.517 203.401 283.559 204.133 283.631C204.865 283.691 205.579 283.799 206.275 283.955C206.983 284.111 207.613 284.363 208.165 284.711C208.717 285.059 209.161 285.527 209.497 286.115C209.833 286.691 210.001 287.429 210.001 288.329C210.001 289.169 209.797 289.991 209.389 290.795C208.981 291.599 208.381 292.313 207.589 292.937C206.797 293.561 205.825 294.059 204.673 294.431C203.521 294.815 202.201 295.007 200.713 295.007C199.249 295.007 197.983 294.869 196.915 294.593C195.859 294.317 194.977 293.951 194.269 293.495C193.573 293.051 193.057 292.535 192.721 291.947C192.385 291.359 192.217 290.747 192.217 290.111C192.217 289.283 192.457 288.593 192.937 288.041C193.417 287.489 194.089 287.045 194.953 286.709C194.497 286.433 194.137 286.079 193.873 285.647C193.609 285.215 193.477 284.657 193.477 283.973C193.477 283.697 193.525 283.409 193.621 283.109C193.717 282.797 193.867 282.497 194.071 282.209C194.287 281.909 194.551 281.627 194.863 281.363C195.175 281.099 195.547 280.865 195.979 280.661C195.007 280.145 194.239 279.467 193.675 278.627C193.111 277.775 192.829 276.785 192.829 275.657C192.829 274.721 193.027 273.881 193.423 273.137C193.819 272.381 194.359 271.745 195.043 271.229C195.739 270.701 196.555 270.299 197.491 270.023C198.427 269.735 199.441 269.591 200.533 269.591C202.117 269.591 203.521 269.891 204.745 270.491H210.361ZM218.409 272.795C218.985 271.787 219.645 270.995 220.389 270.419C221.145 269.843 222.009 269.555 222.981 269.555C223.821 269.555 224.505 269.753 225.033 270.149L224.673 274.253C224.613 274.517 224.511 274.697 224.367 274.793C224.235 274.889 224.049 274.937 223.809 274.937C223.713 274.937 223.587 274.931 223.431 274.919C223.275 274.907 223.113 274.895 222.945 274.883C222.777 274.859 222.603 274.841 222.423 274.829C222.255 274.805 222.099 274.793 221.955 274.793C221.139 274.793 220.485 275.009 219.993 275.441C219.513 275.873 219.105 276.473 218.769 277.241V288.581H213.189V269.915H216.501C216.777 269.915 217.005 269.939 217.185 269.987C217.377 270.035 217.533 270.113 217.653 270.221C217.785 270.317 217.881 270.449 217.941 270.617C218.013 270.785 218.073 270.989 218.121 271.229L218.409 272.795ZM233.141 269.915V288.581H227.561V269.915H233.141ZM233.717 264.803C233.717 265.247 233.627 265.667 233.447 266.063C233.267 266.447 233.021 266.789 232.709 267.089C232.397 267.377 232.031 267.611 231.611 267.791C231.203 267.959 230.765 268.043 230.297 268.043C229.841 268.043 229.415 267.959 229.019 267.791C228.623 267.611 228.269 267.377 227.957 267.089C227.657 266.789 227.417 266.447 227.237 266.063C227.069 265.667 226.985 265.247 226.985 264.803C226.985 264.347 227.069 263.921 227.237 263.525C227.417 263.129 227.657 262.781 227.957 262.481C228.269 262.181 228.623 261.947 229.019 261.779C229.415 261.611 229.841 261.527 230.297 261.527C230.765 261.527 231.203 261.611 231.611 261.779C232.031 261.947 232.397 262.181 232.709 262.481C233.021 262.781 233.267 263.129 233.447 263.525C233.627 263.921 233.717 264.347 233.717 264.803ZM248.855 274.919C248.435 274.451 247.979 274.127 247.487 273.947C246.995 273.755 246.479 273.659 245.939 273.659C245.423 273.659 244.949 273.761 244.517 273.965C244.085 274.169 243.707 274.499 243.383 274.955C243.071 275.399 242.825 275.981 242.645 276.701C242.465 277.421 242.375 278.291 242.375 279.311C242.375 280.295 242.447 281.123 242.591 281.795C242.735 282.467 242.933 283.013 243.185 283.433C243.449 283.841 243.761 284.135 244.121 284.315C244.481 284.495 244.883 284.585 245.327 284.585C245.735 284.585 246.101 284.549 246.425 284.477C246.761 284.393 247.067 284.279 247.343 284.135C247.619 283.991 247.877 283.811 248.117 283.595C248.369 283.367 248.615 283.109 248.855 282.821V274.919ZM254.435 261.635V288.581H250.979C250.283 288.581 249.827 288.269 249.611 287.645L249.179 286.223C248.807 286.619 248.417 286.979 248.009 287.303C247.601 287.627 247.157 287.909 246.677 288.149C246.209 288.377 245.699 288.551 245.147 288.671C244.607 288.803 244.019 288.869 243.383 288.869C242.411 288.869 241.511 288.653 240.683 288.221C239.855 287.789 239.141 287.165 238.541 286.349C237.941 285.533 237.467 284.537 237.119 283.361C236.783 282.173 236.615 280.823 236.615 279.311C236.615 277.919 236.807 276.629 237.191 275.441C237.575 274.241 238.115 273.209 238.811 272.345C239.519 271.469 240.365 270.785 241.349 270.293C242.333 269.801 243.419 269.555 244.607 269.555C245.579 269.555 246.395 269.693 247.055 269.969C247.715 270.245 248.315 270.617 248.855 271.085V261.635H254.435ZM268.334 280.985C267.218 281.033 266.3 281.129 265.58 281.273C264.86 281.417 264.29 281.597 263.87 281.813C263.45 282.029 263.156 282.275 262.988 282.551C262.832 282.827 262.754 283.127 262.754 283.451C262.754 284.087 262.928 284.537 263.276 284.801C263.624 285.053 264.134 285.179 264.806 285.179C265.526 285.179 266.156 285.053 266.696 284.801C267.236 284.549 267.782 284.141 268.334 283.577V280.985ZM258.29 272.507C259.418 271.511 260.666 270.773 262.034 270.293C263.414 269.801 264.89 269.555 266.462 269.555C267.59 269.555 268.604 269.741 269.504 270.113C270.416 270.473 271.184 270.983 271.808 271.643C272.444 272.291 272.93 273.065 273.266 273.965C273.602 274.865 273.77 275.849 273.77 276.917V288.581H271.214C270.686 288.581 270.284 288.509 270.008 288.365C269.744 288.221 269.522 287.921 269.342 287.465L268.946 286.439C268.478 286.835 268.028 287.183 267.596 287.483C267.164 287.783 266.714 288.041 266.246 288.257C265.79 288.461 265.298 288.611 264.77 288.707C264.254 288.815 263.678 288.869 263.042 288.869C262.19 288.869 261.416 288.761 260.72 288.545C260.024 288.317 259.43 287.987 258.938 287.555C258.458 287.123 258.086 286.589 257.822 285.953C257.558 285.305 257.426 284.561 257.426 283.721C257.426 283.049 257.594 282.371 257.93 281.687C258.266 280.991 258.848 280.361 259.676 279.797C260.504 279.221 261.62 278.741 263.024 278.357C264.428 277.973 266.198 277.757 268.334 277.709V276.917C268.334 275.825 268.106 275.039 267.65 274.559C267.206 274.067 266.57 273.821 265.742 273.821C265.082 273.821 264.542 273.893 264.122 274.037C263.702 274.181 263.324 274.343 262.988 274.523C262.664 274.703 262.346 274.865 262.034 275.009C261.722 275.153 261.35 275.225 260.918 275.225C260.534 275.225 260.21 275.129 259.946 274.937C259.682 274.745 259.466 274.517 259.298 274.253L258.29 272.507ZM297.734 288.581H292.154V273.767H284.342V283.037C284.342 283.469 284.444 283.829 284.648 284.117C284.864 284.393 285.17 284.531 285.566 284.531C285.77 284.531 285.938 284.513 286.07 284.477C286.214 284.429 286.334 284.381 286.43 284.333C286.538 284.273 286.634 284.225 286.718 284.189C286.814 284.141 286.922 284.117 287.042 284.117C287.21 284.117 287.342 284.159 287.438 284.243C287.546 284.315 287.654 284.435 287.762 284.603L289.454 287.249C288.734 287.789 287.924 288.197 287.024 288.473C286.124 288.737 285.194 288.869 284.234 288.869C283.346 288.869 282.56 288.743 281.876 288.491C281.204 288.227 280.634 287.861 280.166 287.393C279.71 286.913 279.362 286.337 279.122 285.665C278.882 284.993 278.762 284.243 278.762 283.415V273.767H277.178C276.89 273.767 276.644 273.677 276.44 273.497C276.236 273.305 276.134 273.029 276.134 272.669V270.491L279.104 269.897L280.202 265.361C280.346 264.785 280.754 264.497 281.426 264.497H284.342V269.951H297.734V288.581ZM298.508 264.785C298.508 265.229 298.418 265.649 298.238 266.045C298.058 266.441 297.812 266.789 297.5 267.089C297.188 267.377 296.822 267.605 296.402 267.773C295.994 267.941 295.556 268.025 295.088 268.025C294.632 268.025 294.206 267.941 293.81 267.773C293.414 267.605 293.06 267.377 292.748 267.089C292.448 266.789 292.208 266.441 292.028 266.045C291.86 265.649 291.776 265.229 291.776 264.785C291.776 264.341 291.86 263.921 292.028 263.525C292.208 263.117 292.448 262.769 292.748 262.481C293.06 262.181 293.414 261.947 293.81 261.779C294.206 261.599 294.632 261.509 295.088 261.509C295.556 261.509 295.994 261.599 296.402 261.779C296.822 261.947 297.188 262.181 297.5 262.481C297.812 262.769 298.058 263.117 298.238 263.525C298.418 263.921 298.508 264.341 298.508 264.785ZM310.742 269.627C312.158 269.627 313.448 269.849 314.612 270.293C315.776 270.737 316.772 271.373 317.6 272.201C318.44 273.029 319.088 274.037 319.544 275.225C320.012 276.401 320.246 277.727 320.246 279.203C320.246 280.691 320.012 282.035 319.544 283.235C319.088 284.423 318.44 285.437 317.6 286.277C316.772 287.105 315.776 287.747 314.612 288.203C313.448 288.647 312.158 288.869 310.742 288.869C309.314 288.869 308.012 288.647 306.836 288.203C305.672 287.747 304.664 287.105 303.812 286.277C302.972 285.437 302.318 284.423 301.85 283.235C301.394 282.035 301.166 280.691 301.166 279.203C301.166 277.727 301.394 276.401 301.85 275.225C302.318 274.037 302.972 273.029 303.812 272.201C304.664 271.373 305.672 270.737 306.836 270.293C308.012 269.849 309.314 269.627 310.742 269.627ZM310.742 284.729C312.026 284.729 312.968 284.279 313.568 283.379C314.18 282.467 314.486 281.087 314.486 279.239C314.486 277.391 314.18 276.017 313.568 275.117C312.968 274.217 312.026 273.767 310.742 273.767C309.422 273.767 308.456 274.217 307.844 275.117C307.232 276.017 306.926 277.391 306.926 279.239C306.926 281.087 307.232 282.467 307.844 283.379C308.456 284.279 309.422 284.729 310.742 284.729ZM328.704 271.931C329.064 271.595 329.436 271.283 329.82 270.995C330.204 270.707 330.612 270.467 331.044 270.275C331.488 270.071 331.962 269.915 332.466 269.807C332.982 269.687 333.54 269.627 334.14 269.627C335.16 269.627 336.06 269.807 336.84 270.167C337.632 270.515 338.298 271.007 338.838 271.643C339.378 272.267 339.786 273.017 340.062 273.893C340.338 274.757 340.476 275.699 340.476 276.719V288.581H334.896V276.719C334.896 275.807 334.686 275.099 334.266 274.595C333.846 274.079 333.228 273.821 332.412 273.821C331.8 273.821 331.224 273.953 330.684 274.217C330.156 274.469 329.64 274.817 329.136 275.261V288.581H323.556V269.915H327.012C327.708 269.915 328.164 270.227 328.38 270.851L328.704 271.931ZM369.097 283.541C369.697 283.541 370.171 283.709 370.519 284.045C370.867 284.369 371.041 284.801 371.041 285.341V288.581H352.609V286.781C352.609 286.433 352.681 286.061 352.825 285.665C352.969 285.269 353.221 284.909 353.581 284.585L361.141 276.971C361.789 276.323 362.353 275.705 362.833 275.117C363.313 274.529 363.709 273.953 364.021 273.389C364.333 272.813 364.567 272.243 364.723 271.679C364.879 271.103 364.957 270.497 364.957 269.861C364.957 268.817 364.705 268.019 364.201 267.467C363.709 266.903 362.953 266.621 361.933 266.621C361.105 266.621 360.403 266.843 359.827 267.287C359.263 267.719 358.873 268.259 358.657 268.907C358.405 269.567 358.075 270.005 357.667 270.221C357.259 270.437 356.677 270.485 355.921 270.365L352.969 269.843C353.161 268.535 353.527 267.395 354.067 266.423C354.619 265.451 355.297 264.641 356.101 263.993C356.917 263.345 357.847 262.865 358.891 262.553C359.935 262.229 361.057 262.067 362.257 262.067C363.553 262.067 364.717 262.259 365.749 262.643C366.793 263.015 367.681 263.537 368.413 264.209C369.145 264.881 369.703 265.685 370.087 266.621C370.483 267.545 370.681 268.565 370.681 269.681C370.681 270.641 370.543 271.529 370.267 272.345C370.003 273.161 369.637 273.941 369.169 274.685C368.701 275.417 368.155 276.131 367.531 276.827C366.919 277.511 366.265 278.207 365.569 278.915L360.439 284.171C361.099 283.967 361.753 283.811 362.401 283.703C363.049 283.595 363.649 283.541 364.201 283.541H369.097ZM393.072 275.459C393.072 277.751 392.826 279.737 392.334 281.417C391.842 283.097 391.158 284.489 390.282 285.593C389.418 286.697 388.386 287.519 387.186 288.059C385.998 288.599 384.708 288.869 383.316 288.869C381.924 288.869 380.634 288.599 379.446 288.059C378.27 287.519 377.25 286.697 376.386 285.593C375.522 284.489 374.844 283.097 374.352 281.417C373.872 279.737 373.632 277.751 373.632 275.459C373.632 273.167 373.872 271.181 374.352 269.501C374.844 267.821 375.522 266.429 376.386 265.325C377.25 264.221 378.27 263.405 379.446 262.877C380.634 262.337 381.924 262.067 383.316 262.067C384.708 262.067 385.998 262.337 387.186 262.877C388.386 263.405 389.418 264.221 390.282 265.325C391.158 266.429 391.842 267.821 392.334 269.501C392.826 271.181 393.072 273.167 393.072 275.459ZM387.312 275.459C387.312 273.647 387.198 272.165 386.97 271.013C386.742 269.849 386.436 268.937 386.052 268.277C385.68 267.617 385.254 267.167 384.774 266.927C384.294 266.675 383.808 266.549 383.316 266.549C382.824 266.549 382.338 266.675 381.858 266.927C381.39 267.167 380.97 267.617 380.598 268.277C380.238 268.937 379.944 269.849 379.716 271.013C379.5 272.165 379.392 273.647 379.392 275.459C379.392 277.283 379.5 278.771 379.716 279.923C379.944 281.075 380.238 281.987 380.598 282.659C380.97 283.319 381.39 283.775 381.858 284.027C382.338 284.267 382.824 284.387 383.316 284.387C383.808 284.387 384.294 284.267 384.774 284.027C385.254 283.775 385.68 283.319 386.052 282.659C386.436 281.987 386.742 281.075 386.97 279.923C387.198 278.771 387.312 277.283 387.312 275.459ZM411.863 283.541C412.463 283.541 412.937 283.709 413.285 284.045C413.633 284.369 413.807 284.801 413.807 285.341V288.581H395.375V286.781C395.375 286.433 395.447 286.061 395.591 285.665C395.735 285.269 395.987 284.909 396.347 284.585L403.907 276.971C404.555 276.323 405.119 275.705 405.599 275.117C406.079 274.529 406.475 273.953 406.787 273.389C407.099 272.813 407.333 272.243 407.489 271.679C407.645 271.103 407.723 270.497 407.723 269.861C407.723 268.817 407.471 268.019 406.967 267.467C406.475 266.903 405.719 266.621 404.699 266.621C403.871 266.621 403.169 266.843 402.593 267.287C402.029 267.719 401.639 268.259 401.423 268.907C401.171 269.567 400.841 270.005 400.433 270.221C400.025 270.437 399.443 270.485 398.687 270.365L395.735 269.843C395.927 268.535 396.293 267.395 396.833 266.423C397.385 265.451 398.063 264.641 398.867 263.993C399.683 263.345 400.613 262.865 401.657 262.553C402.701 262.229 403.823 262.067 405.023 262.067C406.319 262.067 407.483 262.259 408.515 262.643C409.559 263.015 410.447 263.537 411.179 264.209C411.911 264.881 412.469 265.685 412.853 266.621C413.249 267.545 413.447 268.565 413.447 269.681C413.447 270.641 413.309 271.529 413.033 272.345C412.769 273.161 412.403 273.941 411.935 274.685C411.467 275.417 410.921 276.131 410.297 276.827C409.685 277.511 409.031 278.207 408.335 278.915L403.205 284.171C403.865 283.967 404.519 283.811 405.167 283.703C405.815 283.595 406.415 283.541 406.967 283.541H411.863ZM433.246 283.541C433.846 283.541 434.32 283.709 434.668 284.045C435.016 284.369 435.19 284.801 435.19 285.341V288.581H416.758V286.781C416.758 286.433 416.83 286.061 416.974 285.665C417.118 285.269 417.37 284.909 417.73 284.585L425.29 276.971C425.938 276.323 426.502 275.705 426.982 275.117C427.462 274.529 427.858 273.953 428.17 273.389C428.482 272.813 428.716 272.243 428.872 271.679C429.028 271.103 429.106 270.497 429.106 269.861C429.106 268.817 428.854 268.019 428.35 267.467C427.858 266.903 427.102 266.621 426.082 266.621C425.254 266.621 424.552 266.843 423.976 267.287C423.412 267.719 423.022 268.259 422.806 268.907C422.554 269.567 422.224 270.005 421.816 270.221C421.408 270.437 420.826 270.485 420.07 270.365L417.118 269.843C417.31 268.535 417.676 267.395 418.216 266.423C418.768 265.451 419.446 264.641 420.25 263.993C421.066 263.345 421.996 262.865 423.04 262.553C424.084 262.229 425.206 262.067 426.406 262.067C427.702 262.067 428.866 262.259 429.898 262.643C430.942 263.015 431.83 263.537 432.562 264.209C433.294 264.881 433.852 265.685 434.236 266.621C434.632 267.545 434.83 268.565 434.83 269.681C434.83 270.641 434.692 271.529 434.416 272.345C434.152 273.161 433.786 273.941 433.318 274.685C432.85 275.417 432.304 276.131 431.68 276.827C431.068 277.511 430.414 278.207 429.718 278.915L424.588 284.171C425.248 283.967 425.902 283.811 426.55 283.703C427.198 283.595 427.798 283.541 428.35 283.541H433.246Z" fill="#032C17"/>
</g>
<path d="M0 301C0 292.163 7.16344 285 16 285H586C594.837 285 602 292.163 602 301V337C602 354.673 587.673 369 570 369H32C14.3269 369 0 354.673 0 337V301Z" fill="#212529" fill-opacity="0.25"/>
<path d="M28.85 298.85L23.01 313H22.1L16.26 298.85H17.07C17.1633 298.85 17.24 298.877 17.3 298.93C17.36 298.977 17.4067 299.04 17.44 299.12L22.26 310.86C22.3133 311.007 22.3667 311.163 22.42 311.33C22.4733 311.497 22.5233 311.667 22.57 311.84C22.61 311.667 22.6533 311.497 22.7 311.33C22.7467 311.163 22.8 311.007 22.86 310.86L27.67 299.12C27.6967 299.047 27.7433 298.983 27.81 298.93C27.8767 298.877 27.9567 298.85 28.05 298.85H28.85ZM32.1055 303.05V313H31.1555V303.05H32.1055ZM32.5155 299.62C32.5155 299.74 32.4888 299.853 32.4355 299.96C32.3888 300.06 32.3255 300.15 32.2455 300.23C32.1655 300.31 32.0721 300.373 31.9655 300.42C31.8588 300.467 31.7455 300.49 31.6255 300.49C31.5055 300.49 31.3921 300.467 31.2855 300.42C31.1788 300.373 31.0855 300.31 31.0055 300.23C30.9255 300.15 30.8621 300.06 30.8155 299.96C30.7688 299.853 30.7455 299.74 30.7455 299.62C30.7455 299.5 30.7688 299.387 30.8155 299.28C30.8621 299.167 30.9255 299.07 31.0055 298.99C31.0855 298.91 31.1788 298.847 31.2855 298.8C31.3921 298.753 31.5055 298.73 31.6255 298.73C31.7455 298.73 31.8588 298.753 31.9655 298.8C32.0721 298.847 32.1655 298.91 32.2455 298.99C32.3255 299.07 32.3888 299.167 32.4355 299.28C32.4888 299.387 32.5155 299.5 32.5155 299.62ZM42.5886 305.19C42.2086 304.617 41.7853 304.213 41.3186 303.98C40.8586 303.747 40.3319 303.63 39.7386 303.63C39.1519 303.63 38.6386 303.737 38.1986 303.95C37.7586 304.163 37.3886 304.467 37.0886 304.86C36.7953 305.247 36.5719 305.713 36.4186 306.26C36.2719 306.8 36.1986 307.397 36.1986 308.05C36.1986 309.53 36.4686 310.62 37.0086 311.32C37.5553 312.013 38.3419 312.36 39.3686 312.36C40.0219 312.36 40.6186 312.19 41.1586 311.85C41.6986 311.51 42.1753 311.033 42.5886 310.42V305.19ZM43.5386 298.45V313H43.0186C42.8453 313 42.7453 312.913 42.7186 312.74L42.6186 311.17C42.1786 311.77 41.6653 312.247 41.0786 312.6C40.4919 312.953 39.8319 313.13 39.0986 313.13C37.8719 313.13 36.9186 312.707 36.2386 311.86C35.5586 311.013 35.2186 309.743 35.2186 308.05C35.2186 307.323 35.3119 306.647 35.4986 306.02C35.6919 305.387 35.9719 304.84 36.3386 304.38C36.7053 303.913 37.1553 303.547 37.6886 303.28C38.2286 303.013 38.8486 302.88 39.5486 302.88C40.2219 302.88 40.8053 303.003 41.2986 303.25C41.7919 303.497 42.2219 303.863 42.5886 304.35V298.45H43.5386ZM54.0942 307.02C54.0942 306.487 54.0176 306.01 53.8642 305.59C53.7176 305.163 53.5076 304.803 53.2342 304.51C52.9609 304.217 52.6342 303.993 52.2542 303.84C51.8809 303.68 51.4676 303.6 51.0142 303.6C50.5009 303.6 50.0409 303.68 49.6342 303.84C49.2276 304 48.8742 304.23 48.5742 304.53C48.2809 304.83 48.0442 305.19 47.8642 305.61C47.6842 306.03 47.5642 306.5 47.5042 307.02H54.0942ZM47.4542 307.63V307.82C47.4542 308.567 47.5409 309.223 47.7142 309.79C47.8876 310.357 48.1342 310.833 48.4542 311.22C48.7742 311.6 49.1609 311.887 49.6142 312.08C50.0676 312.273 50.5742 312.37 51.1342 312.37C51.6342 312.37 52.0676 312.317 52.4342 312.21C52.8009 312.097 53.1076 311.973 53.3542 311.84C53.6076 311.7 53.8076 311.577 53.9542 311.47C54.1009 311.357 54.2076 311.3 54.2742 311.3C54.3609 311.3 54.4276 311.333 54.4742 311.4L54.7342 311.72C54.5742 311.92 54.3609 312.107 54.0942 312.28C53.8342 312.453 53.5409 312.603 53.2142 312.73C52.8942 312.85 52.5476 312.947 52.1742 313.02C51.8076 313.093 51.4376 313.13 51.0642 313.13C50.3842 313.13 49.7642 313.013 49.2042 312.78C48.6442 312.54 48.1642 312.193 47.7642 311.74C47.3642 311.287 47.0542 310.733 46.8342 310.08C46.6209 309.42 46.5142 308.667 46.5142 307.82C46.5142 307.107 46.6142 306.45 46.8142 305.85C47.0209 305.243 47.3142 304.723 47.6942 304.29C48.0809 303.85 48.5509 303.507 49.1042 303.26C49.6642 303.013 50.2976 302.89 51.0042 302.89C51.5642 302.89 52.0842 302.987 52.5642 303.18C53.0442 303.373 53.4609 303.657 53.8142 304.03C54.1676 304.397 54.4442 304.85 54.6442 305.39C54.8509 305.93 54.9542 306.55 54.9542 307.25C54.9542 307.397 54.9342 307.497 54.8942 307.55C54.8542 307.603 54.7876 307.63 54.6942 307.63H47.4542ZM61.7839 302.89C62.4972 302.89 63.1339 303.013 63.6939 303.26C64.2606 303.5 64.7372 303.843 65.1239 304.29C65.5106 304.737 65.8039 305.277 66.0039 305.91C66.2106 306.537 66.3139 307.24 66.3139 308.02C66.3139 308.8 66.2106 309.503 66.0039 310.13C65.8039 310.757 65.5106 311.293 65.1239 311.74C64.7372 312.187 64.2606 312.53 63.6939 312.77C63.1339 313.01 62.4972 313.13 61.7839 313.13C61.0706 313.13 60.4306 313.01 59.8639 312.77C59.3039 312.53 58.8272 312.187 58.4339 311.74C58.0472 311.293 57.7506 310.757 57.5439 310.13C57.3439 309.503 57.2439 308.8 57.2439 308.02C57.2439 307.24 57.3439 306.537 57.5439 305.91C57.7506 305.277 58.0472 304.737 58.4339 304.29C58.8272 303.843 59.3039 303.5 59.8639 303.26C60.4306 303.013 61.0706 302.89 61.7839 302.89ZM61.7839 312.38C62.3772 312.38 62.8939 312.28 63.3339 312.08C63.7806 311.873 64.1506 311.58 64.4439 311.2C64.7439 310.82 64.9672 310.363 65.1139 309.83C65.2606 309.29 65.3339 308.687 65.3339 308.02C65.3339 307.36 65.2606 306.76 65.1139 306.22C64.9672 305.68 64.7439 305.22 64.4439 304.84C64.1506 304.453 63.7806 304.157 63.3339 303.95C62.8939 303.743 62.3772 303.64 61.7839 303.64C61.1906 303.64 60.6706 303.743 60.2239 303.95C59.7839 304.157 59.4139 304.453 59.1139 304.84C58.8206 305.22 58.5972 305.68 58.4439 306.22C58.2972 306.76 58.2239 307.36 58.2239 308.02C58.2239 308.687 58.2972 309.29 58.4439 309.83C58.5972 310.363 58.8206 310.82 59.1139 311.2C59.4139 311.58 59.7839 311.873 60.2239 312.08C60.6706 312.28 61.1906 312.38 61.7839 312.38ZM82.4419 307.86L79.5619 300.71C79.4619 300.477 79.3652 300.197 79.2719 299.87C79.2319 300.03 79.1885 300.183 79.1419 300.33C79.0952 300.47 79.0452 300.6 78.9919 300.72L76.1119 307.86H82.4419ZM85.5719 313H84.7819C84.6885 313 84.6119 312.977 84.5519 312.93C84.4919 312.877 84.4452 312.81 84.4119 312.73L82.7519 308.62H75.8019L74.1419 312.73C74.1152 312.803 74.0685 312.867 74.0019 312.92C73.9352 312.973 73.8552 313 73.7619 313H72.9819L78.7719 298.85H79.7819L85.5719 313ZM91.0173 308.6C91.444 308.6 91.824 308.54 92.1573 308.42C92.4907 308.293 92.7707 308.12 92.9973 307.9C93.224 307.68 93.3973 307.417 93.5173 307.11C93.6373 306.803 93.6973 306.463 93.6973 306.09C93.6973 305.717 93.634 305.377 93.5073 305.07C93.3873 304.757 93.2107 304.49 92.9773 304.27C92.7507 304.05 92.4707 303.88 92.1373 303.76C91.8107 303.64 91.4373 303.58 91.0173 303.58C90.5973 303.58 90.2207 303.64 89.8873 303.76C89.5607 303.88 89.2807 304.05 89.0473 304.27C88.8207 304.49 88.6473 304.757 88.5273 305.07C88.4073 305.377 88.3473 305.717 88.3473 306.09C88.3473 306.463 88.4073 306.803 88.5273 307.11C88.6473 307.417 88.8207 307.68 89.0473 307.9C89.2807 308.12 89.5607 308.293 89.8873 308.42C90.2207 308.54 90.5973 308.6 91.0173 308.6ZM94.7373 313.67C94.7373 313.357 94.654 313.107 94.4873 312.92C94.3273 312.727 94.1107 312.577 93.8373 312.47C93.564 312.363 93.2473 312.29 92.8873 312.25C92.534 312.203 92.1607 312.17 91.7673 312.15C91.3807 312.13 90.9907 312.11 90.5973 312.09C90.204 312.07 89.834 312.03 89.4873 311.97C89.234 312.07 89.0007 312.187 88.7873 312.32C88.574 312.447 88.3907 312.593 88.2373 312.76C88.084 312.927 87.964 313.107 87.8773 313.3C87.7907 313.5 87.7473 313.713 87.7473 313.94C87.7473 314.233 87.8207 314.503 87.9673 314.75C88.1207 315.003 88.3407 315.22 88.6273 315.4C88.9207 315.587 89.2773 315.733 89.6973 315.84C90.1173 315.947 90.6007 316 91.1473 316C91.654 316 92.124 315.943 92.5573 315.83C92.9973 315.717 93.3773 315.557 93.6973 315.35C94.024 315.143 94.2773 314.897 94.4573 314.61C94.644 314.323 94.7373 314.01 94.7373 313.67ZM95.7773 303.49V303.82C95.7773 303.967 95.684 304.057 95.4973 304.09L93.9773 304.2C94.164 304.453 94.3073 304.737 94.4073 305.05C94.5073 305.363 94.5573 305.703 94.5573 306.07C94.5573 306.55 94.4707 306.987 94.2973 307.38C94.1307 307.767 93.8907 308.1 93.5773 308.38C93.2707 308.653 92.8973 308.867 92.4573 309.02C92.024 309.173 91.544 309.25 91.0173 309.25C90.4507 309.25 89.934 309.163 89.4673 308.99C89.1873 309.15 88.964 309.34 88.7973 309.56C88.6373 309.773 88.5573 309.987 88.5573 310.2C88.5573 310.487 88.6573 310.707 88.8573 310.86C89.064 311.013 89.3307 311.127 89.6573 311.2C89.9907 311.267 90.3673 311.31 90.7873 311.33C91.214 311.35 91.6473 311.373 92.0873 311.4C92.5273 311.42 92.9573 311.46 93.3773 311.52C93.804 311.58 94.1807 311.687 94.5073 311.84C94.8407 311.987 95.1073 312.197 95.3073 312.47C95.514 312.737 95.6173 313.093 95.6173 313.54C95.6173 313.953 95.514 314.35 95.3073 314.73C95.1007 315.11 94.8007 315.447 94.4073 315.74C94.0207 316.033 93.5507 316.267 92.9973 316.44C92.444 316.62 91.824 316.71 91.1373 316.71C90.4373 316.71 89.824 316.637 89.2973 316.49C88.7707 316.35 88.3273 316.157 87.9673 315.91C87.614 315.67 87.3473 315.39 87.1673 315.07C86.9873 314.75 86.8973 314.41 86.8973 314.05C86.8973 313.523 87.0707 313.073 87.4173 312.7C87.764 312.32 88.2373 312.023 88.8373 311.81C88.504 311.697 88.234 311.533 88.0273 311.32C87.8273 311.1 87.7273 310.803 87.7273 310.43C87.7273 310.29 87.754 310.143 87.8073 309.99C87.8607 309.837 87.9407 309.687 88.0473 309.54C88.154 309.387 88.284 309.243 88.4373 309.11C88.5907 308.977 88.764 308.857 88.9573 308.75C88.484 308.477 88.114 308.113 87.8473 307.66C87.5873 307.207 87.4573 306.677 87.4573 306.07C87.4573 305.59 87.5407 305.157 87.7073 304.77C87.8807 304.377 88.124 304.04 88.4373 303.76C88.7507 303.48 89.124 303.263 89.5573 303.11C89.9973 302.957 90.484 302.88 91.0173 302.88C91.4573 302.88 91.8607 302.933 92.2273 303.04C92.6007 303.147 92.934 303.297 93.2273 303.49H95.7773ZM99.1922 305.45C99.3455 305.043 99.5189 304.683 99.7122 304.37C99.9122 304.05 100.139 303.78 100.392 303.56C100.652 303.34 100.939 303.173 101.252 303.06C101.572 302.94 101.926 302.88 102.312 302.88C102.519 302.88 102.722 302.9 102.922 302.94C103.122 302.973 103.299 303.037 103.452 303.13L103.372 303.79C103.339 303.897 103.276 303.95 103.182 303.95C103.102 303.95 102.979 303.927 102.812 303.88C102.652 303.833 102.439 303.81 102.172 303.81C101.786 303.81 101.442 303.87 101.142 303.99C100.849 304.103 100.582 304.277 100.342 304.51C100.109 304.743 99.9022 305.033 99.7222 305.38C99.5489 305.72 99.3889 306.113 99.2422 306.56V313H98.2822V303.05H98.7922C98.9055 303.05 98.9855 303.073 99.0322 303.12C99.0789 303.167 99.1089 303.247 99.1222 303.36L99.1922 305.45ZM106.712 303.05V313H105.762V303.05H106.712ZM107.122 299.62C107.122 299.74 107.096 299.853 107.042 299.96C106.996 300.06 106.932 300.15 106.852 300.23C106.772 300.31 106.679 300.373 106.572 300.42C106.466 300.467 106.352 300.49 106.232 300.49C106.112 300.49 105.999 300.467 105.892 300.42C105.786 300.373 105.692 300.31 105.612 300.23C105.532 300.15 105.469 300.06 105.422 299.96C105.376 299.853 105.352 299.74 105.352 299.62C105.352 299.5 105.376 299.387 105.422 299.28C105.469 299.167 105.532 299.07 105.612 298.99C105.692 298.91 105.786 298.847 105.892 298.8C105.999 298.753 106.112 298.73 106.232 298.73C106.352 298.73 106.466 298.753 106.572 298.8C106.679 298.847 106.772 298.91 106.852 298.99C106.932 299.07 106.996 299.167 107.042 299.28C107.096 299.387 107.122 299.5 107.122 299.62ZM117.196 305.19C116.816 304.617 116.392 304.213 115.926 303.98C115.466 303.747 114.939 303.63 114.346 303.63C113.759 303.63 113.246 303.737 112.806 303.95C112.366 304.163 111.996 304.467 111.696 304.86C111.402 305.247 111.179 305.713 111.026 306.26C110.879 306.8 110.806 307.397 110.806 308.05C110.806 309.53 111.076 310.62 111.616 311.32C112.162 312.013 112.949 312.36 113.976 312.36C114.629 312.36 115.226 312.19 115.766 311.85C116.306 311.51 116.782 311.033 117.196 310.42V305.19ZM118.146 298.45V313H117.626C117.452 313 117.352 312.913 117.326 312.74L117.226 311.17C116.786 311.77 116.272 312.247 115.686 312.6C115.099 312.953 114.439 313.13 113.706 313.13C112.479 313.13 111.526 312.707 110.846 311.86C110.166 311.013 109.826 309.743 109.826 308.05C109.826 307.323 109.919 306.647 110.106 306.02C110.299 305.387 110.579 304.84 110.946 304.38C111.312 303.913 111.762 303.547 112.296 303.28C112.836 303.013 113.456 302.88 114.156 302.88C114.829 302.88 115.412 303.003 115.906 303.25C116.399 303.497 116.829 303.863 117.196 304.35V298.45H118.146ZM127.291 308.19C126.345 308.223 125.528 308.3 124.841 308.42C124.161 308.533 123.598 308.69 123.151 308.89C122.711 309.09 122.385 309.33 122.171 309.61C121.958 309.883 121.851 310.197 121.851 310.55C121.851 310.883 121.905 311.173 122.011 311.42C122.125 311.66 122.271 311.86 122.451 312.02C122.638 312.173 122.851 312.287 123.091 312.36C123.331 312.433 123.581 312.47 123.841 312.47C124.228 312.47 124.581 312.43 124.901 312.35C125.228 312.263 125.528 312.147 125.801 312C126.081 311.847 126.341 311.667 126.581 311.46C126.821 311.253 127.058 311.03 127.291 310.79V308.19ZM121.441 304.46C121.961 303.94 122.508 303.547 123.081 303.28C123.655 303.013 124.305 302.88 125.031 302.88C125.565 302.88 126.031 302.967 126.431 303.14C126.831 303.307 127.161 303.55 127.421 303.87C127.688 304.183 127.888 304.567 128.021 305.02C128.155 305.467 128.221 305.967 128.221 306.52V313H127.841C127.641 313 127.518 312.907 127.471 312.72L127.331 311.44C127.058 311.707 126.785 311.947 126.511 312.16C126.245 312.373 125.965 312.553 125.671 312.7C125.378 312.847 125.061 312.96 124.721 313.04C124.381 313.12 124.008 313.16 123.601 313.16C123.261 313.16 122.931 313.11 122.611 313.01C122.291 312.91 122.005 312.757 121.751 312.55C121.505 312.343 121.305 312.08 121.151 311.76C121.005 311.433 120.931 311.043 120.931 310.59C120.931 310.17 121.051 309.78 121.291 309.42C121.531 309.06 121.908 308.747 122.421 308.48C122.935 308.213 123.591 308 124.391 307.84C125.198 307.68 126.165 307.587 127.291 307.56V306.52C127.291 305.6 127.091 304.893 126.691 304.4C126.298 303.9 125.711 303.65 124.931 303.65C124.451 303.65 124.041 303.717 123.701 303.85C123.368 303.983 123.085 304.13 122.851 304.29C122.618 304.45 122.428 304.597 122.281 304.73C122.135 304.863 122.011 304.93 121.911 304.93C121.838 304.93 121.778 304.913 121.731 304.88C121.685 304.847 121.645 304.803 121.611 304.75L121.441 304.46ZM139.852 313H138.892V304.07H133.132V310.82C133.132 311.093 133.165 311.33 133.232 311.53C133.305 311.723 133.402 311.883 133.522 312.01C133.648 312.137 133.795 312.23 133.962 312.29C134.128 312.35 134.308 312.38 134.502 312.38C134.742 312.38 134.948 312.347 135.122 312.28C135.295 312.207 135.445 312.13 135.572 312.05C135.698 311.963 135.802 311.887 135.882 311.82C135.962 311.747 136.025 311.71 136.072 311.71C136.125 311.71 136.178 311.743 136.232 311.81L136.492 312.23C136.238 312.51 135.915 312.737 135.522 312.91C135.135 313.077 134.732 313.16 134.312 313.16C133.638 313.16 133.112 312.973 132.732 312.6C132.358 312.227 132.172 311.65 132.172 310.87V304.07H130.742C130.668 304.07 130.608 304.05 130.562 304.01C130.515 303.97 130.492 303.913 130.492 303.84V303.47L132.192 303.35L132.432 299.79C132.445 299.73 132.472 299.677 132.512 299.63C132.552 299.583 132.608 299.56 132.682 299.56H133.132V303.36H139.852V313ZM140.292 299.5C140.292 299.62 140.265 299.733 140.212 299.84C140.165 299.94 140.098 300.03 140.012 300.11C139.932 300.19 139.838 300.253 139.732 300.3C139.625 300.347 139.512 300.37 139.392 300.37C139.272 300.37 139.158 300.347 139.052 300.3C138.945 300.253 138.852 300.19 138.772 300.11C138.692 300.03 138.628 299.94 138.582 299.84C138.535 299.733 138.512 299.62 138.512 299.5C138.512 299.38 138.535 299.267 138.582 299.16C138.628 299.047 138.692 298.95 138.772 298.87C138.852 298.79 138.945 298.727 139.052 298.68C139.158 298.633 139.272 298.61 139.392 298.61C139.512 298.61 139.625 298.633 139.732 298.68C139.838 298.727 139.932 298.79 140.012 298.87C140.098 298.95 140.165 299.047 140.212 299.16C140.265 299.267 140.292 299.38 140.292 299.5ZM147.472 302.89C148.186 302.89 148.822 303.013 149.382 303.26C149.949 303.5 150.426 303.843 150.812 304.29C151.199 304.737 151.492 305.277 151.692 305.91C151.899 306.537 152.002 307.24 152.002 308.02C152.002 308.8 151.899 309.503 151.692 310.13C151.492 310.757 151.199 311.293 150.812 311.74C150.426 312.187 149.949 312.53 149.382 312.77C148.822 313.01 148.186 313.13 147.472 313.13C146.759 313.13 146.119 313.01 145.552 312.77C144.992 312.53 144.516 312.187 144.122 311.74C143.736 311.293 143.439 310.757 143.232 310.13C143.032 309.503 142.932 308.8 142.932 308.02C142.932 307.24 143.032 306.537 143.232 305.91C143.439 305.277 143.736 304.737 144.122 304.29C144.516 303.843 144.992 303.5 145.552 303.26C146.119 303.013 146.759 302.89 147.472 302.89ZM147.472 312.38C148.066 312.38 148.582 312.28 149.022 312.08C149.469 311.873 149.839 311.58 150.132 311.2C150.432 310.82 150.656 310.363 150.802 309.83C150.949 309.29 151.022 308.687 151.022 308.02C151.022 307.36 150.949 306.76 150.802 306.22C150.656 305.68 150.432 305.22 150.132 304.84C149.839 304.453 149.469 304.157 149.022 303.95C148.582 303.743 148.066 303.64 147.472 303.64C146.879 303.64 146.359 303.743 145.912 303.95C145.472 304.157 145.102 304.453 144.802 304.84C144.509 305.22 144.286 305.68 144.132 306.22C143.986 306.76 143.912 307.36 143.912 308.02C143.912 308.687 143.986 309.29 144.132 309.83C144.286 310.363 144.509 310.82 144.802 311.2C145.102 311.58 145.472 311.873 145.912 312.08C146.359 312.28 146.879 312.38 147.472 312.38ZM155.895 304.79C156.355 304.217 156.885 303.757 157.485 303.41C158.091 303.063 158.765 302.89 159.505 302.89C160.051 302.89 160.531 302.977 160.945 303.15C161.365 303.323 161.711 303.573 161.985 303.9C162.258 304.227 162.465 304.62 162.605 305.08C162.745 305.54 162.815 306.06 162.815 306.64V313H161.855V306.64C161.855 305.707 161.641 304.977 161.215 304.45C160.788 303.917 160.138 303.65 159.265 303.65C158.618 303.65 158.011 303.817 157.445 304.15C156.885 304.477 156.385 304.933 155.945 305.52V313H154.985V303.05H155.515C155.681 303.05 155.778 303.133 155.805 303.3L155.895 304.79ZM180.31 312.1C180.417 312.1 180.5 312.133 180.56 312.2C180.62 312.26 180.65 312.34 180.65 312.44V313H171.52V312.66C171.52 312.587 171.537 312.513 171.57 312.44C171.61 312.36 171.66 312.293 171.72 312.24L176.55 307.35C176.95 306.943 177.32 306.55 177.66 306.17C178 305.79 178.294 305.407 178.54 305.02C178.794 304.633 178.99 304.237 179.13 303.83C179.27 303.423 179.34 302.99 179.34 302.53C179.34 302.01 179.254 301.56 179.08 301.18C178.907 300.793 178.677 300.477 178.39 300.23C178.104 299.983 177.77 299.8 177.39 299.68C177.01 299.56 176.617 299.5 176.21 299.5C175.764 299.5 175.35 299.57 174.97 299.71C174.597 299.843 174.264 300.033 173.97 300.28C173.684 300.52 173.444 300.81 173.25 301.15C173.064 301.483 172.934 301.85 172.86 302.25C172.814 302.397 172.75 302.493 172.67 302.54C172.597 302.587 172.494 302.603 172.36 302.59L171.87 302.51C171.957 301.903 172.124 301.363 172.37 300.89C172.617 300.417 172.93 300.017 173.31 299.69C173.69 299.363 174.13 299.117 174.63 298.95C175.13 298.777 175.67 298.69 176.25 298.69C176.79 298.69 177.304 298.77 177.79 298.93C178.284 299.083 178.717 299.32 179.09 299.64C179.47 299.953 179.77 300.35 179.99 300.83C180.21 301.303 180.32 301.86 180.32 302.5C180.32 303.033 180.237 303.53 180.07 303.99C179.91 304.443 179.69 304.88 179.41 305.3C179.13 305.72 178.804 306.13 178.43 306.53C178.064 306.923 177.677 307.327 177.27 307.74L172.84 312.26C173.054 312.207 173.274 312.167 173.5 312.14C173.734 312.113 173.967 312.1 174.2 312.1H180.31ZM193.142 305.92C193.142 307.16 193.009 308.233 192.742 309.14C192.475 310.047 192.112 310.797 191.652 311.39C191.192 311.983 190.652 312.427 190.032 312.72C189.419 313.007 188.762 313.15 188.062 313.15C187.362 313.15 186.705 313.007 186.092 312.72C185.479 312.427 184.942 311.983 184.482 311.39C184.022 310.797 183.659 310.047 183.392 309.14C183.132 308.233 183.002 307.16 183.002 305.92C183.002 304.68 183.132 303.607 183.392 302.7C183.659 301.793 184.022 301.043 184.482 300.45C184.942 299.857 185.479 299.417 186.092 299.13C186.705 298.837 187.362 298.69 188.062 298.69C188.762 298.69 189.419 298.837 190.032 299.13C190.652 299.417 191.192 299.857 191.652 300.45C192.112 301.043 192.475 301.793 192.742 302.7C193.009 303.607 193.142 304.68 193.142 305.92ZM192.142 305.92C192.142 304.773 192.032 303.793 191.812 302.98C191.592 302.167 191.295 301.503 190.922 300.99C190.555 300.47 190.122 300.09 189.622 299.85C189.129 299.61 188.609 299.49 188.062 299.49C187.515 299.49 186.995 299.61 186.502 299.85C186.009 300.09 185.575 300.47 185.202 300.99C184.829 301.503 184.532 302.167 184.312 302.98C184.092 303.793 183.982 304.773 183.982 305.92C183.982 307.073 184.092 308.057 184.312 308.87C184.532 309.677 184.829 310.34 185.202 310.86C185.575 311.373 186.009 311.75 186.502 311.99C186.995 312.223 187.515 312.34 188.062 312.34C188.609 312.34 189.129 312.223 189.622 311.99C190.122 311.75 190.555 311.373 190.922 310.86C191.295 310.34 191.592 309.677 191.812 308.87C192.032 308.057 192.142 307.073 192.142 305.92ZM204.113 312.1C204.22 312.1 204.303 312.133 204.363 312.2C204.423 312.26 204.453 312.34 204.453 312.44V313H195.323V312.66C195.323 312.587 195.34 312.513 195.373 312.44C195.413 312.36 195.463 312.293 195.523 312.24L200.353 307.35C200.753 306.943 201.123 306.55 201.463 306.17C201.803 305.79 202.097 305.407 202.343 305.02C202.597 304.633 202.793 304.237 202.933 303.83C203.073 303.423 203.143 302.99 203.143 302.53C203.143 302.01 203.057 301.56 202.883 301.18C202.71 300.793 202.48 300.477 202.193 300.23C201.907 299.983 201.573 299.8 201.193 299.68C200.813 299.56 200.42 299.5 200.013 299.5C199.567 299.5 199.153 299.57 198.773 299.71C198.4 299.843 198.067 300.033 197.773 300.28C197.487 300.52 197.247 300.81 197.053 301.15C196.867 301.483 196.737 301.85 196.663 302.25C196.617 302.397 196.553 302.493 196.473 302.54C196.4 302.587 196.297 302.603 196.163 302.59L195.673 302.51C195.76 301.903 195.927 301.363 196.173 300.89C196.42 300.417 196.733 300.017 197.113 299.69C197.493 299.363 197.933 299.117 198.433 298.95C198.933 298.777 199.473 298.69 200.053 298.69C200.593 298.69 201.107 298.77 201.593 298.93C202.087 299.083 202.52 299.32 202.893 299.64C203.273 299.953 203.573 300.35 203.793 300.83C204.013 301.303 204.123 301.86 204.123 302.5C204.123 303.033 204.04 303.53 203.873 303.99C203.713 304.443 203.493 304.88 203.213 305.3C202.933 305.72 202.607 306.13 202.233 306.53C201.867 306.923 201.48 307.327 201.073 307.74L196.643 312.26C196.857 312.207 197.077 312.167 197.303 312.14C197.537 312.113 197.77 312.1 198.003 312.1H204.113ZM216.015 312.1C216.122 312.1 216.205 312.133 216.265 312.2C216.325 312.26 216.355 312.34 216.355 312.44V313H207.225V312.66C207.225 312.587 207.242 312.513 207.275 312.44C207.315 312.36 207.365 312.293 207.425 312.24L212.255 307.35C212.655 306.943 213.025 306.55 213.365 306.17C213.705 305.79 213.998 305.407 214.245 305.02C214.498 304.633 214.695 304.237 214.835 303.83C214.975 303.423 215.045 302.99 215.045 302.53C215.045 302.01 214.958 301.56 214.785 301.18C214.612 300.793 214.382 300.477 214.095 300.23C213.808 299.983 213.475 299.8 213.095 299.68C212.715 299.56 212.322 299.5 211.915 299.5C211.468 299.5 211.055 299.57 210.675 299.71C210.302 299.843 209.968 300.033 209.675 300.28C209.388 300.52 209.148 300.81 208.955 301.15C208.768 301.483 208.638 301.85 208.565 302.25C208.518 302.397 208.455 302.493 208.375 302.54C208.302 302.587 208.198 302.603 208.065 302.59L207.575 302.51C207.662 301.903 207.828 301.363 208.075 300.89C208.322 300.417 208.635 300.017 209.015 299.69C209.395 299.363 209.835 299.117 210.335 298.95C210.835 298.777 211.375 298.69 211.955 298.69C212.495 298.69 213.008 298.77 213.495 298.93C213.988 299.083 214.422 299.32 214.795 299.64C215.175 299.953 215.475 300.35 215.695 300.83C215.915 301.303 216.025 301.86 216.025 302.5C216.025 303.033 215.942 303.53 215.775 303.99C215.615 304.443 215.395 304.88 215.115 305.3C214.835 305.72 214.508 306.13 214.135 306.53C213.768 306.923 213.382 307.327 212.975 307.74L208.545 312.26C208.758 312.207 208.978 312.167 209.205 312.14C209.438 312.113 209.672 312.1 209.905 312.1H216.015ZM236.716 298.85V313H236.236C236.15 313 236.076 312.987 236.016 312.96C235.963 312.927 235.91 312.873 235.856 312.8L226.666 300.52C226.686 300.72 226.696 300.91 226.696 301.09V313H225.796V298.85H226.306C226.4 298.85 226.47 298.863 226.516 298.89C226.57 298.91 226.626 298.96 226.686 299.04L235.856 311.29C235.836 311.09 235.826 310.9 235.826 310.72V298.85H236.716ZM247.411 307.02C247.411 306.487 247.335 306.01 247.181 305.59C247.035 305.163 246.825 304.803 246.551 304.51C246.278 304.217 245.951 303.993 245.571 303.84C245.198 303.68 244.785 303.6 244.331 303.6C243.818 303.6 243.358 303.68 242.951 303.84C242.545 304 242.191 304.23 241.891 304.53C241.598 304.83 241.361 305.19 241.181 305.61C241.001 306.03 240.881 306.5 240.821 307.02H247.411ZM240.771 307.63V307.82C240.771 308.567 240.858 309.223 241.031 309.79C241.205 310.357 241.451 310.833 241.771 311.22C242.091 311.6 242.478 311.887 242.931 312.08C243.385 312.273 243.891 312.37 244.451 312.37C244.951 312.37 245.385 312.317 245.751 312.21C246.118 312.097 246.425 311.973 246.671 311.84C246.925 311.7 247.125 311.577 247.271 311.47C247.418 311.357 247.525 311.3 247.591 311.3C247.678 311.3 247.745 311.333 247.791 311.4L248.051 311.72C247.891 311.92 247.678 312.107 247.411 312.28C247.151 312.453 246.858 312.603 246.531 312.73C246.211 312.85 245.865 312.947 245.491 313.02C245.125 313.093 244.755 313.13 244.381 313.13C243.701 313.13 243.081 313.013 242.521 312.78C241.961 312.54 241.481 312.193 241.081 311.74C240.681 311.287 240.371 310.733 240.151 310.08C239.938 309.42 239.831 308.667 239.831 307.82C239.831 307.107 239.931 306.45 240.131 305.85C240.338 305.243 240.631 304.723 241.011 304.29C241.398 303.85 241.868 303.507 242.421 303.26C242.981 303.013 243.615 302.89 244.321 302.89C244.881 302.89 245.401 302.987 245.881 303.18C246.361 303.373 246.778 303.657 247.131 304.03C247.485 304.397 247.761 304.85 247.961 305.39C248.168 305.93 248.271 306.55 248.271 307.25C248.271 307.397 248.251 307.497 248.211 307.55C248.171 307.603 248.105 307.63 248.011 307.63H240.771ZM264.252 303.05L260.932 313H260.222C260.109 313 260.032 312.93 259.992 312.79L257.272 304.71C257.239 304.61 257.209 304.51 257.182 304.41C257.156 304.31 257.132 304.21 257.112 304.11C257.079 304.31 257.029 304.51 256.962 304.71L254.202 312.79C254.162 312.93 254.082 313 253.962 313H253.282L249.962 303.05H250.682C250.776 303.05 250.852 303.077 250.912 303.13C250.972 303.177 251.012 303.23 251.032 303.29L253.542 311.14C253.582 311.293 253.619 311.443 253.652 311.59C253.686 311.73 253.712 311.87 253.732 312.01C253.772 311.87 253.812 311.73 253.852 311.59C253.892 311.443 253.939 311.293 253.992 311.14L256.652 303.22C256.699 303.073 256.792 303 256.932 303H257.322C257.469 303 257.566 303.073 257.612 303.22L260.252 311.14C260.299 311.293 260.342 311.44 260.382 311.58C260.422 311.72 260.459 311.86 260.492 312C260.519 311.86 260.546 311.72 260.572 311.58C260.606 311.44 260.646 311.293 260.692 311.14L263.222 303.29C263.249 303.217 263.292 303.16 263.352 303.12C263.412 303.073 263.482 303.05 263.562 303.05H264.252ZM273.375 298.85V304.57C273.375 304.87 273.372 305.153 273.365 305.42C273.359 305.687 273.349 305.96 273.335 306.24C273.329 306.513 273.315 306.803 273.295 307.11C273.275 307.417 273.255 307.757 273.235 308.13H272.585C272.565 307.757 272.545 307.417 272.525 307.11C272.505 306.803 272.489 306.513 272.475 306.24C272.469 305.96 272.462 305.687 272.455 305.42C272.449 305.153 272.445 304.87 272.445 304.57V298.85H273.375ZM271.955 312.23C271.955 312.103 271.979 311.983 272.025 311.87C272.072 311.757 272.135 311.66 272.215 311.58C272.302 311.493 272.399 311.427 272.505 311.38C272.619 311.327 272.742 311.3 272.875 311.3C273.002 311.3 273.122 311.327 273.235 311.38C273.349 311.427 273.445 311.493 273.525 311.58C273.612 311.66 273.679 311.757 273.725 311.87C273.779 311.983 273.805 312.103 273.805 312.23C273.805 312.363 273.779 312.487 273.725 312.6C273.679 312.707 273.612 312.803 273.525 312.89C273.445 312.97 273.349 313.033 273.235 313.08C273.122 313.127 273.002 313.15 272.875 313.15C272.615 313.15 272.395 313.063 272.215 312.89C272.042 312.71 271.955 312.49 271.955 312.23ZM278.773 298.85V304.57C278.773 304.87 278.77 305.153 278.763 305.42C278.756 305.687 278.746 305.96 278.733 306.24C278.726 306.513 278.713 306.803 278.693 307.11C278.673 307.417 278.653 307.757 278.633 308.13H277.983C277.963 307.757 277.943 307.417 277.923 307.11C277.903 306.803 277.886 306.513 277.873 306.24C277.866 305.96 277.86 305.687 277.853 305.42C277.846 305.153 277.843 304.87 277.843 304.57V298.85H278.773ZM277.353 312.23C277.353 312.103 277.376 311.983 277.423 311.87C277.47 311.757 277.533 311.66 277.613 311.58C277.7 311.493 277.796 311.427 277.903 311.38C278.016 311.327 278.14 311.3 278.273 311.3C278.4 311.3 278.52 311.327 278.633 311.38C278.746 311.427 278.843 311.493 278.923 311.58C279.01 311.66 279.076 311.757 279.123 311.87C279.176 311.983 279.203 312.103 279.203 312.23C279.203 312.363 279.176 312.487 279.123 312.6C279.076 312.707 279.01 312.803 278.923 312.89C278.843 312.97 278.746 313.033 278.633 313.08C278.52 313.127 278.4 313.15 278.273 313.15C278.013 313.15 277.793 313.063 277.613 312.89C277.44 312.71 277.353 312.49 277.353 312.23ZM284.171 298.85V304.57C284.171 304.87 284.167 305.153 284.161 305.42C284.154 305.687 284.144 305.96 284.131 306.24C284.124 306.513 284.111 306.803 284.091 307.11C284.071 307.417 284.051 307.757 284.031 308.13H283.381C283.361 307.757 283.341 307.417 283.321 307.11C283.301 306.803 283.284 306.513 283.271 306.24C283.264 305.96 283.257 305.687 283.251 305.42C283.244 305.153 283.241 304.87 283.241 304.57V298.85H284.171ZM282.751 312.23C282.751 312.103 282.774 311.983 282.821 311.87C282.867 311.757 282.931 311.66 283.011 311.58C283.097 311.493 283.194 311.427 283.301 311.38C283.414 311.327 283.537 311.3 283.671 311.3C283.797 311.3 283.917 311.327 284.031 311.38C284.144 311.427 284.241 311.493 284.321 311.58C284.407 311.66 284.474 311.757 284.521 311.87C284.574 311.983 284.601 312.103 284.601 312.23C284.601 312.363 284.574 312.487 284.521 312.6C284.474 312.707 284.407 312.803 284.321 312.89C284.241 312.97 284.144 313.033 284.031 313.08C283.917 313.127 283.797 313.15 283.671 313.15C283.411 313.15 283.191 313.063 283.011 312.89C282.837 312.71 282.751 312.49 282.751 312.23Z" fill="#F8F9FA"/>
<path fill-rule="evenodd" clip-rule="evenodd" d="M116 342H16V340H116V342Z" fill="#212529"/>
<path d="M118 341C118 342.105 117.105 343 116 343C114.895 343 114 342.105 114 341C114 339.895 114.895 339 116 339C117.105 339 118 339.895 118 341Z" fill="#212529"/>
<path opacity="0.5" fill-rule="evenodd" clip-rule="evenodd" d="M586 342H118V340H586V342Z" fill="#212529"/>
<path d="M340.354 158.86L267.854 118.406C266.969 117.918 266.057 117.625 265.016 117.625C262.177 117.625 259.859 119.822 259.859 122.508H259.833V206.492H259.859C259.859 209.178 262.177 211.375 265.016 211.375C266.083 211.375 266.969 211.033 267.932 210.545L340.354 170.14C342.073 168.797 343.167 166.771 343.167 164.5C343.167 162.229 342.073 160.228 340.354 158.86Z" fill="#212529"/>
</svg>
