<svg width="198" height="198" viewBox="0 0 198 198" fill="none" xmlns="http://www.w3.org/2000/svg">
<path d="M41.25 173.25H37.125V177.375H41.25V173.25Z" fill="#125D1B"/>
<path d="M16.5 169.125H12.375V173.25H16.5V169.125Z" fill="#125D1B"/>
<path d="M66 162.938H61.875V167.062H66V162.938Z" fill="#125D1B"/>
<path d="M134.062 162.938H129.938V167.062H134.062V162.938Z" fill="#125D1B"/>
<path d="M165 167.062H160.875V171.187H165V167.062Z" fill="#125D1B"/>
<path d="M181.5 175.312H177.375V179.437H181.5V175.312Z" fill="#125D1B"/>
<path d="M193.875 187.688L155.226 183.62L149.643 187.343C149.57 187.391 149.498 187.434 149.422 187.471L145.297 189.533L143.451 185.844L147.46 183.839L150.793 181.618L142.312 177.375H128.729L121.083 185.021C120.697 185.408 120.172 185.625 119.625 185.625H115.5V181.5H118.771L125.109 175.162L117.562 169.125H103.125V152.573C138.619 151.48 167.062 122.385 167.062 86.625C131.303 86.625 102.207 115.069 101.114 150.563H98.9463C97.8553 115.069 68.7596 86.625 33 86.625C33 122.385 61.4439 151.48 96.9375 152.573V169.125H80.4375L73.2208 174.898L77.4551 177.722C77.7542 177.922 77.9955 178.194 78.1563 178.516L79.6496 181.5H86.625V185.625H78.375C77.5933 185.625 76.8797 185.184 76.529 184.484L74.712 180.848L69.5 177.375H55.6875L45.1873 181.875L50.7375 186.038L48.2625 189.338L40.6519 183.629L4.12499 187.688L4.06311 193.875H193.875V187.688ZM159.417 91.3543L162.333 94.2707L110.771 145.833L107.854 142.917L159.417 91.3543ZM91.3873 145.866L43.9498 100.491L46.8022 97.5109L94.2397 142.886L91.3873 145.866Z" fill="#125D1B"/>
<path d="M68.0625 24.5417V39.1875C68.0625 39.8372 68.3678 40.4477 68.8875 40.8375L84.5625 52.5938V99H88.6875V51.5625C88.6875 50.9128 88.3822 50.3023 87.8625 49.9125L72.1875 38.1562V24.5417C76.8941 23.5868 80.4375 19.4267 80.4375 14.4375C80.4375 8.74294 75.8196 4.125 70.125 4.125C64.4304 4.125 59.8125 8.74294 59.8125 14.4375C59.8125 19.4267 63.3559 23.5868 68.0625 24.5417ZM70.125 12.375C71.2635 12.375 72.1875 13.299 72.1875 14.4375C72.1875 15.576 71.2635 16.5 70.125 16.5C68.9865 16.5 68.0625 15.576 68.0625 14.4375C68.0625 13.299 68.9865 12.375 70.125 12.375Z" fill="#125D1B"/>
<path d="M115.5 50.6034L126.957 42.966C127.531 42.5824 127.875 41.9389 127.875 41.25V24.5417C132.582 23.5868 136.125 19.4267 136.125 14.4375C136.125 8.74294 131.507 4.125 125.812 4.125C120.118 4.125 115.5 8.74294 115.5 14.4375C115.5 19.4267 119.043 23.5868 123.75 24.5417V40.1466L112.293 47.784C111.719 48.1676 111.375 48.8111 111.375 49.5V99H115.5V50.6034ZM125.812 12.375C126.951 12.375 127.875 13.299 127.875 14.4375C127.875 15.576 126.951 16.5 125.812 16.5C124.674 16.5 123.75 15.576 123.75 14.4375C123.75 13.299 124.674 12.375 125.812 12.375Z" fill="#125D1B"/>
<path d="M144.375 51.3542V59.8125H127.875C126.737 59.8125 125.812 60.7365 125.812 61.875V86.625H129.938V63.9375H146.438C147.576 63.9375 148.5 63.0135 148.5 61.875V51.3542C153.207 50.3993 156.75 46.2392 156.75 41.25C156.75 35.5554 152.132 30.9375 146.438 30.9375C140.743 30.9375 136.125 35.5554 136.125 41.25C136.125 46.2392 139.668 50.3993 144.375 51.3542ZM146.438 39.1875C147.576 39.1875 148.5 40.1115 148.5 41.25C148.5 42.3885 147.576 43.3125 146.438 43.3125C145.299 43.3125 144.375 42.3885 144.375 41.25C144.375 40.1115 145.299 39.1875 146.438 39.1875Z" fill="#125D1B"/>
<path d="M49.5 49.2917V61.875C49.5 63.0135 50.424 63.9375 51.5625 63.9375H68.0625V84.5625H72.1875V61.875C72.1875 60.7365 71.2635 59.8125 70.125 59.8125H53.625V49.2917C58.3316 48.3368 61.875 44.1767 61.875 39.1875C61.875 33.4929 57.2571 28.875 51.5625 28.875C45.8679 28.875 41.25 33.4929 41.25 39.1875C41.25 44.1767 44.7934 48.3368 49.5 49.2917ZM51.5625 37.125C52.701 37.125 53.625 38.049 53.625 39.1875C53.625 40.326 52.701 41.25 51.5625 41.25C50.424 41.25 49.5 40.326 49.5 39.1875C49.5 38.049 50.424 37.125 51.5625 37.125Z" fill="#125D1B"/>
<path d="M97.9688 43.1042V105.188H102.094V43.1042C106.8 42.1493 110.344 37.9892 110.344 33C110.344 27.3054 105.726 22.6875 100.031 22.6875C94.3367 22.6875 89.7188 27.3054 89.7188 33C89.7188 37.9892 93.2621 42.1493 97.9688 43.1042ZM100.031 30.9375C101.17 30.9375 102.094 31.8615 102.094 33C102.094 34.1385 101.17 35.0625 100.031 35.0625C98.8928 35.0625 97.9688 34.1385 97.9688 33C97.9688 31.8615 98.8928 30.9375 100.031 30.9375Z" fill="#125D1B"/>
</svg>
