<svg width="128" height="128" viewBox="0 0 128 128" fill="none" xmlns="http://www.w3.org/2000/svg">
<path fill-rule="evenodd" clip-rule="evenodd" d="M104.812 88.4706H23.1883C22.1625 88.4706 21.3333 87.6292 21.3333 86.5882V33.8824C21.3333 32.8433 22.1625 32 23.1883 32H104.812C105.837 32 106.667 32.8433 106.667 33.8824V86.5882C106.667 87.6292 105.837 88.4706 104.812 88.4706ZM102.956 35.7647H25.0434V84.7059H102.956V35.7647ZM58.4347 48.9412C58.8317 48.9412 59.1767 49.0955 59.4791 49.3101L73.8949 58.4809C74.6109 58.7388 75.1304 59.4184 75.1304 60.2353C75.1304 60.8471 74.8243 61.3666 74.379 61.7092L59.5867 71.0852C59.2676 71.3487 58.8762 71.5294 58.4347 71.5294C57.4088 71.5294 56.5796 70.688 56.5796 69.6471V50.8235C56.5796 49.7845 57.4088 48.9412 58.4347 48.9412ZM47.3043 92.2353H80.6956C81.7214 92.2353 82.5506 93.0767 82.5506 94.1176C82.5506 95.1586 81.7214 96 80.6956 96H47.3043C46.2784 96 45.4492 95.1586 45.4492 94.1176C45.4492 93.0767 46.2784 92.2353 47.3043 92.2353Z" fill="#F8F9FA"/>
</svg>
