<svg width="128" height="128" viewBox="0 0 128 128" fill="none" xmlns="http://www.w3.org/2000/svg">
<path d="M102.667 44.4448H92.8266L87.4932 34.667H67.1733L61.8399 44.4448H42.6666V39.5559H29.3333V44.4448H25.3333C24.2724 44.4448 23.255 44.8311 22.5048 45.5187C21.7547 46.2063 21.3333 47.139 21.3333 48.1114V89.667C21.3333 90.6395 21.7547 91.5721 22.5048 92.2597C23.255 92.9473 24.2724 93.3337 25.3333 93.3337H102.667C103.727 93.3337 104.745 92.9473 105.495 92.2597C106.245 91.5721 106.667 90.6395 106.667 89.667V48.1114C106.667 47.139 106.245 46.2063 105.495 45.5187C104.745 44.8311 103.727 44.4448 102.667 44.4448ZM31.9999 42.0003H39.9999V44.4448H31.9999V42.0003ZM104 89.667C104 89.9911 103.859 90.302 103.609 90.5312C103.359 90.7604 103.02 90.8892 102.667 90.8892H25.3333C24.9796 90.8892 24.6405 90.7604 24.3904 90.5312C24.1404 90.302 23.9999 89.9911 23.9999 89.667V48.1114C23.9999 47.7873 24.1404 47.4764 24.3904 47.2472C24.6405 47.018 24.9796 46.8892 25.3333 46.8892H63.4933L68.8266 37.1114H85.8399L91.1732 46.8892H102.667C103.02 46.8892 103.359 47.018 103.609 47.2472C103.859 47.4764 104 47.7873 104 48.1114V89.667Z" fill="#F8F9FA"/>
<path d="M42.6666 49.3337H39.9999V88.4448H42.6666V49.3337Z" fill="#F8F9FA"/>
<path d="M77.3332 49.3337C73.1139 49.3337 68.9893 50.4806 65.4811 52.6294C61.9728 54.7782 59.2385 57.8323 57.6238 61.4056C56.0091 64.9789 55.5867 68.9109 56.4098 72.7043C57.233 76.4977 59.2648 79.9822 62.2483 82.7171C65.2318 85.452 69.0331 87.3145 73.1713 88.069C77.3096 88.8236 81.599 88.4363 85.4972 86.9562C89.3953 85.4761 92.7271 82.9696 95.0713 79.7537C97.4154 76.5378 98.6666 72.7569 98.6666 68.8892C98.6666 63.7028 96.419 58.7287 92.4182 55.0613C88.4174 51.394 82.9912 49.3337 77.3332 49.3337ZM77.3332 86.0003C73.6413 86.0003 70.0323 84.9968 66.9626 83.1166C63.8929 81.2364 61.5003 78.564 60.0875 75.4374C58.6747 72.3107 58.305 68.8702 59.0253 65.551C59.7455 62.2318 61.5233 59.1829 64.1339 56.7898C66.7445 54.3968 70.0706 52.7671 73.6916 52.1069C77.3125 51.4467 81.0658 51.7855 84.4767 53.0806C87.8876 54.3757 90.8029 56.5689 92.854 59.3828C94.9051 62.1967 95.9999 65.505 95.9999 68.8892C95.9999 73.4274 94.0332 77.7796 90.5326 80.9886C87.0319 84.1976 82.284 86.0003 77.3332 86.0003Z" fill="#F8F9FA"/>
<path d="M77.3332 56.667C74.6962 56.667 72.1183 57.3838 69.9256 58.7268C67.733 60.0698 66.024 61.9787 65.0149 64.212C64.0057 66.4453 63.7416 68.9028 64.2561 71.2737C64.7706 73.6445 66.0405 75.8223 67.9052 77.5316C69.7699 79.2409 72.1456 80.405 74.732 80.8766C77.3185 81.3482 79.9993 81.1061 82.4357 80.1811C84.872 79.256 86.9544 77.6894 88.4195 75.6795C89.8846 73.6696 90.6666 71.3065 90.6666 68.8892C90.6666 65.6477 89.2618 62.5389 86.7613 60.2468C84.2609 57.9547 80.8695 56.667 77.3332 56.667ZM77.3332 78.667C75.2236 78.667 73.1613 78.0935 71.4072 77.0191C69.653 75.9447 68.2859 74.4177 67.4785 72.631C66.6712 70.8443 66.46 68.8784 66.8715 66.9817C67.2831 65.085 68.299 63.3427 69.7908 61.9753C71.2825 60.6078 73.1832 59.6766 75.2523 59.2993C77.3214 58.922 79.4661 59.1157 81.4152 59.8557C83.3643 60.5958 85.0302 61.849 86.2023 63.457C87.3743 65.0649 87.9999 66.9554 87.9999 68.8892C87.9999 71.4824 86.8761 73.9695 84.8757 75.8031C82.8753 77.6368 80.1622 78.667 77.3332 78.667Z" fill="#F8F9FA"/>
<path d="M55.9999 54.2225C57.4727 54.2225 58.6666 53.1281 58.6666 51.7781C58.6666 50.4281 57.4727 49.3337 55.9999 49.3337C54.5272 49.3337 53.3333 50.4281 53.3333 51.7781C53.3333 53.1281 54.5272 54.2225 55.9999 54.2225Z" fill="#F8F9FA"/>
</svg>
