<svg width="102" height="110" viewBox="0 0 102 110" fill="none" xmlns="http://www.w3.org/2000/svg">
<path d="M97.6666 48.3327C98.403 48.3327 98.9999 47.7357 98.9999 46.9993C98.9999 46.263 98.403 45.666 97.6666 45.666C96.9302 45.666 96.3333 46.263 96.3333 46.9993C96.3333 47.7357 96.9302 48.3327 97.6666 48.3327Z" fill="#F8F9FA"/>
<path d="M6.99984 26.9997C7.73622 26.9997 8.33317 26.4027 8.33317 25.6663C8.33317 24.93 7.73622 24.333 6.99984 24.333C6.26346 24.333 5.6665 24.93 5.6665 25.6663C5.6665 26.4027 6.26346 26.9997 6.99984 26.9997Z" fill="#CED4DA"/>
<path d="M1.66658 61.6667C2.40296 61.6667 2.99992 61.0697 2.99992 60.3333C2.99992 59.597 2.40296 59 1.66658 59C0.930204 59 0.333252 59.597 0.333252 60.3333C0.333252 61.0697 0.930204 61.6667 1.66658 61.6667Z" fill="#CED4DA"/>
<path d="M7.44445 4.77778H6.55556V3.88889C6.55556 3.40635 6.14921 3 5.66667 3C5.18413 3 4.77778 3.40635 4.77778 3.88889V4.77778H3.88889C3.40635 4.77778 3 5.18413 3 5.66667C3 6.14921 3.40635 6.55556 3.88889 6.55556H4.77778V7.44445C4.77778 7.92698 5.18413 8.33333 5.66667 8.33333C6.14921 8.33333 6.55556 7.92698 6.55556 7.44445V6.55556H7.44445C7.92698 6.55556 8.33333 6.14921 8.33333 5.66667C8.33333 5.18413 7.92698 4.77778 7.44445 4.77778Z" fill="#CED4DA"/>
<path d="M94.9998 40.3327C95.7362 40.3327 96.3332 39.7357 96.3332 38.9994C96.3332 38.263 95.7362 37.666 94.9998 37.666C94.2635 37.666 93.6665 38.263 93.6665 38.9994C93.6665 39.7357 94.2635 40.3327 94.9998 40.3327Z" fill="#CED4DA"/>
<path d="M92.3332 16.333C90.1148 16.333 88.3333 14.5515 88.3333 12.333C88.3333 10.1145 90.1148 8.33301 92.3332 8.33301C94.5517 8.33301 96.3333 10.1145 96.3333 12.333C96.3333 14.5515 94.5517 16.333 92.3332 16.333ZM92.3332 10.6859C91.4257 10.6859 90.6862 11.4254 90.6862 12.333C90.6862 13.2406 91.4257 13.9801 92.3332 13.9801C93.2408 13.9801 93.9803 13.2406 93.9803 12.333C93.9803 11.4254 93.2408 10.6859 92.3332 10.6859Z" fill="#CED4DA"/>
<path d="M100.778 85.6667H99.8888V84.3333C99.8888 83.6095 99.4825 83 98.9999 83C98.5174 83 98.111 83.6095 98.111 84.3333V85.6667H97.2221C96.7396 85.6667 96.3333 86.2762 96.3333 87C96.3333 87.7238 96.7396 88.3333 97.2221 88.3333H98.111V89.6667C98.111 90.3905 98.5174 91 98.9999 91C99.4825 91 99.8888 90.3905 99.8888 89.6667V88.3333H100.778C101.26 88.3333 101.667 87.7238 101.667 87C101.667 86.2762 101.26 85.6667 100.778 85.6667Z" fill="#CED4DA"/>
<path d="M4.7777 71.4438H3.88881V70.5549C3.88881 70.0724 3.48246 69.666 2.99992 69.666C2.51738 69.666 2.11103 70.0724 2.11103 70.5549V71.4438H1.22214C0.739601 71.4438 0.333252 71.8501 0.333252 72.3327C0.333252 72.8152 0.739601 73.2216 1.22214 73.2216H2.11103V74.1105C2.11103 74.593 2.51738 74.9994 2.99992 74.9994C3.48246 74.9994 3.88881 74.593 3.88881 74.1105V73.2216H4.7777C5.26024 73.2216 5.66658 72.8152 5.66658 72.3327C5.66658 71.8501 5.26024 71.4438 4.7777 71.4438Z" fill="#CED4DA"/>
<path d="M10.9999 109.666C9.5396 109.666 8.33325 108.46 8.33325 107C8.33325 105.539 9.5396 104.333 10.9999 104.333C12.4602 104.333 13.6666 105.539 13.6666 107C13.6666 108.46 12.4602 109.666 10.9999 109.666ZM10.9999 106.555C10.7459 106.555 10.5555 106.746 10.5555 107C10.5555 107.254 10.7459 107.444 10.9999 107.444C11.2539 107.444 11.4444 107.254 11.4444 107C11.4444 106.746 11.2539 106.555 10.9999 106.555Z" fill="#CED4DA"/>
<path d="M81.7028 104.333L30.9636 104.333C30.2502 104.333 29.6665 103.737 29.6665 103.009L29.6666 28.3239C29.6666 27.5957 30.2502 26.9999 30.9636 26.9999L81.7028 27C82.4162 27 82.9999 27.5958 82.9999 28.324L82.9998 103.009C82.9998 103.737 82.4162 104.333 81.7028 104.333ZM32.2988 101.666L80.4057 101.685L80.4057 29.648L32.2989 29.629L32.2988 101.666Z" fill="#CED4DA"/>
<path d="M73.7047 50.9999H38.9618C38.2494 50.9999 37.6665 50.4042 37.6665 49.6761C37.6665 48.948 38.2494 48.3522 38.9618 48.3522H73.7047C74.417 48.3522 74.9999 48.948 74.9999 49.6761C74.9999 50.4042 74.417 50.9999 73.7047 50.9999Z" fill="#CED4DA"/>
<path d="M62.9999 42.9906L38.9618 42.9905C38.2494 42.9905 37.6665 42.3948 37.6665 41.6667C37.6665 40.9386 38.2494 40.3428 38.9618 40.3428L62.9999 40.3429C63.7122 40.3429 64.2951 40.9386 64.2951 41.6667C64.2951 42.3948 63.7122 42.9906 62.9999 42.9906Z" fill="#CED4DA"/>
<path d="M73.7047 56.3239H38.9999C38.2875 56.3239 37.7047 55.7282 37.7047 55.0001C37.7047 54.272 38.2875 53.6762 38.9999 53.6762H73.7047C74.417 53.6762 74.9999 54.272 74.9999 55.0001C74.9999 55.7282 74.417 56.3239 73.7047 56.3239Z" fill="#CED4DA"/>
<path d="M73.7046 61.6667L38.9998 61.6667C38.2875 61.6667 37.7046 61.071 37.7046 60.3429C37.7046 59.6148 38.2875 59.0191 38.9998 59.0191L73.7046 59.019C74.417 59.019 74.9998 59.6147 74.9998 60.3428C74.9998 61.0709 74.417 61.6667 73.7046 61.6667Z" fill="#CED4DA"/>
<path d="M73.6665 66.9999L38.9999 67.1452C38.2875 67.1452 37.7047 66.5495 37.7047 65.8214C37.7047 65.0933 38.2875 64.4976 38.9999 64.4976L73.6665 64.3522C74.3789 64.3522 74.9617 64.948 74.9617 65.6761C74.9617 66.4042 74.3789 66.9999 73.6665 66.9999Z" fill="#CED4DA"/>
<path d="M73.9359 72.3143H38.9999C38.2875 72.3143 37.7046 71.7185 37.7046 70.9904C37.7046 70.2623 38.2875 69.6666 38.9999 69.6666H73.9359C74.6483 69.6666 75.2311 70.2623 75.2311 70.9904C75.2311 71.7185 74.6483 72.3143 73.9359 72.3143Z" fill="#CED4DA"/>
<path d="M73.7047 77.6571L38.9618 77.6572C38.2494 77.6572 37.6666 77.0614 37.6666 76.3333C37.6666 75.6052 38.2494 75.0095 38.9618 75.0095L73.7047 75.0094C74.417 75.0094 74.9999 75.6051 74.9999 76.3333C74.9999 77.0614 74.417 77.6571 73.7047 77.6571Z" fill="#CED4DA"/>
<path d="M73.7046 83L38.9999 83C38.2875 83 37.7047 82.4043 37.7047 81.6762C37.7047 80.9481 38.2875 80.3524 38.9999 80.3524L73.7046 80.3523C74.417 80.3523 74.9998 80.948 74.9998 81.6762C74.9998 82.4043 74.417 83 73.7046 83Z" fill="#CED4DA"/>
<path d="M73.7047 88.3144L38.9999 88.3144C38.2875 88.3144 37.7047 87.7187 37.7047 86.9906C37.7047 86.2625 38.2875 85.6667 38.9999 85.6667L73.7047 85.6667C74.417 85.6667 74.9999 86.2624 74.9999 86.9905C74.9999 87.7186 74.417 88.3144 73.7047 88.3144Z" fill="#CED4DA"/>
<path d="M63.038 93.6555L38.9618 93.6476C38.2494 93.6476 37.6665 93.0519 37.6665 92.3238C37.6665 91.5956 38.2494 90.9999 38.9618 90.9999L63.038 91.0078C63.7504 91.0078 64.3332 91.6035 64.3332 92.3316C64.3332 93.0597 63.7504 93.6555 63.038 93.6555Z" fill="#CED4DA"/>
<path d="M20.2951 96.3238H26.7332C26.8805 96.3238 26.9998 96.2044 26.9998 96.0572V93.9428C26.9998 93.7955 26.8805 93.6762 26.7332 93.6762H21.5903V21.6477H72.3332V24.0676C72.3332 24.2145 72.452 24.3338 72.5989 24.3343L74.7286 24.3419C74.8761 24.3424 74.996 24.223 74.9962 24.0755L74.9998 20.3333C74.9998 19.6052 74.417 19.0095 73.7046 19.0095L20.2951 19C19.5827 19 18.9998 19.5957 18.9998 20.3238V95C18.9998 95.7281 19.5827 96.3238 20.2951 96.3238Z" fill="#CED4DA"/>
<path d="M17.6665 88.0477C17.6665 88.1949 17.5471 88.3143 17.3998 88.3143H10.9617C10.2494 88.3143 9.6665 87.7186 9.6665 86.9905V12.3238C9.6665 11.5957 10.2494 11 10.9617 11H65.7046C66.417 11 66.9998 11.5957 66.9998 12.3238V17.6667H64.3332V13.6477H12.2569V85.6667H17.3998C17.5471 85.6667 17.6665 85.7861 17.6665 85.9333V88.0477Z" fill="#CED4DA"/>
</svg>
