<svg width="128" height="128" viewBox="0 0 128 128" fill="none" xmlns="http://www.w3.org/2000/svg">
<path d="M110.667 57.3327C111.403 57.3327 112 56.7357 112 55.9993C112 55.263 111.403 54.666 110.667 54.666C109.93 54.666 109.333 55.263 109.333 55.9993C109.333 56.7357 109.93 57.3327 110.667 57.3327Z" fill="#F8F9FA"/>
<path d="M19.9998 35.9997C20.7362 35.9997 21.3332 35.4027 21.3332 34.6663C21.3332 33.93 20.7362 33.333 19.9998 33.333C19.2635 33.333 18.6665 33.93 18.6665 34.6663C18.6665 35.4027 19.2635 35.9997 19.9998 35.9997Z" fill="#CED4DA"/>
<path d="M14.6666 70.6667C15.403 70.6667 15.9999 70.0697 15.9999 69.3333C15.9999 68.597 15.403 68 14.6666 68C13.9302 68 13.3333 68.597 13.3333 69.3333C13.3333 70.0697 13.9302 70.6667 14.6666 70.6667Z" fill="#CED4DA"/>
<path d="M20.4444 13.7778H19.5556V12.8889C19.5556 12.4063 19.1492 12 18.6667 12C18.1841 12 17.7778 12.4063 17.7778 12.8889V13.7778H16.8889C16.4063 13.7778 16 14.1841 16 14.6667C16 15.1492 16.4063 15.5556 16.8889 15.5556H17.7778V16.4444C17.7778 16.927 18.1841 17.3333 18.6667 17.3333C19.1492 17.3333 19.5556 16.927 19.5556 16.4444V15.5556H20.4444C20.927 15.5556 21.3333 15.1492 21.3333 14.6667C21.3333 14.1841 20.927 13.7778 20.4444 13.7778Z" fill="#CED4DA"/>
<path d="M108 49.3327C108.736 49.3327 109.333 48.7357 109.333 47.9994C109.333 47.263 108.736 46.666 108 46.666C107.263 46.666 106.667 47.263 106.667 47.9994C106.667 48.7357 107.263 49.3327 108 49.3327Z" fill="#CED4DA"/>
<path d="M105.333 25.333C103.115 25.333 101.333 23.5515 101.333 21.333C101.333 19.1145 103.115 17.333 105.333 17.333C107.552 17.333 109.333 19.1145 109.333 21.333C109.333 23.5515 107.552 25.333 105.333 25.333ZM105.333 19.6859C104.426 19.6859 103.686 20.4254 103.686 21.333C103.686 22.2406 104.426 22.9801 105.333 22.9801C106.241 22.9801 106.98 22.2406 106.98 21.333C106.98 20.4254 106.241 19.6859 105.333 19.6859Z" fill="#CED4DA"/>
<path d="M113.778 94.6667H112.889V93.3333C112.889 92.6095 112.482 92 112 92C111.517 92 111.111 92.6095 111.111 93.3333V94.6667H110.222C109.74 94.6667 109.333 95.2762 109.333 96C109.333 96.7238 109.74 97.3333 110.222 97.3333H111.111V98.6667C111.111 99.3905 111.517 100 112 100C112.482 100 112.889 99.3905 112.889 98.6667V97.3333H113.778C114.26 97.3333 114.667 96.7238 114.667 96C114.667 95.2762 114.26 94.6667 113.778 94.6667Z" fill="#CED4DA"/>
<path d="M17.7777 80.4438H16.8888V79.5549C16.8888 79.0724 16.4825 78.666 15.9999 78.666C15.5174 78.666 15.111 79.0724 15.111 79.5549V80.4438H14.2221C13.7396 80.4438 13.3333 80.8501 13.3333 81.3327C13.3333 81.8152 13.7396 82.2216 14.2221 82.2216H15.111V83.1105C15.111 83.593 15.5174 83.9994 15.9999 83.9994C16.4825 83.9994 16.8888 83.593 16.8888 83.1105V82.2216H17.7777C18.2602 82.2216 18.6666 81.8152 18.6666 81.3327C18.6666 80.8501 18.2602 80.4438 17.7777 80.4438Z" fill="#CED4DA"/>
<path d="M23.9999 118.666C22.5396 118.666 21.3333 117.46 21.3333 116C21.3333 114.539 22.5396 113.333 23.9999 113.333C25.4602 113.333 26.6666 114.539 26.6666 116C26.6666 117.46 25.4602 118.666 23.9999 118.666ZM23.9999 115.555C23.7459 115.555 23.5555 115.746 23.5555 116C23.5555 116.254 23.7459 116.444 23.9999 116.444C24.2539 116.444 24.4444 116.254 24.4444 116C24.4444 115.746 24.2539 115.555 23.9999 115.555Z" fill="#CED4DA"/>
<path d="M94.7028 113.333L43.9636 113.333C43.2502 113.333 42.6665 112.737 42.6665 112.009L42.6666 37.3239C42.6666 36.5957 43.2502 35.9999 43.9636 35.9999L94.7028 36C95.4162 36 95.9999 36.5958 95.9999 37.324L95.9998 112.009C95.9998 112.737 95.4162 113.333 94.7028 113.333ZM45.2988 110.666L93.4057 110.685L93.4057 38.648L45.2989 38.629L45.2988 110.666Z" fill="#CED4DA"/>
<path d="M86.7047 59.9999H51.9618C51.2494 59.9999 50.6665 59.4042 50.6665 58.6761C50.6665 57.948 51.2494 57.3522 51.9618 57.3522H86.7047C87.417 57.3522 87.9999 57.948 87.9999 58.6761C87.9999 59.4042 87.417 59.9999 86.7047 59.9999Z" fill="#CED4DA"/>
<path d="M75.9999 51.9906L51.9618 51.9905C51.2494 51.9905 50.6665 51.3948 50.6665 50.6667C50.6665 49.9386 51.2494 49.3428 51.9618 49.3428L75.9999 49.3429C76.7122 49.3429 77.2951 49.9386 77.2951 50.6667C77.2951 51.3948 76.7122 51.9906 75.9999 51.9906Z" fill="#CED4DA"/>
<path d="M86.7047 65.3239H51.9999C51.2875 65.3239 50.7047 64.7282 50.7047 64.0001C50.7047 63.272 51.2875 62.6762 51.9999 62.6762H86.7047C87.417 62.6762 87.9999 63.272 87.9999 64.0001C87.9999 64.7282 87.417 65.3239 86.7047 65.3239Z" fill="#CED4DA"/>
<path d="M86.7046 70.6667L51.9998 70.6667C51.2875 70.6667 50.7046 70.071 50.7046 69.3429C50.7046 68.6148 51.2875 68.0191 51.9998 68.0191L86.7046 68.019C87.417 68.019 87.9998 68.6147 87.9998 69.3428C87.9998 70.0709 87.417 70.6667 86.7046 70.6667Z" fill="#CED4DA"/>
<path d="M86.6665 75.9999L51.9999 76.1452C51.2875 76.1452 50.7047 75.5495 50.7047 74.8214C50.7047 74.0933 51.2875 73.4976 51.9999 73.4976L86.6665 73.3522C87.3789 73.3522 87.9617 73.948 87.9617 74.6761C87.9617 75.4042 87.3789 75.9999 86.6665 75.9999Z" fill="#CED4DA"/>
<path d="M86.9359 81.3143H51.9999C51.2875 81.3143 50.7046 80.7185 50.7046 79.9904C50.7046 79.2623 51.2875 78.6666 51.9999 78.6666H86.9359C87.6483 78.6666 88.2311 79.2623 88.2311 79.9904C88.2311 80.7185 87.6483 81.3143 86.9359 81.3143Z" fill="#CED4DA"/>
<path d="M86.7047 86.6571L51.9618 86.6572C51.2494 86.6572 50.6666 86.0614 50.6666 85.3333C50.6666 84.6052 51.2494 84.0095 51.9618 84.0095L86.7047 84.0094C87.417 84.0094 87.9999 84.6051 87.9999 85.3333C87.9999 86.0614 87.417 86.6571 86.7047 86.6571Z" fill="#CED4DA"/>
<path d="M86.7046 92L51.9999 92C51.2875 92 50.7047 91.4043 50.7047 90.6762C50.7047 89.9481 51.2875 89.3524 51.9999 89.3524L86.7046 89.3523C87.417 89.3523 87.9998 89.948 87.9998 90.6762C87.9998 91.4043 87.417 92 86.7046 92Z" fill="#CED4DA"/>
<path d="M86.7047 97.3144L51.9999 97.3144C51.2875 97.3144 50.7047 96.7187 50.7047 95.9906C50.7047 95.2625 51.2875 94.6667 51.9999 94.6667L86.7047 94.6667C87.417 94.6667 87.9999 95.2624 87.9999 95.9905C87.9999 96.7186 87.417 97.3144 86.7047 97.3144Z" fill="#CED4DA"/>
<path d="M76.038 102.655L51.9618 102.648C51.2494 102.648 50.6665 102.052 50.6665 101.324C50.6665 100.596 51.2494 99.9999 51.9618 99.9999L76.038 100.008C76.7504 100.008 77.3332 100.604 77.3332 101.332C77.3332 102.06 76.7504 102.655 76.038 102.655Z" fill="#CED4DA"/>
<path d="M33.2951 105.324H39.7332C39.8805 105.324 39.9998 105.204 39.9998 105.057V102.943C39.9998 102.796 39.8805 102.676 39.7332 102.676H34.5903V30.6477H85.3332V33.0676C85.3332 33.2145 85.452 33.3338 85.5989 33.3343L87.7286 33.3419C87.8761 33.3424 87.996 33.223 87.9962 33.0755L87.9998 29.3333C87.9998 28.6052 87.417 28.0095 86.7046 28.0095L33.2951 28C32.5827 28 31.9998 28.5957 31.9998 29.3238V104C31.9998 104.728 32.5827 105.324 33.2951 105.324Z" fill="#CED4DA"/>
<path d="M30.6665 97.0477C30.6665 97.1949 30.5471 97.3143 30.3998 97.3143H23.9617C23.2494 97.3143 22.6665 96.7186 22.6665 95.9905V21.3238C22.6665 20.5957 23.2494 20 23.9617 20H78.7046C79.417 20 79.9998 20.5957 79.9998 21.3238V26.6667H77.3332V22.6477H25.2569V94.6667H30.3998C30.5471 94.6667 30.6665 94.7861 30.6665 94.9333V97.0477Z" fill="#CED4DA"/>
</svg>
