<svg width="128" height="128" viewBox="0 0 128 128" fill="none" xmlns="http://www.w3.org/2000/svg">
<path fill-rule="evenodd" clip-rule="evenodd" d="M53.0848 59C53.0848 63.2805 55.5052 66.9809 59.0384 68.801V97.9999C59.0384 100.199 57.2515 102 55.0697 102H44.1546C41.4164 102 39.1935 104.24 39.1935 107.001C39.1935 109.76 41.4164 112 44.1546 112H83.8439C86.583 112 88.8056 109.76 88.8056 107.001C88.8056 104.24 86.583 102 83.8439 102H72.9293C70.7477 102 68.961 100.199 68.961 97.9999V68.801C72.492 66.9809 74.9139 63.2805 74.9139 59C74.9139 52.9198 70.0323 48.0001 63.9995 48.0001C57.9664 48.0001 53.0848 52.9198 53.0848 59ZM37.2089 59.4002C37.2089 64.4001 38.5383 69.0801 40.8409 73.1208L41.1393 73.58C41.9511 75.2182 43.6197 76.3396 45.5442 76.3396C48.2824 76.3396 50.5053 74.0795 50.5053 71.2812C50.5053 70.3199 50.2456 69.42 49.7906 68.6603L49.2535 67.7401C47.9049 65.2597 47.1317 62.4198 47.1317 59.4002C47.1317 49.9198 54.6935 41.9999 63.9999 41.9999C73.3061 41.9999 80.8681 49.9198 80.8681 59.4002C80.8681 62.4198 80.0929 65.2597 78.7442 67.7401L78.2095 68.6603C77.7519 69.42 77.4941 70.3199 77.4941 71.2812C77.4941 74.0797 79.7168 76.3396 82.4556 76.3396C84.3795 76.3396 86.0461 75.2182 86.8606 73.58L87.1585 73.1208C89.4611 69.0801 90.7907 64.4001 90.7907 59.4002C90.7907 44.3395 78.8045 31.9998 63.9999 31.9998C49.1954 31.9998 37.2089 44.3395 37.2089 59.4002ZM21.3333 59.4002C21.3333 69.1791 24.5076 78.199 29.8874 85.4605L30.2441 85.9609C31.1352 87.1989 32.6046 87.9999 34.2325 87.9999C36.9706 87.9999 39.1935 85.7396 39.1935 82.9607C39.1935 81.8008 38.8176 80.718 38.1624 79.8595L37.7847 79.3397C33.6759 73.781 31.2554 66.879 31.2554 59.4002C31.2554 40.9999 45.9201 25.9997 63.9997 25.9997C82.0773 25.9997 96.7434 40.9999 96.7434 59.4002C96.7434 66.879 94.3215 73.781 90.2145 79.3397L89.8366 79.8595C89.1822 80.718 88.8059 81.8008 88.8059 82.9607C88.8059 85.7396 91.0283 87.9999 93.7673 87.9999C95.3931 87.9999 96.8637 87.1989 97.7558 85.9609L98.1122 85.4605C103.492 78.1992 106.667 69.1791 106.667 59.4002C106.667 35.4196 87.5556 16 63.9999 16C40.4436 16 21.3333 35.4198 21.3333 59.4002Z" fill="#F8F9FA"/>
</svg>
