<svg width="128" height="128" viewBox="0 0 128 128" fill="none" xmlns="http://www.w3.org/2000/svg">
<path fill-rule="evenodd" clip-rule="evenodd" d="M34.8047 10.6667C33.9165 10.6667 33.1965 11.4128 33.1965 12.3333V23.1667H30.9853C29.209 23.1667 27.769 24.6591 27.769 26.5V28.5834H24.5527C22.7764 28.5834 21.3364 30.0758 21.3364 31.9167V101.292C21.3364 101.292 21.3296 101.736 21.3364 102.021C21.3964 104.536 21.8395 106.084 22.844 108.271C23.6914 110.116 24.8542 112.125 26.8644 113.688C28.3202 114.819 29.2767 115.354 31.0858 116.188C33.096 117.114 34.8047 117.334 37.0159 117.334H90.9899C94.419 117.334 95.8367 117.144 99.5332 114.834C102.745 112.826 104.76 109.104 105.061 108.479C105.363 107.854 106.167 105.979 106.569 103.063C106.971 100.146 106.066 99.1044 105.061 99.0002C104.82 98.9752 101.55 98.9622 96.719 98.9569V65.5626C96.719 64.3545 95.774 63.3751 94.6082 63.3751C93.4425 63.3751 92.4975 64.3545 92.4975 65.5626V98.9542C76.3764 98.9499 50.4843 99.0002 50.4843 99.0002C48.8527 99.1953 48.7883 100.243 48.7011 101.662C48.6486 102.516 48.5879 103.504 48.1726 104.521C47.1507 107.373 45.7106 109.728 42.544 111.5C40.8009 112.572 38.8696 113.315 37.0159 113.271C33.7365 113.194 30.8848 111.292 29.3772 110.042C28.0509 108.942 26.0246 106.15 25.5562 103.792L25.5578 36.2917C25.5578 34.8145 26.4849 33.5618 27.769 33.1244V35.2501C27.769 37.091 29.209 38.5834 30.9853 38.5834H39.4282C41.2045 38.5834 42.6445 37.091 42.6445 35.2501V32.9584H74.8077V35.2501C74.8077 37.091 76.2477 38.5834 78.0241 38.5834H86.4669C88.2432 38.5834 89.6833 37.091 89.6833 35.2501V32.9842C91.2698 33.1892 92.4975 34.5919 92.4975 36.2917V48.1668C92.4975 49.3749 93.4425 50.3543 94.6082 50.3543C95.774 50.3543 96.719 49.3749 96.719 48.1668V31.9167C96.719 30.0758 95.279 28.5834 93.5026 28.5834H89.6833V26.5C89.6833 24.6591 88.2432 23.1667 86.4669 23.1667H84.2557V12.3333C84.2557 11.4128 83.5357 10.6667 82.6475 10.6667H81.8435C80.9553 10.6667 80.2353 11.4128 80.2353 12.3333V23.1667H78.0241C76.2477 23.1667 74.8077 24.6591 74.8077 26.5V28.5834H42.6445V26.5C42.6445 24.6591 41.2045 23.1667 39.4282 23.1667H37.217V12.3333C37.217 11.4128 36.497 10.6667 35.6088 10.6667H34.8047ZM31.5884 27.75H38.8251V34.0001H31.5884V27.75ZM78.6271 34.0001V27.75H85.8639V34.0001H78.6271ZM92.0955 113.271H47.7705C50.9216 109.502 51.9311 107.25 52.796 103.063H102.448C100.992 108.888 98.8549 111.216 92.0955 113.271Z" fill="#F8F9FA"/>
<path d="M94.7057 59.4168C95.927 59.4168 96.917 58.3908 96.917 57.1251C96.917 55.8595 95.927 54.8334 94.7057 54.8334C93.4845 54.8334 92.4945 55.8595 92.4945 57.1251C92.4945 58.3908 93.4845 59.4168 94.7057 59.4168Z" fill="#F8F9FA"/>
<path d="M42.6667 90.6667C42.6667 89.1939 43.8606 88 45.3333 88H66.6667C68.1394 88 69.3333 89.1939 69.3333 90.6667C69.3333 92.1394 68.1394 93.3333 66.6667 93.3333H45.3333C43.8606 93.3333 42.6667 92.1394 42.6667 90.6667Z" fill="#F8F9FA"/>
<path d="M37.3333 82.6667C37.3333 81.1939 38.5272 80 40 80H77.3333C78.8061 80 80 81.1939 80 82.6667C80 84.1394 78.8061 85.3333 77.3333 85.3333H40C38.5272 85.3333 37.3333 84.1394 37.3333 82.6667Z" fill="#F8F9FA"/>
<path d="M80 90.6667C80 92.1394 78.8061 93.3333 77.3333 93.3333C75.8606 93.3333 74.6667 92.1394 74.6667 90.6667C74.6667 89.1939 75.8606 88 77.3333 88C78.8061 88 80 89.1939 80 90.6667Z" fill="#F8F9FA"/>
<path fill-rule="evenodd" clip-rule="evenodd" d="M62.8862 41.5096C62.0931 39.8923 60.1103 39.8923 59.3172 41.5096L53.1602 54.0648L51.6274 50.8316C51.0725 49.661 49.6852 49.661 49.1302 50.8316L38.5954 73.0539C38.0405 74.2244 38.7341 75.6876 39.8439 75.6876H76.1586C77.7449 75.6876 78.7363 73.8306 77.9431 72.2133L62.8862 41.5096ZM61.5501 71.7626H72.9242L61.1017 47.7556L55.5314 59.0668L61.5501 71.7626ZM50.3788 56.0991L57.7922 71.737H42.9654L50.3788 56.0991Z" fill="#F8F9FA"/>
</svg>
