<svg width="128" height="128" viewBox="0 0 128 128" fill="none" xmlns="http://www.w3.org/2000/svg">
<path d="M37.3885 47.9648C42.6931 47.9648 47.0429 43.7397 47.0429 38.5102C47.0429 33.2808 42.7285 29.0557 37.3885 29.0557C32.0486 29.0557 27.7695 33.3154 27.7695 38.5102C27.7695 43.705 32.0839 47.9648 37.3885 47.9648ZM37.3885 32.6574C40.6774 32.6574 43.4004 35.2894 43.4004 38.5448C43.4004 41.8003 40.7128 44.4323 37.3885 44.4323C34.0643 44.4323 31.3767 41.8003 31.3767 38.5448C31.3767 35.2894 34.0997 32.6574 37.3885 32.6574Z" fill="#F8F9FA"/>
<path d="M48.8111 58.9086C47.8209 58.8394 46.9368 59.6013 46.8661 60.571L45.3808 81.3156C45.3808 81.3848 45.3454 81.4195 45.3454 81.4887L44.0016 101.679C43.9662 102.441 43.2943 103.064 42.5163 103.064H32.2607C31.4827 103.064 30.8108 102.476 30.7754 101.679L29.4316 81.4887C29.3962 80.7614 28.8658 80.1034 28.1585 79.8956C27.7695 79.7917 26.6379 79.4454 26.461 79.2723C26.3196 79.0645 26.2489 77.9562 26.2135 77.4021L24.9757 55.9995V55.9649C27.2744 55.3069 29.5377 54.5796 31.8364 53.8523C32.8619 55.0298 33.8875 56.1727 34.9484 57.3502L36.0447 58.5623C36.3983 58.9433 36.8934 59.1857 37.4239 59.1857C37.9543 59.1857 38.4494 58.9779 38.8031 58.5623L40.0762 57.1424C41.1017 55.9995 42.0566 54.9259 43.0114 53.8177L58.8545 57.3156C59.102 57.3848 59.3849 57.3848 59.6325 57.3156L73.9196 54.4411C74.9098 54.2333 75.5463 53.2982 75.3341 52.3285C75.1219 51.3588 74.1671 50.7355 73.1769 50.9433L59.2788 53.7485L43.6479 50.2852C43.5772 50.2506 43.4711 50.2506 43.4004 50.2506C42.9407 50.216 41.3847 50.1814 40.4298 51.2896C39.4396 52.4324 38.4494 53.5407 37.4239 54.6835C36.3983 53.5407 35.4081 52.4324 34.4179 51.2896C33.4985 50.2506 32.3315 49.9043 31.0584 50.3199C28.6182 51.1164 26.1781 51.8783 23.738 52.6056C22.182 53.0904 21.3333 54.2333 21.3333 55.7917C21.3333 55.8956 21.3333 56.1727 21.3333 56.2073L22.5356 77.3329L22.571 77.6792C22.7832 80.7614 23.2429 81.9389 25.8952 82.9433L27.1683 101.956C27.3451 104.588 29.6084 106.666 32.2961 106.666H42.5517C45.2393 106.666 47.5026 104.588 47.6794 101.956L49.0233 81.9389C49.0233 81.8697 49.0233 81.835 49.0586 81.7658L50.5439 60.848C50.5439 59.8437 49.8013 58.9779 48.8111 58.9086Z" fill="#F8F9FA"/>
<path d="M104.828 21.333H37.3885C36.3983 21.333 35.5496 22.1295 35.5496 23.1339C35.5496 24.1382 36.3629 24.9347 37.3885 24.9347H102.989V71.3417H54.6108C53.6206 71.3417 52.7718 72.1382 52.7718 73.1425C52.7718 74.1122 53.5852 74.9434 54.6108 74.9434H104.828C105.818 74.9434 106.667 74.1469 106.667 73.1425V23.1339C106.667 22.1642 105.853 21.333 104.828 21.333Z" fill="#F8F9FA"/>
</svg>
