<svg width="56" height="56" viewBox="0 0 56 56" fill="none" xmlns="http://www.w3.org/2000/svg">
<path d="M48.7311 43.7729L29.3167 10.1598C29.1687 9.90562 28.9688 9.69734 28.7347 9.55332C28.5005 9.40931 28.2392 9.33398 27.9739 9.33398C27.7086 9.33398 27.4473 9.40931 27.2131 9.55332C26.979 9.69734 26.7791 9.90562 26.6311 10.1598L7.21674 43.7729C7.07474 44.0567 6.99998 44.3788 6.99998 44.7066C6.99998 45.0344 7.07474 45.3564 7.21674 45.6403C7.34334 45.9319 7.53393 46.1802 7.76953 46.3604C8.00513 46.5406 8.27751 46.6464 8.55956 46.6673H47.3882C47.6809 46.6664 47.9679 46.5739 48.2186 46.3996C48.4693 46.2253 48.6744 45.9758 48.812 45.6776C48.948 45.381 49.0123 45.0476 48.998 44.7124C48.9838 44.3772 48.8916 44.0527 48.7311 43.7729Z" fill="#F8F9FA"/>
<path d="M27.9738 35.4626C27.5447 35.4626 27.1332 35.2658 26.8298 34.9156C26.5264 34.5654 26.3559 34.0904 26.3559 33.5952V22.3908C26.3559 21.8956 26.5264 21.4206 26.8298 21.0704C27.1332 20.7202 27.5447 20.5234 27.9738 20.5234C28.4029 20.5234 28.8144 20.7202 29.1178 21.0704C29.4212 21.4206 29.5916 21.8956 29.5916 22.3908V33.5952C29.5916 34.0904 29.4212 34.5654 29.1178 34.9156C28.8144 35.2658 28.4029 35.4626 27.9738 35.4626Z" fill="#032C17"/>
<path d="M27.9738 41.0662C27.5447 41.0662 27.1332 40.8694 26.8298 40.5191C26.5264 40.1687 26.3559 39.6936 26.3559 39.1982C26.3559 38.7027 26.5264 38.2276 26.8298 37.8772C27.1332 37.5269 27.5447 37.3301 27.9738 37.3301C28.4029 37.3301 28.8144 37.5269 29.1178 37.8772C29.4212 38.2276 29.5916 38.7027 29.5916 39.1982C29.5916 39.6936 29.4212 40.1687 29.1178 40.5191C28.8144 40.8694 28.4029 41.0662 27.9738 41.0662Z" fill="#032C17"/>
</svg>
