<svg width="33" height="38" viewBox="0 0 33 38" fill="none" xmlns="http://www.w3.org/2000/svg">
<path d="M11.009 4.93779C11.1336 4.93772 11.257 4.96608 11.3722 5.02125C11.4873 5.07642 11.592 5.15732 11.6801 5.25932L23.3753 18.8018C23.5531 19.0078 23.6531 19.2872 23.6531 19.5785C23.6531 19.8698 23.5531 20.1492 23.3753 20.3553L11.6801 33.8977C11.592 33.9998 11.4874 34.0807 11.3723 34.136C11.2572 34.1912 11.1338 34.2197 11.0092 34.2197C10.8846 34.2198 10.7612 34.1914 10.6461 34.1362C10.5309 34.081 10.4263 34.0001 10.3382 33.8981C10.25 33.7961 10.1801 33.675 10.1324 33.5417C10.0847 33.4084 10.0601 33.2655 10.0601 33.1213C10.0601 32.977 10.0846 32.8341 10.1322 32.7008C10.1799 32.5675 10.2498 32.4463 10.3379 32.3443L21.3625 19.5789L10.3379 6.81352C10.2051 6.65987 10.1146 6.46407 10.078 6.25089C10.0414 6.03771 10.0601 5.81673 10.132 5.61592C10.2038 5.41511 10.3255 5.24349 10.4816 5.12278C10.6377 5.00207 10.8213 4.93769 11.009 4.93779Z" fill="#212529"/>
</svg>
