<svg width="43" height="38" viewBox="0 0 43 38" fill="none" xmlns="http://www.w3.org/2000/svg">
<path d="M29.0659 34.2194C28.9019 34.2195 28.7395 34.1911 28.588 34.136C28.4365 34.0808 28.2988 33.9999 28.1828 33.8979L12.7945 20.3554C12.5604 20.1494 12.429 19.87 12.429 19.5787C12.429 19.2874 12.5604 19.008 12.7945 18.802L28.1828 5.25949C28.2987 5.15744 28.4364 5.07648 28.5878 5.02123C28.7393 4.96599 28.9016 4.93753 29.0656 4.9375C29.2296 4.93747 29.3919 4.96585 29.5434 5.02104C29.6949 5.07622 29.8326 5.15712 29.9486 5.25913C30.0645 5.36113 30.1565 5.48223 30.2193 5.61552C30.2821 5.74881 30.3144 5.89168 30.3145 6.03597C30.3145 6.18025 30.2822 6.32313 30.2195 6.45645C30.1568 6.58977 30.0649 6.71091 29.949 6.81296L15.4429 19.5783L29.949 32.3437C30.1237 32.4974 30.2427 32.6932 30.2909 32.9063C30.3391 33.1195 30.3144 33.3405 30.2199 33.5413C30.1253 33.7421 29.9652 33.9137 29.7598 34.0344C29.5544 34.1552 29.3129 34.2195 29.0659 34.2194Z" fill="#212529"/>
</svg>
