<svg width="40" height="28" viewBox="0 0 40 28" fill="none" xmlns="http://www.w3.org/2000/svg">
<path fill-rule="evenodd" clip-rule="evenodd" d="M-6.11961e-07 14L13.5018 0.344869C13.9564 -0.114957 14.6936 -0.114957 15.1483 0.344869C15.6029 0.804698 15.6029 1.55022 15.1483 2.01005L3.29289 14L15.1471 25.99C15.6018 26.4498 15.6017 27.1954 15.1471 27.6552C14.6924 28.115 13.9552 28.1149 13.5006 27.6551L-6.11961e-07 14Z" fill="#032C17"/>
<path fill-rule="evenodd" clip-rule="evenodd" d="M1.32861 14C1.32861 13.3497 1.84986 12.8225 2.49285 12.8225L38.8358 12.8225C39.4788 12.8225 40 13.3497 40 14C40 14.6503 39.4788 15.1775 38.8358 15.1775L2.49285 15.1775C1.84986 15.1775 1.32861 14.6503 1.32861 14Z" fill="#032C17"/>
</svg>
