<svg width="28" height="29" viewBox="0 0 28 29" fill="none" xmlns="http://www.w3.org/2000/svg">
<path fill-rule="evenodd" clip-rule="evenodd" d="M25.6667 14.5007L17.7907 22.4661C17.5255 22.7344 17.0955 22.7344 16.8303 22.4661C16.565 22.1979 16.565 21.763 16.8303 21.4948L23.7459 14.5006L16.8309 7.50649C16.5657 7.23825 16.5657 6.80336 16.831 6.53514C17.0962 6.26692 17.5262 6.26694 17.7914 6.53518L25.6667 14.5007Z" fill="#F8F9FA"/>
<path fill-rule="evenodd" clip-rule="evenodd" d="M24.8917 14.5007C24.8917 14.88 24.5877 15.1875 24.2126 15.1875L3.01255 15.1875C2.63747 15.1875 2.33341 14.88 2.33341 14.5007C2.33341 14.1213 2.63747 13.8138 3.01255 13.8138L24.2126 13.8138C24.5877 13.8138 24.8917 14.1213 24.8917 14.5007Z" fill="#F8F9FA"/>
</svg>
