<svg width="11" height="19" viewBox="0 0 11 19" fill="none" xmlns="http://www.w3.org/2000/svg">
<path d="M0.703434 -0.000207082C0.795786 -0.000249052 0.887242 0.0179032 0.972576 0.0532101C1.05791 0.0885189 1.13545 0.140294 1.20078 0.205575L9.8675 8.87276C9.99931 9.00461 10.0734 9.18342 10.0734 9.36987C10.0734 9.55631 9.99931 9.73512 9.8675 9.86697L1.20078 18.5342C1.1355 18.5995 1.05799 18.6513 0.972687 18.6866C0.887381 18.722 0.795945 18.7402 0.703602 18.7402C0.611259 18.7403 0.519815 18.7221 0.434493 18.6868C0.349171 18.6515 0.271638 18.5997 0.206326 18.5344C0.141014 18.4691 0.0892009 18.3916 0.0538425 18.3063C0.0184841 18.221 0.000272697 18.1296 0.000250755 18.0372C0.000228812 17.9449 0.0183963 17.8534 0.0537147 17.7681C0.089033 17.6828 0.140812 17.6053 0.206093 17.5399L8.37593 9.3701L0.206091 1.20026C0.107693 1.10193 0.0406755 0.976613 0.0135187 0.840178C-0.0136382 0.703744 0.00028642 0.562318 0.05353 0.433801C0.106775 0.305282 0.196946 0.195445 0.312633 0.11819C0.42832 0.0409325 0.564323 -0.000270012 0.703434 -0.000207082Z" fill="#715C20"/>
</svg>
