<svg width="329" height="238" viewBox="0 0 329 238" fill="none" xmlns="http://www.w3.org/2000/svg">
<g clip-path="url(#clip0_709_8637)">
<path d="M328.525 236.175H0.475434C0.349341 236.175 0.228412 236.125 0.139251 236.035C0.0500898 235.946 0 235.825 0 235.699C0 235.572 0.0500898 235.451 0.139251 235.362C0.228412 235.273 0.349341 235.223 0.475434 235.223H328.525C328.651 235.223 328.772 235.273 328.861 235.362C328.95 235.451 329 235.572 329 235.699C329 235.825 328.95 235.946 328.861 236.035C328.772 236.125 328.651 236.175 328.525 236.175Z" fill="#212529"/>
<path d="M296.055 153.139H103.029C102.209 153.139 101.423 153.465 100.843 154.045C100.264 154.625 99.9382 155.413 99.9382 156.233C99.9382 157.054 100.264 157.841 100.843 158.422C101.423 159.002 102.209 159.328 103.029 159.328H108.496V233.364C108.496 234.185 108.822 234.972 109.401 235.553C109.981 236.133 110.767 236.459 111.586 236.459C112.406 236.459 113.192 236.133 113.772 235.553C114.351 234.972 114.677 234.185 114.677 233.364L114.724 159.328H283.931V233.364C283.931 234.185 284.257 234.972 284.836 235.553C285.416 236.133 286.202 236.459 287.021 236.459C287.841 236.459 288.627 236.133 289.206 235.553C289.786 234.972 290.112 234.185 290.112 233.364V160.96L291.011 159.328H296.055C296.874 159.328 297.66 159.002 298.24 158.422C298.819 157.841 299.145 157.054 299.145 156.233C299.145 155.413 298.819 154.625 298.24 154.045C297.66 153.465 296.874 153.139 296.055 153.139Z" fill="#362406"/>
<path d="M210.044 154.759H151.574C150.442 154.758 149.357 154.307 148.556 153.505C147.755 152.703 147.305 151.616 147.304 150.483V118.245C147.305 117.111 147.755 116.024 148.556 115.223C149.357 114.421 150.442 113.97 151.574 113.969H210.044C211.176 113.97 212.261 114.421 213.062 115.223C213.862 116.024 214.313 117.111 214.314 118.245V150.483C214.313 151.616 213.862 152.703 213.062 153.505C212.261 154.307 211.176 154.758 210.044 154.759Z" fill="#ADB5BD"/>
<path d="M210.043 117.26H151.574C151.314 117.26 151.064 117.364 150.879 117.549C150.695 117.734 150.591 117.984 150.59 118.245V150.483C150.591 150.744 150.695 150.995 150.879 151.179C151.064 151.364 151.314 151.468 151.574 151.469H210.043C210.304 151.468 210.554 151.364 210.739 151.179C210.923 150.995 211.027 150.744 211.027 150.483V118.245C211.027 117.984 210.923 117.734 210.739 117.549C210.554 117.364 210.304 117.26 210.043 117.26Z" fill="#D8F6CF"/>
<path d="M181.378 145.693C183.085 145.693 184.468 142.708 184.468 139.027C184.468 135.346 183.085 132.361 181.378 132.361C179.671 132.361 178.288 135.346 178.288 139.027C178.288 142.708 179.671 145.693 181.378 145.693Z" fill="#A0616A"/>
<path d="M185.796 140.084C185.796 140.084 178.796 138.469 174.946 141.43C171.097 144.391 179.846 151.121 179.846 151.121L185.796 140.084Z" fill="#2F2E41"/>
<path d="M181.152 137.032C184.798 137.032 187.754 134.072 187.754 130.42C187.754 126.769 184.798 123.809 181.152 123.809C177.505 123.809 174.549 126.769 174.549 130.42C174.549 134.072 177.505 137.032 181.152 137.032Z" fill="#A0616A"/>
<path d="M176.046 121.139C176.487 120.391 177.125 119.779 177.89 119.371C178.656 118.963 179.52 118.774 180.385 118.827C181.291 118.941 182.175 119.188 183.008 119.562L187.324 121.248C188.441 121.684 189.664 122.219 190.148 123.317C190.598 124.336 190.263 125.513 189.923 126.574L188.308 131.618C188.129 130.476 187.822 129.359 187.393 128.286C186.957 127.206 186.168 126.306 185.156 125.732C184.035 125.156 182.714 125.168 181.455 125.229C179.673 125.315 177.735 125.542 176.468 126.801C175.796 127.516 175.34 128.407 175.154 129.372C174.971 130.331 174.878 131.305 174.878 132.281C174.147 131.023 173.532 129.701 173.039 128.332C172.633 127.312 172.402 126.231 172.355 125.135C172.313 124.029 172.679 122.946 173.384 122.094C173.742 121.677 174.209 121.369 174.732 121.204C175.256 121.039 175.815 121.024 176.346 121.16L176.046 121.139Z" fill="#2F2E41"/>
<path d="M196.916 145.817C196.854 145.594 196.728 145.393 196.553 145.242C196.378 145.09 196.162 144.994 195.932 144.965C195.917 144.954 195.901 144.944 195.885 144.936L186.028 139.404C185.747 139.246 185.416 139.203 185.103 139.284C184.791 139.364 184.521 139.562 184.351 139.837L181.655 144.208L177.595 140.142L177.531 140.077C177.322 139.868 177.047 139.74 176.753 139.714C176.46 139.688 176.167 139.767 175.925 139.936L167.825 145.617C167.811 145.617 167.796 145.622 167.782 145.622C167.394 145.686 167.04 145.882 166.778 146.175C166.516 146.468 166.362 146.843 166.341 147.236L166.132 151.468H198.481L196.916 145.817Z" fill="#6C63FF"/>
<path d="M214.971 150.81H208.73C208.73 150.636 208.661 150.468 208.537 150.345C208.414 150.222 208.247 150.152 208.073 150.152H206.102C205.928 150.152 205.761 150.222 205.637 150.345C205.514 150.468 205.445 150.636 205.445 150.81H203.474C203.474 150.636 203.405 150.468 203.282 150.345C203.158 150.222 202.991 150.152 202.817 150.152H200.846C200.672 150.152 200.505 150.222 200.382 150.345C200.258 150.468 200.189 150.636 200.189 150.81H198.218C198.218 150.636 198.149 150.468 198.026 150.345C197.903 150.222 197.736 150.152 197.561 150.152H195.591C195.416 150.152 195.249 150.222 195.126 150.345C195.003 150.468 194.934 150.636 194.934 150.81H192.963C192.963 150.636 192.893 150.468 192.77 150.345C192.647 150.222 192.48 150.152 192.306 150.152H190.335C190.161 150.152 189.993 150.222 189.87 150.345C189.747 150.468 189.678 150.636 189.678 150.81H187.707C187.707 150.636 187.638 150.468 187.515 150.345C187.391 150.222 187.224 150.152 187.05 150.152H185.079C184.905 150.152 184.738 150.222 184.615 150.345C184.491 150.468 184.422 150.636 184.422 150.81H182.451C182.451 150.636 182.382 150.468 182.259 150.345C182.136 150.222 181.969 150.152 181.794 150.152H179.823C179.649 150.152 179.482 150.222 179.359 150.345C179.236 150.468 179.166 150.636 179.166 150.81H177.196C177.196 150.636 177.126 150.468 177.003 150.345C176.88 150.222 176.713 150.152 176.539 150.152H174.568C174.393 150.152 174.226 150.222 174.103 150.345C173.98 150.468 173.911 150.636 173.911 150.81H171.94C171.94 150.636 171.871 150.468 171.747 150.345C171.624 150.222 171.457 150.152 171.283 150.152H169.312C169.138 150.152 168.971 150.222 168.847 150.345C168.724 150.468 168.655 150.636 168.655 150.81H166.684C166.684 150.636 166.615 150.468 166.492 150.345C166.369 150.222 166.201 150.152 166.027 150.152H164.056C163.882 150.152 163.715 150.222 163.592 150.345C163.469 150.468 163.399 150.636 163.399 150.81H161.428C161.428 150.636 161.359 150.468 161.236 150.345C161.113 150.222 160.946 150.152 160.771 150.152H158.801C158.626 150.152 158.459 150.222 158.336 150.345C158.213 150.468 158.144 150.636 158.144 150.81H156.173C156.173 150.636 156.104 150.468 155.98 150.345C155.857 150.222 155.69 150.152 155.516 150.152H153.545C153.371 150.152 153.204 150.222 153.08 150.345C152.957 150.468 152.888 150.636 152.888 150.81H146.647C146.125 150.811 145.624 151.019 145.255 151.389C144.886 151.759 144.679 152.261 144.679 152.784C144.679 153.307 144.886 153.808 145.255 154.179C145.624 154.549 146.125 154.757 146.647 154.758H214.971C215.494 154.758 215.995 154.55 216.365 154.18C216.734 153.809 216.942 153.307 216.942 152.784C216.942 152.261 216.734 151.758 216.365 151.388C215.995 151.018 215.494 150.81 214.971 150.81Z" fill="#ADB5BD"/>
<path d="M136.487 139.35V152.455H103.7C102.822 152.486 101.946 152.339 101.125 152.023C100.305 151.708 99.5562 151.23 98.9239 150.619C98.2917 150.007 97.7889 149.274 97.4454 148.464C97.102 147.654 96.925 146.783 96.925 145.902C96.925 145.022 97.102 144.151 97.4454 143.341C97.7889 142.53 98.2917 141.798 98.9239 141.186C99.5562 140.575 100.305 140.097 101.125 139.781C101.946 139.466 102.822 139.319 103.7 139.35H136.487Z" fill="#F2F2F2"/>
<path d="M137.292 152.354C137.292 152.488 137.239 152.616 137.145 152.71C137.051 152.805 136.923 152.858 136.789 152.858H103.116C101.287 152.858 99.5333 152.13 98.2402 150.835C96.947 149.54 96.2205 147.784 96.2205 145.952C96.2205 144.121 96.947 142.365 98.2402 141.069C99.5333 139.774 101.287 139.047 103.116 139.047H136.789C136.923 139.047 137.051 139.1 137.145 139.195C137.239 139.289 137.292 139.417 137.292 139.551C137.292 139.685 137.239 139.813 137.145 139.907C137.051 140.002 136.923 140.055 136.789 140.055H103.116C101.555 140.056 100.059 140.678 98.9554 141.784C97.8521 142.89 97.2324 144.389 97.2324 145.952C97.2324 147.516 97.8521 149.015 98.9554 150.121C100.059 151.227 101.555 151.849 103.116 151.85H136.789C136.923 151.85 137.051 151.903 137.145 151.998C137.239 152.092 137.292 152.22 137.292 152.354Z" fill="#0D4F1B"/>
<path d="M136.487 142.374H101.254C101.24 142.374 101.227 142.371 101.215 142.366C101.203 142.361 101.191 142.354 101.182 142.344C101.173 142.335 101.165 142.324 101.16 142.311C101.155 142.299 101.152 142.286 101.152 142.273C101.152 142.259 101.155 142.246 101.16 142.234C101.165 142.222 101.173 142.211 101.182 142.201C101.191 142.192 101.203 142.184 101.215 142.179C101.227 142.174 101.24 142.172 101.254 142.172H136.487C136.514 142.172 136.539 142.183 136.558 142.202C136.576 142.221 136.587 142.246 136.587 142.273C136.587 142.299 136.576 142.325 136.558 142.344C136.539 142.363 136.514 142.373 136.487 142.374Z" fill="#CCCCCC"/>
<path d="M136.487 144.793H101.254C101.24 144.794 101.227 144.791 101.215 144.786C101.203 144.781 101.191 144.774 101.182 144.764C101.173 144.755 101.165 144.744 101.16 144.731C101.155 144.719 101.152 144.706 101.152 144.693C101.152 144.679 101.155 144.666 101.16 144.654C101.165 144.642 101.173 144.63 101.182 144.621C101.191 144.612 101.203 144.604 101.215 144.599C101.227 144.594 101.24 144.592 101.254 144.592H136.487C136.514 144.592 136.539 144.603 136.558 144.622C136.576 144.64 136.587 144.666 136.587 144.693C136.587 144.719 136.576 144.745 136.558 144.764C136.539 144.783 136.514 144.793 136.487 144.793Z" fill="#CCCCCC"/>
<path d="M136.487 147.213H101.254C101.24 147.213 101.227 147.211 101.215 147.206C101.203 147.201 101.191 147.193 101.182 147.184C101.173 147.175 101.165 147.164 101.16 147.151C101.155 147.139 101.152 147.126 101.152 147.113C101.152 147.099 101.155 147.086 101.16 147.074C101.165 147.062 101.173 147.05 101.182 147.041C101.191 147.032 101.203 147.024 101.215 147.019C101.227 147.014 101.24 147.012 101.254 147.012H136.487C136.514 147.012 136.539 147.023 136.558 147.041C136.576 147.06 136.587 147.086 136.587 147.113C136.587 147.139 136.576 147.165 136.558 147.184C136.539 147.202 136.514 147.213 136.487 147.213Z" fill="#CCCCCC"/>
<path d="M136.487 149.631H101.254C101.24 149.631 101.227 149.629 101.215 149.624C101.203 149.619 101.191 149.611 101.182 149.602C101.173 149.593 101.165 149.582 101.16 149.569C101.155 149.557 101.152 149.544 101.152 149.53C101.152 149.517 101.155 149.504 101.16 149.492C101.165 149.479 101.173 149.468 101.182 149.459C101.191 149.45 101.203 149.442 101.215 149.437C101.227 149.432 101.24 149.43 101.254 149.43H136.487C136.514 149.43 136.539 149.441 136.558 149.459C136.576 149.478 136.587 149.504 136.587 149.53C136.587 149.557 136.576 149.583 136.558 149.602C136.539 149.62 136.514 149.631 136.487 149.631Z" fill="#CCCCCC"/>
<path d="M130.306 125.541V138.647H97.5194C96.6409 138.677 95.7653 138.53 94.9448 138.215C94.1242 137.899 93.3755 137.422 92.7433 136.81C92.111 136.199 91.6082 135.466 91.2648 134.656C90.9214 133.845 90.7444 132.974 90.7444 132.094C90.7444 131.214 90.9214 130.342 91.2648 129.532C91.6082 128.722 92.111 127.989 92.7433 127.378C93.3755 126.766 94.1242 126.288 94.9448 125.973C95.7653 125.657 96.6409 125.51 97.5194 125.541H130.306Z" fill="#F2F2F2"/>
<path d="M131.112 138.547C131.112 138.681 131.059 138.809 130.964 138.904C130.87 138.998 130.742 139.051 130.608 139.051H96.9355C96.0299 139.051 95.1332 138.873 94.2966 138.526C93.46 138.179 92.6998 137.67 92.0595 137.029C91.4192 136.388 90.9112 135.626 90.5647 134.788C90.2182 133.951 90.0398 133.053 90.0398 132.146C90.0398 131.239 90.2182 130.341 90.5647 129.503C90.9112 128.665 91.4192 127.904 92.0595 127.263C92.6998 126.622 93.46 126.113 94.2966 125.766C95.1332 125.419 96.0299 125.24 96.9355 125.24H130.608C130.742 125.24 130.87 125.293 130.964 125.388C131.059 125.482 131.112 125.611 131.112 125.744C131.112 125.878 131.059 126.006 130.964 126.101C130.87 126.195 130.742 126.248 130.608 126.248H96.9355C95.3745 126.25 93.878 126.872 92.7747 127.978C91.6715 129.083 91.0517 130.583 91.0517 132.146C91.0517 133.709 91.6715 135.208 92.7747 136.314C93.878 137.42 95.3745 138.042 96.9355 138.043H130.608C130.742 138.043 130.87 138.096 130.964 138.191C131.059 138.285 131.112 138.414 131.112 138.547Z" fill="#3F3D56"/>
<path d="M130.306 128.567H95.073C95.0598 128.567 95.0466 128.564 95.0343 128.559C95.022 128.554 95.0108 128.547 95.0014 128.538C94.992 128.528 94.9845 128.517 94.9794 128.505C94.9743 128.493 94.9717 128.479 94.9717 128.466C94.9717 128.453 94.9743 128.44 94.9794 128.427C94.9845 128.415 94.992 128.404 95.0014 128.395C95.0108 128.385 95.022 128.378 95.0343 128.373C95.0466 128.368 95.0598 128.365 95.073 128.365H130.306C130.333 128.365 130.358 128.376 130.377 128.395C130.396 128.414 130.406 128.439 130.406 128.466C130.406 128.493 130.396 128.518 130.377 128.537C130.358 128.556 130.333 128.567 130.306 128.567Z" fill="#CCCCCC"/>
<path d="M130.306 130.985H95.073C95.0598 130.985 95.0466 130.982 95.0343 130.977C95.022 130.972 95.0108 130.965 95.0014 130.956C94.992 130.946 94.9845 130.935 94.9794 130.923C94.9743 130.91 94.9717 130.897 94.9717 130.884C94.9717 130.871 94.9743 130.858 94.9794 130.845C94.9845 130.833 94.992 130.822 95.0014 130.812C95.0108 130.803 95.022 130.796 95.0343 130.791C95.0466 130.786 95.0598 130.783 95.073 130.783H130.306C130.333 130.783 130.358 130.794 130.377 130.813C130.396 130.832 130.406 130.857 130.406 130.884C130.406 130.911 130.396 130.936 130.377 130.955C130.358 130.974 130.333 130.985 130.306 130.985Z" fill="#CCCCCC"/>
<path d="M130.306 133.405H95.073C95.0598 133.405 95.0466 133.402 95.0343 133.397C95.022 133.392 95.0108 133.385 95.0014 133.375C94.992 133.366 94.9845 133.355 94.9794 133.343C94.9743 133.33 94.9717 133.317 94.9717 133.304C94.9717 133.291 94.9743 133.277 94.9794 133.265C94.9845 133.253 94.992 133.242 95.0014 133.232C95.0108 133.223 95.022 133.216 95.0343 133.211C95.0466 133.206 95.0598 133.203 95.073 133.203H130.306C130.333 133.203 130.358 133.214 130.377 133.233C130.396 133.252 130.406 133.277 130.406 133.304C130.406 133.331 130.396 133.356 130.377 133.375C130.358 133.394 130.333 133.405 130.306 133.405Z" fill="#CCCCCC"/>
<path d="M130.306 135.825H95.073C95.0598 135.825 95.0466 135.822 95.0343 135.817C95.022 135.812 95.0108 135.805 95.0014 135.795C94.992 135.786 94.9845 135.775 94.9794 135.763C94.9743 135.75 94.9717 135.737 94.9717 135.724C94.9717 135.711 94.9743 135.697 94.9794 135.685C94.9845 135.673 94.992 135.662 95.0014 135.652C95.0108 135.643 95.022 135.636 95.0343 135.631C95.0466 135.625 95.0598 135.623 95.073 135.623H130.306C130.333 135.623 130.358 135.634 130.377 135.653C130.396 135.672 130.406 135.697 130.406 135.724C130.406 135.75 130.396 135.776 130.377 135.795C130.358 135.814 130.333 135.824 130.306 135.825Z" fill="#CCCCCC"/>
<path d="M168.448 199.038V187.612C168.448 187.106 168.247 186.622 167.891 186.265C167.534 185.908 167.05 185.707 166.546 185.707H123.281C122.777 185.707 122.293 185.908 121.937 186.265C121.58 186.622 121.38 187.106 121.38 187.612V199.038H168.448Z" fill="#513C10"/>
<path d="M168.448 203.322H121.38V218.082H168.448V203.322Z" fill="#513C10"/>
<path d="M121.38 222.367V233.794C121.38 234.299 121.58 234.783 121.937 235.141C122.293 235.498 122.777 235.698 123.281 235.698H166.546C167.05 235.698 167.534 235.498 167.891 235.141C168.247 234.783 168.448 234.299 168.448 233.794V222.367H121.38Z" fill="#513C10"/>
<path d="M144.676 194.277C145.464 194.277 146.102 193.637 146.102 192.848C146.102 192.059 145.464 191.42 144.676 191.42C143.888 191.42 143.25 192.059 143.25 192.848C143.25 193.637 143.888 194.277 144.676 194.277Z" fill="#212529"/>
<path d="M144.676 213.322C145.464 213.322 146.102 212.682 146.102 211.893C146.102 211.104 145.464 210.465 144.676 210.465C143.888 210.465 143.25 211.104 143.25 211.893C143.25 212.682 143.888 213.322 144.676 213.322Z" fill="#212529"/>
<path d="M144.752 231.962C145.54 231.962 146.179 231.323 146.179 230.534C146.179 229.745 145.54 229.105 144.752 229.105C143.965 229.105 143.326 229.745 143.326 230.534C143.326 231.323 143.965 231.962 144.752 231.962Z" fill="#212529"/>
<path d="M163.111 172.678V185.783H130.324C129.446 185.814 128.57 185.667 127.75 185.352C126.929 185.036 126.18 184.558 125.548 183.947C124.916 183.335 124.413 182.603 124.07 181.792C123.726 180.982 123.549 180.111 123.549 179.231C123.549 178.35 123.726 177.479 124.07 176.669C124.413 175.859 124.916 175.126 125.548 174.514C126.18 173.903 126.929 173.425 127.75 173.11C128.57 172.794 129.446 172.647 130.324 172.678H163.111Z" fill="#F2F2F2"/>
<path d="M163.917 185.682C163.917 185.816 163.864 185.944 163.769 186.038C163.675 186.133 163.547 186.186 163.413 186.186H129.74C128.834 186.187 127.937 186.009 127.1 185.662C126.262 185.315 125.502 184.807 124.861 184.166C124.22 183.524 123.711 182.763 123.364 181.925C123.018 181.086 122.839 180.188 122.839 179.281C122.839 178.373 123.018 177.475 123.364 176.637C123.711 175.798 124.22 175.037 124.861 174.396C125.502 173.754 126.262 173.246 127.1 172.899C127.937 172.552 128.834 172.374 129.74 172.375H163.413C163.547 172.375 163.675 172.428 163.769 172.523C163.864 172.617 163.917 172.745 163.917 172.879C163.917 173.013 163.864 173.141 163.769 173.235C163.675 173.33 163.547 173.383 163.413 173.383H129.74C128.179 173.385 126.683 174.006 125.58 175.112C124.476 176.218 123.857 177.717 123.857 179.281C123.857 180.844 124.476 182.343 125.58 183.449C126.683 184.555 128.179 185.177 129.74 185.178H163.413C163.547 185.178 163.675 185.231 163.769 185.326C163.864 185.42 163.917 185.548 163.917 185.682Z" fill="#3F3D56"/>
<path d="M163.111 175.702H127.878C127.865 175.702 127.852 175.699 127.839 175.694C127.827 175.689 127.816 175.682 127.806 175.672C127.797 175.663 127.789 175.652 127.784 175.64C127.779 175.627 127.777 175.614 127.777 175.601C127.777 175.588 127.779 175.574 127.784 175.562C127.789 175.55 127.797 175.539 127.806 175.529C127.816 175.52 127.827 175.512 127.839 175.507C127.852 175.502 127.865 175.5 127.878 175.5H163.111C163.138 175.5 163.163 175.511 163.182 175.53C163.201 175.549 163.211 175.574 163.211 175.601C163.211 175.627 163.201 175.653 163.182 175.672C163.163 175.691 163.138 175.701 163.111 175.702Z" fill="#CCCCCC"/>
<path d="M163.111 178.122H127.878C127.865 178.122 127.852 178.119 127.839 178.114C127.827 178.109 127.816 178.102 127.806 178.092C127.797 178.083 127.789 178.072 127.784 178.059C127.779 178.047 127.777 178.034 127.777 178.021C127.777 178.007 127.779 177.994 127.784 177.982C127.789 177.97 127.797 177.959 127.806 177.949C127.816 177.94 127.827 177.932 127.839 177.927C127.852 177.922 127.865 177.92 127.878 177.92H163.111C163.138 177.92 163.163 177.931 163.182 177.95C163.201 177.969 163.211 177.994 163.211 178.021C163.211 178.047 163.201 178.073 163.182 178.092C163.163 178.111 163.138 178.121 163.111 178.122Z" fill="#CCCCCC"/>
<path d="M163.111 180.541H127.878C127.865 180.542 127.852 180.539 127.839 180.534C127.827 180.529 127.816 180.522 127.806 180.512C127.797 180.503 127.789 180.492 127.784 180.479C127.779 180.467 127.777 180.454 127.777 180.441C127.777 180.427 127.779 180.414 127.784 180.402C127.789 180.39 127.797 180.378 127.806 180.369C127.816 180.36 127.827 180.352 127.839 180.347C127.852 180.342 127.865 180.34 127.878 180.34H163.111C163.138 180.34 163.163 180.351 163.182 180.37C163.201 180.388 163.211 180.414 163.211 180.441C163.211 180.467 163.201 180.493 163.182 180.512C163.163 180.531 163.138 180.541 163.111 180.541Z" fill="#CCCCCC"/>
<path d="M163.111 182.959H127.878C127.865 182.96 127.852 182.957 127.839 182.952C127.827 182.947 127.816 182.94 127.806 182.93C127.797 182.921 127.789 182.91 127.784 182.897C127.779 182.885 127.777 182.872 127.777 182.859C127.777 182.845 127.779 182.832 127.784 182.82C127.789 182.808 127.797 182.796 127.806 182.787C127.816 182.778 127.827 182.77 127.839 182.765C127.852 182.76 127.865 182.758 127.878 182.758H163.111C163.138 182.758 163.163 182.769 163.182 182.788C163.201 182.806 163.211 182.832 163.211 182.859C163.211 182.885 163.201 182.911 163.182 182.93C163.163 182.949 163.138 182.959 163.111 182.959Z" fill="#CCCCCC"/>
<path d="M118.911 87.1397V3.58109C118.912 2.63166 119.289 1.72142 119.959 1.05007C120.63 0.378723 121.539 0.00107995 122.487 0H188.443C189.391 0.00108624 190.3 0.378731 190.97 1.05008C191.641 1.72143 192.018 2.63166 192.019 3.58109V87.1397C192.018 88.0891 191.641 88.9994 190.97 89.6707C190.3 90.342 189.391 90.7197 188.443 90.7208H122.487C121.539 90.7197 120.63 90.342 119.959 89.6707C119.289 88.9994 118.912 88.0891 118.911 87.1397ZM122.487 0.795798C121.749 0.796625 121.042 1.09034 120.521 1.6125C120 2.13467 119.706 2.84264 119.706 3.58109V87.1397C119.706 87.8781 120 88.5861 120.521 89.1083C121.042 89.6304 121.749 89.9241 122.487 89.925H188.443C189.18 89.9241 189.887 89.6304 190.409 89.1083C190.93 88.5861 191.223 87.8781 191.224 87.1397V3.58109C191.223 2.84264 190.93 2.13467 190.409 1.6125C189.887 1.09034 189.18 0.796626 188.443 0.795798H122.487Z" fill="#E6E6E6"/>
<path d="M159.164 38.3735V21.2163C159.164 20.7416 159.353 20.2865 159.688 19.9508C160.023 19.6151 160.477 19.4263 160.952 19.4258H175.47C175.944 19.4263 176.398 19.6151 176.734 19.9508C177.069 20.2865 177.257 20.7416 177.258 21.2163V38.3735C177.257 38.8483 177.069 39.3034 176.734 39.6391C176.398 39.9747 175.944 40.1636 175.47 40.1641H160.952C160.477 40.1636 160.023 39.9747 159.688 39.6391C159.353 39.3034 159.164 38.8483 159.164 38.3735Z" fill="#0D4F1B"/>
<path d="M130.953 46.3325V29.1753C130.954 28.7006 131.142 28.2455 131.478 27.9098C131.813 27.5741 132.267 27.3853 132.741 27.3848H147.26C147.734 27.3853 148.188 27.5741 148.523 27.9098C148.858 28.2455 149.047 28.7006 149.048 29.1753V46.3325C149.047 46.8072 148.858 47.2624 148.523 47.598C148.188 47.9337 147.734 48.1225 147.26 48.1231H132.741C132.267 48.1225 131.813 47.9337 131.478 47.598C131.142 47.2624 130.954 46.8072 130.953 46.3325Z" fill="#6C757D"/>
<path d="M153.601 70.604V53.4468C153.601 52.9721 153.79 52.5169 154.125 52.1813C154.46 51.8456 154.915 51.6568 155.389 51.6562H169.907C170.381 51.6568 170.836 51.8456 171.171 52.1813C171.506 52.5169 171.695 52.9721 171.695 53.4468V70.604C171.695 71.0787 171.506 71.5339 171.171 71.8695C170.836 72.2052 170.381 72.394 169.907 72.3945H155.389C154.915 72.394 154.46 72.2052 154.125 71.8695C153.79 71.5339 153.601 71.0787 153.601 70.604Z" fill="#614C17"/>
<path d="M240.362 149.044H225.423C225.282 149.044 225.142 149.077 225.015 149.14L221.244 151.03C221.12 151.082 221.014 151.171 220.94 151.283C220.866 151.396 220.826 151.528 220.826 151.663C220.826 151.798 220.866 151.93 220.94 152.043C221.014 152.155 221.12 152.243 221.244 152.296L225.015 154.186C225.142 154.249 225.282 154.282 225.423 154.282H240.362C240.567 154.294 240.77 154.224 240.924 154.087C241.079 153.951 241.174 153.759 241.189 153.553V149.773C241.174 149.567 241.079 149.375 240.924 149.238C240.77 149.102 240.567 149.032 240.362 149.044Z" fill="#212529"/>
<path d="M241.189 149.773V153.553C241.174 153.759 241.079 153.951 240.925 154.087C240.77 154.224 240.567 154.293 240.362 154.282H237.385V149.044H240.362C240.567 149.032 240.77 149.102 240.925 149.238C241.079 149.375 241.174 149.567 241.189 149.773Z" fill="#0A6A3E"/>
<path d="M240.249 120.765C240.926 120.472 241.657 120.326 242.393 120.336C243.13 120.347 243.857 120.512 244.525 120.823C245.193 121.134 245.789 121.583 246.272 122.14C246.755 122.697 247.115 123.351 247.329 124.057C247.395 124.281 247.446 124.509 247.481 124.74L268.37 135.114L273.205 131.905L279.22 138.84L271.838 144.844C270.951 145.56 269.856 145.971 268.717 146.015C267.578 146.059 266.455 145.734 265.514 145.088L244.32 130.41C244.162 130.477 244.001 130.536 243.838 130.587C243.132 130.8 242.39 130.862 241.658 130.769C240.927 130.675 240.224 130.427 239.596 130.043C238.967 129.658 238.426 129.144 238.009 128.535C237.592 127.927 237.309 127.237 237.176 126.511C237.137 126.3 237.112 126.087 237.099 125.873C237.04 124.801 237.311 123.737 237.874 122.824C238.437 121.911 239.266 121.192 240.249 120.765Z" fill="#FFB8B8"/>
<path d="M283.758 184.635H260.933C260.933 185.292 237.408 185.825 237.408 185.825C237.039 186.103 236.703 186.423 236.405 186.777C235.512 187.845 235.023 189.194 235.026 190.586V191.538C235.027 193.117 235.653 194.63 236.768 195.746C237.882 196.862 239.393 197.489 240.969 197.49H283.758C285.334 197.489 286.845 196.861 287.959 195.745C289.073 194.629 289.7 193.116 289.701 191.538V190.586C289.699 189.008 289.072 187.496 287.958 186.38C286.844 185.265 285.334 184.637 283.758 184.635Z" fill="#212529"/>
<path d="M258.929 237.246H265.11V197.252H258.929V237.246Z" fill="#212529"/>
<path d="M241.338 237.029C241.338 237.698 250.704 237.287 262.257 237.287C273.811 237.287 283.177 237.698 283.177 237.029C283.177 236.36 273.811 231.057 262.257 231.057C250.704 231.057 241.338 236.36 241.338 237.029Z" fill="#212529"/>
<path d="M246.918 232.343L241.089 232.342L238.316 217.203L246.919 217.204L246.918 232.343Z" fill="#F3ACAC"/>
<path d="M248.404 238L229.61 237.999V237.761C229.61 236.799 229.799 235.847 230.167 234.958C230.535 234.069 231.074 233.261 231.753 232.581C232.432 231.901 233.239 231.361 234.126 230.993C235.014 230.625 235.965 230.436 236.925 230.436H236.926L248.405 230.436L248.404 238Z" fill="#212529"/>
<path d="M238.2 222.953L226.58 196.858C225.61 194.659 225.503 192.174 226.28 189.899C227.057 187.624 228.661 185.726 230.773 184.582L255.977 171.047L267.478 170.067L278.088 169.102L278.164 169.231C278.262 169.397 280.543 173.342 279.001 177.669C277.831 180.951 274.789 183.514 269.959 185.288C258.684 189.428 245.66 192.966 240.584 194.295C240.359 194.352 240.15 194.457 239.968 194.601C239.787 194.746 239.639 194.927 239.532 195.133C239.426 195.336 239.362 195.56 239.346 195.789C239.33 196.019 239.362 196.249 239.439 196.465L250.234 220.754C250.347 221.062 250.388 221.392 250.353 221.718C250.318 222.045 250.209 222.359 250.034 222.636C249.859 222.913 249.623 223.147 249.344 223.318C249.064 223.49 248.75 223.595 248.423 223.625L240.357 224.213C240.288 224.22 240.22 224.223 240.152 224.223C239.739 224.223 239.335 224.103 238.989 223.877C238.642 223.652 238.368 223.331 238.2 222.953Z" fill="#343A40"/>
<path d="M249.771 232.343L243.942 232.342L241.169 217.203L249.771 217.204L249.771 232.343Z" fill="#FFB8B8"/>
<path d="M251.257 238L232.463 237.999V237.761C232.463 236.799 232.652 235.847 233.02 234.958C233.387 234.069 233.926 233.261 234.605 232.581C235.285 231.901 236.091 231.361 236.979 230.993C237.866 230.625 238.817 230.436 239.778 230.436H239.779L251.257 230.436L251.257 238Z" fill="#2A2F34"/>
<path d="M241.528 224.383L229.908 198.288C228.938 196.088 228.831 193.604 229.608 191.329C230.385 189.054 231.989 187.155 234.101 186.012L259.305 172.477L270.806 171.497L281.416 170.531L281.492 170.661C281.59 170.827 283.871 174.772 282.329 179.099C281.159 182.38 278.117 184.944 273.287 186.717C262.012 190.857 248.988 194.396 243.912 195.725C243.687 195.782 243.478 195.886 243.296 196.031C243.115 196.175 242.967 196.356 242.86 196.562C242.754 196.766 242.69 196.99 242.674 197.219C242.658 197.448 242.69 197.678 242.767 197.895L253.562 222.184C253.675 222.492 253.716 222.822 253.681 223.148C253.646 223.474 253.537 223.788 253.362 224.066C253.187 224.343 252.951 224.576 252.672 224.748C252.392 224.919 252.078 225.024 251.751 225.055L243.685 225.643C243.616 225.649 243.548 225.653 243.48 225.653C243.067 225.652 242.663 225.532 242.317 225.307C241.97 225.082 241.696 224.761 241.528 224.383Z" fill="#383E44"/>
<path d="M235.736 144.665C230.854 138.161 226.993 130.946 224.29 123.272C224.134 122.813 224.145 122.314 224.322 121.862C224.498 121.41 224.83 121.036 225.256 120.806L241.965 111.84C242.236 111.694 242.536 111.612 242.843 111.599C243.15 111.587 243.455 111.645 243.737 111.768C244.023 111.893 244.277 112.082 244.48 112.319C244.683 112.557 244.829 112.839 244.907 113.142C246.852 120.536 250.507 127.369 255.578 133.086C255.787 133.319 255.94 133.597 256.025 133.897C256.111 134.198 256.127 134.515 256.072 134.823C256.019 135.126 255.898 135.413 255.717 135.662C255.537 135.911 255.302 136.115 255.031 136.26L238.322 145.226C237.894 145.454 237.4 145.523 236.926 145.42C236.453 145.318 236.031 145.05 235.736 144.665Z" fill="#CCCCCC"/>
<path d="M236.877 143.807C236.966 143.919 237.093 143.996 237.233 144.026C237.374 144.055 237.521 144.034 237.648 143.966L254.357 135C254.438 134.958 254.509 134.897 254.562 134.823C254.616 134.749 254.652 134.663 254.667 134.573C254.685 134.477 254.68 134.379 254.653 134.286C254.626 134.193 254.578 134.107 254.513 134.036C249.293 128.15 245.529 121.116 243.527 113.503C243.504 113.409 243.459 113.322 243.397 113.248C243.334 113.174 243.255 113.115 243.167 113.077C243.083 113.04 242.992 113.022 242.9 113.026C242.809 113.03 242.719 113.055 242.639 113.099L225.93 122.065C225.803 122.133 225.705 122.244 225.651 122.378C225.597 122.511 225.591 122.66 225.635 122.797C228.29 130.333 232.081 137.419 236.877 143.807Z" fill="white"/>
<path d="M291.247 142.274L278.161 147.254L274.966 138.367C274.542 137.186 274.548 135.894 274.983 134.718C275.418 133.542 276.254 132.558 277.344 131.939C278.446 131.314 279.736 131.103 280.979 131.347C282.223 131.59 283.339 132.27 284.125 133.265L291.247 142.274Z" fill="#6C63FF"/>
<path d="M257.962 177.488C257.687 177.293 257.456 177.041 257.285 176.75C257.114 176.459 257.007 176.134 256.971 175.798C255.295 160.129 256.463 147.867 260.54 138.311C261.258 136.663 262.34 135.199 263.704 134.03C265.068 132.861 266.679 132.016 268.416 131.56L278.995 131.025L279.049 131.052C281.436 132.223 283.383 134.133 284.601 136.499C285.819 138.865 286.243 141.561 285.81 144.187C282.407 153.168 279.559 162.519 281.731 170.062C281.822 170.378 281.849 170.708 281.809 171.034C281.77 171.36 281.665 171.675 281.501 171.959C281.342 172.234 281.129 172.473 280.874 172.662C280.619 172.851 280.329 172.986 280.02 173.058L259.872 177.858C259.545 177.936 259.206 177.943 258.877 177.879C258.548 177.815 258.236 177.682 257.962 177.488Z" fill="#102C7A"/>
<path d="M275.464 127.068C281.913 127.068 287.142 121.832 287.142 115.374C287.142 108.915 281.913 103.68 275.464 103.68C269.015 103.68 263.787 108.915 263.787 115.374C263.787 121.832 269.015 127.068 275.464 127.068Z" fill="#FFB8B8"/>
<path d="M243.062 124.636L233.962 128.659C233.616 128.811 233.223 128.82 232.871 128.683C232.518 128.547 232.234 128.275 232.081 127.929L231.856 127.418C231.703 127.072 231.695 126.679 231.831 126.326C231.968 125.972 232.239 125.688 232.585 125.535L241.685 121.512C242.031 121.359 242.424 121.35 242.776 121.487C243.129 121.624 243.413 121.895 243.566 122.242L243.791 122.752C243.943 123.099 243.952 123.492 243.816 123.845C243.679 124.198 243.408 124.483 243.062 124.636Z" fill="#CCCCCC"/>
<path d="M246.39 130.825L237.29 134.848C236.944 135.001 236.551 135.01 236.199 134.873C235.846 134.736 235.562 134.465 235.409 134.118L235.184 133.608C235.032 133.261 235.023 132.868 235.159 132.515C235.296 132.162 235.567 131.878 235.913 131.724L245.013 127.701C245.359 127.549 245.752 127.54 246.104 127.677C246.457 127.814 246.741 128.085 246.894 128.431L247.119 128.942C247.271 129.288 247.28 129.681 247.144 130.034C247.007 130.388 246.736 130.672 246.39 130.825Z" fill="#CCCCCC"/>
<path d="M253.408 155.001L233.12 138.972C232.958 139.029 232.794 139.077 232.627 139.117C231.911 139.285 231.168 139.3 230.445 139.161C229.723 139.023 229.038 138.733 228.435 138.312C227.827 137.891 227.317 137.344 226.938 136.709C226.558 136.074 226.319 135.365 226.235 134.63C226.099 133.455 226.364 132.268 226.986 131.262C227.608 130.256 228.551 129.49 229.663 129.089C230.356 128.84 231.095 128.74 231.829 128.797C232.564 128.853 233.279 129.064 233.926 129.417C234.574 129.769 235.14 130.254 235.587 130.841C236.034 131.427 236.353 132.102 236.521 132.82C236.574 133.048 236.61 133.279 236.63 133.512L256.827 145.18L261.853 142.282L267.421 149.582L259.617 155.152C258.704 155.799 257.606 156.134 256.488 156.106C255.369 156.079 254.29 155.691 253.408 155.001Z" fill="#FFB8B8"/>
<path d="M269.897 151.856L258.321 143.973L263.761 136.256C264.484 135.232 265.544 134.496 266.756 134.179C267.968 133.862 269.253 133.984 270.383 134.523C271.527 135.069 272.438 136.007 272.952 137.166C273.466 138.326 273.549 139.632 273.186 140.847L269.897 151.856Z" fill="#102C7A"/>
<path d="M271.183 113.632C268.182 115.689 264.241 117.804 261.176 115.613C259.163 114.175 258.529 111.511 259.345 109.174C260.813 104.97 264.846 103.12 268.702 101.701C273.715 99.857 279.174 98.39 284.349 99.7106C289.524 101.031 294.098 106.049 293.164 111.315C292.412 115.55 288.424 119.073 288.99 123.337C289.56 127.628 294.378 129.886 298.632 130.653C302.886 131.42 307.647 131.666 310.704 134.726C314.604 138.63 313.63 145.607 309.96 149.729C306.291 153.85 300.753 155.718 295.386 156.988C288.277 158.671 280.587 159.555 273.834 156.763C267.081 153.97 261.827 146.453 263.783 139.404C264.609 136.426 266.555 133.91 268.437 131.46C270.318 129.01 272.223 126.448 272.94 123.442C273.538 120.938 273.095 118.03 271.437 116.151C271.135 115.822 270.945 115.406 270.895 114.962C270.844 114.518 270.935 114.07 271.154 113.681L271.183 113.632Z" fill="#212529"/>
<path d="M51.8566 170.449C48.8476 171.508 45.617 171.773 42.4759 171.219C39.3348 170.665 36.3891 169.31 33.9227 167.285C27.6413 162.005 25.6719 153.307 24.0694 145.253C22.4895 137.312 20.9096 129.371 19.3297 121.43L29.2528 128.272C36.3889 133.193 43.6857 138.271 48.6267 145.399C53.5677 152.526 55.7245 162.256 51.7545 169.968" fill="#125D1B"/>
<path d="M51.0083 199.292C52.0127 191.966 53.0454 184.546 52.3409 177.141C51.7152 170.565 49.7118 164.142 45.6331 158.875C43.4681 156.085 40.8337 153.695 37.8484 151.811C37.07 151.319 36.3535 152.554 37.1285 153.044C42.294 156.314 46.2893 161.141 48.5384 166.831C51.0225 173.158 51.4214 180.056 50.9933 186.777C50.7345 190.842 50.1858 194.88 49.6329 198.913C49.5894 199.095 49.6166 199.287 49.709 199.45C49.8015 199.613 49.9523 199.735 50.131 199.791C50.3134 199.841 50.5078 199.816 50.672 199.722C50.8362 199.629 50.9571 199.475 51.0083 199.292H51.0083Z" fill="#032C17"/>
<path d="M41.3346 186.329C40.0441 188.293 38.2702 189.891 36.1839 190.97C34.0976 192.048 31.7691 192.57 29.4227 192.486C23.3928 192.199 18.3657 187.984 13.8403 183.983L0.455322 172.148L9.31399 171.724C15.6846 171.418 22.2196 171.133 28.2874 173.101C34.3552 175.068 39.9512 179.803 41.0608 186.093" fill="#125D1B"/>
<path d="M53.8468 203.503C49.0127 194.937 43.4056 185.417 33.3866 182.374C30.6008 181.531 27.6798 181.229 24.7808 181.484C23.8671 181.563 24.0952 182.974 25.0073 182.895C29.8667 182.491 34.7167 183.776 38.7409 186.534C42.6132 189.173 45.6283 192.843 48.1802 196.735C49.7433 199.118 51.1434 201.603 52.5439 204.085C52.9914 204.878 54.2995 204.305 53.8468 203.503Z" fill="#032C17"/>
<path d="M61.5923 212.52C61.4295 210.63 60.7519 208.821 59.6333 207.29C58.5148 205.759 56.9982 204.564 55.2487 203.837V198.885H46.9549V203.993C45.2915 204.756 43.86 205.947 42.8063 207.445C41.7526 208.943 41.1144 210.694 40.9567 212.52L39.0065 235.223H63.5426L61.5923 212.52Z" fill="#715C20"/>
</g>
<defs>
<clipPath id="clip0_709_8637">
<rect width="329" height="238" fill="white"/>
</clipPath>
</defs>
</svg>
