<svg width="129" height="128" viewBox="0 0 129 128" fill="none" xmlns="http://www.w3.org/2000/svg">
<path d="M102.78 44.4448H92.9401L87.6068 34.667H67.2868L61.9534 44.4448H42.7801V39.5559H29.4468V44.4448H25.4468C24.3859 44.4448 23.3685 44.8311 22.6184 45.5187C21.8682 46.2063 21.4468 47.139 21.4468 48.1114V89.667C21.4468 90.6395 21.8682 91.5721 22.6184 92.2597C23.3685 92.9473 24.3859 93.3337 25.4468 93.3337H102.78C103.841 93.3337 104.858 92.9473 105.609 92.2597C106.359 91.5721 106.78 90.6395 106.78 89.667V48.1114C106.78 47.139 106.359 46.2063 105.609 45.5187C104.858 44.8311 103.841 44.4448 102.78 44.4448ZM32.1134 42.0003H40.1134V44.4448H32.1134V42.0003ZM104.113 89.667C104.113 89.9911 103.973 90.302 103.723 90.5312C103.473 90.7604 103.134 90.8892 102.78 90.8892H25.4468C25.0932 90.8892 24.754 90.7604 24.504 90.5312C24.2539 90.302 24.1134 89.9911 24.1134 89.667V48.1114C24.1134 47.7873 24.2539 47.4764 24.504 47.2472C24.754 47.018 25.0932 46.8892 25.4468 46.8892H63.6068L68.9401 37.1114H85.9534L91.2868 46.8892H102.78C103.134 46.8892 103.473 47.018 103.723 47.2472C103.973 47.4764 104.113 47.7873 104.113 48.1114V89.667Z" fill="#032C17"/>
<path d="M42.7801 49.3337H40.1134V88.4448H42.7801V49.3337Z" fill="#032C17"/>
<path d="M77.4468 49.3337C73.2274 49.3337 69.1029 50.4806 65.5946 52.6294C62.0864 54.7782 59.352 57.8323 57.7373 61.4056C56.1227 64.9789 55.7002 68.9109 56.5234 72.7043C57.3465 76.4977 59.3783 79.9822 62.3618 82.7171C65.3453 85.452 69.1466 87.3145 73.2848 88.069C77.4231 88.8236 81.7125 88.4363 85.6107 86.9562C89.5088 85.4761 92.8407 82.9696 95.1848 79.7537C97.5289 76.5378 98.7801 72.7569 98.7801 68.8892C98.7801 63.7028 96.5325 58.7287 92.5317 55.0613C88.5309 51.394 83.1047 49.3337 77.4468 49.3337ZM77.4468 86.0003C73.7549 86.0003 70.1458 84.9968 67.0761 83.1166C64.0064 81.2364 61.6139 78.564 60.201 75.4374C58.7882 72.3107 58.4185 68.8702 59.1388 65.551C59.859 62.2318 61.6369 59.1829 64.2474 56.7898C66.858 54.3968 70.1841 52.7671 73.8051 52.1069C77.4261 51.4467 81.1793 51.7855 84.5902 53.0806C88.0011 54.3757 90.9164 56.5689 92.9675 59.3828C95.0187 62.1967 96.1134 65.505 96.1134 68.8892C96.1134 73.4274 94.1468 77.7796 90.6461 80.9886C87.1454 84.1976 82.3975 86.0003 77.4468 86.0003Z" fill="#032C17"/>
<path d="M77.4468 56.667C74.8097 56.667 72.2318 57.3838 70.0392 58.7268C67.8465 60.0698 66.1375 61.9787 65.1284 64.212C64.1192 66.4453 63.8552 68.9028 64.3696 71.2737C64.8841 73.6445 66.154 75.8223 68.0187 77.5316C69.8834 79.2409 72.2592 80.405 74.8456 80.8766C77.432 81.3482 80.1129 81.1061 82.5492 80.1811C84.9856 79.256 87.0679 77.6894 88.533 75.6795C89.9981 73.6696 90.7801 71.3065 90.7801 68.8892C90.7801 65.6477 89.3754 62.5389 86.8749 60.2468C84.3744 57.9547 80.983 56.667 77.4468 56.667ZM77.4468 78.667C75.3371 78.667 73.2748 78.0935 71.5207 77.0191C69.7666 75.9447 68.3994 74.4177 67.5921 72.631C66.7847 70.8443 66.5735 68.8784 66.9851 66.9817C67.3966 65.085 68.4125 63.3427 69.9043 61.9753C71.3961 60.6078 73.2967 59.6766 75.3658 59.2993C77.4349 58.922 79.5797 59.1157 81.5287 59.8557C83.4778 60.5958 85.1437 61.849 86.3158 63.457C87.4878 65.0649 88.1134 66.9554 88.1134 68.8892C88.1134 71.4824 86.9896 73.9695 84.9892 75.8031C82.9889 77.6368 80.2757 78.667 77.4468 78.667Z" fill="#032C17"/>
<path d="M56.1134 54.2225C57.5862 54.2225 58.7801 53.1281 58.7801 51.7781C58.7801 50.4281 57.5862 49.3337 56.1134 49.3337C54.6407 49.3337 53.4468 50.4281 53.4468 51.7781C53.4468 53.1281 54.6407 54.2225 56.1134 54.2225Z" fill="#032C17"/>
</svg>
