<svg width="305" height="200" viewBox="0 0 305 200" fill="none" xmlns="http://www.w3.org/2000/svg">
<path d="M212.917 69.4448H197.542L189.208 54.167H157.458L149.125 69.4448H119.167V61.8059H98.3333V69.4448H92.0833C90.4256 69.4448 88.8359 70.0484 87.6638 71.1228C86.4917 72.1972 85.8333 73.6545 85.8333 75.1739V140.104C85.8333 141.624 86.4917 143.081 87.6638 144.156C88.8359 145.23 90.4256 145.834 92.0833 145.834H212.917C214.574 145.834 216.164 145.23 217.336 144.156C218.508 143.081 219.167 141.624 219.167 140.104V75.1739C219.167 73.6545 218.508 72.1972 217.336 71.1228C216.164 70.0484 214.574 69.4448 212.917 69.4448ZM102.5 65.6253H115V69.4448H102.5V65.6253ZM215 140.104C215 140.611 214.78 141.097 214.39 141.455C213.999 141.813 213.469 142.014 212.917 142.014H92.0833C91.5307 142.014 91.0008 141.813 90.6101 141.455C90.2194 141.097 89.9999 140.611 89.9999 140.104V75.1739C89.9999 74.6674 90.2194 74.1817 90.6101 73.8236C91.0008 73.4654 91.5307 73.2642 92.0833 73.2642H151.708L160.042 57.9864H186.625L194.958 73.2642H212.917C213.469 73.2642 213.999 73.4654 214.39 73.8236C214.78 74.1817 215 74.6674 215 75.1739V140.104Z" fill="#032C17"/>
<path d="M119.167 77.0837H115V138.195H119.167V77.0837Z" fill="#032C17"/>
<path d="M173.333 77.0837C166.741 77.0837 160.296 78.8757 154.814 82.2332C149.333 85.5907 145.06 90.3628 142.537 95.9461C140.014 101.529 139.354 107.673 140.64 113.6C141.927 119.527 145.101 124.972 149.763 129.245C154.425 133.519 160.364 136.429 166.83 137.608C173.296 138.787 179.999 138.182 186.089 135.869C192.18 133.556 197.386 129.64 201.049 124.615C204.712 119.59 206.667 113.683 206.667 107.639C206.667 99.5354 203.155 91.7634 196.903 86.0332C190.652 80.3029 182.174 77.0837 173.333 77.0837ZM173.333 134.375C167.565 134.375 161.926 132.807 157.129 129.869C152.333 126.932 148.594 122.756 146.387 117.871C144.179 112.985 143.602 107.61 144.727 102.423C145.852 97.2369 148.63 92.473 152.709 88.7339C156.788 84.9948 161.985 82.4484 167.643 81.4168C173.301 80.3852 179.165 80.9147 184.495 82.9383C189.824 84.9619 194.38 88.3887 197.584 92.7854C200.789 97.1822 202.5 102.351 202.5 107.639C202.5 114.73 199.427 121.53 193.957 126.544C188.487 131.558 181.069 134.375 173.333 134.375Z" fill="#032C17"/>
<path d="M173.333 88.542C169.213 88.542 165.185 89.662 161.759 91.7605C158.333 93.8589 155.663 96.8415 154.086 100.331C152.509 103.821 152.096 107.66 152.9 111.365C153.704 115.069 155.688 118.472 158.602 121.143C161.515 123.814 165.228 125.633 169.269 126.369C173.31 127.106 177.499 126.728 181.306 125.283C185.113 123.837 188.366 121.39 190.656 118.249C192.945 115.109 194.167 111.416 194.167 107.639C194.167 102.574 191.972 97.7169 188.065 94.1354C184.158 90.554 178.859 88.542 173.333 88.542ZM173.333 122.917C170.037 122.917 166.815 122.021 164.074 120.342C161.333 118.663 159.197 116.277 157.935 113.486C156.674 110.694 156.344 107.622 156.987 104.659C157.63 101.695 159.217 98.9728 161.548 96.8362C163.879 94.6996 166.849 93.2445 170.082 92.655C173.315 92.0655 176.666 92.368 179.711 93.5244C182.757 94.6807 185.36 96.6389 187.191 99.1513C189.022 101.664 190 104.618 190 107.639C190 111.691 188.244 115.577 185.118 118.442C181.993 121.307 177.754 122.917 173.333 122.917Z" fill="#032C17"/>
<path d="M140 84.7225C142.301 84.7225 144.167 83.0125 144.167 80.9031C144.167 78.7937 142.301 77.0837 140 77.0837C137.699 77.0837 135.833 78.7937 135.833 80.9031C135.833 83.0125 137.699 84.7225 140 84.7225Z" fill="#032C17"/>
</svg>
