<svg width="29" height="29" viewBox="0 0 29 29" fill="none" xmlns="http://www.w3.org/2000/svg">
<path fill-rule="evenodd" clip-rule="evenodd" d="M3.26663 5.21191C3.02742 5.21191 2.8335 5.38973 2.8335 5.60908C2.8335 5.82842 3.02742 6.00624 3.26663 6.00624H4.83477C5.45415 6.00624 5.98744 6.40711 6.10893 6.96402L6.4373 8.46926C6.44396 8.49979 6.45427 8.5288 6.46773 8.55597L8.3439 17.5018C8.53999 18.4368 9.43223 19.1126 10.4706 19.1126H20.6063C21.5024 19.1126 22.3059 18.6066 22.6276 17.8397L26.079 9.61127C26.4064 8.83084 25.7781 7.99206 24.8662 7.99206H7.21662L6.95837 6.80822C6.75588 5.88003 5.86708 5.21191 4.83477 5.21191H3.26663ZM7.89797 11.1694L9.19458 17.3518C9.31224 17.9128 9.84758 18.3183 10.4706 18.3183H20.6063C21.1439 18.3183 21.6261 18.0147 21.8191 17.5545L25.2705 9.32612C25.3796 9.06598 25.1702 8.78638 24.8662 8.78638H7.3982L7.73138 10.375H18.1145C18.3537 10.375 18.5477 10.5529 18.5477 10.7722C18.5477 10.9916 18.3537 11.1694 18.1145 11.1694H7.89797ZM9.90575 21.8928C9.90575 21.2347 10.4875 20.7013 11.2052 20.7013C11.9228 20.7013 12.5046 21.2347 12.5046 21.8928C12.5046 22.5508 11.9228 23.0843 11.2052 23.0843C10.4875 23.0843 9.90575 22.5508 9.90575 21.8928ZM11.2052 19.907C10.0091 19.907 9.03948 20.796 9.03948 21.8928C9.03948 22.9895 10.0091 23.8786 11.2052 23.8786C12.4012 23.8786 13.3708 22.9895 13.3708 21.8928C13.3708 20.796 12.4012 19.907 11.2052 19.907ZM18.5684 21.8928C18.5684 21.2347 19.1502 20.7013 19.8678 20.7013C20.5855 20.7013 21.1672 21.2347 21.1672 21.8928C21.1672 22.5508 20.5855 23.0843 19.8678 23.0843C19.1502 23.0843 18.5684 22.5508 18.5684 21.8928ZM19.8678 19.907C18.6718 19.907 17.7022 20.796 17.7022 21.8928C17.7022 22.9895 18.6718 23.8786 19.8678 23.8786C21.0639 23.8786 22.0335 22.9895 22.0335 21.8928C22.0335 20.796 21.0639 19.907 19.8678 19.907ZM19.6305 10.7722C19.6305 10.5529 19.8244 10.375 20.0636 10.375H20.7134C20.9526 10.375 21.1465 10.5529 21.1465 10.7722C21.1465 10.9916 20.9526 11.1694 20.7134 11.1694H20.0636C19.8244 11.1694 19.6305 10.9916 19.6305 10.7722Z" fill="#F8F9FA"/>
</svg>
