<svg width="28" height="29" viewBox="0 0 28 29" fill="none" xmlns="http://www.w3.org/2000/svg">
<path d="M18.2011 13.8106C18.139 13.8112 18.0777 13.8235 18.0206 13.8468C17.9635 13.87 17.9119 13.9038 17.8686 13.9461L14.4511 17.187L14.4511 5.15873C14.4511 5.04023 14.4016 4.92658 14.3133 4.84278C14.2251 4.75899 14.1054 4.71192 13.9806 4.71192C13.8558 4.71192 13.7362 4.75899 13.6479 4.84278C13.5597 4.92658 13.5101 5.04023 13.5101 5.15873L13.5101 17.187L10.0926 13.9461C10.0021 13.8792 9.88898 13.846 9.7745 13.8528C9.66002 13.8595 9.55208 13.9058 9.47098 13.9828C9.38988 14.0598 9.34119 14.1623 9.33408 14.271C9.32696 14.3797 9.36191 14.4872 9.43235 14.5731L13.6481 18.5811C13.6701 18.6022 13.6943 18.6211 13.7203 18.6377L13.7563 18.6555C13.7711 18.6638 13.7863 18.6712 13.8018 18.6779C13.8177 18.6837 13.834 18.6886 13.8504 18.6928L13.8881 18.7032C13.9492 18.7148 14.0121 18.7148 14.0732 18.7032L14.1124 18.6913C14.1289 18.6872 14.1451 18.6822 14.161 18.6764C14.1766 18.6697 14.1917 18.6623 14.2065 18.654L14.241 18.6377C14.2669 18.6211 14.2911 18.6022 14.3131 18.5811L18.5289 14.5731C18.5946 14.5106 18.6394 14.4311 18.6575 14.3444C18.6756 14.2578 18.6663 14.168 18.6307 14.0864C18.5951 14.0048 18.5349 13.9351 18.4576 13.886C18.3803 13.8369 18.2894 13.8106 18.1964 13.8106L18.2011 13.8106Z" fill="#495057"/>
<path d="M22.8957 17.5449C22.7796 17.5449 22.6684 17.591 22.5863 17.6731C22.5043 17.7551 22.4582 17.8664 22.4582 17.9824V21.1908C22.4582 21.5389 22.3199 21.8727 22.0737 22.1188C21.8276 22.365 21.4938 22.5033 21.1457 22.5033H6.854C6.50591 22.5033 6.17207 22.365 5.92593 22.1188C5.67978 21.8727 5.5415 21.5389 5.5415 21.1908V17.9824C5.5415 17.8664 5.49541 17.7551 5.41336 17.6731C5.33132 17.591 5.22004 17.5449 5.104 17.5449C4.98797 17.5449 4.87669 17.591 4.79464 17.6731C4.7126 17.7551 4.6665 17.8664 4.6665 17.9824V21.1908C4.6665 21.7709 4.89697 22.3273 5.30721 22.7376C5.71744 23.1478 6.27384 23.3783 6.854 23.3783H21.1457C21.7258 23.3783 22.2822 23.1478 22.6925 22.7376C23.1027 22.3273 23.3332 21.7709 23.3332 21.1908V17.9824C23.3332 17.8664 23.2871 17.7551 23.205 17.6731C23.123 17.591 23.0117 17.5449 22.8957 17.5449Z" fill="#495057"/>
</svg>
