<svg width="28" height="29" viewBox="0 0 28 29" fill="none" xmlns="http://www.w3.org/2000/svg">
<path d="M13.9999 11.2488C15.3658 11.2488 16.4814 12.2492 16.4814 13.4745V14.5077C16.4814 14.7654 16.2483 14.9745 15.961 14.9745H12.0388C11.7516 14.9745 11.5185 14.7654 11.5185 14.5077V13.4745C11.5185 12.2495 12.6341 11.2488 13.9999 11.2488V11.2488ZM9.41221 17.048C8.72777 17.048 8.72777 16.1145 9.41221 16.1145H18.5877C19.2721 16.1145 19.2721 17.048 18.5877 17.048H9.41221ZM9.41221 21.0647C8.72777 21.0647 8.72777 20.1315 9.41221 20.1315H18.5877C19.2721 20.1315 19.2721 21.0647 18.5877 21.0647H9.41221ZM9.41221 19.0565C8.72777 19.0565 8.72777 18.123 9.41221 18.123H18.5877C19.2721 18.123 19.2721 19.0565 18.5877 19.0565H9.41221ZM6.35364 5.16602H18.0963C18.2399 5.16602 18.3699 5.21823 18.4642 5.30276L22.0142 8.4868C22.1157 8.57789 22.1666 8.69746 22.1666 8.8168V23.3659C22.1666 23.6236 21.9335 23.8327 21.6462 23.8327H6.35364C6.06636 23.8327 5.83325 23.6236 5.83325 23.3659V5.63276C5.83325 5.37509 6.06636 5.16602 6.35364 5.16602V5.16602ZM17.8808 6.09928H6.87378V22.8994H21.1261V9.01005L17.8808 6.09928V6.09928ZM13.9999 7.39487C15.1587 7.39487 16.0979 8.23749 16.0979 9.27677C16.0979 10.3158 15.1587 11.1584 13.9999 11.1584C12.8412 11.1584 11.902 10.3158 11.902 9.27677C11.902 8.23749 12.8412 7.39487 13.9999 7.39487ZM13.9999 8.32836C13.4158 8.32836 12.9425 8.75284 12.9425 9.27677C12.9425 9.80047 13.4158 10.2252 13.9999 10.2252C14.5841 10.2252 15.0573 9.80047 15.0573 9.27677C15.0573 8.75284 14.5841 8.32836 13.9999 8.32836ZM13.9999 12.1821C13.2086 12.1821 12.559 12.7646 12.559 13.4745V14.0412H15.4409V13.4745C15.4409 12.7646 14.7912 12.1821 13.9999 12.1821Z" fill="#F8F9FA"/>
</svg>
