<svg width="29" height="29" viewBox="0 0 29 29" fill="none" xmlns="http://www.w3.org/2000/svg">
<path fill-rule="evenodd" clip-rule="evenodd" d="M5.16675 5.80238C5.16675 5.45092 5.42792 5.16602 5.75008 5.16602H18.5834C18.9056 5.16602 19.1667 5.45092 19.1667 5.80238V15.9842C19.1667 16.3356 18.9056 16.6205 18.5834 16.6205H11.2417L9.07923 18.9796C8.9124 19.1616 8.66149 19.2161 8.44352 19.1176C8.22554 19.0191 8.08341 18.787 8.08341 18.5296V16.6205H5.75008C5.42792 16.6205 5.16675 16.3356 5.16675 15.9842V5.80238ZM6.33341 6.43874V15.3478H8.66675C8.98891 15.3478 9.25008 15.6327 9.25008 15.9842V16.9933L10.5876 15.5342C10.697 15.4149 10.8454 15.3478 11.0001 15.3478H18.0001V6.43874H6.33341Z" fill="#F8F9FA"/>
<path fill-rule="evenodd" clip-rule="evenodd" d="M19.9834 10.469C19.9834 10.1176 20.2707 9.83268 20.6251 9.83268H23.1917C23.5461 9.83268 23.8334 10.1176 23.8334 10.469V20.6509C23.8334 21.0023 23.5461 21.2872 23.1917 21.2872H17.6825L15.3038 23.6463C15.1203 23.8283 14.8443 23.8827 14.6045 23.7842C14.3648 23.6857 14.2084 23.4537 14.2084 23.1963V21.2872H11.6417C11.2874 21.2872 11.0001 21.0023 11.0001 20.6509V18.1054C11.0001 17.7539 11.2874 17.469 11.6417 17.469C11.9961 17.469 12.2834 17.7539 12.2834 18.1054V20.0145H14.8501C15.2045 20.0145 15.4917 20.2994 15.4917 20.6509V21.66L16.963 20.2009C17.0834 20.0815 17.2466 20.0145 17.4167 20.0145H22.5501V11.1054H20.6251C20.2707 11.1054 19.9834 10.8205 19.9834 10.469Z" fill="#F8F9FA"/>
</svg>
