<svg width="56" height="56" viewBox="0 0 56 56" fill="none" xmlns="http://www.w3.org/2000/svg">
<path fill-rule="evenodd" clip-rule="evenodd" d="M28 10.8273C18.5154 10.8273 10.8267 18.5161 10.8267 28.0007C10.8267 37.4852 18.5154 45.174 28 45.174C37.4846 45.174 45.1733 37.4852 45.1733 28.0007C45.1733 18.5161 37.4846 10.8273 28 10.8273ZM9.33334 28.0007C9.33334 17.6913 17.6907 9.33398 28 9.33398C38.3093 9.33398 46.6667 17.6913 46.6667 28.0007C46.6667 38.31 38.3093 46.6673 28 46.6673C17.6907 46.6673 9.33334 38.31 9.33334 28.0007Z" fill="#F8F9FA"/>
<path d="M27.0974 21.2194C26.9376 21.2194 26.8333 21.1092 26.8333 20.9446V18.9408C26.8333 18.7762 26.9384 18.666 27.0974 18.666H28.9012C29.0602 18.666 29.1667 18.7762 29.1667 18.9408V20.9446C29.1667 21.1092 29.0594 21.2194 28.9012 21.2194H27.0974ZM27.1513 37.3327C26.9923 37.3327 26.8866 37.2232 26.8866 37.0587V24.4586C26.8866 24.294 26.9931 24.1838 27.1513 24.1838H28.8487C29.0084 24.1838 29.1142 24.294 29.1142 24.4586V37.0587C29.1142 37.224 29.0077 37.3327 28.8487 37.3327H27.1513Z" fill="#F8F9FA"/>
</svg>
