<svg width="56" height="56" viewBox="0 0 56 56" fill="none" xmlns="http://www.w3.org/2000/svg">
<path d="M18.7474 25.2204C18.1956 24.7604 17.299 24.7604 16.7472 25.2204C16.1954 25.6804 16.1954 26.4279 16.7472 26.8879L23.265 32.3217C23.5409 32.5517 23.8857 32.6667 24.2651 32.6667C24.2996 32.6667 24.2996 32.6667 24.334 32.6667C24.7134 32.6379 25.0927 32.4942 25.3686 32.2354L41.6803 15.9341C42.1631 15.4454 42.0941 14.6979 41.5078 14.2666C40.9216 13.8641 40.025 13.9216 39.5077 14.4104L24.1616 29.7342L18.7474 25.2204Z" fill="#F8F9FA"/>
<path d="M37.856 12.1858C30.4559 7.55822 20.9644 8.65083 14.7869 14.8209C7.51554 22.0835 7.51554 33.9416 14.7869 41.2043C18.4226 44.8356 23.2166 46.6673 27.9784 46.6673C32.7402 46.6673 37.5342 44.8356 41.1699 41.2043C47.3796 35.0021 48.4413 25.4899 43.7761 18.0987C43.39 17.4881 42.5856 17.2953 41.9743 17.681C41.363 18.0666 41.1699 18.87 41.556 19.4806C45.5778 25.8434 44.6448 34.0059 39.3038 39.3404C33.062 45.5747 22.8627 45.5747 16.6209 39.3404C10.3791 33.1061 10.3791 22.9191 16.6209 16.6848C21.9618 11.3824 30.1019 10.4504 36.4725 14.4031C37.0838 14.7887 37.8881 14.5959 38.2742 13.9854C38.6603 13.3748 38.4673 12.5714 37.856 12.1858Z" fill="#F8F9FA"/>
</svg>
